<svg width="317" height="317" viewBox="0 0 317 317" fill="none" xmlns="http://www.w3.org/2000/svg">
<g filter="url(#filter0_d_1080_23428)">
<g clip-path="url(#clip0_1080_23428)">
<rect x="38.8115" y="2.94934" width="266.783" height="290.4" rx="10.7556" fill="url(#paint0_linear_1080_23428)"/>
<path d="M57.9028 17.6213V26.3204H56.4443V17.6213H57.9028ZM53.6694 18.2796V16.9373H60.6906V18.2796H53.6694ZM64.7769 19.9445V21.2223H64.2219C63.6454 21.2223 63.1894 21.3815 62.8538 21.6998C62.5268 22.0182 62.3634 22.4872 62.3634 23.1067V26.3204H60.9823V19.9833H62.2859L62.4021 21.2868H62.273C62.359 20.8652 62.5613 20.521 62.8796 20.2543C63.198 19.9876 63.611 19.8542 64.1187 19.8542C64.2219 19.8542 64.3252 19.8628 64.4284 19.88C64.5403 19.8886 64.6564 19.9101 64.7769 19.9445ZM67.4918 26.4882C66.8207 26.4882 66.2915 26.3075 65.9043 25.9461C65.5257 25.5848 65.3364 25.1158 65.3364 24.5393C65.3364 23.9542 65.5386 23.4896 65.943 23.1454C66.356 22.7926 66.9368 22.5861 67.6854 22.5259L69.6343 22.371V22.2161C69.6343 21.8891 69.5741 21.631 69.4536 21.4417C69.3332 21.2438 69.1697 21.1018 68.9632 21.0158C68.7567 20.9297 68.5158 20.8867 68.2404 20.8867C67.75 20.8867 67.3714 20.9857 67.1046 21.1836C66.8379 21.3815 66.7045 21.6611 66.7045 22.0225H65.5171C65.5171 21.5665 65.629 21.175 65.8527 20.848C66.085 20.5124 66.412 20.2543 66.8336 20.0736C67.2552 19.8843 67.7457 19.7897 68.305 19.7897C68.8556 19.7897 69.3289 19.8886 69.7247 20.0865C70.1291 20.2758 70.4389 20.5641 70.654 20.9513C70.8777 21.3385 70.9895 21.8246 70.9895 22.4097V26.3204H69.7892L69.6602 25.3395C69.5139 25.6837 69.2428 25.9634 68.847 26.1785C68.4512 26.385 67.9995 26.4882 67.4918 26.4882ZM67.9307 25.417C68.4555 25.417 68.8728 25.2621 69.1826 24.9523C69.4924 24.634 69.6472 24.208 69.6472 23.6746V23.3261L68.1759 23.4552C67.6596 23.4982 67.2896 23.61 67.0659 23.7907C66.8508 23.9714 66.7432 24.1994 66.7432 24.4748C66.7432 24.7931 66.8465 25.0298 67.053 25.1846C67.2595 25.3395 67.5521 25.417 67.9307 25.417ZM75.1844 26.4882C74.5735 26.4882 74.0443 26.3462 73.5969 26.0623C73.1581 25.7784 72.8182 25.3912 72.5773 24.9007C72.3363 24.4016 72.2159 23.8251 72.2159 23.1712C72.2159 22.5173 72.3363 21.9365 72.5773 21.4288C72.8182 20.9211 73.1667 20.521 73.6227 20.2285C74.0787 19.9359 74.6251 19.7897 75.2619 19.7897C75.7265 19.7897 76.1438 19.8843 76.5138 20.0736C76.8924 20.2629 77.1849 20.5382 77.3915 20.8996V16.7695H78.7854V26.3204H77.5076L77.4173 25.2492C77.2194 25.645 76.9182 25.9504 76.5138 26.1656C76.118 26.3807 75.6749 26.4882 75.1844 26.4882ZM75.4813 25.2105C75.8771 25.2105 76.2126 25.1244 76.488 24.9523C76.7719 24.7716 76.9913 24.5264 77.1462 24.2166C77.3011 23.8983 77.3785 23.5369 77.3785 23.1325C77.3785 22.7195 77.3011 22.3581 77.1462 22.0483C76.9913 21.73 76.7719 21.4847 76.488 21.3126C76.2126 21.132 75.8771 21.0416 75.4813 21.0416C75.0941 21.0416 74.7585 21.132 74.4745 21.3126C74.1992 21.4933 73.9841 21.7386 73.8292 22.0483C73.6829 22.3581 73.6098 22.7195 73.6098 23.1325C73.6098 23.5369 73.6829 23.8983 73.8292 24.2166C73.9841 24.5264 74.1992 24.7716 74.4745 24.9523C74.7585 25.1244 75.0941 25.2105 75.4813 25.2105ZM83.2688 26.4882C82.6407 26.4882 82.0857 26.3462 81.6039 26.0623C81.1306 25.7784 80.7563 25.3869 80.481 24.8878C80.2142 24.3801 80.0809 23.7993 80.0809 23.1454C80.0809 22.4829 80.2099 21.9021 80.4681 21.403C80.7348 20.9039 81.1048 20.5124 81.5781 20.2285C82.0513 19.9359 82.5977 19.7897 83.2172 19.7897C83.8367 19.7897 84.3702 19.923 84.8176 20.1898C85.2737 20.4479 85.6264 20.8179 85.876 21.2997C86.1341 21.773 86.2632 22.3323 86.2632 22.9776V23.4422L80.8166 23.4552L80.8424 22.5517H84.8693C84.8693 22.0612 84.7187 21.674 84.4175 21.3901C84.125 21.0975 83.7249 20.9513 83.2172 20.9513C82.83 20.9513 82.4987 21.033 82.2234 21.1965C81.9566 21.36 81.7501 21.6052 81.6039 21.9322C81.4662 22.2505 81.3974 22.642 81.3974 23.1067C81.3974 23.8294 81.5565 24.3801 81.8749 24.7587C82.2019 25.1373 82.6751 25.3266 83.2946 25.3266C83.7421 25.3266 84.1121 25.2406 84.4046 25.0685C84.6972 24.8964 84.8865 24.6426 84.9725 24.307H86.2761C86.1298 24.9867 85.7899 25.5202 85.2565 25.9074C84.7316 26.2946 84.069 26.4882 83.2688 26.4882ZM94.6691 17.6213V26.3204H93.2107V17.6213H94.6691ZM90.4358 18.2796V16.9373H97.457V18.2796H90.4358ZM97.0713 23.1454C97.0713 22.4829 97.2133 21.9021 97.4972 21.403C97.7898 20.9039 98.1899 20.5124 98.6975 20.2285C99.2052 19.9445 99.7817 19.8026 100.427 19.8026C101.072 19.8026 101.645 19.9445 102.144 20.2285C102.643 20.5124 103.038 20.9039 103.331 21.403C103.624 21.9021 103.77 22.4829 103.77 23.1454C103.77 23.7993 103.624 24.3758 103.331 24.8749C103.038 25.3739 102.643 25.7654 102.144 26.0494C101.645 26.3333 101.072 26.4753 100.427 26.4753C99.7817 26.4753 99.2052 26.3333 98.6975 26.0494C98.1899 25.7654 97.7898 25.3739 97.4972 24.8749C97.2133 24.3758 97.0713 23.7993 97.0713 23.1454ZM98.4652 23.1325C98.4652 23.5455 98.547 23.9112 98.7104 24.2296C98.8825 24.5393 99.1149 24.7845 99.4074 24.9652C99.7 25.1373 100.04 25.2234 100.427 25.2234C100.806 25.2234 101.141 25.1373 101.434 24.9652C101.726 24.7845 101.954 24.5393 102.118 24.2296C102.281 23.9112 102.363 23.5455 102.363 23.1325C102.363 22.7195 102.281 22.3581 102.118 22.0483C101.954 21.7386 101.726 21.4976 101.434 21.3256C101.141 21.1449 100.806 21.0545 100.427 21.0545C100.04 21.0545 99.7 21.1449 99.4074 21.3256C99.1149 21.4976 98.8825 21.7386 98.7104 22.0483C98.547 22.3581 98.4652 22.7195 98.4652 23.1325ZM106.466 26.3204H105.072V16.7695H106.466V22.7969L109.112 19.9833H110.854L108.441 22.5001L110.815 26.3204H109.215L107.473 23.5197L106.466 24.5651V26.3204ZM114.326 26.4882C113.697 26.4882 113.142 26.3462 112.661 26.0623C112.187 25.7784 111.813 25.3869 111.538 24.8878C111.271 24.3801 111.138 23.7993 111.138 23.1454C111.138 22.4829 111.267 21.9021 111.525 21.403C111.791 20.9039 112.161 20.5124 112.635 20.2285C113.108 19.9359 113.654 19.7897 114.274 19.7897C114.893 19.7897 115.427 19.923 115.874 20.1898C116.33 20.4479 116.683 20.8179 116.933 21.2997C117.191 21.773 117.32 22.3323 117.32 22.9776V23.4422L111.873 23.4552L111.899 22.5517H115.926C115.926 22.0612 115.775 21.674 115.474 21.3901C115.182 21.0975 114.782 20.9513 114.274 20.9513C113.887 20.9513 113.555 21.033 113.28 21.1965C113.013 21.36 112.807 21.6052 112.661 21.9322C112.523 22.2505 112.454 22.642 112.454 23.1067C112.454 23.8294 112.613 24.3801 112.932 24.7587C113.259 25.1373 113.732 25.3266 114.351 25.3266C114.799 25.3266 115.169 25.2406 115.461 25.0685C115.754 24.8964 115.943 24.6426 116.029 24.307H117.333C117.186 24.9867 116.847 25.5202 116.313 25.9074C115.788 26.2946 115.126 26.4882 114.326 26.4882ZM120.015 26.3204H118.634V19.9833H119.899L120.028 20.8738C120.234 20.5296 120.518 20.2629 120.88 20.0736C121.25 19.8843 121.658 19.7897 122.106 19.7897C122.915 19.7897 123.517 20.0263 123.913 20.4995C124.317 20.9728 124.519 21.6138 124.519 22.4226V26.3204H123.138V22.7453C123.138 22.1688 123.005 21.7429 122.738 21.4675C122.48 21.1922 122.132 21.0545 121.693 21.0545C121.168 21.0545 120.755 21.2266 120.454 21.5708C120.161 21.9064 120.015 22.3581 120.015 22.926V26.3204ZM125.567 24.4361H126.883C126.892 24.7372 127.004 24.9738 127.219 25.1459C127.434 25.318 127.731 25.4041 128.11 25.4041C128.505 25.4041 128.811 25.3266 129.026 25.1717C129.241 25.0169 129.349 24.8147 129.349 24.5651C129.349 24.3758 129.293 24.2209 129.181 24.1005C129.069 23.9714 128.858 23.8682 128.548 23.7907L127.413 23.5326C126.853 23.3949 126.432 23.1841 126.148 22.9002C125.872 22.6162 125.735 22.229 125.735 21.7386C125.735 21.3342 125.838 20.99 126.044 20.706C126.26 20.4135 126.552 20.1898 126.922 20.0349C127.292 19.8714 127.714 19.7897 128.187 19.7897C128.66 19.7897 129.073 19.8757 129.426 20.0478C129.779 20.2113 130.054 20.4436 130.252 20.7448C130.45 21.0459 130.549 21.403 130.549 21.816H129.232C129.224 21.5149 129.125 21.2782 128.936 21.1061C128.746 20.9341 128.48 20.848 128.135 20.848C127.8 20.848 127.537 20.9254 127.348 21.0803C127.159 21.2266 127.064 21.4288 127.064 21.6869C127.064 22.0741 127.352 22.3409 127.929 22.4872L129.065 22.7453C129.598 22.8657 129.998 23.0637 130.265 23.339C130.532 23.6057 130.665 23.98 130.665 24.4619C130.665 24.8663 130.553 25.2234 130.329 25.5331C130.114 25.8429 129.813 26.0795 129.426 26.243C129.039 26.4065 128.587 26.4882 128.071 26.4882C127.305 26.4882 126.694 26.2989 126.238 25.9203C125.791 25.5417 125.567 25.047 125.567 24.4361Z" fill="url(#paint1_linear_1080_23428)"/>
<path d="M57.9028 17.6213V26.3204H56.4443V17.6213H57.9028ZM53.6694 18.2796V16.9373H60.6906V18.2796H53.6694ZM64.7769 19.9445V21.2223H64.2219C63.6454 21.2223 63.1894 21.3815 62.8538 21.6998C62.5268 22.0182 62.3634 22.4872 62.3634 23.1067V26.3204H60.9823V19.9833H62.2859L62.4021 21.2868H62.273C62.359 20.8652 62.5613 20.521 62.8796 20.2543C63.198 19.9876 63.611 19.8542 64.1187 19.8542C64.2219 19.8542 64.3252 19.8628 64.4284 19.88C64.5403 19.8886 64.6564 19.9101 64.7769 19.9445ZM67.4918 26.4882C66.8207 26.4882 66.2915 26.3075 65.9043 25.9461C65.5257 25.5848 65.3364 25.1158 65.3364 24.5393C65.3364 23.9542 65.5386 23.4896 65.943 23.1454C66.356 22.7926 66.9368 22.5861 67.6854 22.5259L69.6343 22.371V22.2161C69.6343 21.8891 69.5741 21.631 69.4536 21.4417C69.3332 21.2438 69.1697 21.1018 68.9632 21.0158C68.7567 20.9297 68.5158 20.8867 68.2404 20.8867C67.75 20.8867 67.3714 20.9857 67.1046 21.1836C66.8379 21.3815 66.7045 21.6611 66.7045 22.0225H65.5171C65.5171 21.5665 65.629 21.175 65.8527 20.848C66.085 20.5124 66.412 20.2543 66.8336 20.0736C67.2552 19.8843 67.7457 19.7897 68.305 19.7897C68.8556 19.7897 69.3289 19.8886 69.7247 20.0865C70.1291 20.2758 70.4389 20.5641 70.654 20.9513C70.8777 21.3385 70.9895 21.8246 70.9895 22.4097V26.3204H69.7892L69.6602 25.3395C69.5139 25.6837 69.2428 25.9634 68.847 26.1785C68.4512 26.385 67.9995 26.4882 67.4918 26.4882ZM67.9307 25.417C68.4555 25.417 68.8728 25.2621 69.1826 24.9523C69.4924 24.634 69.6472 24.208 69.6472 23.6746V23.3261L68.1759 23.4552C67.6596 23.4982 67.2896 23.61 67.0659 23.7907C66.8508 23.9714 66.7432 24.1994 66.7432 24.4748C66.7432 24.7931 66.8465 25.0298 67.053 25.1846C67.2595 25.3395 67.5521 25.417 67.9307 25.417ZM75.1844 26.4882C74.5735 26.4882 74.0443 26.3462 73.5969 26.0623C73.1581 25.7784 72.8182 25.3912 72.5773 24.9007C72.3363 24.4016 72.2159 23.8251 72.2159 23.1712C72.2159 22.5173 72.3363 21.9365 72.5773 21.4288C72.8182 20.9211 73.1667 20.521 73.6227 20.2285C74.0787 19.9359 74.6251 19.7897 75.2619 19.7897C75.7265 19.7897 76.1438 19.8843 76.5138 20.0736C76.8924 20.2629 77.1849 20.5382 77.3915 20.8996V16.7695H78.7854V26.3204H77.5076L77.4173 25.2492C77.2194 25.645 76.9182 25.9504 76.5138 26.1656C76.118 26.3807 75.6749 26.4882 75.1844 26.4882ZM75.4813 25.2105C75.8771 25.2105 76.2126 25.1244 76.488 24.9523C76.7719 24.7716 76.9913 24.5264 77.1462 24.2166C77.3011 23.8983 77.3785 23.5369 77.3785 23.1325C77.3785 22.7195 77.3011 22.3581 77.1462 22.0483C76.9913 21.73 76.7719 21.4847 76.488 21.3126C76.2126 21.132 75.8771 21.0416 75.4813 21.0416C75.0941 21.0416 74.7585 21.132 74.4745 21.3126C74.1992 21.4933 73.9841 21.7386 73.8292 22.0483C73.6829 22.3581 73.6098 22.7195 73.6098 23.1325C73.6098 23.5369 73.6829 23.8983 73.8292 24.2166C73.9841 24.5264 74.1992 24.7716 74.4745 24.9523C74.7585 25.1244 75.0941 25.2105 75.4813 25.2105ZM83.2688 26.4882C82.6407 26.4882 82.0857 26.3462 81.6039 26.0623C81.1306 25.7784 80.7563 25.3869 80.481 24.8878C80.2142 24.3801 80.0809 23.7993 80.0809 23.1454C80.0809 22.4829 80.2099 21.9021 80.4681 21.403C80.7348 20.9039 81.1048 20.5124 81.5781 20.2285C82.0513 19.9359 82.5977 19.7897 83.2172 19.7897C83.8367 19.7897 84.3702 19.923 84.8176 20.1898C85.2737 20.4479 85.6264 20.8179 85.876 21.2997C86.1341 21.773 86.2632 22.3323 86.2632 22.9776V23.4422L80.8166 23.4552L80.8424 22.5517H84.8693C84.8693 22.0612 84.7187 21.674 84.4175 21.3901C84.125 21.0975 83.7249 20.9513 83.2172 20.9513C82.83 20.9513 82.4987 21.033 82.2234 21.1965C81.9566 21.36 81.7501 21.6052 81.6039 21.9322C81.4662 22.2505 81.3974 22.642 81.3974 23.1067C81.3974 23.8294 81.5565 24.3801 81.8749 24.7587C82.2019 25.1373 82.6751 25.3266 83.2946 25.3266C83.7421 25.3266 84.1121 25.2406 84.4046 25.0685C84.6972 24.8964 84.8865 24.6426 84.9725 24.307H86.2761C86.1298 24.9867 85.7899 25.5202 85.2565 25.9074C84.7316 26.2946 84.069 26.4882 83.2688 26.4882ZM94.6691 17.6213V26.3204H93.2107V17.6213H94.6691ZM90.4358 18.2796V16.9373H97.457V18.2796H90.4358ZM97.0713 23.1454C97.0713 22.4829 97.2133 21.9021 97.4972 21.403C97.7898 20.9039 98.1899 20.5124 98.6975 20.2285C99.2052 19.9445 99.7817 19.8026 100.427 19.8026C101.072 19.8026 101.645 19.9445 102.144 20.2285C102.643 20.5124 103.038 20.9039 103.331 21.403C103.624 21.9021 103.77 22.4829 103.77 23.1454C103.77 23.7993 103.624 24.3758 103.331 24.8749C103.038 25.3739 102.643 25.7654 102.144 26.0494C101.645 26.3333 101.072 26.4753 100.427 26.4753C99.7817 26.4753 99.2052 26.3333 98.6975 26.0494C98.1899 25.7654 97.7898 25.3739 97.4972 24.8749C97.2133 24.3758 97.0713 23.7993 97.0713 23.1454ZM98.4652 23.1325C98.4652 23.5455 98.547 23.9112 98.7104 24.2296C98.8825 24.5393 99.1149 24.7845 99.4074 24.9652C99.7 25.1373 100.04 25.2234 100.427 25.2234C100.806 25.2234 101.141 25.1373 101.434 24.9652C101.726 24.7845 101.954 24.5393 102.118 24.2296C102.281 23.9112 102.363 23.5455 102.363 23.1325C102.363 22.7195 102.281 22.3581 102.118 22.0483C101.954 21.7386 101.726 21.4976 101.434 21.3256C101.141 21.1449 100.806 21.0545 100.427 21.0545C100.04 21.0545 99.7 21.1449 99.4074 21.3256C99.1149 21.4976 98.8825 21.7386 98.7104 22.0483C98.547 22.3581 98.4652 22.7195 98.4652 23.1325ZM106.466 26.3204H105.072V16.7695H106.466V22.7969L109.112 19.9833H110.854L108.441 22.5001L110.815 26.3204H109.215L107.473 23.5197L106.466 24.5651V26.3204ZM114.326 26.4882C113.697 26.4882 113.142 26.3462 112.661 26.0623C112.187 25.7784 111.813 25.3869 111.538 24.8878C111.271 24.3801 111.138 23.7993 111.138 23.1454C111.138 22.4829 111.267 21.9021 111.525 21.403C111.791 20.9039 112.161 20.5124 112.635 20.2285C113.108 19.9359 113.654 19.7897 114.274 19.7897C114.893 19.7897 115.427 19.923 115.874 20.1898C116.33 20.4479 116.683 20.8179 116.933 21.2997C117.191 21.773 117.32 22.3323 117.32 22.9776V23.4422L111.873 23.4552L111.899 22.5517H115.926C115.926 22.0612 115.775 21.674 115.474 21.3901C115.182 21.0975 114.782 20.9513 114.274 20.9513C113.887 20.9513 113.555 21.033 113.28 21.1965C113.013 21.36 112.807 21.6052 112.661 21.9322C112.523 22.2505 112.454 22.642 112.454 23.1067C112.454 23.8294 112.613 24.3801 112.932 24.7587C113.259 25.1373 113.732 25.3266 114.351 25.3266C114.799 25.3266 115.169 25.2406 115.461 25.0685C115.754 24.8964 115.943 24.6426 116.029 24.307H117.333C117.186 24.9867 116.847 25.5202 116.313 25.9074C115.788 26.2946 115.126 26.4882 114.326 26.4882ZM120.015 26.3204H118.634V19.9833H119.899L120.028 20.8738C120.234 20.5296 120.518 20.2629 120.88 20.0736C121.25 19.8843 121.658 19.7897 122.106 19.7897C122.915 19.7897 123.517 20.0263 123.913 20.4995C124.317 20.9728 124.519 21.6138 124.519 22.4226V26.3204H123.138V22.7453C123.138 22.1688 123.005 21.7429 122.738 21.4675C122.48 21.1922 122.132 21.0545 121.693 21.0545C121.168 21.0545 120.755 21.2266 120.454 21.5708C120.161 21.9064 120.015 22.3581 120.015 22.926V26.3204ZM125.567 24.4361H126.883C126.892 24.7372 127.004 24.9738 127.219 25.1459C127.434 25.318 127.731 25.4041 128.11 25.4041C128.505 25.4041 128.811 25.3266 129.026 25.1717C129.241 25.0169 129.349 24.8147 129.349 24.5651C129.349 24.3758 129.293 24.2209 129.181 24.1005C129.069 23.9714 128.858 23.8682 128.548 23.7907L127.413 23.5326C126.853 23.3949 126.432 23.1841 126.148 22.9002C125.872 22.6162 125.735 22.229 125.735 21.7386C125.735 21.3342 125.838 20.99 126.044 20.706C126.26 20.4135 126.552 20.1898 126.922 20.0349C127.292 19.8714 127.714 19.7897 128.187 19.7897C128.66 19.7897 129.073 19.8757 129.426 20.0478C129.779 20.2113 130.054 20.4436 130.252 20.7448C130.45 21.0459 130.549 21.403 130.549 21.816H129.232C129.224 21.5149 129.125 21.2782 128.936 21.1061C128.746 20.9341 128.48 20.848 128.135 20.848C127.8 20.848 127.537 20.9254 127.348 21.0803C127.159 21.2266 127.064 21.4288 127.064 21.6869C127.064 22.0741 127.352 22.3409 127.929 22.4872L129.065 22.7453C129.598 22.8657 129.998 23.0637 130.265 23.339C130.532 23.6057 130.665 23.98 130.665 24.4619C130.665 24.8663 130.553 25.2234 130.329 25.5331C130.114 25.8429 129.813 26.0795 129.426 26.243C129.039 26.4065 128.587 26.4882 128.071 26.4882C127.305 26.4882 126.694 26.2989 126.238 25.9203C125.791 25.5417 125.567 25.047 125.567 24.4361Z" fill="url(#paint2_linear_1080_23428)"/>
<path d="M57.9028 17.6213V26.3204H56.4443V17.6213H57.9028ZM53.6694 18.2796V16.9373H60.6906V18.2796H53.6694ZM64.7769 19.9445V21.2223H64.2219C63.6454 21.2223 63.1894 21.3815 62.8538 21.6998C62.5268 22.0182 62.3634 22.4872 62.3634 23.1067V26.3204H60.9823V19.9833H62.2859L62.4021 21.2868H62.273C62.359 20.8652 62.5613 20.521 62.8796 20.2543C63.198 19.9876 63.611 19.8542 64.1187 19.8542C64.2219 19.8542 64.3252 19.8628 64.4284 19.88C64.5403 19.8886 64.6564 19.9101 64.7769 19.9445ZM67.4918 26.4882C66.8207 26.4882 66.2915 26.3075 65.9043 25.9461C65.5257 25.5848 65.3364 25.1158 65.3364 24.5393C65.3364 23.9542 65.5386 23.4896 65.943 23.1454C66.356 22.7926 66.9368 22.5861 67.6854 22.5259L69.6343 22.371V22.2161C69.6343 21.8891 69.5741 21.631 69.4536 21.4417C69.3332 21.2438 69.1697 21.1018 68.9632 21.0158C68.7567 20.9297 68.5158 20.8867 68.2404 20.8867C67.75 20.8867 67.3714 20.9857 67.1046 21.1836C66.8379 21.3815 66.7045 21.6611 66.7045 22.0225H65.5171C65.5171 21.5665 65.629 21.175 65.8527 20.848C66.085 20.5124 66.412 20.2543 66.8336 20.0736C67.2552 19.8843 67.7457 19.7897 68.305 19.7897C68.8556 19.7897 69.3289 19.8886 69.7247 20.0865C70.1291 20.2758 70.4389 20.5641 70.654 20.9513C70.8777 21.3385 70.9895 21.8246 70.9895 22.4097V26.3204H69.7892L69.6602 25.3395C69.5139 25.6837 69.2428 25.9634 68.847 26.1785C68.4512 26.385 67.9995 26.4882 67.4918 26.4882ZM67.9307 25.417C68.4555 25.417 68.8728 25.2621 69.1826 24.9523C69.4924 24.634 69.6472 24.208 69.6472 23.6746V23.3261L68.1759 23.4552C67.6596 23.4982 67.2896 23.61 67.0659 23.7907C66.8508 23.9714 66.7432 24.1994 66.7432 24.4748C66.7432 24.7931 66.8465 25.0298 67.053 25.1846C67.2595 25.3395 67.5521 25.417 67.9307 25.417ZM75.1844 26.4882C74.5735 26.4882 74.0443 26.3462 73.5969 26.0623C73.1581 25.7784 72.8182 25.3912 72.5773 24.9007C72.3363 24.4016 72.2159 23.8251 72.2159 23.1712C72.2159 22.5173 72.3363 21.9365 72.5773 21.4288C72.8182 20.9211 73.1667 20.521 73.6227 20.2285C74.0787 19.9359 74.6251 19.7897 75.2619 19.7897C75.7265 19.7897 76.1438 19.8843 76.5138 20.0736C76.8924 20.2629 77.1849 20.5382 77.3915 20.8996V16.7695H78.7854V26.3204H77.5076L77.4173 25.2492C77.2194 25.645 76.9182 25.9504 76.5138 26.1656C76.118 26.3807 75.6749 26.4882 75.1844 26.4882ZM75.4813 25.2105C75.8771 25.2105 76.2126 25.1244 76.488 24.9523C76.7719 24.7716 76.9913 24.5264 77.1462 24.2166C77.3011 23.8983 77.3785 23.5369 77.3785 23.1325C77.3785 22.7195 77.3011 22.3581 77.1462 22.0483C76.9913 21.73 76.7719 21.4847 76.488 21.3126C76.2126 21.132 75.8771 21.0416 75.4813 21.0416C75.0941 21.0416 74.7585 21.132 74.4745 21.3126C74.1992 21.4933 73.9841 21.7386 73.8292 22.0483C73.6829 22.3581 73.6098 22.7195 73.6098 23.1325C73.6098 23.5369 73.6829 23.8983 73.8292 24.2166C73.9841 24.5264 74.1992 24.7716 74.4745 24.9523C74.7585 25.1244 75.0941 25.2105 75.4813 25.2105ZM83.2688 26.4882C82.6407 26.4882 82.0857 26.3462 81.6039 26.0623C81.1306 25.7784 80.7563 25.3869 80.481 24.8878C80.2142 24.3801 80.0809 23.7993 80.0809 23.1454C80.0809 22.4829 80.2099 21.9021 80.4681 21.403C80.7348 20.9039 81.1048 20.5124 81.5781 20.2285C82.0513 19.9359 82.5977 19.7897 83.2172 19.7897C83.8367 19.7897 84.3702 19.923 84.8176 20.1898C85.2737 20.4479 85.6264 20.8179 85.876 21.2997C86.1341 21.773 86.2632 22.3323 86.2632 22.9776V23.4422L80.8166 23.4552L80.8424 22.5517H84.8693C84.8693 22.0612 84.7187 21.674 84.4175 21.3901C84.125 21.0975 83.7249 20.9513 83.2172 20.9513C82.83 20.9513 82.4987 21.033 82.2234 21.1965C81.9566 21.36 81.7501 21.6052 81.6039 21.9322C81.4662 22.2505 81.3974 22.642 81.3974 23.1067C81.3974 23.8294 81.5565 24.3801 81.8749 24.7587C82.2019 25.1373 82.6751 25.3266 83.2946 25.3266C83.7421 25.3266 84.1121 25.2406 84.4046 25.0685C84.6972 24.8964 84.8865 24.6426 84.9725 24.307H86.2761C86.1298 24.9867 85.7899 25.5202 85.2565 25.9074C84.7316 26.2946 84.069 26.4882 83.2688 26.4882ZM94.6691 17.6213V26.3204H93.2107V17.6213H94.6691ZM90.4358 18.2796V16.9373H97.457V18.2796H90.4358ZM97.0713 23.1454C97.0713 22.4829 97.2133 21.9021 97.4972 21.403C97.7898 20.9039 98.1899 20.5124 98.6975 20.2285C99.2052 19.9445 99.7817 19.8026 100.427 19.8026C101.072 19.8026 101.645 19.9445 102.144 20.2285C102.643 20.5124 103.038 20.9039 103.331 21.403C103.624 21.9021 103.77 22.4829 103.77 23.1454C103.77 23.7993 103.624 24.3758 103.331 24.8749C103.038 25.3739 102.643 25.7654 102.144 26.0494C101.645 26.3333 101.072 26.4753 100.427 26.4753C99.7817 26.4753 99.2052 26.3333 98.6975 26.0494C98.1899 25.7654 97.7898 25.3739 97.4972 24.8749C97.2133 24.3758 97.0713 23.7993 97.0713 23.1454ZM98.4652 23.1325C98.4652 23.5455 98.547 23.9112 98.7104 24.2296C98.8825 24.5393 99.1149 24.7845 99.4074 24.9652C99.7 25.1373 100.04 25.2234 100.427 25.2234C100.806 25.2234 101.141 25.1373 101.434 24.9652C101.726 24.7845 101.954 24.5393 102.118 24.2296C102.281 23.9112 102.363 23.5455 102.363 23.1325C102.363 22.7195 102.281 22.3581 102.118 22.0483C101.954 21.7386 101.726 21.4976 101.434 21.3256C101.141 21.1449 100.806 21.0545 100.427 21.0545C100.04 21.0545 99.7 21.1449 99.4074 21.3256C99.1149 21.4976 98.8825 21.7386 98.7104 22.0483C98.547 22.3581 98.4652 22.7195 98.4652 23.1325ZM106.466 26.3204H105.072V16.7695H106.466V22.7969L109.112 19.9833H110.854L108.441 22.5001L110.815 26.3204H109.215L107.473 23.5197L106.466 24.5651V26.3204ZM114.326 26.4882C113.697 26.4882 113.142 26.3462 112.661 26.0623C112.187 25.7784 111.813 25.3869 111.538 24.8878C111.271 24.3801 111.138 23.7993 111.138 23.1454C111.138 22.4829 111.267 21.9021 111.525 21.403C111.791 20.9039 112.161 20.5124 112.635 20.2285C113.108 19.9359 113.654 19.7897 114.274 19.7897C114.893 19.7897 115.427 19.923 115.874 20.1898C116.33 20.4479 116.683 20.8179 116.933 21.2997C117.191 21.773 117.32 22.3323 117.32 22.9776V23.4422L111.873 23.4552L111.899 22.5517H115.926C115.926 22.0612 115.775 21.674 115.474 21.3901C115.182 21.0975 114.782 20.9513 114.274 20.9513C113.887 20.9513 113.555 21.033 113.28 21.1965C113.013 21.36 112.807 21.6052 112.661 21.9322C112.523 22.2505 112.454 22.642 112.454 23.1067C112.454 23.8294 112.613 24.3801 112.932 24.7587C113.259 25.1373 113.732 25.3266 114.351 25.3266C114.799 25.3266 115.169 25.2406 115.461 25.0685C115.754 24.8964 115.943 24.6426 116.029 24.307H117.333C117.186 24.9867 116.847 25.5202 116.313 25.9074C115.788 26.2946 115.126 26.4882 114.326 26.4882ZM120.015 26.3204H118.634V19.9833H119.899L120.028 20.8738C120.234 20.5296 120.518 20.2629 120.88 20.0736C121.25 19.8843 121.658 19.7897 122.106 19.7897C122.915 19.7897 123.517 20.0263 123.913 20.4995C124.317 20.9728 124.519 21.6138 124.519 22.4226V26.3204H123.138V22.7453C123.138 22.1688 123.005 21.7429 122.738 21.4675C122.48 21.1922 122.132 21.0545 121.693 21.0545C121.168 21.0545 120.755 21.2266 120.454 21.5708C120.161 21.9064 120.015 22.3581 120.015 22.926V26.3204ZM125.567 24.4361H126.883C126.892 24.7372 127.004 24.9738 127.219 25.1459C127.434 25.318 127.731 25.4041 128.11 25.4041C128.505 25.4041 128.811 25.3266 129.026 25.1717C129.241 25.0169 129.349 24.8147 129.349 24.5651C129.349 24.3758 129.293 24.2209 129.181 24.1005C129.069 23.9714 128.858 23.8682 128.548 23.7907L127.413 23.5326C126.853 23.3949 126.432 23.1841 126.148 22.9002C125.872 22.6162 125.735 22.229 125.735 21.7386C125.735 21.3342 125.838 20.99 126.044 20.706C126.26 20.4135 126.552 20.1898 126.922 20.0349C127.292 19.8714 127.714 19.7897 128.187 19.7897C128.66 19.7897 129.073 19.8757 129.426 20.0478C129.779 20.2113 130.054 20.4436 130.252 20.7448C130.45 21.0459 130.549 21.403 130.549 21.816H129.232C129.224 21.5149 129.125 21.2782 128.936 21.1061C128.746 20.9341 128.48 20.848 128.135 20.848C127.8 20.848 127.537 20.9254 127.348 21.0803C127.159 21.2266 127.064 21.4288 127.064 21.6869C127.064 22.0741 127.352 22.3409 127.929 22.4872L129.065 22.7453C129.598 22.8657 129.998 23.0637 130.265 23.339C130.532 23.6057 130.665 23.98 130.665 24.4619C130.665 24.8663 130.553 25.2234 130.329 25.5331C130.114 25.8429 129.813 26.0795 129.426 26.243C129.039 26.4065 128.587 26.4882 128.071 26.4882C127.305 26.4882 126.694 26.2989 126.238 25.9203C125.791 25.5417 125.567 25.047 125.567 24.4361Z" fill="url(#paint3_linear_1080_23428)"/>
<rect x="51.9316" y="39.6915" width="240.542" height="54.6687" rx="5.24819" fill="#DAFFEE" fill-opacity="0.06"/>
<path d="M63.3623 50.787V55.8743H62.5715V50.787H63.3623ZM64.5658 54.0899H63.1733V53.3831H64.3979C64.7198 53.3831 64.9647 53.2992 65.1326 53.1312C65.3052 52.9586 65.3916 52.723 65.3916 52.4245C65.3916 52.1259 65.3052 51.8973 65.1326 51.7387C64.9647 51.5754 64.7244 51.4938 64.4119 51.4938H63.0544V50.787H64.5658C64.9017 50.787 65.1933 50.857 65.4405 50.9969C65.6878 51.1322 65.8791 51.3235 66.0143 51.5707C66.1543 51.818 66.2243 52.1049 66.2243 52.4315C66.2243 52.7533 66.1543 53.0402 66.0143 53.2922C65.8791 53.5394 65.6878 53.7353 65.4405 53.88C65.1933 54.0199 64.9017 54.0899 64.5658 54.0899ZM67.7449 55.9652C67.381 55.9652 67.0941 55.8673 66.8842 55.6713C66.6789 55.4754 66.5763 55.2212 66.5763 54.9086C66.5763 54.5914 66.6859 54.3395 66.9052 54.1529C67.1291 53.9616 67.444 53.8496 67.8498 53.817L68.9065 53.733V53.649C68.9065 53.4718 68.8738 53.3318 68.8085 53.2292C68.7432 53.1219 68.6546 53.0449 68.5426 52.9983C68.4306 52.9516 68.3 52.9283 68.1507 52.9283C67.8848 52.9283 67.6796 52.9819 67.5349 53.0892C67.3903 53.1965 67.318 53.3481 67.318 53.5441H66.6742C66.6742 53.2968 66.7349 53.0846 66.8562 52.9073C66.9821 52.7254 67.1594 52.5854 67.388 52.4874C67.6166 52.3848 67.8825 52.3335 68.1857 52.3335C68.4843 52.3335 68.7409 52.3871 68.9555 52.4944C69.1747 52.5971 69.3427 52.7533 69.4593 52.9633C69.5806 53.1732 69.6412 53.4368 69.6412 53.754V55.8743H68.9904L68.9205 55.3425C68.8412 55.5291 68.6942 55.6807 68.4796 55.7973C68.265 55.9093 68.0201 55.9652 67.7449 55.9652ZM67.9828 55.3844C68.2674 55.3844 68.4936 55.3005 68.6616 55.1325C68.8295 54.9599 68.9135 54.729 68.9135 54.4398V54.2508L68.1157 54.3208C67.8358 54.3441 67.6352 54.4048 67.514 54.5027C67.3973 54.6007 67.339 54.7243 67.339 54.8736C67.339 55.0462 67.395 55.1745 67.507 55.2585C67.6189 55.3425 67.7775 55.3844 67.9828 55.3844ZM70.8261 52.4384L71.9877 55.6993L71.5538 56.4131L70.0213 52.4384H70.8261ZM70.1193 57.4417V56.8189H70.5881C70.7001 56.8189 70.7981 56.8073 70.882 56.784C70.9707 56.7606 71.05 56.714 71.12 56.644C71.1899 56.5787 71.2506 56.4761 71.3019 56.3361L72.7364 52.4384H73.5201L71.8617 56.644C71.7404 56.9519 71.5865 57.1735 71.3999 57.3088C71.2179 57.4487 70.9917 57.5187 70.7211 57.5187C70.6091 57.5187 70.5018 57.5117 70.3992 57.4977C70.3012 57.4837 70.2079 57.4651 70.1193 57.4417ZM76.6771 55.8743L75.5505 52.4384H76.3413L76.8451 54.0689C76.8871 54.1948 76.9244 54.3301 76.957 54.4747C76.9944 54.6147 77.0293 54.7617 77.062 54.9156C77.0807 54.8083 77.1017 54.708 77.125 54.6147C77.1483 54.5214 77.174 54.4304 77.202 54.3418C77.2299 54.2532 77.2579 54.1622 77.2859 54.0689L77.8177 52.4384H78.5875L79.0983 54.0689C79.1123 54.1062 79.1286 54.1599 79.1473 54.2298C79.1659 54.2998 79.1869 54.3768 79.2103 54.4608C79.2336 54.5401 79.2546 54.6217 79.2732 54.7057C79.2919 54.785 79.3082 54.855 79.3222 54.9156C79.3409 54.827 79.3619 54.7337 79.3852 54.6357C79.4085 54.5331 79.4342 54.4351 79.4622 54.3418C79.4902 54.2438 79.5182 54.1529 79.5461 54.0689L80.064 52.4384H80.8547L79.6721 55.8743H78.9653L78.4265 54.2088C78.3659 54.0082 78.3169 53.8356 78.2796 53.691C78.2423 53.5417 78.2143 53.4204 78.1956 53.3271C78.177 53.4158 78.149 53.5254 78.1116 53.656C78.079 53.7867 78.0253 53.9756 77.9507 54.2228L77.4119 55.8743H76.6771ZM81.4021 55.8743V52.4384H82.1508V55.8743H81.4021ZM81.773 51.6827C81.6423 51.6827 81.5304 51.6361 81.4371 51.5428C81.3438 51.4495 81.2971 51.3375 81.2971 51.2069C81.2971 51.0763 81.3438 50.9643 81.4371 50.871C81.5304 50.7777 81.6423 50.731 81.773 50.731C81.9036 50.731 82.0156 50.7777 82.1089 50.871C82.2022 50.9643 82.2488 51.0763 82.2488 51.2069C82.2488 51.3375 82.2022 51.4495 82.1089 51.5428C82.0156 51.6361 81.9036 51.6827 81.773 51.6827ZM82.7194 52.4384H84.8117V53.0682H82.7194V52.4384ZM84.14 55.8743H83.3912V51.3608H84.14V55.8743ZM86.128 55.8743H85.3792V50.696H86.135V52.9213C86.2423 52.744 86.3939 52.6017 86.5898 52.4944C86.7858 52.3871 87.0143 52.3335 87.2756 52.3335C87.7048 52.3335 88.0267 52.4618 88.2413 52.7184C88.4605 52.9749 88.5701 53.3225 88.5701 53.761V55.8743H87.8214V53.9359C87.8214 53.726 87.7887 53.5534 87.7234 53.4181C87.6581 53.2828 87.5672 53.1825 87.4505 53.1172C87.3386 53.0519 87.2056 53.0193 87.0517 53.0193C86.8557 53.0193 86.6878 53.0636 86.5478 53.1522C86.4126 53.2362 86.3076 53.3528 86.2329 53.5021C86.163 53.6467 86.128 53.8123 86.128 53.9989V55.8743Z" fill="#B8FFDF"/>
<path d="M185.895 53.7115V55.2545H186.41V53.7115L187.685 51.4601H187.123L186.284 52.9768C186.216 53.1028 186.205 53.1342 186.158 53.2287C186.116 53.1395 186.084 53.066 186.032 52.9768L185.187 51.4601H184.61L185.895 53.7115ZM187.411 53.9687C187.411 54.7612 187.978 55.3175 188.749 55.3175C189.516 55.3175 190.082 54.7612 190.082 53.9687C190.082 53.1762 189.516 52.6199 188.749 52.6199C187.978 52.6199 187.411 53.1762 187.411 53.9687ZM187.91 53.9687C187.91 53.4334 188.251 53.0608 188.749 53.0608C189.243 53.0608 189.589 53.4334 189.589 53.9687C189.589 54.504 189.243 54.8766 188.749 54.8766C188.251 54.8766 187.91 54.504 187.91 53.9687ZM192.341 52.6881V54.0422C192.341 54.5932 192.094 54.8819 191.643 54.8819C191.265 54.8819 191.029 54.672 191.029 54.1209V52.6881H190.536V54.2836C190.536 54.9134 190.871 55.3175 191.47 55.3175C191.848 55.3175 192.189 55.1338 192.336 54.8662L192.388 55.2545H192.829V52.6881H192.341ZM195.014 52.6672C194.915 52.6462 194.841 52.6357 194.752 52.6357C194.4 52.6357 194.143 52.8141 194.038 53.0818L194.007 52.6934H193.545V55.2545H194.038V53.8952C194.038 53.4019 194.327 53.1185 194.794 53.1185H195.014V52.6672ZM197.358 55.2545L197.395 54.7874C197.563 55.1391 197.904 55.3175 198.308 55.3175C199.053 55.3175 199.515 54.7612 199.515 53.9845C199.515 53.192 199.074 52.6147 198.34 52.6147C197.92 52.6147 197.573 52.7931 197.405 53.129V51.3918H196.912V55.2545H197.358ZM197.411 53.9635C197.411 53.4386 197.715 53.0608 198.219 53.0608C198.723 53.0608 199.022 53.4386 199.022 53.9635C199.022 54.4935 198.723 54.8714 198.219 54.8714C197.715 54.8714 197.411 54.4988 197.411 53.9635ZM200.809 55.3175C201.224 55.3175 201.576 55.1338 201.707 54.8399L201.759 55.2545H202.179V53.6433C202.179 52.9506 201.749 52.6147 201.114 52.6147C200.453 52.6147 200.012 52.9663 200.012 53.5016H200.442C200.442 53.192 200.678 53.0083 201.093 53.0083C201.439 53.0083 201.696 53.1605 201.696 53.5908V53.6643L200.888 53.7273C200.285 53.7745 199.933 54.0684 199.933 54.5408C199.933 55.0079 200.258 55.3175 200.809 55.3175ZM200.951 54.9344C200.631 54.9344 200.432 54.7979 200.432 54.525C200.432 54.2731 200.61 54.1052 201.046 54.0632L201.702 54.0107V54.1471C201.702 54.63 201.418 54.9344 200.951 54.9344ZM203.366 55.2545V51.3918H202.873V55.2545H203.366ZM204.843 55.3175C205.258 55.3175 205.609 55.1338 205.74 54.8399L205.793 55.2545H206.213V53.6433C206.213 52.9506 205.782 52.6147 205.147 52.6147C204.486 52.6147 204.045 52.9663 204.045 53.5016H204.476C204.476 53.192 204.712 53.0083 205.126 53.0083C205.473 53.0083 205.73 53.1605 205.73 53.5908V53.6643L204.922 53.7273C204.318 53.7745 203.967 54.0684 203.967 54.5408C203.967 55.0079 204.292 55.3175 204.843 55.3175ZM204.985 54.9344C204.665 54.9344 204.465 54.7979 204.465 54.525C204.465 54.2731 204.644 54.1052 205.079 54.0632L205.735 54.0107V54.1471C205.735 54.63 205.452 54.9344 204.985 54.9344ZM207.389 55.2545V53.8952C207.389 53.3967 207.657 53.066 208.119 53.066C208.497 53.066 208.738 53.2759 208.738 53.7955V55.2545H209.231V53.6853C209.231 53.0293 208.922 52.6147 208.245 52.6147C207.883 52.6147 207.557 52.7879 207.395 53.0818L207.342 52.6881H206.896V55.2545H207.389ZM209.747 53.974C209.747 54.7822 210.245 55.3175 211.001 55.3175C211.62 55.3175 212.098 54.9449 212.198 54.3886H211.704C211.615 54.693 211.353 54.8766 211.001 54.8766C210.534 54.8766 210.235 54.5198 210.235 53.9687C210.235 53.4124 210.555 53.0555 211.022 53.0555C211.353 53.0555 211.615 53.2287 211.699 53.5541H212.192C212.103 52.982 211.652 52.6147 211.006 52.6147C210.256 52.6147 209.747 53.171 209.747 53.974ZM213.826 55.3175C214.461 55.3175 214.891 55.0079 215.017 54.4568H214.555C214.471 54.7507 214.219 54.9081 213.836 54.9081C213.348 54.9081 213.065 54.609 213.028 54.0684L215.012 54.0632V53.8795C215.012 53.1185 214.534 52.6147 213.805 52.6147C213.059 52.6147 212.55 53.171 212.55 53.974C212.55 54.7717 213.07 55.3175 213.826 55.3175ZM213.805 53.0293C214.24 53.0293 214.518 53.3127 214.518 53.7378H213.038C213.101 53.2864 213.374 53.0293 213.805 53.0293ZM215.982 53.3494C216.182 53.3494 216.355 53.1815 216.355 52.9873C216.355 52.7826 216.182 52.6147 215.982 52.6147C215.778 52.6147 215.605 52.7826 215.605 52.9873C215.605 53.1815 215.778 53.3494 215.982 53.3494ZM215.982 55.3175C216.182 55.3175 216.355 55.1496 216.355 54.9501C216.355 54.7454 216.182 54.5775 215.982 54.5775C215.778 54.5775 215.605 54.7454 215.605 54.9501C215.605 55.1496 215.778 55.3175 215.982 55.3175Z" fill="white" fill-opacity="0.7"/>
<rect x="221.859" y="51.2238" width="50.2952" height="3.06145" rx="1.53072" fill="#DAFFEE" fill-opacity="0.16"/>
<rect x="274.341" y="49.528" width="8.06667" height="6.45333" rx="3.22667" fill="white" fill-opacity="0.06"/>
<path d="M71.9081 66.2601C73.3787 66.26 74.8162 66.696 76.0389 67.513C77.2617 68.3299 78.2147 69.4911 78.7775 70.8496C79.3403 72.2082 79.4875 73.7032 79.2007 75.1455C78.9138 76.5877 78.2057 77.9125 77.1659 78.9524C76.126 79.9922 74.8012 80.7003 73.359 80.9872C71.9167 81.274 70.4217 81.1268 69.0631 80.564C67.7046 80.0012 66.5434 79.0482 65.7265 77.8254C64.9095 76.6027 64.4735 75.1652 64.4736 73.6946C64.4736 72.7183 64.6659 71.7516 65.0396 70.8496C65.4132 69.9476 65.9608 69.128 66.6512 68.4376C67.3415 67.7473 68.1611 67.1997 69.0631 66.8261C69.9651 66.4524 70.9318 66.2601 71.9081 66.2601ZM69.4826 73.6946C69.4826 77.2876 71.9081 80.2001 71.9081 80.2001C71.9081 80.2001 74.3337 77.2876 74.3337 73.6946C74.3337 70.1017 71.9081 67.1896 71.9081 67.1896C71.9081 67.1896 69.4826 70.1021 69.4826 73.6946Z" fill="#4FFFB0"/>
<path d="M83.9877 71.998H86.059C87.1156 71.998 87.7244 71.4872 87.7244 70.6125C87.7244 70.0177 87.4515 69.6119 86.9127 69.4369C87.3955 69.234 87.6474 68.8281 87.6474 68.2613C87.6474 67.4076 87.0317 66.8828 86.024 66.8828H83.9877V71.998ZM85.947 67.6735C86.4509 67.6735 86.7308 67.9115 86.7308 68.3523C86.7308 68.8071 86.4579 69.0661 85.968 69.0661H84.8834V67.6735H85.947ZM86.024 69.8218C86.5208 69.8218 86.8077 70.0667 86.8077 70.5006C86.8077 70.9624 86.5278 71.2073 86.024 71.2073H84.8834V69.8218H86.024ZM88.2518 68.3103C88.2518 69.094 88.7066 69.5909 89.5744 69.7798L90.3861 69.9617C90.8059 70.0527 90.9809 70.2556 90.9809 70.5985C90.9809 71.0254 90.603 71.2843 90.0082 71.2843C89.4344 71.2843 89.0845 71.0254 89.0775 70.5915H88.1818C88.2028 71.5082 88.9166 72.089 90.0082 72.089C91.1348 72.089 91.8766 71.4732 91.8766 70.5216C91.8766 69.7588 91.4497 69.311 90.575 69.122L89.7703 68.9471C89.3434 68.8491 89.1475 68.6462 89.1475 68.2823C89.1475 67.8555 89.5044 67.5896 90.0572 67.5896C90.561 67.5896 90.8759 67.8485 90.8969 68.2893H91.7926C91.7646 67.3656 91.1068 66.7918 90.0712 66.7918C88.9936 66.7918 88.2518 67.4146 88.2518 68.3103ZM93.9744 69.4439L92.239 71.998H93.2887L94.5342 70.1297C94.7372 70.5006 94.9191 70.8085 95.143 71.1513L95.7168 71.998H96.7735L95.094 69.4369L96.7665 66.8828H95.7238L94.5342 68.7582C94.3453 68.4083 94.1703 68.1144 93.9604 67.7995L93.3376 66.8828H92.274L93.9744 69.4439Z" fill="white"/>
<g clip-path="url(#clip1_1080_23428)">
<path d="M83.8617 79.6115H85.3627C86.1132 79.6115 86.5698 79.2283 86.5698 78.5985C86.5698 78.1472 86.3546 77.8428 85.9348 77.7064C86.3127 77.5489 86.5016 77.255 86.5016 76.8194C86.5016 76.1949 86.0502 75.817 85.3102 75.817H83.8617V79.6115ZM85.2788 76.2736C85.7249 76.2736 85.9768 76.4888 85.9768 76.8666C85.9768 77.2603 85.7354 77.4912 85.3102 77.4912H84.3761V76.2736H85.2788ZM85.3522 77.9373C85.7878 77.9373 86.0397 78.1577 86.0397 78.5356C86.0397 78.9292 85.7931 79.1549 85.3522 79.1549H84.3761V77.9373H85.3522ZM87.8801 79.6744C88.2947 79.6744 88.6464 79.4907 88.7776 79.1968L88.8301 79.6115H89.2499V78.0003C89.2499 77.3075 88.8196 76.9716 88.1845 76.9716C87.5233 76.9716 87.0824 77.3232 87.0824 77.8586H87.5128C87.5128 77.5489 87.7489 77.3652 88.1635 77.3652C88.5099 77.3652 88.7671 77.5174 88.7671 77.9478V78.0212L87.9589 78.0842C87.3553 78.1315 87.0037 78.4254 87.0037 78.8977C87.0037 79.3648 87.3291 79.6744 87.8801 79.6744ZM88.0218 79.2913C87.7017 79.2913 87.5023 79.1549 87.5023 78.882C87.5023 78.63 87.6807 78.4621 88.1163 78.4201L88.7723 78.3676V78.5041C88.7723 78.9869 88.4889 79.2913 88.0218 79.2913ZM89.7232 78.8662C89.7232 79.3543 90.1063 79.6744 90.7099 79.6744C91.3187 79.6744 91.7385 79.3648 91.7385 78.8767C91.7385 78.4936 91.5233 78.2942 91.0877 78.1892L90.6364 78.079C90.3845 78.016 90.2585 77.9005 90.2585 77.7273C90.2585 77.4912 90.4317 77.3547 90.7413 77.3547C91.0405 77.3547 91.2137 77.5174 91.2242 77.7746H91.6965C91.686 77.2865 91.3187 76.9716 90.7571 76.9716C90.1903 76.9716 89.7914 77.2708 89.7914 77.7431C89.7914 78.121 90.0066 78.3466 90.4632 78.4568L90.9145 78.5618C91.1822 78.63 91.2662 78.735 91.2662 78.9082C91.2662 79.1444 91.0667 79.2861 90.7204 79.2861C90.395 79.2861 90.1955 79.1286 90.1955 78.8662H89.7232ZM92.527 76.4363C92.7054 76.4363 92.8524 76.2893 92.8524 76.1109C92.8524 75.9272 92.7054 75.7855 92.527 75.7855C92.3486 75.7855 92.2016 75.9272 92.2016 76.1109C92.2016 76.2893 92.3486 76.4363 92.527 76.4363ZM92.2856 79.6115H92.7789V77.0451H92.2856V79.6115ZM93.999 79.6115V75.7488H93.5056V79.6115H93.999ZM94.9666 76.4363C95.145 76.4363 95.292 76.2893 95.292 76.1109C95.292 75.9272 95.145 75.7855 94.9666 75.7855C94.7882 75.7855 94.6412 75.9272 94.6412 76.1109C94.6412 76.2893 94.7882 76.4363 94.9666 76.4363ZM94.7252 79.6115H95.2185V77.0451H94.7252V79.6115ZM95.7248 78.8662C95.7248 79.3543 96.1079 79.6744 96.7115 79.6744C97.3202 79.6744 97.7401 79.3648 97.7401 78.8767C97.7401 78.4936 97.5249 78.2942 97.0893 78.1892L96.638 78.079C96.3861 78.016 96.2601 77.9005 96.2601 77.7273C96.2601 77.4912 96.4333 77.3547 96.7429 77.3547C97.0421 77.3547 97.2153 77.5174 97.2258 77.7746H97.6981C97.6876 77.2865 97.3202 76.9716 96.7587 76.9716C96.1919 76.9716 95.793 77.2708 95.793 77.7431C95.793 78.121 96.0082 78.3466 96.4648 78.4568L96.9161 78.5618C97.1838 78.63 97.2678 78.735 97.2678 78.9082C97.2678 79.1444 97.0683 79.2861 96.722 79.2861C96.3966 79.2861 96.1971 79.1286 96.1971 78.8662H95.7248ZM98.791 79.6115V78.882L99.2266 78.4254L99.9771 79.6115H100.544L99.5677 78.0685L100.549 77.0451H99.9299L98.791 78.2522V75.7488H98.2977V79.6115H98.791Z" fill="#ACB2B5"/>
</g>
<path d="M104.045 72.5998C104.056 72.563 104.065 72.5252 104.078 72.4884C104.11 72.392 104.165 72.305 104.238 72.2354C104.311 72.1657 104.4 72.1155 104.497 72.0892C104.595 72.0628 104.697 72.0612 104.794 72.0845C104.892 72.1078 104.983 72.1552 105.058 72.2225C105.081 72.2421 105.101 72.2631 105.122 72.2842L106.831 74.0125C106.846 74.0278 106.86 74.046 106.878 74.067C106.899 74.0469 106.915 74.0321 106.93 74.0168L108.662 72.2655C108.769 72.1426 108.919 72.0675 109.081 72.0567C109.242 72.046 109.401 72.1006 109.523 72.2084C109.644 72.3162 109.719 72.4684 109.729 72.6316C109.74 72.7948 109.686 72.9555 109.579 73.0785C109.56 73.1015 109.54 73.123 109.519 73.1445L107.336 75.3515C107.248 75.451 107.129 75.5183 107 75.5434C106.87 75.5684 106.735 75.5498 106.617 75.4902C106.551 75.4562 106.491 75.412 106.439 75.3592C105.705 74.6198 104.971 73.8794 104.239 73.1378C104.141 73.0361 104.073 72.9082 104.045 72.7691V72.5998Z" fill="white"/>
<rect x="123.657" y="61.9963" width="158.758" height="23.6169" rx="3.93615" fill="#DAFFEE" fill-opacity="0.06"/>
<path d="M227.225 72.3596V71.4228H224.832L225.871 70.5332C226.745 69.7853 227.186 69.1792 227.186 68.3762C227.186 67.2111 226.422 66.5104 225.194 66.5104C223.974 66.5104 223.171 67.3292 223.163 68.5887H224.163C224.171 67.8487 224.565 67.4079 225.194 67.4079C225.801 67.4079 226.155 67.7779 226.155 68.4313C226.155 68.9823 225.895 69.3602 225.116 70.0215L223.234 71.6117V72.3674L227.225 72.3596ZM227.838 70.7379C227.838 71.7849 228.697 72.4619 230.027 72.4619C231.365 72.4619 232.223 71.777 232.223 70.7379C232.223 70.0451 231.83 69.4862 231.224 69.2736C231.735 69.0611 232.019 68.6281 232.019 68.0692C232.019 67.1324 231.224 66.5104 230.043 66.5104C228.854 66.5104 228.043 67.1402 228.043 68.0534C228.043 68.6123 228.319 69.0453 228.822 69.2736C228.224 69.5019 227.838 70.053 227.838 70.7379ZM228.956 68.14C228.956 67.6677 229.374 67.3685 230.027 67.3685C230.672 67.3685 231.082 67.6677 231.082 68.1479C231.082 68.6281 230.672 68.9272 230.027 68.9272C229.374 68.9272 228.956 68.6202 228.956 68.14ZM228.822 70.667C228.822 70.1081 229.287 69.7617 230.027 69.7617C230.767 69.7617 231.231 70.1081 231.231 70.667C231.231 71.2259 230.767 71.5723 230.035 71.5723C229.287 71.5723 228.822 71.2259 228.822 70.667ZM234.843 72.4619C236.126 72.4619 237 71.6117 237 70.3679C237 69.2343 236.236 68.4549 235.087 68.4549C234.693 68.4549 234.347 68.5572 234.071 68.7383L234.378 67.5417H236.653V66.6128H233.654L232.945 69.6279L233.835 69.8168C234.04 69.5177 234.441 69.2972 234.882 69.2972C235.575 69.2972 235.976 69.7538 235.976 70.423C235.976 71.1236 235.543 71.5645 234.866 71.5645C234.229 71.5645 233.843 71.1787 233.843 70.5253H232.843C232.843 71.6904 233.638 72.4619 234.843 72.4619ZM239.563 72.4619C240.846 72.4619 241.72 71.6117 241.72 70.3679C241.72 69.2343 240.956 68.4549 239.807 68.4549C239.413 68.4549 239.067 68.5572 238.791 68.7383L239.098 67.5417H241.373V66.6128H238.374L237.666 69.6279L238.555 69.8168C238.76 69.5177 239.161 69.2972 239.602 69.2972C240.295 69.2972 240.696 69.7538 240.696 70.423C240.696 71.1236 240.263 71.5645 239.586 71.5645C238.949 71.5645 238.563 71.1787 238.563 70.5253H237.563C237.563 71.6904 238.358 72.4619 239.563 72.4619ZM242.979 72.4619C243.326 72.4619 243.617 72.1785 243.617 71.84C243.617 71.4936 243.326 71.2102 242.979 71.2102C242.633 71.2102 242.342 71.4936 242.342 71.84C242.342 72.1785 242.633 72.4619 242.979 72.4619ZM248.482 72.3596V71.4228H246.089L247.128 70.5332C248.002 69.7853 248.443 69.1792 248.443 68.3762C248.443 67.2111 247.679 66.5104 246.451 66.5104C245.231 66.5104 244.428 67.3292 244.42 68.5887H245.42C245.428 67.8487 245.821 67.4079 246.451 67.4079C247.057 67.4079 247.412 67.7779 247.412 68.4313C247.412 68.9823 247.152 69.3602 246.372 70.0215L244.491 71.6117V72.3674L248.482 72.3596ZM253.474 71.2732V70.3915H252.774V66.6128H251.506L248.9 70.3915V71.2732H251.821V72.3674H252.774V71.2732H253.474ZM249.971 70.3915L251.821 67.6992V70.3915H249.971ZM254.827 68.3053C254.181 69.1792 253.953 69.683 253.953 70.3757C253.953 71.5566 254.882 72.4698 256.125 72.4698C257.354 72.4698 258.267 71.6117 258.267 70.3836C258.267 69.2185 257.464 68.3841 256.275 68.3841C256.133 68.3841 255.984 68.4077 255.842 68.447L257.22 66.6128H256.07L254.827 68.3053ZM254.984 70.3836C254.984 69.6909 255.441 69.2106 256.125 69.2106C256.787 69.2106 257.251 69.6909 257.251 70.3836C257.251 71.0842 256.779 71.5723 256.125 71.5723C255.448 71.5723 254.984 71.0842 254.984 70.3836ZM260.98 68.2187C260.98 69.1004 261.492 69.6594 262.468 69.8719L263.381 70.0766C263.853 70.1789 264.05 70.4072 264.05 70.793C264.05 71.2732 263.625 71.5645 262.956 71.5645C262.31 71.5645 261.917 71.2732 261.909 70.7851H260.901C260.925 71.8164 261.728 72.4698 262.956 72.4698C264.223 72.4698 265.058 71.777 265.058 70.7064C265.058 69.8483 264.578 69.3445 263.594 69.1319L262.688 68.9351C262.208 68.8249 261.988 68.5966 261.988 68.1872C261.988 67.707 262.389 67.4079 263.011 67.4079C263.578 67.4079 263.932 67.6992 263.956 68.1951H264.963C264.932 67.156 264.192 66.5104 263.027 66.5104C261.814 66.5104 260.98 67.2111 260.98 68.2187ZM266.465 72.3674L266.93 71.037H269.079L269.543 72.3674H270.606L268.528 66.6128H267.497L265.418 72.3674H266.465ZM267.882 68.3289C267.937 68.1715 267.985 67.9983 268.008 67.8881C268.024 68.0062 268.079 68.1794 268.126 68.3289L268.788 70.1868H267.229L267.882 68.3289ZM272.154 72.3674V71.3204L272.721 70.73L273.737 72.3674H274.839L273.39 70.0215L274.87 68.4785H273.666L272.154 70.1081V66.5104H271.202V72.3674H272.154Z" fill="white"/>
<path d="M249.037 79.1385H249.409C249.409 79.2785 249.384 79.4039 249.334 79.5147C249.288 79.6225 249.221 79.7085 249.133 79.7727C249.046 79.8339 248.941 79.8645 248.818 79.8645C248.713 79.8645 248.616 79.847 248.525 79.8121C248.438 79.7742 248.355 79.7319 248.276 79.6852C248.2 79.6357 248.126 79.5934 248.053 79.5584C247.983 79.5205 247.913 79.5015 247.843 79.5015C247.753 79.5015 247.688 79.5307 247.651 79.589C247.613 79.6444 247.594 79.7231 247.594 79.8252H247.222C247.222 79.6881 247.245 79.5671 247.292 79.4622C247.341 79.3543 247.41 79.2697 247.497 79.2085C247.588 79.1473 247.693 79.1167 247.812 79.1167C247.912 79.1167 248.003 79.1356 248.088 79.1735C248.175 79.2085 248.258 79.2508 248.337 79.3004C248.416 79.347 248.492 79.3893 248.565 79.4272C248.638 79.4622 248.712 79.4797 248.788 79.4797C248.878 79.4797 248.942 79.4505 248.98 79.3922C249.018 79.331 249.037 79.2464 249.037 79.1385ZM249.037 79.9914H249.409C249.409 80.1313 249.384 80.2567 249.334 80.3675C249.288 80.4754 249.221 80.5614 249.133 80.6255C249.046 80.6868 248.941 80.7174 248.818 80.7174C248.713 80.7174 248.616 80.6999 248.525 80.6649C248.438 80.627 248.355 80.5847 248.276 80.5381C248.2 80.4885 248.126 80.4462 248.053 80.4112C247.983 80.3733 247.913 80.3544 247.843 80.3544C247.753 80.3544 247.688 80.3835 247.651 80.4418C247.613 80.4972 247.594 80.576 247.594 80.678H247.222C247.222 80.541 247.245 80.42 247.292 80.315C247.341 80.2071 247.41 80.1226 247.497 80.0613C247.588 79.9972 247.693 79.9651 247.812 79.9651C247.912 79.9651 248.003 79.9841 248.088 80.022C248.175 80.0599 248.258 80.1036 248.337 80.1532C248.416 80.1998 248.492 80.2421 248.565 80.28C248.638 80.315 248.712 80.3325 248.788 80.3325C248.878 80.3325 248.942 80.3033 248.98 80.245C249.018 80.1838 249.037 80.0992 249.037 79.9914ZM251.139 80.35C251.139 80.1342 251.205 79.9476 251.336 79.7902C251.467 79.6327 251.641 79.5336 251.856 79.4928L251.861 79.5934C251.668 79.5409 251.518 79.4505 251.41 79.3222C251.305 79.191 251.253 79.0336 251.253 78.8499C251.253 78.6808 251.298 78.5335 251.388 78.4082C251.482 78.2828 251.608 78.1851 251.769 78.1151C251.932 78.0422 252.122 78.0058 252.337 78.0058C252.55 78.0058 252.737 78.0408 252.897 78.1108C253.058 78.1807 253.181 78.2799 253.269 78.4082C253.359 78.5365 253.404 78.6866 253.404 78.8586C253.404 79.0423 253.352 79.1983 253.247 79.3266C253.142 79.4549 252.993 79.5424 252.801 79.589L252.797 79.4972C252.942 79.5205 253.069 79.5715 253.177 79.6502C253.288 79.729 253.372 79.8281 253.431 79.9476C253.492 80.0672 253.523 80.2013 253.523 80.35C253.523 80.5395 253.473 80.7057 253.374 80.8486C253.275 80.9885 253.136 81.0979 252.958 81.1766C252.781 81.2553 252.572 81.2947 252.333 81.2947C252.091 81.2947 251.881 81.2568 251.703 81.181C251.525 81.1022 251.387 80.9914 251.288 80.8486C251.189 80.7057 251.139 80.5395 251.139 80.35ZM251.624 80.315C251.624 80.4258 251.654 80.522 251.712 80.6037C251.77 80.6824 251.852 80.7451 251.957 80.7917C252.065 80.8355 252.19 80.8573 252.333 80.8573C252.476 80.8573 252.6 80.8355 252.705 80.7917C252.81 80.7451 252.891 80.6824 252.95 80.6037C253.008 80.522 253.037 80.4258 253.037 80.315C253.037 80.1517 252.973 80.022 252.845 79.9258C252.716 79.8266 252.544 79.7771 252.329 79.7771C252.113 79.7771 251.941 79.8266 251.813 79.9258C251.687 80.022 251.624 80.1517 251.624 80.315ZM251.708 78.8892C251.708 79.0321 251.763 79.1473 251.874 79.2348C251.987 79.3193 252.139 79.3616 252.329 79.3616C252.518 79.3616 252.668 79.3193 252.779 79.2348C252.89 79.1502 252.945 79.0365 252.945 78.8936C252.945 78.7508 252.89 78.6385 252.779 78.5569C252.668 78.4723 252.518 78.43 252.329 78.43C252.139 78.43 251.987 78.4723 251.874 78.5569C251.763 78.6385 251.708 78.7493 251.708 78.8892ZM254.987 81.2947C254.769 81.2947 254.576 81.2509 254.41 81.1635C254.247 81.076 254.12 80.9535 254.029 80.7961C253.942 80.6357 253.898 80.4491 253.898 80.2363H254.384C254.384 80.4287 254.438 80.5803 254.545 80.6911C254.656 80.799 254.806 80.8529 254.996 80.8529C255.13 80.8529 255.245 80.8252 255.341 80.7699C255.441 80.7145 255.518 80.6372 255.573 80.5381C255.629 80.436 255.656 80.3165 255.656 80.1794C255.656 80.0482 255.63 79.9331 255.578 79.8339C255.525 79.7348 255.451 79.6575 255.355 79.6021C255.258 79.5438 255.14 79.5147 255 79.5147C254.875 79.5147 254.757 79.5424 254.646 79.5978C254.535 79.6532 254.448 79.7246 254.384 79.8121L253.955 79.7115L254.344 78.0627H255.967V78.5175H254.554L254.747 78.3426L254.471 79.4403L254.305 79.4928C254.381 79.3645 254.489 79.2668 254.629 79.1998C254.769 79.1298 254.926 79.0948 255.101 79.0948C255.314 79.0948 255.499 79.14 255.656 79.2304C255.817 79.3208 255.941 79.4461 256.028 79.6065C256.116 79.7669 256.159 79.9505 256.159 80.1576C256.159 80.3821 256.11 80.5803 256.011 80.7524C255.911 80.9215 255.774 81.0541 255.599 81.1503C255.425 81.2466 255.22 81.2947 254.987 81.2947ZM257.592 81.2947C257.374 81.2947 257.181 81.2509 257.015 81.1635C256.852 81.076 256.725 80.9535 256.635 80.7961C256.547 80.6357 256.503 80.4491 256.503 80.2363H256.989C256.989 80.4287 257.043 80.5803 257.151 80.6911C257.262 80.799 257.412 80.8529 257.601 80.8529C257.735 80.8529 257.851 80.8252 257.947 80.7699C258.046 80.7145 258.123 80.6372 258.179 80.5381C258.234 80.436 258.262 80.3165 258.262 80.1794C258.262 80.0482 258.235 79.9331 258.183 79.8339C258.13 79.7348 258.056 79.6575 257.96 79.6021C257.864 79.5438 257.746 79.5147 257.606 79.5147C257.48 79.5147 257.362 79.5424 257.251 79.5978C257.141 79.6532 257.053 79.7246 256.989 79.8121L256.56 79.7115L256.95 78.0627H258.572V78.5175H257.16L257.352 78.3426L257.076 79.4403L256.91 79.4928C256.986 79.3645 257.094 79.2668 257.234 79.1998C257.374 79.1298 257.531 79.0948 257.706 79.0948C257.919 79.0948 258.104 79.14 258.262 79.2304C258.422 79.3208 258.546 79.4461 258.633 79.6065C258.721 79.7669 258.765 79.9505 258.765 80.1576C258.765 80.3821 258.715 80.5803 258.616 80.7524C258.517 80.9215 258.38 81.0541 258.205 81.1503C258.03 81.2466 257.826 81.2947 257.592 81.2947ZM259.452 81.2947C259.359 81.2947 259.278 81.2626 259.211 81.1985C259.147 81.1343 259.115 81.0585 259.115 80.971C259.115 80.8777 259.147 80.799 259.211 80.7349C259.278 80.6707 259.359 80.6386 259.452 80.6386C259.542 80.6386 259.62 80.6707 259.684 80.7349C259.751 80.799 259.784 80.8777 259.784 80.971C259.784 81.0585 259.751 81.1343 259.684 81.1985C259.62 81.2626 259.542 81.2947 259.452 81.2947ZM262.444 81.2378L260.271 81.2422V80.8661L261.303 79.987C261.422 79.8879 261.521 79.7975 261.6 79.7158C261.679 79.6342 261.742 79.5584 261.788 79.4884C261.835 79.4184 261.868 79.3485 261.889 79.2785C261.909 79.2056 261.919 79.1298 261.919 79.0511C261.919 78.8615 261.868 78.7143 261.766 78.6093C261.667 78.5015 261.529 78.4475 261.351 78.4475C261.164 78.4475 261.016 78.5102 260.905 78.6356C260.797 78.758 260.74 78.9272 260.734 79.1429H260.244C260.247 78.9126 260.295 78.7128 260.389 78.5437C260.482 78.3717 260.61 78.2391 260.774 78.1458C260.94 78.0525 261.132 78.0058 261.351 78.0058C261.572 78.0058 261.762 78.0466 261.919 78.1283C262.08 78.2099 262.204 78.3265 262.291 78.4781C262.379 78.6298 262.422 78.8105 262.422 79.0205C262.422 79.1312 262.408 79.2377 262.379 79.3397C262.349 79.4388 262.304 79.5365 262.243 79.6327C262.182 79.729 262.103 79.8281 262.007 79.9301C261.914 80.0293 261.8 80.1357 261.666 80.2494L260.865 80.936L260.695 80.7786H262.444V81.2378ZM264.786 78.0627V81.2422H264.313V78.0627H264.786ZM262.686 80.1838L264.156 78.0627H264.681L263.194 80.2144L262.686 80.1838ZM265.166 80.6212H262.686V80.1838H265.166V80.6212ZM266.881 80.0963V78.0627H267.375V80.0657C267.375 80.3077 267.439 80.4929 267.568 80.6212C267.696 80.7494 267.88 80.8136 268.119 80.8136C268.355 80.8136 268.537 80.7494 268.666 80.6212C268.794 80.4899 268.858 80.3048 268.858 80.0657V78.0627H269.352V80.0963C269.352 80.3412 269.303 80.5541 269.203 80.7349C269.104 80.9127 268.961 81.0512 268.775 81.1503C268.591 81.2466 268.372 81.2947 268.119 81.2947C267.865 81.2947 267.645 81.2466 267.458 81.1503C267.275 81.0541 267.132 80.9156 267.03 80.7349C266.931 80.5541 266.881 80.3412 266.881 80.0963ZM269.867 78.933C269.867 78.7493 269.914 78.5889 270.007 78.4519C270.103 78.3119 270.234 78.2026 270.4 78.1239C270.57 78.0452 270.763 78.0058 270.982 78.0058C271.192 78.0058 271.374 78.0422 271.529 78.1151C271.683 78.188 271.804 78.293 271.892 78.43C271.979 78.5671 272.027 78.7289 272.036 78.9155H271.538C271.529 78.7668 271.475 78.6516 271.376 78.57C271.277 78.4883 271.144 78.4475 270.978 78.4475C270.791 78.4475 270.641 78.4898 270.527 78.5744C270.417 78.6589 270.361 78.7741 270.361 78.9199C270.361 79.0394 270.395 79.1356 270.462 79.2085C270.532 79.2814 270.637 79.3339 270.777 79.366L271.293 79.484C271.558 79.5424 271.756 79.6429 271.887 79.7858C272.022 79.9258 272.089 80.1109 272.089 80.3412C272.089 80.5337 272.041 80.7028 271.944 80.8486C271.851 80.9914 271.718 81.1022 271.546 81.181C271.374 81.2597 271.173 81.299 270.943 81.299C270.724 81.299 270.532 81.2626 270.365 81.1897C270.199 81.1139 270.07 81.0075 269.976 80.8704C269.883 80.7334 269.833 80.573 269.828 80.3894H270.322C270.328 80.5322 270.386 80.6459 270.497 80.7305C270.607 80.8121 270.758 80.8529 270.947 80.8529C271.145 80.8529 271.303 80.8107 271.42 80.7261C271.536 80.6416 271.594 80.5279 271.594 80.385C271.594 80.2654 271.561 80.1707 271.494 80.1007C271.43 80.0278 271.328 79.9753 271.188 79.9433L270.676 79.8295C270.411 79.7712 270.21 79.6677 270.072 79.519C269.935 79.3674 269.867 79.1721 269.867 78.933ZM273.702 81.2422H272.609V78.0627H273.681C273.995 78.0627 274.272 78.1297 274.511 78.2638C274.751 78.398 274.936 78.5846 275.067 78.8236C275.201 79.0627 275.268 79.3412 275.268 79.659C275.268 79.971 275.203 80.2465 275.071 80.4856C274.94 80.7217 274.756 80.9069 274.52 81.041C274.287 81.1751 274.014 81.2422 273.702 81.2422ZM273.103 78.2901V81.0191L272.867 80.7873H273.663C273.888 80.7873 274.08 80.7422 274.24 80.6518C274.404 80.5585 274.529 80.4273 274.616 80.2582C274.707 80.089 274.752 79.8893 274.752 79.659C274.752 79.4228 274.707 79.2202 274.616 79.0511C274.526 78.879 274.398 78.7478 274.232 78.6575C274.068 78.5642 273.872 78.5175 273.641 78.5175H272.867L273.103 78.2901Z" fill="#ACB2B5"/>
<rect x="123.876" y="62.215" width="158.321" height="23.1795" rx="3.71747" stroke="white" stroke-opacity="0.12" stroke-width="0.437349"/>
<line x1="38.374" y1="107.918" x2="51.4945" y2="107.918" stroke="#4CF3A8" stroke-opacity="0.12" stroke-width="0.437349"/>
<path d="M60.8976 98.7338C59.0379 98.7338 57.2199 99.2853 55.6736 100.318C54.1273 101.352 52.9221 102.82 52.2104 104.538C51.4987 106.257 51.3125 108.147 51.6753 109.971C52.0381 111.795 52.9337 113.471 54.2487 114.786C55.5637 116.101 57.2392 116.996 59.0632 117.359C60.8872 117.722 62.7778 117.536 64.496 116.824C66.2142 116.112 67.6827 114.907 68.716 113.361C69.7492 111.814 70.3007 109.997 70.3007 108.137C70.2978 105.644 69.3063 103.254 67.5435 101.491C65.7807 99.7282 63.3906 98.7366 60.8976 98.7338Z" fill="#4CF3A8" fill-opacity="0.12"/>
<path d="M60.8915 105.066L60.8915 111.026M60.8915 111.026L58.5914 108.726M60.8915 111.026L63.1848 108.732" stroke="#8AFFCB" stroke-width="0.874699" stroke-linecap="round" stroke-linejoin="round"/>
<line x1="70.2996" y1="108.125" x2="209.598" y2="107.712" stroke="#4CF3A8" stroke-opacity="0.12" stroke-width="0.437349"/>
<rect x="209.599" y="102.014" width="80.0349" height="12.2458" rx="3.06145" fill="#DAFFEE" fill-opacity="0.06"/>
<path d="M217.478 108.618C218.156 108.618 218.599 108.147 218.599 107.497C218.599 106.829 218.161 106.381 217.478 106.381H216.126V109.859H216.598V108.618H217.478ZM217.396 106.804C217.839 106.804 218.104 107.055 218.104 107.492C218.104 107.921 217.844 108.195 217.377 108.195H216.598V106.804H217.396ZM220.403 107.488C220.312 107.468 220.244 107.459 220.163 107.459C219.84 107.459 219.605 107.622 219.508 107.868L219.479 107.512H219.056V109.859H219.508V108.613C219.508 108.161 219.773 107.901 220.201 107.901H220.403V107.488ZM221.049 106.949C221.212 106.949 221.347 106.814 221.347 106.651C221.347 106.482 221.212 106.352 221.049 106.352C220.885 106.352 220.75 106.482 220.75 106.651C220.75 106.814 220.885 106.949 221.049 106.949ZM220.827 109.859H221.279V107.507H220.827V109.859ZM221.782 108.686C221.782 109.426 222.239 109.917 222.932 109.917C223.5 109.917 223.937 109.576 224.029 109.066H223.577C223.495 109.345 223.254 109.513 222.932 109.513C222.504 109.513 222.229 109.186 222.229 108.681C222.229 108.171 222.523 107.844 222.951 107.844C223.254 107.844 223.495 108.002 223.572 108.301H224.024C223.942 107.776 223.528 107.44 222.937 107.44C222.249 107.44 221.782 107.949 221.782 108.686ZM225.521 109.917C226.103 109.917 226.498 109.633 226.613 109.128H226.19C226.113 109.398 225.882 109.542 225.531 109.542C225.083 109.542 224.823 109.268 224.79 108.772L226.608 108.767V108.599C226.608 107.901 226.17 107.44 225.502 107.44C224.819 107.44 224.352 107.949 224.352 108.686C224.352 109.417 224.828 109.917 225.521 109.917ZM225.502 107.82C225.901 107.82 226.156 108.079 226.156 108.469H224.799C224.857 108.055 225.107 107.82 225.502 107.82ZM227.498 108.113C227.681 108.113 227.84 107.959 227.84 107.781C227.84 107.593 227.681 107.44 227.498 107.44C227.311 107.44 227.152 107.593 227.152 107.781C227.152 107.959 227.311 108.113 227.498 108.113ZM227.498 109.917C227.681 109.917 227.84 109.763 227.84 109.58C227.84 109.393 227.681 109.239 227.498 109.239C227.311 109.239 227.152 109.393 227.152 109.58C227.152 109.763 227.311 109.917 227.498 109.917Z" fill="white"/>
<rect x="233.886" y="106.606" width="50.2952" height="3.06145" rx="1.53072" fill="#DAFFEE" fill-opacity="0.16"/>
<line x1="289.634" y1="107.918" x2="318.936" y2="107.918" stroke="#4CF3A8" stroke-opacity="0.12" stroke-width="0.437349"/>
<g clip-path="url(#clip2_1080_23428)">
<rect x="51.9316" y="121.913" width="240.542" height="54.6687" rx="5.24819" fill="#DAFFEE" fill-opacity="0.06"/>
<path d="M63.7816 136.06L62.0602 133.009H62.9489L64.0125 134.954C64.0452 135.015 64.0755 135.075 64.1035 135.136C64.1315 135.192 64.1595 135.248 64.1875 135.304C64.2108 135.262 64.2295 135.225 64.2435 135.192C64.2575 135.159 64.2714 135.124 64.2854 135.087C64.3041 135.05 64.3298 135.003 64.3624 134.947L65.4191 133.009H66.2868L64.5723 136.06V138.096H63.7816V136.06ZM65.8911 136.375C65.8911 136.015 65.9681 135.701 66.122 135.43C66.2807 135.159 66.4976 134.947 66.7728 134.793C67.0481 134.639 67.3606 134.562 67.7105 134.562C68.0604 134.562 68.3706 134.639 68.6412 134.793C68.9117 134.947 69.1263 135.159 69.285 135.43C69.4436 135.701 69.5229 136.015 69.5229 136.375C69.5229 136.729 69.4436 137.042 69.285 137.312C69.1263 137.583 68.9117 137.795 68.6412 137.949C68.3706 138.103 68.0604 138.18 67.7105 138.18C67.3606 138.18 67.0481 138.103 66.7728 137.949C66.4976 137.795 66.2807 137.583 66.122 137.312C65.9681 137.042 65.8911 136.729 65.8911 136.375ZM66.6469 136.368C66.6469 136.592 66.6912 136.79 66.7798 136.962C66.8731 137.13 66.9991 137.263 67.1577 137.361C67.3163 137.455 67.5006 137.501 67.7105 137.501C67.9158 137.501 68.0977 137.455 68.2563 137.361C68.4149 137.263 68.5385 137.13 68.6272 136.962C68.7158 136.79 68.7601 136.592 68.7601 136.368C68.7601 136.144 68.7158 135.948 68.6272 135.78C68.5385 135.612 68.4149 135.481 68.2563 135.388C68.0977 135.29 67.9158 135.241 67.7105 135.241C67.5006 135.241 67.3163 135.29 67.1577 135.388C66.9991 135.481 66.8731 135.612 66.7798 135.78C66.6912 135.948 66.6469 136.144 66.6469 136.368ZM72.491 134.66H73.2468V138.096H72.554L72.4841 137.606C72.3861 137.779 72.2321 137.919 72.0222 138.026C71.8169 138.133 71.593 138.187 71.3504 138.187C70.9539 138.187 70.646 138.061 70.4268 137.809C70.2075 137.557 70.0979 137.221 70.0979 136.802V134.653H70.8536V136.543C70.8536 136.888 70.9213 137.135 71.0565 137.284C71.1918 137.434 71.3831 137.508 71.6303 137.508C71.9149 137.508 72.1295 137.422 72.2741 137.249C72.4187 137.077 72.491 136.816 72.491 136.466V134.66ZM75.8546 136.298C75.8546 135.966 75.9223 135.67 76.0576 135.409C76.1929 135.148 76.3818 134.94 76.6244 134.786C76.8716 134.632 77.1585 134.555 77.4851 134.555C77.7883 134.555 78.0472 134.625 78.2618 134.765C78.4764 134.901 78.6257 135.089 78.7097 135.332L78.6257 135.416L78.6957 134.66H79.3884V137.935C79.3884 138.308 79.3161 138.63 79.1715 138.901C79.0269 139.176 78.8216 139.386 78.5557 139.531C78.2945 139.68 77.9843 139.754 77.625 139.754C77.1445 139.754 76.748 139.626 76.4354 139.37C76.1276 139.113 75.9433 138.763 75.8826 138.32H76.6454C76.678 138.558 76.7807 138.742 76.9533 138.873C77.1259 139.008 77.3475 139.076 77.618 139.076C77.9306 139.076 78.1779 138.982 78.3598 138.796C78.5417 138.614 78.6327 138.371 78.6327 138.068V137.151L78.7307 137.242C78.642 137.48 78.4834 137.669 78.2548 137.809C78.0262 137.949 77.7603 138.019 77.4571 138.019C77.1352 138.019 76.853 137.944 76.6104 137.795C76.3725 137.641 76.1859 137.436 76.0506 137.179C75.92 136.918 75.8546 136.624 75.8546 136.298ZM76.6174 136.277C76.6174 136.482 76.657 136.666 76.7363 136.83C76.8157 136.988 76.9299 137.116 77.0792 137.214C77.2285 137.308 77.4035 137.354 77.604 137.354C77.8093 137.354 77.9866 137.31 78.1359 137.221C78.2898 137.128 78.4064 137 78.4857 136.837C78.5697 136.673 78.6117 136.487 78.6117 136.277C78.6117 136.067 78.572 135.882 78.4927 135.724C78.4134 135.565 78.2991 135.442 78.1499 135.353C78.0006 135.26 77.8186 135.213 77.604 135.213C77.3988 135.213 77.2215 135.262 77.0722 135.36C76.9276 135.453 76.8157 135.579 76.7363 135.738C76.657 135.896 76.6174 136.076 76.6174 136.277ZM81.8197 138.187C81.4792 138.187 81.1783 138.11 80.917 137.956C80.6604 137.802 80.4575 137.59 80.3082 137.319C80.1636 137.044 80.0913 136.729 80.0913 136.375C80.0913 136.015 80.1613 135.701 80.3012 135.43C80.4459 135.159 80.6465 134.947 80.903 134.793C81.1596 134.635 81.4558 134.555 81.7917 134.555C82.1276 134.555 82.4168 134.628 82.6594 134.772C82.9067 134.912 83.0979 135.113 83.2332 135.374C83.3732 135.631 83.4432 135.934 83.4432 136.284V136.536L80.4902 136.543L80.5042 136.053H82.6874C82.6874 135.787 82.6058 135.577 82.4425 135.423C82.2839 135.264 82.067 135.185 81.7917 135.185C81.5818 135.185 81.4022 135.229 81.2529 135.318C81.1083 135.407 80.9963 135.54 80.917 135.717C80.8424 135.889 80.8051 136.102 80.8051 136.354C80.8051 136.746 80.8914 137.044 81.064 137.249C81.2412 137.455 81.4978 137.557 81.8337 137.557C82.0763 137.557 82.2769 137.511 82.4355 137.417C82.5941 137.324 82.6967 137.186 82.7434 137.004H83.4502C83.3708 137.373 83.1866 137.662 82.8973 137.872C82.6128 138.082 82.2536 138.187 81.8197 138.187ZM83.7645 134.66H85.8568V135.29H83.7645V134.66ZM85.185 138.096H84.4363V133.583H85.185V138.096Z" fill="#B8FFDF"/>
<path d="M185.895 135.992V137.535H186.409V135.992L187.685 133.74H187.123L186.283 135.257C186.215 135.383 186.205 135.415 186.157 135.509C186.115 135.42 186.084 135.346 186.031 135.257L185.186 133.74H184.609L185.895 135.992ZM187.411 136.249C187.411 137.042 187.977 137.598 188.749 137.598C189.515 137.598 190.082 137.042 190.082 136.249C190.082 135.457 189.515 134.9 188.749 134.9C187.977 134.9 187.411 135.457 187.411 136.249ZM187.909 136.249C187.909 135.714 188.25 135.341 188.749 135.341C189.242 135.341 189.589 135.714 189.589 136.249C189.589 136.784 189.242 137.157 188.749 137.157C188.25 137.157 187.909 136.784 187.909 136.249ZM192.34 134.969V136.323C192.34 136.874 192.094 137.162 191.642 137.162C191.265 137.162 191.028 136.952 191.028 136.401V134.969H190.535V136.564C190.535 137.194 190.871 137.598 191.469 137.598C191.847 137.598 192.188 137.414 192.335 137.147L192.388 137.535H192.829V134.969H192.34ZM195.014 134.948C194.914 134.927 194.841 134.916 194.751 134.916C194.4 134.916 194.143 135.095 194.038 135.362L194.006 134.974H193.544V137.535H194.038V136.176C194.038 135.682 194.326 135.399 194.793 135.399H195.014V134.948ZM197.358 137.535L197.394 137.068C197.562 137.419 197.903 137.598 198.308 137.598C199.053 137.598 199.515 137.042 199.515 136.265C199.515 135.472 199.074 134.895 198.339 134.895C197.919 134.895 197.573 135.074 197.405 135.409V133.672H196.912V137.535H197.358ZM197.41 136.244C197.41 135.719 197.715 135.341 198.218 135.341C198.722 135.341 199.021 135.719 199.021 136.244C199.021 136.774 198.722 137.152 198.218 137.152C197.715 137.152 197.41 136.779 197.41 136.244ZM200.809 137.598C201.224 137.598 201.575 137.414 201.706 137.12L201.759 137.535H202.179V135.924C202.179 135.231 201.748 134.895 201.113 134.895C200.452 134.895 200.011 135.247 200.011 135.782H200.442C200.442 135.472 200.678 135.289 201.092 135.289C201.439 135.289 201.696 135.441 201.696 135.871V135.945L200.888 136.008C200.284 136.055 199.932 136.349 199.932 136.821C199.932 137.288 200.258 137.598 200.809 137.598ZM200.951 137.215C200.631 137.215 200.431 137.078 200.431 136.805C200.431 136.553 200.61 136.386 201.045 136.344L201.701 136.291V136.428C201.701 136.91 201.418 137.215 200.951 137.215ZM203.366 137.535V133.672H202.872V137.535H203.366ZM204.842 137.598C205.257 137.598 205.609 137.414 205.74 137.12L205.792 137.535H206.212V135.924C206.212 135.231 205.782 134.895 205.147 134.895C204.486 134.895 204.045 135.247 204.045 135.782H204.475C204.475 135.472 204.711 135.289 205.126 135.289C205.472 135.289 205.729 135.441 205.729 135.871V135.945L204.921 136.008C204.318 136.055 203.966 136.349 203.966 136.821C203.966 137.288 204.291 137.598 204.842 137.598ZM204.984 137.215C204.664 137.215 204.465 137.078 204.465 136.805C204.465 136.553 204.643 136.386 205.079 136.344L205.735 136.291V136.428C205.735 136.91 205.451 137.215 204.984 137.215ZM207.389 137.535V136.176C207.389 135.677 207.656 135.346 208.118 135.346C208.496 135.346 208.738 135.556 208.738 136.076V137.535H209.231V135.966C209.231 135.31 208.921 134.895 208.244 134.895C207.882 134.895 207.557 135.068 207.394 135.362L207.342 134.969H206.895V137.535H207.389ZM209.746 136.254C209.746 137.063 210.245 137.598 211.001 137.598C211.62 137.598 212.097 137.225 212.197 136.669H211.704C211.615 136.973 211.352 137.157 211.001 137.157C210.533 137.157 210.234 136.8 210.234 136.249C210.234 135.693 210.554 135.336 211.022 135.336C211.352 135.336 211.615 135.509 211.699 135.834H212.192C212.103 135.262 211.651 134.895 211.006 134.895C210.255 134.895 209.746 135.451 209.746 136.254ZM213.825 137.598C214.46 137.598 214.89 137.288 215.016 136.737H214.555C214.471 137.031 214.219 137.189 213.836 137.189C213.347 137.189 213.064 136.889 213.027 136.349L215.011 136.344V136.16C215.011 135.399 214.534 134.895 213.804 134.895C213.059 134.895 212.55 135.451 212.55 136.254C212.55 137.052 213.069 137.598 213.825 137.598ZM213.804 135.31C214.24 135.31 214.518 135.593 214.518 136.018H213.038C213.101 135.567 213.374 135.31 213.804 135.31ZM215.982 135.63C216.181 135.63 216.355 135.462 216.355 135.268C216.355 135.063 216.181 134.895 215.982 134.895C215.777 134.895 215.604 135.063 215.604 135.268C215.604 135.462 215.777 135.63 215.982 135.63ZM215.982 137.598C216.181 137.598 216.355 137.43 216.355 137.231C216.355 137.026 216.181 136.858 215.982 136.858C215.777 136.858 215.604 137.026 215.604 137.231C215.604 137.43 215.777 137.598 215.982 137.598Z" fill="white" fill-opacity="0.7"/>
<rect x="221.859" y="133.504" width="50.2952" height="3.06145" rx="1.53072" fill="#DAFFEE" fill-opacity="0.16"/>
<rect x="274.341" y="131.808" width="8.06667" height="6.45333" rx="3.22667" fill="white" fill-opacity="0.06"/>
<g clip-path="url(#clip3_1080_23428)">
<circle cx="72.0492" cy="156.027" r="8.74699" fill="url(#paint4_linear_1080_23428)"/>
<path d="M74.5509 151.815L71.8137 154.324C71.5314 154.583 71.1624 154.727 70.779 154.729L69.9629 154.731L69.9604 151.815H68.4854V160.148H69.2898C69.5115 160.149 69.7293 160.09 69.9208 159.978C70.1124 159.866 70.2706 159.706 70.3792 159.512C70.3812 159.51 70.3818 159.507 70.3838 159.505C70.5296 159.241 70.6028 158.718 70.5888 158.361C70.5571 157.545 70.4269 157.332 70.4269 157.332C70.3996 157.892 69.8204 157.922 69.8204 157.922C70.2325 157.525 70.008 157.225 70.008 157.225C69.2784 157.749 69.096 157.19 69.0821 157.139C69.1048 157.159 69.3128 157.333 69.707 156.788C70.124 156.212 70.6802 155.251 71.034 155.004C71.3887 154.757 71.725 154.777 71.725 154.777C71.725 154.777 71.9187 154.512 72.4309 154.292C72.9428 154.074 73.2713 154.394 73.2713 154.394C72.7477 154.82 72.0366 155.52 71.9968 156.523C71.9654 157.334 73.6989 158.726 73.3947 160.783C73.5767 160.316 73.6496 159.848 73.5874 159.269C73.5372 158.802 73.2389 157.826 73.2389 157.826L74.904 160.147H76.7451L73.1465 155.16L76.7448 151.815H74.5506H74.5509Z" fill="white"/>
<path d="M71.1988 155.403C71.0825 155.597 71.0825 155.657 71.0825 155.657C71.0825 155.657 71.4891 155.587 71.5992 155.1C71.6002 155.1 71.3394 155.168 71.1988 155.403Z" fill="white"/>
</g>
<path d="M84.8829 149.374H83.9872V154.489H84.8829V153.397L85.7296 152.313L86.9962 154.489H88.0318L86.3174 151.557L88.0108 149.374H86.9542L84.8829 152.061V149.374ZM89.1432 154.489L89.5561 153.306H91.4664L91.8793 154.489H92.824L90.9766 149.374H90.0599L88.2126 154.489H89.1432ZM90.4028 150.899C90.4518 150.759 90.4938 150.605 90.5148 150.507C90.5288 150.612 90.5777 150.766 90.6197 150.899L91.2075 152.55H89.822L90.4028 150.899ZM94.3611 154.489V152.578H95.4597L96.3274 154.489H97.3071L96.3344 152.389C96.9362 152.145 97.2581 151.655 97.2581 150.969C97.2581 149.961 96.5793 149.374 95.4177 149.374H93.4654V154.489H94.3611ZM94.3611 150.171H95.4177C95.9845 150.171 96.3204 150.458 96.3204 150.969C96.3204 151.487 95.9845 151.788 95.4177 151.788H94.3611V150.171Z" fill="white"/>
<g clip-path="url(#clip4_1080_23428)">
<path d="M84.3756 157.77H83.8613V161.564H84.3756V160.693L85.0683 159.817L86.1022 161.564H86.7005L85.4095 159.381L86.6795 157.77H86.0655L84.3756 159.922V157.77ZM87.8233 161.627C88.2379 161.627 88.5895 161.444 88.7207 161.15L88.7732 161.564H89.1931V159.953C89.1931 159.26 88.7627 158.924 88.1277 158.924C87.4664 158.924 87.0256 159.276 87.0256 159.811H87.4559C87.4559 159.502 87.6921 159.318 88.1067 159.318C88.4531 159.318 88.7102 159.47 88.7102 159.901V159.974L87.902 160.037C87.2985 160.084 86.9468 160.378 86.9468 160.851C86.9468 161.318 87.2722 161.627 87.8233 161.627ZM87.965 161.244C87.6448 161.244 87.4454 161.108 87.4454 160.835C87.4454 160.583 87.6238 160.415 88.0594 160.373L88.7155 160.321V160.457C88.7155 160.94 88.4321 161.244 87.965 161.244ZM91.3458 158.977C91.246 158.956 91.1726 158.945 91.0833 158.945C90.7317 158.945 90.4746 159.124 90.3696 159.392L90.3381 159.003H89.8763V161.564H90.3696V160.205C90.3696 159.712 90.6582 159.428 91.1253 159.428H91.3458V158.977ZM93.5823 158.998V160.352C93.5823 160.903 93.3357 161.192 92.8843 161.192C92.5065 161.192 92.2703 160.982 92.2703 160.431V158.998H91.777V160.593C91.777 161.223 92.1129 161.627 92.7111 161.627C93.089 161.627 93.4302 161.444 93.5771 161.176L93.6296 161.564H94.0704V158.998H93.5823ZM96.2557 158.977C96.156 158.956 96.0825 158.945 95.9933 158.945C95.6416 158.945 95.3845 159.124 95.2795 159.392L95.248 159.003H94.7862V161.564H95.2795V160.205C95.2795 159.712 95.5682 159.428 96.0353 159.428H96.2557V158.977ZM97.3664 161.627C97.781 161.627 98.1326 161.444 98.2638 161.15L98.3163 161.564H98.7362V159.953C98.7362 159.26 98.3058 158.924 97.6708 158.924C97.0095 158.924 96.5687 159.276 96.5687 159.811H96.999C96.999 159.502 97.2352 159.318 97.6498 159.318C97.9962 159.318 98.2533 159.47 98.2533 159.901V159.974L97.4451 160.037C96.8416 160.084 96.4899 160.378 96.4899 160.851C96.4899 161.318 96.8153 161.627 97.3664 161.627ZM97.5081 161.244C97.1879 161.244 96.9885 161.108 96.9885 160.835C96.9885 160.583 97.1669 160.415 97.6025 160.373L98.2586 160.321V160.457C98.2586 160.94 97.9752 161.244 97.5081 161.244Z" fill="#ACB2B5"/>
</g>
<path d="M102.044 154.822C102.055 154.785 102.065 154.747 102.077 154.71C102.109 154.614 102.164 154.527 102.237 154.457C102.311 154.388 102.4 154.337 102.497 154.311C102.594 154.285 102.696 154.283 102.794 154.306C102.892 154.33 102.982 154.377 103.058 154.444C103.08 154.464 103.101 154.485 103.122 154.506L104.83 156.234C104.846 156.25 104.86 156.268 104.878 156.289C104.899 156.269 104.914 156.254 104.93 156.239L106.662 154.487C106.768 154.364 106.919 154.289 107.08 154.279C107.242 154.268 107.401 154.322 107.522 154.43C107.644 154.538 107.718 154.69 107.729 154.853C107.739 155.017 107.685 155.177 107.579 155.3C107.56 155.323 107.539 155.345 107.519 155.366L105.336 157.573C105.247 157.673 105.129 157.74 104.999 157.765C104.869 157.79 104.735 157.772 104.616 157.712C104.55 157.678 104.49 157.634 104.438 157.581C103.704 156.842 102.971 156.101 102.238 155.36C102.14 155.258 102.073 155.13 102.044 154.991V154.822Z" fill="white"/>
<rect x="123.657" y="144.218" width="158.758" height="23.6169" rx="3.93614" fill="#DAFFEE" fill-opacity="0.06"/>
<rect x="123.875" y="144.437" width="158.32" height="23.1795" rx="3.71747" stroke="white" stroke-opacity="0.12" stroke-width="0.437349"/>
</g>
<rect x="51.9321" y="185.329" width="72.6" height="4.81084" rx="2.40542" fill="#DAFFEE" fill-opacity="0.06"/>
<rect x="254.425" y="185.329" width="38.0494" height="4.81084" rx="2.40542" fill="#4CF3A8" fill-opacity="0.12"/>
<line x1="51.9321" y1="194.841" x2="292.474" y2="194.841" stroke="white" stroke-opacity="0.12" stroke-width="0.218675"/>
<rect x="51.9321" y="199.761" width="36.7374" height="4.81084" rx="2.40542" fill="#DAFFEE" fill-opacity="0.06"/>
<rect x="268.42" y="199.761" width="24.0542" height="4.81084" rx="2.40542" fill="#4CF3A8" fill-opacity="0.12"/>
<line x1="51.9321" y1="209.274" x2="292.474" y2="209.274" stroke="white" stroke-opacity="0.12" stroke-width="0.218675"/>
<rect x="51.9321" y="214.194" width="55.106" height="4.81084" rx="2.40542" fill="#DAFFEE" fill-opacity="0.06"/>
<rect x="254.425" y="214.194" width="38.0494" height="4.81084" rx="2.40542" fill="#4CF3A8" fill-opacity="0.12"/>
<line x1="51.9321" y1="223.706" x2="292.474" y2="223.706" stroke="white" stroke-opacity="0.12" stroke-width="0.218675"/>
<rect x="51.9321" y="228.626" width="90.5313" height="4.81084" rx="2.40542" fill="#DAFFEE" fill-opacity="0.06"/>
<rect x="239.555" y="228.626" width="52.9193" height="4.81084" rx="2.40542" fill="#4CF3A8" fill-opacity="0.12"/>
<line x1="51.9321" y1="238.139" x2="292.474" y2="238.139" stroke="white" stroke-opacity="0.12" stroke-width="0.218675"/>
<rect x="51.9321" y="243.059" width="33.6759" height="4.81084" rx="2.40542" fill="#DAFFEE" fill-opacity="0.06"/>
<rect x="270.169" y="243.059" width="22.3048" height="4.81084" rx="2.40542" fill="#4CF3A8" fill-opacity="0.12"/>
<circle cx="284.6" cy="21.7561" r="8.89394" fill="white" fill-opacity="0.06"/>
<path d="M289.015 19.7408H287.898C287.81 19.4383 287.625 19.1728 287.373 18.9838C287.121 18.7949 286.814 18.6927 286.499 18.6927C286.184 18.6927 285.877 18.7949 285.624 18.9838C285.372 19.1728 285.188 19.4383 285.099 19.7408H279.787C279.676 19.7408 279.57 19.7849 279.491 19.8635C279.412 19.9422 279.368 20.0488 279.368 20.1599C279.368 20.2711 279.412 20.3777 279.491 20.4564C279.57 20.535 279.676 20.5791 279.787 20.5791H285.099C285.188 20.8816 285.372 21.1471 285.624 21.3361C285.877 21.525 286.184 21.6271 286.499 21.6271C286.814 21.6271 287.121 21.525 287.373 21.3361C287.625 21.1471 287.81 20.8816 287.898 20.5791H289.015C289.127 20.5791 289.233 20.535 289.312 20.4564C289.391 20.3777 289.435 20.2711 289.435 20.1599C289.435 20.0488 289.391 19.9422 289.312 19.8635C289.233 19.7849 289.127 19.7408 289.015 19.7408ZM286.499 20.7889C286.374 20.7889 286.253 20.752 286.149 20.6829C286.046 20.6138 285.965 20.5156 285.918 20.4006C285.87 20.2857 285.857 20.1593 285.882 20.0372C285.906 19.9152 285.966 19.8032 286.054 19.7152C286.142 19.6273 286.254 19.5673 286.376 19.5431C286.498 19.5188 286.625 19.5313 286.74 19.5789C286.855 19.6265 286.953 19.7071 287.022 19.8105C287.091 19.914 287.128 20.0356 287.128 20.1599C287.128 20.3267 287.061 20.4866 286.943 20.6045C286.825 20.7224 286.666 20.7887 286.499 20.7889Z" fill="#9EA9B1"/>
<path d="M289.003 23.0953H283.691C283.603 22.7928 283.418 22.5272 283.166 22.3383C282.914 22.1494 282.607 22.0472 282.292 22.0472C281.976 22.0472 281.67 22.1494 281.417 22.3383C281.165 22.5272 280.981 22.7928 280.892 23.0953H279.775C279.666 23.0986 279.563 23.1442 279.487 23.2225C279.411 23.3008 279.368 23.4056 279.368 23.5146C279.368 23.6237 279.411 23.7285 279.487 23.8068C279.563 23.885 279.666 23.9307 279.775 23.934H280.892C280.981 24.2364 281.165 24.502 281.417 24.6909C281.67 24.8799 281.976 24.982 282.292 24.982C282.607 24.982 282.914 24.8799 283.166 24.6909C283.418 24.502 283.603 24.2364 283.691 23.934H289.003C289.112 23.9307 289.216 23.885 289.292 23.8068C289.368 23.7285 289.41 23.6237 289.41 23.5146C289.41 23.4056 289.368 23.3008 289.292 23.2225C289.216 23.1442 289.112 23.0986 289.003 23.0953ZM282.292 24.1438C282.167 24.1438 282.046 24.1069 281.942 24.0378C281.839 23.9687 281.758 23.8704 281.71 23.7555C281.663 23.6406 281.65 23.5141 281.675 23.3921C281.699 23.2701 281.759 23.158 281.847 23.0701C281.935 22.9821 282.047 22.9222 282.169 22.8979C282.291 22.8737 282.418 22.8861 282.533 22.9337C282.647 22.9813 282.746 23.062 282.815 23.1654C282.884 23.2688 282.921 23.3904 282.921 23.5148C282.921 23.6816 282.854 23.8414 282.736 23.9593C282.618 24.0772 282.459 24.1436 282.292 24.1438Z" fill="#9EA9B1"/>
</g>
<rect x="39.0804" y="3.21823" width="266.245" height="289.862" rx="10.4867" stroke="white" stroke-opacity="0.06" stroke-width="0.537778"/>
</g>
<defs>
<filter id="filter0_d_1080_23428" x="0.273742" y="0.411562" width="316.259" height="339.876" filterUnits="userSpaceOnUse" color-interpolation-filters="sRGB">
<feFlood flood-opacity="0" result="BackgroundImageFix"/>
<feColorMatrix in="SourceAlpha" type="matrix" values="0 0 0 0 0 0 0 0 0 0 0 0 0 0 0 0 0 0 127 0" result="hardAlpha"/>
<feOffset dx="-13.8" dy="22.2"/>
<feGaussianBlur stdDeviation="12.3689"/>
<feComposite in2="hardAlpha" operator="out"/>
<feColorMatrix type="matrix" values="0 0 0 0 0 0 0 0 0 0 0 0 0 0 0 0 0 0 0.26 0"/>
<feBlend mode="normal" in2="BackgroundImageFix" result="effect1_dropShadow_1080_23428"/>
<feBlend mode="normal" in="SourceGraphic" in2="effect1_dropShadow_1080_23428" result="shape"/>
</filter>
<linearGradient id="paint0_linear_1080_23428" x1="172.203" y1="2.94934" x2="172.203" y2="293.349" gradientUnits="userSpaceOnUse">
<stop stop-color="#1C2527"/>
<stop offset="0.8073" stop-color="#14161A"/>
<stop offset="1" stop-color="#121316"/>
</linearGradient>
<linearGradient id="paint1_linear_1080_23428" x1="54.4565" y1="6.00794" x2="134.692" y2="6.00794" gradientUnits="userSpaceOnUse">
<stop stop-color="#FFCE4F"/>
<stop offset="1" stop-color="#4FFFB0"/>
</linearGradient>
<linearGradient id="paint2_linear_1080_23428" x1="54.4565" y1="6.00794" x2="134.692" y2="6.00794" gradientUnits="userSpaceOnUse">
<stop stop-color="#4FFFB0"/>
<stop offset="0.505223" stop-color="#A2FF76"/>
<stop offset="1" stop-color="#FF984E"/>
</linearGradient>
<linearGradient id="paint3_linear_1080_23428" x1="54.4565" y1="6.00794" x2="134.692" y2="6.00794" gradientUnits="userSpaceOnUse">
<stop stop-color="#4FFFB0"/>
<stop offset="0.463556" stop-color="#B3FF8F"/>
<stop offset="1" stop-color="#FF984E"/>
</linearGradient>
<linearGradient id="paint4_linear_1080_23428" x1="89.5906" y1="158.726" x2="76.2528" y2="143.12" gradientUnits="userSpaceOnUse">
<stop stop-color="#E40C5B"/>
<stop offset="1" stop-color="#FF4C3B"/>
</linearGradient>
<clipPath id="clip0_1080_23428">
<rect x="38.8115" y="2.94934" width="266.783" height="290.4" rx="10.7556" fill="white"/>
</clipPath>
<clipPath id="clip1_1080_23428">
<rect width="18" height="7" fill="white" transform="translate(83.4209 74.6115)"/>
</clipPath>
<clipPath id="clip2_1080_23428">
<rect x="51.9316" y="121.913" width="240.542" height="54.6687" rx="5.24819" fill="white"/>
</clipPath>
<clipPath id="clip3_1080_23428">
<rect x="63.3022" y="147.28" width="17.494" height="17.494" rx="8.74699" fill="white"/>
</clipPath>
<clipPath id="clip4_1080_23428">
<rect width="16" height="7" fill="white" transform="translate(83.4204 156.564)"/>
</clipPath>
</defs>
</svg>
