<svg width="563" height="678" viewBox="0 0 563 678" fill="none" xmlns="http://www.w3.org/2000/svg">
<mask id="mask0_626_4121" style="mask-type:alpha" maskUnits="userSpaceOnUse" x="0" y="0" width="563" height="678">
<rect width="563" height="678" fill="url(#paint0_linear_626_4121)"/>
</mask>
<g mask="url(#mask0_626_4121)">
<g filter="url(#filter0_d_626_4121)">
<g clip-path="url(#clip0_626_4121)">
<rect x="59" y="155" width="444.639" height="484" rx="17.9259" fill="url(#paint1_linear_626_4121)"/>
<path d="M90.8178 179.454V193.952H88.387V179.454H90.8178ZM83.7621 180.551V178.314H95.4642V180.551H83.7621ZM102.275 183.326V185.455H101.35C100.389 185.455 99.6288 185.721 99.0695 186.251C98.5245 186.782 98.2521 187.563 98.2521 188.596V193.952H95.9504V183.39H98.123L98.3166 185.563H98.1015C98.2449 184.86 98.5819 184.286 99.1125 183.842C99.6431 183.397 100.331 183.175 101.178 183.175C101.35 183.175 101.522 183.189 101.694 183.218C101.88 183.232 102.074 183.268 102.275 183.326ZM106.8 194.232C105.681 194.232 104.799 193.931 104.154 193.328C103.523 192.726 103.207 191.944 103.207 190.984C103.207 190.008 103.544 189.234 104.218 188.66C104.907 188.072 105.875 187.728 107.122 187.628L110.37 187.37V187.112C110.37 186.567 110.27 186.136 110.069 185.821C109.868 185.491 109.596 185.254 109.252 185.111C108.908 184.968 108.506 184.896 108.047 184.896C107.23 184.896 106.599 185.061 106.154 185.391C105.71 185.721 105.487 186.187 105.487 186.789H103.508C103.508 186.029 103.695 185.376 104.068 184.831C104.455 184.272 105 183.842 105.702 183.541C106.405 183.225 107.223 183.068 108.155 183.068C109.073 183.068 109.861 183.232 110.521 183.562C111.195 183.878 111.711 184.358 112.07 185.004C112.443 185.649 112.629 186.459 112.629 187.434V193.952H110.629L110.413 192.317C110.17 192.891 109.718 193.357 109.058 193.716C108.399 194.06 107.646 194.232 106.8 194.232ZM107.531 192.446C108.406 192.446 109.101 192.188 109.617 191.672C110.134 191.141 110.392 190.431 110.392 189.542V188.962L107.94 189.177C107.079 189.248 106.463 189.435 106.09 189.736C105.731 190.037 105.552 190.417 105.552 190.876C105.552 191.407 105.724 191.801 106.068 192.059C106.412 192.317 106.9 192.446 107.531 192.446ZM119.62 194.232C118.602 194.232 117.72 193.995 116.975 193.522C116.243 193.049 115.677 192.403 115.275 191.586C114.874 190.754 114.673 189.793 114.673 188.703C114.673 187.614 114.874 186.646 115.275 185.799C115.677 184.953 116.258 184.286 117.018 183.799C117.778 183.311 118.688 183.068 119.75 183.068C120.524 183.068 121.219 183.225 121.836 183.541C122.467 183.856 122.955 184.315 123.299 184.917V178.034H125.622V193.952H123.492L123.342 192.167C123.012 192.826 122.51 193.335 121.836 193.694C121.176 194.053 120.438 194.232 119.62 194.232ZM120.115 192.102C120.775 192.102 121.334 191.959 121.793 191.672C122.266 191.371 122.632 190.962 122.89 190.446C123.148 189.915 123.277 189.313 123.277 188.639C123.277 187.951 123.148 187.348 122.89 186.832C122.632 186.301 122.266 185.893 121.793 185.606C121.334 185.305 120.775 185.154 120.115 185.154C119.47 185.154 118.911 185.305 118.437 185.606C117.978 185.907 117.62 186.316 117.362 186.832C117.118 187.348 116.996 187.951 116.996 188.639C116.996 189.313 117.118 189.915 117.362 190.446C117.62 190.962 117.978 191.371 118.437 191.672C118.911 191.959 119.47 192.102 120.115 192.102ZM133.095 194.232C132.048 194.232 131.123 193.995 130.32 193.522C129.531 193.049 128.907 192.396 128.448 191.564C128.004 190.718 127.781 189.75 127.781 188.66C127.781 187.556 127.996 186.588 128.427 185.756C128.871 184.925 129.488 184.272 130.277 183.799C131.065 183.311 131.976 183.068 133.008 183.068C134.041 183.068 134.93 183.29 135.676 183.734C136.436 184.165 137.024 184.781 137.44 185.584C137.87 186.373 138.085 187.305 138.085 188.381V189.155L129.007 189.177L129.05 187.671H135.762C135.762 186.853 135.511 186.208 135.009 185.735C134.521 185.247 133.855 185.004 133.008 185.004C132.363 185.004 131.811 185.14 131.352 185.412C130.908 185.685 130.563 186.093 130.32 186.638C130.09 187.169 129.975 187.821 129.975 188.596C129.975 189.801 130.241 190.718 130.771 191.349C131.316 191.98 132.105 192.296 133.138 192.296C133.883 192.296 134.5 192.152 134.988 191.866C135.475 191.579 135.791 191.156 135.934 190.596H138.107C137.863 191.729 137.296 192.618 136.407 193.264C135.532 193.909 134.428 194.232 133.095 194.232ZM152.095 179.454V193.952H149.664V179.454H152.095ZM145.039 180.551V178.314H156.741V180.551H145.039ZM156.099 188.66C156.099 187.556 156.335 186.588 156.809 185.756C157.296 184.925 157.963 184.272 158.809 183.799C159.655 183.326 160.616 183.089 161.692 183.089C162.767 183.089 163.721 183.326 164.553 183.799C165.384 184.272 166.044 184.925 166.532 185.756C167.019 186.588 167.263 187.556 167.263 188.66C167.263 189.75 167.019 190.711 166.532 191.543C166.044 192.375 165.384 193.027 164.553 193.5C163.721 193.974 162.767 194.21 161.692 194.21C160.616 194.21 159.655 193.974 158.809 193.5C157.963 193.027 157.296 192.375 156.809 191.543C156.335 190.711 156.099 189.75 156.099 188.66ZM158.422 188.639C158.422 189.327 158.558 189.937 158.831 190.467C159.117 190.984 159.505 191.392 159.992 191.693C160.48 191.98 161.046 192.124 161.692 192.124C162.323 192.124 162.882 191.98 163.369 191.693C163.857 191.392 164.237 190.984 164.509 190.467C164.782 189.937 164.918 189.327 164.918 188.639C164.918 187.951 164.782 187.348 164.509 186.832C164.237 186.316 163.857 185.914 163.369 185.627C162.882 185.326 162.323 185.176 161.692 185.176C161.046 185.176 160.48 185.326 159.992 185.627C159.505 185.914 159.117 186.316 158.831 186.832C158.558 187.348 158.422 187.951 158.422 188.639ZM171.756 193.952H169.433V178.034H171.756V188.08L176.166 183.39H179.07L175.048 187.585L179.006 193.952H176.338L173.434 189.284L171.756 191.027V193.952ZM184.856 194.232C183.809 194.232 182.884 193.995 182.081 193.522C181.292 193.049 180.668 192.396 180.209 191.564C179.765 190.718 179.542 189.75 179.542 188.66C179.542 187.556 179.757 186.588 180.188 185.756C180.632 184.925 181.249 184.272 182.038 183.799C182.826 183.311 183.737 183.068 184.77 183.068C185.802 183.068 186.691 183.29 187.437 183.734C188.197 184.165 188.785 184.781 189.201 185.584C189.631 186.373 189.846 187.305 189.846 188.381V189.155L180.769 189.177L180.812 187.671H187.523C187.523 186.853 187.272 186.208 186.77 185.735C186.283 185.247 185.616 185.004 184.77 185.004C184.124 185.004 183.572 185.14 183.113 185.412C182.669 185.685 182.324 186.093 182.081 186.638C181.851 187.169 181.737 187.821 181.737 188.596C181.737 189.801 182.002 190.718 182.532 191.349C183.077 191.98 183.866 192.296 184.899 192.296C185.644 192.296 186.261 192.152 186.749 191.866C187.236 191.579 187.552 191.156 187.695 190.596H189.868C189.624 191.729 189.057 192.618 188.168 193.264C187.294 193.909 186.189 194.232 184.856 194.232ZM194.338 193.952H192.036V183.39H194.144L194.359 184.874C194.704 184.301 195.177 183.856 195.779 183.541C196.396 183.225 197.077 183.068 197.823 183.068C199.171 183.068 200.175 183.462 200.834 184.251C201.508 185.039 201.845 186.108 201.845 187.456V193.952H199.544V187.994C199.544 187.033 199.321 186.323 198.877 185.864C198.446 185.405 197.866 185.176 197.134 185.176C196.259 185.176 195.571 185.462 195.069 186.036C194.582 186.595 194.338 187.348 194.338 188.295V193.952ZM203.591 190.812H205.785C205.8 191.313 205.986 191.708 206.345 191.995C206.703 192.281 207.198 192.425 207.829 192.425C208.489 192.425 208.998 192.296 209.356 192.038C209.715 191.78 209.894 191.443 209.894 191.027C209.894 190.711 209.801 190.453 209.614 190.252C209.428 190.037 209.077 189.865 208.56 189.736L206.667 189.306C205.735 189.076 205.033 188.725 204.559 188.252C204.1 187.778 203.871 187.133 203.871 186.316C203.871 185.642 204.043 185.068 204.387 184.595C204.746 184.107 205.233 183.734 205.85 183.476C206.467 183.204 207.169 183.068 207.958 183.068C208.747 183.068 209.435 183.211 210.023 183.498C210.611 183.77 211.07 184.157 211.4 184.659C211.73 185.161 211.895 185.756 211.895 186.445H209.7C209.686 185.943 209.521 185.548 209.206 185.262C208.89 184.975 208.446 184.831 207.872 184.831C207.313 184.831 206.875 184.961 206.56 185.219C206.244 185.462 206.087 185.799 206.087 186.23C206.087 186.875 206.567 187.32 207.528 187.563L209.421 187.994C210.31 188.194 210.977 188.524 211.421 188.983C211.866 189.428 212.088 190.051 212.088 190.855C212.088 191.529 211.902 192.124 211.529 192.64C211.17 193.156 210.668 193.551 210.023 193.823C209.378 194.096 208.625 194.232 207.764 194.232C206.488 194.232 205.47 193.916 204.71 193.285C203.964 192.654 203.591 191.83 203.591 190.812Z" fill="url(#paint2_linear_626_4121)"/>
<path d="M90.8178 179.454V193.952H88.387V179.454H90.8178ZM83.7621 180.551V178.314H95.4642V180.551H83.7621ZM102.275 183.326V185.455H101.35C100.389 185.455 99.6288 185.721 99.0695 186.251C98.5245 186.782 98.2521 187.563 98.2521 188.596V193.952H95.9504V183.39H98.123L98.3166 185.563H98.1015C98.2449 184.86 98.5819 184.286 99.1125 183.842C99.6431 183.397 100.331 183.175 101.178 183.175C101.35 183.175 101.522 183.189 101.694 183.218C101.88 183.232 102.074 183.268 102.275 183.326ZM106.8 194.232C105.681 194.232 104.799 193.931 104.154 193.328C103.523 192.726 103.207 191.944 103.207 190.984C103.207 190.008 103.544 189.234 104.218 188.66C104.907 188.072 105.875 187.728 107.122 187.628L110.37 187.37V187.112C110.37 186.567 110.27 186.136 110.069 185.821C109.868 185.491 109.596 185.254 109.252 185.111C108.908 184.968 108.506 184.896 108.047 184.896C107.23 184.896 106.599 185.061 106.154 185.391C105.71 185.721 105.487 186.187 105.487 186.789H103.508C103.508 186.029 103.695 185.376 104.068 184.831C104.455 184.272 105 183.842 105.702 183.541C106.405 183.225 107.223 183.068 108.155 183.068C109.073 183.068 109.861 183.232 110.521 183.562C111.195 183.878 111.711 184.358 112.07 185.004C112.443 185.649 112.629 186.459 112.629 187.434V193.952H110.629L110.413 192.317C110.17 192.891 109.718 193.357 109.058 193.716C108.399 194.06 107.646 194.232 106.8 194.232ZM107.531 192.446C108.406 192.446 109.101 192.188 109.617 191.672C110.134 191.141 110.392 190.431 110.392 189.542V188.962L107.94 189.177C107.079 189.248 106.463 189.435 106.09 189.736C105.731 190.037 105.552 190.417 105.552 190.876C105.552 191.407 105.724 191.801 106.068 192.059C106.412 192.317 106.9 192.446 107.531 192.446ZM119.62 194.232C118.602 194.232 117.72 193.995 116.975 193.522C116.243 193.049 115.677 192.403 115.275 191.586C114.874 190.754 114.673 189.793 114.673 188.703C114.673 187.614 114.874 186.646 115.275 185.799C115.677 184.953 116.258 184.286 117.018 183.799C117.778 183.311 118.688 183.068 119.75 183.068C120.524 183.068 121.219 183.225 121.836 183.541C122.467 183.856 122.955 184.315 123.299 184.917V178.034H125.622V193.952H123.492L123.342 192.167C123.012 192.826 122.51 193.335 121.836 193.694C121.176 194.053 120.438 194.232 119.62 194.232ZM120.115 192.102C120.775 192.102 121.334 191.959 121.793 191.672C122.266 191.371 122.632 190.962 122.89 190.446C123.148 189.915 123.277 189.313 123.277 188.639C123.277 187.951 123.148 187.348 122.89 186.832C122.632 186.301 122.266 185.893 121.793 185.606C121.334 185.305 120.775 185.154 120.115 185.154C119.47 185.154 118.911 185.305 118.437 185.606C117.978 185.907 117.62 186.316 117.362 186.832C117.118 187.348 116.996 187.951 116.996 188.639C116.996 189.313 117.118 189.915 117.362 190.446C117.62 190.962 117.978 191.371 118.437 191.672C118.911 191.959 119.47 192.102 120.115 192.102ZM133.095 194.232C132.048 194.232 131.123 193.995 130.32 193.522C129.531 193.049 128.907 192.396 128.448 191.564C128.004 190.718 127.781 189.75 127.781 188.66C127.781 187.556 127.996 186.588 128.427 185.756C128.871 184.925 129.488 184.272 130.277 183.799C131.065 183.311 131.976 183.068 133.008 183.068C134.041 183.068 134.93 183.29 135.676 183.734C136.436 184.165 137.024 184.781 137.44 185.584C137.87 186.373 138.085 187.305 138.085 188.381V189.155L129.007 189.177L129.05 187.671H135.762C135.762 186.853 135.511 186.208 135.009 185.735C134.521 185.247 133.855 185.004 133.008 185.004C132.363 185.004 131.811 185.14 131.352 185.412C130.908 185.685 130.563 186.093 130.32 186.638C130.09 187.169 129.975 187.821 129.975 188.596C129.975 189.801 130.241 190.718 130.771 191.349C131.316 191.98 132.105 192.296 133.138 192.296C133.883 192.296 134.5 192.152 134.988 191.866C135.475 191.579 135.791 191.156 135.934 190.596H138.107C137.863 191.729 137.296 192.618 136.407 193.264C135.532 193.909 134.428 194.232 133.095 194.232ZM152.095 179.454V193.952H149.664V179.454H152.095ZM145.039 180.551V178.314H156.741V180.551H145.039ZM156.099 188.66C156.099 187.556 156.335 186.588 156.809 185.756C157.296 184.925 157.963 184.272 158.809 183.799C159.655 183.326 160.616 183.089 161.692 183.089C162.767 183.089 163.721 183.326 164.553 183.799C165.384 184.272 166.044 184.925 166.532 185.756C167.019 186.588 167.263 187.556 167.263 188.66C167.263 189.75 167.019 190.711 166.532 191.543C166.044 192.375 165.384 193.027 164.553 193.5C163.721 193.974 162.767 194.21 161.692 194.21C160.616 194.21 159.655 193.974 158.809 193.5C157.963 193.027 157.296 192.375 156.809 191.543C156.335 190.711 156.099 189.75 156.099 188.66ZM158.422 188.639C158.422 189.327 158.558 189.937 158.831 190.467C159.117 190.984 159.505 191.392 159.992 191.693C160.48 191.98 161.046 192.124 161.692 192.124C162.323 192.124 162.882 191.98 163.369 191.693C163.857 191.392 164.237 190.984 164.509 190.467C164.782 189.937 164.918 189.327 164.918 188.639C164.918 187.951 164.782 187.348 164.509 186.832C164.237 186.316 163.857 185.914 163.369 185.627C162.882 185.326 162.323 185.176 161.692 185.176C161.046 185.176 160.48 185.326 159.992 185.627C159.505 185.914 159.117 186.316 158.831 186.832C158.558 187.348 158.422 187.951 158.422 188.639ZM171.756 193.952H169.433V178.034H171.756V188.08L176.166 183.39H179.07L175.048 187.585L179.006 193.952H176.338L173.434 189.284L171.756 191.027V193.952ZM184.856 194.232C183.809 194.232 182.884 193.995 182.081 193.522C181.292 193.049 180.668 192.396 180.209 191.564C179.765 190.718 179.542 189.75 179.542 188.66C179.542 187.556 179.757 186.588 180.188 185.756C180.632 184.925 181.249 184.272 182.038 183.799C182.826 183.311 183.737 183.068 184.77 183.068C185.802 183.068 186.691 183.29 187.437 183.734C188.197 184.165 188.785 184.781 189.201 185.584C189.631 186.373 189.846 187.305 189.846 188.381V189.155L180.769 189.177L180.812 187.671H187.523C187.523 186.853 187.272 186.208 186.77 185.735C186.283 185.247 185.616 185.004 184.77 185.004C184.124 185.004 183.572 185.14 183.113 185.412C182.669 185.685 182.324 186.093 182.081 186.638C181.851 187.169 181.737 187.821 181.737 188.596C181.737 189.801 182.002 190.718 182.532 191.349C183.077 191.98 183.866 192.296 184.899 192.296C185.644 192.296 186.261 192.152 186.749 191.866C187.236 191.579 187.552 191.156 187.695 190.596H189.868C189.624 191.729 189.057 192.618 188.168 193.264C187.294 193.909 186.189 194.232 184.856 194.232ZM194.338 193.952H192.036V183.39H194.144L194.359 184.874C194.704 184.301 195.177 183.856 195.779 183.541C196.396 183.225 197.077 183.068 197.823 183.068C199.171 183.068 200.175 183.462 200.834 184.251C201.508 185.039 201.845 186.108 201.845 187.456V193.952H199.544V187.994C199.544 187.033 199.321 186.323 198.877 185.864C198.446 185.405 197.866 185.176 197.134 185.176C196.259 185.176 195.571 185.462 195.069 186.036C194.582 186.595 194.338 187.348 194.338 188.295V193.952ZM203.591 190.812H205.785C205.8 191.313 205.986 191.708 206.345 191.995C206.703 192.281 207.198 192.425 207.829 192.425C208.489 192.425 208.998 192.296 209.356 192.038C209.715 191.78 209.894 191.443 209.894 191.027C209.894 190.711 209.801 190.453 209.614 190.252C209.428 190.037 209.077 189.865 208.56 189.736L206.667 189.306C205.735 189.076 205.033 188.725 204.559 188.252C204.1 187.778 203.871 187.133 203.871 186.316C203.871 185.642 204.043 185.068 204.387 184.595C204.746 184.107 205.233 183.734 205.85 183.476C206.467 183.204 207.169 183.068 207.958 183.068C208.747 183.068 209.435 183.211 210.023 183.498C210.611 183.77 211.07 184.157 211.4 184.659C211.73 185.161 211.895 185.756 211.895 186.445H209.7C209.686 185.943 209.521 185.548 209.206 185.262C208.89 184.975 208.446 184.831 207.872 184.831C207.313 184.831 206.875 184.961 206.56 185.219C206.244 185.462 206.087 185.799 206.087 186.23C206.087 186.875 206.567 187.32 207.528 187.563L209.421 187.994C210.31 188.194 210.977 188.524 211.421 188.983C211.866 189.428 212.088 190.051 212.088 190.855C212.088 191.529 211.902 192.124 211.529 192.64C211.17 193.156 210.668 193.551 210.023 193.823C209.378 194.096 208.625 194.232 207.764 194.232C206.488 194.232 205.47 193.916 204.71 193.285C203.964 192.654 203.591 191.83 203.591 190.812Z" fill="url(#paint3_linear_626_4121)"/>
<path d="M90.8178 179.454V193.952H88.387V179.454H90.8178ZM83.7621 180.551V178.314H95.4642V180.551H83.7621ZM102.275 183.326V185.455H101.35C100.389 185.455 99.6288 185.721 99.0695 186.251C98.5245 186.782 98.2521 187.563 98.2521 188.596V193.952H95.9504V183.39H98.123L98.3166 185.563H98.1015C98.2449 184.86 98.5819 184.286 99.1125 183.842C99.6431 183.397 100.331 183.175 101.178 183.175C101.35 183.175 101.522 183.189 101.694 183.218C101.88 183.232 102.074 183.268 102.275 183.326ZM106.8 194.232C105.681 194.232 104.799 193.931 104.154 193.328C103.523 192.726 103.207 191.944 103.207 190.984C103.207 190.008 103.544 189.234 104.218 188.66C104.907 188.072 105.875 187.728 107.122 187.628L110.37 187.37V187.112C110.37 186.567 110.27 186.136 110.069 185.821C109.868 185.491 109.596 185.254 109.252 185.111C108.908 184.968 108.506 184.896 108.047 184.896C107.23 184.896 106.599 185.061 106.154 185.391C105.71 185.721 105.487 186.187 105.487 186.789H103.508C103.508 186.029 103.695 185.376 104.068 184.831C104.455 184.272 105 183.842 105.702 183.541C106.405 183.225 107.223 183.068 108.155 183.068C109.073 183.068 109.861 183.232 110.521 183.562C111.195 183.878 111.711 184.358 112.07 185.004C112.443 185.649 112.629 186.459 112.629 187.434V193.952H110.629L110.413 192.317C110.17 192.891 109.718 193.357 109.058 193.716C108.399 194.06 107.646 194.232 106.8 194.232ZM107.531 192.446C108.406 192.446 109.101 192.188 109.617 191.672C110.134 191.141 110.392 190.431 110.392 189.542V188.962L107.94 189.177C107.079 189.248 106.463 189.435 106.09 189.736C105.731 190.037 105.552 190.417 105.552 190.876C105.552 191.407 105.724 191.801 106.068 192.059C106.412 192.317 106.9 192.446 107.531 192.446ZM119.62 194.232C118.602 194.232 117.72 193.995 116.975 193.522C116.243 193.049 115.677 192.403 115.275 191.586C114.874 190.754 114.673 189.793 114.673 188.703C114.673 187.614 114.874 186.646 115.275 185.799C115.677 184.953 116.258 184.286 117.018 183.799C117.778 183.311 118.688 183.068 119.75 183.068C120.524 183.068 121.219 183.225 121.836 183.541C122.467 183.856 122.955 184.315 123.299 184.917V178.034H125.622V193.952H123.492L123.342 192.167C123.012 192.826 122.51 193.335 121.836 193.694C121.176 194.053 120.438 194.232 119.62 194.232ZM120.115 192.102C120.775 192.102 121.334 191.959 121.793 191.672C122.266 191.371 122.632 190.962 122.89 190.446C123.148 189.915 123.277 189.313 123.277 188.639C123.277 187.951 123.148 187.348 122.89 186.832C122.632 186.301 122.266 185.893 121.793 185.606C121.334 185.305 120.775 185.154 120.115 185.154C119.47 185.154 118.911 185.305 118.437 185.606C117.978 185.907 117.62 186.316 117.362 186.832C117.118 187.348 116.996 187.951 116.996 188.639C116.996 189.313 117.118 189.915 117.362 190.446C117.62 190.962 117.978 191.371 118.437 191.672C118.911 191.959 119.47 192.102 120.115 192.102ZM133.095 194.232C132.048 194.232 131.123 193.995 130.32 193.522C129.531 193.049 128.907 192.396 128.448 191.564C128.004 190.718 127.781 189.75 127.781 188.66C127.781 187.556 127.996 186.588 128.427 185.756C128.871 184.925 129.488 184.272 130.277 183.799C131.065 183.311 131.976 183.068 133.008 183.068C134.041 183.068 134.93 183.29 135.676 183.734C136.436 184.165 137.024 184.781 137.44 185.584C137.87 186.373 138.085 187.305 138.085 188.381V189.155L129.007 189.177L129.05 187.671H135.762C135.762 186.853 135.511 186.208 135.009 185.735C134.521 185.247 133.855 185.004 133.008 185.004C132.363 185.004 131.811 185.14 131.352 185.412C130.908 185.685 130.563 186.093 130.32 186.638C130.09 187.169 129.975 187.821 129.975 188.596C129.975 189.801 130.241 190.718 130.771 191.349C131.316 191.98 132.105 192.296 133.138 192.296C133.883 192.296 134.5 192.152 134.988 191.866C135.475 191.579 135.791 191.156 135.934 190.596H138.107C137.863 191.729 137.296 192.618 136.407 193.264C135.532 193.909 134.428 194.232 133.095 194.232ZM152.095 179.454V193.952H149.664V179.454H152.095ZM145.039 180.551V178.314H156.741V180.551H145.039ZM156.099 188.66C156.099 187.556 156.335 186.588 156.809 185.756C157.296 184.925 157.963 184.272 158.809 183.799C159.655 183.326 160.616 183.089 161.692 183.089C162.767 183.089 163.721 183.326 164.553 183.799C165.384 184.272 166.044 184.925 166.532 185.756C167.019 186.588 167.263 187.556 167.263 188.66C167.263 189.75 167.019 190.711 166.532 191.543C166.044 192.375 165.384 193.027 164.553 193.5C163.721 193.974 162.767 194.21 161.692 194.21C160.616 194.21 159.655 193.974 158.809 193.5C157.963 193.027 157.296 192.375 156.809 191.543C156.335 190.711 156.099 189.75 156.099 188.66ZM158.422 188.639C158.422 189.327 158.558 189.937 158.831 190.467C159.117 190.984 159.505 191.392 159.992 191.693C160.48 191.98 161.046 192.124 161.692 192.124C162.323 192.124 162.882 191.98 163.369 191.693C163.857 191.392 164.237 190.984 164.509 190.467C164.782 189.937 164.918 189.327 164.918 188.639C164.918 187.951 164.782 187.348 164.509 186.832C164.237 186.316 163.857 185.914 163.369 185.627C162.882 185.326 162.323 185.176 161.692 185.176C161.046 185.176 160.48 185.326 159.992 185.627C159.505 185.914 159.117 186.316 158.831 186.832C158.558 187.348 158.422 187.951 158.422 188.639ZM171.756 193.952H169.433V178.034H171.756V188.08L176.166 183.39H179.07L175.048 187.585L179.006 193.952H176.338L173.434 189.284L171.756 191.027V193.952ZM184.856 194.232C183.809 194.232 182.884 193.995 182.081 193.522C181.292 193.049 180.668 192.396 180.209 191.564C179.765 190.718 179.542 189.75 179.542 188.66C179.542 187.556 179.757 186.588 180.188 185.756C180.632 184.925 181.249 184.272 182.038 183.799C182.826 183.311 183.737 183.068 184.77 183.068C185.802 183.068 186.691 183.29 187.437 183.734C188.197 184.165 188.785 184.781 189.201 185.584C189.631 186.373 189.846 187.305 189.846 188.381V189.155L180.769 189.177L180.812 187.671H187.523C187.523 186.853 187.272 186.208 186.77 185.735C186.283 185.247 185.616 185.004 184.77 185.004C184.124 185.004 183.572 185.14 183.113 185.412C182.669 185.685 182.324 186.093 182.081 186.638C181.851 187.169 181.737 187.821 181.737 188.596C181.737 189.801 182.002 190.718 182.532 191.349C183.077 191.98 183.866 192.296 184.899 192.296C185.644 192.296 186.261 192.152 186.749 191.866C187.236 191.579 187.552 191.156 187.695 190.596H189.868C189.624 191.729 189.057 192.618 188.168 193.264C187.294 193.909 186.189 194.232 184.856 194.232ZM194.338 193.952H192.036V183.39H194.144L194.359 184.874C194.704 184.301 195.177 183.856 195.779 183.541C196.396 183.225 197.077 183.068 197.823 183.068C199.171 183.068 200.175 183.462 200.834 184.251C201.508 185.039 201.845 186.108 201.845 187.456V193.952H199.544V187.994C199.544 187.033 199.321 186.323 198.877 185.864C198.446 185.405 197.866 185.176 197.134 185.176C196.259 185.176 195.571 185.462 195.069 186.036C194.582 186.595 194.338 187.348 194.338 188.295V193.952ZM203.591 190.812H205.785C205.8 191.313 205.986 191.708 206.345 191.995C206.703 192.281 207.198 192.425 207.829 192.425C208.489 192.425 208.998 192.296 209.356 192.038C209.715 191.78 209.894 191.443 209.894 191.027C209.894 190.711 209.801 190.453 209.614 190.252C209.428 190.037 209.077 189.865 208.56 189.736L206.667 189.306C205.735 189.076 205.033 188.725 204.559 188.252C204.1 187.778 203.871 187.133 203.871 186.316C203.871 185.642 204.043 185.068 204.387 184.595C204.746 184.107 205.233 183.734 205.85 183.476C206.467 183.204 207.169 183.068 207.958 183.068C208.747 183.068 209.435 183.211 210.023 183.498C210.611 183.77 211.07 184.157 211.4 184.659C211.73 185.161 211.895 185.756 211.895 186.445H209.7C209.686 185.943 209.521 185.548 209.206 185.262C208.89 184.975 208.446 184.831 207.872 184.831C207.313 184.831 206.875 184.961 206.56 185.219C206.244 185.462 206.087 185.799 206.087 186.23C206.087 186.875 206.567 187.32 207.528 187.563L209.421 187.994C210.31 188.194 210.977 188.524 211.421 188.983C211.866 189.428 212.088 190.051 212.088 190.855C212.088 191.529 211.902 192.124 211.529 192.64C211.17 193.156 210.668 193.551 210.023 193.823C209.378 194.096 208.625 194.232 207.764 194.232C206.488 194.232 205.47 193.916 204.71 193.285C203.964 192.654 203.591 191.83 203.591 190.812Z" fill="url(#paint4_linear_626_4121)"/>
<rect x="80.8682" y="216.903" width="400.904" height="91.1145" rx="8.74699" fill="#DAFFEE" fill-opacity="0.06"/>
<path d="M99.9187 235.731V244.21H98.6008V235.731H99.9187ZM101.925 241.236H99.6038V240.058H101.645C102.181 240.058 102.589 239.918 102.869 239.638C103.157 239.351 103.301 238.958 103.301 238.46C103.301 237.963 103.157 237.582 102.869 237.317C102.589 237.045 102.189 236.909 101.668 236.909H99.4055V235.731H101.925C102.484 235.731 102.97 235.848 103.382 236.081C103.795 236.307 104.113 236.625 104.339 237.037C104.572 237.45 104.689 237.928 104.689 238.472C104.689 239.008 104.572 239.487 104.339 239.906C104.113 240.319 103.795 240.645 103.382 240.886C102.97 241.119 102.484 241.236 101.925 241.236ZM107.223 244.362C106.617 244.362 106.138 244.198 105.789 243.872C105.446 243.545 105.275 243.121 105.275 242.601C105.275 242.072 105.458 241.652 105.824 241.341C106.197 241.022 106.722 240.836 107.398 240.781L109.159 240.641V240.501C109.159 240.206 109.105 239.973 108.996 239.801C108.887 239.623 108.739 239.494 108.553 239.417C108.366 239.339 108.148 239.3 107.899 239.3C107.456 239.3 107.114 239.389 106.873 239.568C106.632 239.747 106.512 240 106.512 240.326H105.439C105.439 239.914 105.54 239.56 105.742 239.265C105.952 238.962 106.247 238.729 106.628 238.565C107.009 238.394 107.452 238.309 107.958 238.309C108.455 238.309 108.883 238.398 109.241 238.577C109.606 238.748 109.886 239.008 110.08 239.358C110.283 239.708 110.384 240.147 110.384 240.676V244.21H109.299L109.182 243.324C109.05 243.635 108.805 243.887 108.448 244.082C108.09 244.268 107.682 244.362 107.223 244.362ZM107.62 243.394C108.094 243.394 108.471 243.254 108.751 242.974C109.031 242.686 109.171 242.301 109.171 241.819V241.504L107.841 241.621C107.375 241.66 107.04 241.761 106.838 241.924C106.644 242.087 106.547 242.293 106.547 242.542C106.547 242.83 106.64 243.044 106.827 243.184C107.013 243.324 107.277 243.394 107.62 243.394ZM112.358 238.484L114.294 243.918L113.571 245.108L111.017 238.484H112.358ZM111.18 246.822V245.784H111.962C112.148 245.784 112.312 245.765 112.452 245.726C112.599 245.687 112.732 245.609 112.848 245.493C112.965 245.384 113.066 245.213 113.151 244.98L115.542 238.484H116.848L114.084 245.493C113.882 246.006 113.626 246.375 113.315 246.601C113.011 246.834 112.634 246.951 112.183 246.951C111.997 246.951 111.818 246.939 111.647 246.916C111.484 246.892 111.328 246.861 111.18 246.822ZM122.11 244.21L120.232 238.484H121.55L122.39 241.201C122.46 241.411 122.522 241.636 122.577 241.877C122.639 242.111 122.697 242.356 122.752 242.612C122.783 242.433 122.818 242.266 122.857 242.111C122.895 241.955 122.938 241.804 122.985 241.656C123.032 241.508 123.078 241.356 123.125 241.201L124.011 238.484H125.294L126.145 241.201C126.169 241.263 126.196 241.353 126.227 241.469C126.258 241.586 126.293 241.714 126.332 241.854C126.371 241.986 126.406 242.122 126.437 242.262C126.468 242.394 126.495 242.511 126.519 242.612C126.55 242.464 126.585 242.309 126.624 242.146C126.662 241.975 126.705 241.811 126.752 241.656C126.799 241.493 126.845 241.341 126.892 241.201L127.755 238.484H129.073L127.102 244.21H125.924L125.026 241.434C124.925 241.1 124.843 240.812 124.781 240.571C124.719 240.322 124.672 240.12 124.641 239.965C124.61 240.112 124.563 240.295 124.501 240.513C124.447 240.731 124.357 241.045 124.233 241.458L123.335 244.21H122.11ZM129.985 244.21V238.484H131.233V244.21H129.985ZM130.603 237.224C130.386 237.224 130.199 237.146 130.043 236.991C129.888 236.835 129.81 236.649 129.81 236.431C129.81 236.213 129.888 236.027 130.043 235.871C130.199 235.716 130.386 235.638 130.603 235.638C130.821 235.638 131.008 235.716 131.163 235.871C131.319 236.027 131.396 236.213 131.396 236.431C131.396 236.649 131.319 236.835 131.163 236.991C131.008 237.146 130.821 237.224 130.603 237.224ZM132.181 238.484H135.668V239.533H132.181V238.484ZM134.548 244.21H133.3V236.688H134.548V244.21ZM137.862 244.21H136.614V235.58H137.873V239.288C138.052 238.993 138.305 238.756 138.631 238.577C138.958 238.398 139.339 238.309 139.774 238.309C140.49 238.309 141.026 238.522 141.384 238.95C141.749 239.378 141.932 239.957 141.932 240.688V244.21H140.684V240.979C140.684 240.63 140.63 240.342 140.521 240.116C140.412 239.891 140.26 239.724 140.066 239.615C139.879 239.506 139.658 239.452 139.401 239.452C139.074 239.452 138.795 239.525 138.561 239.673C138.336 239.813 138.161 240.008 138.037 240.256C137.92 240.497 137.862 240.773 137.862 241.084V244.21Z" fill="#B8FFDF"/>
<path d="M305.152 239.27V241.842H306.01V239.27L308.135 235.518H307.199L305.8 238.046C305.686 238.256 305.668 238.308 305.59 238.465C305.52 238.317 305.467 238.194 305.38 238.046L303.972 235.518H303.009L305.152 239.27ZM307.679 239.699C307.679 241.02 308.623 241.947 309.909 241.947C311.186 241.947 312.131 241.02 312.131 239.699C312.131 238.378 311.186 237.451 309.909 237.451C308.623 237.451 307.679 238.378 307.679 239.699ZM308.51 239.699C308.51 238.807 309.078 238.186 309.909 238.186C310.731 238.186 311.309 238.807 311.309 239.699C311.309 240.591 310.731 241.212 309.909 241.212C309.078 241.212 308.51 240.591 308.51 239.699ZM315.895 237.565V239.821C315.895 240.74 315.484 241.221 314.732 241.221C314.102 241.221 313.708 240.871 313.708 239.952V237.565H312.886V240.224C312.886 241.273 313.446 241.947 314.443 241.947C315.073 241.947 315.641 241.641 315.886 241.195L315.974 241.842H316.708V237.565H315.895ZM320.351 237.53C320.184 237.495 320.062 237.477 319.913 237.477C319.327 237.477 318.899 237.774 318.724 238.221L318.671 237.573H317.901V241.842H318.724V239.576C318.724 238.754 319.205 238.282 319.983 238.282H320.351V237.53ZM324.257 241.842L324.318 241.063C324.598 241.649 325.167 241.947 325.84 241.947C327.082 241.947 327.852 241.02 327.852 239.725C327.852 238.404 327.117 237.442 325.893 237.442C325.193 237.442 324.616 237.739 324.336 238.299V235.404H323.513V241.842H324.257ZM324.344 239.69C324.344 238.815 324.852 238.186 325.691 238.186C326.531 238.186 327.03 238.815 327.03 239.69C327.03 240.573 326.531 241.203 325.691 241.203C324.852 241.203 324.344 240.582 324.344 239.69ZM330.009 241.947C330.7 241.947 331.286 241.641 331.505 241.151L331.592 241.842H332.292V239.156C332.292 238.002 331.575 237.442 330.516 237.442C329.414 237.442 328.68 238.028 328.68 238.92H329.397C329.397 238.404 329.79 238.098 330.481 238.098C331.059 238.098 331.487 238.352 331.487 239.069V239.191L330.14 239.296C329.134 239.375 328.548 239.865 328.548 240.652C328.548 241.431 329.091 241.947 330.009 241.947ZM330.245 241.308C329.712 241.308 329.379 241.081 329.379 240.626C329.379 240.206 329.677 239.926 330.403 239.856L331.496 239.769V239.996C331.496 240.801 331.024 241.308 330.245 241.308ZM334.27 241.842V235.404H333.448V241.842H334.27ZM336.732 241.947C337.423 241.947 338.009 241.641 338.227 241.151L338.315 241.842H339.015V239.156C339.015 238.002 338.297 237.442 337.239 237.442C336.137 237.442 335.402 238.028 335.402 238.92H336.119C336.119 238.404 336.513 238.098 337.204 238.098C337.781 238.098 338.21 238.352 338.21 239.069V239.191L336.863 239.296C335.857 239.375 335.271 239.865 335.271 240.652C335.271 241.431 335.813 241.947 336.732 241.947ZM336.968 241.308C336.434 241.308 336.102 241.081 336.102 240.626C336.102 240.206 336.399 239.926 337.125 239.856L338.219 239.769V239.996C338.219 240.801 337.746 241.308 336.968 241.308ZM340.975 241.842V239.576C340.975 238.745 341.422 238.194 342.191 238.194C342.821 238.194 343.223 238.544 343.223 239.41V241.842H344.046V239.226C344.046 238.133 343.53 237.442 342.401 237.442C341.798 237.442 341.255 237.731 340.984 238.221L340.897 237.565H340.153V241.842H340.975ZM344.905 239.708C344.905 241.055 345.736 241.947 346.995 241.947C348.027 241.947 348.823 241.326 348.989 240.399H348.167C348.018 240.906 347.581 241.212 346.995 241.212C346.217 241.212 345.718 240.617 345.718 239.699C345.718 238.772 346.252 238.177 347.03 238.177C347.581 238.177 348.018 238.465 348.158 239.008H348.981C348.832 238.054 348.08 237.442 347.004 237.442C345.753 237.442 344.905 238.369 344.905 239.708ZM351.703 241.947C352.761 241.947 353.478 241.431 353.688 240.512H352.918C352.778 241.002 352.359 241.264 351.72 241.264C350.907 241.264 350.434 240.766 350.373 239.865L353.679 239.856V239.55C353.679 238.282 352.883 237.442 351.668 237.442C350.425 237.442 349.577 238.369 349.577 239.708C349.577 241.037 350.443 241.947 351.703 241.947ZM351.668 238.133C352.394 238.133 352.857 238.605 352.857 239.314H350.39C350.495 238.562 350.95 238.133 351.668 238.133ZM355.297 238.667C355.63 238.667 355.919 238.387 355.919 238.063C355.919 237.722 355.63 237.442 355.297 237.442C354.956 237.442 354.668 237.722 354.668 238.063C354.668 238.387 354.956 238.667 355.297 238.667ZM355.297 241.947C355.63 241.947 355.919 241.667 355.919 241.334C355.919 240.993 355.63 240.713 355.297 240.713C354.956 240.713 354.668 240.993 354.668 241.334C354.668 241.667 354.956 241.947 355.297 241.947Z" fill="white" fill-opacity="0.7"/>
<rect x="364.092" y="236.291" width="83.8253" height="5.10241" rx="2.5512" fill="#DAFFEE" fill-opacity="0.16"/>
<rect x="451.562" y="233.464" width="13.4444" height="10.7556" rx="5.37778" fill="white" fill-opacity="0.06"/>
<path d="M114.162 261.184C116.613 261.183 119.009 261.91 121.047 263.272C123.085 264.633 124.673 266.568 125.611 268.833C126.549 271.097 126.795 273.589 126.317 275.992C125.838 278.396 124.658 280.604 122.925 282.337C121.192 284.07 118.984 285.251 116.58 285.729C114.177 286.207 111.685 285.961 109.421 285.023C107.156 284.085 105.221 282.497 103.86 280.459C102.498 278.421 101.771 276.025 101.771 273.574C101.771 271.947 102.092 270.336 102.715 268.833C103.337 267.329 104.25 265.963 105.401 264.813C106.551 263.662 107.917 262.749 109.421 262.127C110.924 261.504 112.535 261.184 114.162 261.184ZM110.12 273.574C110.12 279.563 114.162 284.417 114.162 284.417C114.162 284.417 118.205 279.563 118.205 273.574C118.205 267.586 114.162 262.733 114.162 262.733C114.162 262.733 110.12 267.587 110.12 273.574Z" fill="#4FFFB0"/>
<path d="M134.294 270.914H137.746C139.507 270.914 140.522 270.063 140.522 268.605C140.522 267.614 140.067 266.937 139.169 266.646C139.974 266.307 140.394 265.631 140.394 264.686C140.394 263.263 139.368 262.389 137.688 262.389H134.294V270.914ZM137.56 263.707C138.4 263.707 138.866 264.103 138.866 264.838C138.866 265.596 138.411 266.027 137.595 266.027H135.787V263.707H137.56ZM137.688 267.287C138.516 267.287 138.994 267.695 138.994 268.418C138.994 269.188 138.528 269.596 137.688 269.596H135.787V267.287H137.688ZM141.401 264.768C141.401 266.074 142.159 266.902 143.605 267.217L144.958 267.52C145.658 267.672 145.95 268.01 145.95 268.582C145.95 269.293 145.32 269.724 144.328 269.724C143.372 269.724 142.789 269.293 142.777 268.57H141.284C141.319 270.098 142.509 271.066 144.328 271.066C146.206 271.066 147.442 270.039 147.442 268.453C147.442 267.182 146.731 266.436 145.273 266.121L143.932 265.829C143.22 265.666 142.894 265.328 142.894 264.721C142.894 264.01 143.489 263.567 144.41 263.567C145.25 263.567 145.775 263.998 145.81 264.733H147.302C147.256 263.193 146.159 262.237 144.433 262.237C142.637 262.237 141.401 263.275 141.401 264.768ZM150.939 266.657L148.046 270.914H149.796L151.872 267.8C152.21 268.418 152.513 268.931 152.886 269.503L153.843 270.914H155.604L152.805 266.646L155.592 262.389H153.854L151.872 265.514C151.557 264.931 151.265 264.441 150.915 263.916L149.877 262.389H148.105L150.939 266.657Z" fill="white"/>
<g clip-path="url(#clip1_626_4121)">
<path d="M134.084 283.603H136.586C137.837 283.603 138.598 282.964 138.598 281.914C138.598 281.162 138.239 280.655 137.539 280.427C138.169 280.165 138.484 279.675 138.484 278.949C138.484 277.908 137.732 277.278 136.499 277.278H134.084V283.603ZM136.446 278.039C137.19 278.039 137.609 278.398 137.609 279.028C137.609 279.684 137.207 280.069 136.499 280.069H134.942V278.039H136.446ZM136.569 280.812C137.295 280.812 137.714 281.18 137.714 281.809C137.714 282.465 137.303 282.842 136.569 282.842H134.942V280.812H136.569ZM140.782 283.708C141.473 283.708 142.059 283.401 142.277 282.912L142.365 283.603H143.065V280.917C143.065 279.763 142.347 279.203 141.289 279.203C140.187 279.203 139.452 279.789 139.452 280.681H140.169C140.169 280.165 140.563 279.859 141.254 279.859C141.831 279.859 142.26 280.112 142.26 280.83V280.952L140.913 281.057C139.907 281.136 139.321 281.626 139.321 282.413C139.321 283.191 139.863 283.708 140.782 283.708ZM141.018 283.069C140.484 283.069 140.152 282.842 140.152 282.387C140.152 281.967 140.449 281.687 141.175 281.617L142.269 281.53V281.757C142.269 282.562 141.796 283.069 141.018 283.069ZM143.853 282.36C143.853 283.174 144.492 283.708 145.498 283.708C146.513 283.708 147.212 283.191 147.212 282.378C147.212 281.739 146.854 281.407 146.128 281.232L145.375 281.048C144.956 280.943 144.746 280.751 144.746 280.462C144.746 280.069 145.034 279.841 145.55 279.841C146.049 279.841 146.338 280.112 146.355 280.541H147.142C147.125 279.728 146.513 279.203 145.577 279.203C144.632 279.203 143.967 279.701 143.967 280.489C143.967 281.118 144.326 281.495 145.087 281.678L145.839 281.853C146.285 281.967 146.425 282.142 146.425 282.43C146.425 282.824 146.093 283.06 145.515 283.06C144.973 283.06 144.641 282.798 144.641 282.36H143.853ZM148.526 278.311C148.824 278.311 149.069 278.066 149.069 277.768C149.069 277.462 148.824 277.226 148.526 277.226C148.229 277.226 147.984 277.462 147.984 277.768C147.984 278.066 148.229 278.311 148.526 278.311ZM148.124 283.603H148.946V279.325H148.124V283.603ZM150.98 283.603V277.165H150.157V283.603H150.98ZM152.592 278.311C152.89 278.311 153.135 278.066 153.135 277.768C153.135 277.462 152.89 277.226 152.592 277.226C152.295 277.226 152.05 277.462 152.05 277.768C152.05 278.066 152.295 278.311 152.592 278.311ZM152.19 283.603H153.012V279.325H152.19V283.603ZM153.856 282.36C153.856 283.174 154.495 283.708 155.501 283.708C156.515 283.708 157.215 283.191 157.215 282.378C157.215 281.739 156.856 281.407 156.13 281.232L155.378 281.048C154.958 280.943 154.748 280.751 154.748 280.462C154.748 280.069 155.037 279.841 155.553 279.841C156.052 279.841 156.34 280.112 156.358 280.541H157.145C157.127 279.728 156.515 279.203 155.579 279.203C154.635 279.203 153.97 279.701 153.97 280.489C153.97 281.118 154.328 281.495 155.089 281.678L155.842 281.853C156.288 281.967 156.428 282.142 156.428 282.43C156.428 282.824 156.095 283.06 155.518 283.06C154.976 283.06 154.643 282.798 154.643 282.36H153.856ZM158.966 283.603V282.387L159.692 281.626L160.943 283.603H161.888L160.261 281.031L161.897 279.325H160.865L158.966 281.337V277.165H158.144V283.603H158.966Z" fill="#ACB2B5"/>
</g>
<path d="M166.723 271.75C166.741 271.689 166.757 271.626 166.777 271.564C166.83 271.404 166.922 271.259 167.044 271.143C167.166 271.027 167.315 270.943 167.477 270.899C167.639 270.855 167.809 270.852 167.972 270.891C168.135 270.93 168.286 271.009 168.412 271.121C168.449 271.154 168.483 271.189 168.518 271.224L171.366 274.105C171.392 274.13 171.415 274.16 171.445 274.195C171.48 274.162 171.506 274.137 171.531 274.112L174.418 271.193C174.596 270.988 174.847 270.863 175.116 270.845C175.385 270.827 175.65 270.918 175.852 271.098C176.055 271.277 176.179 271.531 176.196 271.803C176.214 272.075 176.124 272.343 175.946 272.548C175.915 272.586 175.881 272.622 175.846 272.658L172.208 276.336C172.061 276.502 171.864 276.614 171.647 276.656C171.43 276.698 171.206 276.667 171.009 276.567C170.899 276.511 170.799 276.437 170.712 276.349C169.489 275.117 168.267 273.883 167.046 272.647C166.882 272.477 166.77 272.264 166.723 272.032V271.75Z" fill="white"/>
<rect x="200.41" y="254.078" width="264.596" height="39.3614" rx="6.56024" fill="#DAFFEE" fill-opacity="0.06"/>
<path d="M374.691 272.517V270.956H370.703L372.434 269.473C373.891 268.227 374.626 267.216 374.626 265.878C374.626 263.936 373.353 262.769 371.306 262.769C369.272 262.769 367.934 264.133 367.921 266.232H369.587C369.6 264.999 370.256 264.264 371.306 264.264C372.316 264.264 372.907 264.881 372.907 265.97C372.907 266.888 372.474 267.518 371.175 268.62L368.039 271.271V272.53L374.691 272.517ZM375.713 269.814C375.713 271.559 377.143 272.688 379.36 272.688C381.591 272.688 383.021 271.546 383.021 269.814C383.021 268.66 382.365 267.728 381.355 267.374C382.207 267.02 382.68 266.298 382.68 265.366C382.68 263.805 381.355 262.769 379.387 262.769C377.405 262.769 376.054 263.818 376.054 265.34C376.054 266.272 376.513 266.993 377.353 267.374C376.356 267.754 375.713 268.673 375.713 269.814ZM377.576 265.485C377.576 264.697 378.271 264.199 379.36 264.199C380.436 264.199 381.118 264.697 381.118 265.498C381.118 266.298 380.436 266.797 379.36 266.797C378.271 266.797 377.576 266.285 377.576 265.485ZM377.353 269.696C377.353 268.765 378.127 268.187 379.36 268.187C380.594 268.187 381.368 268.765 381.368 269.696C381.368 270.628 380.594 271.205 379.373 271.205C378.127 271.205 377.353 270.628 377.353 269.696ZM387.386 272.688C389.525 272.688 390.981 271.271 390.981 269.198C390.981 267.308 389.709 266.009 387.793 266.009C387.137 266.009 386.56 266.18 386.101 266.482L386.612 264.487H390.404V262.939H385.405L384.224 267.964L385.707 268.279C386.048 267.781 386.717 267.413 387.452 267.413C388.607 267.413 389.276 268.174 389.276 269.29C389.276 270.457 388.554 271.192 387.426 271.192C386.363 271.192 385.72 270.549 385.72 269.46H384.054C384.054 271.402 385.379 272.688 387.386 272.688ZM395.254 272.688C397.392 272.688 398.849 271.271 398.849 269.198C398.849 267.308 397.576 266.009 395.66 266.009C395.004 266.009 394.427 266.18 393.968 266.482L394.479 264.487H398.271V262.939H393.272L392.091 267.964L393.574 268.279C393.915 267.781 394.584 267.413 395.319 267.413C396.474 267.413 397.143 268.174 397.143 269.29C397.143 270.457 396.421 271.192 395.293 271.192C394.23 271.192 393.587 270.549 393.587 269.46H391.921C391.921 271.402 393.246 272.688 395.254 272.688ZM400.948 272.688C401.525 272.688 402.01 272.215 402.01 271.651C402.01 271.074 401.525 270.602 400.948 270.602C400.37 270.602 399.885 271.074 399.885 271.651C399.885 272.215 400.37 272.688 400.948 272.688ZM410.119 272.517V270.956H406.13L407.862 269.473C409.319 268.227 410.053 267.216 410.053 265.878C410.053 263.936 408.781 262.769 406.734 262.769C404.7 262.769 403.362 264.133 403.349 266.232H405.015C405.028 264.999 405.684 264.264 406.734 264.264C407.744 264.264 408.335 264.881 408.335 265.97C408.335 266.888 407.902 267.518 406.603 268.62L403.467 271.271V272.53L410.119 272.517ZM418.439 270.707V269.237H417.271V262.939H415.159L410.816 269.237V270.707H415.684V272.53H417.271V270.707H418.439ZM412.6 269.237L415.684 264.75V269.237H412.6ZM420.693 265.76C419.617 267.216 419.237 268.056 419.237 269.211C419.237 271.179 420.785 272.701 422.858 272.701C424.905 272.701 426.427 271.271 426.427 269.224C426.427 267.282 425.088 265.891 423.107 265.891C422.871 265.891 422.622 265.931 422.386 265.996L424.682 262.939H422.766L420.693 265.76ZM420.955 269.224C420.955 268.069 421.716 267.269 422.858 267.269C423.96 267.269 424.734 268.069 424.734 269.224C424.734 270.392 423.947 271.205 422.858 271.205C421.73 271.205 420.955 270.392 420.955 269.224ZM430.949 265.616C430.949 267.085 431.801 268.017 433.428 268.371L434.95 268.712C435.738 268.883 436.066 269.263 436.066 269.906C436.066 270.707 435.357 271.192 434.242 271.192C433.166 271.192 432.51 270.707 432.497 269.893H430.817C430.857 271.612 432.195 272.701 434.242 272.701C436.354 272.701 437.745 271.546 437.745 269.762C437.745 268.332 436.945 267.492 435.305 267.138L433.796 266.81C432.995 266.626 432.628 266.246 432.628 265.563C432.628 264.763 433.297 264.264 434.334 264.264C435.278 264.264 435.869 264.75 435.908 265.576H437.588C437.535 263.845 436.302 262.769 434.36 262.769C432.339 262.769 430.949 263.936 430.949 265.616ZM440.091 272.53L440.865 270.313H444.447L445.221 272.53H446.992L443.528 262.939H441.81L438.346 272.53H440.091ZM442.453 265.799C442.544 265.537 442.623 265.248 442.663 265.065C442.689 265.262 442.781 265.55 442.859 265.799L443.961 268.896H441.364L442.453 265.799ZM449.573 272.53V270.785L450.517 269.801L452.21 272.53H454.047L451.633 268.62L454.099 266.049H452.092L449.573 268.765V262.769H447.985V272.53H449.573Z" fill="white"/>
<path d="M410.044 282.482H410.663C410.663 282.715 410.622 282.924 410.539 283.109C410.462 283.289 410.35 283.432 410.204 283.539C410.058 283.641 409.883 283.692 409.679 283.692C409.504 283.692 409.341 283.663 409.191 283.605C409.045 283.542 408.907 283.471 408.775 283.393C408.649 283.311 408.525 283.24 408.404 283.182C408.287 283.119 408.17 283.087 408.054 283.087C407.903 283.087 407.796 283.136 407.733 283.233C407.67 283.325 407.638 283.457 407.638 283.627H407.019C407.019 283.398 407.058 283.197 407.135 283.022C407.218 282.842 407.332 282.701 407.478 282.599C407.629 282.497 407.803 282.446 408.003 282.446C408.168 282.446 408.321 282.477 408.462 282.541C408.608 282.599 408.746 282.669 408.877 282.752C409.009 282.83 409.135 282.9 409.256 282.963C409.378 283.022 409.502 283.051 409.628 283.051C409.779 283.051 409.886 283.002 409.949 282.905C410.012 282.803 410.044 282.662 410.044 282.482ZM410.044 283.904H410.663C410.663 284.137 410.622 284.346 410.539 284.53C410.462 284.71 410.35 284.854 410.204 284.961C410.058 285.063 409.883 285.114 409.679 285.114C409.504 285.114 409.341 285.084 409.191 285.026C409.045 284.963 408.907 284.892 408.775 284.815C408.649 284.732 408.525 284.662 408.404 284.603C408.287 284.54 408.17 284.509 408.054 284.509C407.903 284.509 407.796 284.557 407.733 284.654C407.67 284.747 407.638 284.878 407.638 285.048H407.019C407.019 284.82 407.058 284.618 407.135 284.443C407.218 284.263 407.332 284.122 407.478 284.02C407.629 283.913 407.803 283.86 408.003 283.86C408.168 283.86 408.321 283.891 408.462 283.955C408.608 284.018 408.746 284.091 408.877 284.173C409.009 284.251 409.135 284.321 409.256 284.385C409.378 284.443 409.502 284.472 409.628 284.472C409.779 284.472 409.886 284.424 409.949 284.326C410.012 284.224 410.044 284.083 410.044 283.904ZM413.547 284.501C413.547 284.142 413.656 283.831 413.875 283.568C414.094 283.306 414.383 283.141 414.743 283.073L414.75 283.24C414.429 283.153 414.179 283.002 413.999 282.788C413.824 282.57 413.737 282.307 413.737 282.001C413.737 281.719 413.812 281.474 413.963 281.265C414.118 281.056 414.33 280.893 414.597 280.777C414.869 280.655 415.185 280.594 415.544 280.594C415.899 280.594 416.21 280.653 416.477 280.769C416.745 280.886 416.951 281.051 417.097 281.265C417.248 281.479 417.323 281.729 417.323 282.016C417.323 282.322 417.235 282.582 417.061 282.796C416.886 283.009 416.638 283.155 416.317 283.233L416.31 283.08C416.553 283.119 416.764 283.204 416.944 283.335C417.129 283.466 417.269 283.631 417.367 283.831C417.469 284.03 417.52 284.253 417.52 284.501C417.52 284.817 417.437 285.094 417.272 285.332C417.107 285.566 416.876 285.748 416.579 285.879C416.283 286.01 415.936 286.076 415.537 286.076C415.134 286.076 414.784 286.013 414.487 285.886C414.191 285.755 413.96 285.57 413.795 285.332C413.63 285.094 413.547 284.817 413.547 284.501ZM414.356 284.443C414.356 284.628 414.405 284.788 414.502 284.924C414.599 285.055 414.735 285.16 414.91 285.237C415.09 285.31 415.299 285.347 415.537 285.347C415.775 285.347 415.982 285.31 416.157 285.237C416.332 285.16 416.468 285.055 416.565 284.924C416.662 284.788 416.711 284.628 416.711 284.443C416.711 284.171 416.604 283.955 416.39 283.794C416.176 283.629 415.889 283.546 415.53 283.546C415.17 283.546 414.883 283.629 414.67 283.794C414.461 283.955 414.356 284.171 414.356 284.443ZM414.495 282.067C414.495 282.305 414.587 282.497 414.772 282.643C414.961 282.783 415.214 282.854 415.53 282.854C415.846 282.854 416.096 282.783 416.281 282.643C416.465 282.502 416.558 282.312 416.558 282.074C416.558 281.836 416.465 281.649 416.281 281.513C416.096 281.372 415.846 281.301 415.53 281.301C415.214 281.301 414.961 281.372 414.772 281.513C414.587 281.649 414.495 281.833 414.495 282.067ZM419.961 286.076C419.596 286.076 419.276 286.003 418.999 285.857C418.726 285.711 418.515 285.507 418.364 285.245C418.219 284.978 418.146 284.667 418.146 284.312H418.955C418.955 284.632 419.045 284.885 419.225 285.07C419.409 285.25 419.659 285.34 419.975 285.34C420.199 285.34 420.391 285.293 420.551 285.201C420.716 285.109 420.845 284.98 420.937 284.815C421.03 284.645 421.076 284.445 421.076 284.217C421.076 283.998 421.032 283.806 420.945 283.641C420.857 283.476 420.733 283.347 420.573 283.255C420.413 283.158 420.216 283.109 419.983 283.109C419.774 283.109 419.577 283.155 419.392 283.248C419.208 283.34 419.062 283.459 418.955 283.605L418.241 283.437L418.889 280.689H421.594V281.447H419.239L419.56 281.156L419.101 282.985L418.824 283.073C418.95 282.859 419.13 282.696 419.363 282.584C419.596 282.468 419.859 282.409 420.15 282.409C420.505 282.409 420.814 282.485 421.076 282.635C421.343 282.786 421.55 282.995 421.696 283.262C421.841 283.529 421.914 283.836 421.914 284.181C421.914 284.555 421.832 284.885 421.666 285.172C421.501 285.454 421.273 285.675 420.981 285.835C420.69 285.996 420.35 286.076 419.961 286.076ZM424.303 286.076C423.938 286.076 423.618 286.003 423.341 285.857C423.069 285.711 422.857 285.507 422.707 285.245C422.561 284.978 422.488 284.667 422.488 284.312H423.297C423.297 284.632 423.387 284.885 423.567 285.07C423.751 285.25 424.002 285.34 424.318 285.34C424.541 285.34 424.733 285.293 424.893 285.201C425.059 285.109 425.187 284.98 425.28 284.815C425.372 284.645 425.418 284.445 425.418 284.217C425.418 283.998 425.374 283.806 425.287 283.641C425.199 283.476 425.076 283.347 424.915 283.255C424.755 283.158 424.558 283.109 424.325 283.109C424.116 283.109 423.919 283.155 423.734 283.248C423.55 283.34 423.404 283.459 423.297 283.605L422.583 283.437L423.231 280.689H425.936V281.447H423.581L423.902 281.156L423.443 282.985L423.166 283.073C423.292 282.859 423.472 282.696 423.705 282.584C423.938 282.468 424.201 282.409 424.492 282.409C424.847 282.409 425.156 282.485 425.418 282.635C425.685 282.786 425.892 282.995 426.038 283.262C426.184 283.529 426.256 283.836 426.256 284.181C426.256 284.555 426.174 284.885 426.009 285.172C425.843 285.454 425.615 285.675 425.323 285.835C425.032 285.996 424.692 286.076 424.303 286.076ZM427.402 286.076C427.246 286.076 427.113 286.022 427.001 285.915C426.894 285.808 426.841 285.682 426.841 285.536C426.841 285.381 426.894 285.25 427.001 285.143C427.113 285.036 427.246 284.982 427.402 284.982C427.553 284.982 427.681 285.036 427.788 285.143C427.9 285.25 427.956 285.381 427.956 285.536C427.956 285.682 427.9 285.808 427.788 285.915C427.681 286.022 427.553 286.076 427.402 286.076ZM432.389 285.981L428.766 285.988V285.361L430.487 283.896C430.686 283.731 430.851 283.58 430.982 283.444C431.114 283.308 431.218 283.182 431.296 283.065C431.374 282.949 431.429 282.832 431.463 282.715C431.497 282.594 431.514 282.468 431.514 282.336C431.514 282.021 431.429 281.775 431.259 281.6C431.094 281.42 430.863 281.331 430.567 281.331C430.256 281.331 430.008 281.435 429.823 281.644C429.644 281.848 429.549 282.13 429.539 282.489H428.723C428.728 282.106 428.808 281.773 428.963 281.491C429.119 281.204 429.333 280.983 429.605 280.828C429.882 280.672 430.202 280.594 430.567 280.594C430.936 280.594 431.252 280.662 431.514 280.798C431.782 280.934 431.988 281.129 432.134 281.382C432.28 281.634 432.353 281.936 432.353 282.285C432.353 282.47 432.328 282.647 432.28 282.817C432.231 282.983 432.156 283.146 432.054 283.306C431.952 283.466 431.821 283.631 431.66 283.802C431.505 283.967 431.315 284.144 431.092 284.334L429.758 285.478L429.473 285.216H432.389V285.981ZM436.292 280.689V285.988H435.504V280.689H436.292ZM432.793 284.224L435.242 280.689H436.117L433.638 284.275L432.793 284.224ZM436.926 284.953H432.793V284.224H436.926V284.953ZM439.784 284.079V280.689H440.608V284.027C440.608 284.431 440.715 284.739 440.928 284.953C441.142 285.167 441.448 285.274 441.847 285.274C442.24 285.274 442.544 285.167 442.758 284.953C442.972 284.735 443.079 284.426 443.079 284.027V280.689H443.902V284.079C443.902 284.487 443.82 284.841 443.654 285.143C443.489 285.439 443.251 285.67 442.94 285.835C442.634 285.996 442.27 286.076 441.847 286.076C441.424 286.076 441.057 285.996 440.746 285.835C440.44 285.675 440.202 285.444 440.032 285.143C439.867 284.841 439.784 284.487 439.784 284.079ZM444.76 282.14C444.76 281.833 444.838 281.566 444.994 281.338C445.154 281.105 445.373 280.922 445.65 280.791C445.931 280.66 446.255 280.594 446.619 280.594C446.969 280.594 447.273 280.655 447.53 280.777C447.788 280.898 447.989 281.073 448.135 281.301C448.281 281.53 448.361 281.799 448.376 282.11H447.545C447.53 281.863 447.44 281.671 447.275 281.535C447.11 281.399 446.889 281.331 446.612 281.331C446.301 281.331 446.05 281.401 445.861 281.542C445.676 281.683 445.584 281.875 445.584 282.118C445.584 282.317 445.64 282.477 445.752 282.599C445.868 282.72 446.043 282.808 446.276 282.861L447.137 283.058C447.579 283.155 447.909 283.323 448.128 283.561C448.351 283.794 448.463 284.103 448.463 284.487C448.463 284.807 448.383 285.089 448.223 285.332C448.067 285.57 447.846 285.755 447.559 285.886C447.273 286.017 446.937 286.083 446.553 286.083C446.189 286.083 445.868 286.022 445.591 285.901C445.314 285.774 445.098 285.597 444.943 285.369C444.787 285.14 444.704 284.873 444.695 284.567H445.518C445.528 284.805 445.625 284.995 445.81 285.135C445.995 285.272 446.245 285.34 446.561 285.34C446.891 285.34 447.154 285.269 447.348 285.128C447.542 284.987 447.639 284.798 447.639 284.56C447.639 284.36 447.584 284.202 447.472 284.086C447.365 283.964 447.195 283.877 446.962 283.823L446.109 283.634C445.667 283.537 445.331 283.364 445.103 283.116C444.874 282.864 444.76 282.538 444.76 282.14ZM451.153 285.988H449.33V280.689H451.116C451.641 280.689 452.103 280.801 452.501 281.024C452.9 281.248 453.208 281.559 453.427 281.957C453.651 282.356 453.762 282.82 453.762 283.35C453.762 283.87 453.653 284.329 453.434 284.727C453.216 285.121 452.909 285.429 452.516 285.653C452.127 285.877 451.673 285.988 451.153 285.988ZM450.154 281.068V285.617L449.761 285.23H451.087C451.461 285.23 451.782 285.155 452.049 285.004C452.321 284.849 452.53 284.63 452.676 284.348C452.827 284.066 452.902 283.734 452.902 283.35C452.902 282.956 452.827 282.618 452.676 282.336C452.526 282.05 452.312 281.831 452.035 281.68C451.763 281.525 451.435 281.447 451.051 281.447H449.761L450.154 281.068Z" fill="#ACB2B5"/>
<rect x="200.775" y="254.443" width="263.867" height="38.6325" rx="6.19578" stroke="white" stroke-opacity="0.12" stroke-width="0.728916"/>
<line x1="58.2715" y1="330.614" x2="80.139" y2="330.614" stroke="#4CF3A8" stroke-opacity="0.12" stroke-width="0.728916"/>
<path d="M95.8104 315.307C92.7108 315.307 89.6808 316.226 87.1036 317.948C84.5264 319.67 82.5177 322.117 81.3316 324.981C80.1454 327.845 79.8351 330.996 80.4398 334.036C81.0445 337.076 82.5371 339.868 84.7288 342.06C86.9205 344.252 89.713 345.744 92.753 346.349C95.793 346.954 98.944 346.643 101.808 345.457C104.671 344.271 107.119 342.262 108.841 339.685C110.563 337.108 111.482 334.078 111.482 330.978C111.477 326.823 109.825 322.84 106.887 319.902C103.949 316.964 99.9653 315.311 95.8104 315.307Z" fill="#4CF3A8" fill-opacity="0.12"/>
<path d="M95.7997 325.861L95.7996 335.793M95.7996 335.793L91.9662 331.96M95.7996 335.793L99.6218 331.971" stroke="#8AFFCB" stroke-width="1.45783" stroke-linecap="round" stroke-linejoin="round"/>
<line x1="111.481" y1="330.959" x2="343.645" y2="330.271" stroke="#4CF3A8" stroke-opacity="0.12" stroke-width="0.728916"/>
<rect x="343.646" y="320.773" width="133.392" height="20.4096" rx="5.10241" fill="#DAFFEE" fill-opacity="0.06"/>
<path d="M356.778 332.443C357.909 332.443 358.646 331.657 358.646 330.575C358.646 329.46 357.917 328.715 356.778 328.715H354.525V334.512H355.311V332.443H356.778ZM356.642 329.42C357.38 329.42 357.821 329.837 357.821 330.567C357.821 331.28 357.388 331.737 356.61 331.737H355.311V329.42H356.642ZM361.653 330.559C361.501 330.527 361.389 330.511 361.252 330.511C360.715 330.511 360.322 330.783 360.162 331.192L360.114 330.599H359.408V334.512H360.162V332.435C360.162 331.681 360.603 331.248 361.316 331.248H361.653V330.559ZM362.729 329.661C363.001 329.661 363.226 329.436 363.226 329.164C363.226 328.883 363.001 328.667 362.729 328.667C362.456 328.667 362.232 328.883 362.232 329.164C362.232 329.436 362.456 329.661 362.729 329.661ZM362.36 334.512H363.114V330.591H362.36V334.512ZM363.951 332.555C363.951 333.79 364.713 334.608 365.868 334.608C366.814 334.608 367.543 334.039 367.696 333.189H366.942C366.806 333.654 366.405 333.934 365.868 333.934C365.154 333.934 364.697 333.389 364.697 332.547C364.697 331.697 365.186 331.152 365.9 331.152C366.405 331.152 366.806 331.417 366.934 331.914H367.688C367.552 331.04 366.862 330.479 365.876 330.479C364.729 330.479 363.951 331.329 363.951 332.555ZM370.183 334.608C371.153 334.608 371.811 334.135 372.003 333.293H371.297C371.169 333.742 370.784 333.983 370.199 333.983C369.453 333.983 369.02 333.525 368.964 332.7L371.995 332.692V332.411C371.995 331.248 371.265 330.479 370.151 330.479C369.012 330.479 368.234 331.329 368.234 332.555C368.234 333.774 369.028 334.608 370.183 334.608ZM370.151 331.112C370.816 331.112 371.241 331.545 371.241 332.194H368.98C369.076 331.505 369.493 331.112 370.151 331.112ZM373.478 331.601C373.783 331.601 374.048 331.345 374.048 331.048C374.048 330.735 373.783 330.479 373.478 330.479C373.166 330.479 372.901 330.735 372.901 331.048C372.901 331.345 373.166 331.601 373.478 331.601ZM373.478 334.608C373.783 334.608 374.048 334.351 374.048 334.047C374.048 333.734 373.783 333.477 373.478 333.477C373.166 333.477 372.901 333.734 372.901 334.047C372.901 334.351 373.166 334.608 373.478 334.608Z" fill="white"/>
<rect x="384.098" y="328.428" width="83.8253" height="5.10241" rx="2.5512" fill="#DAFFEE" fill-opacity="0.16"/>
<line x1="477.038" y1="330.614" x2="525.875" y2="330.614" stroke="#4CF3A8" stroke-opacity="0.12" stroke-width="0.728916"/>
<rect x="80.8682" y="353.939" width="400.904" height="91.1145" rx="8.74699" fill="#DAFFEE" fill-opacity="0.06"/>
<path d="M100.618 377.852L97.7494 372.767H99.2306L101.003 376.01C101.058 376.111 101.108 376.212 101.155 376.313C101.202 376.406 101.248 376.499 101.295 376.593C101.334 376.523 101.365 376.461 101.388 376.406C101.412 376.352 101.435 376.293 101.458 376.231C101.489 376.169 101.532 376.091 101.586 375.998L103.348 372.767H104.794L101.936 377.852V381.246H100.618V377.852ZM104.134 378.377C104.134 377.778 104.263 377.254 104.519 376.803C104.784 376.352 105.145 375.998 105.604 375.741C106.063 375.485 106.583 375.356 107.167 375.356C107.75 375.356 108.267 375.485 108.718 375.741C109.169 375.998 109.526 376.352 109.791 376.803C110.055 377.254 110.187 377.778 110.187 378.377C110.187 378.968 110.055 379.489 109.791 379.94C109.526 380.391 109.169 380.745 108.718 381.001C108.267 381.258 107.75 381.386 107.167 381.386C106.583 381.386 106.063 381.258 105.604 381.001C105.145 380.745 104.784 380.391 104.519 379.94C104.263 379.489 104.134 378.968 104.134 378.377ZM105.394 378.365C105.394 378.739 105.468 379.069 105.615 379.357C105.771 379.637 105.981 379.858 106.245 380.022C106.51 380.177 106.817 380.255 107.167 380.255C107.509 380.255 107.812 380.177 108.076 380.022C108.341 379.858 108.547 379.637 108.694 379.357C108.842 379.069 108.916 378.739 108.916 378.365C108.916 377.992 108.842 377.666 108.694 377.386C108.547 377.106 108.341 376.888 108.076 376.733C107.812 376.569 107.509 376.488 107.167 376.488C106.817 376.488 106.51 376.569 106.245 376.733C105.981 376.888 105.771 377.106 105.615 377.386C105.468 377.666 105.394 377.992 105.394 378.365ZM115.134 375.52H116.394V381.246H115.239L115.123 380.43C114.959 380.717 114.703 380.951 114.353 381.129C114.011 381.308 113.637 381.398 113.233 381.398C112.572 381.398 112.059 381.188 111.694 380.768C111.328 380.348 111.146 379.788 111.146 379.089V375.508H112.405V378.657C112.405 379.232 112.518 379.644 112.743 379.893C112.969 380.142 113.288 380.266 113.7 380.266C114.174 380.266 114.532 380.123 114.773 379.835C115.014 379.547 115.134 379.112 115.134 378.529V375.52ZM120.74 378.249C120.74 377.697 120.853 377.203 121.078 376.768C121.304 376.332 121.619 375.986 122.023 375.73C122.435 375.473 122.913 375.345 123.458 375.345C123.963 375.345 124.394 375.461 124.752 375.695C125.11 375.92 125.359 376.235 125.499 376.639L125.359 376.779L125.475 375.52H126.63V380.978C126.63 381.6 126.509 382.136 126.268 382.587C126.027 383.046 125.685 383.396 125.242 383.637C124.807 383.886 124.29 384.01 123.691 384.01C122.89 384.01 122.229 383.796 121.708 383.369C121.195 382.941 120.888 382.358 120.787 381.619H122.058C122.112 382.016 122.284 382.323 122.571 382.541C122.859 382.766 123.228 382.879 123.679 382.879C124.2 382.879 124.612 382.723 124.915 382.412C125.219 382.109 125.37 381.705 125.37 381.199V379.672L125.534 379.823C125.386 380.22 125.121 380.535 124.74 380.768C124.359 381.001 123.916 381.118 123.411 381.118C122.874 381.118 122.404 380.993 122 380.745C121.603 380.488 121.292 380.146 121.067 379.718C120.849 379.283 120.74 378.793 120.74 378.249ZM122.011 378.214C122.011 378.556 122.077 378.863 122.21 379.135C122.342 379.4 122.532 379.613 122.781 379.777C123.03 379.932 123.322 380.01 123.656 380.01C123.998 380.01 124.293 379.936 124.542 379.788C124.799 379.633 124.993 379.419 125.125 379.147C125.265 378.875 125.335 378.564 125.335 378.214C125.335 377.864 125.269 377.557 125.137 377.292C125.005 377.028 124.814 376.822 124.566 376.674C124.317 376.519 124.013 376.441 123.656 376.441C123.314 376.441 123.018 376.523 122.769 376.686C122.528 376.841 122.342 377.051 122.21 377.316C122.077 377.58 122.011 377.879 122.011 378.214ZM130.682 381.398C130.114 381.398 129.613 381.269 129.177 381.013C128.75 380.756 128.412 380.402 128.163 379.952C127.922 379.493 127.801 378.968 127.801 378.377C127.801 377.778 127.918 377.254 128.151 376.803C128.392 376.352 128.727 375.998 129.154 375.741C129.582 375.477 130.075 375.345 130.635 375.345C131.195 375.345 131.677 375.465 132.081 375.706C132.494 375.94 132.812 376.274 133.038 376.709C133.271 377.137 133.388 377.642 133.388 378.225V378.645L128.466 378.657L128.489 377.841H132.128C132.128 377.397 131.992 377.048 131.72 376.791C131.456 376.527 131.094 376.394 130.635 376.394C130.285 376.394 129.986 376.468 129.737 376.616C129.496 376.764 129.31 376.985 129.177 377.281C129.053 377.568 128.991 377.922 128.991 378.342C128.991 378.995 129.135 379.493 129.422 379.835C129.718 380.177 130.145 380.348 130.705 380.348C131.11 380.348 131.444 380.27 131.708 380.115C131.973 379.959 132.144 379.73 132.221 379.427H133.399C133.267 380.041 132.96 380.523 132.478 380.873C132.004 381.223 131.405 381.398 130.682 381.398ZM133.923 375.52H137.41V376.569H133.923V375.52ZM136.291 381.246H135.043V373.724H136.291V381.246Z" fill="#B8FFDF"/>
<path d="M305.152 376.404V378.976H306.01V376.404L308.135 372.652H307.199L305.8 375.179C305.686 375.389 305.668 375.442 305.59 375.599C305.52 375.451 305.467 375.328 305.38 375.179L303.972 372.652H303.009L305.152 376.404ZM307.679 376.833C307.679 378.153 308.623 379.081 309.909 379.081C311.186 379.081 312.131 378.153 312.131 376.833C312.131 375.512 311.186 374.585 309.909 374.585C308.623 374.585 307.679 375.512 307.679 376.833ZM308.51 376.833C308.51 375.94 309.078 375.319 309.909 375.319C310.731 375.319 311.309 375.94 311.309 376.833C311.309 377.725 310.731 378.346 309.909 378.346C309.078 378.346 308.51 377.725 308.51 376.833ZM315.895 374.698V376.955C315.895 377.873 315.484 378.355 314.732 378.355C314.102 378.355 313.708 378.005 313.708 377.086V374.698H312.886V377.357C312.886 378.407 313.446 379.081 314.443 379.081C315.073 379.081 315.641 378.774 315.886 378.328L315.974 378.976H316.708V374.698H315.895ZM320.351 374.663C320.184 374.628 320.062 374.611 319.913 374.611C319.327 374.611 318.899 374.908 318.724 375.354L318.671 374.707H317.901V378.976H318.724V376.71C318.724 375.888 319.205 375.416 319.983 375.416H320.351V374.663ZM324.257 378.976L324.318 378.197C324.598 378.783 325.167 379.081 325.84 379.081C327.082 379.081 327.852 378.153 327.852 376.859C327.852 375.538 327.117 374.576 325.893 374.576C325.193 374.576 324.616 374.873 324.336 375.433V372.538H323.513V378.976H324.257ZM324.344 376.824C324.344 375.949 324.852 375.319 325.691 375.319C326.531 375.319 327.03 375.949 327.03 376.824C327.03 377.707 326.531 378.337 325.691 378.337C324.852 378.337 324.344 377.716 324.344 376.824ZM330.009 379.081C330.7 379.081 331.286 378.774 331.505 378.285L331.592 378.976H332.292V376.29C332.292 375.136 331.575 374.576 330.516 374.576C329.414 374.576 328.68 375.162 328.68 376.054H329.397C329.397 375.538 329.79 375.232 330.481 375.232C331.059 375.232 331.487 375.486 331.487 376.203V376.325L330.14 376.43C329.134 376.509 328.548 376.999 328.548 377.786C328.548 378.564 329.091 379.081 330.009 379.081ZM330.245 378.442C329.712 378.442 329.379 378.215 329.379 377.76C329.379 377.34 329.677 377.06 330.403 376.99L331.496 376.903V377.13C331.496 377.935 331.024 378.442 330.245 378.442ZM334.27 378.976V372.538H333.448V378.976H334.27ZM336.732 379.081C337.423 379.081 338.009 378.774 338.227 378.285L338.315 378.976H339.015V376.29C339.015 375.136 338.297 374.576 337.239 374.576C336.137 374.576 335.402 375.162 335.402 376.054H336.119C336.119 375.538 336.513 375.232 337.204 375.232C337.781 375.232 338.21 375.486 338.21 376.203V376.325L336.863 376.43C335.857 376.509 335.271 376.999 335.271 377.786C335.271 378.564 335.813 379.081 336.732 379.081ZM336.968 378.442C336.434 378.442 336.102 378.215 336.102 377.76C336.102 377.34 336.399 377.06 337.125 376.99L338.219 376.903V377.13C338.219 377.935 337.746 378.442 336.968 378.442ZM340.975 378.976V376.71C340.975 375.879 341.422 375.328 342.191 375.328C342.821 375.328 343.223 375.678 343.223 376.544V378.976H344.046V376.36C344.046 375.267 343.53 374.576 342.401 374.576C341.798 374.576 341.255 374.865 340.984 375.354L340.897 374.698H340.153V378.976H340.975ZM344.905 376.841C344.905 378.188 345.736 379.081 346.995 379.081C348.027 379.081 348.823 378.46 348.989 377.532H348.167C348.018 378.04 347.581 378.346 346.995 378.346C346.217 378.346 345.718 377.751 345.718 376.833C345.718 375.905 346.252 375.311 347.03 375.311C347.581 375.311 348.018 375.599 348.158 376.142H348.981C348.832 375.188 348.08 374.576 347.004 374.576C345.753 374.576 344.905 375.503 344.905 376.841ZM351.703 379.081C352.761 379.081 353.478 378.564 353.688 377.646H352.918C352.778 378.136 352.359 378.398 351.72 378.398C350.907 378.398 350.434 377.9 350.373 376.999L353.679 376.99V376.684C353.679 375.416 352.883 374.576 351.668 374.576C350.425 374.576 349.577 375.503 349.577 376.841C349.577 378.171 350.443 379.081 351.703 379.081ZM351.668 375.267C352.394 375.267 352.857 375.739 352.857 376.448H350.39C350.495 375.695 350.95 375.267 351.668 375.267ZM355.297 375.8C355.63 375.8 355.919 375.521 355.919 375.197C355.919 374.856 355.63 374.576 355.297 374.576C354.956 374.576 354.668 374.856 354.668 375.197C354.668 375.521 354.956 375.8 355.297 375.8ZM355.297 379.081C355.63 379.081 355.919 378.801 355.919 378.468C355.919 378.127 355.63 377.847 355.297 377.847C354.956 377.847 354.668 378.127 354.668 378.468C354.668 378.801 354.956 379.081 355.297 379.081Z" fill="white" fill-opacity="0.7"/>
<rect x="364.092" y="373.425" width="83.8253" height="5.10241" rx="2.5512" fill="#DAFFEE" fill-opacity="0.16"/>
<rect x="451.562" y="370.598" width="13.4444" height="10.7556" rx="5.37778" fill="white" fill-opacity="0.06"/>
<g clip-path="url(#clip2_626_4121)">
<circle cx="114.398" cy="410.794" r="14.5783" fill="url(#paint5_linear_626_4121)"/>
<path d="M118.568 403.775L114.006 407.956C113.536 408.388 112.921 408.629 112.282 408.632L110.922 408.635L110.917 403.775H108.459V417.664H109.8C110.169 417.665 110.532 417.567 110.851 417.381C111.171 417.194 111.434 416.926 111.615 416.604C111.619 416.6 111.62 416.595 111.623 416.592C111.866 416.151 111.988 415.28 111.965 414.685C111.912 413.325 111.695 412.971 111.695 412.971C111.649 413.904 110.684 413.954 110.684 413.954C111.371 413.292 110.997 412.792 110.997 412.792C109.781 413.665 109.477 412.733 109.454 412.649C109.491 412.681 109.838 412.973 110.495 412.064C111.19 411.103 112.117 409.503 112.707 409.091C113.298 408.678 113.858 408.712 113.858 408.712C113.858 408.712 114.181 408.271 115.035 407.904C115.888 407.54 116.435 408.074 116.435 408.074C115.563 408.784 114.378 409.951 114.311 411.622C114.259 412.974 117.148 415.294 116.641 418.722C116.945 417.943 117.066 417.164 116.962 416.199C116.879 415.42 116.381 413.794 116.381 413.794L119.157 417.663H122.225L116.228 409.35L122.225 403.775H118.568H118.568Z" fill="white"/>
<path d="M112.981 409.755C112.787 410.079 112.787 410.179 112.787 410.179C112.787 410.179 113.465 410.063 113.648 409.251C113.65 409.251 113.215 409.363 112.981 409.755Z" fill="white"/>
</g>
<path d="M135.787 399.873H134.294V408.398H135.787V406.579L137.198 404.771L139.309 408.398H141.035L138.178 403.512L141 399.873H139.239L135.787 404.351V399.873ZM142.888 408.398L143.576 406.427H146.76L147.448 408.398H149.022L145.943 399.873H144.415L141.337 408.398H142.888ZM144.987 402.415C145.069 402.182 145.139 401.926 145.174 401.762C145.197 401.937 145.278 402.194 145.348 402.415L146.328 405.168H144.019L144.987 402.415ZM151.584 408.398V405.215H153.415L154.861 408.398H156.494L154.873 404.9C155.876 404.491 156.412 403.675 156.412 402.532C156.412 400.853 155.281 399.873 153.345 399.873H150.091V408.398H151.584ZM151.584 401.203H153.345C154.29 401.203 154.85 401.681 154.85 402.532C154.85 403.395 154.29 403.897 153.345 403.897H151.584V401.203Z" fill="white"/>
<g clip-path="url(#clip3_626_4121)">
<path d="M134.942 413.866H134.084V420.19H134.942V418.738L136.096 417.278L137.819 420.19H138.816L136.665 416.552L138.781 413.866H137.758L134.942 417.453V413.866ZM140.688 420.295C141.379 420.295 141.965 419.989 142.183 419.499L142.271 420.19H142.971V417.505C142.971 416.351 142.253 415.791 141.195 415.791C140.093 415.791 139.358 416.377 139.358 417.269H140.075C140.075 416.753 140.469 416.447 141.16 416.447C141.737 416.447 142.166 416.7 142.166 417.418V417.54L140.819 417.645C139.813 417.724 139.227 418.214 139.227 419.001C139.227 419.779 139.769 420.295 140.688 420.295ZM140.924 419.657C140.39 419.657 140.058 419.429 140.058 418.975C140.058 418.555 140.355 418.275 141.081 418.205L142.175 418.117V418.345C142.175 419.15 141.702 419.657 140.924 419.657ZM146.559 415.878C146.392 415.843 146.27 415.826 146.121 415.826C145.535 415.826 145.107 416.123 144.932 416.569L144.879 415.922H144.109V420.19H144.932V417.925C144.932 417.103 145.413 416.63 146.191 416.63H146.559V415.878ZM150.286 415.913V418.17C150.286 419.088 149.875 419.569 149.123 419.569C148.493 419.569 148.099 419.22 148.099 418.301V415.913H147.277V418.572C147.277 419.622 147.837 420.295 148.834 420.295C149.464 420.295 150.033 419.989 150.277 419.543L150.365 420.19H151.1V415.913H150.286ZM154.742 415.878C154.576 415.843 154.453 415.826 154.304 415.826C153.718 415.826 153.29 416.123 153.115 416.569L153.062 415.922H152.293V420.19H153.115V417.925C153.115 417.103 153.596 416.63 154.374 416.63H154.742V415.878ZM156.593 420.295C157.284 420.295 157.87 419.989 158.089 419.499L158.176 420.19H158.876V417.505C158.876 416.351 158.159 415.791 157.1 415.791C155.998 415.791 155.263 416.377 155.263 417.269H155.981C155.981 416.753 156.374 416.447 157.065 416.447C157.643 416.447 158.071 416.7 158.071 417.418V417.54L156.724 417.645C155.718 417.724 155.132 418.214 155.132 419.001C155.132 419.779 155.674 420.295 156.593 420.295ZM156.829 419.657C156.295 419.657 155.963 419.429 155.963 418.975C155.963 418.555 156.26 418.275 156.986 418.205L158.08 418.117V418.345C158.08 419.15 157.608 419.657 156.829 419.657Z" fill="#ACB2B5"/>
</g>
<path d="M164.723 408.786C164.741 408.725 164.757 408.662 164.777 408.601C164.83 408.44 164.922 408.295 165.044 408.179C165.166 408.063 165.315 407.979 165.477 407.935C165.639 407.891 165.809 407.889 165.972 407.927C166.135 407.966 166.286 408.045 166.412 408.157C166.449 408.19 166.483 408.225 166.518 408.26L169.366 411.141C169.392 411.166 169.415 411.196 169.445 411.232C169.48 411.198 169.506 411.173 169.531 411.148L172.418 408.229C172.596 408.024 172.847 407.899 173.116 407.881C173.385 407.863 173.65 407.954 173.852 408.134C174.055 408.314 174.179 408.567 174.196 408.839C174.214 409.111 174.124 409.379 173.946 409.584C173.915 409.622 173.881 409.658 173.846 409.694L170.208 413.372C170.061 413.538 169.864 413.65 169.647 413.692C169.43 413.734 169.206 413.703 169.009 413.604C168.899 413.547 168.799 413.473 168.712 413.385C167.489 412.153 166.267 410.919 165.046 409.683C164.882 409.513 164.77 409.3 164.723 409.068V408.786Z" fill="white"/>
<rect x="200.41" y="391.114" width="264.596" height="39.3614" rx="6.56024" fill="#DAFFEE" fill-opacity="0.06"/>
<path d="M371.367 409.552V407.991H367.378L369.11 406.508C370.567 405.262 371.301 404.252 371.301 402.913C371.301 400.972 370.029 399.804 367.982 399.804C365.948 399.804 364.61 401.168 364.597 403.268H366.263C366.276 402.034 366.932 401.3 367.982 401.3C368.992 401.3 369.583 401.916 369.583 403.005C369.583 403.924 369.15 404.553 367.851 405.656L364.715 408.306V409.565L371.367 409.552ZM372.389 406.849C372.389 408.595 373.819 409.723 376.036 409.723C378.267 409.723 379.697 408.581 379.697 406.849C379.697 405.695 379.041 404.763 378.03 404.409C378.883 404.055 379.356 403.333 379.356 402.402C379.356 400.84 378.03 399.804 376.062 399.804C374.081 399.804 372.73 400.853 372.73 402.375C372.73 403.307 373.189 404.029 374.029 404.409C373.032 404.79 372.389 405.708 372.389 406.849ZM374.252 402.52C374.252 401.733 374.947 401.234 376.036 401.234C377.112 401.234 377.794 401.733 377.794 402.533C377.794 403.333 377.112 403.832 376.036 403.832C374.947 403.832 374.252 403.32 374.252 402.52ZM374.029 406.731C374.029 405.8 374.803 405.223 376.036 405.223C377.269 405.223 378.044 405.8 378.044 406.731C378.044 407.663 377.269 408.24 376.049 408.24C374.803 408.24 374.029 407.663 374.029 406.731ZM384.062 409.723C386.201 409.723 387.657 408.306 387.657 406.233C387.657 404.343 386.384 403.045 384.469 403.045C383.813 403.045 383.236 403.215 382.776 403.517L383.288 401.523H387.08V399.974H382.081L380.9 405L382.383 405.314C382.724 404.816 383.393 404.448 384.128 404.448C385.282 404.448 385.951 405.209 385.951 406.325C385.951 407.492 385.23 408.227 384.102 408.227C383.039 408.227 382.396 407.584 382.396 406.495H380.73C380.73 408.437 382.055 409.723 384.062 409.723ZM391.929 409.723C394.068 409.723 395.524 408.306 395.524 406.233C395.524 404.343 394.252 403.045 392.336 403.045C391.68 403.045 391.103 403.215 390.644 403.517L391.155 401.523H394.947V399.974H389.948L388.767 405L390.25 405.314C390.591 404.816 391.26 404.448 391.995 404.448C393.15 404.448 393.819 405.209 393.819 406.325C393.819 407.492 393.097 408.227 391.969 408.227C390.906 408.227 390.263 407.584 390.263 406.495H388.597C388.597 408.437 389.922 409.723 391.929 409.723ZM397.623 409.723C398.201 409.723 398.686 409.251 398.686 408.686C398.686 408.109 398.201 407.637 397.623 407.637C397.046 407.637 396.561 408.109 396.561 408.686C396.561 409.251 397.046 409.723 397.623 409.723ZM406.795 409.552V407.991H402.806L404.538 406.508C405.994 405.262 406.729 404.252 406.729 402.913C406.729 400.972 405.457 399.804 403.41 399.804C401.376 399.804 400.038 401.168 400.025 403.268H401.691C401.704 402.034 402.36 401.3 403.41 401.3C404.42 401.3 405.01 401.916 405.01 403.005C405.01 403.924 404.577 404.553 403.279 405.656L400.143 408.306V409.565L406.795 409.552ZM415.115 407.742V406.272H413.947V399.974H411.835L407.492 406.272V407.742H412.36V409.565H413.947V407.742H415.115ZM409.276 406.272L412.36 401.785V406.272H409.276ZM417.369 402.795C416.293 404.252 415.912 405.091 415.912 406.246C415.912 408.214 417.461 409.736 419.534 409.736C421.58 409.736 423.102 408.306 423.102 406.259C423.102 404.317 421.764 402.926 419.783 402.926C419.547 402.926 419.298 402.966 419.061 403.031L421.357 399.974H419.442L417.369 402.795ZM417.631 406.259C417.631 405.104 418.392 404.304 419.534 404.304C420.636 404.304 421.41 405.104 421.41 406.259C421.41 407.427 420.623 408.24 419.534 408.24C418.405 408.24 417.631 407.427 417.631 406.259ZM429.855 399.974H428.175V409.565H429.855V407.519L431.442 405.485L433.817 409.565H435.759L432.545 404.068L435.72 399.974H433.739L429.855 405.013V399.974ZM437.843 409.565L438.617 407.348H442.199L442.973 409.565H444.744L441.281 399.974H439.562L436.098 409.565H437.843ZM440.205 402.835C440.297 402.572 440.375 402.284 440.415 402.1C440.441 402.297 440.533 402.585 440.611 402.835L441.714 405.931H439.116L440.205 402.835ZM447.626 409.565V405.984H449.686L451.313 409.565H453.15L451.326 405.629C452.455 405.17 453.058 404.252 453.058 402.966C453.058 401.076 451.786 399.974 449.608 399.974H445.947V409.565H447.626ZM447.626 401.47H449.608C450.67 401.47 451.3 402.008 451.3 402.966C451.3 403.937 450.67 404.501 449.608 404.501H447.626V401.47Z" fill="white"/>
<path d="M409.719 419.517H410.339C410.339 419.751 410.298 419.96 410.215 420.144C410.137 420.324 410.026 420.467 409.88 420.574C409.734 420.676 409.559 420.727 409.355 420.727C409.18 420.727 409.017 420.698 408.867 420.64C408.721 420.577 408.582 420.506 408.451 420.428C408.325 420.346 408.201 420.275 408.079 420.217C407.963 420.154 407.846 420.122 407.73 420.122C407.579 420.122 407.472 420.171 407.409 420.268C407.346 420.36 407.314 420.492 407.314 420.662H406.694C406.694 420.433 406.733 420.232 406.811 420.057C406.894 419.877 407.008 419.736 407.154 419.634C407.304 419.532 407.479 419.481 407.678 419.481C407.844 419.481 407.997 419.512 408.138 419.576C408.283 419.634 408.422 419.704 408.553 419.787C408.684 419.865 408.811 419.935 408.932 419.998C409.054 420.057 409.178 420.086 409.304 420.086C409.455 420.086 409.562 420.037 409.625 419.94C409.688 419.838 409.719 419.697 409.719 419.517ZM409.719 420.939H410.339C410.339 421.172 410.298 421.381 410.215 421.566C410.137 421.745 410.026 421.889 409.88 421.996C409.734 422.098 409.559 422.149 409.355 422.149C409.18 422.149 409.017 422.12 408.867 422.061C408.721 421.998 408.582 421.928 408.451 421.85C408.325 421.767 408.201 421.697 408.079 421.638C407.963 421.575 407.846 421.544 407.73 421.544C407.579 421.544 407.472 421.592 407.409 421.69C407.346 421.782 407.314 421.913 407.314 422.083H406.694C406.694 421.855 406.733 421.653 406.811 421.478C406.894 421.298 407.008 421.157 407.154 421.055C407.304 420.948 407.479 420.895 407.678 420.895C407.844 420.895 407.997 420.927 408.138 420.99C408.283 421.053 408.422 421.126 408.553 421.208C408.684 421.286 408.811 421.357 408.932 421.42C409.054 421.478 409.178 421.507 409.304 421.507C409.455 421.507 409.562 421.459 409.625 421.362C409.688 421.259 409.719 421.119 409.719 420.939ZM413.223 421.536C413.223 421.177 413.332 420.866 413.551 420.603C413.77 420.341 414.059 420.176 414.418 420.108L414.426 420.275C414.105 420.188 413.855 420.037 413.675 419.823C413.5 419.605 413.412 419.342 413.412 419.036C413.412 418.754 413.488 418.509 413.638 418.3C413.794 418.091 414.005 417.928 414.273 417.812C414.545 417.69 414.861 417.629 415.22 417.629C415.575 417.629 415.886 417.688 416.153 417.804C416.42 417.921 416.627 418.086 416.773 418.3C416.923 418.514 416.999 418.764 416.999 419.051C416.999 419.357 416.911 419.617 416.736 419.831C416.561 420.045 416.314 420.19 415.993 420.268L415.986 420.115C416.228 420.154 416.44 420.239 416.62 420.37C416.804 420.501 416.945 420.667 417.042 420.866C417.144 421.065 417.196 421.289 417.196 421.536C417.196 421.852 417.113 422.129 416.948 422.367C416.782 422.601 416.552 422.783 416.255 422.914C415.959 423.045 415.611 423.111 415.213 423.111C414.81 423.111 414.46 423.048 414.163 422.921C413.867 422.79 413.636 422.606 413.471 422.367C413.306 422.129 413.223 421.852 413.223 421.536ZM414.032 421.478C414.032 421.663 414.081 421.823 414.178 421.959C414.275 422.09 414.411 422.195 414.586 422.273C414.766 422.346 414.975 422.382 415.213 422.382C415.451 422.382 415.658 422.346 415.832 422.273C416.007 422.195 416.143 422.09 416.241 421.959C416.338 421.823 416.386 421.663 416.386 421.478C416.386 421.206 416.28 420.99 416.066 420.829C415.852 420.664 415.565 420.582 415.206 420.582C414.846 420.582 414.559 420.664 414.345 420.829C414.137 420.99 414.032 421.206 414.032 421.478ZM414.171 419.102C414.171 419.34 414.263 419.532 414.448 419.678C414.637 419.819 414.89 419.889 415.206 419.889C415.521 419.889 415.772 419.819 415.956 419.678C416.141 419.537 416.233 419.347 416.233 419.109C416.233 418.871 416.141 418.684 415.956 418.548C415.772 418.407 415.521 418.337 415.206 418.337C414.89 418.337 414.637 418.407 414.448 418.548C414.263 418.684 414.171 418.869 414.171 419.102ZM419.637 423.111C419.272 423.111 418.951 423.038 418.674 422.892C418.402 422.746 418.191 422.542 418.04 422.28C417.894 422.013 417.822 421.702 417.822 421.347H418.631C418.631 421.668 418.721 421.92 418.9 422.105C419.085 422.285 419.335 422.375 419.651 422.375C419.875 422.375 420.067 422.329 420.227 422.236C420.392 422.144 420.521 422.015 420.613 421.85C420.706 421.68 420.752 421.481 420.752 421.252C420.752 421.033 420.708 420.842 420.621 420.676C420.533 420.511 420.409 420.382 420.249 420.29C420.088 420.193 419.892 420.144 419.658 420.144C419.449 420.144 419.253 420.19 419.068 420.283C418.883 420.375 418.738 420.494 418.631 420.64L417.916 420.472L418.565 417.724H421.269V418.482H418.915L419.236 418.191L418.776 420.02L418.499 420.108C418.626 419.894 418.806 419.731 419.039 419.619C419.272 419.503 419.534 419.444 419.826 419.444C420.181 419.444 420.489 419.52 420.752 419.67C421.019 419.821 421.226 420.03 421.371 420.297C421.517 420.565 421.59 420.871 421.59 421.216C421.59 421.59 421.507 421.92 421.342 422.207C421.177 422.489 420.949 422.71 420.657 422.87C420.365 423.031 420.025 423.111 419.637 423.111ZM423.979 423.111C423.614 423.111 423.294 423.038 423.017 422.892C422.744 422.746 422.533 422.542 422.382 422.28C422.237 422.013 422.164 421.702 422.164 421.347H422.973C422.973 421.668 423.063 421.92 423.242 422.105C423.427 422.285 423.677 422.375 423.993 422.375C424.217 422.375 424.409 422.329 424.569 422.236C424.734 422.144 424.863 422.015 424.955 421.85C425.048 421.68 425.094 421.481 425.094 421.252C425.094 421.033 425.05 420.842 424.963 420.676C424.875 420.511 424.751 420.382 424.591 420.29C424.431 420.193 424.234 420.144 424.001 420.144C423.792 420.144 423.595 420.19 423.41 420.283C423.225 420.375 423.08 420.494 422.973 420.64L422.258 420.472L422.907 417.724H425.611V418.482H423.257L423.578 418.191L423.119 420.02L422.842 420.108C422.968 419.894 423.148 419.731 423.381 419.619C423.614 419.503 423.877 419.444 424.168 419.444C424.523 419.444 424.832 419.52 425.094 419.67C425.361 419.821 425.568 420.03 425.714 420.297C425.859 420.565 425.932 420.871 425.932 421.216C425.932 421.59 425.85 421.92 425.684 422.207C425.519 422.489 425.291 422.71 424.999 422.87C424.708 423.031 424.367 423.111 423.979 423.111ZM427.078 423.111C426.922 423.111 426.789 423.057 426.677 422.951C426.57 422.844 426.516 422.717 426.516 422.572C426.516 422.416 426.57 422.285 426.677 422.178C426.789 422.071 426.922 422.018 427.078 422.018C427.228 422.018 427.357 422.071 427.464 422.178C427.576 422.285 427.632 422.416 427.632 422.572C427.632 422.717 427.576 422.844 427.464 422.951C427.357 423.057 427.228 423.111 427.078 423.111ZM432.065 423.016L428.442 423.023V422.397L430.162 420.931C430.362 420.766 430.527 420.616 430.658 420.48C430.789 420.343 430.894 420.217 430.972 420.1C431.049 419.984 431.105 419.867 431.139 419.751C431.173 419.629 431.19 419.503 431.19 419.372C431.19 419.056 431.105 418.81 430.935 418.635C430.77 418.456 430.539 418.366 430.243 418.366C429.932 418.366 429.684 418.47 429.499 418.679C429.319 418.883 429.225 419.165 429.215 419.525H428.398C428.403 419.141 428.484 418.808 428.639 418.526C428.795 418.239 429.008 418.018 429.28 417.863C429.557 417.707 429.878 417.629 430.243 417.629C430.612 417.629 430.928 417.697 431.19 417.834C431.458 417.97 431.664 418.164 431.81 418.417C431.956 418.669 432.028 418.971 432.028 419.321C432.028 419.505 432.004 419.683 431.956 419.853C431.907 420.018 431.832 420.181 431.73 420.341C431.628 420.501 431.496 420.667 431.336 420.837C431.181 421.002 430.991 421.179 430.767 421.369L429.434 422.513L429.149 422.251H432.065V423.016ZM435.967 417.724V423.023H435.18V417.724H435.967ZM432.469 421.259L434.918 417.724H435.792L433.314 421.31L432.469 421.259ZM436.602 421.988H432.469V421.259H436.602V421.988ZM439.46 421.114V417.724H440.283V421.063C440.283 421.466 440.39 421.775 440.604 421.988C440.818 422.202 441.124 422.309 441.523 422.309C441.916 422.309 442.22 422.202 442.434 421.988C442.648 421.77 442.754 421.461 442.754 421.063V417.724H443.578V421.114C443.578 421.522 443.495 421.877 443.33 422.178C443.165 422.474 442.927 422.705 442.616 422.87C442.31 423.031 441.945 423.111 441.523 423.111C441.1 423.111 440.733 423.031 440.422 422.87C440.116 422.71 439.878 422.479 439.708 422.178C439.542 421.877 439.46 421.522 439.46 421.114ZM444.436 419.175C444.436 418.869 444.514 418.601 444.669 418.373C444.83 418.14 445.048 417.957 445.325 417.826C445.607 417.695 445.93 417.629 446.295 417.629C446.645 417.629 446.948 417.69 447.206 417.812C447.463 417.933 447.665 418.108 447.811 418.337C447.957 418.565 448.037 418.835 448.051 419.146H447.221C447.206 418.898 447.116 418.706 446.951 418.57C446.786 418.434 446.564 418.366 446.288 418.366C445.977 418.366 445.726 418.436 445.537 418.577C445.352 418.718 445.26 418.91 445.26 419.153C445.26 419.352 445.316 419.512 445.427 419.634C445.544 419.755 445.719 419.843 445.952 419.896L446.812 420.093C447.255 420.19 447.585 420.358 447.804 420.596C448.027 420.829 448.139 421.138 448.139 421.522C448.139 421.843 448.059 422.124 447.898 422.367C447.743 422.606 447.522 422.79 447.235 422.921C446.948 423.053 446.613 423.118 446.229 423.118C445.865 423.118 445.544 423.057 445.267 422.936C444.99 422.81 444.774 422.632 444.618 422.404C444.463 422.175 444.38 421.908 444.37 421.602H445.194C445.204 421.84 445.301 422.03 445.486 422.171C445.67 422.307 445.921 422.375 446.236 422.375C446.567 422.375 446.829 422.304 447.024 422.163C447.218 422.022 447.315 421.833 447.315 421.595C447.315 421.396 447.259 421.238 447.148 421.121C447.041 420.999 446.871 420.912 446.637 420.859L445.785 420.669C445.342 420.572 445.007 420.399 444.779 420.152C444.55 419.899 444.436 419.573 444.436 419.175ZM450.829 423.023H449.006V417.724H450.792C451.317 417.724 451.779 417.836 452.177 418.06C452.576 418.283 452.884 418.594 453.103 418.993C453.326 419.391 453.438 419.855 453.438 420.385C453.438 420.905 453.329 421.364 453.11 421.762C452.891 422.156 452.585 422.465 452.192 422.688C451.803 422.912 451.349 423.023 450.829 423.023ZM449.83 418.103V422.652L449.436 422.265H450.763C451.137 422.265 451.458 422.19 451.725 422.039C451.997 421.884 452.206 421.665 452.352 421.383C452.503 421.102 452.578 420.769 452.578 420.385C452.578 419.991 452.503 419.653 452.352 419.372C452.201 419.085 451.988 418.866 451.711 418.716C451.438 418.56 451.11 418.482 450.726 418.482H449.436L449.83 418.103Z" fill="#ACB2B5"/>
<rect x="200.775" y="391.479" width="263.867" height="38.6325" rx="6.19578" stroke="white" stroke-opacity="0.12" stroke-width="0.728916"/>
<rect x="80.8672" y="459.632" width="121" height="8.01807" rx="4.00904" fill="#DAFFEE" fill-opacity="0.06"/>
<rect x="418.355" y="459.632" width="63.4157" height="8.01807" rx="4.00904" fill="#4CF3A8" fill-opacity="0.12"/>
<line x1="80.8672" y1="475.486" x2="481.771" y2="475.486" stroke="white" stroke-opacity="0.12" stroke-width="0.364458"/>
<rect x="80.8672" y="483.687" width="61.2289" height="8.01807" rx="4.00904" fill="#DAFFEE" fill-opacity="0.06"/>
<rect x="441.681" y="483.687" width="40.0904" height="8.01807" rx="4.00904" fill="#4CF3A8" fill-opacity="0.12"/>
<line x1="80.8672" y1="499.54" x2="481.771" y2="499.54" stroke="white" stroke-opacity="0.12" stroke-width="0.364458"/>
<rect x="80.8672" y="507.74" width="91.8434" height="8.01807" rx="4.00904" fill="#DAFFEE" fill-opacity="0.06"/>
<rect x="418.355" y="507.74" width="63.4157" height="8.01807" rx="4.00904" fill="#4CF3A8" fill-opacity="0.12"/>
<line x1="80.8672" y1="523.594" x2="481.771" y2="523.594" stroke="white" stroke-opacity="0.12" stroke-width="0.364458"/>
<rect x="80.8672" y="531.795" width="150.886" height="8.01807" rx="4.00904" fill="#DAFFEE" fill-opacity="0.06"/>
<rect x="393.572" y="531.795" width="88.1988" height="8.01807" rx="4.00904" fill="#4CF3A8" fill-opacity="0.12"/>
<line x1="80.8672" y1="547.649" x2="481.771" y2="547.649" stroke="white" stroke-opacity="0.12" stroke-width="0.364458"/>
<rect x="80.8672" y="555.849" width="56.1265" height="8.01807" rx="4.00904" fill="#DAFFEE" fill-opacity="0.06"/>
<rect x="444.596" y="555.849" width="37.1747" height="8.01807" rx="4.00904" fill="#4CF3A8" fill-opacity="0.12"/>
<circle cx="468.65" cy="186.344" r="14.8232" fill="white" fill-opacity="0.06"/>
<path d="M475.983 182.988H474.121C473.974 182.484 473.667 182.041 473.246 181.726C472.825 181.411 472.314 181.241 471.789 181.241C471.263 181.241 470.752 181.411 470.331 181.726C469.911 182.041 469.604 182.484 469.456 182.988H460.603C460.418 182.988 460.24 183.062 460.109 183.193C459.978 183.324 459.904 183.501 459.904 183.687C459.904 183.872 459.978 184.05 460.109 184.181C460.24 184.312 460.418 184.385 460.603 184.385H469.456C469.604 184.889 469.911 185.332 470.331 185.647C470.752 185.962 471.263 186.132 471.789 186.132C472.314 186.132 472.825 185.962 473.246 185.647C473.667 185.332 473.974 184.889 474.121 184.385H475.983C476.168 184.385 476.346 184.312 476.477 184.181C476.608 184.05 476.682 183.872 476.682 183.687C476.682 183.501 476.608 183.324 476.477 183.193C476.346 183.062 476.168 182.988 475.983 182.988V182.988ZM471.789 184.735C471.581 184.735 471.379 184.673 471.206 184.558C471.034 184.443 470.899 184.279 470.82 184.088C470.741 183.896 470.72 183.685 470.76 183.482C470.801 183.279 470.901 183.092 471.047 182.945C471.194 182.799 471.381 182.699 471.584 182.658C471.788 182.618 471.998 182.639 472.19 182.718C472.382 182.797 472.545 182.932 472.661 183.104C472.776 183.277 472.837 183.479 472.837 183.687C472.837 183.964 472.726 184.231 472.53 184.427C472.333 184.624 472.067 184.734 471.789 184.735V184.735Z" fill="#9EA9B1"/>
<path d="M475.982 188.578H467.129C466.981 188.074 466.674 187.631 466.254 187.316C465.833 187.001 465.322 186.831 464.796 186.831C464.271 186.831 463.76 187.001 463.339 187.316C462.919 187.631 462.611 188.074 462.464 188.578H460.602C460.42 188.583 460.248 188.659 460.121 188.79C459.995 188.92 459.924 189.095 459.924 189.277C459.924 189.458 459.995 189.633 460.121 189.764C460.248 189.894 460.42 189.97 460.602 189.976H462.464C462.611 190.48 462.919 190.922 463.339 191.237C463.76 191.552 464.271 191.722 464.796 191.722C465.322 191.722 465.833 191.552 466.254 191.237C466.674 190.922 466.981 190.48 467.129 189.976H475.982C476.164 189.97 476.336 189.894 476.463 189.764C476.589 189.633 476.66 189.458 476.66 189.277C476.66 189.095 476.589 188.92 476.463 188.79C476.336 188.659 476.164 188.583 475.982 188.578V188.578ZM464.796 190.325C464.589 190.325 464.386 190.264 464.214 190.149C464.041 190.033 463.907 189.87 463.828 189.678C463.748 189.487 463.728 189.276 463.768 189.073C463.808 188.869 463.908 188.682 464.055 188.536C464.202 188.389 464.388 188.289 464.592 188.249C464.795 188.208 465.006 188.229 465.198 188.309C465.389 188.388 465.553 188.522 465.668 188.695C465.784 188.867 465.845 189.07 465.845 189.277C465.845 189.555 465.734 189.821 465.538 190.018C465.341 190.214 465.074 190.325 464.796 190.325V190.325Z" fill="#9EA9B1"/>
</g>
<rect x="59.4481" y="155.448" width="443.742" height="483.104" rx="17.4778" stroke="white" stroke-opacity="0.06" stroke-width="0.896296"/>
</g>
</g>
<defs>
<filter id="filter0_d_626_4121" x="-5.22963" y="150.77" width="527.098" height="566.459" filterUnits="userSpaceOnUse" color-interpolation-filters="sRGB">
<feFlood flood-opacity="0" result="BackgroundImageFix"/>
<feColorMatrix in="SourceAlpha" type="matrix" values="0 0 0 0 0 0 0 0 0 0 0 0 0 0 0 0 0 0 127 0" result="hardAlpha"/>
<feOffset dx="-23" dy="37"/>
<feGaussianBlur stdDeviation="20.6148"/>
<feComposite in2="hardAlpha" operator="out"/>
<feColorMatrix type="matrix" values="0 0 0 0 0 0 0 0 0 0 0 0 0 0 0 0 0 0 0.26 0"/>
<feBlend mode="normal" in2="BackgroundImageFix" result="effect1_dropShadow_626_4121"/>
<feBlend mode="normal" in="SourceGraphic" in2="effect1_dropShadow_626_4121" result="shape"/>
</filter>
<linearGradient id="paint0_linear_626_4121" x1="281.5" y1="326.305" x2="281.5" y2="560.53" gradientUnits="userSpaceOnUse">
<stop/>
<stop offset="1" stop-color="#D9D9D9" stop-opacity="0"/>
</linearGradient>
<linearGradient id="paint1_linear_626_4121" x1="281.319" y1="155" x2="281.319" y2="639" gradientUnits="userSpaceOnUse">
<stop stop-color="#1C2527"/>
<stop offset="0.8073" stop-color="#14161A"/>
<stop offset="1" stop-color="#121316"/>
</linearGradient>
<linearGradient id="paint2_linear_626_4121" x1="85.074" y1="159.702" x2="218.8" y2="159.702" gradientUnits="userSpaceOnUse">
<stop stop-color="#FFCE4F"/>
<stop offset="1" stop-color="#4FFFB0"/>
</linearGradient>
<linearGradient id="paint3_linear_626_4121" x1="85.074" y1="159.702" x2="218.8" y2="159.702" gradientUnits="userSpaceOnUse">
<stop stop-color="#4FFFB0"/>
<stop offset="0.505223" stop-color="#A2FF76"/>
<stop offset="1" stop-color="#FF984E"/>
</linearGradient>
<linearGradient id="paint4_linear_626_4121" x1="85.074" y1="159.702" x2="218.8" y2="159.702" gradientUnits="userSpaceOnUse">
<stop stop-color="#4FFFB0"/>
<stop offset="0.463556" stop-color="#B3FF8F"/>
<stop offset="1" stop-color="#FF984E"/>
</linearGradient>
<linearGradient id="paint5_linear_626_4121" x1="143.633" y1="415.293" x2="121.404" y2="389.284" gradientUnits="userSpaceOnUse">
<stop stop-color="#E40C5B"/>
<stop offset="1" stop-color="#FF4C3B"/>
</linearGradient>
<clipPath id="clip0_626_4121">
<rect x="59" y="155" width="444.639" height="484" rx="17.9259" fill="white"/>
</clipPath>
<clipPath id="clip1_626_4121">
<rect width="29" height="11" fill="white" transform="translate(133.35 275.603)"/>
</clipPath>
<clipPath id="clip2_626_4121">
<rect x="99.8193" y="396.216" width="29.1566" height="29.1566" rx="14.5783" fill="white"/>
</clipPath>
<clipPath id="clip3_626_4121">
<rect width="27" height="11" fill="white" transform="translate(133.35 412.19)"/>
</clipPath>
</defs>
</svg>
