<svg width="528" height="568" viewBox="0 0 528 568" fill="none" xmlns="http://www.w3.org/2000/svg">
<g filter="url(#filter0_d_606_5134)">
<g clip-path="url(#clip0_606_5134)">
<rect x="65" y="5" width="444.639" height="484" rx="17.9259" fill="url(#paint0_linear_606_5134)"/>
<path d="M97.674 29.7757V45.9517H94.962V29.7757H97.674ZM89.802 30.9997V28.5037H102.858V30.9997H89.802ZM110.456 34.0957V36.4717H109.424C108.352 36.4717 107.504 36.7677 106.88 37.3597C106.272 37.9517 105.968 38.8237 105.968 39.9757V45.9517H103.4V34.1677H105.824L106.04 36.5917H105.8C105.96 35.8077 106.336 35.1677 106.928 34.6717C107.52 34.1757 108.288 33.9277 109.232 33.9277C109.424 33.9277 109.616 33.9437 109.808 33.9757C110.016 33.9917 110.232 34.0317 110.456 34.0957ZM115.505 46.2637C114.257 46.2637 113.273 45.9277 112.553 45.2557C111.849 44.5837 111.497 43.7117 111.497 42.6397C111.497 41.5517 111.873 40.6877 112.625 40.0477C113.393 39.3917 114.473 39.0077 115.865 38.8957L119.489 38.6077V38.3197C119.489 37.7117 119.377 37.2317 119.153 36.8797C118.929 36.5117 118.625 36.2477 118.241 36.0877C117.857 35.9277 117.409 35.8477 116.897 35.8477C115.985 35.8477 115.281 36.0317 114.785 36.3997C114.289 36.7677 114.041 37.2877 114.041 37.9597H111.833C111.833 37.1117 112.041 36.3837 112.457 35.7757C112.889 35.1517 113.497 34.6717 114.281 34.3357C115.065 33.9837 115.977 33.8077 117.017 33.8077C118.041 33.8077 118.921 33.9917 119.657 34.3597C120.409 34.7117 120.985 35.2477 121.385 35.9677C121.801 36.6877 122.009 37.5917 122.009 38.6797V45.9517H119.777L119.537 44.1277C119.265 44.7677 118.761 45.2877 118.025 45.6877C117.289 46.0717 116.449 46.2637 115.505 46.2637ZM116.321 44.2717C117.297 44.2717 118.073 43.9837 118.649 43.4077C119.225 42.8157 119.513 42.0237 119.513 41.0317V40.3837L116.777 40.6237C115.817 40.7037 115.129 40.9117 114.713 41.2477C114.313 41.5837 114.113 42.0077 114.113 42.5197C114.113 43.1117 114.305 43.5517 114.689 43.8397C115.073 44.1277 115.617 44.2717 116.321 44.2717ZM129.809 46.2637C128.673 46.2637 127.689 45.9997 126.857 45.4717C126.041 44.9437 125.409 44.2237 124.961 43.3117C124.513 42.3837 124.289 41.3117 124.289 40.0957C124.289 38.8797 124.513 37.7997 124.961 36.8557C125.409 35.9117 126.057 35.1677 126.905 34.6237C127.753 34.0797 128.769 33.8077 129.953 33.8077C130.817 33.8077 131.593 33.9837 132.281 34.3357C132.985 34.6877 133.529 35.1997 133.913 35.8717V28.1917H136.505V45.9517H134.129L133.961 43.9597C133.593 44.6957 133.033 45.2637 132.281 45.6637C131.545 46.0637 130.721 46.2637 129.809 46.2637ZM130.361 43.8877C131.097 43.8877 131.721 43.7277 132.233 43.4077C132.761 43.0717 133.169 42.6157 133.457 42.0397C133.745 41.4477 133.889 40.7757 133.889 40.0237C133.889 39.2557 133.745 38.5837 133.457 38.0077C133.169 37.4157 132.761 36.9597 132.233 36.6397C131.721 36.3037 131.097 36.1357 130.361 36.1357C129.641 36.1357 129.017 36.3037 128.489 36.6397C127.977 36.9757 127.577 37.4317 127.289 38.0077C127.017 38.5837 126.881 39.2557 126.881 40.0237C126.881 40.7757 127.017 41.4477 127.289 42.0397C127.577 42.6157 127.977 43.0717 128.489 43.4077C129.017 43.7277 129.641 43.8877 130.361 43.8877ZM144.842 46.2637C143.674 46.2637 142.642 45.9997 141.746 45.4717C140.866 44.9437 140.17 44.2157 139.658 43.2877C139.162 42.3437 138.914 41.2637 138.914 40.0477C138.914 38.8157 139.154 37.7357 139.634 36.8077C140.13 35.8797 140.818 35.1517 141.698 34.6237C142.578 34.0797 143.594 33.8077 144.746 33.8077C145.898 33.8077 146.89 34.0557 147.722 34.5517C148.57 35.0317 149.226 35.7197 149.69 36.6157C150.17 37.4957 150.41 38.5357 150.41 39.7357V40.5997L140.282 40.6237L140.33 38.9437H147.818C147.818 38.0317 147.538 37.3117 146.978 36.7837C146.434 36.2397 145.69 35.9677 144.746 35.9677C144.026 35.9677 143.41 36.1197 142.898 36.4237C142.402 36.7277 142.018 37.1837 141.746 37.7917C141.49 38.3837 141.362 39.1117 141.362 39.9757C141.362 41.3197 141.658 42.3437 142.25 43.0477C142.858 43.7517 143.738 44.1037 144.89 44.1037C145.722 44.1037 146.41 43.9437 146.954 43.6237C147.498 43.3037 147.85 42.8317 148.01 42.2077H150.434C150.162 43.4717 149.53 44.4637 148.538 45.1837C147.562 45.9037 146.33 46.2637 144.842 46.2637ZM166.041 29.7757V45.9517H163.329V29.7757H166.041ZM158.169 30.9997V28.5037H171.225V30.9997H158.169ZM170.508 40.0477C170.508 38.8157 170.772 37.7357 171.3 36.8077C171.844 35.8797 172.588 35.1517 173.532 34.6237C174.476 34.0957 175.548 33.8317 176.748 33.8317C177.948 33.8317 179.012 34.0957 179.94 34.6237C180.868 35.1517 181.604 35.8797 182.148 36.8077C182.692 37.7357 182.964 38.8157 182.964 40.0477C182.964 41.2637 182.692 42.3357 182.148 43.2637C181.604 44.1917 180.868 44.9197 179.94 45.4477C179.012 45.9757 177.948 46.2397 176.748 46.2397C175.548 46.2397 174.476 45.9757 173.532 45.4477C172.588 44.9197 171.844 44.1917 171.3 43.2637C170.772 42.3357 170.508 41.2637 170.508 40.0477ZM173.1 40.0237C173.1 40.7917 173.252 41.4717 173.556 42.0637C173.876 42.6397 174.308 43.0957 174.852 43.4317C175.396 43.7517 176.028 43.9117 176.748 43.9117C177.452 43.9117 178.076 43.7517 178.62 43.4317C179.164 43.0957 179.588 42.6397 179.892 42.0637C180.196 41.4717 180.348 40.7917 180.348 40.0237C180.348 39.2557 180.196 38.5837 179.892 38.0077C179.588 37.4317 179.164 36.9837 178.62 36.6637C178.076 36.3277 177.452 36.1597 176.748 36.1597C176.028 36.1597 175.396 36.3277 174.852 36.6637C174.308 36.9837 173.876 37.4317 173.556 38.0077C173.252 38.5837 173.1 39.2557 173.1 40.0237ZM187.977 45.9517H185.385V28.1917H187.977V39.3997L192.897 34.1677H196.137L191.649 38.8477L196.065 45.9517H193.089L189.849 40.7437L187.977 42.6877V45.9517ZM202.592 46.2637C201.424 46.2637 200.392 45.9997 199.496 45.4717C198.616 44.9437 197.92 44.2157 197.408 43.2877C196.912 42.3437 196.664 41.2637 196.664 40.0477C196.664 38.8157 196.904 37.7357 197.384 36.8077C197.88 35.8797 198.568 35.1517 199.448 34.6237C200.328 34.0797 201.344 33.8077 202.496 33.8077C203.648 33.8077 204.64 34.0557 205.472 34.5517C206.32 35.0317 206.976 35.7197 207.44 36.6157C207.92 37.4957 208.16 38.5357 208.16 39.7357V40.5997L198.032 40.6237L198.08 38.9437H205.568C205.568 38.0317 205.288 37.3117 204.728 36.7837C204.184 36.2397 203.44 35.9677 202.496 35.9677C201.776 35.9677 201.16 36.1197 200.648 36.4237C200.152 36.7277 199.768 37.1837 199.496 37.7917C199.24 38.3837 199.112 39.1117 199.112 39.9757C199.112 41.3197 199.408 42.3437 200 43.0477C200.608 43.7517 201.488 44.1037 202.64 44.1037C203.472 44.1037 204.16 43.9437 204.704 43.6237C205.248 43.3037 205.6 42.8317 205.76 42.2077H208.184C207.912 43.4717 207.28 44.4637 206.288 45.1837C205.312 45.9037 204.08 46.2637 202.592 46.2637ZM213.172 45.9517H210.604V34.1677H212.956L213.196 35.8237C213.58 35.1837 214.108 34.6877 214.78 34.3357C215.468 33.9837 216.228 33.8077 217.06 33.8077C218.564 33.8077 219.684 34.2477 220.42 35.1277C221.172 36.0077 221.548 37.1997 221.548 38.7037V45.9517H218.98V39.3037C218.98 38.2317 218.732 37.4397 218.236 36.9277C217.756 36.4157 217.108 36.1597 216.292 36.1597C215.316 36.1597 214.548 36.4797 213.988 37.1197C213.444 37.7437 213.172 38.5837 213.172 39.6397V45.9517ZM223.496 42.4477H225.944C225.96 43.0077 226.168 43.4477 226.568 43.7677C226.968 44.0877 227.52 44.2477 228.224 44.2477C228.96 44.2477 229.528 44.1037 229.928 43.8157C230.328 43.5277 230.528 43.1517 230.528 42.6877C230.528 42.3357 230.424 42.0477 230.216 41.8237C230.008 41.5837 229.616 41.3917 229.04 41.2477L226.928 40.7677C225.888 40.5117 225.104 40.1197 224.576 39.5917C224.064 39.0637 223.808 38.3437 223.808 37.4317C223.808 36.6797 224 36.0397 224.384 35.5117C224.784 34.9677 225.328 34.5517 226.016 34.2637C226.704 33.9597 227.488 33.8077 228.368 33.8077C229.248 33.8077 230.016 33.9677 230.672 34.2877C231.328 34.5917 231.84 35.0237 232.208 35.5837C232.576 36.1437 232.76 36.8077 232.76 37.5757H230.312C230.296 37.0157 230.112 36.5757 229.76 36.2557C229.408 35.9357 228.912 35.7757 228.272 35.7757C227.648 35.7757 227.16 35.9197 226.808 36.2077C226.456 36.4797 226.28 36.8557 226.28 37.3357C226.28 38.0557 226.816 38.5517 227.888 38.8237L230 39.3037C230.992 39.5277 231.736 39.8957 232.232 40.4077C232.728 40.9037 232.976 41.5997 232.976 42.4957C232.976 43.2477 232.768 43.9117 232.352 44.4877C231.952 45.0637 231.392 45.5037 230.672 45.8077C229.952 46.1117 229.112 46.2637 228.152 46.2637C226.728 46.2637 225.592 45.9117 224.744 45.2077C223.912 44.5037 223.496 43.5837 223.496 42.4477Z" fill="url(#paint1_linear_606_5134)"/>
<path d="M97.674 29.7757V45.9517H94.962V29.7757H97.674ZM89.802 30.9997V28.5037H102.858V30.9997H89.802ZM110.456 34.0957V36.4717H109.424C108.352 36.4717 107.504 36.7677 106.88 37.3597C106.272 37.9517 105.968 38.8237 105.968 39.9757V45.9517H103.4V34.1677H105.824L106.04 36.5917H105.8C105.96 35.8077 106.336 35.1677 106.928 34.6717C107.52 34.1757 108.288 33.9277 109.232 33.9277C109.424 33.9277 109.616 33.9437 109.808 33.9757C110.016 33.9917 110.232 34.0317 110.456 34.0957ZM115.505 46.2637C114.257 46.2637 113.273 45.9277 112.553 45.2557C111.849 44.5837 111.497 43.7117 111.497 42.6397C111.497 41.5517 111.873 40.6877 112.625 40.0477C113.393 39.3917 114.473 39.0077 115.865 38.8957L119.489 38.6077V38.3197C119.489 37.7117 119.377 37.2317 119.153 36.8797C118.929 36.5117 118.625 36.2477 118.241 36.0877C117.857 35.9277 117.409 35.8477 116.897 35.8477C115.985 35.8477 115.281 36.0317 114.785 36.3997C114.289 36.7677 114.041 37.2877 114.041 37.9597H111.833C111.833 37.1117 112.041 36.3837 112.457 35.7757C112.889 35.1517 113.497 34.6717 114.281 34.3357C115.065 33.9837 115.977 33.8077 117.017 33.8077C118.041 33.8077 118.921 33.9917 119.657 34.3597C120.409 34.7117 120.985 35.2477 121.385 35.9677C121.801 36.6877 122.009 37.5917 122.009 38.6797V45.9517H119.777L119.537 44.1277C119.265 44.7677 118.761 45.2877 118.025 45.6877C117.289 46.0717 116.449 46.2637 115.505 46.2637ZM116.321 44.2717C117.297 44.2717 118.073 43.9837 118.649 43.4077C119.225 42.8157 119.513 42.0237 119.513 41.0317V40.3837L116.777 40.6237C115.817 40.7037 115.129 40.9117 114.713 41.2477C114.313 41.5837 114.113 42.0077 114.113 42.5197C114.113 43.1117 114.305 43.5517 114.689 43.8397C115.073 44.1277 115.617 44.2717 116.321 44.2717ZM129.809 46.2637C128.673 46.2637 127.689 45.9997 126.857 45.4717C126.041 44.9437 125.409 44.2237 124.961 43.3117C124.513 42.3837 124.289 41.3117 124.289 40.0957C124.289 38.8797 124.513 37.7997 124.961 36.8557C125.409 35.9117 126.057 35.1677 126.905 34.6237C127.753 34.0797 128.769 33.8077 129.953 33.8077C130.817 33.8077 131.593 33.9837 132.281 34.3357C132.985 34.6877 133.529 35.1997 133.913 35.8717V28.1917H136.505V45.9517H134.129L133.961 43.9597C133.593 44.6957 133.033 45.2637 132.281 45.6637C131.545 46.0637 130.721 46.2637 129.809 46.2637ZM130.361 43.8877C131.097 43.8877 131.721 43.7277 132.233 43.4077C132.761 43.0717 133.169 42.6157 133.457 42.0397C133.745 41.4477 133.889 40.7757 133.889 40.0237C133.889 39.2557 133.745 38.5837 133.457 38.0077C133.169 37.4157 132.761 36.9597 132.233 36.6397C131.721 36.3037 131.097 36.1357 130.361 36.1357C129.641 36.1357 129.017 36.3037 128.489 36.6397C127.977 36.9757 127.577 37.4317 127.289 38.0077C127.017 38.5837 126.881 39.2557 126.881 40.0237C126.881 40.7757 127.017 41.4477 127.289 42.0397C127.577 42.6157 127.977 43.0717 128.489 43.4077C129.017 43.7277 129.641 43.8877 130.361 43.8877ZM144.842 46.2637C143.674 46.2637 142.642 45.9997 141.746 45.4717C140.866 44.9437 140.17 44.2157 139.658 43.2877C139.162 42.3437 138.914 41.2637 138.914 40.0477C138.914 38.8157 139.154 37.7357 139.634 36.8077C140.13 35.8797 140.818 35.1517 141.698 34.6237C142.578 34.0797 143.594 33.8077 144.746 33.8077C145.898 33.8077 146.89 34.0557 147.722 34.5517C148.57 35.0317 149.226 35.7197 149.69 36.6157C150.17 37.4957 150.41 38.5357 150.41 39.7357V40.5997L140.282 40.6237L140.33 38.9437H147.818C147.818 38.0317 147.538 37.3117 146.978 36.7837C146.434 36.2397 145.69 35.9677 144.746 35.9677C144.026 35.9677 143.41 36.1197 142.898 36.4237C142.402 36.7277 142.018 37.1837 141.746 37.7917C141.49 38.3837 141.362 39.1117 141.362 39.9757C141.362 41.3197 141.658 42.3437 142.25 43.0477C142.858 43.7517 143.738 44.1037 144.89 44.1037C145.722 44.1037 146.41 43.9437 146.954 43.6237C147.498 43.3037 147.85 42.8317 148.01 42.2077H150.434C150.162 43.4717 149.53 44.4637 148.538 45.1837C147.562 45.9037 146.33 46.2637 144.842 46.2637ZM166.041 29.7757V45.9517H163.329V29.7757H166.041ZM158.169 30.9997V28.5037H171.225V30.9997H158.169ZM170.508 40.0477C170.508 38.8157 170.772 37.7357 171.3 36.8077C171.844 35.8797 172.588 35.1517 173.532 34.6237C174.476 34.0957 175.548 33.8317 176.748 33.8317C177.948 33.8317 179.012 34.0957 179.94 34.6237C180.868 35.1517 181.604 35.8797 182.148 36.8077C182.692 37.7357 182.964 38.8157 182.964 40.0477C182.964 41.2637 182.692 42.3357 182.148 43.2637C181.604 44.1917 180.868 44.9197 179.94 45.4477C179.012 45.9757 177.948 46.2397 176.748 46.2397C175.548 46.2397 174.476 45.9757 173.532 45.4477C172.588 44.9197 171.844 44.1917 171.3 43.2637C170.772 42.3357 170.508 41.2637 170.508 40.0477ZM173.1 40.0237C173.1 40.7917 173.252 41.4717 173.556 42.0637C173.876 42.6397 174.308 43.0957 174.852 43.4317C175.396 43.7517 176.028 43.9117 176.748 43.9117C177.452 43.9117 178.076 43.7517 178.62 43.4317C179.164 43.0957 179.588 42.6397 179.892 42.0637C180.196 41.4717 180.348 40.7917 180.348 40.0237C180.348 39.2557 180.196 38.5837 179.892 38.0077C179.588 37.4317 179.164 36.9837 178.62 36.6637C178.076 36.3277 177.452 36.1597 176.748 36.1597C176.028 36.1597 175.396 36.3277 174.852 36.6637C174.308 36.9837 173.876 37.4317 173.556 38.0077C173.252 38.5837 173.1 39.2557 173.1 40.0237ZM187.977 45.9517H185.385V28.1917H187.977V39.3997L192.897 34.1677H196.137L191.649 38.8477L196.065 45.9517H193.089L189.849 40.7437L187.977 42.6877V45.9517ZM202.592 46.2637C201.424 46.2637 200.392 45.9997 199.496 45.4717C198.616 44.9437 197.92 44.2157 197.408 43.2877C196.912 42.3437 196.664 41.2637 196.664 40.0477C196.664 38.8157 196.904 37.7357 197.384 36.8077C197.88 35.8797 198.568 35.1517 199.448 34.6237C200.328 34.0797 201.344 33.8077 202.496 33.8077C203.648 33.8077 204.64 34.0557 205.472 34.5517C206.32 35.0317 206.976 35.7197 207.44 36.6157C207.92 37.4957 208.16 38.5357 208.16 39.7357V40.5997L198.032 40.6237L198.08 38.9437H205.568C205.568 38.0317 205.288 37.3117 204.728 36.7837C204.184 36.2397 203.44 35.9677 202.496 35.9677C201.776 35.9677 201.16 36.1197 200.648 36.4237C200.152 36.7277 199.768 37.1837 199.496 37.7917C199.24 38.3837 199.112 39.1117 199.112 39.9757C199.112 41.3197 199.408 42.3437 200 43.0477C200.608 43.7517 201.488 44.1037 202.64 44.1037C203.472 44.1037 204.16 43.9437 204.704 43.6237C205.248 43.3037 205.6 42.8317 205.76 42.2077H208.184C207.912 43.4717 207.28 44.4637 206.288 45.1837C205.312 45.9037 204.08 46.2637 202.592 46.2637ZM213.172 45.9517H210.604V34.1677H212.956L213.196 35.8237C213.58 35.1837 214.108 34.6877 214.78 34.3357C215.468 33.9837 216.228 33.8077 217.06 33.8077C218.564 33.8077 219.684 34.2477 220.42 35.1277C221.172 36.0077 221.548 37.1997 221.548 38.7037V45.9517H218.98V39.3037C218.98 38.2317 218.732 37.4397 218.236 36.9277C217.756 36.4157 217.108 36.1597 216.292 36.1597C215.316 36.1597 214.548 36.4797 213.988 37.1197C213.444 37.7437 213.172 38.5837 213.172 39.6397V45.9517ZM223.496 42.4477H225.944C225.96 43.0077 226.168 43.4477 226.568 43.7677C226.968 44.0877 227.52 44.2477 228.224 44.2477C228.96 44.2477 229.528 44.1037 229.928 43.8157C230.328 43.5277 230.528 43.1517 230.528 42.6877C230.528 42.3357 230.424 42.0477 230.216 41.8237C230.008 41.5837 229.616 41.3917 229.04 41.2477L226.928 40.7677C225.888 40.5117 225.104 40.1197 224.576 39.5917C224.064 39.0637 223.808 38.3437 223.808 37.4317C223.808 36.6797 224 36.0397 224.384 35.5117C224.784 34.9677 225.328 34.5517 226.016 34.2637C226.704 33.9597 227.488 33.8077 228.368 33.8077C229.248 33.8077 230.016 33.9677 230.672 34.2877C231.328 34.5917 231.84 35.0237 232.208 35.5837C232.576 36.1437 232.76 36.8077 232.76 37.5757H230.312C230.296 37.0157 230.112 36.5757 229.76 36.2557C229.408 35.9357 228.912 35.7757 228.272 35.7757C227.648 35.7757 227.16 35.9197 226.808 36.2077C226.456 36.4797 226.28 36.8557 226.28 37.3357C226.28 38.0557 226.816 38.5517 227.888 38.8237L230 39.3037C230.992 39.5277 231.736 39.8957 232.232 40.4077C232.728 40.9037 232.976 41.5997 232.976 42.4957C232.976 43.2477 232.768 43.9117 232.352 44.4877C231.952 45.0637 231.392 45.5037 230.672 45.8077C229.952 46.1117 229.112 46.2637 228.152 46.2637C226.728 46.2637 225.592 45.9117 224.744 45.2077C223.912 44.5037 223.496 43.5837 223.496 42.4477Z" fill="url(#paint2_linear_606_5134)"/>
<path d="M97.674 29.7757V45.9517H94.962V29.7757H97.674ZM89.802 30.9997V28.5037H102.858V30.9997H89.802ZM110.456 34.0957V36.4717H109.424C108.352 36.4717 107.504 36.7677 106.88 37.3597C106.272 37.9517 105.968 38.8237 105.968 39.9757V45.9517H103.4V34.1677H105.824L106.04 36.5917H105.8C105.96 35.8077 106.336 35.1677 106.928 34.6717C107.52 34.1757 108.288 33.9277 109.232 33.9277C109.424 33.9277 109.616 33.9437 109.808 33.9757C110.016 33.9917 110.232 34.0317 110.456 34.0957ZM115.505 46.2637C114.257 46.2637 113.273 45.9277 112.553 45.2557C111.849 44.5837 111.497 43.7117 111.497 42.6397C111.497 41.5517 111.873 40.6877 112.625 40.0477C113.393 39.3917 114.473 39.0077 115.865 38.8957L119.489 38.6077V38.3197C119.489 37.7117 119.377 37.2317 119.153 36.8797C118.929 36.5117 118.625 36.2477 118.241 36.0877C117.857 35.9277 117.409 35.8477 116.897 35.8477C115.985 35.8477 115.281 36.0317 114.785 36.3997C114.289 36.7677 114.041 37.2877 114.041 37.9597H111.833C111.833 37.1117 112.041 36.3837 112.457 35.7757C112.889 35.1517 113.497 34.6717 114.281 34.3357C115.065 33.9837 115.977 33.8077 117.017 33.8077C118.041 33.8077 118.921 33.9917 119.657 34.3597C120.409 34.7117 120.985 35.2477 121.385 35.9677C121.801 36.6877 122.009 37.5917 122.009 38.6797V45.9517H119.777L119.537 44.1277C119.265 44.7677 118.761 45.2877 118.025 45.6877C117.289 46.0717 116.449 46.2637 115.505 46.2637ZM116.321 44.2717C117.297 44.2717 118.073 43.9837 118.649 43.4077C119.225 42.8157 119.513 42.0237 119.513 41.0317V40.3837L116.777 40.6237C115.817 40.7037 115.129 40.9117 114.713 41.2477C114.313 41.5837 114.113 42.0077 114.113 42.5197C114.113 43.1117 114.305 43.5517 114.689 43.8397C115.073 44.1277 115.617 44.2717 116.321 44.2717ZM129.809 46.2637C128.673 46.2637 127.689 45.9997 126.857 45.4717C126.041 44.9437 125.409 44.2237 124.961 43.3117C124.513 42.3837 124.289 41.3117 124.289 40.0957C124.289 38.8797 124.513 37.7997 124.961 36.8557C125.409 35.9117 126.057 35.1677 126.905 34.6237C127.753 34.0797 128.769 33.8077 129.953 33.8077C130.817 33.8077 131.593 33.9837 132.281 34.3357C132.985 34.6877 133.529 35.1997 133.913 35.8717V28.1917H136.505V45.9517H134.129L133.961 43.9597C133.593 44.6957 133.033 45.2637 132.281 45.6637C131.545 46.0637 130.721 46.2637 129.809 46.2637ZM130.361 43.8877C131.097 43.8877 131.721 43.7277 132.233 43.4077C132.761 43.0717 133.169 42.6157 133.457 42.0397C133.745 41.4477 133.889 40.7757 133.889 40.0237C133.889 39.2557 133.745 38.5837 133.457 38.0077C133.169 37.4157 132.761 36.9597 132.233 36.6397C131.721 36.3037 131.097 36.1357 130.361 36.1357C129.641 36.1357 129.017 36.3037 128.489 36.6397C127.977 36.9757 127.577 37.4317 127.289 38.0077C127.017 38.5837 126.881 39.2557 126.881 40.0237C126.881 40.7757 127.017 41.4477 127.289 42.0397C127.577 42.6157 127.977 43.0717 128.489 43.4077C129.017 43.7277 129.641 43.8877 130.361 43.8877ZM144.842 46.2637C143.674 46.2637 142.642 45.9997 141.746 45.4717C140.866 44.9437 140.17 44.2157 139.658 43.2877C139.162 42.3437 138.914 41.2637 138.914 40.0477C138.914 38.8157 139.154 37.7357 139.634 36.8077C140.13 35.8797 140.818 35.1517 141.698 34.6237C142.578 34.0797 143.594 33.8077 144.746 33.8077C145.898 33.8077 146.89 34.0557 147.722 34.5517C148.57 35.0317 149.226 35.7197 149.69 36.6157C150.17 37.4957 150.41 38.5357 150.41 39.7357V40.5997L140.282 40.6237L140.33 38.9437H147.818C147.818 38.0317 147.538 37.3117 146.978 36.7837C146.434 36.2397 145.69 35.9677 144.746 35.9677C144.026 35.9677 143.41 36.1197 142.898 36.4237C142.402 36.7277 142.018 37.1837 141.746 37.7917C141.49 38.3837 141.362 39.1117 141.362 39.9757C141.362 41.3197 141.658 42.3437 142.25 43.0477C142.858 43.7517 143.738 44.1037 144.89 44.1037C145.722 44.1037 146.41 43.9437 146.954 43.6237C147.498 43.3037 147.85 42.8317 148.01 42.2077H150.434C150.162 43.4717 149.53 44.4637 148.538 45.1837C147.562 45.9037 146.33 46.2637 144.842 46.2637ZM166.041 29.7757V45.9517H163.329V29.7757H166.041ZM158.169 30.9997V28.5037H171.225V30.9997H158.169ZM170.508 40.0477C170.508 38.8157 170.772 37.7357 171.3 36.8077C171.844 35.8797 172.588 35.1517 173.532 34.6237C174.476 34.0957 175.548 33.8317 176.748 33.8317C177.948 33.8317 179.012 34.0957 179.94 34.6237C180.868 35.1517 181.604 35.8797 182.148 36.8077C182.692 37.7357 182.964 38.8157 182.964 40.0477C182.964 41.2637 182.692 42.3357 182.148 43.2637C181.604 44.1917 180.868 44.9197 179.94 45.4477C179.012 45.9757 177.948 46.2397 176.748 46.2397C175.548 46.2397 174.476 45.9757 173.532 45.4477C172.588 44.9197 171.844 44.1917 171.3 43.2637C170.772 42.3357 170.508 41.2637 170.508 40.0477ZM173.1 40.0237C173.1 40.7917 173.252 41.4717 173.556 42.0637C173.876 42.6397 174.308 43.0957 174.852 43.4317C175.396 43.7517 176.028 43.9117 176.748 43.9117C177.452 43.9117 178.076 43.7517 178.62 43.4317C179.164 43.0957 179.588 42.6397 179.892 42.0637C180.196 41.4717 180.348 40.7917 180.348 40.0237C180.348 39.2557 180.196 38.5837 179.892 38.0077C179.588 37.4317 179.164 36.9837 178.62 36.6637C178.076 36.3277 177.452 36.1597 176.748 36.1597C176.028 36.1597 175.396 36.3277 174.852 36.6637C174.308 36.9837 173.876 37.4317 173.556 38.0077C173.252 38.5837 173.1 39.2557 173.1 40.0237ZM187.977 45.9517H185.385V28.1917H187.977V39.3997L192.897 34.1677H196.137L191.649 38.8477L196.065 45.9517H193.089L189.849 40.7437L187.977 42.6877V45.9517ZM202.592 46.2637C201.424 46.2637 200.392 45.9997 199.496 45.4717C198.616 44.9437 197.92 44.2157 197.408 43.2877C196.912 42.3437 196.664 41.2637 196.664 40.0477C196.664 38.8157 196.904 37.7357 197.384 36.8077C197.88 35.8797 198.568 35.1517 199.448 34.6237C200.328 34.0797 201.344 33.8077 202.496 33.8077C203.648 33.8077 204.64 34.0557 205.472 34.5517C206.32 35.0317 206.976 35.7197 207.44 36.6157C207.92 37.4957 208.16 38.5357 208.16 39.7357V40.5997L198.032 40.6237L198.08 38.9437H205.568C205.568 38.0317 205.288 37.3117 204.728 36.7837C204.184 36.2397 203.44 35.9677 202.496 35.9677C201.776 35.9677 201.16 36.1197 200.648 36.4237C200.152 36.7277 199.768 37.1837 199.496 37.7917C199.24 38.3837 199.112 39.1117 199.112 39.9757C199.112 41.3197 199.408 42.3437 200 43.0477C200.608 43.7517 201.488 44.1037 202.64 44.1037C203.472 44.1037 204.16 43.9437 204.704 43.6237C205.248 43.3037 205.6 42.8317 205.76 42.2077H208.184C207.912 43.4717 207.28 44.4637 206.288 45.1837C205.312 45.9037 204.08 46.2637 202.592 46.2637ZM213.172 45.9517H210.604V34.1677H212.956L213.196 35.8237C213.58 35.1837 214.108 34.6877 214.78 34.3357C215.468 33.9837 216.228 33.8077 217.06 33.8077C218.564 33.8077 219.684 34.2477 220.42 35.1277C221.172 36.0077 221.548 37.1997 221.548 38.7037V45.9517H218.98V39.3037C218.98 38.2317 218.732 37.4397 218.236 36.9277C217.756 36.4157 217.108 36.1597 216.292 36.1597C215.316 36.1597 214.548 36.4797 213.988 37.1197C213.444 37.7437 213.172 38.5837 213.172 39.6397V45.9517ZM223.496 42.4477H225.944C225.96 43.0077 226.168 43.4477 226.568 43.7677C226.968 44.0877 227.52 44.2477 228.224 44.2477C228.96 44.2477 229.528 44.1037 229.928 43.8157C230.328 43.5277 230.528 43.1517 230.528 42.6877C230.528 42.3357 230.424 42.0477 230.216 41.8237C230.008 41.5837 229.616 41.3917 229.04 41.2477L226.928 40.7677C225.888 40.5117 225.104 40.1197 224.576 39.5917C224.064 39.0637 223.808 38.3437 223.808 37.4317C223.808 36.6797 224 36.0397 224.384 35.5117C224.784 34.9677 225.328 34.5517 226.016 34.2637C226.704 33.9597 227.488 33.8077 228.368 33.8077C229.248 33.8077 230.016 33.9677 230.672 34.2877C231.328 34.5917 231.84 35.0237 232.208 35.5837C232.576 36.1437 232.76 36.8077 232.76 37.5757H230.312C230.296 37.0157 230.112 36.5757 229.76 36.2557C229.408 35.9357 228.912 35.7757 228.272 35.7757C227.648 35.7757 227.16 35.9197 226.808 36.2077C226.456 36.4797 226.28 36.8557 226.28 37.3357C226.28 38.0557 226.816 38.5517 227.888 38.8237L230 39.3037C230.992 39.5277 231.736 39.8957 232.232 40.4077C232.728 40.9037 232.976 41.5997 232.976 42.4957C232.976 43.2477 232.768 43.9117 232.352 44.4877C231.952 45.0637 231.392 45.5037 230.672 45.8077C229.952 46.1117 229.112 46.2637 228.152 46.2637C226.728 46.2637 225.592 45.9117 224.744 45.2077C223.912 44.5037 223.496 43.5837 223.496 42.4477Z" fill="url(#paint3_linear_606_5134)"/>
<g clip-path="url(#clip1_606_5134)">
<rect x="86.8672" y="66.229" width="400.904" height="91.1145" rx="8.74699" fill="#DAFFEE" fill-opacity="0.06"/>
<path d="M105.919 85.0569V93.5356H104.601V85.0569H105.919ZM107.925 90.5617H105.604V89.3837H107.645C108.181 89.3837 108.589 89.2438 108.869 88.9639C109.157 88.6762 109.301 88.2836 109.301 87.786C109.301 87.2884 109.157 86.9074 108.869 86.643C108.589 86.3709 108.189 86.2348 107.668 86.2348H105.406V85.0569H107.925C108.484 85.0569 108.97 85.1735 109.382 85.4068C109.795 85.6323 110.113 85.951 110.339 86.3631C110.572 86.7752 110.689 87.2534 110.689 87.7976C110.689 88.3341 110.572 88.8123 110.339 89.2321C110.113 89.6442 109.795 89.9708 109.382 90.2118C108.97 90.445 108.484 90.5617 107.925 90.5617ZM113.223 93.6873C112.617 93.6873 112.138 93.524 111.789 93.1974C111.446 92.8709 111.275 92.4471 111.275 91.9262C111.275 91.3975 111.458 90.9776 111.824 90.6666C112.197 90.3479 112.722 90.1613 113.398 90.1068L115.159 89.9669V89.8269C115.159 89.5315 115.105 89.2982 114.996 89.1272C114.887 88.9483 114.739 88.82 114.553 88.7423C114.366 88.6645 114.148 88.6257 113.899 88.6257C113.456 88.6257 113.114 88.7151 112.873 88.8939C112.632 89.0727 112.512 89.3254 112.512 89.652H111.439C111.439 89.2399 111.54 88.8861 111.742 88.5907C111.952 88.2875 112.247 88.0542 112.628 87.8909C113.009 87.7199 113.452 87.6343 113.958 87.6343C114.455 87.6343 114.883 87.7238 115.241 87.9026C115.606 88.0736 115.886 88.3341 116.08 88.684C116.283 89.0339 116.384 89.4732 116.384 90.0019V93.5356H115.299L115.182 92.6493C115.05 92.9603 114.805 93.213 114.448 93.4074C114.09 93.594 113.682 93.6873 113.223 93.6873ZM113.62 92.7193C114.094 92.7193 114.471 92.5793 114.751 92.2994C115.031 92.0117 115.171 91.6269 115.171 91.1448V90.8299L113.841 90.9465C113.375 90.9854 113.04 91.0865 112.838 91.2498C112.644 91.413 112.547 91.6191 112.547 91.8679C112.547 92.1556 112.64 92.3694 112.827 92.5093C113.013 92.6493 113.277 92.7193 113.62 92.7193ZM118.358 87.8093L120.294 93.2441L119.571 94.4337L117.017 87.8093H118.358ZM117.18 96.1481V95.1101H117.962C118.148 95.1101 118.312 95.0907 118.452 95.0518C118.599 95.0129 118.732 94.9352 118.848 94.8185C118.965 94.7097 119.066 94.5386 119.151 94.3054L121.542 87.8093H122.848L120.084 94.8185C119.882 95.3317 119.626 95.701 119.315 95.9265C119.011 96.1597 118.634 96.2764 118.183 96.2764C117.997 96.2764 117.818 96.2647 117.647 96.2414C117.484 96.2181 117.328 96.187 117.18 96.1481ZM128.11 93.5356L126.232 87.8093H127.55L128.39 90.5267C128.46 90.7366 128.522 90.9621 128.577 91.2031C128.639 91.4364 128.697 91.6813 128.752 91.9379C128.783 91.759 128.818 91.5919 128.857 91.4364C128.895 91.2809 128.938 91.1293 128.985 90.9815C129.032 90.8338 129.078 90.6822 129.125 90.5267L130.011 87.8093H131.294L132.145 90.5267C132.169 90.5889 132.196 90.6783 132.227 90.7949C132.258 90.9115 132.293 91.0398 132.332 91.1798C132.371 91.312 132.406 91.448 132.437 91.588C132.468 91.7202 132.495 91.8368 132.519 91.9379C132.55 91.7901 132.585 91.6346 132.624 91.4714C132.662 91.3003 132.705 91.137 132.752 90.9815C132.799 90.8182 132.845 90.6666 132.892 90.5267L133.755 87.8093H135.073L133.102 93.5356H131.924L131.026 90.7599C130.925 90.4256 130.843 90.1379 130.781 89.8969C130.719 89.6481 130.672 89.4459 130.641 89.2904C130.61 89.4382 130.563 89.6209 130.501 89.8386C130.447 90.0563 130.357 90.3712 130.233 90.7833L129.335 93.5356H128.11ZM135.985 93.5356V87.8093H137.233V93.5356H135.985ZM136.603 86.5497C136.386 86.5497 136.199 86.472 136.043 86.3165C135.888 86.161 135.81 85.9744 135.81 85.7567C135.81 85.539 135.888 85.3524 136.043 85.1968C136.199 85.0413 136.386 84.9636 136.603 84.9636C136.821 84.9636 137.008 85.0413 137.163 85.1968C137.319 85.3524 137.396 85.539 137.396 85.7567C137.396 85.9744 137.319 86.161 137.163 86.3165C137.008 86.472 136.821 86.5497 136.603 86.5497ZM138.181 87.8093H141.668V88.8589H138.181V87.8093ZM140.548 93.5356H139.3V86.0132H140.548V93.5356ZM143.862 93.5356H142.614V84.9053H143.873V88.614C144.052 88.3186 144.305 88.0814 144.631 87.9026C144.958 87.7238 145.339 87.6343 145.774 87.6343C146.49 87.6343 147.026 87.8482 147.384 88.2758C147.749 88.7034 147.932 89.2827 147.932 90.0135V93.5356H146.684V90.3051C146.684 89.9552 146.63 89.6675 146.521 89.4421C146.412 89.2166 146.26 89.0494 146.066 88.9406C145.879 88.8317 145.658 88.7773 145.401 88.7773C145.074 88.7773 144.795 88.8511 144.561 88.9989C144.336 89.1388 144.161 89.3332 144.037 89.582C143.92 89.823 143.862 90.099 143.862 90.4101V93.5356Z" fill="#B8FFDF"/>
<path d="M311.152 88.5959V91.1675H312.01V88.5959L314.135 84.8434H313.199L311.8 87.3713C311.686 87.5812 311.668 87.6337 311.59 87.7911C311.52 87.6424 311.467 87.52 311.38 87.3713L309.972 84.8434H309.009L311.152 88.5959ZM313.679 89.0245C313.679 90.3453 314.623 91.2724 315.909 91.2724C317.186 91.2724 318.131 90.3453 318.131 89.0245C318.131 87.7037 317.186 86.7765 315.909 86.7765C314.623 86.7765 313.679 87.7037 313.679 89.0245ZM314.51 89.0245C314.51 88.1323 315.078 87.5112 315.909 87.5112C316.731 87.5112 317.309 88.1323 317.309 89.0245C317.309 89.9167 316.731 90.5377 315.909 90.5377C315.078 90.5377 314.51 89.9167 314.51 89.0245ZM321.895 86.8902V89.1469C321.895 90.0654 321.484 90.5464 320.732 90.5464C320.102 90.5464 319.708 90.1966 319.708 89.2781V86.8902H318.886V89.5493C318.886 90.5989 319.446 91.2724 320.443 91.2724C321.073 91.2724 321.641 90.9663 321.886 90.5202L321.974 91.1675H322.708V86.8902H321.895ZM326.351 86.8552C326.184 86.8202 326.062 86.8027 325.913 86.8027C325.327 86.8027 324.899 87.1001 324.724 87.5462L324.671 86.8989H323.901V91.1675H324.724V88.902C324.724 88.0798 325.205 87.6075 325.983 87.6075H326.351V86.8552ZM330.257 91.1675L330.318 90.389C330.598 90.975 331.167 91.2724 331.84 91.2724C333.082 91.2724 333.852 90.3453 333.852 89.0507C333.852 87.7299 333.117 86.7677 331.893 86.7677C331.193 86.7677 330.616 87.0651 330.336 87.6249V84.7297H329.513V91.1675H330.257ZM330.344 89.0157C330.344 88.141 330.852 87.5112 331.691 87.5112C332.531 87.5112 333.03 88.141 333.03 89.0157C333.03 89.8992 332.531 90.529 331.691 90.529C330.852 90.529 330.344 89.9079 330.344 89.0157ZM336.009 91.2724C336.7 91.2724 337.286 90.9663 337.505 90.4765L337.592 91.1675H338.292V88.4822C338.292 87.3276 337.575 86.7677 336.516 86.7677C335.414 86.7677 334.68 87.3538 334.68 88.246H335.397C335.397 87.7299 335.79 87.4238 336.481 87.4238C337.059 87.4238 337.487 87.6774 337.487 88.3947V88.5171L336.14 88.6221C335.134 88.7008 334.548 89.1907 334.548 89.9779C334.548 90.7564 335.091 91.2724 336.009 91.2724ZM336.245 90.6339C335.712 90.6339 335.379 90.4065 335.379 89.9516C335.379 89.5318 335.677 89.2519 336.403 89.1819L337.496 89.0944V89.3219C337.496 90.1266 337.024 90.6339 336.245 90.6339ZM340.27 91.1675V84.7297H339.448V91.1675H340.27ZM342.732 91.2724C343.423 91.2724 344.009 90.9663 344.227 90.4765L344.315 91.1675H345.015V88.4822C345.015 87.3276 344.297 86.7677 343.239 86.7677C342.137 86.7677 341.402 87.3538 341.402 88.246H342.119C342.119 87.7299 342.513 87.4238 343.204 87.4238C343.781 87.4238 344.21 87.6774 344.21 88.3947V88.5171L342.863 88.6221C341.857 88.7008 341.271 89.1907 341.271 89.9779C341.271 90.7564 341.813 91.2724 342.732 91.2724ZM342.968 90.6339C342.434 90.6339 342.102 90.4065 342.102 89.9516C342.102 89.5318 342.399 89.2519 343.125 89.1819L344.219 89.0944V89.3219C344.219 90.1266 343.746 90.6339 342.968 90.6339ZM346.975 91.1675V88.902C346.975 88.071 347.422 87.52 348.191 87.52C348.821 87.52 349.223 87.8699 349.223 88.7358V91.1675H350.046V88.5521C350.046 87.4588 349.53 86.7677 348.401 86.7677C347.798 86.7677 347.255 87.0564 346.984 87.5462L346.897 86.8902H346.153V91.1675H346.975ZM350.905 89.0332C350.905 90.3803 351.736 91.2724 352.995 91.2724C354.027 91.2724 354.823 90.6514 354.989 89.7242H354.167C354.018 90.2316 353.581 90.5377 352.995 90.5377C352.217 90.5377 351.718 89.9429 351.718 89.0245C351.718 88.0973 352.252 87.5025 353.03 87.5025C353.581 87.5025 354.018 87.7911 354.158 88.3335H354.981C354.832 87.38 354.08 86.7677 353.004 86.7677C351.753 86.7677 350.905 87.6949 350.905 89.0332ZM357.703 91.2724C358.761 91.2724 359.478 90.7564 359.688 89.8379H358.918C358.778 90.3278 358.359 90.5902 357.72 90.5902C356.907 90.5902 356.434 90.0916 356.373 89.1907L359.679 89.1819V88.8758C359.679 87.6075 358.883 86.7677 357.668 86.7677C356.425 86.7677 355.577 87.6949 355.577 89.0332C355.577 90.3628 356.443 91.2724 357.703 91.2724ZM357.668 87.4588C358.394 87.4588 358.857 87.9311 358.857 88.6396H356.39C356.495 87.8874 356.95 87.4588 357.668 87.4588ZM361.297 87.9923C361.63 87.9923 361.919 87.7124 361.919 87.3888C361.919 87.0476 361.63 86.7677 361.297 86.7677C360.956 86.7677 360.668 87.0476 360.668 87.3888C360.668 87.7124 360.956 87.9923 361.297 87.9923ZM361.297 91.2724C361.63 91.2724 361.919 90.9925 361.919 90.6602C361.919 90.319 361.63 90.0391 361.297 90.0391C360.956 90.0391 360.668 90.319 360.668 90.6602C360.668 90.9925 360.956 91.2724 361.297 91.2724Z" fill="white" fill-opacity="0.7"/>
<rect x="370.092" y="85.6162" width="83.8253" height="5.10241" rx="2.5512" fill="#DAFFEE" fill-opacity="0.16"/>
<rect x="457.562" y="82.7896" width="13.4444" height="10.7556" rx="5.37778" fill="white" fill-opacity="0.06"/>
<path d="M120.162 110.509C122.613 110.509 125.009 111.236 127.047 112.597C129.085 113.959 130.673 115.894 131.611 118.158C132.549 120.423 132.795 122.914 132.317 125.318C131.838 127.722 130.658 129.93 128.925 131.663C127.192 133.396 124.984 134.576 122.58 135.054C120.177 135.532 117.685 135.287 115.421 134.349C113.156 133.411 111.221 131.823 109.86 129.785C108.498 127.747 107.771 125.351 107.771 122.9C107.771 121.273 108.092 119.662 108.715 118.158C109.337 116.655 110.25 115.289 111.401 114.138C112.551 112.988 113.917 112.075 115.421 111.452C116.924 110.83 118.535 110.509 120.162 110.509ZM116.12 122.9C116.12 128.888 120.162 133.743 120.162 133.743C120.162 133.743 124.205 128.888 124.205 122.9C124.205 116.912 120.162 112.058 120.162 112.058C120.162 112.058 116.12 116.913 116.12 122.9Z" fill="#4FFFB0"/>
<path d="M140.646 124.806H145.382C147.798 124.806 149.19 123.638 149.19 121.638C149.19 120.278 148.566 119.35 147.334 118.95C148.438 118.486 149.014 117.558 149.014 116.262C149.014 114.31 147.606 113.11 145.302 113.11H140.646V124.806ZM145.126 114.918C146.278 114.918 146.918 115.462 146.918 116.47C146.918 117.51 146.294 118.102 145.174 118.102H142.694V114.918H145.126ZM145.302 119.83C146.438 119.83 147.094 120.39 147.094 121.382C147.094 122.438 146.454 122.998 145.302 122.998H142.694V119.83H145.302ZM150.395 116.374C150.395 118.166 151.435 119.302 153.419 119.734L155.275 120.15C156.235 120.358 156.635 120.822 156.635 121.606C156.635 122.582 155.771 123.174 154.411 123.174C153.099 123.174 152.299 122.582 152.283 121.59H150.235C150.283 123.686 151.915 125.014 154.411 125.014C156.987 125.014 158.683 123.606 158.683 121.43C158.683 119.686 157.707 118.662 155.707 118.23L153.867 117.83C152.891 117.606 152.443 117.142 152.443 116.31C152.443 115.334 153.259 114.726 154.523 114.726C155.675 114.726 156.395 115.318 156.443 116.326H158.491C158.427 114.214 156.923 112.902 154.555 112.902C152.091 112.902 150.395 114.326 150.395 116.374ZM163.48 118.966L159.512 124.806H161.912L164.76 120.534C165.224 121.382 165.64 122.086 166.152 122.87L167.464 124.806H169.88L166.04 118.95L169.864 113.11H167.48L164.76 117.398C164.328 116.598 163.928 115.926 163.448 115.206L162.024 113.11H159.592L163.48 118.966Z" fill="white"/>
<g clip-path="url(#clip2_606_5134)">
<path d="M140.358 137.157H143.79C145.506 137.157 146.55 136.281 146.55 134.841C146.55 133.809 146.058 133.113 145.098 132.801C145.962 132.441 146.394 131.769 146.394 130.773C146.394 129.345 145.362 128.481 143.67 128.481H140.358V137.157ZM143.598 129.525C144.618 129.525 145.194 130.017 145.194 130.881C145.194 131.781 144.642 132.309 143.67 132.309H141.534V129.525H143.598ZM143.766 133.329C144.762 133.329 145.338 133.833 145.338 134.697C145.338 135.597 144.774 136.113 143.766 136.113H141.534V133.329H143.766ZM149.546 137.301C150.494 137.301 151.298 136.881 151.598 136.209L151.718 137.157H152.678V133.473C152.678 131.889 151.694 131.121 150.242 131.121C148.73 131.121 147.722 131.925 147.722 133.149H148.706C148.706 132.441 149.246 132.021 150.194 132.021C150.986 132.021 151.574 132.369 151.574 133.353V133.521L149.726 133.665C148.346 133.773 147.542 134.445 147.542 135.525C147.542 136.593 148.286 137.301 149.546 137.301ZM149.87 136.425C149.138 136.425 148.682 136.113 148.682 135.489C148.682 134.913 149.09 134.529 150.086 134.433L151.586 134.313V134.625C151.586 135.729 150.938 136.425 149.87 136.425ZM153.76 135.453C153.76 136.569 154.636 137.301 156.016 137.301C157.408 137.301 158.368 136.593 158.368 135.477C158.368 134.601 157.876 134.145 156.88 133.905L155.848 133.653C155.272 133.509 154.984 133.245 154.984 132.849C154.984 132.309 155.38 131.997 156.088 131.997C156.772 131.997 157.168 132.369 157.192 132.957H158.272C158.248 131.841 157.408 131.121 156.124 131.121C154.828 131.121 153.916 131.805 153.916 132.885C153.916 133.749 154.408 134.265 155.452 134.517L156.484 134.757C157.096 134.913 157.288 135.153 157.288 135.549C157.288 136.089 156.832 136.413 156.04 136.413C155.296 136.413 154.84 136.053 154.84 135.453H153.76ZM160.171 129.897C160.579 129.897 160.915 129.561 160.915 129.153C160.915 128.733 160.579 128.409 160.171 128.409C159.763 128.409 159.427 128.733 159.427 129.153C159.427 129.561 159.763 129.897 160.171 129.897ZM159.619 137.157H160.747V131.289H159.619V137.157ZM163.536 137.157V128.325H162.408V137.157H163.536ZM165.749 129.897C166.157 129.897 166.493 129.561 166.493 129.153C166.493 128.733 166.157 128.409 165.749 128.409C165.341 128.409 165.005 128.733 165.005 129.153C165.005 129.561 165.341 129.897 165.749 129.897ZM165.197 137.157H166.325V131.289H165.197V137.157ZM167.482 135.453C167.482 136.569 168.358 137.301 169.738 137.301C171.13 137.301 172.09 136.593 172.09 135.477C172.09 134.601 171.598 134.145 170.602 133.905L169.57 133.653C168.994 133.509 168.706 133.245 168.706 132.849C168.706 132.309 169.102 131.997 169.81 131.997C170.494 131.997 170.89 132.369 170.914 132.957H171.994C171.97 131.841 171.13 131.121 169.846 131.121C168.55 131.121 167.638 131.805 167.638 132.885C167.638 133.749 168.13 134.265 169.174 134.517L170.206 134.757C170.818 134.913 171.01 135.153 171.01 135.549C171.01 136.089 170.554 136.413 169.762 136.413C169.018 136.413 168.562 136.053 168.562 135.453H167.482ZM174.493 137.157V135.489L175.489 134.445L177.205 137.157H178.501L176.269 133.629L178.513 131.289H177.097L174.493 134.049V128.325H173.365V137.157H174.493Z" fill="#ACB2B5"/>
</g>
<path d="M172.881 121.076C172.899 121.014 172.915 120.951 172.935 120.89C172.989 120.729 173.08 120.585 173.202 120.468C173.324 120.352 173.473 120.269 173.635 120.225C173.797 120.181 173.967 120.178 174.13 120.217C174.293 120.256 174.444 120.335 174.57 120.447C174.607 120.48 174.642 120.515 174.676 120.55L177.524 123.43C177.55 123.456 177.573 123.486 177.603 123.521C177.638 123.488 177.664 123.463 177.689 123.437L180.576 120.519C180.754 120.314 181.005 120.189 181.274 120.171C181.543 120.153 181.808 120.244 182.011 120.423C182.213 120.603 182.337 120.857 182.355 121.129C182.372 121.401 182.282 121.669 182.105 121.874C182.073 121.912 182.039 121.948 182.005 121.984L178.366 125.662C178.219 125.828 178.022 125.94 177.805 125.982C177.589 126.023 177.364 125.992 177.167 125.893C177.057 125.837 176.957 125.763 176.871 125.675C175.647 124.442 174.425 123.208 173.204 121.972C173.041 121.803 172.928 121.59 172.881 121.358V121.076Z" fill="white"/>
<rect x="206.41" y="103.403" width="264.596" height="39.3614" rx="6.56024" fill="#DAFFEE" fill-opacity="0.06"/>
<path d="M382.919 127.488V125.346H377.447L379.823 123.312C381.821 121.602 382.829 120.216 382.829 118.38C382.829 115.716 381.083 114.114 378.275 114.114C375.485 114.114 373.649 115.986 373.631 118.866H375.917C375.935 117.174 376.835 116.166 378.275 116.166C379.661 116.166 380.471 117.012 380.471 118.506C380.471 119.766 379.877 120.63 378.095 122.142L373.793 125.778V127.506L382.919 127.488ZM384.32 123.78C384.32 126.174 386.282 127.722 389.324 127.722C392.384 127.722 394.346 126.156 394.346 123.78C394.346 122.196 393.446 120.918 392.06 120.432C393.23 119.946 393.878 118.956 393.878 117.678C393.878 115.536 392.06 114.114 389.36 114.114C386.642 114.114 384.788 115.554 384.788 117.642C384.788 118.92 385.418 119.91 386.57 120.432C385.202 120.954 384.32 122.214 384.32 123.78ZM386.876 117.84C386.876 116.76 387.83 116.076 389.324 116.076C390.8 116.076 391.736 116.76 391.736 117.858C391.736 118.956 390.8 119.64 389.324 119.64C387.83 119.64 386.876 118.938 386.876 117.84ZM386.57 123.618C386.57 122.34 387.632 121.548 389.324 121.548C391.016 121.548 392.078 122.34 392.078 123.618C392.078 124.896 391.016 125.688 389.342 125.688C387.632 125.688 386.57 124.896 386.57 123.618ZM400.335 127.722C403.269 127.722 405.267 125.778 405.267 122.934C405.267 120.342 403.521 118.56 400.893 118.56C399.993 118.56 399.201 118.794 398.571 119.208L399.273 116.472H404.475V114.348H397.617L395.997 121.242L398.031 121.674C398.499 120.99 399.417 120.486 400.425 120.486C402.009 120.486 402.927 121.53 402.927 123.06C402.927 124.662 401.937 125.67 400.389 125.67C398.931 125.67 398.049 124.788 398.049 123.294H395.763C395.763 125.958 397.581 127.722 400.335 127.722ZM411.128 127.722C414.062 127.722 416.06 125.778 416.06 122.934C416.06 120.342 414.314 118.56 411.686 118.56C410.786 118.56 409.994 118.794 409.364 119.208L410.066 116.472H415.268V114.348H408.41L406.79 121.242L408.824 121.674C409.292 120.99 410.21 120.486 411.218 120.486C412.802 120.486 413.72 121.53 413.72 123.06C413.72 124.662 412.73 125.67 411.182 125.67C409.724 125.67 408.842 124.788 408.842 123.294H406.556C406.556 125.958 408.374 127.722 411.128 127.722ZM418.94 127.722C419.732 127.722 420.398 127.074 420.398 126.3C420.398 125.508 419.732 124.86 418.94 124.86C418.148 124.86 417.482 125.508 417.482 126.3C417.482 127.074 418.148 127.722 418.94 127.722ZM431.522 127.488V125.346H426.05L428.426 123.312C430.424 121.602 431.432 120.216 431.432 118.38C431.432 115.716 429.686 114.114 426.878 114.114C424.088 114.114 422.252 115.986 422.234 118.866H424.52C424.538 117.174 425.438 116.166 426.878 116.166C428.264 116.166 429.074 117.012 429.074 118.506C429.074 119.766 428.48 120.63 426.698 122.142L422.396 125.778V127.506L431.522 127.488ZM442.937 125.004V122.988H441.335V114.348H438.437L432.479 122.988V125.004H439.157V127.506H441.335V125.004H442.937ZM434.927 122.988L439.157 116.832V122.988H434.927ZM446.029 118.218C444.553 120.216 444.031 121.368 444.031 122.952C444.031 125.652 446.155 127.74 448.999 127.74C451.807 127.74 453.895 125.778 453.895 122.97C453.895 120.306 452.059 118.398 449.341 118.398C449.017 118.398 448.675 118.452 448.351 118.542L451.501 114.348H448.873L446.029 118.218ZM446.389 122.97C446.389 121.386 447.433 120.288 448.999 120.288C450.511 120.288 451.573 121.386 451.573 122.97C451.573 124.572 450.493 125.688 448.999 125.688C447.451 125.688 446.389 124.572 446.389 122.97ZM460.098 118.02C460.098 120.036 461.268 121.314 463.5 121.8L465.588 122.268C466.668 122.502 467.118 123.024 467.118 123.906C467.118 125.004 466.146 125.67 464.616 125.67C463.14 125.67 462.24 125.004 462.222 123.888H459.918C459.972 126.246 461.808 127.74 464.616 127.74C467.514 127.74 469.422 126.156 469.422 123.708C469.422 121.746 468.324 120.594 466.074 120.108L464.004 119.658C462.906 119.406 462.402 118.884 462.402 117.948C462.402 116.85 463.32 116.166 464.742 116.166C466.038 116.166 466.848 116.832 466.902 117.966H469.206C469.134 115.59 467.442 114.114 464.778 114.114C462.006 114.114 460.098 115.716 460.098 118.02ZM472.641 127.506L473.703 124.464H478.617L479.679 127.506H482.109L477.357 114.348H474.999L470.247 127.506H472.641ZM475.881 118.272C476.007 117.912 476.115 117.516 476.169 117.264C476.205 117.534 476.331 117.93 476.439 118.272L477.951 122.52H474.387L475.881 118.272ZM485.649 127.506V125.112L486.945 123.762L489.267 127.506H491.787L488.475 122.142L491.859 118.614H489.105L485.649 122.34V114.114H483.471V127.506H485.649Z" fill="white"/>
<path d="M417.276 133.648H418.126C418.126 133.968 418.07 134.254 417.956 134.508C417.85 134.754 417.696 134.951 417.496 135.098C417.296 135.238 417.056 135.308 416.776 135.308C416.536 135.308 416.313 135.268 416.106 135.188C415.906 135.101 415.716 135.004 415.536 134.898C415.363 134.784 415.193 134.688 415.026 134.608C414.866 134.521 414.706 134.478 414.546 134.478C414.34 134.478 414.193 134.544 414.106 134.678C414.02 134.804 413.976 134.984 413.976 135.218H413.126C413.126 134.904 413.18 134.628 413.286 134.388C413.4 134.141 413.556 133.948 413.756 133.808C413.963 133.668 414.203 133.598 414.476 133.598C414.703 133.598 414.913 133.641 415.106 133.728C415.306 133.808 415.496 133.904 415.676 134.018C415.856 134.124 416.03 134.221 416.196 134.308C416.363 134.388 416.533 134.428 416.706 134.428C416.913 134.428 417.06 134.361 417.146 134.228C417.233 134.088 417.276 133.894 417.276 133.648ZM417.276 135.598H418.126C418.126 135.918 418.07 136.204 417.956 136.458C417.85 136.704 417.696 136.901 417.496 137.048C417.296 137.188 417.056 137.258 416.776 137.258C416.536 137.258 416.313 137.218 416.106 137.138C415.906 137.051 415.716 136.954 415.536 136.848C415.363 136.734 415.193 136.638 415.026 136.558C414.866 136.471 414.706 136.428 414.546 136.428C414.34 136.428 414.193 136.494 414.106 136.628C414.02 136.754 413.976 136.934 413.976 137.168H413.126C413.126 136.854 413.18 136.578 413.286 136.338C413.4 136.091 413.556 135.898 413.756 135.758C413.963 135.611 414.203 135.538 414.476 135.538C414.703 135.538 414.913 135.581 415.106 135.668C415.306 135.754 415.496 135.854 415.676 135.968C415.856 136.074 416.03 136.171 416.196 136.258C416.363 136.338 416.533 136.378 416.706 136.378C416.913 136.378 417.06 136.311 417.146 136.178C417.233 136.038 417.276 135.844 417.276 135.598ZM422.083 136.418C422.083 135.924 422.233 135.498 422.533 135.138C422.833 134.778 423.229 134.551 423.723 134.458L423.733 134.688C423.293 134.568 422.949 134.361 422.703 134.068C422.463 133.768 422.343 133.408 422.343 132.988C422.343 132.601 422.446 132.264 422.653 131.978C422.866 131.691 423.156 131.468 423.523 131.308C423.896 131.141 424.329 131.058 424.823 131.058C425.309 131.058 425.736 131.138 426.103 131.298C426.469 131.458 426.753 131.684 426.953 131.978C427.159 132.271 427.263 132.614 427.263 133.008C427.263 133.428 427.143 133.784 426.903 134.078C426.663 134.371 426.323 134.571 425.883 134.678L425.873 134.468C426.206 134.521 426.496 134.638 426.743 134.818C426.996 134.998 427.189 135.224 427.323 135.498C427.463 135.771 427.533 136.078 427.533 136.418C427.533 136.851 427.419 137.231 427.193 137.558C426.966 137.878 426.649 138.128 426.243 138.308C425.836 138.488 425.359 138.578 424.813 138.578C424.259 138.578 423.779 138.491 423.373 138.318C422.966 138.138 422.649 137.884 422.423 137.558C422.196 137.231 422.083 136.851 422.083 136.418ZM423.193 136.338C423.193 136.591 423.259 136.811 423.393 136.998C423.526 137.178 423.713 137.321 423.953 137.428C424.199 137.528 424.486 137.578 424.813 137.578C425.139 137.578 425.423 137.528 425.663 137.428C425.903 137.321 426.089 137.178 426.223 136.998C426.356 136.811 426.423 136.591 426.423 136.338C426.423 135.964 426.276 135.668 425.983 135.448C425.689 135.221 425.296 135.108 424.803 135.108C424.309 135.108 423.916 135.221 423.623 135.448C423.336 135.668 423.193 135.964 423.193 136.338ZM423.383 133.078C423.383 133.404 423.509 133.668 423.763 133.868C424.023 134.061 424.369 134.158 424.803 134.158C425.236 134.158 425.579 134.061 425.833 133.868C426.086 133.674 426.213 133.414 426.213 133.088C426.213 132.761 426.086 132.504 425.833 132.318C425.579 132.124 425.236 132.028 424.803 132.028C424.369 132.028 424.023 132.124 423.763 132.318C423.509 132.504 423.383 132.758 423.383 133.078ZM430.881 138.578C430.381 138.578 429.941 138.478 429.561 138.278C429.188 138.078 428.898 137.798 428.691 137.438C428.491 137.071 428.391 136.644 428.391 136.158H429.501C429.501 136.598 429.625 136.944 429.871 137.198C430.125 137.444 430.468 137.568 430.901 137.568C431.208 137.568 431.471 137.504 431.691 137.378C431.918 137.251 432.095 137.074 432.221 136.848C432.348 136.614 432.411 136.341 432.411 136.028C432.411 135.728 432.351 135.464 432.231 135.238C432.111 135.011 431.941 134.834 431.721 134.708C431.501 134.574 431.231 134.508 430.911 134.508C430.625 134.508 430.355 134.571 430.101 134.698C429.848 134.824 429.648 134.988 429.501 135.188L428.521 134.958L429.411 131.188H433.121V132.228H429.891L430.331 131.828L429.701 134.338L429.321 134.458C429.495 134.164 429.741 133.941 430.061 133.788C430.381 133.628 430.741 133.548 431.141 133.548C431.628 133.548 432.051 133.651 432.411 133.858C432.778 134.064 433.061 134.351 433.261 134.718C433.461 135.084 433.561 135.504 433.561 135.978C433.561 136.491 433.448 136.944 433.221 137.338C432.995 137.724 432.681 138.028 432.281 138.248C431.881 138.468 431.415 138.578 430.881 138.578ZM436.838 138.578C436.338 138.578 435.898 138.478 435.518 138.278C435.145 138.078 434.855 137.798 434.648 137.438C434.448 137.071 434.348 136.644 434.348 136.158H435.458C435.458 136.598 435.582 136.944 435.828 137.198C436.082 137.444 436.425 137.568 436.858 137.568C437.165 137.568 437.428 137.504 437.648 137.378C437.875 137.251 438.052 137.074 438.178 136.848C438.305 136.614 438.368 136.341 438.368 136.028C438.368 135.728 438.308 135.464 438.188 135.238C438.068 135.011 437.898 134.834 437.678 134.708C437.458 134.574 437.188 134.508 436.868 134.508C436.582 134.508 436.312 134.571 436.058 134.698C435.805 134.824 435.605 134.988 435.458 135.188L434.478 134.958L435.368 131.188H439.078V132.228H435.848L436.288 131.828L435.658 134.338L435.278 134.458C435.452 134.164 435.698 133.941 436.018 133.788C436.338 133.628 436.698 133.548 437.098 133.548C437.585 133.548 438.008 133.651 438.368 133.858C438.735 134.064 439.018 134.351 439.218 134.718C439.418 135.084 439.518 135.504 439.518 135.978C439.518 136.491 439.405 136.944 439.178 137.338C438.952 137.724 438.638 138.028 438.238 138.248C437.838 138.468 437.372 138.578 436.838 138.578ZM441.09 138.578C440.877 138.578 440.693 138.504 440.54 138.358C440.393 138.211 440.32 138.038 440.32 137.838C440.32 137.624 440.393 137.444 440.54 137.298C440.693 137.151 440.877 137.078 441.09 137.078C441.297 137.078 441.473 137.151 441.62 137.298C441.773 137.444 441.85 137.624 441.85 137.838C441.85 138.038 441.773 138.211 441.62 138.358C441.473 138.504 441.297 138.578 441.09 138.578ZM447.932 138.448L442.962 138.458V137.598L445.322 135.588C445.595 135.361 445.822 135.154 446.002 134.968C446.182 134.781 446.325 134.608 446.432 134.448C446.539 134.288 446.615 134.128 446.662 133.968C446.709 133.801 446.732 133.628 446.732 133.448C446.732 133.014 446.615 132.678 446.382 132.438C446.155 132.191 445.839 132.068 445.432 132.068C445.005 132.068 444.665 132.211 444.412 132.498C444.165 132.778 444.035 133.164 444.022 133.658H442.902C442.909 133.131 443.019 132.674 443.232 132.288C443.445 131.894 443.739 131.591 444.112 131.378C444.492 131.164 444.932 131.058 445.432 131.058C445.939 131.058 446.372 131.151 446.732 131.338C447.099 131.524 447.382 131.791 447.582 132.138C447.782 132.484 447.882 132.898 447.882 133.378C447.882 133.631 447.849 133.874 447.782 134.108C447.715 134.334 447.612 134.558 447.472 134.778C447.332 134.998 447.152 135.224 446.932 135.458C446.719 135.684 446.459 135.928 446.152 136.188L444.322 137.758L443.932 137.398H447.932V138.448ZM453.286 131.188V138.458H452.206V131.188H453.286ZM448.486 136.038L451.846 131.188H453.046L449.646 136.108L448.486 136.038ZM454.156 137.038H448.486V136.038H454.156V137.038ZM458.077 135.838V131.188H459.207V135.768C459.207 136.321 459.354 136.744 459.647 137.038C459.94 137.331 460.36 137.478 460.907 137.478C461.447 137.478 461.864 137.331 462.157 137.038C462.45 136.738 462.597 136.314 462.597 135.768V131.188H463.727V135.838C463.727 136.398 463.614 136.884 463.387 137.298C463.16 137.704 462.834 138.021 462.407 138.248C461.987 138.468 461.487 138.578 460.907 138.578C460.327 138.578 459.824 138.468 459.397 138.248C458.977 138.028 458.65 137.711 458.417 137.298C458.19 136.884 458.077 136.398 458.077 135.838ZM464.904 133.178C464.904 132.758 465.011 132.391 465.224 132.078C465.444 131.758 465.744 131.508 466.124 131.328C466.511 131.148 466.954 131.058 467.454 131.058C467.934 131.058 468.351 131.141 468.704 131.308C469.057 131.474 469.334 131.714 469.534 132.028C469.734 132.341 469.844 132.711 469.864 133.138H468.724C468.704 132.798 468.581 132.534 468.354 132.348C468.127 132.161 467.824 132.068 467.444 132.068C467.017 132.068 466.674 132.164 466.414 132.358C466.161 132.551 466.034 132.814 466.034 133.148C466.034 133.421 466.111 133.641 466.264 133.808C466.424 133.974 466.664 134.094 466.984 134.168L468.164 134.438C468.771 134.571 469.224 134.801 469.524 135.128C469.831 135.448 469.984 135.871 469.984 136.398C469.984 136.838 469.874 137.224 469.654 137.558C469.441 137.884 469.137 138.138 468.744 138.318C468.351 138.498 467.891 138.588 467.364 138.588C466.864 138.588 466.424 138.504 466.044 138.338C465.664 138.164 465.367 137.921 465.154 137.608C464.941 137.294 464.827 136.928 464.814 136.508H465.944C465.957 136.834 466.091 137.094 466.344 137.288C466.597 137.474 466.941 137.568 467.374 137.568C467.827 137.568 468.187 137.471 468.454 137.278C468.721 137.084 468.854 136.824 468.854 136.498C468.854 136.224 468.777 136.008 468.624 135.848C468.477 135.681 468.244 135.561 467.924 135.488L466.754 135.228C466.147 135.094 465.687 134.858 465.374 134.518C465.061 134.171 464.904 133.724 464.904 133.178ZM473.674 138.458H471.174V131.188H473.624C474.344 131.188 474.977 131.341 475.524 131.648C476.07 131.954 476.494 132.381 476.794 132.928C477.1 133.474 477.254 134.111 477.254 134.838C477.254 135.551 477.104 136.181 476.804 136.728C476.504 137.268 476.084 137.691 475.544 137.998C475.01 138.304 474.387 138.458 473.674 138.458ZM472.304 131.708V137.948L471.764 137.418H473.584C474.097 137.418 474.537 137.314 474.904 137.108C475.277 136.894 475.564 136.594 475.764 136.208C475.97 135.821 476.074 135.364 476.074 134.838C476.074 134.298 475.97 133.834 475.764 133.448C475.557 133.054 475.264 132.754 474.884 132.548C474.51 132.334 474.06 132.228 473.534 132.228H471.764L472.304 131.708Z" fill="#ACB2B5"/>
<rect x="206.775" y="103.768" width="263.867" height="38.6325" rx="6.19578" stroke="white" stroke-opacity="0.12" stroke-width="0.728916"/>
</g>
<line x1="64.2715" y1="179.94" x2="86.139" y2="179.94" stroke="#4CF3A8" stroke-opacity="0.12" stroke-width="0.728916"/>
<path d="M101.81 164.633C98.7108 164.633 95.6808 165.552 93.1036 167.274C90.5264 168.996 88.5177 171.444 87.3316 174.307C86.1454 177.171 85.8351 180.322 86.4398 183.362C87.0445 186.402 88.5371 189.194 90.7288 191.386C92.9205 193.578 95.713 195.07 98.753 195.675C101.793 196.28 104.944 195.969 107.808 194.783C110.671 193.597 113.119 191.588 114.841 189.011C116.563 186.434 117.482 183.404 117.482 180.304C117.477 176.15 115.825 172.166 112.887 169.228C109.949 166.29 105.965 164.638 101.81 164.633Z" fill="#4CF3A8" fill-opacity="0.12"/>
<path d="M101.8 175.187L101.8 185.119M101.8 185.119L97.9662 181.286M101.8 185.119L105.622 181.297" stroke="#8AFFCB" stroke-width="1.45783" stroke-linecap="round" stroke-linejoin="round"/>
<line x1="117.481" y1="180.284" x2="349.645" y2="179.596" stroke="#4CF3A8" stroke-opacity="0.12" stroke-width="0.728916"/>
<rect x="349.646" y="170.1" width="133.392" height="20.4096" rx="5.10241" fill="#DAFFEE" fill-opacity="0.06"/>
<path d="M362.778 181.769C363.909 181.769 364.646 180.983 364.646 179.901C364.646 178.787 363.917 178.041 362.778 178.041H360.525V183.838H361.311V181.769H362.778ZM362.642 178.746C363.38 178.746 363.821 179.163 363.821 179.893C363.821 180.607 363.388 181.064 362.61 181.064H361.311V178.746H362.642ZM367.653 179.885C367.501 179.853 367.389 179.837 367.252 179.837C366.715 179.837 366.322 180.109 366.162 180.518L366.114 179.925H365.408V183.838H366.162V181.761C366.162 181.008 366.603 180.575 367.316 180.575H367.653V179.885ZM368.729 178.987C369.001 178.987 369.226 178.762 369.226 178.49C369.226 178.209 369.001 177.993 368.729 177.993C368.456 177.993 368.232 178.209 368.232 178.49C368.232 178.762 368.456 178.987 368.729 178.987ZM368.36 183.838H369.114V179.917H368.36V183.838ZM369.951 181.881C369.951 183.116 370.713 183.934 371.868 183.934C372.814 183.934 373.543 183.365 373.696 182.515H372.942C372.806 182.98 372.405 183.261 371.868 183.261C371.154 183.261 370.697 182.715 370.697 181.873C370.697 181.024 371.186 180.478 371.9 180.478C372.405 180.478 372.806 180.743 372.934 181.24H373.688C373.552 180.366 372.862 179.805 371.876 179.805C370.729 179.805 369.951 180.655 369.951 181.881ZM376.183 183.934C377.153 183.934 377.811 183.461 378.003 182.619H377.297C377.169 183.068 376.784 183.309 376.199 183.309C375.453 183.309 375.02 182.852 374.964 182.026L377.995 182.018V181.737C377.995 180.575 377.265 179.805 376.151 179.805C375.012 179.805 374.234 180.655 374.234 181.881C374.234 183.1 375.028 183.934 376.183 183.934ZM376.151 180.438C376.816 180.438 377.241 180.871 377.241 181.521H374.98C375.076 180.831 375.493 180.438 376.151 180.438ZM379.478 180.927C379.783 180.927 380.048 180.671 380.048 180.374C380.048 180.061 379.783 179.805 379.478 179.805C379.166 179.805 378.901 180.061 378.901 180.374C378.901 180.671 379.166 180.927 379.478 180.927ZM379.478 183.934C379.783 183.934 380.048 183.678 380.048 183.373C380.048 183.06 379.783 182.804 379.478 182.804C379.166 182.804 378.901 183.06 378.901 183.373C378.901 183.678 379.166 183.934 379.478 183.934Z" fill="white"/>
<rect x="390.098" y="177.754" width="83.8253" height="5.10241" rx="2.5512" fill="#DAFFEE" fill-opacity="0.16"/>
<line x1="483.037" y1="179.94" x2="531.874" y2="179.94" stroke="#4CF3A8" stroke-opacity="0.12" stroke-width="0.728916"/>
<rect x="86.8672" y="203.265" width="400.904" height="91.1145" rx="8.74699" fill="#DAFFEE" fill-opacity="0.06"/>
<path d="M106.618 227.178L103.749 222.093H105.231L107.003 225.335C107.058 225.436 107.108 225.537 107.155 225.638C107.202 225.732 107.248 225.825 107.295 225.918C107.334 225.848 107.365 225.786 107.388 225.732C107.412 225.677 107.435 225.619 107.458 225.557C107.489 225.495 107.532 225.417 107.586 225.324L109.348 222.093H110.794L107.936 227.178V230.572H106.618V227.178ZM110.134 227.703C110.134 227.104 110.263 226.579 110.519 226.128C110.784 225.677 111.145 225.324 111.604 225.067C112.063 224.81 112.583 224.682 113.167 224.682C113.75 224.682 114.267 224.81 114.718 225.067C115.169 225.324 115.526 225.677 115.791 226.128C116.055 226.579 116.187 227.104 116.187 227.703C116.187 228.294 116.055 228.815 115.791 229.266C115.526 229.717 115.169 230.07 114.718 230.327C114.267 230.583 113.75 230.712 113.167 230.712C112.583 230.712 112.063 230.583 111.604 230.327C111.145 230.07 110.784 229.717 110.519 229.266C110.263 228.815 110.134 228.294 110.134 227.703ZM111.394 227.691C111.394 228.064 111.468 228.395 111.615 228.682C111.771 228.962 111.981 229.184 112.245 229.347C112.51 229.503 112.817 229.58 113.167 229.58C113.509 229.58 113.812 229.503 114.076 229.347C114.341 229.184 114.547 228.962 114.694 228.682C114.842 228.395 114.916 228.064 114.916 227.691C114.916 227.318 114.842 226.991 114.694 226.711C114.547 226.432 114.341 226.214 114.076 226.058C113.812 225.895 113.509 225.813 113.167 225.813C112.817 225.813 112.51 225.895 112.245 226.058C111.981 226.214 111.771 226.432 111.615 226.711C111.468 226.991 111.394 227.318 111.394 227.691ZM121.134 224.845H122.394V230.572H121.239L121.123 229.755C120.959 230.043 120.703 230.276 120.353 230.455C120.011 230.634 119.637 230.723 119.233 230.723C118.572 230.723 118.059 230.513 117.694 230.094C117.328 229.674 117.146 229.114 117.146 228.414V224.834H118.405V227.983C118.405 228.558 118.518 228.97 118.743 229.219C118.969 229.468 119.288 229.592 119.7 229.592C120.174 229.592 120.532 229.448 120.773 229.161C121.014 228.873 121.134 228.438 121.134 227.854V224.845ZM126.74 227.574C126.74 227.022 126.853 226.529 127.078 226.093C127.304 225.658 127.619 225.312 128.023 225.055C128.435 224.799 128.913 224.67 129.458 224.67C129.963 224.67 130.394 224.787 130.752 225.02C131.11 225.246 131.359 225.561 131.499 225.965L131.359 226.105L131.475 224.845H132.63V230.304C132.63 230.926 132.509 231.462 132.268 231.913C132.027 232.372 131.685 232.722 131.242 232.963C130.807 233.211 130.29 233.336 129.691 233.336C128.89 233.336 128.229 233.122 127.708 232.694C127.195 232.267 126.888 231.684 126.787 230.945H128.058C128.112 231.342 128.284 231.649 128.571 231.866C128.859 232.092 129.228 232.205 129.679 232.205C130.2 232.205 130.612 232.049 130.915 231.738C131.219 231.435 131.37 231.031 131.37 230.525V228.997L131.534 229.149C131.386 229.545 131.121 229.86 130.74 230.094C130.359 230.327 129.916 230.443 129.411 230.443C128.874 230.443 128.404 230.319 128 230.07C127.603 229.814 127.292 229.472 127.067 229.044C126.849 228.609 126.74 228.119 126.74 227.574ZM128.011 227.539C128.011 227.882 128.077 228.189 128.21 228.461C128.342 228.725 128.532 228.939 128.781 229.102C129.03 229.258 129.322 229.336 129.656 229.336C129.998 229.336 130.293 229.262 130.542 229.114C130.799 228.958 130.993 228.745 131.125 228.473C131.265 228.2 131.335 227.889 131.335 227.539C131.335 227.19 131.269 226.882 131.137 226.618C131.005 226.354 130.814 226.148 130.566 226C130.317 225.845 130.013 225.767 129.656 225.767C129.314 225.767 129.018 225.848 128.769 226.012C128.528 226.167 128.342 226.377 128.21 226.641C128.077 226.906 128.011 227.205 128.011 227.539ZM136.682 230.723C136.114 230.723 135.613 230.595 135.177 230.339C134.75 230.082 134.412 229.728 134.163 229.277C133.922 228.818 133.801 228.294 133.801 227.703C133.801 227.104 133.918 226.579 134.151 226.128C134.392 225.677 134.727 225.324 135.154 225.067C135.582 224.803 136.075 224.67 136.635 224.67C137.195 224.67 137.677 224.791 138.081 225.032C138.494 225.265 138.812 225.6 139.038 226.035C139.271 226.463 139.388 226.968 139.388 227.551V227.971L134.466 227.983L134.489 227.166H138.128C138.128 226.723 137.992 226.373 137.72 226.117C137.456 225.852 137.094 225.72 136.635 225.72C136.285 225.72 135.986 225.794 135.737 225.942C135.496 226.089 135.31 226.311 135.177 226.606C135.053 226.894 134.991 227.248 134.991 227.668C134.991 228.321 135.135 228.818 135.422 229.161C135.718 229.503 136.145 229.674 136.705 229.674C137.11 229.674 137.444 229.596 137.708 229.441C137.973 229.285 138.144 229.056 138.221 228.752H139.399C139.267 229.367 138.96 229.849 138.478 230.199C138.004 230.548 137.405 230.723 136.682 230.723ZM139.923 224.845H143.41V225.895H139.923V224.845ZM142.291 230.572H141.043V223.049H142.291V230.572Z" fill="#B8FFDF"/>
<path d="M311.152 225.73V228.301H312.01V225.73L314.135 221.977H313.199L311.8 224.505C311.686 224.715 311.668 224.767 311.59 224.925C311.52 224.776 311.467 224.654 311.38 224.505L309.972 221.977H309.009L311.152 225.73ZM313.679 226.158C313.679 227.479 314.623 228.406 315.909 228.406C317.186 228.406 318.131 227.479 318.131 226.158C318.131 224.837 317.186 223.91 315.909 223.91C314.623 223.91 313.679 224.837 313.679 226.158ZM314.51 226.158C314.51 225.266 315.078 224.645 315.909 224.645C316.731 224.645 317.309 225.266 317.309 226.158C317.309 227.05 316.731 227.671 315.909 227.671C315.078 227.671 314.51 227.05 314.51 226.158ZM321.895 224.024V226.281C321.895 227.199 321.484 227.68 320.732 227.68C320.102 227.68 319.708 227.33 319.708 226.412V224.024H318.886V226.683C318.886 227.733 319.446 228.406 320.443 228.406C321.073 228.406 321.641 228.1 321.886 227.654L321.974 228.301H322.708V224.024H321.895ZM326.351 223.989C326.184 223.954 326.062 223.937 325.913 223.937C325.327 223.937 324.899 224.234 324.724 224.68L324.671 224.033H323.901V228.301H324.724V226.036C324.724 225.214 325.205 224.741 325.983 224.741H326.351V223.989ZM330.257 228.301L330.318 227.523C330.598 228.109 331.167 228.406 331.84 228.406C333.082 228.406 333.852 227.479 333.852 226.184C333.852 224.864 333.117 223.902 331.893 223.902C331.193 223.902 330.616 224.199 330.336 224.759V221.863H329.513V228.301H330.257ZM330.344 226.15C330.344 225.275 330.852 224.645 331.691 224.645C332.531 224.645 333.03 225.275 333.03 226.15C333.03 227.033 332.531 227.663 331.691 227.663C330.852 227.663 330.344 227.042 330.344 226.15ZM336.009 228.406C336.7 228.406 337.286 228.1 337.505 227.61L337.592 228.301H338.292V225.616C338.292 224.461 337.575 223.902 336.516 223.902C335.414 223.902 334.68 224.488 334.68 225.38H335.397C335.397 224.864 335.79 224.558 336.481 224.558C337.059 224.558 337.487 224.811 337.487 225.528V225.651L336.14 225.756C335.134 225.835 334.548 226.324 334.548 227.112C334.548 227.89 335.091 228.406 336.009 228.406ZM336.245 227.768C335.712 227.768 335.379 227.54 335.379 227.085C335.379 226.666 335.677 226.386 336.403 226.316L337.496 226.228V226.456C337.496 227.26 337.024 227.768 336.245 227.768ZM340.27 228.301V221.863H339.448V228.301H340.27ZM342.732 228.406C343.423 228.406 344.009 228.1 344.227 227.61L344.315 228.301H345.015V225.616C345.015 224.461 344.297 223.902 343.239 223.902C342.137 223.902 341.402 224.488 341.402 225.38H342.119C342.119 224.864 342.513 224.558 343.204 224.558C343.781 224.558 344.21 224.811 344.21 225.528V225.651L342.863 225.756C341.857 225.835 341.271 226.324 341.271 227.112C341.271 227.89 341.813 228.406 342.732 228.406ZM342.968 227.768C342.434 227.768 342.102 227.54 342.102 227.085C342.102 226.666 342.399 226.386 343.125 226.316L344.219 226.228V226.456C344.219 227.26 343.746 227.768 342.968 227.768ZM346.975 228.301V226.036C346.975 225.205 347.422 224.654 348.191 224.654C348.821 224.654 349.223 225.004 349.223 225.87V228.301H350.046V225.686C350.046 224.593 349.53 223.902 348.401 223.902C347.798 223.902 347.255 224.19 346.984 224.68L346.897 224.024H346.153V228.301H346.975ZM350.905 226.167C350.905 227.514 351.736 228.406 352.995 228.406C354.027 228.406 354.823 227.785 354.989 226.858H354.167C354.018 227.365 353.581 227.671 352.995 227.671C352.217 227.671 351.718 227.077 351.718 226.158C351.718 225.231 352.252 224.636 353.03 224.636C353.581 224.636 354.018 224.925 354.158 225.467H354.981C354.832 224.514 354.08 223.902 353.004 223.902C351.753 223.902 350.905 224.829 350.905 226.167ZM357.703 228.406C358.761 228.406 359.478 227.89 359.688 226.972H358.918C358.778 227.462 358.359 227.724 357.72 227.724C356.907 227.724 356.434 227.225 356.373 226.324L359.679 226.316V226.01C359.679 224.741 358.883 223.902 357.668 223.902C356.425 223.902 355.577 224.829 355.577 226.167C355.577 227.497 356.443 228.406 357.703 228.406ZM357.668 224.593C358.394 224.593 358.857 225.065 358.857 225.773H356.39C356.495 225.021 356.95 224.593 357.668 224.593ZM361.297 225.126C361.63 225.126 361.919 224.846 361.919 224.523C361.919 224.181 361.63 223.902 361.297 223.902C360.956 223.902 360.668 224.181 360.668 224.523C360.668 224.846 360.956 225.126 361.297 225.126ZM361.297 228.406C361.63 228.406 361.919 228.126 361.919 227.794C361.919 227.453 361.63 227.173 361.297 227.173C360.956 227.173 360.668 227.453 360.668 227.794C360.668 228.126 360.956 228.406 361.297 228.406Z" fill="white" fill-opacity="0.7"/>
<rect x="370.092" y="222.75" width="83.8253" height="5.10241" rx="2.5512" fill="#DAFFEE" fill-opacity="0.16"/>
<rect x="457.562" y="219.923" width="13.4444" height="10.7556" rx="5.37778" fill="white" fill-opacity="0.06"/>
<g clip-path="url(#clip3_606_5134)">
<circle cx="120.399" cy="260.12" r="14.5783" fill="url(#paint4_linear_606_5134)"/>
<path d="M124.566 253.1L120.004 257.281C119.534 257.713 118.919 257.954 118.28 257.957L116.92 257.96L116.915 253.1H114.457V266.988H115.798C116.167 266.989 116.53 266.892 116.85 266.705C117.169 266.519 117.432 266.251 117.614 265.929C117.617 265.925 117.618 265.92 117.621 265.917C117.864 265.476 117.986 264.605 117.963 264.01C117.91 262.649 117.693 262.296 117.693 262.296C117.648 263.228 116.682 263.278 116.682 263.278C117.369 262.617 116.995 262.117 116.995 262.117C115.779 262.99 115.475 262.058 115.452 261.973C115.489 262.006 115.836 262.297 116.493 261.389C117.188 260.428 118.115 258.827 118.705 258.416C119.296 258.003 119.856 258.037 119.856 258.037C119.856 258.037 120.179 257.596 121.033 257.229C121.886 256.865 122.434 257.399 122.434 257.399C121.561 258.109 120.376 259.275 120.309 260.946C120.257 262.299 123.146 264.619 122.639 268.047C122.943 267.268 123.064 266.488 122.961 265.524C122.877 264.745 122.38 263.119 122.38 263.119L125.155 266.987H128.223L122.226 258.674L128.223 253.1H124.566H124.566Z" fill="white"/>
<path d="M118.979 259.08C118.785 259.404 118.785 259.503 118.785 259.503C118.785 259.503 119.463 259.388 119.646 258.576C119.648 258.576 119.213 258.688 118.979 259.08Z" fill="white"/>
</g>
<path d="M142.694 250.594H140.646V262.29H142.694V259.794L144.63 257.314L147.526 262.29H149.894L145.974 255.586L149.846 250.594H147.43L142.694 256.738V250.594ZM153.256 262.498C154.488 262.498 155.56 261.938 155.896 261.122L156.04 262.29H157.752V257.49C157.752 255.298 156.44 254.146 154.312 254.146C152.168 254.146 150.76 255.266 150.76 256.978H152.424C152.424 256.146 153.064 255.666 154.216 255.666C155.208 255.666 155.848 256.098 155.848 257.17V257.346L153.48 257.522C151.608 257.666 150.552 258.578 150.552 260.034C150.552 261.522 151.576 262.498 153.256 262.498ZM153.896 261.026C153.016 261.026 152.536 260.674 152.536 259.954C152.536 259.314 153 258.914 154.216 258.802L155.864 258.674V259.09C155.864 260.306 155.096 261.026 153.896 261.026ZM164.63 254.354C164.31 254.274 164.038 254.242 163.766 254.242C162.71 254.242 161.958 254.77 161.622 255.554L161.51 254.402H159.67V262.29H161.622V258.45C161.622 256.914 162.502 256.162 163.91 256.162H164.63V254.354Z" fill="white"/>
<g clip-path="url(#clip4_606_5134)">
<path d="M140.942 263.421H140.084V269.745H140.942V268.293L142.096 266.832L143.819 269.745H144.816L142.665 266.106L144.781 263.421H143.758L140.942 267.007V263.421ZM146.688 269.85C147.379 269.85 147.965 269.544 148.183 269.054L148.271 269.745H148.971V267.06C148.971 265.905 148.253 265.345 147.195 265.345C146.093 265.345 145.358 265.931 145.358 266.824H146.075C146.075 266.308 146.469 266.001 147.16 266.001C147.737 266.001 148.166 266.255 148.166 266.972V267.095L146.819 267.2C145.813 267.278 145.227 267.768 145.227 268.556C145.227 269.334 145.769 269.85 146.688 269.85ZM146.924 269.212C146.39 269.212 146.058 268.984 146.058 268.529C146.058 268.109 146.355 267.83 147.081 267.76L148.175 267.672V267.9C148.175 268.704 147.702 269.212 146.924 269.212ZM152.559 265.433C152.392 265.398 152.27 265.38 152.121 265.38C151.535 265.38 151.107 265.678 150.932 266.124L150.879 265.477H150.109V269.745H150.932V267.48C150.932 266.657 151.413 266.185 152.191 266.185H152.559V265.433ZM156.286 265.468V267.725C156.286 268.643 155.875 269.124 155.123 269.124C154.493 269.124 154.099 268.774 154.099 267.856V265.468H153.277V268.127C153.277 269.177 153.837 269.85 154.834 269.85C155.464 269.85 156.033 269.544 156.277 269.098L156.365 269.745H157.1V265.468H156.286ZM160.742 265.433C160.576 265.398 160.453 265.38 160.304 265.38C159.718 265.38 159.29 265.678 159.115 266.124L159.062 265.477H158.293V269.745H159.115V267.48C159.115 266.657 159.596 266.185 160.374 266.185H160.742V265.433ZM162.593 269.85C163.284 269.85 163.87 269.544 164.089 269.054L164.176 269.745H164.876V267.06C164.876 265.905 164.159 265.345 163.1 265.345C161.998 265.345 161.263 265.931 161.263 266.824H161.981C161.981 266.308 162.374 266.001 163.065 266.001C163.643 266.001 164.071 266.255 164.071 266.972V267.095L162.724 267.2C161.718 267.278 161.132 267.768 161.132 268.556C161.132 269.334 161.674 269.85 162.593 269.85ZM162.829 269.212C162.295 269.212 161.963 268.984 161.963 268.529C161.963 268.109 162.26 267.83 162.986 267.76L164.08 267.672V267.9C164.08 268.704 163.608 269.212 162.829 269.212Z" fill="#ACB2B5"/>
</g>
<path d="M172.881 258.112C172.899 258.051 172.915 257.988 172.935 257.926C172.989 257.765 173.08 257.621 173.202 257.505C173.324 257.388 173.473 257.305 173.635 257.261C173.797 257.217 173.967 257.214 174.13 257.253C174.293 257.292 174.444 257.371 174.57 257.483C174.607 257.516 174.642 257.551 174.676 257.586L177.524 260.466C177.55 260.492 177.573 260.522 177.603 260.557C177.638 260.524 177.664 260.499 177.689 260.474L180.576 257.555C180.754 257.35 181.005 257.225 181.274 257.207C181.543 257.189 181.808 257.28 182.011 257.46C182.213 257.639 182.337 257.893 182.355 258.165C182.372 258.437 182.282 258.705 182.105 258.91C182.073 258.948 182.039 258.984 182.005 259.02L178.366 262.698C178.219 262.864 178.022 262.976 177.805 263.018C177.589 263.06 177.364 263.028 177.167 262.929C177.057 262.873 176.957 262.799 176.871 262.711C175.647 261.479 174.425 260.245 173.204 259.009C173.041 258.839 172.928 258.626 172.881 258.394V258.112Z" fill="white"/>
<rect x="206.41" y="240.439" width="264.596" height="39.3614" rx="6.56024" fill="#DAFFEE" fill-opacity="0.06"/>
<path d="M377.367 258.878V257.316H373.378L375.11 255.834C376.567 254.587 377.301 253.577 377.301 252.239C377.301 250.297 376.029 249.129 373.982 249.129C371.948 249.129 370.61 250.494 370.597 252.593H372.263C372.276 251.359 372.932 250.625 373.982 250.625C374.992 250.625 375.583 251.241 375.583 252.33C375.583 253.249 375.15 253.879 373.851 254.981L370.715 257.631V258.891L377.367 258.878ZM378.389 256.175C378.389 257.92 379.819 259.048 382.036 259.048C384.267 259.048 385.697 257.907 385.697 256.175C385.697 255.02 385.041 254.089 384.03 253.734C384.883 253.38 385.356 252.658 385.356 251.727C385.356 250.166 384.03 249.129 382.062 249.129C380.081 249.129 378.73 250.179 378.73 251.701C378.73 252.632 379.189 253.354 380.029 253.734C379.032 254.115 378.389 255.033 378.389 256.175ZM380.252 251.845C380.252 251.058 380.947 250.559 382.036 250.559C383.112 250.559 383.794 251.058 383.794 251.858C383.794 252.658 383.112 253.157 382.036 253.157C380.947 253.157 380.252 252.645 380.252 251.845ZM380.029 256.057C380.029 255.125 380.803 254.548 382.036 254.548C383.269 254.548 384.044 255.125 384.044 256.057C384.044 256.988 383.269 257.565 382.049 257.565C380.803 257.565 380.029 256.988 380.029 256.057ZM390.062 259.048C392.201 259.048 393.657 257.631 393.657 255.558C393.657 253.669 392.384 252.37 390.469 252.37C389.813 252.37 389.236 252.54 388.776 252.842L389.288 250.848H393.08V249.3H388.081L386.9 254.325L388.383 254.64C388.724 254.141 389.393 253.774 390.128 253.774C391.282 253.774 391.951 254.535 391.951 255.65C391.951 256.818 391.23 257.552 390.102 257.552C389.039 257.552 388.396 256.909 388.396 255.82H386.73C386.73 257.762 388.055 259.048 390.062 259.048ZM397.929 259.048C400.068 259.048 401.524 257.631 401.524 255.558C401.524 253.669 400.252 252.37 398.336 252.37C397.68 252.37 397.103 252.54 396.644 252.842L397.155 250.848H400.947V249.3H395.948L394.767 254.325L396.25 254.64C396.591 254.141 397.26 253.774 397.995 253.774C399.15 253.774 399.819 254.535 399.819 255.65C399.819 256.818 399.097 257.552 397.969 257.552C396.906 257.552 396.263 256.909 396.263 255.82H394.597C394.597 257.762 395.922 259.048 397.929 259.048ZM403.623 259.048C404.201 259.048 404.686 258.576 404.686 258.012C404.686 257.434 404.201 256.962 403.623 256.962C403.046 256.962 402.561 257.434 402.561 258.012C402.561 258.576 403.046 259.048 403.623 259.048ZM412.795 258.878V257.316H408.806L410.538 255.834C411.994 254.587 412.729 253.577 412.729 252.239C412.729 250.297 411.457 249.129 409.41 249.129C407.376 249.129 406.038 250.494 406.025 252.593H407.691C407.704 251.359 408.36 250.625 409.41 250.625C410.42 250.625 411.01 251.241 411.01 252.33C411.01 253.249 410.577 253.879 409.279 254.981L406.143 257.631V258.891L412.795 258.878ZM421.115 257.067V255.597H419.947V249.3H417.835L413.492 255.597V257.067H418.36V258.891H419.947V257.067H421.115ZM415.276 255.597L418.36 251.11V255.597H415.276ZM423.369 252.12C422.293 253.577 421.912 254.417 421.912 255.571C421.912 257.539 423.461 259.061 425.534 259.061C427.58 259.061 429.102 257.631 429.102 255.584C429.102 253.642 427.764 252.252 425.783 252.252C425.547 252.252 425.298 252.291 425.061 252.357L427.357 249.3H425.442L423.369 252.12ZM423.631 255.584C423.631 254.43 424.392 253.629 425.534 253.629C426.636 253.629 427.41 254.43 427.41 255.584C427.41 256.752 426.623 257.565 425.534 257.565C424.405 257.565 423.631 256.752 423.631 255.584ZM435.855 249.3H434.175V258.891H435.855V256.844L437.442 254.81L439.817 258.891H441.759L438.545 253.393L441.72 249.3H439.739L435.855 254.338V249.3ZM443.843 258.891L444.617 256.673H448.199L448.973 258.891H450.744L447.281 249.3H445.562L442.098 258.891H443.843ZM446.205 252.16C446.297 251.897 446.375 251.609 446.415 251.425C446.441 251.622 446.533 251.911 446.611 252.16L447.714 255.256H445.116L446.205 252.16ZM453.626 258.891V255.309H455.686L457.313 258.891H459.15L457.326 254.954C458.455 254.495 459.058 253.577 459.058 252.291C459.058 250.402 457.786 249.3 455.608 249.3H451.947V258.891H453.626ZM453.626 250.795H455.608C456.67 250.795 457.3 251.333 457.3 252.291C457.3 253.262 456.67 253.826 455.608 253.826H453.626V250.795Z" fill="white"/>
<path d="M415.719 268.843H416.339C416.339 269.076 416.298 269.285 416.215 269.469C416.137 269.649 416.026 269.793 415.88 269.899C415.734 270.002 415.559 270.053 415.355 270.053C415.18 270.053 415.017 270.023 414.867 269.965C414.721 269.902 414.582 269.831 414.451 269.754C414.325 269.671 414.201 269.601 414.079 269.542C413.963 269.479 413.846 269.448 413.73 269.448C413.579 269.448 413.472 269.496 413.409 269.593C413.346 269.686 413.314 269.817 413.314 269.987H412.694C412.694 269.759 412.733 269.557 412.811 269.382C412.894 269.202 413.008 269.061 413.154 268.959C413.304 268.857 413.479 268.806 413.678 268.806C413.844 268.806 413.997 268.838 414.138 268.901C414.283 268.959 414.422 269.03 414.553 269.112C414.684 269.19 414.811 269.26 414.932 269.324C415.054 269.382 415.178 269.411 415.304 269.411C415.455 269.411 415.562 269.363 415.625 269.265C415.688 269.163 415.719 269.022 415.719 268.843ZM415.719 270.264H416.339C416.339 270.497 416.298 270.706 416.215 270.891C416.137 271.071 416.026 271.214 415.88 271.321C415.734 271.423 415.559 271.474 415.355 271.474C415.18 271.474 415.017 271.445 414.867 271.386C414.721 271.323 414.582 271.253 414.451 271.175C414.325 271.092 414.201 271.022 414.079 270.964C413.963 270.901 413.846 270.869 413.73 270.869C413.579 270.869 413.472 270.918 413.409 271.015C413.346 271.107 413.314 271.238 413.314 271.408H412.694C412.694 271.18 412.733 270.978 412.811 270.803C412.894 270.624 413.008 270.483 413.154 270.381C413.304 270.274 413.479 270.22 413.678 270.22C413.844 270.22 413.997 270.252 414.138 270.315C414.283 270.378 414.422 270.451 414.553 270.534C414.684 270.611 414.811 270.682 414.932 270.745C415.054 270.803 415.178 270.832 415.304 270.832C415.455 270.832 415.562 270.784 415.625 270.687C415.688 270.585 415.719 270.444 415.719 270.264ZM419.223 270.862C419.223 270.502 419.332 270.191 419.551 269.929C419.77 269.666 420.059 269.501 420.418 269.433L420.426 269.601C420.105 269.513 419.855 269.363 419.675 269.149C419.5 268.93 419.412 268.668 419.412 268.361C419.412 268.08 419.488 267.834 419.638 267.625C419.794 267.416 420.005 267.254 420.273 267.137C420.545 267.015 420.861 266.955 421.22 266.955C421.575 266.955 421.886 267.013 422.153 267.13C422.42 267.246 422.627 267.411 422.773 267.625C422.923 267.839 422.999 268.089 422.999 268.376C422.999 268.682 422.911 268.942 422.736 269.156C422.561 269.37 422.314 269.516 421.993 269.593L421.986 269.44C422.228 269.479 422.44 269.564 422.62 269.695C422.804 269.827 422.945 269.992 423.042 270.191C423.144 270.39 423.196 270.614 423.196 270.862C423.196 271.178 423.113 271.454 422.948 271.693C422.782 271.926 422.552 272.108 422.255 272.239C421.959 272.371 421.611 272.436 421.213 272.436C420.81 272.436 420.46 272.373 420.163 272.247C419.867 272.115 419.636 271.931 419.471 271.693C419.306 271.454 419.223 271.178 419.223 270.862ZM420.032 270.803C420.032 270.988 420.081 271.148 420.178 271.284C420.275 271.416 420.411 271.52 420.586 271.598C420.766 271.671 420.975 271.707 421.213 271.707C421.451 271.707 421.658 271.671 421.832 271.598C422.007 271.52 422.143 271.416 422.241 271.284C422.338 271.148 422.386 270.988 422.386 270.803C422.386 270.531 422.28 270.315 422.066 270.155C421.852 269.989 421.565 269.907 421.206 269.907C420.846 269.907 420.559 269.989 420.345 270.155C420.137 270.315 420.032 270.531 420.032 270.803ZM420.171 268.427C420.171 268.665 420.263 268.857 420.448 269.003C420.637 269.144 420.89 269.214 421.206 269.214C421.521 269.214 421.772 269.144 421.956 269.003C422.141 268.862 422.233 268.672 422.233 268.434C422.233 268.196 422.141 268.009 421.956 267.873C421.772 267.732 421.521 267.662 421.206 267.662C420.89 267.662 420.637 267.732 420.448 267.873C420.263 268.009 420.171 268.194 420.171 268.427ZM425.637 272.436C425.272 272.436 424.951 272.363 424.674 272.217C424.402 272.072 424.191 271.868 424.04 271.605C423.894 271.338 423.822 271.027 423.822 270.672H424.631C424.631 270.993 424.721 271.246 424.9 271.43C425.085 271.61 425.335 271.7 425.651 271.7C425.875 271.7 426.067 271.654 426.227 271.561C426.392 271.469 426.521 271.34 426.613 271.175C426.706 271.005 426.752 270.806 426.752 270.577C426.752 270.359 426.708 270.167 426.621 270.002C426.533 269.836 426.409 269.708 426.249 269.615C426.088 269.518 425.892 269.469 425.658 269.469C425.449 269.469 425.253 269.516 425.068 269.608C424.883 269.7 424.738 269.819 424.631 269.965L423.916 269.797L424.565 267.049H427.269V267.807H424.915L425.236 267.516L424.776 269.345L424.499 269.433C424.626 269.219 424.806 269.056 425.039 268.945C425.272 268.828 425.534 268.77 425.826 268.77C426.181 268.77 426.489 268.845 426.752 268.996C427.019 269.146 427.226 269.355 427.371 269.622C427.517 269.89 427.59 270.196 427.59 270.541C427.59 270.915 427.507 271.246 427.342 271.532C427.177 271.814 426.949 272.035 426.657 272.196C426.365 272.356 426.025 272.436 425.637 272.436ZM429.979 272.436C429.614 272.436 429.294 272.363 429.017 272.217C428.744 272.072 428.533 271.868 428.382 271.605C428.237 271.338 428.164 271.027 428.164 270.672H428.973C428.973 270.993 429.063 271.246 429.242 271.43C429.427 271.61 429.677 271.7 429.993 271.7C430.217 271.7 430.409 271.654 430.569 271.561C430.734 271.469 430.863 271.34 430.955 271.175C431.048 271.005 431.094 270.806 431.094 270.577C431.094 270.359 431.05 270.167 430.963 270.002C430.875 269.836 430.751 269.708 430.591 269.615C430.431 269.518 430.234 269.469 430.001 269.469C429.792 269.469 429.595 269.516 429.41 269.608C429.225 269.7 429.08 269.819 428.973 269.965L428.258 269.797L428.907 267.049H431.611V267.807H429.257L429.578 267.516L429.119 269.345L428.842 269.433C428.968 269.219 429.148 269.056 429.381 268.945C429.614 268.828 429.877 268.77 430.168 268.77C430.523 268.77 430.832 268.845 431.094 268.996C431.361 269.146 431.568 269.355 431.714 269.622C431.859 269.89 431.932 270.196 431.932 270.541C431.932 270.915 431.85 271.246 431.684 271.532C431.519 271.814 431.291 272.035 430.999 272.196C430.708 272.356 430.367 272.436 429.979 272.436ZM433.078 272.436C432.922 272.436 432.789 272.383 432.677 272.276C432.57 272.169 432.516 272.042 432.516 271.897C432.516 271.741 432.57 271.61 432.677 271.503C432.789 271.396 432.922 271.343 433.078 271.343C433.228 271.343 433.357 271.396 433.464 271.503C433.576 271.61 433.632 271.741 433.632 271.897C433.632 272.042 433.576 272.169 433.464 272.276C433.357 272.383 433.228 272.436 433.078 272.436ZM438.065 272.341L434.442 272.349V271.722L436.162 270.257C436.362 270.091 436.527 269.941 436.658 269.805C436.789 269.669 436.894 269.542 436.972 269.426C437.049 269.309 437.105 269.192 437.139 269.076C437.173 268.954 437.19 268.828 437.19 268.697C437.19 268.381 437.105 268.135 436.935 267.961C436.77 267.781 436.539 267.691 436.243 267.691C435.932 267.691 435.684 267.795 435.499 268.004C435.319 268.208 435.225 268.49 435.215 268.85H434.398C434.403 268.466 434.484 268.133 434.639 267.851C434.795 267.565 435.008 267.343 435.28 267.188C435.557 267.032 435.878 266.955 436.243 266.955C436.612 266.955 436.928 267.023 437.19 267.159C437.458 267.295 437.664 267.489 437.81 267.742C437.956 267.995 438.028 268.296 438.028 268.646C438.028 268.83 438.004 269.008 437.956 269.178C437.907 269.343 437.832 269.506 437.73 269.666C437.628 269.827 437.496 269.992 437.336 270.162C437.181 270.327 436.991 270.504 436.767 270.694L435.434 271.838L435.149 271.576H438.065V272.341ZM441.967 267.049V272.349H441.18V267.049H441.967ZM438.469 270.585L440.918 267.049H441.792L439.314 270.636L438.469 270.585ZM442.602 271.314H438.469V270.585H442.602V271.314ZM445.46 270.439V267.049H446.283V270.388C446.283 270.791 446.39 271.1 446.604 271.314C446.818 271.527 447.124 271.634 447.523 271.634C447.916 271.634 448.22 271.527 448.434 271.314C448.648 271.095 448.754 270.786 448.754 270.388V267.049H449.578V270.439C449.578 270.847 449.495 271.202 449.33 271.503C449.165 271.8 448.927 272.03 448.616 272.196C448.31 272.356 447.945 272.436 447.523 272.436C447.1 272.436 446.733 272.356 446.422 272.196C446.116 272.035 445.878 271.804 445.708 271.503C445.542 271.202 445.46 270.847 445.46 270.439ZM450.436 268.5C450.436 268.194 450.514 267.927 450.669 267.698C450.83 267.465 451.048 267.283 451.325 267.151C451.607 267.02 451.93 266.955 452.295 266.955C452.645 266.955 452.948 267.015 453.206 267.137C453.463 267.258 453.665 267.433 453.811 267.662C453.957 267.89 454.037 268.16 454.051 268.471H453.221C453.206 268.223 453.116 268.031 452.951 267.895C452.786 267.759 452.564 267.691 452.288 267.691C451.977 267.691 451.726 267.761 451.537 267.902C451.352 268.043 451.26 268.235 451.26 268.478C451.26 268.677 451.316 268.838 451.427 268.959C451.544 269.081 451.719 269.168 451.952 269.222L452.812 269.418C453.255 269.516 453.585 269.683 453.804 269.921C454.027 270.155 454.139 270.463 454.139 270.847C454.139 271.168 454.059 271.45 453.898 271.693C453.743 271.931 453.522 272.115 453.235 272.247C452.948 272.378 452.613 272.443 452.229 272.443C451.865 272.443 451.544 272.383 451.267 272.261C450.99 272.135 450.774 271.957 450.618 271.729C450.463 271.501 450.38 271.233 450.37 270.927H451.194C451.204 271.165 451.301 271.355 451.486 271.496C451.67 271.632 451.921 271.7 452.236 271.7C452.567 271.7 452.829 271.629 453.024 271.489C453.218 271.348 453.315 271.158 453.315 270.92C453.315 270.721 453.259 270.563 453.148 270.446C453.041 270.325 452.871 270.237 452.637 270.184L451.785 269.994C451.342 269.897 451.007 269.725 450.779 269.477C450.55 269.224 450.436 268.898 450.436 268.5ZM456.829 272.349H455.006V267.049H456.792C457.317 267.049 457.779 267.161 458.177 267.385C458.576 267.608 458.884 267.919 459.103 268.318C459.326 268.716 459.438 269.18 459.438 269.71C459.438 270.23 459.329 270.689 459.11 271.088C458.891 271.481 458.585 271.79 458.192 272.013C457.803 272.237 457.349 272.349 456.829 272.349ZM455.83 267.428V271.977L455.436 271.591H456.763C457.137 271.591 457.458 271.515 457.725 271.365C457.997 271.209 458.206 270.99 458.352 270.709C458.503 270.427 458.578 270.094 458.578 269.71C458.578 269.316 458.503 268.979 458.352 268.697C458.201 268.41 457.988 268.191 457.711 268.041C457.438 267.885 457.11 267.807 456.726 267.807H455.436L455.83 267.428Z" fill="#ACB2B5"/>
<rect x="206.775" y="240.804" width="263.867" height="38.6325" rx="6.19578" stroke="white" stroke-opacity="0.12" stroke-width="0.728916"/>
<rect x="86.8672" y="308.958" width="121" height="8.01807" rx="4.00904" fill="#DAFFEE" fill-opacity="0.06"/>
<rect x="424.355" y="308.958" width="63.4157" height="8.01807" rx="4.00904" fill="#4CF3A8" fill-opacity="0.12"/>
<line x1="86.8672" y1="324.811" x2="487.771" y2="324.811" stroke="white" stroke-opacity="0.12" stroke-width="0.364458"/>
<rect x="86.8672" y="333.012" width="61.2289" height="8.01807" rx="4.00904" fill="#DAFFEE" fill-opacity="0.06"/>
<rect x="447.68" y="333.012" width="40.0904" height="8.01807" rx="4.00904" fill="#4CF3A8" fill-opacity="0.12"/>
<line x1="86.8672" y1="348.866" x2="487.771" y2="348.866" stroke="white" stroke-opacity="0.12" stroke-width="0.364458"/>
<rect x="86.8672" y="357.066" width="91.8434" height="8.01807" rx="4.00904" fill="#DAFFEE" fill-opacity="0.06"/>
<rect x="424.355" y="357.066" width="63.4157" height="8.01807" rx="4.00904" fill="#4CF3A8" fill-opacity="0.12"/>
<line x1="86.8672" y1="372.92" x2="487.771" y2="372.92" stroke="white" stroke-opacity="0.12" stroke-width="0.364458"/>
<rect x="86.8672" y="381.121" width="150.886" height="8.01807" rx="4.00904" fill="#DAFFEE" fill-opacity="0.06"/>
<rect x="399.572" y="381.121" width="88.1988" height="8.01807" rx="4.00904" fill="#4CF3A8" fill-opacity="0.12"/>
<line x1="86.8672" y1="396.975" x2="487.771" y2="396.975" stroke="white" stroke-opacity="0.12" stroke-width="0.364458"/>
<rect x="86.8672" y="405.175" width="56.1265" height="8.01807" rx="4.00904" fill="#DAFFEE" fill-opacity="0.06"/>
<rect x="450.596" y="405.175" width="37.1747" height="8.01807" rx="4.00904" fill="#4CF3A8" fill-opacity="0.12"/>
<circle cx="474.651" cy="36.3442" r="14.8232" fill="white" fill-opacity="0.06"/>
<path d="M481.983 32.9879H480.121C479.974 32.4838 479.667 32.0412 479.246 31.7263C478.825 31.4114 478.314 31.2412 477.789 31.2412C477.263 31.2412 476.752 31.4114 476.331 31.7263C475.911 32.0412 475.604 32.4838 475.456 32.9879H466.603C466.418 32.9879 466.24 33.0615 466.109 33.1925C465.978 33.3236 465.904 33.5013 465.904 33.6865C465.904 33.8718 465.978 34.0495 466.109 34.1805C466.24 34.3116 466.418 34.3852 466.603 34.3852H475.456C475.604 34.8892 475.911 35.3319 476.331 35.6468C476.752 35.9617 477.263 36.1319 477.789 36.1319C478.314 36.1319 478.825 35.9617 479.246 35.6468C479.667 35.3319 479.974 34.8892 480.121 34.3852H481.983C482.168 34.3852 482.346 34.3116 482.477 34.1805C482.608 34.0495 482.682 33.8718 482.682 33.6865C482.682 33.5013 482.608 33.3236 482.477 33.1925C482.346 33.0615 482.168 32.9879 481.983 32.9879V32.9879ZM477.789 34.7348C477.581 34.7348 477.379 34.6733 477.206 34.5581C477.034 34.4429 476.899 34.2792 476.82 34.0877C476.741 33.8961 476.72 33.6854 476.76 33.482C476.801 33.2787 476.901 33.0919 477.047 32.9453C477.194 32.7987 477.381 32.6989 477.584 32.6584C477.788 32.618 477.998 32.6387 478.19 32.7181C478.382 32.7974 478.545 32.9318 478.661 33.1042C478.776 33.2765 478.837 33.4792 478.837 33.6865C478.837 33.9645 478.726 34.2309 478.53 34.4274C478.333 34.6239 478.067 34.7345 477.789 34.7348V34.7348Z" fill="#9EA9B1"/>
<path d="M481.982 38.5778H473.129C472.981 38.0737 472.674 37.631 472.254 37.3161C471.833 37.0012 471.322 36.8311 470.796 36.8311C470.271 36.8311 469.76 37.0012 469.339 37.3161C468.919 37.631 468.611 38.0737 468.464 38.5778H466.602C466.42 38.5833 466.248 38.6593 466.121 38.7898C465.995 38.9203 465.924 39.0949 465.924 39.2767C465.924 39.4585 465.995 39.6331 466.121 39.7636C466.248 39.8941 466.42 39.9701 466.602 39.9756H468.464C468.611 40.4797 468.919 40.9223 469.339 41.2372C469.76 41.5521 470.271 41.7223 470.796 41.7223C471.322 41.7223 471.833 41.5521 472.254 41.2372C472.674 40.9223 472.981 40.4797 473.129 39.9756H481.982C482.164 39.9701 482.336 39.8941 482.463 39.7636C482.589 39.6331 482.66 39.4585 482.66 39.2767C482.66 39.0949 482.589 38.9203 482.463 38.7898C482.336 38.6593 482.164 38.5833 481.982 38.5778V38.5778ZM470.796 40.3253C470.589 40.3253 470.386 40.2638 470.214 40.1486C470.041 40.0334 469.907 39.8697 469.828 39.6782C469.748 39.4866 469.728 39.2759 469.768 39.0725C469.808 38.8692 469.908 38.6824 470.055 38.5358C470.202 38.3892 470.388 38.2893 470.592 38.2489C470.795 38.2085 471.006 38.2292 471.198 38.3085C471.389 38.3879 471.553 38.5222 471.668 38.6946C471.784 38.867 471.845 39.0697 471.845 39.277C471.845 39.5549 471.734 39.8214 471.538 40.0179C471.341 40.2144 471.074 40.3249 470.796 40.3253V40.3253Z" fill="#9EA9B1"/>
</g>
<rect x="65.4481" y="5.44815" width="443.742" height="483.104" rx="17.4778" stroke="white" stroke-opacity="0.06" stroke-width="0.896296"/>
</g>
<defs>
<filter id="filter0_d_606_5134" x="0.77037" y="0.77037" width="527.098" height="566.459" filterUnits="userSpaceOnUse" color-interpolation-filters="sRGB">
<feFlood flood-opacity="0" result="BackgroundImageFix"/>
<feColorMatrix in="SourceAlpha" type="matrix" values="0 0 0 0 0 0 0 0 0 0 0 0 0 0 0 0 0 0 127 0" result="hardAlpha"/>
<feOffset dx="-23" dy="37"/>
<feGaussianBlur stdDeviation="20.6148"/>
<feComposite in2="hardAlpha" operator="out"/>
<feColorMatrix type="matrix" values="0 0 0 0 0 0 0 0 0 0 0 0 0 0 0 0 0 0 0.26 0"/>
<feBlend mode="normal" in2="BackgroundImageFix" result="effect1_dropShadow_606_5134"/>
<feBlend mode="normal" in="SourceGraphic" in2="effect1_dropShadow_606_5134" result="shape"/>
</filter>
<linearGradient id="paint0_linear_606_5134" x1="287.319" y1="5" x2="287.319" y2="489" gradientUnits="userSpaceOnUse">
<stop stop-color="#1C2527"/>
<stop offset="0.8073" stop-color="#14161A"/>
<stop offset="1" stop-color="#121316"/>
</linearGradient>
<linearGradient id="paint1_linear_606_5134" x1="90.8758" y1="10.1023" x2="208.596" y2="10.1023" gradientUnits="userSpaceOnUse">
<stop stop-color="#FFCE4F"/>
<stop offset="1" stop-color="#4FFFB0"/>
</linearGradient>
<linearGradient id="paint2_linear_606_5134" x1="90.8758" y1="10.1023" x2="208.596" y2="10.1023" gradientUnits="userSpaceOnUse">
<stop stop-color="#4FFFB0"/>
<stop offset="0.505223" stop-color="#A2FF76"/>
<stop offset="1" stop-color="#FF984E"/>
</linearGradient>
<linearGradient id="paint3_linear_606_5134" x1="90.8758" y1="10.1023" x2="208.596" y2="10.1023" gradientUnits="userSpaceOnUse">
<stop stop-color="#4FFFB0"/>
<stop offset="0.463556" stop-color="#B3FF8F"/>
<stop offset="1" stop-color="#FF984E"/>
</linearGradient>
<linearGradient id="paint4_linear_606_5134" x1="149.634" y1="264.618" x2="127.405" y2="238.61" gradientUnits="userSpaceOnUse">
<stop stop-color="#E40C5B"/>
<stop offset="1" stop-color="#FF4C3B"/>
</linearGradient>
<clipPath id="clip0_606_5134">
<rect x="65" y="5" width="444.639" height="484" rx="17.9259" fill="white"/>
</clipPath>
<clipPath id="clip1_606_5134">
<rect x="86.8672" y="66.229" width="400.904" height="91.1145" rx="8.74699" fill="white"/>
</clipPath>
<clipPath id="clip2_606_5134">
<rect width="29.1566" height="10.2048" fill="white" transform="translate(139.35 125.157)"/>
</clipPath>
<clipPath id="clip3_606_5134">
<rect x="105.82" y="245.542" width="29.1566" height="29.1566" rx="14.5783" fill="white"/>
</clipPath>
<clipPath id="clip4_606_5134">
<rect width="29.1566" height="10.2048" fill="white" transform="translate(139.35 261.745)"/>
</clipPath>
</defs>
</svg>
