<svg width="547" height="496" viewBox="0 0 547 496" fill="none" xmlns="http://www.w3.org/2000/svg">
<rect width="547" height="496" rx="35" fill="#1D2325"/>
<rect width="547" height="496" rx="35" fill="url(#paint0_linear_596_4203)" fill-opacity="0.2"/>
<rect width="547" height="496" rx="35" fill="url(#paint1_linear_596_4203)"/>
<mask id="mask0_596_4203" style="mask-type:alpha" maskUnits="userSpaceOnUse" x="-225" y="0" width="910" height="496">
<rect x="-225" width="910" height="496" fill="url(#paint2_linear_596_4203)"/>
</mask>
<g mask="url(#mask0_596_4203)">
<g filter="url(#filter0_d_596_4203)">
<g clip-path="url(#clip0_596_4203)">
<rect x="73" y="45" width="444.639" height="484" rx="17.9259" fill="url(#paint3_linear_596_4203)"/>
<path d="M104.819 69.4532V83.9517H102.388V69.4532H104.819ZM97.7631 70.5502V68.3131H109.465V70.5502H97.7631ZM116.276 73.3252V75.4548H115.351C114.39 75.4548 113.63 75.7201 113.07 76.2507C112.526 76.7813 112.253 77.5629 112.253 78.5954V83.9517H109.951V73.3897H112.124L112.318 75.5623H112.102C112.246 74.8596 112.583 74.286 113.113 73.8414C113.644 73.3969 114.332 73.1746 115.179 73.1746C115.351 73.1746 115.523 73.1889 115.695 73.2176C115.881 73.232 116.075 73.2678 116.276 73.3252ZM120.801 84.2313C119.682 84.2313 118.8 83.9301 118.155 83.3278C117.524 82.7255 117.208 81.944 117.208 80.9831C117.208 80.008 117.545 79.2336 118.219 78.6599C118.908 78.072 119.876 77.7278 121.123 77.6274L124.371 77.3693V77.1111C124.371 76.5662 124.271 76.136 124.07 75.8205C123.869 75.4906 123.597 75.254 123.253 75.1106C122.909 74.9672 122.507 74.8955 122.048 74.8955C121.231 74.8955 120.6 75.0604 120.155 75.3902C119.711 75.7201 119.488 76.1861 119.488 76.7885H117.509C117.509 76.0284 117.696 75.3759 118.069 74.8309C118.456 74.2717 119.001 73.8414 119.703 73.5403C120.406 73.2248 121.224 73.067 122.156 73.067C123.074 73.067 123.862 73.232 124.522 73.5618C125.196 73.8773 125.712 74.3577 126.071 75.003C126.444 75.6484 126.63 76.4586 126.63 77.4338V83.9517H124.629L124.414 82.3168C124.171 82.8904 123.719 83.3565 123.059 83.715C122.4 84.0592 121.647 84.2313 120.801 84.2313ZM121.532 82.4459C122.407 82.4459 123.102 82.1877 123.618 81.6715C124.135 81.1409 124.393 80.431 124.393 79.5419V78.9611L121.941 79.1762C121.08 79.2479 120.464 79.4343 120.091 79.7355C119.732 80.0366 119.553 80.4167 119.553 80.8756C119.553 81.4062 119.725 81.8005 120.069 82.0587C120.413 82.3168 120.901 82.4459 121.532 82.4459ZM133.621 84.2313C132.603 84.2313 131.721 83.9947 130.976 83.5214C130.244 83.0482 129.678 82.4029 129.276 81.5854C128.875 80.7537 128.674 79.7928 128.674 78.7029C128.674 77.6131 128.875 76.6451 129.276 75.7989C129.678 74.9528 130.259 74.286 131.019 73.7984C131.779 73.3108 132.689 73.067 133.751 73.067C134.525 73.067 135.22 73.2248 135.837 73.5403C136.468 73.8558 136.956 74.3147 137.3 74.917V68.0334H139.623V83.9517H137.493L137.343 82.1662C137.013 82.8259 136.511 83.335 135.837 83.6935C135.177 84.052 134.439 84.2313 133.621 84.2313ZM134.116 82.1017C134.776 82.1017 135.335 81.9583 135.794 81.6715C136.267 81.3703 136.633 80.9616 136.891 80.4453C137.149 79.9147 137.278 79.3124 137.278 78.6384C137.278 77.9501 137.149 77.3477 136.891 76.8315C136.633 76.3009 136.267 75.8922 135.794 75.6053C135.335 75.3042 134.776 75.1536 134.116 75.1536C133.471 75.1536 132.912 75.3042 132.438 75.6053C131.979 75.9065 131.621 76.3152 131.363 76.8315C131.119 77.3477 130.997 77.9501 130.997 78.6384C130.997 79.3124 131.119 79.9147 131.363 80.4453C131.621 80.9616 131.979 81.3703 132.438 81.6715C132.912 81.9583 133.471 82.1017 134.116 82.1017ZM147.095 84.2313C146.049 84.2313 145.124 83.9947 144.321 83.5214C143.532 83.0482 142.908 82.3957 142.449 81.5639C142.005 80.7178 141.782 79.7498 141.782 78.6599C141.782 77.5557 141.997 76.5877 142.428 75.7559C142.872 74.9242 143.489 74.2717 144.278 73.7984C145.066 73.3108 145.977 73.067 147.009 73.067C148.042 73.067 148.931 73.2893 149.677 73.7339C150.437 74.1641 151.025 74.7808 151.441 75.5838C151.871 76.3726 152.086 77.3047 152.086 78.3803V79.1547L143.008 79.1762L143.051 77.6704H149.763C149.763 76.853 149.512 76.2077 149.01 75.7344C148.522 75.2468 147.856 75.003 147.009 75.003C146.364 75.003 145.812 75.1393 145.353 75.4117C144.909 75.6842 144.564 76.0929 144.321 76.6379C144.091 77.1685 143.976 77.821 143.976 78.5954C143.976 79.8 144.242 80.7178 144.772 81.3488C145.317 81.9798 146.106 82.2953 147.139 82.2953C147.884 82.2953 148.501 82.1519 148.988 81.8651C149.476 81.5783 149.792 81.1552 149.935 80.5959H152.108C151.864 81.7288 151.297 82.618 150.408 83.2633C149.533 83.9086 148.429 84.2313 147.095 84.2313ZM166.096 69.4532V83.9517H163.665V69.4532H166.096ZM159.04 70.5502V68.3131H170.742V70.5502H159.04ZM170.1 78.6599C170.1 77.5557 170.336 76.5877 170.809 75.7559C171.297 74.9242 171.964 74.2717 172.81 73.7984C173.656 73.3252 174.617 73.0885 175.693 73.0885C176.768 73.0885 177.722 73.3252 178.553 73.7984C179.385 74.2717 180.045 74.9242 180.533 75.7559C181.02 76.5877 181.264 77.5557 181.264 78.6599C181.264 79.7498 181.02 80.7107 180.533 81.5424C180.045 82.3742 179.385 83.0267 178.553 83.4999C177.722 83.9732 176.768 84.2098 175.693 84.2098C174.617 84.2098 173.656 83.9732 172.81 83.4999C171.964 83.0267 171.297 82.3742 170.809 81.5424C170.336 80.7107 170.1 79.7498 170.1 78.6599ZM172.423 78.6384C172.423 79.3268 172.559 79.9363 172.832 80.4669C173.118 80.9831 173.506 81.3918 173.993 81.693C174.481 81.9798 175.047 82.1232 175.693 82.1232C176.323 82.1232 176.883 81.9798 177.37 81.693C177.858 81.3918 178.238 80.9831 178.51 80.4669C178.783 79.9363 178.919 79.3268 178.919 78.6384C178.919 77.9501 178.783 77.3477 178.51 76.8315C178.238 76.3152 177.858 75.9137 177.37 75.6269C176.883 75.3257 176.323 75.1751 175.693 75.1751C175.047 75.1751 174.481 75.3257 173.993 75.6269C173.506 75.9137 173.118 76.3152 172.832 76.8315C172.559 77.3477 172.423 77.9501 172.423 78.6384ZM185.757 83.9517H183.434V68.0334H185.757V78.0791L190.167 73.3897H193.071L189.049 77.5844L193.007 83.9517H190.339L187.435 79.2837L185.757 81.0261V83.9517ZM198.857 84.2313C197.81 84.2313 196.885 83.9947 196.082 83.5214C195.293 83.0482 194.669 82.3957 194.21 81.5639C193.766 80.7178 193.543 79.7498 193.543 78.6599C193.543 77.5557 193.758 76.5877 194.189 75.7559C194.633 74.9242 195.25 74.2717 196.039 73.7984C196.827 73.3108 197.738 73.067 198.771 73.067C199.803 73.067 200.692 73.2893 201.438 73.7339C202.198 74.1641 202.786 74.7808 203.202 75.5838C203.632 76.3726 203.847 77.3047 203.847 78.3803V79.1547L194.769 79.1762L194.813 77.6704H201.524C201.524 76.853 201.273 76.2077 200.771 75.7344C200.284 75.2468 199.617 75.003 198.771 75.003C198.125 75.003 197.573 75.1393 197.114 75.4117C196.67 75.6842 196.325 76.0929 196.082 76.6379C195.852 77.1685 195.737 77.821 195.737 78.5954C195.737 79.8 196.003 80.7178 196.533 81.3488C197.078 81.9798 197.867 82.2953 198.9 82.2953C199.645 82.2953 200.262 82.1519 200.75 81.8651C201.237 81.5783 201.553 81.1552 201.696 80.5959H203.869C203.625 81.7288 203.058 82.618 202.169 83.2633C201.295 83.9086 200.19 84.2313 198.857 84.2313ZM208.339 83.9517H206.037V73.3897H208.145L208.36 74.874C208.704 74.3003 209.178 73.8558 209.78 73.5403C210.397 73.2248 211.078 73.067 211.824 73.067C213.172 73.067 214.175 73.4614 214.835 74.2501C215.509 75.0389 215.846 76.1073 215.846 77.4553V83.9517H213.544V77.9931C213.544 77.0323 213.322 76.3224 212.878 75.8635C212.447 75.4046 211.867 75.1751 211.135 75.1751C210.26 75.1751 209.572 75.4619 209.07 76.0356C208.583 76.5949 208.339 77.3477 208.339 78.2942V83.9517ZM217.592 80.811H219.786C219.801 81.313 219.987 81.7073 220.346 81.9941C220.704 82.281 221.199 82.4244 221.83 82.4244C222.49 82.4244 222.999 82.2953 223.357 82.0372C223.716 81.779 223.895 81.442 223.895 81.0261C223.895 80.7107 223.802 80.4525 223.615 80.2517C223.429 80.0366 223.078 79.8645 222.561 79.7355L220.668 79.3053C219.736 79.0758 219.034 78.7245 218.56 78.2512C218.101 77.778 217.872 77.1326 217.872 76.3152C217.872 75.6412 218.044 75.0676 218.388 74.5943C218.747 74.1067 219.234 73.7339 219.851 73.4757C220.468 73.2033 221.17 73.067 221.959 73.067C222.748 73.067 223.436 73.2104 224.024 73.4973C224.612 73.7697 225.071 74.1569 225.401 74.6589C225.731 75.1608 225.896 75.7559 225.896 76.4443H223.701C223.687 75.9424 223.522 75.548 223.207 75.2612C222.891 74.9744 222.447 74.8309 221.873 74.8309C221.314 74.8309 220.876 74.96 220.561 75.2181C220.245 75.4619 220.088 75.7989 220.088 76.2292C220.088 76.8745 220.568 77.3191 221.529 77.5629L223.422 77.9931C224.311 78.1939 224.978 78.5237 225.422 78.9826C225.867 79.4272 226.089 80.051 226.089 80.8541C226.089 81.5281 225.903 82.1232 225.53 82.6395C225.171 83.1557 224.669 83.5501 224.024 83.8226C223.379 84.0951 222.626 84.2313 221.765 84.2313C220.489 84.2313 219.471 83.9158 218.711 83.2848C217.965 82.6538 217.592 81.8292 217.592 80.811Z" fill="url(#paint4_linear_596_4203)"/>
<path d="M104.819 69.4532V83.9517H102.388V69.4532H104.819ZM97.7631 70.5502V68.3131H109.465V70.5502H97.7631ZM116.276 73.3252V75.4548H115.351C114.39 75.4548 113.63 75.7201 113.07 76.2507C112.526 76.7813 112.253 77.5629 112.253 78.5954V83.9517H109.951V73.3897H112.124L112.318 75.5623H112.102C112.246 74.8596 112.583 74.286 113.113 73.8414C113.644 73.3969 114.332 73.1746 115.179 73.1746C115.351 73.1746 115.523 73.1889 115.695 73.2176C115.881 73.232 116.075 73.2678 116.276 73.3252ZM120.801 84.2313C119.682 84.2313 118.8 83.9301 118.155 83.3278C117.524 82.7255 117.208 81.944 117.208 80.9831C117.208 80.008 117.545 79.2336 118.219 78.6599C118.908 78.072 119.876 77.7278 121.123 77.6274L124.371 77.3693V77.1111C124.371 76.5662 124.271 76.136 124.07 75.8205C123.869 75.4906 123.597 75.254 123.253 75.1106C122.909 74.9672 122.507 74.8955 122.048 74.8955C121.231 74.8955 120.6 75.0604 120.155 75.3902C119.711 75.7201 119.488 76.1861 119.488 76.7885H117.509C117.509 76.0284 117.696 75.3759 118.069 74.8309C118.456 74.2717 119.001 73.8414 119.703 73.5403C120.406 73.2248 121.224 73.067 122.156 73.067C123.074 73.067 123.862 73.232 124.522 73.5618C125.196 73.8773 125.712 74.3577 126.071 75.003C126.444 75.6484 126.63 76.4586 126.63 77.4338V83.9517H124.629L124.414 82.3168C124.171 82.8904 123.719 83.3565 123.059 83.715C122.4 84.0592 121.647 84.2313 120.801 84.2313ZM121.532 82.4459C122.407 82.4459 123.102 82.1877 123.618 81.6715C124.135 81.1409 124.393 80.431 124.393 79.5419V78.9611L121.941 79.1762C121.08 79.2479 120.464 79.4343 120.091 79.7355C119.732 80.0366 119.553 80.4167 119.553 80.8756C119.553 81.4062 119.725 81.8005 120.069 82.0587C120.413 82.3168 120.901 82.4459 121.532 82.4459ZM133.621 84.2313C132.603 84.2313 131.721 83.9947 130.976 83.5214C130.244 83.0482 129.678 82.4029 129.276 81.5854C128.875 80.7537 128.674 79.7928 128.674 78.7029C128.674 77.6131 128.875 76.6451 129.276 75.7989C129.678 74.9528 130.259 74.286 131.019 73.7984C131.779 73.3108 132.689 73.067 133.751 73.067C134.525 73.067 135.22 73.2248 135.837 73.5403C136.468 73.8558 136.956 74.3147 137.3 74.917V68.0334H139.623V83.9517H137.493L137.343 82.1662C137.013 82.8259 136.511 83.335 135.837 83.6935C135.177 84.052 134.439 84.2313 133.621 84.2313ZM134.116 82.1017C134.776 82.1017 135.335 81.9583 135.794 81.6715C136.267 81.3703 136.633 80.9616 136.891 80.4453C137.149 79.9147 137.278 79.3124 137.278 78.6384C137.278 77.9501 137.149 77.3477 136.891 76.8315C136.633 76.3009 136.267 75.8922 135.794 75.6053C135.335 75.3042 134.776 75.1536 134.116 75.1536C133.471 75.1536 132.912 75.3042 132.438 75.6053C131.979 75.9065 131.621 76.3152 131.363 76.8315C131.119 77.3477 130.997 77.9501 130.997 78.6384C130.997 79.3124 131.119 79.9147 131.363 80.4453C131.621 80.9616 131.979 81.3703 132.438 81.6715C132.912 81.9583 133.471 82.1017 134.116 82.1017ZM147.095 84.2313C146.049 84.2313 145.124 83.9947 144.321 83.5214C143.532 83.0482 142.908 82.3957 142.449 81.5639C142.005 80.7178 141.782 79.7498 141.782 78.6599C141.782 77.5557 141.997 76.5877 142.428 75.7559C142.872 74.9242 143.489 74.2717 144.278 73.7984C145.066 73.3108 145.977 73.067 147.009 73.067C148.042 73.067 148.931 73.2893 149.677 73.7339C150.437 74.1641 151.025 74.7808 151.441 75.5838C151.871 76.3726 152.086 77.3047 152.086 78.3803V79.1547L143.008 79.1762L143.051 77.6704H149.763C149.763 76.853 149.512 76.2077 149.01 75.7344C148.522 75.2468 147.856 75.003 147.009 75.003C146.364 75.003 145.812 75.1393 145.353 75.4117C144.909 75.6842 144.564 76.0929 144.321 76.6379C144.091 77.1685 143.976 77.821 143.976 78.5954C143.976 79.8 144.242 80.7178 144.772 81.3488C145.317 81.9798 146.106 82.2953 147.139 82.2953C147.884 82.2953 148.501 82.1519 148.988 81.8651C149.476 81.5783 149.792 81.1552 149.935 80.5959H152.108C151.864 81.7288 151.297 82.618 150.408 83.2633C149.533 83.9086 148.429 84.2313 147.095 84.2313ZM166.096 69.4532V83.9517H163.665V69.4532H166.096ZM159.04 70.5502V68.3131H170.742V70.5502H159.04ZM170.1 78.6599C170.1 77.5557 170.336 76.5877 170.809 75.7559C171.297 74.9242 171.964 74.2717 172.81 73.7984C173.656 73.3252 174.617 73.0885 175.693 73.0885C176.768 73.0885 177.722 73.3252 178.553 73.7984C179.385 74.2717 180.045 74.9242 180.533 75.7559C181.02 76.5877 181.264 77.5557 181.264 78.6599C181.264 79.7498 181.02 80.7107 180.533 81.5424C180.045 82.3742 179.385 83.0267 178.553 83.4999C177.722 83.9732 176.768 84.2098 175.693 84.2098C174.617 84.2098 173.656 83.9732 172.81 83.4999C171.964 83.0267 171.297 82.3742 170.809 81.5424C170.336 80.7107 170.1 79.7498 170.1 78.6599ZM172.423 78.6384C172.423 79.3268 172.559 79.9363 172.832 80.4669C173.118 80.9831 173.506 81.3918 173.993 81.693C174.481 81.9798 175.047 82.1232 175.693 82.1232C176.323 82.1232 176.883 81.9798 177.37 81.693C177.858 81.3918 178.238 80.9831 178.51 80.4669C178.783 79.9363 178.919 79.3268 178.919 78.6384C178.919 77.9501 178.783 77.3477 178.51 76.8315C178.238 76.3152 177.858 75.9137 177.37 75.6269C176.883 75.3257 176.323 75.1751 175.693 75.1751C175.047 75.1751 174.481 75.3257 173.993 75.6269C173.506 75.9137 173.118 76.3152 172.832 76.8315C172.559 77.3477 172.423 77.9501 172.423 78.6384ZM185.757 83.9517H183.434V68.0334H185.757V78.0791L190.167 73.3897H193.071L189.049 77.5844L193.007 83.9517H190.339L187.435 79.2837L185.757 81.0261V83.9517ZM198.857 84.2313C197.81 84.2313 196.885 83.9947 196.082 83.5214C195.293 83.0482 194.669 82.3957 194.21 81.5639C193.766 80.7178 193.543 79.7498 193.543 78.6599C193.543 77.5557 193.758 76.5877 194.189 75.7559C194.633 74.9242 195.25 74.2717 196.039 73.7984C196.827 73.3108 197.738 73.067 198.771 73.067C199.803 73.067 200.692 73.2893 201.438 73.7339C202.198 74.1641 202.786 74.7808 203.202 75.5838C203.632 76.3726 203.847 77.3047 203.847 78.3803V79.1547L194.769 79.1762L194.813 77.6704H201.524C201.524 76.853 201.273 76.2077 200.771 75.7344C200.284 75.2468 199.617 75.003 198.771 75.003C198.125 75.003 197.573 75.1393 197.114 75.4117C196.67 75.6842 196.325 76.0929 196.082 76.6379C195.852 77.1685 195.737 77.821 195.737 78.5954C195.737 79.8 196.003 80.7178 196.533 81.3488C197.078 81.9798 197.867 82.2953 198.9 82.2953C199.645 82.2953 200.262 82.1519 200.75 81.8651C201.237 81.5783 201.553 81.1552 201.696 80.5959H203.869C203.625 81.7288 203.058 82.618 202.169 83.2633C201.295 83.9086 200.19 84.2313 198.857 84.2313ZM208.339 83.9517H206.037V73.3897H208.145L208.36 74.874C208.704 74.3003 209.178 73.8558 209.78 73.5403C210.397 73.2248 211.078 73.067 211.824 73.067C213.172 73.067 214.175 73.4614 214.835 74.2501C215.509 75.0389 215.846 76.1073 215.846 77.4553V83.9517H213.544V77.9931C213.544 77.0323 213.322 76.3224 212.878 75.8635C212.447 75.4046 211.867 75.1751 211.135 75.1751C210.26 75.1751 209.572 75.4619 209.07 76.0356C208.583 76.5949 208.339 77.3477 208.339 78.2942V83.9517ZM217.592 80.811H219.786C219.801 81.313 219.987 81.7073 220.346 81.9941C220.704 82.281 221.199 82.4244 221.83 82.4244C222.49 82.4244 222.999 82.2953 223.357 82.0372C223.716 81.779 223.895 81.442 223.895 81.0261C223.895 80.7107 223.802 80.4525 223.615 80.2517C223.429 80.0366 223.078 79.8645 222.561 79.7355L220.668 79.3053C219.736 79.0758 219.034 78.7245 218.56 78.2512C218.101 77.778 217.872 77.1326 217.872 76.3152C217.872 75.6412 218.044 75.0676 218.388 74.5943C218.747 74.1067 219.234 73.7339 219.851 73.4757C220.468 73.2033 221.17 73.067 221.959 73.067C222.748 73.067 223.436 73.2104 224.024 73.4973C224.612 73.7697 225.071 74.1569 225.401 74.6589C225.731 75.1608 225.896 75.7559 225.896 76.4443H223.701C223.687 75.9424 223.522 75.548 223.207 75.2612C222.891 74.9744 222.447 74.8309 221.873 74.8309C221.314 74.8309 220.876 74.96 220.561 75.2181C220.245 75.4619 220.088 75.7989 220.088 76.2292C220.088 76.8745 220.568 77.3191 221.529 77.5629L223.422 77.9931C224.311 78.1939 224.978 78.5237 225.422 78.9826C225.867 79.4272 226.089 80.051 226.089 80.8541C226.089 81.5281 225.903 82.1232 225.53 82.6395C225.171 83.1557 224.669 83.5501 224.024 83.8226C223.379 84.0951 222.626 84.2313 221.765 84.2313C220.489 84.2313 219.471 83.9158 218.711 83.2848C217.965 82.6538 217.592 81.8292 217.592 80.811Z" fill="url(#paint5_linear_596_4203)"/>
<path d="M104.819 69.4532V83.9517H102.388V69.4532H104.819ZM97.7631 70.5502V68.3131H109.465V70.5502H97.7631ZM116.276 73.3252V75.4548H115.351C114.39 75.4548 113.63 75.7201 113.07 76.2507C112.526 76.7813 112.253 77.5629 112.253 78.5954V83.9517H109.951V73.3897H112.124L112.318 75.5623H112.102C112.246 74.8596 112.583 74.286 113.113 73.8414C113.644 73.3969 114.332 73.1746 115.179 73.1746C115.351 73.1746 115.523 73.1889 115.695 73.2176C115.881 73.232 116.075 73.2678 116.276 73.3252ZM120.801 84.2313C119.682 84.2313 118.8 83.9301 118.155 83.3278C117.524 82.7255 117.208 81.944 117.208 80.9831C117.208 80.008 117.545 79.2336 118.219 78.6599C118.908 78.072 119.876 77.7278 121.123 77.6274L124.371 77.3693V77.1111C124.371 76.5662 124.271 76.136 124.07 75.8205C123.869 75.4906 123.597 75.254 123.253 75.1106C122.909 74.9672 122.507 74.8955 122.048 74.8955C121.231 74.8955 120.6 75.0604 120.155 75.3902C119.711 75.7201 119.488 76.1861 119.488 76.7885H117.509C117.509 76.0284 117.696 75.3759 118.069 74.8309C118.456 74.2717 119.001 73.8414 119.703 73.5403C120.406 73.2248 121.224 73.067 122.156 73.067C123.074 73.067 123.862 73.232 124.522 73.5618C125.196 73.8773 125.712 74.3577 126.071 75.003C126.444 75.6484 126.63 76.4586 126.63 77.4338V83.9517H124.629L124.414 82.3168C124.171 82.8904 123.719 83.3565 123.059 83.715C122.4 84.0592 121.647 84.2313 120.801 84.2313ZM121.532 82.4459C122.407 82.4459 123.102 82.1877 123.618 81.6715C124.135 81.1409 124.393 80.431 124.393 79.5419V78.9611L121.941 79.1762C121.08 79.2479 120.464 79.4343 120.091 79.7355C119.732 80.0366 119.553 80.4167 119.553 80.8756C119.553 81.4062 119.725 81.8005 120.069 82.0587C120.413 82.3168 120.901 82.4459 121.532 82.4459ZM133.621 84.2313C132.603 84.2313 131.721 83.9947 130.976 83.5214C130.244 83.0482 129.678 82.4029 129.276 81.5854C128.875 80.7537 128.674 79.7928 128.674 78.7029C128.674 77.6131 128.875 76.6451 129.276 75.7989C129.678 74.9528 130.259 74.286 131.019 73.7984C131.779 73.3108 132.689 73.067 133.751 73.067C134.525 73.067 135.22 73.2248 135.837 73.5403C136.468 73.8558 136.956 74.3147 137.3 74.917V68.0334H139.623V83.9517H137.493L137.343 82.1662C137.013 82.8259 136.511 83.335 135.837 83.6935C135.177 84.052 134.439 84.2313 133.621 84.2313ZM134.116 82.1017C134.776 82.1017 135.335 81.9583 135.794 81.6715C136.267 81.3703 136.633 80.9616 136.891 80.4453C137.149 79.9147 137.278 79.3124 137.278 78.6384C137.278 77.9501 137.149 77.3477 136.891 76.8315C136.633 76.3009 136.267 75.8922 135.794 75.6053C135.335 75.3042 134.776 75.1536 134.116 75.1536C133.471 75.1536 132.912 75.3042 132.438 75.6053C131.979 75.9065 131.621 76.3152 131.363 76.8315C131.119 77.3477 130.997 77.9501 130.997 78.6384C130.997 79.3124 131.119 79.9147 131.363 80.4453C131.621 80.9616 131.979 81.3703 132.438 81.6715C132.912 81.9583 133.471 82.1017 134.116 82.1017ZM147.095 84.2313C146.049 84.2313 145.124 83.9947 144.321 83.5214C143.532 83.0482 142.908 82.3957 142.449 81.5639C142.005 80.7178 141.782 79.7498 141.782 78.6599C141.782 77.5557 141.997 76.5877 142.428 75.7559C142.872 74.9242 143.489 74.2717 144.278 73.7984C145.066 73.3108 145.977 73.067 147.009 73.067C148.042 73.067 148.931 73.2893 149.677 73.7339C150.437 74.1641 151.025 74.7808 151.441 75.5838C151.871 76.3726 152.086 77.3047 152.086 78.3803V79.1547L143.008 79.1762L143.051 77.6704H149.763C149.763 76.853 149.512 76.2077 149.01 75.7344C148.522 75.2468 147.856 75.003 147.009 75.003C146.364 75.003 145.812 75.1393 145.353 75.4117C144.909 75.6842 144.564 76.0929 144.321 76.6379C144.091 77.1685 143.976 77.821 143.976 78.5954C143.976 79.8 144.242 80.7178 144.772 81.3488C145.317 81.9798 146.106 82.2953 147.139 82.2953C147.884 82.2953 148.501 82.1519 148.988 81.8651C149.476 81.5783 149.792 81.1552 149.935 80.5959H152.108C151.864 81.7288 151.297 82.618 150.408 83.2633C149.533 83.9086 148.429 84.2313 147.095 84.2313ZM166.096 69.4532V83.9517H163.665V69.4532H166.096ZM159.04 70.5502V68.3131H170.742V70.5502H159.04ZM170.1 78.6599C170.1 77.5557 170.336 76.5877 170.809 75.7559C171.297 74.9242 171.964 74.2717 172.81 73.7984C173.656 73.3252 174.617 73.0885 175.693 73.0885C176.768 73.0885 177.722 73.3252 178.553 73.7984C179.385 74.2717 180.045 74.9242 180.533 75.7559C181.02 76.5877 181.264 77.5557 181.264 78.6599C181.264 79.7498 181.02 80.7107 180.533 81.5424C180.045 82.3742 179.385 83.0267 178.553 83.4999C177.722 83.9732 176.768 84.2098 175.693 84.2098C174.617 84.2098 173.656 83.9732 172.81 83.4999C171.964 83.0267 171.297 82.3742 170.809 81.5424C170.336 80.7107 170.1 79.7498 170.1 78.6599ZM172.423 78.6384C172.423 79.3268 172.559 79.9363 172.832 80.4669C173.118 80.9831 173.506 81.3918 173.993 81.693C174.481 81.9798 175.047 82.1232 175.693 82.1232C176.323 82.1232 176.883 81.9798 177.37 81.693C177.858 81.3918 178.238 80.9831 178.51 80.4669C178.783 79.9363 178.919 79.3268 178.919 78.6384C178.919 77.9501 178.783 77.3477 178.51 76.8315C178.238 76.3152 177.858 75.9137 177.37 75.6269C176.883 75.3257 176.323 75.1751 175.693 75.1751C175.047 75.1751 174.481 75.3257 173.993 75.6269C173.506 75.9137 173.118 76.3152 172.832 76.8315C172.559 77.3477 172.423 77.9501 172.423 78.6384ZM185.757 83.9517H183.434V68.0334H185.757V78.0791L190.167 73.3897H193.071L189.049 77.5844L193.007 83.9517H190.339L187.435 79.2837L185.757 81.0261V83.9517ZM198.857 84.2313C197.81 84.2313 196.885 83.9947 196.082 83.5214C195.293 83.0482 194.669 82.3957 194.21 81.5639C193.766 80.7178 193.543 79.7498 193.543 78.6599C193.543 77.5557 193.758 76.5877 194.189 75.7559C194.633 74.9242 195.25 74.2717 196.039 73.7984C196.827 73.3108 197.738 73.067 198.771 73.067C199.803 73.067 200.692 73.2893 201.438 73.7339C202.198 74.1641 202.786 74.7808 203.202 75.5838C203.632 76.3726 203.847 77.3047 203.847 78.3803V79.1547L194.769 79.1762L194.813 77.6704H201.524C201.524 76.853 201.273 76.2077 200.771 75.7344C200.284 75.2468 199.617 75.003 198.771 75.003C198.125 75.003 197.573 75.1393 197.114 75.4117C196.67 75.6842 196.325 76.0929 196.082 76.6379C195.852 77.1685 195.737 77.821 195.737 78.5954C195.737 79.8 196.003 80.7178 196.533 81.3488C197.078 81.9798 197.867 82.2953 198.9 82.2953C199.645 82.2953 200.262 82.1519 200.75 81.8651C201.237 81.5783 201.553 81.1552 201.696 80.5959H203.869C203.625 81.7288 203.058 82.618 202.169 83.2633C201.295 83.9086 200.19 84.2313 198.857 84.2313ZM208.339 83.9517H206.037V73.3897H208.145L208.36 74.874C208.704 74.3003 209.178 73.8558 209.78 73.5403C210.397 73.2248 211.078 73.067 211.824 73.067C213.172 73.067 214.175 73.4614 214.835 74.2501C215.509 75.0389 215.846 76.1073 215.846 77.4553V83.9517H213.544V77.9931C213.544 77.0323 213.322 76.3224 212.878 75.8635C212.447 75.4046 211.867 75.1751 211.135 75.1751C210.26 75.1751 209.572 75.4619 209.07 76.0356C208.583 76.5949 208.339 77.3477 208.339 78.2942V83.9517ZM217.592 80.811H219.786C219.801 81.313 219.987 81.7073 220.346 81.9941C220.704 82.281 221.199 82.4244 221.83 82.4244C222.49 82.4244 222.999 82.2953 223.357 82.0372C223.716 81.779 223.895 81.442 223.895 81.0261C223.895 80.7107 223.802 80.4525 223.615 80.2517C223.429 80.0366 223.078 79.8645 222.561 79.7355L220.668 79.3053C219.736 79.0758 219.034 78.7245 218.56 78.2512C218.101 77.778 217.872 77.1326 217.872 76.3152C217.872 75.6412 218.044 75.0676 218.388 74.5943C218.747 74.1067 219.234 73.7339 219.851 73.4757C220.468 73.2033 221.17 73.067 221.959 73.067C222.748 73.067 223.436 73.2104 224.024 73.4973C224.612 73.7697 225.071 74.1569 225.401 74.6589C225.731 75.1608 225.896 75.7559 225.896 76.4443H223.701C223.687 75.9424 223.522 75.548 223.207 75.2612C222.891 74.9744 222.447 74.8309 221.873 74.8309C221.314 74.8309 220.876 74.96 220.561 75.2181C220.245 75.4619 220.088 75.7989 220.088 76.2292C220.088 76.8745 220.568 77.3191 221.529 77.5629L223.422 77.9931C224.311 78.1939 224.978 78.5237 225.422 78.9826C225.867 79.4272 226.089 80.051 226.089 80.8541C226.089 81.5281 225.903 82.1232 225.53 82.6395C225.171 83.1557 224.669 83.5501 224.024 83.8226C223.379 84.0951 222.626 84.2313 221.765 84.2313C220.489 84.2313 219.471 83.9158 218.711 83.2848C217.965 82.6538 217.592 81.8292 217.592 80.811Z" fill="url(#paint6_linear_596_4203)"/>
<rect x="94.8682" y="106.904" width="400.904" height="91.1145" rx="8.74699" fill="#DAFFEE" fill-opacity="0.06"/>
<path d="M113.919 125.732V134.21H112.601V125.732H113.919ZM115.925 131.236H113.604V130.059H115.645C116.181 130.059 116.589 129.919 116.869 129.639C117.157 129.351 117.301 128.958 117.301 128.461C117.301 127.963 117.157 127.582 116.869 127.318C116.589 127.046 116.189 126.91 115.668 126.91H113.406V125.732H115.925C116.484 125.732 116.97 125.848 117.382 126.082C117.795 126.307 118.113 126.626 118.339 127.038C118.572 127.45 118.689 127.928 118.689 128.472C118.689 129.009 118.572 129.487 118.339 129.907C118.113 130.319 117.795 130.646 117.382 130.887C116.97 131.12 116.484 131.236 115.925 131.236ZM121.223 134.362C120.617 134.362 120.138 134.199 119.789 133.872C119.446 133.546 119.275 133.122 119.275 132.601C119.275 132.072 119.458 131.652 119.824 131.341C120.197 131.023 120.722 130.836 121.398 130.782L123.159 130.642V130.502C123.159 130.206 123.105 129.973 122.996 129.802C122.887 129.623 122.739 129.495 122.553 129.417C122.366 129.339 122.148 129.3 121.899 129.3C121.456 129.3 121.114 129.39 120.873 129.569C120.632 129.748 120.512 130 120.512 130.327H119.439C119.439 129.915 119.54 129.561 119.742 129.265C119.952 128.962 120.247 128.729 120.628 128.566C121.009 128.395 121.452 128.309 121.958 128.309C122.455 128.309 122.883 128.399 123.241 128.577C123.606 128.748 123.886 129.009 124.08 129.359C124.283 129.709 124.384 130.148 124.384 130.677V134.21H123.299L123.182 133.324C123.05 133.635 122.805 133.888 122.448 134.082C122.09 134.269 121.682 134.362 121.223 134.362ZM121.62 133.394C122.094 133.394 122.471 133.254 122.751 132.974C123.031 132.687 123.171 132.302 123.171 131.82V131.505L121.841 131.621C121.375 131.66 121.04 131.761 120.838 131.925C120.644 132.088 120.547 132.294 120.547 132.543C120.547 132.83 120.64 133.044 120.827 133.184C121.013 133.324 121.277 133.394 121.62 133.394ZM126.358 128.484L128.294 133.919L127.571 135.108L125.017 128.484H126.358ZM125.18 136.823V135.785H125.962C126.148 135.785 126.312 135.765 126.452 135.727C126.599 135.688 126.732 135.61 126.848 135.493C126.965 135.384 127.066 135.213 127.151 134.98L129.542 128.484H130.848L128.084 135.493C127.882 136.006 127.626 136.376 127.315 136.601C127.011 136.835 126.634 136.951 126.183 136.951C125.997 136.951 125.818 136.94 125.647 136.916C125.484 136.893 125.328 136.862 125.18 136.823ZM136.11 134.21L134.232 128.484H135.55L136.39 131.201C136.46 131.411 136.522 131.637 136.577 131.878C136.639 132.111 136.697 132.356 136.752 132.613C136.783 132.434 136.818 132.267 136.857 132.111C136.895 131.956 136.938 131.804 136.985 131.656C137.032 131.509 137.078 131.357 137.125 131.201L138.011 128.484H139.294L140.145 131.201C140.169 131.264 140.196 131.353 140.227 131.47C140.258 131.586 140.293 131.715 140.332 131.855C140.371 131.987 140.406 132.123 140.437 132.263C140.468 132.395 140.495 132.512 140.519 132.613C140.55 132.465 140.585 132.309 140.624 132.146C140.662 131.975 140.705 131.812 140.752 131.656C140.799 131.493 140.845 131.341 140.892 131.201L141.755 128.484H143.073L141.102 134.21H139.924L139.026 131.435C138.925 131.1 138.843 130.813 138.781 130.572C138.719 130.323 138.672 130.121 138.641 129.965C138.61 130.113 138.563 130.296 138.501 130.513C138.447 130.731 138.357 131.046 138.233 131.458L137.335 134.21H136.11ZM143.985 134.21V128.484H145.233V134.21H143.985ZM144.603 127.225C144.386 127.225 144.199 127.147 144.043 126.991C143.888 126.836 143.81 126.649 143.81 126.431C143.81 126.214 143.888 126.027 144.043 125.872C144.199 125.716 144.386 125.638 144.603 125.638C144.821 125.638 145.008 125.716 145.163 125.872C145.319 126.027 145.396 126.214 145.396 126.431C145.396 126.649 145.319 126.836 145.163 126.991C145.008 127.147 144.821 127.225 144.603 127.225ZM146.181 128.484H149.668V129.534H146.181V128.484ZM148.548 134.21H147.3V126.688H148.548V134.21ZM151.862 134.21H150.614V125.58H151.873V129.289C152.052 128.993 152.305 128.756 152.631 128.577C152.958 128.399 153.339 128.309 153.774 128.309C154.49 128.309 155.026 128.523 155.384 128.951C155.749 129.378 155.932 129.957 155.932 130.688V134.21H154.684V130.98C154.684 130.63 154.63 130.342 154.521 130.117C154.412 129.891 154.26 129.724 154.066 129.615C153.879 129.507 153.658 129.452 153.401 129.452C153.074 129.452 152.795 129.526 152.561 129.674C152.336 129.814 152.161 130.008 152.037 130.257C151.92 130.498 151.862 130.774 151.862 131.085V134.21Z" fill="#B8FFDF"/>
<path d="M319.152 129.271V131.842H320.01V129.271L322.135 125.518H321.199L319.8 128.046C319.686 128.256 319.668 128.309 319.59 128.466C319.52 128.317 319.467 128.195 319.38 128.046L317.972 125.518H317.009L319.152 129.271ZM321.679 129.699C321.679 131.02 322.623 131.947 323.909 131.947C325.186 131.947 326.131 131.02 326.131 129.699C326.131 128.378 325.186 127.451 323.909 127.451C322.623 127.451 321.679 128.378 321.679 129.699ZM322.51 129.699C322.51 128.807 323.078 128.186 323.909 128.186C324.731 128.186 325.309 128.807 325.309 129.699C325.309 130.591 324.731 131.213 323.909 131.213C323.078 131.213 322.51 130.591 322.51 129.699ZM329.895 127.565V129.822C329.895 130.74 329.484 131.221 328.732 131.221C328.102 131.221 327.708 130.871 327.708 129.953V127.565H326.886V130.224C326.886 131.274 327.446 131.947 328.443 131.947C329.073 131.947 329.641 131.641 329.886 131.195L329.974 131.842H330.708V127.565H329.895ZM334.351 127.53C334.184 127.495 334.062 127.478 333.913 127.478C333.327 127.478 332.899 127.775 332.724 128.221L332.671 127.574H331.901V131.842H332.724V129.577C332.724 128.755 333.205 128.282 333.983 128.282H334.351V127.53ZM338.257 131.842L338.318 131.064C338.598 131.65 339.167 131.947 339.84 131.947C341.082 131.947 341.852 131.02 341.852 129.726C341.852 128.405 341.117 127.443 339.893 127.443C339.193 127.443 338.616 127.74 338.336 128.3V125.405H337.513V131.842H338.257ZM338.344 129.691C338.344 128.816 338.852 128.186 339.691 128.186C340.531 128.186 341.03 128.816 341.03 129.691C341.03 130.574 340.531 131.204 339.691 131.204C338.852 131.204 338.344 130.583 338.344 129.691ZM344.009 131.947C344.7 131.947 345.286 131.641 345.505 131.151L345.592 131.842H346.292V129.157C346.292 128.002 345.575 127.443 344.516 127.443C343.414 127.443 342.68 128.029 342.68 128.921H343.397C343.397 128.405 343.79 128.099 344.481 128.099C345.059 128.099 345.487 128.352 345.487 129.069V129.192L344.14 129.297C343.134 129.376 342.548 129.865 342.548 130.653C342.548 131.431 343.091 131.947 344.009 131.947ZM344.245 131.309C343.712 131.309 343.379 131.081 343.379 130.626C343.379 130.207 343.677 129.927 344.403 129.857L345.496 129.769V129.997C345.496 130.801 345.024 131.309 344.245 131.309ZM348.27 131.842V125.405H347.448V131.842H348.27ZM350.732 131.947C351.423 131.947 352.009 131.641 352.227 131.151L352.315 131.842H353.015V129.157C353.015 128.002 352.297 127.443 351.239 127.443C350.137 127.443 349.402 128.029 349.402 128.921H350.119C350.119 128.405 350.513 128.099 351.204 128.099C351.781 128.099 352.21 128.352 352.21 129.069V129.192L350.863 129.297C349.857 129.376 349.271 129.865 349.271 130.653C349.271 131.431 349.813 131.947 350.732 131.947ZM350.968 131.309C350.434 131.309 350.102 131.081 350.102 130.626C350.102 130.207 350.399 129.927 351.125 129.857L352.219 129.769V129.997C352.219 130.801 351.746 131.309 350.968 131.309ZM354.975 131.842V129.577C354.975 128.746 355.422 128.195 356.191 128.195C356.821 128.195 357.223 128.545 357.223 129.411V131.842H358.046V129.227C358.046 128.134 357.53 127.443 356.401 127.443C355.798 127.443 355.255 127.731 354.984 128.221L354.897 127.565H354.153V131.842H354.975ZM358.905 129.708C358.905 131.055 359.736 131.947 360.995 131.947C362.027 131.947 362.823 131.326 362.989 130.399H362.167C362.018 130.906 361.581 131.213 360.995 131.213C360.217 131.213 359.718 130.618 359.718 129.699C359.718 128.772 360.252 128.177 361.03 128.177C361.581 128.177 362.018 128.466 362.158 129.008H362.981C362.832 128.055 362.08 127.443 361.004 127.443C359.753 127.443 358.905 128.37 358.905 129.708ZM365.703 131.947C366.761 131.947 367.478 131.431 367.688 130.513H366.918C366.778 131.003 366.359 131.265 365.72 131.265C364.907 131.265 364.434 130.766 364.373 129.865L367.679 129.857V129.551C367.679 128.282 366.883 127.443 365.668 127.443C364.425 127.443 363.577 128.37 363.577 129.708C363.577 131.038 364.443 131.947 365.703 131.947ZM365.668 128.134C366.394 128.134 366.857 128.606 366.857 129.314H364.39C364.495 128.562 364.95 128.134 365.668 128.134ZM369.297 128.667C369.63 128.667 369.919 128.387 369.919 128.064C369.919 127.722 369.63 127.443 369.297 127.443C368.956 127.443 368.668 127.722 368.668 128.064C368.668 128.387 368.956 128.667 369.297 128.667ZM369.297 131.947C369.63 131.947 369.919 131.667 369.919 131.335C369.919 130.994 369.63 130.714 369.297 130.714C368.956 130.714 368.668 130.994 368.668 131.335C368.668 131.667 368.956 131.947 369.297 131.947Z" fill="white" fill-opacity="0.7"/>
<rect x="378.092" y="126.291" width="83.8253" height="5.10241" rx="2.5512" fill="#DAFFEE" fill-opacity="0.16"/>
<rect x="465.562" y="123.464" width="13.4444" height="10.7556" rx="5.37778" fill="white" fill-opacity="0.06"/>
<path d="M128.162 151.185C130.613 151.184 133.009 151.911 135.047 153.273C137.085 154.634 138.673 156.569 139.611 158.834C140.549 161.098 140.795 163.59 140.317 165.993C139.838 168.397 138.658 170.605 136.925 172.338C135.192 174.071 132.984 175.252 130.58 175.73C128.177 176.208 125.685 175.962 123.421 175.024C121.156 174.086 119.221 172.498 117.86 170.46C116.498 168.422 115.771 166.026 115.771 163.575C115.771 161.948 116.092 160.337 116.715 158.834C117.337 157.33 118.25 155.964 119.401 154.814C120.551 153.663 121.917 152.75 123.421 152.128C124.924 151.505 126.535 151.185 128.162 151.185ZM124.12 163.575C124.12 169.564 128.162 174.418 128.162 174.418C128.162 174.418 132.205 169.564 132.205 163.575C132.205 157.587 128.162 152.734 128.162 152.734C128.162 152.734 124.12 157.588 124.12 163.575Z" fill="#4FFFB0"/>
<path d="M148.294 160.914H151.746C153.507 160.914 154.522 160.063 154.522 158.605C154.522 157.614 154.067 156.937 153.169 156.646C153.974 156.307 154.394 155.631 154.394 154.686C154.394 153.263 153.368 152.389 151.688 152.389H148.294V160.914ZM151.56 153.707C152.4 153.707 152.866 154.103 152.866 154.838C152.866 155.596 152.411 156.027 151.595 156.027H149.787V153.707H151.56ZM151.688 157.287C152.516 157.287 152.994 157.695 152.994 158.418C152.994 159.188 152.528 159.596 151.688 159.596H149.787V157.287H151.688ZM155.401 154.768C155.401 156.074 156.159 156.902 157.605 157.217L158.958 157.52C159.658 157.672 159.95 158.01 159.95 158.582C159.95 159.293 159.32 159.724 158.328 159.724C157.372 159.724 156.789 159.293 156.777 158.57H155.284C155.319 160.098 156.509 161.066 158.328 161.066C160.206 161.066 161.442 160.039 161.442 158.453C161.442 157.182 160.731 156.436 159.273 156.121L157.932 155.829C157.22 155.666 156.894 155.328 156.894 154.721C156.894 154.01 157.489 153.567 158.41 153.567C159.25 153.567 159.775 153.998 159.81 154.733H161.302C161.256 153.193 160.159 152.237 158.433 152.237C156.637 152.237 155.401 153.275 155.401 154.768ZM164.939 156.657L162.046 160.914H163.796L165.872 157.8C166.21 158.418 166.513 158.931 166.886 159.503L167.843 160.914H169.604L166.805 156.646L169.592 152.389H167.854L165.872 155.514C165.557 154.931 165.265 154.441 164.915 153.916L163.877 152.389H162.105L164.939 156.657Z" fill="white"/>
<g clip-path="url(#clip1_596_4203)">
<path d="M148.084 173.603H150.586C151.837 173.603 152.598 172.964 152.598 171.915C152.598 171.163 152.239 170.655 151.539 170.428C152.169 170.165 152.484 169.676 152.484 168.95C152.484 167.909 151.732 167.279 150.499 167.279H148.084V173.603ZM150.446 168.04C151.19 168.04 151.609 168.399 151.609 169.028C151.609 169.684 151.207 170.069 150.499 170.069H148.942V168.04H150.446ZM150.569 170.813C151.295 170.813 151.714 171.18 151.714 171.81C151.714 172.466 151.303 172.842 150.569 172.842H148.942V170.813H150.569ZM154.782 173.708C155.473 173.708 156.059 173.402 156.277 172.912L156.365 173.603H157.065V170.918C157.065 169.763 156.347 169.203 155.289 169.203C154.187 169.203 153.452 169.789 153.452 170.682H154.169C154.169 170.165 154.563 169.859 155.254 169.859C155.831 169.859 156.26 170.113 156.26 170.83V170.953L154.913 171.058C153.907 171.136 153.321 171.626 153.321 172.413C153.321 173.192 153.863 173.708 154.782 173.708ZM155.018 173.069C154.484 173.069 154.152 172.842 154.152 172.387C154.152 171.967 154.449 171.687 155.175 171.617L156.269 171.53V171.757C156.269 172.562 155.796 173.069 155.018 173.069ZM157.853 172.361C157.853 173.174 158.492 173.708 159.498 173.708C160.513 173.708 161.212 173.192 161.212 172.378C161.212 171.74 160.854 171.408 160.128 171.233L159.375 171.049C158.956 170.944 158.746 170.752 158.746 170.463C158.746 170.069 159.034 169.842 159.55 169.842C160.049 169.842 160.338 170.113 160.355 170.542H161.142C161.125 169.728 160.513 169.203 159.577 169.203C158.632 169.203 157.967 169.702 157.967 170.489C157.967 171.119 158.326 171.495 159.087 171.679L159.839 171.854C160.285 171.967 160.425 172.142 160.425 172.431C160.425 172.825 160.093 173.061 159.515 173.061C158.973 173.061 158.641 172.798 158.641 172.361H157.853ZM162.526 168.311C162.824 168.311 163.069 168.066 163.069 167.769C163.069 167.463 162.824 167.226 162.526 167.226C162.229 167.226 161.984 167.463 161.984 167.769C161.984 168.066 162.229 168.311 162.526 168.311ZM162.124 173.603H162.946V169.326H162.124V173.603ZM164.98 173.603V167.165H164.157V173.603H164.98ZM166.592 168.311C166.89 168.311 167.135 168.066 167.135 167.769C167.135 167.463 166.89 167.226 166.592 167.226C166.295 167.226 166.05 167.463 166.05 167.769C166.05 168.066 166.295 168.311 166.592 168.311ZM166.19 173.603H167.012V169.326H166.19V173.603ZM167.856 172.361C167.856 173.174 168.495 173.708 169.501 173.708C170.515 173.708 171.215 173.192 171.215 172.378C171.215 171.74 170.856 171.408 170.13 171.233L169.378 171.049C168.958 170.944 168.748 170.752 168.748 170.463C168.748 170.069 169.037 169.842 169.553 169.842C170.052 169.842 170.34 170.113 170.358 170.542H171.145C171.127 169.728 170.515 169.203 169.579 169.203C168.635 169.203 167.97 169.702 167.97 170.489C167.97 171.119 168.328 171.495 169.089 171.679L169.842 171.854C170.288 171.967 170.428 172.142 170.428 172.431C170.428 172.825 170.095 173.061 169.518 173.061C168.976 173.061 168.643 172.798 168.643 172.361H167.856ZM172.966 173.603V172.387L173.692 171.626L174.943 173.603H175.888L174.261 171.031L175.897 169.326H174.865L172.966 171.338V167.165H172.144V173.603H172.966Z" fill="#ACB2B5"/>
</g>
<path d="M180.723 161.751C180.741 161.689 180.757 161.626 180.777 161.565C180.83 161.404 180.922 161.259 181.044 161.143C181.166 161.027 181.315 160.943 181.477 160.899C181.639 160.856 181.809 160.853 181.972 160.892C182.135 160.93 182.286 161.01 182.412 161.122C182.449 161.154 182.483 161.189 182.518 161.225L185.366 164.105C185.392 164.131 185.415 164.161 185.445 164.196C185.48 164.162 185.506 164.138 185.531 164.112L188.418 161.193C188.596 160.988 188.847 160.863 189.116 160.845C189.385 160.828 189.65 160.919 189.852 161.098C190.055 161.278 190.179 161.532 190.196 161.804C190.214 162.076 190.124 162.343 189.946 162.548C189.915 162.587 189.881 162.623 189.846 162.658L186.208 166.337C186.061 166.502 185.864 166.615 185.647 166.657C185.43 166.698 185.206 166.667 185.009 166.568C184.899 166.511 184.799 166.438 184.712 166.35C183.489 165.117 182.267 163.883 181.046 162.647C180.882 162.478 180.77 162.265 180.723 162.033V161.751Z" fill="white"/>
<rect x="214.41" y="144.078" width="264.596" height="39.3614" rx="6.56024" fill="#DAFFEE" fill-opacity="0.06"/>
<path d="M388.691 162.517V160.955H384.703L386.434 159.473C387.891 158.226 388.626 157.216 388.626 155.878C388.626 153.936 387.353 152.768 385.306 152.768C383.272 152.768 381.934 154.133 381.921 156.232H383.587C383.6 154.999 384.256 154.264 385.306 154.264C386.316 154.264 386.907 154.881 386.907 155.97C386.907 156.888 386.474 157.518 385.175 158.62L382.039 161.27V162.53L388.691 162.517ZM389.713 159.814C389.713 161.559 391.143 162.687 393.36 162.687C395.591 162.687 397.021 161.546 397.021 159.814C397.021 158.659 396.365 157.728 395.355 157.373C396.207 157.019 396.68 156.298 396.68 155.366C396.68 153.805 395.355 152.768 393.387 152.768C391.405 152.768 390.054 153.818 390.054 155.34C390.054 156.271 390.513 156.993 391.353 157.373C390.356 157.754 389.713 158.672 389.713 159.814ZM391.576 155.484C391.576 154.697 392.271 154.198 393.36 154.198C394.436 154.198 395.118 154.697 395.118 155.497C395.118 156.298 394.436 156.796 393.36 156.796C392.271 156.796 391.576 156.284 391.576 155.484ZM391.353 159.696C391.353 158.764 392.127 158.187 393.36 158.187C394.594 158.187 395.368 158.764 395.368 159.696C395.368 160.627 394.594 161.205 393.373 161.205C392.127 161.205 391.353 160.627 391.353 159.696ZM401.386 162.687C403.525 162.687 404.981 161.27 404.981 159.197C404.981 157.308 403.709 156.009 401.793 156.009C401.137 156.009 400.56 156.179 400.101 156.481L400.612 154.487H404.404V152.939H399.405L398.224 157.964L399.707 158.279C400.048 157.78 400.717 157.413 401.452 157.413C402.607 157.413 403.276 158.174 403.276 159.289C403.276 160.457 402.554 161.191 401.426 161.191C400.363 161.191 399.72 160.549 399.72 159.46H398.054C398.054 161.401 399.379 162.687 401.386 162.687ZM409.254 162.687C411.392 162.687 412.849 161.27 412.849 159.197C412.849 157.308 411.576 156.009 409.66 156.009C409.004 156.009 408.427 156.179 407.968 156.481L408.479 154.487H412.271V152.939H407.272L406.091 157.964L407.574 158.279C407.915 157.78 408.584 157.413 409.319 157.413C410.474 157.413 411.143 158.174 411.143 159.289C411.143 160.457 410.421 161.191 409.293 161.191C408.23 161.191 407.587 160.549 407.587 159.46H405.921C405.921 161.401 407.246 162.687 409.254 162.687ZM414.948 162.687C415.525 162.687 416.01 162.215 416.01 161.651C416.01 161.073 415.525 160.601 414.948 160.601C414.37 160.601 413.885 161.073 413.885 161.651C413.885 162.215 414.37 162.687 414.948 162.687ZM424.119 162.517V160.955H420.13L421.862 159.473C423.319 158.226 424.053 157.216 424.053 155.878C424.053 153.936 422.781 152.768 420.734 152.768C418.7 152.768 417.362 154.133 417.349 156.232H419.015C419.028 154.999 419.684 154.264 420.734 154.264C421.744 154.264 422.335 154.881 422.335 155.97C422.335 156.888 421.902 157.518 420.603 158.62L417.467 161.27V162.53L424.119 162.517ZM432.439 160.706V159.237H431.271V152.939H429.159L424.816 159.237V160.706H429.684V162.53H431.271V160.706H432.439ZM426.6 159.237L429.684 154.749V159.237H426.6ZM434.693 155.76C433.617 157.216 433.237 158.056 433.237 159.21C433.237 161.178 434.785 162.7 436.858 162.7C438.905 162.7 440.427 161.27 440.427 159.223C440.427 157.282 439.088 155.891 437.107 155.891C436.871 155.891 436.622 155.93 436.386 155.996L438.682 152.939H436.766L434.693 155.76ZM434.955 159.223C434.955 158.069 435.716 157.268 436.858 157.268C437.96 157.268 438.734 158.069 438.734 159.223C438.734 160.391 437.947 161.205 436.858 161.205C435.73 161.205 434.955 160.391 434.955 159.223ZM444.949 155.615C444.949 157.085 445.801 158.016 447.428 158.371L448.95 158.712C449.738 158.882 450.066 159.263 450.066 159.906C450.066 160.706 449.357 161.191 448.242 161.191C447.166 161.191 446.51 160.706 446.497 159.893H444.817C444.857 161.611 446.195 162.7 448.242 162.7C450.354 162.7 451.745 161.546 451.745 159.761C451.745 158.331 450.945 157.492 449.305 157.137L447.796 156.809C446.995 156.626 446.628 156.245 446.628 155.563C446.628 154.762 447.297 154.264 448.334 154.264C449.278 154.264 449.869 154.749 449.908 155.576H451.588C451.535 153.844 450.302 152.768 448.36 152.768C446.339 152.768 444.949 153.936 444.949 155.615ZM454.091 162.53L454.865 160.312H458.447L459.221 162.53H460.992L457.528 152.939H455.81L452.346 162.53H454.091ZM456.453 155.799C456.544 155.537 456.623 155.248 456.663 155.064C456.689 155.261 456.781 155.55 456.859 155.799L457.961 158.895H455.364L456.453 155.799ZM463.573 162.53V160.785L464.517 159.801L466.21 162.53H468.047L465.633 158.62L468.099 156.048H466.092L463.573 158.764V152.768H461.985V162.53H463.573Z" fill="white"/>
<path d="M424.044 172.482H424.663C424.663 172.715 424.622 172.924 424.539 173.109C424.462 173.288 424.35 173.432 424.204 173.539C424.058 173.641 423.883 173.692 423.679 173.692C423.504 173.692 423.341 173.663 423.191 173.604C423.045 173.541 422.907 173.471 422.775 173.393C422.649 173.31 422.525 173.24 422.404 173.181C422.287 173.118 422.17 173.087 422.054 173.087C421.903 173.087 421.796 173.135 421.733 173.232C421.67 173.325 421.638 173.456 421.638 173.626H421.019C421.019 173.398 421.058 173.196 421.135 173.021C421.218 172.841 421.332 172.7 421.478 172.598C421.629 172.496 421.803 172.445 422.003 172.445C422.168 172.445 422.321 172.477 422.462 172.54C422.608 172.598 422.746 172.669 422.877 172.751C423.009 172.829 423.135 172.9 423.256 172.963C423.378 173.021 423.502 173.05 423.628 173.05C423.779 173.05 423.886 173.002 423.949 172.904C424.012 172.802 424.044 172.662 424.044 172.482ZM424.044 173.903H424.663C424.663 174.136 424.622 174.345 424.539 174.53C424.462 174.71 424.35 174.853 424.204 174.96C424.058 175.062 423.883 175.113 423.679 175.113C423.504 175.113 423.341 175.084 423.191 175.026C423.045 174.962 422.907 174.892 422.775 174.814C422.649 174.732 422.525 174.661 422.404 174.603C422.287 174.54 422.17 174.508 422.054 174.508C421.903 174.508 421.796 174.557 421.733 174.654C421.67 174.746 421.638 174.877 421.638 175.047H421.019C421.019 174.819 421.058 174.617 421.135 174.442C421.218 174.263 421.332 174.122 421.478 174.02C421.629 173.913 421.803 173.859 422.003 173.859C422.168 173.859 422.321 173.891 422.462 173.954C422.608 174.017 422.746 174.09 422.877 174.173C423.009 174.251 423.135 174.321 423.256 174.384C423.378 174.442 423.502 174.472 423.628 174.472C423.779 174.472 423.886 174.423 423.949 174.326C424.012 174.224 424.044 174.083 424.044 173.903ZM427.547 174.501C427.547 174.141 427.656 173.83 427.875 173.568C428.094 173.305 428.383 173.14 428.743 173.072L428.75 173.24C428.429 173.152 428.179 173.002 427.999 172.788C427.824 172.569 427.737 172.307 427.737 172.001C427.737 171.719 427.812 171.473 427.963 171.264C428.118 171.055 428.33 170.893 428.597 170.776C428.869 170.655 429.185 170.594 429.544 170.594C429.899 170.594 430.21 170.652 430.477 170.769C430.745 170.885 430.951 171.051 431.097 171.264C431.248 171.478 431.323 171.728 431.323 172.015C431.323 172.321 431.235 172.581 431.061 172.795C430.886 173.009 430.638 173.155 430.317 173.232L430.31 173.079C430.553 173.118 430.764 173.203 430.944 173.335C431.129 173.466 431.269 173.631 431.367 173.83C431.469 174.029 431.52 174.253 431.52 174.501C431.52 174.817 431.437 175.094 431.272 175.332C431.107 175.565 430.876 175.747 430.579 175.878C430.283 176.01 429.936 176.075 429.537 176.075C429.134 176.075 428.784 176.012 428.487 175.886C428.191 175.755 427.96 175.57 427.795 175.332C427.63 175.094 427.547 174.817 427.547 174.501ZM428.356 174.442C428.356 174.627 428.405 174.788 428.502 174.924C428.599 175.055 428.735 175.159 428.91 175.237C429.09 175.31 429.299 175.346 429.537 175.346C429.775 175.346 429.982 175.31 430.157 175.237C430.332 175.159 430.468 175.055 430.565 174.924C430.662 174.788 430.711 174.627 430.711 174.442C430.711 174.17 430.604 173.954 430.39 173.794C430.176 173.629 429.889 173.546 429.53 173.546C429.17 173.546 428.883 173.629 428.67 173.794C428.461 173.954 428.356 174.17 428.356 174.442ZM428.495 172.066C428.495 172.304 428.587 172.496 428.772 172.642C428.961 172.783 429.214 172.853 429.53 172.853C429.846 172.853 430.096 172.783 430.281 172.642C430.465 172.501 430.558 172.312 430.558 172.074C430.558 171.835 430.465 171.648 430.281 171.512C430.096 171.371 429.846 171.301 429.53 171.301C429.214 171.301 428.961 171.371 428.772 171.512C428.587 171.648 428.495 171.833 428.495 172.066ZM433.961 176.075C433.596 176.075 433.276 176.002 432.999 175.857C432.726 175.711 432.515 175.507 432.364 175.244C432.219 174.977 432.146 174.666 432.146 174.311H432.955C432.955 174.632 433.045 174.885 433.225 175.069C433.409 175.249 433.659 175.339 433.975 175.339C434.199 175.339 434.391 175.293 434.551 175.201C434.716 175.108 434.845 174.979 434.937 174.814C435.03 174.644 435.076 174.445 435.076 174.217C435.076 173.998 435.032 173.806 434.945 173.641C434.857 173.475 434.733 173.347 434.573 173.254C434.413 173.157 434.216 173.109 433.983 173.109C433.774 173.109 433.577 173.155 433.392 173.247C433.208 173.339 433.062 173.458 432.955 173.604L432.241 173.437L432.889 170.689H435.594V171.447H433.239L433.56 171.155L433.101 172.985L432.824 173.072C432.95 172.858 433.13 172.696 433.363 172.584C433.596 172.467 433.859 172.409 434.15 172.409C434.505 172.409 434.814 172.484 435.076 172.635C435.343 172.785 435.55 172.994 435.696 173.262C435.841 173.529 435.914 173.835 435.914 174.18C435.914 174.554 435.832 174.885 435.666 175.171C435.501 175.453 435.273 175.674 434.981 175.835C434.69 175.995 434.35 176.075 433.961 176.075ZM438.303 176.075C437.938 176.075 437.618 176.002 437.341 175.857C437.069 175.711 436.857 175.507 436.707 175.244C436.561 174.977 436.488 174.666 436.488 174.311H437.297C437.297 174.632 437.387 174.885 437.567 175.069C437.751 175.249 438.002 175.339 438.318 175.339C438.541 175.339 438.733 175.293 438.893 175.201C439.059 175.108 439.187 174.979 439.28 174.814C439.372 174.644 439.418 174.445 439.418 174.217C439.418 173.998 439.374 173.806 439.287 173.641C439.199 173.475 439.076 173.347 438.915 173.254C438.755 173.157 438.558 173.109 438.325 173.109C438.116 173.109 437.919 173.155 437.734 173.247C437.55 173.339 437.404 173.458 437.297 173.604L436.583 173.437L437.231 170.689H439.936V171.447H437.581L437.902 171.155L437.443 172.985L437.166 173.072C437.292 172.858 437.472 172.696 437.705 172.584C437.938 172.467 438.201 172.409 438.492 172.409C438.847 172.409 439.156 172.484 439.418 172.635C439.685 172.785 439.892 172.994 440.038 173.262C440.184 173.529 440.256 173.835 440.256 174.18C440.256 174.554 440.174 174.885 440.009 175.171C439.843 175.453 439.615 175.674 439.323 175.835C439.032 175.995 438.692 176.075 438.303 176.075ZM441.402 176.075C441.246 176.075 441.113 176.022 441.001 175.915C440.894 175.808 440.841 175.682 440.841 175.536C440.841 175.38 440.894 175.249 441.001 175.142C441.113 175.035 441.246 174.982 441.402 174.982C441.553 174.982 441.681 175.035 441.788 175.142C441.9 175.249 441.956 175.38 441.956 175.536C441.956 175.682 441.9 175.808 441.788 175.915C441.681 176.022 441.553 176.075 441.402 176.075ZM446.389 175.981L442.766 175.988V175.361L444.487 173.896C444.686 173.731 444.851 173.58 444.982 173.444C445.114 173.308 445.218 173.181 445.296 173.065C445.374 172.948 445.429 172.832 445.463 172.715C445.497 172.593 445.514 172.467 445.514 172.336C445.514 172.02 445.429 171.775 445.259 171.6C445.094 171.42 444.863 171.33 444.567 171.33C444.256 171.33 444.008 171.434 443.823 171.643C443.644 171.848 443.549 172.129 443.539 172.489H442.723C442.728 172.105 442.808 171.772 442.963 171.49C443.119 171.204 443.333 170.983 443.605 170.827C443.882 170.672 444.202 170.594 444.567 170.594C444.936 170.594 445.252 170.662 445.514 170.798C445.782 170.934 445.988 171.128 446.134 171.381C446.28 171.634 446.353 171.935 446.353 172.285C446.353 172.47 446.328 172.647 446.28 172.817C446.231 172.982 446.156 173.145 446.054 173.305C445.952 173.466 445.821 173.631 445.66 173.801C445.505 173.966 445.315 174.144 445.092 174.333L443.758 175.478L443.473 175.215H446.389V175.981ZM450.292 170.689V175.988H449.504V170.689H450.292ZM446.793 174.224L449.242 170.689H450.117L447.638 174.275L446.793 174.224ZM450.926 174.953H446.793V174.224H450.926V174.953ZM453.784 174.078V170.689H454.608V174.027C454.608 174.43 454.715 174.739 454.928 174.953C455.142 175.167 455.448 175.273 455.847 175.273C456.24 175.273 456.544 175.167 456.758 174.953C456.972 174.734 457.079 174.425 457.079 174.027V170.689H457.902V174.078C457.902 174.486 457.82 174.841 457.654 175.142C457.489 175.439 457.251 175.669 456.94 175.835C456.634 175.995 456.27 176.075 455.847 176.075C455.424 176.075 455.057 175.995 454.746 175.835C454.44 175.674 454.202 175.444 454.032 175.142C453.867 174.841 453.784 174.486 453.784 174.078ZM458.76 172.139C458.76 171.833 458.838 171.566 458.994 171.337C459.154 171.104 459.373 170.922 459.65 170.791C459.931 170.659 460.255 170.594 460.619 170.594C460.969 170.594 461.273 170.655 461.53 170.776C461.788 170.898 461.989 171.072 462.135 171.301C462.281 171.529 462.361 171.799 462.376 172.11H461.545C461.53 171.862 461.44 171.67 461.275 171.534C461.11 171.398 460.889 171.33 460.612 171.33C460.301 171.33 460.05 171.4 459.861 171.541C459.676 171.682 459.584 171.874 459.584 172.117C459.584 172.316 459.64 172.477 459.752 172.598C459.868 172.72 460.043 172.807 460.276 172.861L461.137 173.058C461.579 173.155 461.909 173.322 462.128 173.561C462.351 173.794 462.463 174.102 462.463 174.486C462.463 174.807 462.383 175.089 462.223 175.332C462.067 175.57 461.846 175.755 461.559 175.886C461.273 176.017 460.937 176.083 460.553 176.083C460.189 176.083 459.868 176.022 459.591 175.9C459.314 175.774 459.098 175.597 458.943 175.368C458.787 175.14 458.704 174.873 458.695 174.566H459.518C459.528 174.805 459.625 174.994 459.81 175.135C459.995 175.271 460.245 175.339 460.561 175.339C460.891 175.339 461.154 175.269 461.348 175.128C461.542 174.987 461.639 174.797 461.639 174.559C461.639 174.36 461.584 174.202 461.472 174.085C461.365 173.964 461.195 173.876 460.962 173.823L460.109 173.633C459.667 173.536 459.331 173.364 459.103 173.116C458.874 172.863 458.76 172.538 458.76 172.139ZM465.153 175.988H463.33V170.689H465.116C465.641 170.689 466.103 170.8 466.501 171.024C466.9 171.247 467.208 171.558 467.427 171.957C467.651 172.355 467.762 172.819 467.762 173.349C467.762 173.869 467.653 174.328 467.434 174.727C467.216 175.12 466.909 175.429 466.516 175.652C466.127 175.876 465.673 175.988 465.153 175.988ZM464.154 171.068V175.616L463.761 175.23H465.087C465.461 175.23 465.782 175.154 466.049 175.004C466.321 174.848 466.53 174.63 466.676 174.348C466.827 174.066 466.902 173.733 466.902 173.349C466.902 172.956 466.827 172.618 466.676 172.336C466.526 172.049 466.312 171.831 466.035 171.68C465.763 171.524 465.435 171.447 465.051 171.447H463.761L464.154 171.068Z" fill="#ACB2B5"/>
<rect x="214.775" y="144.443" width="263.867" height="38.6325" rx="6.19578" stroke="white" stroke-opacity="0.12" stroke-width="0.728916"/>
<line x1="72.2715" y1="220.615" x2="94.139" y2="220.615" stroke="#4CF3A8" stroke-opacity="0.12" stroke-width="0.728916"/>
<path d="M109.81 205.308C106.711 205.308 103.681 206.227 101.104 207.949C98.5264 209.671 96.5177 212.118 95.3316 214.982C94.1454 217.846 93.8351 220.997 94.4398 224.037C95.0445 227.077 96.5371 229.869 98.7288 232.061C100.921 234.253 103.713 235.745 106.753 236.35C109.793 236.955 112.944 236.644 115.808 235.458C118.671 234.272 121.119 232.263 122.841 229.686C124.563 227.109 125.482 224.079 125.482 220.979C125.477 216.824 123.825 212.841 120.887 209.903C117.949 206.965 113.965 205.312 109.81 205.308Z" fill="#4CF3A8" fill-opacity="0.12"/>
<path d="M109.8 215.862L109.8 225.794M109.8 225.794L105.966 221.961M109.8 225.794L113.622 221.972" stroke="#8AFFCB" stroke-width="1.45783" stroke-linecap="round" stroke-linejoin="round"/>
<line x1="125.481" y1="220.959" x2="357.645" y2="220.271" stroke="#4CF3A8" stroke-opacity="0.12" stroke-width="0.728916"/>
<rect x="357.646" y="210.774" width="133.392" height="20.4096" rx="5.10241" fill="#DAFFEE" fill-opacity="0.06"/>
<path d="M370.778 222.444C371.909 222.444 372.646 221.658 372.646 220.576C372.646 219.461 371.917 218.716 370.778 218.716H368.525V224.513H369.311V222.444H370.778ZM370.642 219.421C371.38 219.421 371.821 219.838 371.821 220.568C371.821 221.281 371.388 221.738 370.61 221.738H369.311V219.421H370.642ZM375.653 220.56C375.501 220.528 375.389 220.512 375.252 220.512C374.715 220.512 374.322 220.784 374.162 221.193L374.114 220.6H373.408V224.513H374.162V222.436C374.162 221.682 374.603 221.249 375.316 221.249H375.653V220.56ZM376.729 219.662C377.001 219.662 377.226 219.437 377.226 219.165C377.226 218.884 377.001 218.668 376.729 218.668C376.456 218.668 376.232 218.884 376.232 219.165C376.232 219.437 376.456 219.662 376.729 219.662ZM376.36 224.513H377.114V220.592H376.36V224.513ZM377.951 222.556C377.951 223.791 378.713 224.609 379.868 224.609C380.814 224.609 381.543 224.04 381.696 223.19H380.942C380.806 223.655 380.405 223.935 379.868 223.935C379.154 223.935 378.697 223.39 378.697 222.548C378.697 221.698 379.186 221.153 379.9 221.153C380.405 221.153 380.806 221.418 380.934 221.915H381.688C381.552 221.041 380.862 220.48 379.876 220.48C378.729 220.48 377.951 221.33 377.951 222.556ZM384.183 224.609C385.153 224.609 385.811 224.136 386.003 223.294H385.297C385.169 223.743 384.784 223.984 384.199 223.984C383.453 223.984 383.02 223.526 382.964 222.701L385.995 222.693V222.412C385.995 221.249 385.265 220.48 384.151 220.48C383.012 220.48 382.234 221.33 382.234 222.556C382.234 223.775 383.028 224.609 384.183 224.609ZM384.151 221.113C384.816 221.113 385.241 221.546 385.241 222.195H382.98C383.076 221.506 383.493 221.113 384.151 221.113ZM387.478 221.602C387.783 221.602 388.048 221.346 388.048 221.049C388.048 220.736 387.783 220.48 387.478 220.48C387.166 220.48 386.901 220.736 386.901 221.049C386.901 221.346 387.166 221.602 387.478 221.602ZM387.478 224.609C387.783 224.609 388.048 224.352 388.048 224.048C388.048 223.735 387.783 223.478 387.478 223.478C387.166 223.478 386.901 223.735 386.901 224.048C386.901 224.352 387.166 224.609 387.478 224.609Z" fill="white"/>
<rect x="398.098" y="218.429" width="83.8253" height="5.10241" rx="2.5512" fill="#DAFFEE" fill-opacity="0.16"/>
<line x1="491.038" y1="220.615" x2="539.875" y2="220.615" stroke="#4CF3A8" stroke-opacity="0.12" stroke-width="0.728916"/>
<rect x="94.8682" y="243.94" width="400.904" height="91.1145" rx="8.74699" fill="#DAFFEE" fill-opacity="0.06"/>
<path d="M114.618 267.853L111.749 262.768H113.231L115.003 266.01C115.058 266.111 115.108 266.212 115.155 266.313C115.202 266.407 115.248 266.5 115.295 266.593C115.334 266.523 115.365 266.461 115.388 266.407C115.412 266.352 115.435 266.294 115.458 266.232C115.489 266.169 115.532 266.092 115.586 265.998L117.348 262.768H118.794L115.936 267.853V271.247H114.618V267.853ZM118.134 268.378C118.134 267.779 118.263 267.254 118.519 266.803C118.784 266.352 119.145 265.998 119.604 265.742C120.063 265.485 120.583 265.357 121.167 265.357C121.75 265.357 122.267 265.485 122.718 265.742C123.169 265.998 123.526 266.352 123.791 266.803C124.055 267.254 124.187 267.779 124.187 268.378C124.187 268.968 124.055 269.489 123.791 269.94C123.526 270.391 123.169 270.745 122.718 271.002C122.267 271.258 121.75 271.387 121.167 271.387C120.583 271.387 120.063 271.258 119.604 271.002C119.145 270.745 118.784 270.391 118.519 269.94C118.263 269.489 118.134 268.968 118.134 268.378ZM119.394 268.366C119.394 268.739 119.468 269.07 119.615 269.357C119.771 269.637 119.981 269.859 120.245 270.022C120.51 270.178 120.817 270.255 121.167 270.255C121.509 270.255 121.812 270.178 122.076 270.022C122.341 269.859 122.547 269.637 122.694 269.357C122.842 269.07 122.916 268.739 122.916 268.366C122.916 267.993 122.842 267.666 122.694 267.386C122.547 267.106 122.341 266.889 122.076 266.733C121.812 266.57 121.509 266.488 121.167 266.488C120.817 266.488 120.51 266.57 120.245 266.733C119.981 266.889 119.771 267.106 119.615 267.386C119.468 267.666 119.394 267.993 119.394 268.366ZM129.134 265.52H130.394V271.247H129.239L129.123 270.43C128.959 270.718 128.703 270.951 128.353 271.13C128.011 271.309 127.637 271.398 127.233 271.398C126.572 271.398 126.059 271.188 125.694 270.768C125.328 270.349 125.146 269.789 125.146 269.089V265.509H126.405V268.657C126.405 269.233 126.518 269.645 126.743 269.894C126.969 270.143 127.288 270.267 127.7 270.267C128.174 270.267 128.532 270.123 128.773 269.835C129.014 269.548 129.134 269.112 129.134 268.529V265.52ZM134.74 268.249C134.74 267.697 134.853 267.204 135.078 266.768C135.304 266.333 135.619 265.987 136.023 265.73C136.435 265.474 136.913 265.345 137.458 265.345C137.963 265.345 138.394 265.462 138.752 265.695C139.11 265.921 139.359 266.236 139.499 266.64L139.359 266.78L139.475 265.52H140.63V270.978C140.63 271.6 140.509 272.137 140.268 272.588C140.027 273.047 139.685 273.396 139.242 273.637C138.807 273.886 138.29 274.011 137.691 274.011C136.89 274.011 136.229 273.797 135.708 273.369C135.195 272.942 134.888 272.358 134.787 271.62H136.058C136.112 272.016 136.284 272.323 136.571 272.541C136.859 272.767 137.228 272.879 137.679 272.879C138.2 272.879 138.612 272.724 138.915 272.413C139.219 272.11 139.37 271.705 139.37 271.2V269.672L139.534 269.824C139.386 270.22 139.121 270.535 138.74 270.768C138.359 271.002 137.916 271.118 137.411 271.118C136.874 271.118 136.404 270.994 136 270.745C135.603 270.489 135.292 270.146 135.067 269.719C134.849 269.283 134.74 268.794 134.74 268.249ZM136.011 268.214C136.011 268.556 136.077 268.864 136.21 269.136C136.342 269.4 136.532 269.614 136.781 269.777C137.03 269.933 137.322 270.01 137.656 270.01C137.998 270.01 138.293 269.936 138.542 269.789C138.799 269.633 138.993 269.419 139.125 269.147C139.265 268.875 139.335 268.564 139.335 268.214C139.335 267.864 139.269 267.557 139.137 267.293C139.005 267.029 138.814 266.823 138.566 266.675C138.317 266.519 138.013 266.442 137.656 266.442C137.314 266.442 137.018 266.523 136.769 266.686C136.528 266.842 136.342 267.052 136.21 267.316C136.077 267.581 136.011 267.88 136.011 268.214ZM144.682 271.398C144.114 271.398 143.613 271.27 143.177 271.013C142.75 270.757 142.412 270.403 142.163 269.952C141.922 269.493 141.801 268.968 141.801 268.378C141.801 267.779 141.918 267.254 142.151 266.803C142.392 266.352 142.727 265.998 143.154 265.742C143.582 265.477 144.075 265.345 144.635 265.345C145.195 265.345 145.677 265.466 146.081 265.707C146.494 265.94 146.812 266.274 147.038 266.71C147.271 267.137 147.388 267.643 147.388 268.226V268.646L142.466 268.657L142.489 267.841H146.128C146.128 267.398 145.992 267.048 145.72 266.791C145.456 266.527 145.094 266.395 144.635 266.395C144.285 266.395 143.986 266.469 143.737 266.617C143.496 266.764 143.31 266.986 143.177 267.281C143.053 267.569 142.991 267.923 142.991 268.343C142.991 268.996 143.135 269.493 143.422 269.835C143.718 270.178 144.145 270.349 144.705 270.349C145.11 270.349 145.444 270.271 145.708 270.115C145.973 269.96 146.144 269.73 146.221 269.427H147.399C147.267 270.041 146.96 270.523 146.478 270.873C146.004 271.223 145.405 271.398 144.682 271.398ZM147.923 265.52H151.41V266.57H147.923V265.52ZM150.291 271.247H149.043V263.724H150.291V271.247Z" fill="#B8FFDF"/>
<path d="M319.152 266.404V268.976H320.01V266.404L322.135 262.652H321.199L319.8 265.18C319.686 265.39 319.668 265.442 319.59 265.6C319.52 265.451 319.467 265.329 319.38 265.18L317.972 262.652H317.009L319.152 266.404ZM321.679 266.833C321.679 268.154 322.623 269.081 323.909 269.081C325.186 269.081 326.131 268.154 326.131 266.833C326.131 265.512 325.186 264.585 323.909 264.585C322.623 264.585 321.679 265.512 321.679 266.833ZM322.51 266.833C322.51 265.941 323.078 265.32 323.909 265.32C324.731 265.32 325.309 265.941 325.309 266.833C325.309 267.725 324.731 268.346 323.909 268.346C323.078 268.346 322.51 267.725 322.51 266.833ZM329.895 264.699V266.956C329.895 267.874 329.484 268.355 328.732 268.355C328.102 268.355 327.708 268.005 327.708 267.087V264.699H326.886V267.358C326.886 268.408 327.446 269.081 328.443 269.081C329.073 269.081 329.641 268.775 329.886 268.329L329.974 268.976H330.708V264.699H329.895ZM334.351 264.664C334.184 264.629 334.062 264.611 333.913 264.611C333.327 264.611 332.899 264.909 332.724 265.355L332.671 264.708H331.901V268.976H332.724V266.711C332.724 265.888 333.205 265.416 333.983 265.416H334.351V264.664ZM338.257 268.976L338.318 268.198C338.598 268.784 339.167 269.081 339.84 269.081C341.082 269.081 341.852 268.154 341.852 266.859C341.852 265.539 341.117 264.576 339.893 264.576C339.193 264.576 338.616 264.874 338.336 265.434V262.538H337.513V268.976H338.257ZM338.344 266.824C338.344 265.95 338.852 265.32 339.691 265.32C340.531 265.32 341.03 265.95 341.03 266.824C341.03 267.708 340.531 268.338 339.691 268.338C338.852 268.338 338.344 267.717 338.344 266.824ZM344.009 269.081C344.7 269.081 345.286 268.775 345.505 268.285L345.592 268.976H346.292V266.291C346.292 265.136 345.575 264.576 344.516 264.576C343.414 264.576 342.68 265.162 342.68 266.055H343.397C343.397 265.539 343.79 265.232 344.481 265.232C345.059 265.232 345.487 265.486 345.487 266.203V266.326L344.14 266.431C343.134 266.509 342.548 266.999 342.548 267.786C342.548 268.565 343.091 269.081 344.009 269.081ZM344.245 268.443C343.712 268.443 343.379 268.215 343.379 267.76C343.379 267.34 343.677 267.06 344.403 266.991L345.496 266.903V267.13C345.496 267.935 345.024 268.443 344.245 268.443ZM348.27 268.976V262.538H347.448V268.976H348.27ZM350.732 269.081C351.423 269.081 352.009 268.775 352.227 268.285L352.315 268.976H353.015V266.291C353.015 265.136 352.297 264.576 351.239 264.576C350.137 264.576 349.402 265.162 349.402 266.055H350.119C350.119 265.539 350.513 265.232 351.204 265.232C351.781 265.232 352.21 265.486 352.21 266.203V266.326L350.863 266.431C349.857 266.509 349.271 266.999 349.271 267.786C349.271 268.565 349.813 269.081 350.732 269.081ZM350.968 268.443C350.434 268.443 350.102 268.215 350.102 267.76C350.102 267.34 350.399 267.06 351.125 266.991L352.219 266.903V267.13C352.219 267.935 351.746 268.443 350.968 268.443ZM354.975 268.976V266.711C354.975 265.88 355.422 265.329 356.191 265.329C356.821 265.329 357.223 265.678 357.223 266.544V268.976H358.046V266.361C358.046 265.267 357.53 264.576 356.401 264.576C355.798 264.576 355.255 264.865 354.984 265.355L354.897 264.699H354.153V268.976H354.975ZM358.905 266.842C358.905 268.189 359.736 269.081 360.995 269.081C362.027 269.081 362.823 268.46 362.989 267.533H362.167C362.018 268.04 361.581 268.346 360.995 268.346C360.217 268.346 359.718 267.751 359.718 266.833C359.718 265.906 360.252 265.311 361.03 265.311C361.581 265.311 362.018 265.6 362.158 266.142H362.981C362.832 265.189 362.08 264.576 361.004 264.576C359.753 264.576 358.905 265.504 358.905 266.842ZM365.703 269.081C366.761 269.081 367.478 268.565 367.688 267.647H366.918C366.778 268.136 366.359 268.399 365.72 268.399C364.907 268.399 364.434 267.9 364.373 266.999L367.679 266.991V266.684C367.679 265.416 366.883 264.576 365.668 264.576C364.425 264.576 363.577 265.504 363.577 266.842C363.577 268.171 364.443 269.081 365.703 269.081ZM365.668 265.267C366.394 265.267 366.857 265.74 366.857 266.448H364.39C364.495 265.696 364.95 265.267 365.668 265.267ZM369.297 265.801C369.63 265.801 369.919 265.521 369.919 265.197C369.919 264.856 369.63 264.576 369.297 264.576C368.956 264.576 368.668 264.856 368.668 265.197C368.668 265.521 368.956 265.801 369.297 265.801ZM369.297 269.081C369.63 269.081 369.919 268.801 369.919 268.469C369.919 268.128 369.63 267.848 369.297 267.848C368.956 267.848 368.668 268.128 368.668 268.469C368.668 268.801 368.956 269.081 369.297 269.081Z" fill="white" fill-opacity="0.7"/>
<rect x="378.092" y="263.425" width="83.8253" height="5.10241" rx="2.5512" fill="#DAFFEE" fill-opacity="0.16"/>
<rect x="465.562" y="260.598" width="13.4444" height="10.7556" rx="5.37778" fill="white" fill-opacity="0.06"/>
<g clip-path="url(#clip2_596_4203)">
<circle cx="128.398" cy="300.795" r="14.5783" fill="url(#paint7_linear_596_4203)"/>
<path d="M132.568 293.776L128.006 297.957C127.536 298.389 126.921 298.63 126.282 298.633L124.922 298.636L124.917 293.776H122.459V307.665H123.8C124.169 307.666 124.532 307.568 124.851 307.382C125.171 307.195 125.434 306.927 125.615 306.605C125.619 306.601 125.62 306.596 125.623 306.593C125.866 306.152 125.988 305.281 125.965 304.686C125.912 303.326 125.695 302.972 125.695 302.972C125.649 303.905 124.684 303.955 124.684 303.955C125.371 303.293 124.997 302.793 124.997 302.793C123.781 303.666 123.477 302.734 123.454 302.65C123.491 302.682 123.838 302.974 124.495 302.065C125.19 301.104 126.117 299.503 126.707 299.092C127.298 298.679 127.858 298.713 127.858 298.713C127.858 298.713 128.181 298.272 129.035 297.905C129.888 297.541 130.435 298.075 130.435 298.075C129.563 298.785 128.378 299.952 128.311 301.623C128.259 302.975 131.148 305.295 130.641 308.723C130.945 307.944 131.066 307.165 130.962 306.2C130.879 305.421 130.381 303.795 130.381 303.795L133.157 307.664H136.225L130.228 299.351L136.225 293.776H132.568H132.568Z" fill="white"/>
<path d="M126.981 299.756C126.787 300.08 126.787 300.18 126.787 300.18C126.787 300.18 127.465 300.064 127.648 299.252C127.65 299.252 127.215 299.364 126.981 299.756Z" fill="white"/>
</g>
<path d="M149.787 289.873H148.294V298.398H149.787V296.579L151.198 294.771L153.309 298.398H155.035L152.178 293.512L155 289.873H153.239L149.787 294.351V289.873ZM156.888 298.398L157.576 296.427H160.76L161.448 298.398H163.022L159.943 289.873H158.415L155.337 298.398H156.888ZM158.987 292.415C159.069 292.182 159.139 291.926 159.174 291.762C159.197 291.937 159.278 292.194 159.348 292.415L160.328 295.168H158.019L158.987 292.415ZM165.584 298.398V295.215H167.415L168.861 298.398H170.494L168.873 294.9C169.876 294.491 170.412 293.675 170.412 292.532C170.412 290.853 169.281 289.873 167.345 289.873H164.091V298.398H165.584ZM165.584 291.203H167.345C168.29 291.203 168.85 291.681 168.85 292.532C168.85 293.395 168.29 293.897 167.345 293.897H165.584V291.203Z" fill="white"/>
<g clip-path="url(#clip3_596_4203)">
<path d="M148.942 303.867H148.084V310.191H148.942V308.739L150.096 307.278L151.819 310.191H152.816L150.665 306.552L152.781 303.867H151.758L148.942 307.453V303.867ZM154.688 310.296C155.379 310.296 155.965 309.99 156.183 309.5L156.271 310.191H156.971V307.506C156.971 306.351 156.253 305.791 155.195 305.791C154.093 305.791 153.358 306.377 153.358 307.269H154.075C154.075 306.753 154.469 306.447 155.16 306.447C155.737 306.447 156.166 306.701 156.166 307.418V307.541L154.819 307.646C153.813 307.724 153.227 308.214 153.227 309.001C153.227 309.78 153.769 310.296 154.688 310.296ZM154.924 309.657C154.39 309.657 154.058 309.43 154.058 308.975C154.058 308.555 154.355 308.275 155.081 308.205L156.175 308.118V308.345C156.175 309.15 155.702 309.657 154.924 309.657ZM160.559 305.879C160.392 305.844 160.27 305.826 160.121 305.826C159.535 305.826 159.107 306.124 158.932 306.57L158.879 305.922H158.109V310.191H158.932V307.925C158.932 307.103 159.413 306.631 160.191 306.631H160.559V305.879ZM164.286 305.914V308.17C164.286 309.089 163.875 309.57 163.123 309.57C162.493 309.57 162.099 309.22 162.099 308.302V305.914H161.277V308.573C161.277 309.622 161.837 310.296 162.834 310.296C163.464 310.296 164.033 309.99 164.277 309.544L164.365 310.191H165.1V305.914H164.286ZM168.742 305.879C168.576 305.844 168.453 305.826 168.304 305.826C167.718 305.826 167.29 306.124 167.115 306.57L167.062 305.922H166.293V310.191H167.115V307.925C167.115 307.103 167.596 306.631 168.374 306.631H168.742V305.879ZM170.593 310.296C171.284 310.296 171.87 309.99 172.089 309.5L172.176 310.191H172.876V307.506C172.876 306.351 172.159 305.791 171.1 305.791C169.998 305.791 169.263 306.377 169.263 307.269H169.981C169.981 306.753 170.374 306.447 171.065 306.447C171.643 306.447 172.071 306.701 172.071 307.418V307.541L170.724 307.646C169.718 307.724 169.132 308.214 169.132 309.001C169.132 309.78 169.674 310.296 170.593 310.296ZM170.829 309.657C170.295 309.657 169.963 309.43 169.963 308.975C169.963 308.555 170.26 308.275 170.986 308.205L172.08 308.118V308.345C172.08 309.15 171.608 309.657 170.829 309.657Z" fill="#ACB2B5"/>
</g>
<path d="M178.723 298.787C178.741 298.725 178.757 298.662 178.777 298.601C178.83 298.44 178.922 298.295 179.044 298.179C179.166 298.063 179.315 297.98 179.477 297.936C179.639 297.892 179.809 297.889 179.972 297.928C180.135 297.967 180.286 298.046 180.412 298.158C180.449 298.191 180.483 298.226 180.518 298.261L183.366 301.141C183.392 301.167 183.415 301.197 183.445 301.232C183.48 301.199 183.506 301.174 183.531 301.148L186.418 298.23C186.596 298.025 186.847 297.899 187.116 297.882C187.385 297.864 187.65 297.955 187.852 298.134C188.055 298.314 188.179 298.568 188.196 298.84C188.214 299.112 188.124 299.38 187.946 299.585C187.915 299.623 187.881 299.659 187.846 299.695L184.208 303.373C184.061 303.539 183.864 303.651 183.647 303.693C183.43 303.734 183.206 303.703 183.009 303.604C182.899 303.547 182.799 303.474 182.712 303.386C181.489 302.153 180.267 300.919 179.046 299.683C178.882 299.514 178.77 299.301 178.723 299.069V298.787Z" fill="white"/>
<rect x="214.41" y="281.114" width="264.596" height="39.3614" rx="6.56024" fill="#DAFFEE" fill-opacity="0.06"/>
<path d="M385.367 299.552V297.991H381.378L383.11 296.508C384.567 295.262 385.301 294.252 385.301 292.913C385.301 290.972 384.029 289.804 381.982 289.804C379.948 289.804 378.61 291.168 378.597 293.268H380.263C380.276 292.034 380.932 291.3 381.982 291.3C382.992 291.3 383.583 291.916 383.583 293.005C383.583 293.924 383.15 294.553 381.851 295.656L378.715 298.306V299.565L385.367 299.552ZM386.389 296.849C386.389 298.595 387.819 299.723 390.036 299.723C392.267 299.723 393.697 298.581 393.697 296.849C393.697 295.695 393.041 294.763 392.03 294.409C392.883 294.055 393.356 293.333 393.356 292.402C393.356 290.84 392.03 289.804 390.062 289.804C388.081 289.804 386.73 290.853 386.73 292.375C386.73 293.307 387.189 294.029 388.029 294.409C387.032 294.79 386.389 295.708 386.389 296.849ZM388.252 292.52C388.252 291.733 388.947 291.234 390.036 291.234C391.112 291.234 391.794 291.733 391.794 292.533C391.794 293.333 391.112 293.832 390.036 293.832C388.947 293.832 388.252 293.32 388.252 292.52ZM388.029 296.731C388.029 295.8 388.803 295.223 390.036 295.223C391.269 295.223 392.044 295.8 392.044 296.731C392.044 297.663 391.269 298.24 390.049 298.24C388.803 298.24 388.029 297.663 388.029 296.731ZM398.062 299.723C400.201 299.723 401.657 298.306 401.657 296.233C401.657 294.343 400.384 293.045 398.469 293.045C397.813 293.045 397.236 293.215 396.776 293.517L397.288 291.523H401.08V289.974H396.081L394.9 295L396.383 295.314C396.724 294.816 397.393 294.448 398.128 294.448C399.282 294.448 399.951 295.209 399.951 296.325C399.951 297.492 399.23 298.227 398.102 298.227C397.039 298.227 396.396 297.584 396.396 296.495H394.73C394.73 298.437 396.055 299.723 398.062 299.723ZM405.929 299.723C408.068 299.723 409.524 298.306 409.524 296.233C409.524 294.343 408.252 293.045 406.336 293.045C405.68 293.045 405.103 293.215 404.644 293.517L405.155 291.523H408.947V289.974H403.948L402.767 295L404.25 295.314C404.591 294.816 405.26 294.448 405.995 294.448C407.15 294.448 407.819 295.209 407.819 296.325C407.819 297.492 407.097 298.227 405.969 298.227C404.906 298.227 404.263 297.584 404.263 296.495H402.597C402.597 298.437 403.922 299.723 405.929 299.723ZM411.623 299.723C412.201 299.723 412.686 299.251 412.686 298.686C412.686 298.109 412.201 297.637 411.623 297.637C411.046 297.637 410.561 298.109 410.561 298.686C410.561 299.251 411.046 299.723 411.623 299.723ZM420.795 299.552V297.991H416.806L418.538 296.508C419.994 295.262 420.729 294.252 420.729 292.913C420.729 290.972 419.457 289.804 417.41 289.804C415.376 289.804 414.038 291.168 414.025 293.268H415.691C415.704 292.034 416.36 291.3 417.41 291.3C418.42 291.3 419.01 291.916 419.01 293.005C419.01 293.924 418.577 294.553 417.279 295.656L414.143 298.306V299.565L420.795 299.552ZM429.115 297.742V296.272H427.947V289.974H425.835L421.492 296.272V297.742H426.36V299.565H427.947V297.742H429.115ZM423.276 296.272L426.36 291.785V296.272H423.276ZM431.369 292.795C430.293 294.252 429.912 295.091 429.912 296.246C429.912 298.214 431.461 299.736 433.534 299.736C435.58 299.736 437.102 298.306 437.102 296.259C437.102 294.317 435.764 292.926 433.783 292.926C433.547 292.926 433.298 292.966 433.061 293.031L435.357 289.974H433.442L431.369 292.795ZM431.631 296.259C431.631 295.104 432.392 294.304 433.534 294.304C434.636 294.304 435.41 295.104 435.41 296.259C435.41 297.427 434.623 298.24 433.534 298.24C432.405 298.24 431.631 297.427 431.631 296.259ZM443.855 289.974H442.175V299.565H443.855V297.519L445.442 295.485L447.817 299.565H449.759L446.545 294.068L449.72 289.974H447.739L443.855 295.013V289.974ZM451.843 299.565L452.617 297.348H456.199L456.973 299.565H458.744L455.281 289.974H453.562L450.098 299.565H451.843ZM454.205 292.835C454.297 292.572 454.375 292.284 454.415 292.1C454.441 292.297 454.533 292.585 454.611 292.835L455.714 295.931H453.116L454.205 292.835ZM461.626 299.565V295.984H463.686L465.313 299.565H467.15L465.326 295.629C466.455 295.17 467.058 294.252 467.058 292.966C467.058 291.076 465.786 289.974 463.608 289.974H459.947V299.565H461.626ZM461.626 291.47H463.608C464.67 291.47 465.3 292.008 465.3 292.966C465.3 293.937 464.67 294.501 463.608 294.501H461.626V291.47Z" fill="white"/>
<path d="M423.719 309.517H424.339C424.339 309.751 424.298 309.96 424.215 310.144C424.137 310.324 424.026 310.467 423.88 310.574C423.734 310.676 423.559 310.727 423.355 310.727C423.18 310.727 423.017 310.698 422.867 310.64C422.721 310.577 422.582 310.506 422.451 310.428C422.325 310.346 422.201 310.275 422.079 310.217C421.963 310.154 421.846 310.122 421.73 310.122C421.579 310.122 421.472 310.171 421.409 310.268C421.346 310.36 421.314 310.492 421.314 310.662H420.694C420.694 310.433 420.733 310.232 420.811 310.057C420.894 309.877 421.008 309.736 421.154 309.634C421.304 309.532 421.479 309.481 421.678 309.481C421.844 309.481 421.997 309.512 422.138 309.576C422.283 309.634 422.422 309.704 422.553 309.787C422.684 309.865 422.811 309.935 422.932 309.998C423.054 310.057 423.178 310.086 423.304 310.086C423.455 310.086 423.562 310.037 423.625 309.94C423.688 309.838 423.719 309.697 423.719 309.517ZM423.719 310.939H424.339C424.339 311.172 424.298 311.381 424.215 311.566C424.137 311.745 424.026 311.889 423.88 311.996C423.734 312.098 423.559 312.149 423.355 312.149C423.18 312.149 423.017 312.12 422.867 312.061C422.721 311.998 422.582 311.928 422.451 311.85C422.325 311.767 422.201 311.697 422.079 311.638C421.963 311.575 421.846 311.544 421.73 311.544C421.579 311.544 421.472 311.592 421.409 311.69C421.346 311.782 421.314 311.913 421.314 312.083H420.694C420.694 311.855 420.733 311.653 420.811 311.478C420.894 311.298 421.008 311.157 421.154 311.055C421.304 310.948 421.479 310.895 421.678 310.895C421.844 310.895 421.997 310.927 422.138 310.99C422.283 311.053 422.422 311.126 422.553 311.208C422.684 311.286 422.811 311.357 422.932 311.42C423.054 311.478 423.178 311.507 423.304 311.507C423.455 311.507 423.562 311.459 423.625 311.362C423.688 311.259 423.719 311.119 423.719 310.939ZM427.223 311.536C427.223 311.177 427.332 310.866 427.551 310.603C427.77 310.341 428.059 310.176 428.418 310.108L428.426 310.275C428.105 310.188 427.855 310.037 427.675 309.823C427.5 309.605 427.412 309.342 427.412 309.036C427.412 308.754 427.488 308.509 427.638 308.3C427.794 308.091 428.005 307.928 428.273 307.812C428.545 307.69 428.861 307.629 429.22 307.629C429.575 307.629 429.886 307.688 430.153 307.804C430.42 307.921 430.627 308.086 430.773 308.3C430.923 308.514 430.999 308.764 430.999 309.051C430.999 309.357 430.911 309.617 430.736 309.831C430.561 310.045 430.314 310.19 429.993 310.268L429.986 310.115C430.228 310.154 430.44 310.239 430.62 310.37C430.804 310.501 430.945 310.667 431.042 310.866C431.144 311.065 431.196 311.289 431.196 311.536C431.196 311.852 431.113 312.129 430.948 312.367C430.782 312.601 430.552 312.783 430.255 312.914C429.959 313.045 429.611 313.111 429.213 313.111C428.81 313.111 428.46 313.048 428.163 312.921C427.867 312.79 427.636 312.606 427.471 312.367C427.306 312.129 427.223 311.852 427.223 311.536ZM428.032 311.478C428.032 311.663 428.081 311.823 428.178 311.959C428.275 312.09 428.411 312.195 428.586 312.273C428.766 312.346 428.975 312.382 429.213 312.382C429.451 312.382 429.658 312.346 429.832 312.273C430.007 312.195 430.143 312.09 430.241 311.959C430.338 311.823 430.386 311.663 430.386 311.478C430.386 311.206 430.28 310.99 430.066 310.829C429.852 310.664 429.565 310.582 429.206 310.582C428.846 310.582 428.559 310.664 428.345 310.829C428.137 310.99 428.032 311.206 428.032 311.478ZM428.171 309.102C428.171 309.34 428.263 309.532 428.448 309.678C428.637 309.819 428.89 309.889 429.206 309.889C429.521 309.889 429.772 309.819 429.956 309.678C430.141 309.537 430.233 309.347 430.233 309.109C430.233 308.871 430.141 308.684 429.956 308.548C429.772 308.407 429.521 308.337 429.206 308.337C428.89 308.337 428.637 308.407 428.448 308.548C428.263 308.684 428.171 308.869 428.171 309.102ZM433.637 313.111C433.272 313.111 432.951 313.038 432.674 312.892C432.402 312.746 432.191 312.542 432.04 312.28C431.894 312.013 431.822 311.702 431.822 311.347H432.631C432.631 311.668 432.721 311.92 432.9 312.105C433.085 312.285 433.335 312.375 433.651 312.375C433.875 312.375 434.067 312.329 434.227 312.236C434.392 312.144 434.521 312.015 434.613 311.85C434.706 311.68 434.752 311.481 434.752 311.252C434.752 311.033 434.708 310.842 434.621 310.676C434.533 310.511 434.409 310.382 434.249 310.29C434.088 310.193 433.892 310.144 433.658 310.144C433.449 310.144 433.253 310.19 433.068 310.283C432.883 310.375 432.738 310.494 432.631 310.64L431.916 310.472L432.565 307.724H435.269V308.482H432.915L433.236 308.191L432.776 310.02L432.499 310.108C432.626 309.894 432.806 309.731 433.039 309.619C433.272 309.503 433.534 309.444 433.826 309.444C434.181 309.444 434.489 309.52 434.752 309.67C435.019 309.821 435.226 310.03 435.371 310.297C435.517 310.565 435.59 310.871 435.59 311.216C435.59 311.59 435.507 311.92 435.342 312.207C435.177 312.489 434.949 312.71 434.657 312.87C434.365 313.031 434.025 313.111 433.637 313.111ZM437.979 313.111C437.614 313.111 437.294 313.038 437.017 312.892C436.744 312.746 436.533 312.542 436.382 312.28C436.237 312.013 436.164 311.702 436.164 311.347H436.973C436.973 311.668 437.063 311.92 437.242 312.105C437.427 312.285 437.677 312.375 437.993 312.375C438.217 312.375 438.409 312.329 438.569 312.236C438.734 312.144 438.863 312.015 438.955 311.85C439.048 311.68 439.094 311.481 439.094 311.252C439.094 311.033 439.05 310.842 438.963 310.676C438.875 310.511 438.751 310.382 438.591 310.29C438.431 310.193 438.234 310.144 438.001 310.144C437.792 310.144 437.595 310.19 437.41 310.283C437.225 310.375 437.08 310.494 436.973 310.64L436.258 310.472L436.907 307.724H439.611V308.482H437.257L437.578 308.191L437.119 310.02L436.842 310.108C436.968 309.894 437.148 309.731 437.381 309.619C437.614 309.503 437.877 309.444 438.168 309.444C438.523 309.444 438.832 309.52 439.094 309.67C439.361 309.821 439.568 310.03 439.714 310.297C439.859 310.565 439.932 310.871 439.932 311.216C439.932 311.59 439.85 311.92 439.684 312.207C439.519 312.489 439.291 312.71 438.999 312.87C438.708 313.031 438.367 313.111 437.979 313.111ZM441.078 313.111C440.922 313.111 440.789 313.057 440.677 312.951C440.57 312.844 440.516 312.717 440.516 312.572C440.516 312.416 440.57 312.285 440.677 312.178C440.789 312.071 440.922 312.018 441.078 312.018C441.228 312.018 441.357 312.071 441.464 312.178C441.576 312.285 441.632 312.416 441.632 312.572C441.632 312.717 441.576 312.844 441.464 312.951C441.357 313.057 441.228 313.111 441.078 313.111ZM446.065 313.016L442.442 313.023V312.397L444.162 310.931C444.362 310.766 444.527 310.616 444.658 310.48C444.789 310.343 444.894 310.217 444.972 310.1C445.049 309.984 445.105 309.867 445.139 309.751C445.173 309.629 445.19 309.503 445.19 309.372C445.19 309.056 445.105 308.81 444.935 308.635C444.77 308.456 444.539 308.366 444.243 308.366C443.932 308.366 443.684 308.47 443.499 308.679C443.319 308.883 443.225 309.165 443.215 309.525H442.398C442.403 309.141 442.484 308.808 442.639 308.526C442.795 308.239 443.008 308.018 443.28 307.863C443.557 307.707 443.878 307.629 444.243 307.629C444.612 307.629 444.928 307.697 445.19 307.834C445.458 307.97 445.664 308.164 445.81 308.417C445.956 308.669 446.028 308.971 446.028 309.321C446.028 309.505 446.004 309.683 445.956 309.853C445.907 310.018 445.832 310.181 445.73 310.341C445.628 310.501 445.496 310.667 445.336 310.837C445.181 311.002 444.991 311.179 444.767 311.369L443.434 312.513L443.149 312.251H446.065V313.016ZM449.967 307.724V313.023H449.18V307.724H449.967ZM446.469 311.259L448.918 307.724H449.792L447.314 311.31L446.469 311.259ZM450.602 311.988H446.469V311.259H450.602V311.988ZM453.46 311.114V307.724H454.283V311.063C454.283 311.466 454.39 311.775 454.604 311.988C454.818 312.202 455.124 312.309 455.523 312.309C455.916 312.309 456.22 312.202 456.434 311.988C456.648 311.77 456.754 311.461 456.754 311.063V307.724H457.578V311.114C457.578 311.522 457.495 311.877 457.33 312.178C457.165 312.474 456.927 312.705 456.616 312.87C456.31 313.031 455.945 313.111 455.523 313.111C455.1 313.111 454.733 313.031 454.422 312.87C454.116 312.71 453.878 312.479 453.708 312.178C453.542 311.877 453.46 311.522 453.46 311.114ZM458.436 309.175C458.436 308.869 458.514 308.601 458.669 308.373C458.83 308.14 459.048 307.957 459.325 307.826C459.607 307.695 459.93 307.629 460.295 307.629C460.645 307.629 460.948 307.69 461.206 307.812C461.463 307.933 461.665 308.108 461.811 308.337C461.957 308.565 462.037 308.835 462.051 309.146H461.221C461.206 308.898 461.116 308.706 460.951 308.57C460.786 308.434 460.564 308.366 460.288 308.366C459.977 308.366 459.726 308.436 459.537 308.577C459.352 308.718 459.26 308.91 459.26 309.153C459.26 309.352 459.316 309.512 459.427 309.634C459.544 309.755 459.719 309.843 459.952 309.896L460.812 310.093C461.255 310.19 461.585 310.358 461.804 310.596C462.027 310.829 462.139 311.138 462.139 311.522C462.139 311.843 462.059 312.124 461.898 312.367C461.743 312.606 461.522 312.79 461.235 312.921C460.948 313.053 460.613 313.118 460.229 313.118C459.865 313.118 459.544 313.057 459.267 312.936C458.99 312.81 458.774 312.632 458.618 312.404C458.463 312.175 458.38 311.908 458.37 311.602H459.194C459.204 311.84 459.301 312.03 459.486 312.171C459.67 312.307 459.921 312.375 460.236 312.375C460.567 312.375 460.829 312.304 461.024 312.163C461.218 312.022 461.315 311.833 461.315 311.595C461.315 311.396 461.259 311.238 461.148 311.121C461.041 310.999 460.871 310.912 460.637 310.859L459.785 310.669C459.342 310.572 459.007 310.399 458.779 310.152C458.55 309.899 458.436 309.573 458.436 309.175ZM464.829 313.023H463.006V307.724H464.792C465.317 307.724 465.779 307.836 466.177 308.06C466.576 308.283 466.884 308.594 467.103 308.993C467.326 309.391 467.438 309.855 467.438 310.385C467.438 310.905 467.329 311.364 467.11 311.762C466.891 312.156 466.585 312.465 466.192 312.688C465.803 312.912 465.349 313.023 464.829 313.023ZM463.83 308.103V312.652L463.436 312.265H464.763C465.137 312.265 465.458 312.19 465.725 312.039C465.997 311.884 466.206 311.665 466.352 311.383C466.503 311.102 466.578 310.769 466.578 310.385C466.578 309.991 466.503 309.653 466.352 309.372C466.201 309.085 465.988 308.866 465.711 308.716C465.438 308.56 465.11 308.482 464.726 308.482H463.436L463.83 308.103Z" fill="#ACB2B5"/>
<rect x="214.775" y="281.479" width="263.867" height="38.6325" rx="6.19578" stroke="white" stroke-opacity="0.12" stroke-width="0.728916"/>
<rect x="94.8672" y="349.632" width="121" height="8.01807" rx="4.00904" fill="#DAFFEE" fill-opacity="0.06"/>
<rect x="432.355" y="349.632" width="63.4157" height="8.01807" rx="4.00904" fill="#4CF3A8" fill-opacity="0.12"/>
<line x1="94.8672" y1="365.486" x2="495.771" y2="365.486" stroke="white" stroke-opacity="0.12" stroke-width="0.364458"/>
<rect x="94.8672" y="373.687" width="61.2289" height="8.01807" rx="4.00904" fill="#DAFFEE" fill-opacity="0.06"/>
<rect x="455.681" y="373.687" width="40.0904" height="8.01807" rx="4.00904" fill="#4CF3A8" fill-opacity="0.12"/>
<line x1="94.8672" y1="389.54" x2="495.771" y2="389.54" stroke="white" stroke-opacity="0.12" stroke-width="0.364458"/>
<rect x="94.8672" y="397.741" width="91.8434" height="8.01807" rx="4.00904" fill="#DAFFEE" fill-opacity="0.06"/>
<rect x="432.355" y="397.741" width="63.4157" height="8.01807" rx="4.00904" fill="#4CF3A8" fill-opacity="0.12"/>
<line x1="94.8672" y1="413.595" x2="495.771" y2="413.595" stroke="white" stroke-opacity="0.12" stroke-width="0.364458"/>
<rect x="94.8672" y="421.795" width="150.886" height="8.01807" rx="4.00904" fill="#DAFFEE" fill-opacity="0.06"/>
<rect x="407.572" y="421.795" width="88.1988" height="8.01807" rx="4.00904" fill="#4CF3A8" fill-opacity="0.12"/>
<line x1="94.8672" y1="437.649" x2="495.771" y2="437.649" stroke="white" stroke-opacity="0.12" stroke-width="0.364458"/>
<rect x="94.8672" y="445.85" width="56.1265" height="8.01807" rx="4.00904" fill="#DAFFEE" fill-opacity="0.06"/>
<rect x="458.596" y="445.85" width="37.1747" height="8.01807" rx="4.00904" fill="#4CF3A8" fill-opacity="0.12"/>
<circle cx="482.65" cy="76.3442" r="14.8232" fill="white" fill-opacity="0.06"/>
<path d="M489.983 72.9879H488.121C487.974 72.4838 487.667 72.0412 487.246 71.7263C486.825 71.4114 486.314 71.2412 485.789 71.2412C485.263 71.2412 484.752 71.4114 484.331 71.7263C483.911 72.0412 483.604 72.4838 483.456 72.9879H474.603C474.418 72.9879 474.24 73.0615 474.109 73.1925C473.978 73.3236 473.904 73.5013 473.904 73.6865C473.904 73.8718 473.978 74.0495 474.109 74.1805C474.24 74.3116 474.418 74.3852 474.603 74.3852H483.456C483.604 74.8892 483.911 75.3319 484.331 75.6468C484.752 75.9617 485.263 76.1319 485.789 76.1319C486.314 76.1319 486.825 75.9617 487.246 75.6468C487.667 75.3319 487.974 74.8892 488.121 74.3852H489.983C490.168 74.3852 490.346 74.3116 490.477 74.1805C490.608 74.0495 490.682 73.8718 490.682 73.6865C490.682 73.5013 490.608 73.3236 490.477 73.1925C490.346 73.0615 490.168 72.9879 489.983 72.9879V72.9879ZM485.789 74.7348C485.581 74.7348 485.379 74.6733 485.206 74.5581C485.034 74.4429 484.899 74.2792 484.82 74.0877C484.741 73.8961 484.72 73.6854 484.76 73.482C484.801 73.2787 484.901 73.0919 485.047 72.9453C485.194 72.7987 485.381 72.6989 485.584 72.6584C485.788 72.618 485.998 72.6387 486.19 72.7181C486.382 72.7974 486.545 72.9318 486.661 73.1042C486.776 73.2765 486.837 73.4792 486.837 73.6865C486.837 73.9645 486.726 74.2309 486.53 74.4274C486.333 74.6239 486.067 74.7345 485.789 74.7348V74.7348Z" fill="#9EA9B1"/>
<path d="M489.982 78.5778H481.129C480.981 78.0737 480.674 77.631 480.254 77.3161C479.833 77.0012 479.322 76.8311 478.796 76.8311C478.271 76.8311 477.76 77.0012 477.339 77.3161C476.919 77.631 476.611 78.0737 476.464 78.5778H474.602C474.42 78.5833 474.248 78.6593 474.121 78.7898C473.995 78.9203 473.924 79.0949 473.924 79.2767C473.924 79.4585 473.995 79.6331 474.121 79.7636C474.248 79.8941 474.42 79.9701 474.602 79.9756H476.464C476.611 80.4797 476.919 80.9223 477.339 81.2372C477.76 81.5521 478.271 81.7223 478.796 81.7223C479.322 81.7223 479.833 81.5521 480.254 81.2372C480.674 80.9223 480.981 80.4797 481.129 79.9756H489.982C490.164 79.9701 490.336 79.8941 490.463 79.7636C490.589 79.6331 490.66 79.4585 490.66 79.2767C490.66 79.0949 490.589 78.9203 490.463 78.7898C490.336 78.6593 490.164 78.5833 489.982 78.5778V78.5778ZM478.796 80.3253C478.589 80.3253 478.386 80.2638 478.214 80.1486C478.041 80.0334 477.907 79.8697 477.828 79.6782C477.748 79.4866 477.728 79.2759 477.768 79.0725C477.808 78.8692 477.908 78.6824 478.055 78.5358C478.202 78.3892 478.388 78.2893 478.592 78.2489C478.795 78.2085 479.006 78.2292 479.198 78.3085C479.389 78.3879 479.553 78.5222 479.668 78.6946C479.784 78.867 479.845 79.0697 479.845 79.277C479.845 79.5549 479.734 79.8214 479.538 80.0179C479.341 80.2144 479.074 80.3249 478.796 80.3253V80.3253Z" fill="#9EA9B1"/>
</g>
<rect x="73.4481" y="45.4481" width="443.742" height="483.104" rx="17.4778" stroke="white" stroke-opacity="0.06" stroke-width="0.896296"/>
</g>
</g>
<defs>
<filter id="filter0_d_596_4203" x="8.77037" y="40.7704" width="527.098" height="566.459" filterUnits="userSpaceOnUse" color-interpolation-filters="sRGB">
<feFlood flood-opacity="0" result="BackgroundImageFix"/>
<feColorMatrix in="SourceAlpha" type="matrix" values="0 0 0 0 0 0 0 0 0 0 0 0 0 0 0 0 0 0 127 0" result="hardAlpha"/>
<feOffset dx="-23" dy="37"/>
<feGaussianBlur stdDeviation="20.6148"/>
<feComposite in2="hardAlpha" operator="out"/>
<feColorMatrix type="matrix" values="0 0 0 0 0 0 0 0 0 0 0 0 0 0 0 0 0 0 0.26 0"/>
<feBlend mode="normal" in2="BackgroundImageFix" result="effect1_dropShadow_596_4203"/>
<feBlend mode="normal" in="SourceGraphic" in2="effect1_dropShadow_596_4203" result="shape"/>
</filter>
<linearGradient id="paint0_linear_596_4203" x1="273.5" y1="0" x2="273.5" y2="496" gradientUnits="userSpaceOnUse">
<stop stop-color="#37383F"/>
<stop offset="1" stop-opacity="0"/>
</linearGradient>
<linearGradient id="paint1_linear_596_4203" x1="273.5" y1="-10" x2="273.5" y2="496" gradientUnits="userSpaceOnUse">
<stop stop-color="#63FFD0" stop-opacity="0.54"/>
<stop offset="0.257571" stop-color="#4FFFB0" stop-opacity="0.34"/>
<stop offset="1" stop-opacity="0"/>
</linearGradient>
<linearGradient id="paint2_linear_596_4203" x1="230" y1="238.713" x2="230" y2="410.063" gradientUnits="userSpaceOnUse">
<stop/>
<stop offset="1" stop-color="#D9D9D9" stop-opacity="0"/>
</linearGradient>
<linearGradient id="paint3_linear_596_4203" x1="295.319" y1="45" x2="295.319" y2="529" gradientUnits="userSpaceOnUse">
<stop stop-color="#1C2527"/>
<stop offset="0.8073" stop-color="#14161A"/>
<stop offset="1" stop-color="#121316"/>
</linearGradient>
<linearGradient id="paint4_linear_596_4203" x1="99.075" y1="49.7017" x2="232.801" y2="49.7017" gradientUnits="userSpaceOnUse">
<stop stop-color="#FFCE4F"/>
<stop offset="1" stop-color="#4FFFB0"/>
</linearGradient>
<linearGradient id="paint5_linear_596_4203" x1="99.075" y1="49.7017" x2="232.801" y2="49.7017" gradientUnits="userSpaceOnUse">
<stop stop-color="#4FFFB0"/>
<stop offset="0.505223" stop-color="#A2FF76"/>
<stop offset="1" stop-color="#FF984E"/>
</linearGradient>
<linearGradient id="paint6_linear_596_4203" x1="99.075" y1="49.7017" x2="232.801" y2="49.7017" gradientUnits="userSpaceOnUse">
<stop stop-color="#4FFFB0"/>
<stop offset="0.463556" stop-color="#B3FF8F"/>
<stop offset="1" stop-color="#FF984E"/>
</linearGradient>
<linearGradient id="paint7_linear_596_4203" x1="157.633" y1="305.294" x2="135.404" y2="279.285" gradientUnits="userSpaceOnUse">
<stop stop-color="#E40C5B"/>
<stop offset="1" stop-color="#FF4C3B"/>
</linearGradient>
<clipPath id="clip0_596_4203">
<rect x="73" y="45" width="444.639" height="484" rx="17.9259" fill="white"/>
</clipPath>
<clipPath id="clip1_596_4203">
<rect width="29" height="11" fill="white" transform="translate(147.35 165.603)"/>
</clipPath>
<clipPath id="clip2_596_4203">
<rect x="113.819" y="286.217" width="29.1566" height="29.1566" rx="14.5783" fill="white"/>
</clipPath>
<clipPath id="clip3_596_4203">
<rect width="27" height="11" fill="white" transform="translate(147.35 302.191)"/>
</clipPath>
</defs>
</svg>
