<svg width="528" height="568" viewBox="0 0 528 568" fill="none" xmlns="http://www.w3.org/2000/svg">
<g filter="url(#filter0_d_620_5157)">
<g clip-path="url(#clip0_620_5157)">
<rect x="65" y="5" width="444.639" height="484" rx="17.9259" fill="url(#paint0_linear_620_5157)"/>
<path d="M96.8178 29.4532V43.9517H94.387V29.4532H96.8178ZM89.7621 30.5502V28.3131H101.464V30.5502H89.7621ZM108.275 33.3252V35.4548H107.35C106.389 35.4548 105.629 35.7201 105.069 36.2507C104.525 36.7813 104.252 37.5629 104.252 38.5954V43.9517H101.95V33.3897H104.123L104.317 35.5623H104.101C104.245 34.8596 104.582 34.286 105.113 33.8414C105.643 33.3969 106.331 33.1746 107.178 33.1746C107.35 33.1746 107.522 33.1889 107.694 33.2176C107.88 33.232 108.074 33.2678 108.275 33.3252ZM112.8 44.2313C111.681 44.2313 110.799 43.9301 110.154 43.3278C109.523 42.7255 109.207 41.944 109.207 40.9831C109.207 40.008 109.544 39.2336 110.218 38.6599C110.907 38.072 111.875 37.7278 113.122 37.6274L116.37 37.3693V37.1111C116.37 36.5662 116.27 36.136 116.069 35.8205C115.868 35.4906 115.596 35.254 115.252 35.1106C114.908 34.9672 114.506 34.8955 114.047 34.8955C113.23 34.8955 112.599 35.0604 112.154 35.3902C111.71 35.7201 111.487 36.1861 111.487 36.7885H109.508C109.508 36.0284 109.695 35.3759 110.068 34.8309C110.455 34.2717 111 33.8414 111.702 33.5403C112.405 33.2248 113.223 33.067 114.155 33.067C115.073 33.067 115.861 33.232 116.521 33.5618C117.195 33.8773 117.711 34.3577 118.07 35.003C118.443 35.6484 118.629 36.4586 118.629 37.4338V43.9517H116.629L116.413 42.3168C116.17 42.8904 115.718 43.3565 115.058 43.715C114.399 44.0592 113.646 44.2313 112.8 44.2313ZM113.531 42.4459C114.406 42.4459 115.101 42.1877 115.617 41.6715C116.134 41.1409 116.392 40.431 116.392 39.5419V38.9611L113.94 39.1762C113.079 39.2479 112.463 39.4343 112.09 39.7355C111.731 40.0366 111.552 40.4167 111.552 40.8756C111.552 41.4062 111.724 41.8005 112.068 42.0587C112.412 42.3168 112.9 42.4459 113.531 42.4459ZM125.62 44.2313C124.602 44.2313 123.72 43.9947 122.975 43.5214C122.243 43.0482 121.677 42.4029 121.275 41.5854C120.874 40.7537 120.673 39.7928 120.673 38.7029C120.673 37.6131 120.874 36.6451 121.275 35.7989C121.677 34.9528 122.258 34.286 123.018 33.7984C123.778 33.3108 124.688 33.067 125.75 33.067C126.524 33.067 127.219 33.2248 127.836 33.5403C128.467 33.8558 128.955 34.3147 129.299 34.917V28.0334H131.622V43.9517H129.492L129.342 42.1662C129.012 42.8259 128.51 43.335 127.836 43.6935C127.176 44.052 126.438 44.2313 125.62 44.2313ZM126.115 42.1017C126.775 42.1017 127.334 41.9583 127.793 41.6715C128.266 41.3703 128.632 40.9616 128.89 40.4453C129.148 39.9147 129.277 39.3124 129.277 38.6384C129.277 37.9501 129.148 37.3477 128.89 36.8315C128.632 36.3009 128.266 35.8922 127.793 35.6053C127.334 35.3042 126.775 35.1536 126.115 35.1536C125.47 35.1536 124.911 35.3042 124.437 35.6053C123.978 35.9065 123.62 36.3152 123.362 36.8315C123.118 37.3477 122.996 37.9501 122.996 38.6384C122.996 39.3124 123.118 39.9147 123.362 40.4453C123.62 40.9616 123.978 41.3703 124.437 41.6715C124.911 41.9583 125.47 42.1017 126.115 42.1017ZM139.095 44.2313C138.048 44.2313 137.123 43.9947 136.32 43.5214C135.531 43.0482 134.907 42.3957 134.448 41.5639C134.004 40.7178 133.781 39.7498 133.781 38.6599C133.781 37.5557 133.996 36.5877 134.427 35.7559C134.871 34.9242 135.488 34.2717 136.277 33.7984C137.065 33.3108 137.976 33.067 139.008 33.067C140.041 33.067 140.93 33.2893 141.676 33.7339C142.436 34.1641 143.024 34.7808 143.44 35.5838C143.87 36.3726 144.085 37.3047 144.085 38.3803V39.1547L135.007 39.1762L135.05 37.6704H141.762C141.762 36.853 141.511 36.2077 141.009 35.7344C140.521 35.2468 139.855 35.003 139.008 35.003C138.363 35.003 137.811 35.1393 137.352 35.4117C136.908 35.6842 136.563 36.0929 136.32 36.6379C136.09 37.1685 135.975 37.821 135.975 38.5954C135.975 39.8 136.241 40.7178 136.771 41.3488C137.316 41.9798 138.105 42.2953 139.138 42.2953C139.883 42.2953 140.5 42.1519 140.988 41.8651C141.475 41.5783 141.791 41.1552 141.934 40.5959H144.107C143.863 41.7288 143.296 42.618 142.407 43.2633C141.532 43.9086 140.428 44.2313 139.095 44.2313ZM158.095 29.4532V43.9517H155.664V29.4532H158.095ZM151.039 30.5502V28.3131H162.741V30.5502H151.039ZM162.099 38.6599C162.099 37.5557 162.335 36.5877 162.809 35.7559C163.296 34.9242 163.963 34.2717 164.809 33.7984C165.655 33.3252 166.616 33.0885 167.692 33.0885C168.767 33.0885 169.721 33.3252 170.553 33.7984C171.384 34.2717 172.044 34.9242 172.532 35.7559C173.019 36.5877 173.263 37.5557 173.263 38.6599C173.263 39.7498 173.019 40.7107 172.532 41.5424C172.044 42.3742 171.384 43.0267 170.553 43.4999C169.721 43.9732 168.767 44.2098 167.692 44.2098C166.616 44.2098 165.655 43.9732 164.809 43.4999C163.963 43.0267 163.296 42.3742 162.809 41.5424C162.335 40.7107 162.099 39.7498 162.099 38.6599ZM164.422 38.6384C164.422 39.3268 164.558 39.9363 164.831 40.4669C165.117 40.9831 165.505 41.3918 165.992 41.693C166.48 41.9798 167.046 42.1232 167.692 42.1232C168.323 42.1232 168.882 41.9798 169.369 41.693C169.857 41.3918 170.237 40.9831 170.509 40.4669C170.782 39.9363 170.918 39.3268 170.918 38.6384C170.918 37.9501 170.782 37.3477 170.509 36.8315C170.237 36.3152 169.857 35.9137 169.369 35.6269C168.882 35.3257 168.323 35.1751 167.692 35.1751C167.046 35.1751 166.48 35.3257 165.992 35.6269C165.505 35.9137 165.117 36.3152 164.831 36.8315C164.558 37.3477 164.422 37.9501 164.422 38.6384ZM177.756 43.9517H175.433V28.0334H177.756V38.0791L182.166 33.3897H185.07L181.048 37.5844L185.006 43.9517H182.338L179.434 39.2837L177.756 41.0261V43.9517ZM190.856 44.2313C189.809 44.2313 188.884 43.9947 188.081 43.5214C187.292 43.0482 186.668 42.3957 186.209 41.5639C185.765 40.7178 185.542 39.7498 185.542 38.6599C185.542 37.5557 185.757 36.5877 186.188 35.7559C186.632 34.9242 187.249 34.2717 188.038 33.7984C188.826 33.3108 189.737 33.067 190.77 33.067C191.802 33.067 192.691 33.2893 193.437 33.7339C194.197 34.1641 194.785 34.7808 195.201 35.5838C195.631 36.3726 195.846 37.3047 195.846 38.3803V39.1547L186.769 39.1762L186.812 37.6704H193.523C193.523 36.853 193.272 36.2077 192.77 35.7344C192.283 35.2468 191.616 35.003 190.77 35.003C190.124 35.003 189.572 35.1393 189.113 35.4117C188.669 35.6842 188.324 36.0929 188.081 36.6379C187.851 37.1685 187.737 37.821 187.737 38.5954C187.737 39.8 188.002 40.7178 188.532 41.3488C189.077 41.9798 189.866 42.2953 190.899 42.2953C191.644 42.2953 192.261 42.1519 192.749 41.8651C193.236 41.5783 193.552 41.1552 193.695 40.5959H195.868C195.624 41.7288 195.057 42.618 194.168 43.2633C193.294 43.9086 192.189 44.2313 190.856 44.2313ZM200.338 43.9517H198.036V33.3897H200.144L200.359 34.874C200.704 34.3003 201.177 33.8558 201.779 33.5403C202.396 33.2248 203.077 33.067 203.823 33.067C205.171 33.067 206.175 33.4614 206.834 34.2501C207.508 35.0389 207.845 36.1073 207.845 37.4553V43.9517H205.544V37.9931C205.544 37.0323 205.321 36.3224 204.877 35.8635C204.446 35.4046 203.866 35.1751 203.134 35.1751C202.259 35.1751 201.571 35.4619 201.069 36.0356C200.582 36.5949 200.338 37.3477 200.338 38.2942V43.9517ZM209.591 40.811H211.785C211.8 41.313 211.986 41.7073 212.345 41.9941C212.703 42.281 213.198 42.4244 213.829 42.4244C214.489 42.4244 214.998 42.2953 215.356 42.0372C215.715 41.779 215.894 41.442 215.894 41.0261C215.894 40.7107 215.801 40.4525 215.614 40.2517C215.428 40.0366 215.077 39.8645 214.56 39.7355L212.667 39.3053C211.735 39.0758 211.033 38.7245 210.559 38.2512C210.1 37.778 209.871 37.1326 209.871 36.3152C209.871 35.6412 210.043 35.0676 210.387 34.5943C210.746 34.1067 211.233 33.7339 211.85 33.4757C212.467 33.2033 213.169 33.067 213.958 33.067C214.747 33.067 215.435 33.2104 216.023 33.4973C216.611 33.7697 217.07 34.1569 217.4 34.6589C217.73 35.1608 217.895 35.7559 217.895 36.4443H215.7C215.686 35.9424 215.521 35.548 215.206 35.2612C214.89 34.9744 214.446 34.8309 213.872 34.8309C213.313 34.8309 212.875 34.96 212.56 35.2181C212.244 35.4619 212.087 35.7989 212.087 36.2292C212.087 36.8745 212.567 37.3191 213.528 37.5629L215.421 37.9931C216.31 38.1939 216.977 38.5237 217.421 38.9826C217.866 39.4272 218.088 40.051 218.088 40.8541C218.088 41.5281 217.902 42.1232 217.529 42.6395C217.17 43.1557 216.668 43.5501 216.023 43.8226C215.378 44.0951 214.625 44.2313 213.764 44.2313C212.488 44.2313 211.47 43.9158 210.71 43.2848C209.964 42.6538 209.591 41.8292 209.591 40.811Z" fill="url(#paint1_linear_620_5157)"/>
<path d="M96.8178 29.4532V43.9517H94.387V29.4532H96.8178ZM89.7621 30.5502V28.3131H101.464V30.5502H89.7621ZM108.275 33.3252V35.4548H107.35C106.389 35.4548 105.629 35.7201 105.069 36.2507C104.525 36.7813 104.252 37.5629 104.252 38.5954V43.9517H101.95V33.3897H104.123L104.317 35.5623H104.101C104.245 34.8596 104.582 34.286 105.113 33.8414C105.643 33.3969 106.331 33.1746 107.178 33.1746C107.35 33.1746 107.522 33.1889 107.694 33.2176C107.88 33.232 108.074 33.2678 108.275 33.3252ZM112.8 44.2313C111.681 44.2313 110.799 43.9301 110.154 43.3278C109.523 42.7255 109.207 41.944 109.207 40.9831C109.207 40.008 109.544 39.2336 110.218 38.6599C110.907 38.072 111.875 37.7278 113.122 37.6274L116.37 37.3693V37.1111C116.37 36.5662 116.27 36.136 116.069 35.8205C115.868 35.4906 115.596 35.254 115.252 35.1106C114.908 34.9672 114.506 34.8955 114.047 34.8955C113.23 34.8955 112.599 35.0604 112.154 35.3902C111.71 35.7201 111.487 36.1861 111.487 36.7885H109.508C109.508 36.0284 109.695 35.3759 110.068 34.8309C110.455 34.2717 111 33.8414 111.702 33.5403C112.405 33.2248 113.223 33.067 114.155 33.067C115.073 33.067 115.861 33.232 116.521 33.5618C117.195 33.8773 117.711 34.3577 118.07 35.003C118.443 35.6484 118.629 36.4586 118.629 37.4338V43.9517H116.629L116.413 42.3168C116.17 42.8904 115.718 43.3565 115.058 43.715C114.399 44.0592 113.646 44.2313 112.8 44.2313ZM113.531 42.4459C114.406 42.4459 115.101 42.1877 115.617 41.6715C116.134 41.1409 116.392 40.431 116.392 39.5419V38.9611L113.94 39.1762C113.079 39.2479 112.463 39.4343 112.09 39.7355C111.731 40.0366 111.552 40.4167 111.552 40.8756C111.552 41.4062 111.724 41.8005 112.068 42.0587C112.412 42.3168 112.9 42.4459 113.531 42.4459ZM125.62 44.2313C124.602 44.2313 123.72 43.9947 122.975 43.5214C122.243 43.0482 121.677 42.4029 121.275 41.5854C120.874 40.7537 120.673 39.7928 120.673 38.7029C120.673 37.6131 120.874 36.6451 121.275 35.7989C121.677 34.9528 122.258 34.286 123.018 33.7984C123.778 33.3108 124.688 33.067 125.75 33.067C126.524 33.067 127.219 33.2248 127.836 33.5403C128.467 33.8558 128.955 34.3147 129.299 34.917V28.0334H131.622V43.9517H129.492L129.342 42.1662C129.012 42.8259 128.51 43.335 127.836 43.6935C127.176 44.052 126.438 44.2313 125.62 44.2313ZM126.115 42.1017C126.775 42.1017 127.334 41.9583 127.793 41.6715C128.266 41.3703 128.632 40.9616 128.89 40.4453C129.148 39.9147 129.277 39.3124 129.277 38.6384C129.277 37.9501 129.148 37.3477 128.89 36.8315C128.632 36.3009 128.266 35.8922 127.793 35.6053C127.334 35.3042 126.775 35.1536 126.115 35.1536C125.47 35.1536 124.911 35.3042 124.437 35.6053C123.978 35.9065 123.62 36.3152 123.362 36.8315C123.118 37.3477 122.996 37.9501 122.996 38.6384C122.996 39.3124 123.118 39.9147 123.362 40.4453C123.62 40.9616 123.978 41.3703 124.437 41.6715C124.911 41.9583 125.47 42.1017 126.115 42.1017ZM139.095 44.2313C138.048 44.2313 137.123 43.9947 136.32 43.5214C135.531 43.0482 134.907 42.3957 134.448 41.5639C134.004 40.7178 133.781 39.7498 133.781 38.6599C133.781 37.5557 133.996 36.5877 134.427 35.7559C134.871 34.9242 135.488 34.2717 136.277 33.7984C137.065 33.3108 137.976 33.067 139.008 33.067C140.041 33.067 140.93 33.2893 141.676 33.7339C142.436 34.1641 143.024 34.7808 143.44 35.5838C143.87 36.3726 144.085 37.3047 144.085 38.3803V39.1547L135.007 39.1762L135.05 37.6704H141.762C141.762 36.853 141.511 36.2077 141.009 35.7344C140.521 35.2468 139.855 35.003 139.008 35.003C138.363 35.003 137.811 35.1393 137.352 35.4117C136.908 35.6842 136.563 36.0929 136.32 36.6379C136.09 37.1685 135.975 37.821 135.975 38.5954C135.975 39.8 136.241 40.7178 136.771 41.3488C137.316 41.9798 138.105 42.2953 139.138 42.2953C139.883 42.2953 140.5 42.1519 140.988 41.8651C141.475 41.5783 141.791 41.1552 141.934 40.5959H144.107C143.863 41.7288 143.296 42.618 142.407 43.2633C141.532 43.9086 140.428 44.2313 139.095 44.2313ZM158.095 29.4532V43.9517H155.664V29.4532H158.095ZM151.039 30.5502V28.3131H162.741V30.5502H151.039ZM162.099 38.6599C162.099 37.5557 162.335 36.5877 162.809 35.7559C163.296 34.9242 163.963 34.2717 164.809 33.7984C165.655 33.3252 166.616 33.0885 167.692 33.0885C168.767 33.0885 169.721 33.3252 170.553 33.7984C171.384 34.2717 172.044 34.9242 172.532 35.7559C173.019 36.5877 173.263 37.5557 173.263 38.6599C173.263 39.7498 173.019 40.7107 172.532 41.5424C172.044 42.3742 171.384 43.0267 170.553 43.4999C169.721 43.9732 168.767 44.2098 167.692 44.2098C166.616 44.2098 165.655 43.9732 164.809 43.4999C163.963 43.0267 163.296 42.3742 162.809 41.5424C162.335 40.7107 162.099 39.7498 162.099 38.6599ZM164.422 38.6384C164.422 39.3268 164.558 39.9363 164.831 40.4669C165.117 40.9831 165.505 41.3918 165.992 41.693C166.48 41.9798 167.046 42.1232 167.692 42.1232C168.323 42.1232 168.882 41.9798 169.369 41.693C169.857 41.3918 170.237 40.9831 170.509 40.4669C170.782 39.9363 170.918 39.3268 170.918 38.6384C170.918 37.9501 170.782 37.3477 170.509 36.8315C170.237 36.3152 169.857 35.9137 169.369 35.6269C168.882 35.3257 168.323 35.1751 167.692 35.1751C167.046 35.1751 166.48 35.3257 165.992 35.6269C165.505 35.9137 165.117 36.3152 164.831 36.8315C164.558 37.3477 164.422 37.9501 164.422 38.6384ZM177.756 43.9517H175.433V28.0334H177.756V38.0791L182.166 33.3897H185.07L181.048 37.5844L185.006 43.9517H182.338L179.434 39.2837L177.756 41.0261V43.9517ZM190.856 44.2313C189.809 44.2313 188.884 43.9947 188.081 43.5214C187.292 43.0482 186.668 42.3957 186.209 41.5639C185.765 40.7178 185.542 39.7498 185.542 38.6599C185.542 37.5557 185.757 36.5877 186.188 35.7559C186.632 34.9242 187.249 34.2717 188.038 33.7984C188.826 33.3108 189.737 33.067 190.77 33.067C191.802 33.067 192.691 33.2893 193.437 33.7339C194.197 34.1641 194.785 34.7808 195.201 35.5838C195.631 36.3726 195.846 37.3047 195.846 38.3803V39.1547L186.769 39.1762L186.812 37.6704H193.523C193.523 36.853 193.272 36.2077 192.77 35.7344C192.283 35.2468 191.616 35.003 190.77 35.003C190.124 35.003 189.572 35.1393 189.113 35.4117C188.669 35.6842 188.324 36.0929 188.081 36.6379C187.851 37.1685 187.737 37.821 187.737 38.5954C187.737 39.8 188.002 40.7178 188.532 41.3488C189.077 41.9798 189.866 42.2953 190.899 42.2953C191.644 42.2953 192.261 42.1519 192.749 41.8651C193.236 41.5783 193.552 41.1552 193.695 40.5959H195.868C195.624 41.7288 195.057 42.618 194.168 43.2633C193.294 43.9086 192.189 44.2313 190.856 44.2313ZM200.338 43.9517H198.036V33.3897H200.144L200.359 34.874C200.704 34.3003 201.177 33.8558 201.779 33.5403C202.396 33.2248 203.077 33.067 203.823 33.067C205.171 33.067 206.175 33.4614 206.834 34.2501C207.508 35.0389 207.845 36.1073 207.845 37.4553V43.9517H205.544V37.9931C205.544 37.0323 205.321 36.3224 204.877 35.8635C204.446 35.4046 203.866 35.1751 203.134 35.1751C202.259 35.1751 201.571 35.4619 201.069 36.0356C200.582 36.5949 200.338 37.3477 200.338 38.2942V43.9517ZM209.591 40.811H211.785C211.8 41.313 211.986 41.7073 212.345 41.9941C212.703 42.281 213.198 42.4244 213.829 42.4244C214.489 42.4244 214.998 42.2953 215.356 42.0372C215.715 41.779 215.894 41.442 215.894 41.0261C215.894 40.7107 215.801 40.4525 215.614 40.2517C215.428 40.0366 215.077 39.8645 214.56 39.7355L212.667 39.3053C211.735 39.0758 211.033 38.7245 210.559 38.2512C210.1 37.778 209.871 37.1326 209.871 36.3152C209.871 35.6412 210.043 35.0676 210.387 34.5943C210.746 34.1067 211.233 33.7339 211.85 33.4757C212.467 33.2033 213.169 33.067 213.958 33.067C214.747 33.067 215.435 33.2104 216.023 33.4973C216.611 33.7697 217.07 34.1569 217.4 34.6589C217.73 35.1608 217.895 35.7559 217.895 36.4443H215.7C215.686 35.9424 215.521 35.548 215.206 35.2612C214.89 34.9744 214.446 34.8309 213.872 34.8309C213.313 34.8309 212.875 34.96 212.56 35.2181C212.244 35.4619 212.087 35.7989 212.087 36.2292C212.087 36.8745 212.567 37.3191 213.528 37.5629L215.421 37.9931C216.31 38.1939 216.977 38.5237 217.421 38.9826C217.866 39.4272 218.088 40.051 218.088 40.8541C218.088 41.5281 217.902 42.1232 217.529 42.6395C217.17 43.1557 216.668 43.5501 216.023 43.8226C215.378 44.0951 214.625 44.2313 213.764 44.2313C212.488 44.2313 211.47 43.9158 210.71 43.2848C209.964 42.6538 209.591 41.8292 209.591 40.811Z" fill="url(#paint2_linear_620_5157)"/>
<path d="M96.8178 29.4532V43.9517H94.387V29.4532H96.8178ZM89.7621 30.5502V28.3131H101.464V30.5502H89.7621ZM108.275 33.3252V35.4548H107.35C106.389 35.4548 105.629 35.7201 105.069 36.2507C104.525 36.7813 104.252 37.5629 104.252 38.5954V43.9517H101.95V33.3897H104.123L104.317 35.5623H104.101C104.245 34.8596 104.582 34.286 105.113 33.8414C105.643 33.3969 106.331 33.1746 107.178 33.1746C107.35 33.1746 107.522 33.1889 107.694 33.2176C107.88 33.232 108.074 33.2678 108.275 33.3252ZM112.8 44.2313C111.681 44.2313 110.799 43.9301 110.154 43.3278C109.523 42.7255 109.207 41.944 109.207 40.9831C109.207 40.008 109.544 39.2336 110.218 38.6599C110.907 38.072 111.875 37.7278 113.122 37.6274L116.37 37.3693V37.1111C116.37 36.5662 116.27 36.136 116.069 35.8205C115.868 35.4906 115.596 35.254 115.252 35.1106C114.908 34.9672 114.506 34.8955 114.047 34.8955C113.23 34.8955 112.599 35.0604 112.154 35.3902C111.71 35.7201 111.487 36.1861 111.487 36.7885H109.508C109.508 36.0284 109.695 35.3759 110.068 34.8309C110.455 34.2717 111 33.8414 111.702 33.5403C112.405 33.2248 113.223 33.067 114.155 33.067C115.073 33.067 115.861 33.232 116.521 33.5618C117.195 33.8773 117.711 34.3577 118.07 35.003C118.443 35.6484 118.629 36.4586 118.629 37.4338V43.9517H116.629L116.413 42.3168C116.17 42.8904 115.718 43.3565 115.058 43.715C114.399 44.0592 113.646 44.2313 112.8 44.2313ZM113.531 42.4459C114.406 42.4459 115.101 42.1877 115.617 41.6715C116.134 41.1409 116.392 40.431 116.392 39.5419V38.9611L113.94 39.1762C113.079 39.2479 112.463 39.4343 112.09 39.7355C111.731 40.0366 111.552 40.4167 111.552 40.8756C111.552 41.4062 111.724 41.8005 112.068 42.0587C112.412 42.3168 112.9 42.4459 113.531 42.4459ZM125.62 44.2313C124.602 44.2313 123.72 43.9947 122.975 43.5214C122.243 43.0482 121.677 42.4029 121.275 41.5854C120.874 40.7537 120.673 39.7928 120.673 38.7029C120.673 37.6131 120.874 36.6451 121.275 35.7989C121.677 34.9528 122.258 34.286 123.018 33.7984C123.778 33.3108 124.688 33.067 125.75 33.067C126.524 33.067 127.219 33.2248 127.836 33.5403C128.467 33.8558 128.955 34.3147 129.299 34.917V28.0334H131.622V43.9517H129.492L129.342 42.1662C129.012 42.8259 128.51 43.335 127.836 43.6935C127.176 44.052 126.438 44.2313 125.62 44.2313ZM126.115 42.1017C126.775 42.1017 127.334 41.9583 127.793 41.6715C128.266 41.3703 128.632 40.9616 128.89 40.4453C129.148 39.9147 129.277 39.3124 129.277 38.6384C129.277 37.9501 129.148 37.3477 128.89 36.8315C128.632 36.3009 128.266 35.8922 127.793 35.6053C127.334 35.3042 126.775 35.1536 126.115 35.1536C125.47 35.1536 124.911 35.3042 124.437 35.6053C123.978 35.9065 123.62 36.3152 123.362 36.8315C123.118 37.3477 122.996 37.9501 122.996 38.6384C122.996 39.3124 123.118 39.9147 123.362 40.4453C123.62 40.9616 123.978 41.3703 124.437 41.6715C124.911 41.9583 125.47 42.1017 126.115 42.1017ZM139.095 44.2313C138.048 44.2313 137.123 43.9947 136.32 43.5214C135.531 43.0482 134.907 42.3957 134.448 41.5639C134.004 40.7178 133.781 39.7498 133.781 38.6599C133.781 37.5557 133.996 36.5877 134.427 35.7559C134.871 34.9242 135.488 34.2717 136.277 33.7984C137.065 33.3108 137.976 33.067 139.008 33.067C140.041 33.067 140.93 33.2893 141.676 33.7339C142.436 34.1641 143.024 34.7808 143.44 35.5838C143.87 36.3726 144.085 37.3047 144.085 38.3803V39.1547L135.007 39.1762L135.05 37.6704H141.762C141.762 36.853 141.511 36.2077 141.009 35.7344C140.521 35.2468 139.855 35.003 139.008 35.003C138.363 35.003 137.811 35.1393 137.352 35.4117C136.908 35.6842 136.563 36.0929 136.32 36.6379C136.09 37.1685 135.975 37.821 135.975 38.5954C135.975 39.8 136.241 40.7178 136.771 41.3488C137.316 41.9798 138.105 42.2953 139.138 42.2953C139.883 42.2953 140.5 42.1519 140.988 41.8651C141.475 41.5783 141.791 41.1552 141.934 40.5959H144.107C143.863 41.7288 143.296 42.618 142.407 43.2633C141.532 43.9086 140.428 44.2313 139.095 44.2313ZM158.095 29.4532V43.9517H155.664V29.4532H158.095ZM151.039 30.5502V28.3131H162.741V30.5502H151.039ZM162.099 38.6599C162.099 37.5557 162.335 36.5877 162.809 35.7559C163.296 34.9242 163.963 34.2717 164.809 33.7984C165.655 33.3252 166.616 33.0885 167.692 33.0885C168.767 33.0885 169.721 33.3252 170.553 33.7984C171.384 34.2717 172.044 34.9242 172.532 35.7559C173.019 36.5877 173.263 37.5557 173.263 38.6599C173.263 39.7498 173.019 40.7107 172.532 41.5424C172.044 42.3742 171.384 43.0267 170.553 43.4999C169.721 43.9732 168.767 44.2098 167.692 44.2098C166.616 44.2098 165.655 43.9732 164.809 43.4999C163.963 43.0267 163.296 42.3742 162.809 41.5424C162.335 40.7107 162.099 39.7498 162.099 38.6599ZM164.422 38.6384C164.422 39.3268 164.558 39.9363 164.831 40.4669C165.117 40.9831 165.505 41.3918 165.992 41.693C166.48 41.9798 167.046 42.1232 167.692 42.1232C168.323 42.1232 168.882 41.9798 169.369 41.693C169.857 41.3918 170.237 40.9831 170.509 40.4669C170.782 39.9363 170.918 39.3268 170.918 38.6384C170.918 37.9501 170.782 37.3477 170.509 36.8315C170.237 36.3152 169.857 35.9137 169.369 35.6269C168.882 35.3257 168.323 35.1751 167.692 35.1751C167.046 35.1751 166.48 35.3257 165.992 35.6269C165.505 35.9137 165.117 36.3152 164.831 36.8315C164.558 37.3477 164.422 37.9501 164.422 38.6384ZM177.756 43.9517H175.433V28.0334H177.756V38.0791L182.166 33.3897H185.07L181.048 37.5844L185.006 43.9517H182.338L179.434 39.2837L177.756 41.0261V43.9517ZM190.856 44.2313C189.809 44.2313 188.884 43.9947 188.081 43.5214C187.292 43.0482 186.668 42.3957 186.209 41.5639C185.765 40.7178 185.542 39.7498 185.542 38.6599C185.542 37.5557 185.757 36.5877 186.188 35.7559C186.632 34.9242 187.249 34.2717 188.038 33.7984C188.826 33.3108 189.737 33.067 190.77 33.067C191.802 33.067 192.691 33.2893 193.437 33.7339C194.197 34.1641 194.785 34.7808 195.201 35.5838C195.631 36.3726 195.846 37.3047 195.846 38.3803V39.1547L186.769 39.1762L186.812 37.6704H193.523C193.523 36.853 193.272 36.2077 192.77 35.7344C192.283 35.2468 191.616 35.003 190.77 35.003C190.124 35.003 189.572 35.1393 189.113 35.4117C188.669 35.6842 188.324 36.0929 188.081 36.6379C187.851 37.1685 187.737 37.821 187.737 38.5954C187.737 39.8 188.002 40.7178 188.532 41.3488C189.077 41.9798 189.866 42.2953 190.899 42.2953C191.644 42.2953 192.261 42.1519 192.749 41.8651C193.236 41.5783 193.552 41.1552 193.695 40.5959H195.868C195.624 41.7288 195.057 42.618 194.168 43.2633C193.294 43.9086 192.189 44.2313 190.856 44.2313ZM200.338 43.9517H198.036V33.3897H200.144L200.359 34.874C200.704 34.3003 201.177 33.8558 201.779 33.5403C202.396 33.2248 203.077 33.067 203.823 33.067C205.171 33.067 206.175 33.4614 206.834 34.2501C207.508 35.0389 207.845 36.1073 207.845 37.4553V43.9517H205.544V37.9931C205.544 37.0323 205.321 36.3224 204.877 35.8635C204.446 35.4046 203.866 35.1751 203.134 35.1751C202.259 35.1751 201.571 35.4619 201.069 36.0356C200.582 36.5949 200.338 37.3477 200.338 38.2942V43.9517ZM209.591 40.811H211.785C211.8 41.313 211.986 41.7073 212.345 41.9941C212.703 42.281 213.198 42.4244 213.829 42.4244C214.489 42.4244 214.998 42.2953 215.356 42.0372C215.715 41.779 215.894 41.442 215.894 41.0261C215.894 40.7107 215.801 40.4525 215.614 40.2517C215.428 40.0366 215.077 39.8645 214.56 39.7355L212.667 39.3053C211.735 39.0758 211.033 38.7245 210.559 38.2512C210.1 37.778 209.871 37.1326 209.871 36.3152C209.871 35.6412 210.043 35.0676 210.387 34.5943C210.746 34.1067 211.233 33.7339 211.85 33.4757C212.467 33.2033 213.169 33.067 213.958 33.067C214.747 33.067 215.435 33.2104 216.023 33.4973C216.611 33.7697 217.07 34.1569 217.4 34.6589C217.73 35.1608 217.895 35.7559 217.895 36.4443H215.7C215.686 35.9424 215.521 35.548 215.206 35.2612C214.89 34.9744 214.446 34.8309 213.872 34.8309C213.313 34.8309 212.875 34.96 212.56 35.2181C212.244 35.4619 212.087 35.7989 212.087 36.2292C212.087 36.8745 212.567 37.3191 213.528 37.5629L215.421 37.9931C216.31 38.1939 216.977 38.5237 217.421 38.9826C217.866 39.4272 218.088 40.051 218.088 40.8541C218.088 41.5281 217.902 42.1232 217.529 42.6395C217.17 43.1557 216.668 43.5501 216.023 43.8226C215.378 44.0951 214.625 44.2313 213.764 44.2313C212.488 44.2313 211.47 43.9158 210.71 43.2848C209.964 42.6538 209.591 41.8292 209.591 40.811Z" fill="url(#paint3_linear_620_5157)"/>
<rect x="86.8672" y="66.9038" width="400.904" height="91.1145" rx="8.74699" fill="#DAFFEE" fill-opacity="0.06"/>
<path d="M105.919 85.7317V94.2104H104.601V85.7317H105.919ZM107.925 91.2365H105.604V90.0585H107.645C108.181 90.0585 108.589 89.9186 108.869 89.6387C109.157 89.351 109.301 88.9584 109.301 88.4608C109.301 87.9632 109.157 87.5822 108.869 87.3178C108.589 87.0457 108.189 86.9096 107.668 86.9096H105.406V85.7317H107.925C108.484 85.7317 108.97 85.8483 109.382 86.0816C109.795 86.3071 110.113 86.6258 110.339 87.0379C110.572 87.45 110.689 87.9282 110.689 88.4724C110.689 89.0089 110.572 89.4871 110.339 89.9069C110.113 90.319 109.795 90.6456 109.382 90.8866C108.97 91.1198 108.484 91.2365 107.925 91.2365ZM113.223 94.3621C112.617 94.3621 112.138 94.1988 111.789 93.8722C111.446 93.5457 111.275 93.1219 111.275 92.601C111.275 92.0723 111.458 91.6524 111.824 91.3414C112.197 91.0227 112.722 90.8361 113.398 90.7816L115.159 90.6417V90.5017C115.159 90.2063 115.105 89.973 114.996 89.802C114.887 89.6231 114.739 89.4949 114.553 89.4171C114.366 89.3393 114.148 89.3005 113.899 89.3005C113.456 89.3005 113.114 89.3899 112.873 89.5687C112.632 89.7475 112.512 90.0002 112.512 90.3268H111.439C111.439 89.9147 111.54 89.5609 111.742 89.2655C111.952 88.9623 112.247 88.729 112.628 88.5657C113.009 88.3947 113.452 88.3091 113.958 88.3091C114.455 88.3091 114.883 88.3986 115.241 88.5774C115.606 88.7484 115.886 89.0089 116.08 89.3588C116.283 89.7087 116.384 90.148 116.384 90.6767V94.2104H115.299L115.182 93.3241C115.05 93.6351 114.805 93.8878 114.448 94.0822C114.09 94.2688 113.682 94.3621 113.223 94.3621ZM113.62 93.3941C114.094 93.3941 114.471 93.2541 114.751 92.9742C115.031 92.6865 115.171 92.3017 115.171 91.8196V91.5047L113.841 91.6213C113.375 91.6602 113.04 91.7613 112.838 91.9246C112.644 92.0878 112.547 92.2939 112.547 92.5427C112.547 92.8304 112.64 93.0442 112.827 93.1841C113.013 93.3241 113.277 93.3941 113.62 93.3941ZM118.358 88.4841L120.294 93.9189L119.571 95.1085L117.017 88.4841H118.358ZM117.18 96.8229V95.7849H117.962C118.148 95.7849 118.312 95.7655 118.452 95.7266C118.599 95.6877 118.732 95.61 118.848 95.4933C118.965 95.3845 119.066 95.2134 119.151 94.9802L121.542 88.4841H122.848L120.084 95.4933C119.882 96.0065 119.626 96.3758 119.315 96.6013C119.011 96.8345 118.634 96.9512 118.183 96.9512C117.997 96.9512 117.818 96.9395 117.647 96.9162C117.484 96.8929 117.328 96.8618 117.18 96.8229ZM128.11 94.2104L126.232 88.4841H127.55L128.39 91.2015C128.46 91.4114 128.522 91.6369 128.577 91.8779C128.639 92.1112 128.697 92.3561 128.752 92.6127C128.783 92.4338 128.818 92.2667 128.857 92.1112C128.895 91.9557 128.938 91.8041 128.985 91.6563C129.032 91.5086 129.078 91.357 129.125 91.2015L130.011 88.4841H131.294L132.145 91.2015C132.169 91.2637 132.196 91.3531 132.227 91.4697C132.258 91.5864 132.293 91.7146 132.332 91.8546C132.371 91.9868 132.406 92.1228 132.437 92.2628C132.468 92.395 132.495 92.5116 132.519 92.6127C132.55 92.4649 132.585 92.3094 132.624 92.1462C132.662 91.9751 132.705 91.8118 132.752 91.6563C132.799 91.4931 132.845 91.3414 132.892 91.2015L133.755 88.4841H135.073L133.102 94.2104H131.924L131.026 91.4347C130.925 91.1004 130.843 90.8127 130.781 90.5717C130.719 90.3229 130.672 90.1207 130.641 89.9652C130.61 90.113 130.563 90.2957 130.501 90.5134C130.447 90.7311 130.357 91.046 130.233 91.4581L129.335 94.2104H128.11ZM135.985 94.2104V88.4841H137.233V94.2104H135.985ZM136.603 87.2245C136.386 87.2245 136.199 87.1468 136.043 86.9913C135.888 86.8358 135.81 86.6492 135.81 86.4315C135.81 86.2138 135.888 86.0272 136.043 85.8717C136.199 85.7162 136.386 85.6384 136.603 85.6384C136.821 85.6384 137.008 85.7162 137.163 85.8717C137.319 86.0272 137.396 86.2138 137.396 86.4315C137.396 86.6492 137.319 86.8358 137.163 86.9913C137.008 87.1468 136.821 87.2245 136.603 87.2245ZM138.181 88.4841H141.668V89.5337H138.181V88.4841ZM140.548 94.2104H139.3V86.688H140.548V94.2104ZM143.862 94.2104H142.614V85.5801H143.873V89.2888C144.052 88.9934 144.305 88.7562 144.631 88.5774C144.958 88.3986 145.339 88.3091 145.774 88.3091C146.49 88.3091 147.026 88.523 147.384 88.9506C147.749 89.3782 147.932 89.9575 147.932 90.6883V94.2104H146.684V90.9799C146.684 90.63 146.63 90.3423 146.521 90.1169C146.412 89.8914 146.26 89.7242 146.066 89.6154C145.879 89.5065 145.658 89.4521 145.401 89.4521C145.074 89.4521 144.795 89.526 144.561 89.6737C144.336 89.8136 144.161 90.008 144.037 90.2568C143.92 90.4978 143.862 90.7739 143.862 91.0849V94.2104Z" fill="#B8FFDF"/>
<path d="M311.152 89.2707V91.8423H312.01V89.2707L314.135 85.5182H313.199L311.8 88.0461C311.686 88.256 311.668 88.3085 311.59 88.4659C311.52 88.3172 311.467 88.1948 311.38 88.0461L309.972 85.5182H309.009L311.152 89.2707ZM313.679 89.6993C313.679 91.0201 314.623 91.9472 315.909 91.9472C317.186 91.9472 318.131 91.0201 318.131 89.6993C318.131 88.3785 317.186 87.4513 315.909 87.4513C314.623 87.4513 313.679 88.3785 313.679 89.6993ZM314.51 89.6993C314.51 88.8071 315.078 88.186 315.909 88.186C316.731 88.186 317.309 88.8071 317.309 89.6993C317.309 90.5915 316.731 91.2125 315.909 91.2125C315.078 91.2125 314.51 90.5915 314.51 89.6993ZM321.895 87.565V89.8217C321.895 90.7402 321.484 91.2212 320.732 91.2212C320.102 91.2212 319.708 90.8714 319.708 89.9529V87.565H318.886V90.2241C318.886 91.2737 319.446 91.9472 320.443 91.9472C321.073 91.9472 321.641 91.6411 321.886 91.195L321.974 91.8423H322.708V87.565H321.895ZM326.351 87.53C326.184 87.495 326.062 87.4775 325.913 87.4775C325.327 87.4775 324.899 87.7749 324.724 88.221L324.671 87.5738H323.901V91.8423H324.724V89.5768C324.724 88.7546 325.205 88.2823 325.983 88.2823H326.351V87.53ZM330.257 91.8423L330.318 91.0638C330.598 91.6499 331.167 91.9472 331.84 91.9472C333.082 91.9472 333.852 91.0201 333.852 89.7255C333.852 88.4047 333.117 87.4425 331.893 87.4425C331.193 87.4425 330.616 87.7399 330.336 88.2998V85.4045H329.513V91.8423H330.257ZM330.344 89.6905C330.344 88.8158 330.852 88.186 331.691 88.186C332.531 88.186 333.03 88.8158 333.03 89.6905C333.03 90.574 332.531 91.2038 331.691 91.2038C330.852 91.2038 330.344 90.5827 330.344 89.6905ZM336.009 91.9472C336.7 91.9472 337.286 91.6411 337.505 91.1513L337.592 91.8423H338.292V89.157C338.292 88.0024 337.575 87.4425 336.516 87.4425C335.414 87.4425 334.68 88.0286 334.68 88.9208H335.397C335.397 88.4047 335.79 88.0986 336.481 88.0986C337.059 88.0986 337.487 88.3522 337.487 89.0695V89.1919L336.14 89.2969C335.134 89.3756 334.548 89.8655 334.548 90.6527C334.548 91.4312 335.091 91.9472 336.009 91.9472ZM336.245 91.3087C335.712 91.3087 335.379 91.0813 335.379 90.6265C335.379 90.2066 335.677 89.9267 336.403 89.8567L337.496 89.7692V89.9967C337.496 90.8014 337.024 91.3087 336.245 91.3087ZM340.27 91.8423V85.4045H339.448V91.8423H340.27ZM342.732 91.9472C343.423 91.9472 344.009 91.6411 344.227 91.1513L344.315 91.8423H345.015V89.157C345.015 88.0024 344.297 87.4425 343.239 87.4425C342.137 87.4425 341.402 88.0286 341.402 88.9208H342.119C342.119 88.4047 342.513 88.0986 343.204 88.0986C343.781 88.0986 344.21 88.3522 344.21 89.0695V89.1919L342.863 89.2969C341.857 89.3756 341.271 89.8655 341.271 90.6527C341.271 91.4312 341.813 91.9472 342.732 91.9472ZM342.968 91.3087C342.434 91.3087 342.102 91.0813 342.102 90.6265C342.102 90.2066 342.399 89.9267 343.125 89.8567L344.219 89.7692V89.9967C344.219 90.8014 343.746 91.3087 342.968 91.3087ZM346.975 91.8423V89.5768C346.975 88.7459 347.422 88.1948 348.191 88.1948C348.821 88.1948 349.223 88.5447 349.223 89.4106V91.8423H350.046V89.2269C350.046 88.1336 349.53 87.4425 348.401 87.4425C347.798 87.4425 347.255 87.7312 346.984 88.221L346.897 87.565H346.153V91.8423H346.975ZM350.905 89.708C350.905 91.0551 351.736 91.9472 352.995 91.9472C354.027 91.9472 354.823 91.3262 354.989 90.399H354.167C354.018 90.9064 353.581 91.2125 352.995 91.2125C352.217 91.2125 351.718 90.6177 351.718 89.6993C351.718 88.7721 352.252 88.1773 353.03 88.1773C353.581 88.1773 354.018 88.4659 354.158 89.0083H354.981C354.832 88.0548 354.08 87.4425 353.004 87.4425C351.753 87.4425 350.905 88.3697 350.905 89.708ZM357.703 91.9472C358.761 91.9472 359.478 91.4312 359.688 90.5127H358.918C358.778 91.0026 358.359 91.265 357.72 91.265C356.907 91.265 356.434 90.7664 356.373 89.8655L359.679 89.8567V89.5506C359.679 88.2823 358.883 87.4425 357.668 87.4425C356.425 87.4425 355.577 88.3697 355.577 89.708C355.577 91.0376 356.443 91.9472 357.703 91.9472ZM357.668 88.1336C358.394 88.1336 358.857 88.6059 358.857 89.3144H356.39C356.495 88.5622 356.95 88.1336 357.668 88.1336ZM361.297 88.6671C361.63 88.6671 361.919 88.3872 361.919 88.0636C361.919 87.7225 361.63 87.4425 361.297 87.4425C360.956 87.4425 360.668 87.7225 360.668 88.0636C360.668 88.3872 360.956 88.6671 361.297 88.6671ZM361.297 91.9472C361.63 91.9472 361.919 91.6673 361.919 91.335C361.919 90.9938 361.63 90.7139 361.297 90.7139C360.956 90.7139 360.668 90.9938 360.668 91.335C360.668 91.6673 360.956 91.9472 361.297 91.9472Z" fill="white" fill-opacity="0.7"/>
<rect x="370.092" y="86.291" width="83.8253" height="5.10241" rx="2.5512" fill="#DAFFEE" fill-opacity="0.16"/>
<rect x="457.562" y="83.4644" width="13.4444" height="10.7556" rx="5.37778" fill="white" fill-opacity="0.06"/>
<path d="M120.162 111.184C122.613 111.184 125.009 111.911 127.047 113.272C129.085 114.634 130.673 116.569 131.611 118.833C132.549 121.098 132.795 123.589 132.317 125.993C131.838 128.397 130.658 130.605 128.925 132.338C127.192 134.071 124.984 135.251 122.58 135.729C120.177 136.207 117.685 135.962 115.421 135.024C113.156 134.086 111.221 132.497 109.86 130.46C108.498 128.422 107.771 126.026 107.771 123.575C107.771 121.948 108.092 120.336 108.715 118.833C109.337 117.33 110.25 115.964 111.401 114.813C112.551 113.663 113.917 112.75 115.421 112.127C116.924 111.505 118.535 111.184 120.162 111.184ZM116.12 123.575C116.12 129.563 120.162 134.417 120.162 134.417C120.162 134.417 124.205 129.563 124.205 123.575C124.205 117.587 120.162 112.733 120.162 112.733C120.162 112.733 116.12 117.587 116.12 123.575Z" fill="#4FFFB0"/>
<path d="M140.294 120.914H143.746C145.507 120.914 146.522 120.063 146.522 118.605C146.522 117.614 146.067 116.937 145.169 116.646C145.974 116.307 146.394 115.631 146.394 114.686C146.394 113.263 145.368 112.389 143.688 112.389H140.294V120.914ZM143.56 113.707C144.4 113.707 144.866 114.103 144.866 114.838C144.866 115.596 144.411 116.027 143.595 116.027H141.787V113.707H143.56ZM143.688 117.287C144.516 117.287 144.994 117.695 144.994 118.418C144.994 119.188 144.528 119.596 143.688 119.596H141.787V117.287H143.688ZM147.401 114.768C147.401 116.074 148.159 116.902 149.605 117.217L150.958 117.52C151.658 117.672 151.95 118.01 151.95 118.582C151.95 119.293 151.32 119.724 150.328 119.724C149.372 119.724 148.789 119.293 148.777 118.57H147.284C147.319 120.098 148.509 121.066 150.328 121.066C152.206 121.066 153.442 120.039 153.442 118.453C153.442 117.182 152.731 116.436 151.273 116.121L149.932 115.829C149.22 115.666 148.894 115.328 148.894 114.721C148.894 114.01 149.489 113.567 150.41 113.567C151.25 113.567 151.775 113.998 151.81 114.733H153.302C153.256 113.193 152.159 112.237 150.433 112.237C148.637 112.237 147.401 113.275 147.401 114.768ZM156.939 116.657L154.046 120.914H155.796L157.872 117.8C158.21 118.418 158.513 118.931 158.886 119.503L159.843 120.914H161.604L158.805 116.646L161.592 112.389H159.854L157.872 115.514C157.557 114.931 157.265 114.441 156.915 113.916L155.877 112.389H154.105L156.939 116.657Z" fill="white"/>
<g clip-path="url(#clip1_620_5157)">
<path d="M140.084 133.603H142.586C143.837 133.603 144.598 132.964 144.598 131.915C144.598 131.163 144.239 130.655 143.539 130.428C144.169 130.165 144.484 129.676 144.484 128.95C144.484 127.909 143.732 127.279 142.499 127.279H140.084V133.603ZM142.446 128.04C143.19 128.04 143.609 128.399 143.609 129.028C143.609 129.684 143.207 130.069 142.499 130.069H140.942V128.04H142.446ZM142.569 130.813C143.295 130.813 143.714 131.18 143.714 131.81C143.714 132.466 143.303 132.842 142.569 132.842H140.942V130.813H142.569ZM146.782 133.708C147.473 133.708 148.059 133.402 148.277 132.912L148.365 133.603H149.065V130.918C149.065 129.763 148.347 129.203 147.289 129.203C146.187 129.203 145.452 129.789 145.452 130.682H146.169C146.169 130.165 146.563 129.859 147.254 129.859C147.831 129.859 148.26 130.113 148.26 130.83V130.953L146.913 131.058C145.907 131.136 145.321 131.626 145.321 132.413C145.321 133.192 145.863 133.708 146.782 133.708ZM147.018 133.069C146.484 133.069 146.152 132.842 146.152 132.387C146.152 131.967 146.449 131.687 147.175 131.617L148.269 131.53V131.757C148.269 132.562 147.796 133.069 147.018 133.069ZM149.853 132.361C149.853 133.174 150.492 133.708 151.498 133.708C152.513 133.708 153.212 133.192 153.212 132.378C153.212 131.74 152.854 131.408 152.128 131.233L151.375 131.049C150.956 130.944 150.746 130.752 150.746 130.463C150.746 130.069 151.034 129.842 151.55 129.842C152.049 129.842 152.338 130.113 152.355 130.542H153.142C153.125 129.728 152.513 129.203 151.577 129.203C150.632 129.203 149.967 129.702 149.967 130.489C149.967 131.119 150.326 131.495 151.087 131.679L151.839 131.854C152.285 131.967 152.425 132.142 152.425 132.431C152.425 132.825 152.093 133.061 151.515 133.061C150.973 133.061 150.641 132.798 150.641 132.361H149.853ZM154.526 128.311C154.824 128.311 155.069 128.066 155.069 127.769C155.069 127.463 154.824 127.226 154.526 127.226C154.229 127.226 153.984 127.463 153.984 127.769C153.984 128.066 154.229 128.311 154.526 128.311ZM154.124 133.603H154.946V129.326H154.124V133.603ZM156.98 133.603V127.165H156.157V133.603H156.98ZM158.592 128.311C158.89 128.311 159.135 128.066 159.135 127.769C159.135 127.463 158.89 127.226 158.592 127.226C158.295 127.226 158.05 127.463 158.05 127.769C158.05 128.066 158.295 128.311 158.592 128.311ZM158.19 133.603H159.012V129.326H158.19V133.603ZM159.856 132.361C159.856 133.174 160.495 133.708 161.501 133.708C162.515 133.708 163.215 133.192 163.215 132.378C163.215 131.74 162.856 131.408 162.13 131.233L161.378 131.049C160.958 130.944 160.748 130.752 160.748 130.463C160.748 130.069 161.037 129.842 161.553 129.842C162.052 129.842 162.34 130.113 162.358 130.542H163.145C163.127 129.728 162.515 129.203 161.579 129.203C160.635 129.203 159.97 129.702 159.97 130.489C159.97 131.119 160.328 131.495 161.089 131.679L161.842 131.854C162.288 131.967 162.428 132.142 162.428 132.431C162.428 132.825 162.095 133.061 161.518 133.061C160.976 133.061 160.643 132.798 160.643 132.361H159.856ZM164.966 133.603V132.387L165.692 131.626L166.943 133.603H167.888L166.261 131.031L167.897 129.326H166.865L164.966 131.338V127.165H164.144V133.603H164.966Z" fill="#ACB2B5"/>
</g>
<path d="M172.725 121.751C172.743 121.689 172.759 121.626 172.779 121.565C172.832 121.404 172.924 121.259 173.046 121.143C173.168 121.027 173.317 120.943 173.479 120.899C173.641 120.856 173.811 120.853 173.974 120.892C174.137 120.93 174.288 121.01 174.414 121.122C174.451 121.154 174.485 121.189 174.52 121.225L177.368 124.105C177.394 124.131 177.417 124.161 177.446 124.196C177.482 124.162 177.508 124.138 177.533 124.112L180.42 121.193C180.598 120.988 180.849 120.863 181.118 120.845C181.387 120.828 181.652 120.919 181.854 121.098C182.057 121.278 182.181 121.532 182.198 121.804C182.216 122.076 182.126 122.343 181.948 122.548C181.917 122.587 181.883 122.623 181.848 122.658L178.21 126.337C178.063 126.502 177.866 126.615 177.649 126.657C177.432 126.698 177.208 126.667 177.011 126.568C176.901 126.511 176.801 126.438 176.714 126.35C175.491 125.117 174.269 123.883 173.048 122.647C172.884 122.478 172.772 122.265 172.725 122.033V121.751Z" fill="white"/>
<rect x="206.41" y="104.078" width="264.596" height="39.3614" rx="6.56024" fill="#DAFFEE" fill-opacity="0.06"/>
<path d="M380.691 122.517V120.955H376.703L378.434 119.473C379.891 118.226 380.626 117.216 380.626 115.878C380.626 113.936 379.353 112.768 377.306 112.768C375.272 112.768 373.934 114.133 373.921 116.232H375.587C375.6 114.999 376.256 114.264 377.306 114.264C378.316 114.264 378.907 114.881 378.907 115.97C378.907 116.888 378.474 117.518 377.175 118.62L374.039 121.27V122.53L380.691 122.517ZM381.713 119.814C381.713 121.559 383.143 122.687 385.36 122.687C387.591 122.687 389.021 121.546 389.021 119.814C389.021 118.659 388.365 117.728 387.355 117.373C388.207 117.019 388.68 116.298 388.68 115.366C388.68 113.805 387.355 112.768 385.387 112.768C383.405 112.768 382.054 113.818 382.054 115.34C382.054 116.271 382.513 116.993 383.353 117.373C382.356 117.754 381.713 118.672 381.713 119.814ZM383.576 115.484C383.576 114.697 384.271 114.198 385.36 114.198C386.436 114.198 387.118 114.697 387.118 115.497C387.118 116.298 386.436 116.796 385.36 116.796C384.271 116.796 383.576 116.284 383.576 115.484ZM383.353 119.696C383.353 118.764 384.127 118.187 385.36 118.187C386.594 118.187 387.368 118.764 387.368 119.696C387.368 120.627 386.594 121.205 385.373 121.205C384.127 121.205 383.353 120.627 383.353 119.696ZM393.386 122.687C395.525 122.687 396.981 121.27 396.981 119.197C396.981 117.308 395.709 116.009 393.793 116.009C393.137 116.009 392.56 116.179 392.101 116.481L392.612 114.487H396.404V112.939H391.405L390.224 117.964L391.707 118.279C392.048 117.78 392.717 117.413 393.452 117.413C394.607 117.413 395.276 118.174 395.276 119.289C395.276 120.457 394.554 121.191 393.426 121.191C392.363 121.191 391.72 120.549 391.72 119.46H390.054C390.054 121.401 391.379 122.687 393.386 122.687ZM401.254 122.687C403.392 122.687 404.849 121.27 404.849 119.197C404.849 117.308 403.576 116.009 401.66 116.009C401.004 116.009 400.427 116.179 399.968 116.481L400.479 114.487H404.271V112.939H399.272L398.091 117.964L399.574 118.279C399.915 117.78 400.584 117.413 401.319 117.413C402.474 117.413 403.143 118.174 403.143 119.289C403.143 120.457 402.421 121.191 401.293 121.191C400.23 121.191 399.587 120.549 399.587 119.46H397.921C397.921 121.401 399.246 122.687 401.254 122.687ZM406.948 122.687C407.525 122.687 408.01 122.215 408.01 121.651C408.01 121.073 407.525 120.601 406.948 120.601C406.37 120.601 405.885 121.073 405.885 121.651C405.885 122.215 406.37 122.687 406.948 122.687ZM416.119 122.517V120.955H412.13L413.862 119.473C415.319 118.226 416.053 117.216 416.053 115.878C416.053 113.936 414.781 112.768 412.734 112.768C410.7 112.768 409.362 114.133 409.349 116.232H411.015C411.028 114.999 411.684 114.264 412.734 114.264C413.744 114.264 414.335 114.881 414.335 115.97C414.335 116.888 413.902 117.518 412.603 118.62L409.467 121.27V122.53L416.119 122.517ZM424.439 120.706V119.237H423.271V112.939H421.159L416.816 119.237V120.706H421.684V122.53H423.271V120.706H424.439ZM418.6 119.237L421.684 114.749V119.237H418.6ZM426.693 115.76C425.617 117.216 425.237 118.056 425.237 119.21C425.237 121.178 426.785 122.7 428.858 122.7C430.905 122.7 432.427 121.27 432.427 119.223C432.427 117.282 431.088 115.891 429.107 115.891C428.871 115.891 428.622 115.93 428.386 115.996L430.682 112.939H428.766L426.693 115.76ZM426.955 119.223C426.955 118.069 427.716 117.268 428.858 117.268C429.96 117.268 430.734 118.069 430.734 119.223C430.734 120.391 429.947 121.205 428.858 121.205C427.73 121.205 426.955 120.391 426.955 119.223ZM436.949 115.615C436.949 117.085 437.801 118.016 439.428 118.371L440.95 118.712C441.738 118.882 442.066 119.263 442.066 119.906C442.066 120.706 441.357 121.191 440.242 121.191C439.166 121.191 438.51 120.706 438.497 119.893H436.817C436.857 121.611 438.195 122.7 440.242 122.7C442.354 122.7 443.745 121.546 443.745 119.761C443.745 118.331 442.945 117.492 441.305 117.137L439.796 116.809C438.995 116.626 438.628 116.245 438.628 115.563C438.628 114.762 439.297 114.264 440.334 114.264C441.278 114.264 441.869 114.749 441.908 115.576H443.588C443.535 113.844 442.302 112.768 440.36 112.768C438.339 112.768 436.949 113.936 436.949 115.615ZM446.091 122.53L446.865 120.312H450.447L451.221 122.53H452.992L449.528 112.939H447.81L444.346 122.53H446.091ZM448.453 115.799C448.544 115.537 448.623 115.248 448.663 115.064C448.689 115.261 448.781 115.55 448.859 115.799L449.961 118.895H447.364L448.453 115.799ZM455.573 122.53V120.785L456.517 119.801L458.21 122.53H460.047L457.633 118.62L460.099 116.048H458.092L455.573 118.764V112.768H453.985V122.53H455.573Z" fill="white"/>
<path d="M416.044 132.482H416.663C416.663 132.715 416.622 132.924 416.539 133.109C416.462 133.288 416.35 133.432 416.204 133.539C416.058 133.641 415.883 133.692 415.679 133.692C415.504 133.692 415.341 133.663 415.191 133.604C415.045 133.541 414.907 133.471 414.775 133.393C414.649 133.31 414.525 133.24 414.404 133.181C414.287 133.118 414.17 133.087 414.054 133.087C413.903 133.087 413.796 133.135 413.733 133.232C413.67 133.325 413.638 133.456 413.638 133.626H413.019C413.019 133.398 413.058 133.196 413.135 133.021C413.218 132.841 413.332 132.7 413.478 132.598C413.629 132.496 413.803 132.445 414.003 132.445C414.168 132.445 414.321 132.477 414.462 132.54C414.608 132.598 414.746 132.669 414.877 132.751C415.009 132.829 415.135 132.9 415.256 132.963C415.378 133.021 415.502 133.05 415.628 133.05C415.779 133.05 415.886 133.002 415.949 132.904C416.012 132.802 416.044 132.662 416.044 132.482ZM416.044 133.903H416.663C416.663 134.136 416.622 134.345 416.539 134.53C416.462 134.71 416.35 134.853 416.204 134.96C416.058 135.062 415.883 135.113 415.679 135.113C415.504 135.113 415.341 135.084 415.191 135.026C415.045 134.962 414.907 134.892 414.775 134.814C414.649 134.732 414.525 134.661 414.404 134.603C414.287 134.54 414.17 134.508 414.054 134.508C413.903 134.508 413.796 134.557 413.733 134.654C413.67 134.746 413.638 134.877 413.638 135.047H413.019C413.019 134.819 413.058 134.617 413.135 134.442C413.218 134.263 413.332 134.122 413.478 134.02C413.629 133.913 413.803 133.859 414.003 133.859C414.168 133.859 414.321 133.891 414.462 133.954C414.608 134.017 414.746 134.09 414.877 134.173C415.009 134.251 415.135 134.321 415.256 134.384C415.378 134.442 415.502 134.472 415.628 134.472C415.779 134.472 415.886 134.423 415.949 134.326C416.012 134.224 416.044 134.083 416.044 133.903ZM419.547 134.501C419.547 134.141 419.656 133.83 419.875 133.568C420.094 133.305 420.383 133.14 420.743 133.072L420.75 133.24C420.429 133.152 420.179 133.002 419.999 132.788C419.824 132.569 419.737 132.307 419.737 132.001C419.737 131.719 419.812 131.473 419.963 131.264C420.118 131.055 420.33 130.893 420.597 130.776C420.869 130.655 421.185 130.594 421.544 130.594C421.899 130.594 422.21 130.652 422.477 130.769C422.745 130.885 422.951 131.051 423.097 131.264C423.248 131.478 423.323 131.728 423.323 132.015C423.323 132.321 423.235 132.581 423.061 132.795C422.886 133.009 422.638 133.155 422.317 133.232L422.31 133.079C422.553 133.118 422.764 133.203 422.944 133.335C423.129 133.466 423.269 133.631 423.367 133.83C423.469 134.029 423.52 134.253 423.52 134.501C423.52 134.817 423.437 135.094 423.272 135.332C423.107 135.565 422.876 135.747 422.579 135.878C422.283 136.01 421.936 136.075 421.537 136.075C421.134 136.075 420.784 136.012 420.487 135.886C420.191 135.755 419.96 135.57 419.795 135.332C419.63 135.094 419.547 134.817 419.547 134.501ZM420.356 134.442C420.356 134.627 420.405 134.788 420.502 134.924C420.599 135.055 420.735 135.159 420.91 135.237C421.09 135.31 421.299 135.346 421.537 135.346C421.775 135.346 421.982 135.31 422.157 135.237C422.332 135.159 422.468 135.055 422.565 134.924C422.662 134.788 422.711 134.627 422.711 134.442C422.711 134.17 422.604 133.954 422.39 133.794C422.176 133.629 421.889 133.546 421.53 133.546C421.17 133.546 420.883 133.629 420.67 133.794C420.461 133.954 420.356 134.17 420.356 134.442ZM420.495 132.066C420.495 132.304 420.587 132.496 420.772 132.642C420.961 132.783 421.214 132.853 421.53 132.853C421.846 132.853 422.096 132.783 422.281 132.642C422.465 132.501 422.558 132.312 422.558 132.074C422.558 131.835 422.465 131.648 422.281 131.512C422.096 131.371 421.846 131.301 421.53 131.301C421.214 131.301 420.961 131.371 420.772 131.512C420.587 131.648 420.495 131.833 420.495 132.066ZM425.961 136.075C425.596 136.075 425.276 136.002 424.999 135.857C424.726 135.711 424.515 135.507 424.364 135.244C424.219 134.977 424.146 134.666 424.146 134.311H424.955C424.955 134.632 425.045 134.885 425.225 135.069C425.409 135.249 425.659 135.339 425.975 135.339C426.199 135.339 426.391 135.293 426.551 135.201C426.716 135.108 426.845 134.979 426.937 134.814C427.03 134.644 427.076 134.445 427.076 134.217C427.076 133.998 427.032 133.806 426.945 133.641C426.857 133.475 426.733 133.347 426.573 133.254C426.413 133.157 426.216 133.109 425.983 133.109C425.774 133.109 425.577 133.155 425.392 133.247C425.208 133.339 425.062 133.458 424.955 133.604L424.241 133.437L424.889 130.689H427.594V131.447H425.239L425.56 131.155L425.101 132.985L424.824 133.072C424.95 132.858 425.13 132.696 425.363 132.584C425.596 132.467 425.859 132.409 426.15 132.409C426.505 132.409 426.814 132.484 427.076 132.635C427.343 132.785 427.55 132.994 427.696 133.262C427.841 133.529 427.914 133.835 427.914 134.18C427.914 134.554 427.832 134.885 427.666 135.171C427.501 135.453 427.273 135.674 426.981 135.835C426.69 135.995 426.35 136.075 425.961 136.075ZM430.303 136.075C429.938 136.075 429.618 136.002 429.341 135.857C429.069 135.711 428.857 135.507 428.707 135.244C428.561 134.977 428.488 134.666 428.488 134.311H429.297C429.297 134.632 429.387 134.885 429.567 135.069C429.751 135.249 430.002 135.339 430.318 135.339C430.541 135.339 430.733 135.293 430.893 135.201C431.059 135.108 431.187 134.979 431.28 134.814C431.372 134.644 431.418 134.445 431.418 134.217C431.418 133.998 431.374 133.806 431.287 133.641C431.199 133.475 431.076 133.347 430.915 133.254C430.755 133.157 430.558 133.109 430.325 133.109C430.116 133.109 429.919 133.155 429.734 133.247C429.55 133.339 429.404 133.458 429.297 133.604L428.583 133.437L429.231 130.689H431.936V131.447H429.581L429.902 131.155L429.443 132.985L429.166 133.072C429.292 132.858 429.472 132.696 429.705 132.584C429.938 132.467 430.201 132.409 430.492 132.409C430.847 132.409 431.156 132.484 431.418 132.635C431.685 132.785 431.892 132.994 432.038 133.262C432.184 133.529 432.256 133.835 432.256 134.18C432.256 134.554 432.174 134.885 432.009 135.171C431.843 135.453 431.615 135.674 431.323 135.835C431.032 135.995 430.692 136.075 430.303 136.075ZM433.402 136.075C433.246 136.075 433.113 136.022 433.001 135.915C432.894 135.808 432.841 135.682 432.841 135.536C432.841 135.38 432.894 135.249 433.001 135.142C433.113 135.035 433.246 134.982 433.402 134.982C433.553 134.982 433.681 135.035 433.788 135.142C433.9 135.249 433.956 135.38 433.956 135.536C433.956 135.682 433.9 135.808 433.788 135.915C433.681 136.022 433.553 136.075 433.402 136.075ZM438.389 135.981L434.766 135.988V135.361L436.487 133.896C436.686 133.731 436.851 133.58 436.982 133.444C437.114 133.308 437.218 133.181 437.296 133.065C437.374 132.948 437.429 132.832 437.463 132.715C437.497 132.593 437.514 132.467 437.514 132.336C437.514 132.02 437.429 131.775 437.259 131.6C437.094 131.42 436.863 131.33 436.567 131.33C436.256 131.33 436.008 131.434 435.823 131.643C435.644 131.848 435.549 132.129 435.539 132.489H434.723C434.728 132.105 434.808 131.772 434.963 131.49C435.119 131.204 435.333 130.983 435.605 130.827C435.882 130.672 436.202 130.594 436.567 130.594C436.936 130.594 437.252 130.662 437.514 130.798C437.782 130.934 437.988 131.128 438.134 131.381C438.28 131.634 438.353 131.935 438.353 132.285C438.353 132.47 438.328 132.647 438.28 132.817C438.231 132.982 438.156 133.145 438.054 133.305C437.952 133.466 437.821 133.631 437.66 133.801C437.505 133.966 437.315 134.144 437.092 134.333L435.758 135.478L435.473 135.215H438.389V135.981ZM442.292 130.689V135.988H441.504V130.689H442.292ZM438.793 134.224L441.242 130.689H442.117L439.638 134.275L438.793 134.224ZM442.926 134.953H438.793V134.224H442.926V134.953ZM445.784 134.078V130.689H446.608V134.027C446.608 134.43 446.715 134.739 446.928 134.953C447.142 135.167 447.448 135.273 447.847 135.273C448.24 135.273 448.544 135.167 448.758 134.953C448.972 134.734 449.079 134.425 449.079 134.027V130.689H449.902V134.078C449.902 134.486 449.82 134.841 449.654 135.142C449.489 135.439 449.251 135.669 448.94 135.835C448.634 135.995 448.27 136.075 447.847 136.075C447.424 136.075 447.057 135.995 446.746 135.835C446.44 135.674 446.202 135.444 446.032 135.142C445.867 134.841 445.784 134.486 445.784 134.078ZM450.76 132.139C450.76 131.833 450.838 131.566 450.994 131.337C451.154 131.104 451.373 130.922 451.65 130.791C451.931 130.659 452.255 130.594 452.619 130.594C452.969 130.594 453.273 130.655 453.53 130.776C453.788 130.898 453.989 131.072 454.135 131.301C454.281 131.529 454.361 131.799 454.376 132.11H453.545C453.53 131.862 453.44 131.67 453.275 131.534C453.11 131.398 452.889 131.33 452.612 131.33C452.301 131.33 452.05 131.4 451.861 131.541C451.676 131.682 451.584 131.874 451.584 132.117C451.584 132.316 451.64 132.477 451.752 132.598C451.868 132.72 452.043 132.807 452.276 132.861L453.137 133.058C453.579 133.155 453.909 133.322 454.128 133.561C454.351 133.794 454.463 134.102 454.463 134.486C454.463 134.807 454.383 135.089 454.223 135.332C454.067 135.57 453.846 135.755 453.559 135.886C453.273 136.017 452.937 136.083 452.553 136.083C452.189 136.083 451.868 136.022 451.591 135.9C451.314 135.774 451.098 135.597 450.943 135.368C450.787 135.14 450.704 134.873 450.695 134.566H451.518C451.528 134.805 451.625 134.994 451.81 135.135C451.995 135.271 452.245 135.339 452.561 135.339C452.891 135.339 453.154 135.269 453.348 135.128C453.542 134.987 453.639 134.797 453.639 134.559C453.639 134.36 453.584 134.202 453.472 134.085C453.365 133.964 453.195 133.876 452.962 133.823L452.109 133.633C451.667 133.536 451.331 133.364 451.103 133.116C450.874 132.863 450.76 132.538 450.76 132.139ZM457.153 135.988H455.33V130.689H457.116C457.641 130.689 458.103 130.8 458.501 131.024C458.9 131.247 459.208 131.558 459.427 131.957C459.651 132.355 459.762 132.819 459.762 133.349C459.762 133.869 459.653 134.328 459.434 134.727C459.216 135.12 458.909 135.429 458.516 135.652C458.127 135.876 457.673 135.988 457.153 135.988ZM456.154 131.068V135.616L455.761 135.23H457.087C457.461 135.23 457.782 135.154 458.049 135.004C458.321 134.848 458.53 134.63 458.676 134.348C458.827 134.066 458.902 133.733 458.902 133.349C458.902 132.956 458.827 132.618 458.676 132.336C458.526 132.049 458.312 131.831 458.035 131.68C457.763 131.524 457.435 131.447 457.051 131.447H455.761L456.154 131.068Z" fill="#ACB2B5"/>
<rect x="206.775" y="104.443" width="263.867" height="38.6325" rx="6.19578" stroke="white" stroke-opacity="0.12" stroke-width="0.728916"/>
<line x1="64.2715" y1="180.615" x2="86.139" y2="180.615" stroke="#4CF3A8" stroke-opacity="0.12" stroke-width="0.728916"/>
<path d="M101.81 165.308C98.7108 165.308 95.6808 166.227 93.1036 167.949C90.5264 169.671 88.5177 172.118 87.3316 174.982C86.1454 177.846 85.8351 180.997 86.4398 184.037C87.0445 187.077 88.5371 189.869 90.7288 192.061C92.9205 194.253 95.713 195.745 98.753 196.35C101.793 196.955 104.944 196.644 107.808 195.458C110.671 194.272 113.119 192.263 114.841 189.686C116.563 187.109 117.482 184.079 117.482 180.979C117.477 176.824 115.825 172.841 112.887 169.903C109.949 166.965 105.965 165.312 101.81 165.308Z" fill="#4CF3A8" fill-opacity="0.12"/>
<path d="M101.8 175.862L101.8 185.794M101.8 185.794L97.9662 181.961M101.8 185.794L105.622 181.972" stroke="#8AFFCB" stroke-width="1.45783" stroke-linecap="round" stroke-linejoin="round"/>
<line x1="117.481" y1="180.959" x2="349.645" y2="180.271" stroke="#4CF3A8" stroke-opacity="0.12" stroke-width="0.728916"/>
<rect x="349.646" y="170.774" width="133.392" height="20.4096" rx="5.10241" fill="#DAFFEE" fill-opacity="0.06"/>
<path d="M362.778 182.444C363.909 182.444 364.646 181.658 364.646 180.576C364.646 179.461 363.917 178.716 362.778 178.716H360.525V184.513H361.311V182.444H362.778ZM362.642 179.421C363.38 179.421 363.821 179.838 363.821 180.568C363.821 181.281 363.388 181.738 362.61 181.738H361.311V179.421H362.642ZM367.653 180.56C367.501 180.528 367.389 180.512 367.252 180.512C366.715 180.512 366.322 180.784 366.162 181.193L366.114 180.6H365.408V184.513H366.162V182.436C366.162 181.682 366.603 181.249 367.316 181.249H367.653V180.56ZM368.729 179.662C369.001 179.662 369.226 179.437 369.226 179.165C369.226 178.884 369.001 178.668 368.729 178.668C368.456 178.668 368.232 178.884 368.232 179.165C368.232 179.437 368.456 179.662 368.729 179.662ZM368.36 184.513H369.114V180.592H368.36V184.513ZM369.951 182.556C369.951 183.791 370.713 184.609 371.868 184.609C372.814 184.609 373.543 184.04 373.696 183.19H372.942C372.806 183.655 372.405 183.935 371.868 183.935C371.154 183.935 370.697 183.39 370.697 182.548C370.697 181.698 371.186 181.153 371.9 181.153C372.405 181.153 372.806 181.418 372.934 181.915H373.688C373.552 181.041 372.862 180.48 371.876 180.48C370.729 180.48 369.951 181.33 369.951 182.556ZM376.183 184.609C377.153 184.609 377.811 184.136 378.003 183.294H377.297C377.169 183.743 376.784 183.984 376.199 183.984C375.453 183.984 375.02 183.526 374.964 182.701L377.995 182.693V182.412C377.995 181.249 377.265 180.48 376.151 180.48C375.012 180.48 374.234 181.33 374.234 182.556C374.234 183.775 375.028 184.609 376.183 184.609ZM376.151 181.113C376.816 181.113 377.241 181.546 377.241 182.195H374.98C375.076 181.506 375.493 181.113 376.151 181.113ZM379.478 181.602C379.783 181.602 380.048 181.346 380.048 181.049C380.048 180.736 379.783 180.48 379.478 180.48C379.166 180.48 378.901 180.736 378.901 181.049C378.901 181.346 379.166 181.602 379.478 181.602ZM379.478 184.609C379.783 184.609 380.048 184.352 380.048 184.048C380.048 183.735 379.783 183.478 379.478 183.478C379.166 183.478 378.901 183.735 378.901 184.048C378.901 184.352 379.166 184.609 379.478 184.609Z" fill="white"/>
<rect x="390.098" y="178.429" width="83.8253" height="5.10241" rx="2.5512" fill="#DAFFEE" fill-opacity="0.16"/>
<line x1="483.037" y1="180.615" x2="531.874" y2="180.615" stroke="#4CF3A8" stroke-opacity="0.12" stroke-width="0.728916"/>
<rect x="86.8672" y="203.94" width="400.904" height="91.1145" rx="8.74699" fill="#DAFFEE" fill-opacity="0.06"/>
<path d="M106.618 227.853L103.749 222.768H105.231L107.003 226.01C107.058 226.111 107.108 226.212 107.155 226.313C107.202 226.407 107.248 226.5 107.295 226.593C107.334 226.523 107.365 226.461 107.388 226.407C107.412 226.352 107.435 226.294 107.458 226.232C107.489 226.169 107.532 226.092 107.586 225.998L109.348 222.768H110.794L107.936 227.853V231.247H106.618V227.853ZM110.134 228.378C110.134 227.779 110.263 227.254 110.519 226.803C110.784 226.352 111.145 225.998 111.604 225.742C112.063 225.485 112.583 225.357 113.167 225.357C113.75 225.357 114.267 225.485 114.718 225.742C115.169 225.998 115.526 226.352 115.791 226.803C116.055 227.254 116.187 227.779 116.187 228.378C116.187 228.968 116.055 229.489 115.791 229.94C115.526 230.391 115.169 230.745 114.718 231.002C114.267 231.258 113.75 231.387 113.167 231.387C112.583 231.387 112.063 231.258 111.604 231.002C111.145 230.745 110.784 230.391 110.519 229.94C110.263 229.489 110.134 228.968 110.134 228.378ZM111.394 228.366C111.394 228.739 111.468 229.07 111.615 229.357C111.771 229.637 111.981 229.859 112.245 230.022C112.51 230.178 112.817 230.255 113.167 230.255C113.509 230.255 113.812 230.178 114.076 230.022C114.341 229.859 114.547 229.637 114.694 229.357C114.842 229.07 114.916 228.739 114.916 228.366C114.916 227.993 114.842 227.666 114.694 227.386C114.547 227.106 114.341 226.889 114.076 226.733C113.812 226.57 113.509 226.488 113.167 226.488C112.817 226.488 112.51 226.57 112.245 226.733C111.981 226.889 111.771 227.106 111.615 227.386C111.468 227.666 111.394 227.993 111.394 228.366ZM121.134 225.52H122.394V231.247H121.239L121.123 230.43C120.959 230.718 120.703 230.951 120.353 231.13C120.011 231.309 119.637 231.398 119.233 231.398C118.572 231.398 118.059 231.188 117.694 230.768C117.328 230.349 117.146 229.789 117.146 229.089V225.509H118.405V228.657C118.405 229.233 118.518 229.645 118.743 229.894C118.969 230.143 119.288 230.267 119.7 230.267C120.174 230.267 120.532 230.123 120.773 229.835C121.014 229.548 121.134 229.112 121.134 228.529V225.52ZM126.74 228.249C126.74 227.697 126.853 227.204 127.078 226.768C127.304 226.333 127.619 225.987 128.023 225.73C128.435 225.474 128.913 225.345 129.458 225.345C129.963 225.345 130.394 225.462 130.752 225.695C131.11 225.921 131.359 226.236 131.499 226.64L131.359 226.78L131.475 225.52H132.63V230.978C132.63 231.6 132.509 232.137 132.268 232.588C132.027 233.047 131.685 233.396 131.242 233.637C130.807 233.886 130.29 234.011 129.691 234.011C128.89 234.011 128.229 233.797 127.708 233.369C127.195 232.942 126.888 232.358 126.787 231.62H128.058C128.112 232.016 128.284 232.323 128.571 232.541C128.859 232.767 129.228 232.879 129.679 232.879C130.2 232.879 130.612 232.724 130.915 232.413C131.219 232.11 131.37 231.705 131.37 231.2V229.672L131.534 229.824C131.386 230.22 131.121 230.535 130.74 230.768C130.359 231.002 129.916 231.118 129.411 231.118C128.874 231.118 128.404 230.994 128 230.745C127.603 230.489 127.292 230.146 127.067 229.719C126.849 229.283 126.74 228.794 126.74 228.249ZM128.011 228.214C128.011 228.556 128.077 228.864 128.21 229.136C128.342 229.4 128.532 229.614 128.781 229.777C129.03 229.933 129.322 230.01 129.656 230.01C129.998 230.01 130.293 229.936 130.542 229.789C130.799 229.633 130.993 229.419 131.125 229.147C131.265 228.875 131.335 228.564 131.335 228.214C131.335 227.864 131.269 227.557 131.137 227.293C131.005 227.029 130.814 226.823 130.566 226.675C130.317 226.519 130.013 226.442 129.656 226.442C129.314 226.442 129.018 226.523 128.769 226.686C128.528 226.842 128.342 227.052 128.21 227.316C128.077 227.581 128.011 227.88 128.011 228.214ZM136.682 231.398C136.114 231.398 135.613 231.27 135.177 231.013C134.75 230.757 134.412 230.403 134.163 229.952C133.922 229.493 133.801 228.968 133.801 228.378C133.801 227.779 133.918 227.254 134.151 226.803C134.392 226.352 134.727 225.998 135.154 225.742C135.582 225.477 136.075 225.345 136.635 225.345C137.195 225.345 137.677 225.466 138.081 225.707C138.494 225.94 138.812 226.274 139.038 226.71C139.271 227.137 139.388 227.643 139.388 228.226V228.646L134.466 228.657L134.489 227.841H138.128C138.128 227.398 137.992 227.048 137.72 226.791C137.456 226.527 137.094 226.395 136.635 226.395C136.285 226.395 135.986 226.469 135.737 226.617C135.496 226.764 135.31 226.986 135.177 227.281C135.053 227.569 134.991 227.923 134.991 228.343C134.991 228.996 135.135 229.493 135.422 229.835C135.718 230.178 136.145 230.349 136.705 230.349C137.11 230.349 137.444 230.271 137.708 230.115C137.973 229.96 138.144 229.73 138.221 229.427H139.399C139.267 230.041 138.96 230.523 138.478 230.873C138.004 231.223 137.405 231.398 136.682 231.398ZM139.923 225.52H143.41V226.57H139.923V225.52ZM142.291 231.247H141.043V223.724H142.291V231.247Z" fill="#B8FFDF"/>
<path d="M311.152 226.404V228.976H312.01V226.404L314.135 222.652H313.199L311.8 225.18C311.686 225.39 311.668 225.442 311.59 225.6C311.52 225.451 311.467 225.329 311.38 225.18L309.972 222.652H309.009L311.152 226.404ZM313.679 226.833C313.679 228.154 314.623 229.081 315.909 229.081C317.186 229.081 318.131 228.154 318.131 226.833C318.131 225.512 317.186 224.585 315.909 224.585C314.623 224.585 313.679 225.512 313.679 226.833ZM314.51 226.833C314.51 225.941 315.078 225.32 315.909 225.32C316.731 225.32 317.309 225.941 317.309 226.833C317.309 227.725 316.731 228.346 315.909 228.346C315.078 228.346 314.51 227.725 314.51 226.833ZM321.895 224.699V226.956C321.895 227.874 321.484 228.355 320.732 228.355C320.102 228.355 319.708 228.005 319.708 227.087V224.699H318.886V227.358C318.886 228.408 319.446 229.081 320.443 229.081C321.073 229.081 321.641 228.775 321.886 228.329L321.974 228.976H322.708V224.699H321.895ZM326.351 224.664C326.184 224.629 326.062 224.611 325.913 224.611C325.327 224.611 324.899 224.909 324.724 225.355L324.671 224.708H323.901V228.976H324.724V226.711C324.724 225.888 325.205 225.416 325.983 225.416H326.351V224.664ZM330.257 228.976L330.318 228.198C330.598 228.784 331.167 229.081 331.84 229.081C333.082 229.081 333.852 228.154 333.852 226.859C333.852 225.539 333.117 224.576 331.893 224.576C331.193 224.576 330.616 224.874 330.336 225.434V222.538H329.513V228.976H330.257ZM330.344 226.824C330.344 225.95 330.852 225.32 331.691 225.32C332.531 225.32 333.03 225.95 333.03 226.824C333.03 227.708 332.531 228.338 331.691 228.338C330.852 228.338 330.344 227.717 330.344 226.824ZM336.009 229.081C336.7 229.081 337.286 228.775 337.505 228.285L337.592 228.976H338.292V226.291C338.292 225.136 337.575 224.576 336.516 224.576C335.414 224.576 334.68 225.162 334.68 226.055H335.397C335.397 225.539 335.79 225.232 336.481 225.232C337.059 225.232 337.487 225.486 337.487 226.203V226.326L336.14 226.431C335.134 226.509 334.548 226.999 334.548 227.786C334.548 228.565 335.091 229.081 336.009 229.081ZM336.245 228.443C335.712 228.443 335.379 228.215 335.379 227.76C335.379 227.34 335.677 227.06 336.403 226.991L337.496 226.903V227.13C337.496 227.935 337.024 228.443 336.245 228.443ZM340.27 228.976V222.538H339.448V228.976H340.27ZM342.732 229.081C343.423 229.081 344.009 228.775 344.227 228.285L344.315 228.976H345.015V226.291C345.015 225.136 344.297 224.576 343.239 224.576C342.137 224.576 341.402 225.162 341.402 226.055H342.119C342.119 225.539 342.513 225.232 343.204 225.232C343.781 225.232 344.21 225.486 344.21 226.203V226.326L342.863 226.431C341.857 226.509 341.271 226.999 341.271 227.786C341.271 228.565 341.813 229.081 342.732 229.081ZM342.968 228.443C342.434 228.443 342.102 228.215 342.102 227.76C342.102 227.34 342.399 227.06 343.125 226.991L344.219 226.903V227.13C344.219 227.935 343.746 228.443 342.968 228.443ZM346.975 228.976V226.711C346.975 225.88 347.422 225.329 348.191 225.329C348.821 225.329 349.223 225.678 349.223 226.544V228.976H350.046V226.361C350.046 225.267 349.53 224.576 348.401 224.576C347.798 224.576 347.255 224.865 346.984 225.355L346.897 224.699H346.153V228.976H346.975ZM350.905 226.842C350.905 228.189 351.736 229.081 352.995 229.081C354.027 229.081 354.823 228.46 354.989 227.533H354.167C354.018 228.04 353.581 228.346 352.995 228.346C352.217 228.346 351.718 227.751 351.718 226.833C351.718 225.906 352.252 225.311 353.03 225.311C353.581 225.311 354.018 225.6 354.158 226.142H354.981C354.832 225.189 354.08 224.576 353.004 224.576C351.753 224.576 350.905 225.504 350.905 226.842ZM357.703 229.081C358.761 229.081 359.478 228.565 359.688 227.647H358.918C358.778 228.136 358.359 228.399 357.72 228.399C356.907 228.399 356.434 227.9 356.373 226.999L359.679 226.991V226.684C359.679 225.416 358.883 224.576 357.668 224.576C356.425 224.576 355.577 225.504 355.577 226.842C355.577 228.171 356.443 229.081 357.703 229.081ZM357.668 225.267C358.394 225.267 358.857 225.74 358.857 226.448H356.39C356.495 225.696 356.95 225.267 357.668 225.267ZM361.297 225.801C361.63 225.801 361.919 225.521 361.919 225.197C361.919 224.856 361.63 224.576 361.297 224.576C360.956 224.576 360.668 224.856 360.668 225.197C360.668 225.521 360.956 225.801 361.297 225.801ZM361.297 229.081C361.63 229.081 361.919 228.801 361.919 228.469C361.919 228.128 361.63 227.848 361.297 227.848C360.956 227.848 360.668 228.128 360.668 228.469C360.668 228.801 360.956 229.081 361.297 229.081Z" fill="white" fill-opacity="0.7"/>
<rect x="370.092" y="223.425" width="83.8253" height="5.10241" rx="2.5512" fill="#DAFFEE" fill-opacity="0.16"/>
<rect x="457.562" y="220.598" width="13.4444" height="10.7556" rx="5.37778" fill="white" fill-opacity="0.06"/>
<g clip-path="url(#clip2_620_5157)">
<circle cx="120.399" cy="260.795" r="14.5783" fill="url(#paint4_linear_620_5157)"/>
<path d="M124.566 253.776L120.004 257.957C119.534 258.389 118.919 258.63 118.28 258.633L116.92 258.636L116.915 253.776H114.457V267.664H115.798C116.167 267.665 116.53 267.567 116.85 267.381C117.169 267.195 117.432 266.927 117.614 266.605C117.617 266.6 117.618 266.596 117.621 266.593C117.864 266.152 117.986 265.28 117.963 264.685C117.91 263.325 117.693 262.972 117.693 262.972C117.648 263.904 116.682 263.954 116.682 263.954C117.369 263.293 116.995 262.793 116.995 262.793C115.779 263.666 115.475 262.733 115.452 262.649C115.489 262.682 115.836 262.973 116.493 262.064C117.188 261.104 118.115 259.503 118.705 259.092C119.296 258.679 119.856 258.713 119.856 258.713C119.856 258.713 120.179 258.271 121.033 257.905C121.886 257.541 122.434 258.075 122.434 258.075C121.561 258.785 120.376 259.951 120.309 261.622C120.257 262.975 123.146 265.295 122.639 268.722C122.943 267.944 123.064 267.164 122.961 266.199C122.877 265.421 122.38 263.794 122.38 263.794L125.155 267.663H128.223L122.226 259.35L128.223 253.776H124.566H124.566Z" fill="white"/>
<path d="M118.979 259.756C118.785 260.08 118.785 260.179 118.785 260.179C118.785 260.179 119.463 260.064 119.646 259.251C119.648 259.251 119.213 259.364 118.979 259.756Z" fill="white"/>
</g>
<path d="M141.787 249.873H140.294V258.398H141.787V256.579L143.198 254.771L145.309 258.398H147.035L144.178 253.512L147 249.873H145.239L141.787 254.351V249.873ZM148.888 258.398L149.576 256.427H152.76L153.448 258.398H155.022L151.943 249.873H150.415L147.337 258.398H148.888ZM150.987 252.415C151.069 252.182 151.139 251.926 151.174 251.762C151.197 251.937 151.278 252.194 151.348 252.415L152.328 255.168H150.019L150.987 252.415ZM157.584 258.398V255.215H159.415L160.861 258.398H162.494L160.873 254.9C161.876 254.491 162.412 253.675 162.412 252.532C162.412 250.853 161.281 249.873 159.345 249.873H156.091V258.398H157.584ZM157.584 251.203H159.345C160.29 251.203 160.85 251.681 160.85 252.532C160.85 253.395 160.29 253.897 159.345 253.897H157.584V251.203Z" fill="white"/>
<g clip-path="url(#clip3_620_5157)">
<path d="M140.942 263.867H140.084V270.191H140.942V268.739L142.096 267.278L143.819 270.191H144.816L142.665 266.552L144.781 263.867H143.758L140.942 267.453V263.867ZM146.688 270.296C147.379 270.296 147.965 269.99 148.183 269.5L148.271 270.191H148.971V267.506C148.971 266.351 148.253 265.791 147.195 265.791C146.093 265.791 145.358 266.377 145.358 267.269H146.075C146.075 266.753 146.469 266.447 147.16 266.447C147.737 266.447 148.166 266.701 148.166 267.418V267.541L146.819 267.646C145.813 267.724 145.227 268.214 145.227 269.001C145.227 269.78 145.769 270.296 146.688 270.296ZM146.924 269.657C146.39 269.657 146.058 269.43 146.058 268.975C146.058 268.555 146.355 268.275 147.081 268.205L148.175 268.118V268.345C148.175 269.15 147.702 269.657 146.924 269.657ZM152.559 265.879C152.392 265.844 152.27 265.826 152.121 265.826C151.535 265.826 151.107 266.124 150.932 266.57L150.879 265.922H150.109V270.191H150.932V267.925C150.932 267.103 151.413 266.631 152.191 266.631H152.559V265.879ZM156.286 265.914V268.17C156.286 269.089 155.875 269.57 155.123 269.57C154.493 269.57 154.099 269.22 154.099 268.302V265.914H153.277V268.573C153.277 269.622 153.837 270.296 154.834 270.296C155.464 270.296 156.033 269.99 156.277 269.544L156.365 270.191H157.1V265.914H156.286ZM160.742 265.879C160.576 265.844 160.453 265.826 160.304 265.826C159.718 265.826 159.29 266.124 159.115 266.57L159.062 265.922H158.293V270.191H159.115V267.925C159.115 267.103 159.596 266.631 160.374 266.631H160.742V265.879ZM162.593 270.296C163.284 270.296 163.87 269.99 164.089 269.5L164.176 270.191H164.876V267.506C164.876 266.351 164.159 265.791 163.1 265.791C161.998 265.791 161.263 266.377 161.263 267.269H161.981C161.981 266.753 162.374 266.447 163.065 266.447C163.643 266.447 164.071 266.701 164.071 267.418V267.541L162.724 267.646C161.718 267.724 161.132 268.214 161.132 269.001C161.132 269.78 161.674 270.296 162.593 270.296ZM162.829 269.657C162.295 269.657 161.963 269.43 161.963 268.975C161.963 268.555 162.26 268.275 162.986 268.205L164.08 268.118V268.345C164.08 269.15 163.608 269.657 162.829 269.657Z" fill="#ACB2B5"/>
</g>
<path d="M170.725 258.787C170.743 258.725 170.759 258.662 170.779 258.601C170.832 258.44 170.924 258.295 171.046 258.179C171.168 258.063 171.317 257.98 171.479 257.936C171.641 257.892 171.811 257.889 171.974 257.928C172.137 257.967 172.288 258.046 172.414 258.158C172.451 258.191 172.485 258.226 172.52 258.261L175.368 261.141C175.394 261.167 175.417 261.197 175.446 261.232C175.482 261.199 175.508 261.174 175.533 261.148L178.42 258.23C178.598 258.025 178.849 257.899 179.118 257.882C179.387 257.864 179.652 257.955 179.854 258.134C180.057 258.314 180.181 258.568 180.198 258.84C180.216 259.112 180.126 259.38 179.948 259.585C179.917 259.623 179.883 259.659 179.848 259.695L176.21 263.373C176.063 263.539 175.866 263.651 175.649 263.693C175.432 263.734 175.208 263.703 175.011 263.604C174.901 263.547 174.801 263.474 174.714 263.386C173.491 262.153 172.269 260.919 171.048 259.683C170.884 259.514 170.772 259.301 170.725 259.069V258.787Z" fill="white"/>
<rect x="206.41" y="241.114" width="264.596" height="39.3614" rx="6.56024" fill="#DAFFEE" fill-opacity="0.06"/>
<path d="M377.367 259.552V257.991H373.378L375.11 256.508C376.567 255.262 377.301 254.252 377.301 252.913C377.301 250.972 376.029 249.804 373.982 249.804C371.948 249.804 370.61 251.168 370.597 253.268H372.263C372.276 252.034 372.932 251.3 373.982 251.3C374.992 251.3 375.583 251.916 375.583 253.005C375.583 253.924 375.15 254.553 373.851 255.656L370.715 258.306V259.565L377.367 259.552ZM378.389 256.849C378.389 258.595 379.819 259.723 382.036 259.723C384.267 259.723 385.697 258.581 385.697 256.849C385.697 255.695 385.041 254.763 384.03 254.409C384.883 254.055 385.356 253.333 385.356 252.402C385.356 250.84 384.03 249.804 382.062 249.804C380.081 249.804 378.73 250.853 378.73 252.375C378.73 253.307 379.189 254.029 380.029 254.409C379.032 254.79 378.389 255.708 378.389 256.849ZM380.252 252.52C380.252 251.733 380.947 251.234 382.036 251.234C383.112 251.234 383.794 251.733 383.794 252.533C383.794 253.333 383.112 253.832 382.036 253.832C380.947 253.832 380.252 253.32 380.252 252.52ZM380.029 256.731C380.029 255.8 380.803 255.223 382.036 255.223C383.269 255.223 384.044 255.8 384.044 256.731C384.044 257.663 383.269 258.24 382.049 258.24C380.803 258.24 380.029 257.663 380.029 256.731ZM390.062 259.723C392.201 259.723 393.657 258.306 393.657 256.233C393.657 254.343 392.384 253.045 390.469 253.045C389.813 253.045 389.236 253.215 388.776 253.517L389.288 251.523H393.08V249.974H388.081L386.9 255L388.383 255.314C388.724 254.816 389.393 254.448 390.128 254.448C391.282 254.448 391.951 255.209 391.951 256.325C391.951 257.492 391.23 258.227 390.102 258.227C389.039 258.227 388.396 257.584 388.396 256.495H386.73C386.73 258.437 388.055 259.723 390.062 259.723ZM397.929 259.723C400.068 259.723 401.524 258.306 401.524 256.233C401.524 254.343 400.252 253.045 398.336 253.045C397.68 253.045 397.103 253.215 396.644 253.517L397.155 251.523H400.947V249.974H395.948L394.767 255L396.25 255.314C396.591 254.816 397.26 254.448 397.995 254.448C399.15 254.448 399.819 255.209 399.819 256.325C399.819 257.492 399.097 258.227 397.969 258.227C396.906 258.227 396.263 257.584 396.263 256.495H394.597C394.597 258.437 395.922 259.723 397.929 259.723ZM403.623 259.723C404.201 259.723 404.686 259.251 404.686 258.686C404.686 258.109 404.201 257.637 403.623 257.637C403.046 257.637 402.561 258.109 402.561 258.686C402.561 259.251 403.046 259.723 403.623 259.723ZM412.795 259.552V257.991H408.806L410.538 256.508C411.994 255.262 412.729 254.252 412.729 252.913C412.729 250.972 411.457 249.804 409.41 249.804C407.376 249.804 406.038 251.168 406.025 253.268H407.691C407.704 252.034 408.36 251.3 409.41 251.3C410.42 251.3 411.01 251.916 411.01 253.005C411.01 253.924 410.577 254.553 409.279 255.656L406.143 258.306V259.565L412.795 259.552ZM421.115 257.742V256.272H419.947V249.974H417.835L413.492 256.272V257.742H418.36V259.565H419.947V257.742H421.115ZM415.276 256.272L418.36 251.785V256.272H415.276ZM423.369 252.795C422.293 254.252 421.912 255.091 421.912 256.246C421.912 258.214 423.461 259.736 425.534 259.736C427.58 259.736 429.102 258.306 429.102 256.259C429.102 254.317 427.764 252.926 425.783 252.926C425.547 252.926 425.298 252.966 425.061 253.031L427.357 249.974H425.442L423.369 252.795ZM423.631 256.259C423.631 255.104 424.392 254.304 425.534 254.304C426.636 254.304 427.41 255.104 427.41 256.259C427.41 257.427 426.623 258.24 425.534 258.24C424.405 258.24 423.631 257.427 423.631 256.259ZM435.855 249.974H434.175V259.565H435.855V257.519L437.442 255.485L439.817 259.565H441.759L438.545 254.068L441.72 249.974H439.739L435.855 255.013V249.974ZM443.843 259.565L444.617 257.348H448.199L448.973 259.565H450.744L447.281 249.974H445.562L442.098 259.565H443.843ZM446.205 252.835C446.297 252.572 446.375 252.284 446.415 252.1C446.441 252.297 446.533 252.585 446.611 252.835L447.714 255.931H445.116L446.205 252.835ZM453.626 259.565V255.984H455.686L457.313 259.565H459.15L457.326 255.629C458.455 255.17 459.058 254.252 459.058 252.966C459.058 251.076 457.786 249.974 455.608 249.974H451.947V259.565H453.626ZM453.626 251.47H455.608C456.67 251.47 457.3 252.008 457.3 252.966C457.3 253.937 456.67 254.501 455.608 254.501H453.626V251.47Z" fill="white"/>
<path d="M415.719 269.517H416.339C416.339 269.751 416.298 269.96 416.215 270.144C416.137 270.324 416.026 270.467 415.88 270.574C415.734 270.676 415.559 270.727 415.355 270.727C415.18 270.727 415.017 270.698 414.867 270.64C414.721 270.577 414.582 270.506 414.451 270.428C414.325 270.346 414.201 270.275 414.079 270.217C413.963 270.154 413.846 270.122 413.73 270.122C413.579 270.122 413.472 270.171 413.409 270.268C413.346 270.36 413.314 270.492 413.314 270.662H412.694C412.694 270.433 412.733 270.232 412.811 270.057C412.894 269.877 413.008 269.736 413.154 269.634C413.304 269.532 413.479 269.481 413.678 269.481C413.844 269.481 413.997 269.512 414.138 269.576C414.283 269.634 414.422 269.704 414.553 269.787C414.684 269.865 414.811 269.935 414.932 269.998C415.054 270.057 415.178 270.086 415.304 270.086C415.455 270.086 415.562 270.037 415.625 269.94C415.688 269.838 415.719 269.697 415.719 269.517ZM415.719 270.939H416.339C416.339 271.172 416.298 271.381 416.215 271.566C416.137 271.745 416.026 271.889 415.88 271.996C415.734 272.098 415.559 272.149 415.355 272.149C415.18 272.149 415.017 272.12 414.867 272.061C414.721 271.998 414.582 271.928 414.451 271.85C414.325 271.767 414.201 271.697 414.079 271.638C413.963 271.575 413.846 271.544 413.73 271.544C413.579 271.544 413.472 271.592 413.409 271.69C413.346 271.782 413.314 271.913 413.314 272.083H412.694C412.694 271.855 412.733 271.653 412.811 271.478C412.894 271.298 413.008 271.157 413.154 271.055C413.304 270.948 413.479 270.895 413.678 270.895C413.844 270.895 413.997 270.927 414.138 270.99C414.283 271.053 414.422 271.126 414.553 271.208C414.684 271.286 414.811 271.357 414.932 271.42C415.054 271.478 415.178 271.507 415.304 271.507C415.455 271.507 415.562 271.459 415.625 271.362C415.688 271.259 415.719 271.119 415.719 270.939ZM419.223 271.536C419.223 271.177 419.332 270.866 419.551 270.603C419.77 270.341 420.059 270.176 420.418 270.108L420.426 270.275C420.105 270.188 419.855 270.037 419.675 269.823C419.5 269.605 419.412 269.342 419.412 269.036C419.412 268.754 419.488 268.509 419.638 268.3C419.794 268.091 420.005 267.928 420.273 267.812C420.545 267.69 420.861 267.629 421.22 267.629C421.575 267.629 421.886 267.688 422.153 267.804C422.42 267.921 422.627 268.086 422.773 268.3C422.923 268.514 422.999 268.764 422.999 269.051C422.999 269.357 422.911 269.617 422.736 269.831C422.561 270.045 422.314 270.19 421.993 270.268L421.986 270.115C422.228 270.154 422.44 270.239 422.62 270.37C422.804 270.501 422.945 270.667 423.042 270.866C423.144 271.065 423.196 271.289 423.196 271.536C423.196 271.852 423.113 272.129 422.948 272.367C422.782 272.601 422.552 272.783 422.255 272.914C421.959 273.045 421.611 273.111 421.213 273.111C420.81 273.111 420.46 273.048 420.163 272.921C419.867 272.79 419.636 272.606 419.471 272.367C419.306 272.129 419.223 271.852 419.223 271.536ZM420.032 271.478C420.032 271.663 420.081 271.823 420.178 271.959C420.275 272.09 420.411 272.195 420.586 272.273C420.766 272.346 420.975 272.382 421.213 272.382C421.451 272.382 421.658 272.346 421.832 272.273C422.007 272.195 422.143 272.09 422.241 271.959C422.338 271.823 422.386 271.663 422.386 271.478C422.386 271.206 422.28 270.99 422.066 270.829C421.852 270.664 421.565 270.582 421.206 270.582C420.846 270.582 420.559 270.664 420.345 270.829C420.137 270.99 420.032 271.206 420.032 271.478ZM420.171 269.102C420.171 269.34 420.263 269.532 420.448 269.678C420.637 269.819 420.89 269.889 421.206 269.889C421.521 269.889 421.772 269.819 421.956 269.678C422.141 269.537 422.233 269.347 422.233 269.109C422.233 268.871 422.141 268.684 421.956 268.548C421.772 268.407 421.521 268.337 421.206 268.337C420.89 268.337 420.637 268.407 420.448 268.548C420.263 268.684 420.171 268.869 420.171 269.102ZM425.637 273.111C425.272 273.111 424.951 273.038 424.674 272.892C424.402 272.746 424.191 272.542 424.04 272.28C423.894 272.013 423.822 271.702 423.822 271.347H424.631C424.631 271.668 424.721 271.92 424.9 272.105C425.085 272.285 425.335 272.375 425.651 272.375C425.875 272.375 426.067 272.329 426.227 272.236C426.392 272.144 426.521 272.015 426.613 271.85C426.706 271.68 426.752 271.481 426.752 271.252C426.752 271.033 426.708 270.842 426.621 270.676C426.533 270.511 426.409 270.382 426.249 270.29C426.088 270.193 425.892 270.144 425.658 270.144C425.449 270.144 425.253 270.19 425.068 270.283C424.883 270.375 424.738 270.494 424.631 270.64L423.916 270.472L424.565 267.724H427.269V268.482H424.915L425.236 268.191L424.776 270.02L424.499 270.108C424.626 269.894 424.806 269.731 425.039 269.619C425.272 269.503 425.534 269.444 425.826 269.444C426.181 269.444 426.489 269.52 426.752 269.67C427.019 269.821 427.226 270.03 427.371 270.297C427.517 270.565 427.59 270.871 427.59 271.216C427.59 271.59 427.507 271.92 427.342 272.207C427.177 272.489 426.949 272.71 426.657 272.87C426.365 273.031 426.025 273.111 425.637 273.111ZM429.979 273.111C429.614 273.111 429.294 273.038 429.017 272.892C428.744 272.746 428.533 272.542 428.382 272.28C428.237 272.013 428.164 271.702 428.164 271.347H428.973C428.973 271.668 429.063 271.92 429.242 272.105C429.427 272.285 429.677 272.375 429.993 272.375C430.217 272.375 430.409 272.329 430.569 272.236C430.734 272.144 430.863 272.015 430.955 271.85C431.048 271.68 431.094 271.481 431.094 271.252C431.094 271.033 431.05 270.842 430.963 270.676C430.875 270.511 430.751 270.382 430.591 270.29C430.431 270.193 430.234 270.144 430.001 270.144C429.792 270.144 429.595 270.19 429.41 270.283C429.225 270.375 429.08 270.494 428.973 270.64L428.258 270.472L428.907 267.724H431.611V268.482H429.257L429.578 268.191L429.119 270.02L428.842 270.108C428.968 269.894 429.148 269.731 429.381 269.619C429.614 269.503 429.877 269.444 430.168 269.444C430.523 269.444 430.832 269.52 431.094 269.67C431.361 269.821 431.568 270.03 431.714 270.297C431.859 270.565 431.932 270.871 431.932 271.216C431.932 271.59 431.85 271.92 431.684 272.207C431.519 272.489 431.291 272.71 430.999 272.87C430.708 273.031 430.367 273.111 429.979 273.111ZM433.078 273.111C432.922 273.111 432.789 273.057 432.677 272.951C432.57 272.844 432.516 272.717 432.516 272.572C432.516 272.416 432.57 272.285 432.677 272.178C432.789 272.071 432.922 272.018 433.078 272.018C433.228 272.018 433.357 272.071 433.464 272.178C433.576 272.285 433.632 272.416 433.632 272.572C433.632 272.717 433.576 272.844 433.464 272.951C433.357 273.057 433.228 273.111 433.078 273.111ZM438.065 273.016L434.442 273.023V272.397L436.162 270.931C436.362 270.766 436.527 270.616 436.658 270.48C436.789 270.343 436.894 270.217 436.972 270.1C437.049 269.984 437.105 269.867 437.139 269.751C437.173 269.629 437.19 269.503 437.19 269.372C437.19 269.056 437.105 268.81 436.935 268.635C436.77 268.456 436.539 268.366 436.243 268.366C435.932 268.366 435.684 268.47 435.499 268.679C435.319 268.883 435.225 269.165 435.215 269.525H434.398C434.403 269.141 434.484 268.808 434.639 268.526C434.795 268.239 435.008 268.018 435.28 267.863C435.557 267.707 435.878 267.629 436.243 267.629C436.612 267.629 436.928 267.697 437.19 267.834C437.458 267.97 437.664 268.164 437.81 268.417C437.956 268.669 438.028 268.971 438.028 269.321C438.028 269.505 438.004 269.683 437.956 269.853C437.907 270.018 437.832 270.181 437.73 270.341C437.628 270.501 437.496 270.667 437.336 270.837C437.181 271.002 436.991 271.179 436.767 271.369L435.434 272.513L435.149 272.251H438.065V273.016ZM441.967 267.724V273.023H441.18V267.724H441.967ZM438.469 271.259L440.918 267.724H441.792L439.314 271.31L438.469 271.259ZM442.602 271.988H438.469V271.259H442.602V271.988ZM445.46 271.114V267.724H446.283V271.063C446.283 271.466 446.39 271.775 446.604 271.988C446.818 272.202 447.124 272.309 447.523 272.309C447.916 272.309 448.22 272.202 448.434 271.988C448.648 271.77 448.754 271.461 448.754 271.063V267.724H449.578V271.114C449.578 271.522 449.495 271.877 449.33 272.178C449.165 272.474 448.927 272.705 448.616 272.87C448.31 273.031 447.945 273.111 447.523 273.111C447.1 273.111 446.733 273.031 446.422 272.87C446.116 272.71 445.878 272.479 445.708 272.178C445.542 271.877 445.46 271.522 445.46 271.114ZM450.436 269.175C450.436 268.869 450.514 268.601 450.669 268.373C450.83 268.14 451.048 267.957 451.325 267.826C451.607 267.695 451.93 267.629 452.295 267.629C452.645 267.629 452.948 267.69 453.206 267.812C453.463 267.933 453.665 268.108 453.811 268.337C453.957 268.565 454.037 268.835 454.051 269.146H453.221C453.206 268.898 453.116 268.706 452.951 268.57C452.786 268.434 452.564 268.366 452.288 268.366C451.977 268.366 451.726 268.436 451.537 268.577C451.352 268.718 451.26 268.91 451.26 269.153C451.26 269.352 451.316 269.512 451.427 269.634C451.544 269.755 451.719 269.843 451.952 269.896L452.812 270.093C453.255 270.19 453.585 270.358 453.804 270.596C454.027 270.829 454.139 271.138 454.139 271.522C454.139 271.843 454.059 272.124 453.898 272.367C453.743 272.606 453.522 272.79 453.235 272.921C452.948 273.053 452.613 273.118 452.229 273.118C451.865 273.118 451.544 273.057 451.267 272.936C450.99 272.81 450.774 272.632 450.618 272.404C450.463 272.175 450.38 271.908 450.37 271.602H451.194C451.204 271.84 451.301 272.03 451.486 272.171C451.67 272.307 451.921 272.375 452.236 272.375C452.567 272.375 452.829 272.304 453.024 272.163C453.218 272.022 453.315 271.833 453.315 271.595C453.315 271.396 453.259 271.238 453.148 271.121C453.041 270.999 452.871 270.912 452.637 270.859L451.785 270.669C451.342 270.572 451.007 270.399 450.779 270.152C450.55 269.899 450.436 269.573 450.436 269.175ZM456.829 273.023H455.006V267.724H456.792C457.317 267.724 457.779 267.836 458.177 268.06C458.576 268.283 458.884 268.594 459.103 268.993C459.326 269.391 459.438 269.855 459.438 270.385C459.438 270.905 459.329 271.364 459.11 271.762C458.891 272.156 458.585 272.465 458.192 272.688C457.803 272.912 457.349 273.023 456.829 273.023ZM455.83 268.103V272.652L455.436 272.265H456.763C457.137 272.265 457.458 272.19 457.725 272.039C457.997 271.884 458.206 271.665 458.352 271.383C458.503 271.102 458.578 270.769 458.578 270.385C458.578 269.991 458.503 269.653 458.352 269.372C458.201 269.085 457.988 268.866 457.711 268.716C457.438 268.56 457.11 268.482 456.726 268.482H455.436L455.83 268.103Z" fill="#ACB2B5"/>
<rect x="206.775" y="241.479" width="263.867" height="38.6325" rx="6.19578" stroke="white" stroke-opacity="0.12" stroke-width="0.728916"/>
<rect x="86.8672" y="309.632" width="121" height="8.01807" rx="4.00904" fill="#DAFFEE" fill-opacity="0.06"/>
<rect x="424.355" y="309.632" width="63.4157" height="8.01807" rx="4.00904" fill="#4CF3A8" fill-opacity="0.12"/>
<line x1="86.8672" y1="325.486" x2="487.771" y2="325.486" stroke="white" stroke-opacity="0.12" stroke-width="0.364458"/>
<rect x="86.8672" y="333.687" width="61.2289" height="8.01807" rx="4.00904" fill="#DAFFEE" fill-opacity="0.06"/>
<rect x="447.68" y="333.687" width="40.0904" height="8.01807" rx="4.00904" fill="#4CF3A8" fill-opacity="0.12"/>
<line x1="86.8672" y1="349.54" x2="487.771" y2="349.54" stroke="white" stroke-opacity="0.12" stroke-width="0.364458"/>
<rect x="86.8672" y="357.741" width="91.8434" height="8.01807" rx="4.00904" fill="#DAFFEE" fill-opacity="0.06"/>
<rect x="424.355" y="357.741" width="63.4157" height="8.01807" rx="4.00904" fill="#4CF3A8" fill-opacity="0.12"/>
<line x1="86.8672" y1="373.595" x2="487.771" y2="373.595" stroke="white" stroke-opacity="0.12" stroke-width="0.364458"/>
<rect x="86.8672" y="381.795" width="150.886" height="8.01807" rx="4.00904" fill="#DAFFEE" fill-opacity="0.06"/>
<rect x="399.572" y="381.795" width="88.1988" height="8.01807" rx="4.00904" fill="#4CF3A8" fill-opacity="0.12"/>
<line x1="86.8672" y1="397.649" x2="487.771" y2="397.649" stroke="white" stroke-opacity="0.12" stroke-width="0.364458"/>
<rect x="86.8672" y="405.85" width="56.1265" height="8.01807" rx="4.00904" fill="#DAFFEE" fill-opacity="0.06"/>
<rect x="450.596" y="405.85" width="37.1747" height="8.01807" rx="4.00904" fill="#4CF3A8" fill-opacity="0.12"/>
<circle cx="474.651" cy="36.3442" r="14.8232" fill="white" fill-opacity="0.06"/>
<path d="M481.983 32.9879H480.121C479.974 32.4838 479.667 32.0412 479.246 31.7263C478.825 31.4114 478.314 31.2412 477.789 31.2412C477.263 31.2412 476.752 31.4114 476.331 31.7263C475.911 32.0412 475.604 32.4838 475.456 32.9879H466.603C466.418 32.9879 466.24 33.0615 466.109 33.1925C465.978 33.3236 465.904 33.5013 465.904 33.6865C465.904 33.8718 465.978 34.0495 466.109 34.1805C466.24 34.3116 466.418 34.3852 466.603 34.3852H475.456C475.604 34.8892 475.911 35.3319 476.331 35.6468C476.752 35.9617 477.263 36.1319 477.789 36.1319C478.314 36.1319 478.825 35.9617 479.246 35.6468C479.667 35.3319 479.974 34.8892 480.121 34.3852H481.983C482.168 34.3852 482.346 34.3116 482.477 34.1805C482.608 34.0495 482.682 33.8718 482.682 33.6865C482.682 33.5013 482.608 33.3236 482.477 33.1925C482.346 33.0615 482.168 32.9879 481.983 32.9879V32.9879ZM477.789 34.7348C477.581 34.7348 477.379 34.6733 477.206 34.5581C477.034 34.4429 476.899 34.2792 476.82 34.0877C476.741 33.8961 476.72 33.6854 476.76 33.482C476.801 33.2787 476.901 33.0919 477.047 32.9453C477.194 32.7987 477.381 32.6989 477.584 32.6584C477.788 32.618 477.998 32.6387 478.19 32.7181C478.382 32.7974 478.545 32.9318 478.661 33.1042C478.776 33.2765 478.837 33.4792 478.837 33.6865C478.837 33.9645 478.726 34.2309 478.53 34.4274C478.333 34.6239 478.067 34.7345 477.789 34.7348V34.7348Z" fill="#9EA9B1"/>
<path d="M481.982 38.5778H473.129C472.981 38.0737 472.674 37.631 472.254 37.3161C471.833 37.0012 471.322 36.8311 470.796 36.8311C470.271 36.8311 469.76 37.0012 469.339 37.3161C468.919 37.631 468.611 38.0737 468.464 38.5778H466.602C466.42 38.5833 466.248 38.6593 466.121 38.7898C465.995 38.9203 465.924 39.0949 465.924 39.2767C465.924 39.4585 465.995 39.6331 466.121 39.7636C466.248 39.8941 466.42 39.9701 466.602 39.9756H468.464C468.611 40.4797 468.919 40.9223 469.339 41.2372C469.76 41.5521 470.271 41.7223 470.796 41.7223C471.322 41.7223 471.833 41.5521 472.254 41.2372C472.674 40.9223 472.981 40.4797 473.129 39.9756H481.982C482.164 39.9701 482.336 39.8941 482.463 39.7636C482.589 39.6331 482.66 39.4585 482.66 39.2767C482.66 39.0949 482.589 38.9203 482.463 38.7898C482.336 38.6593 482.164 38.5833 481.982 38.5778V38.5778ZM470.796 40.3253C470.589 40.3253 470.386 40.2638 470.214 40.1486C470.041 40.0334 469.907 39.8697 469.828 39.6782C469.748 39.4866 469.728 39.2759 469.768 39.0725C469.808 38.8692 469.908 38.6824 470.055 38.5358C470.202 38.3892 470.388 38.2893 470.592 38.2489C470.795 38.2085 471.006 38.2292 471.198 38.3085C471.389 38.3879 471.553 38.5222 471.668 38.6946C471.784 38.867 471.845 39.0697 471.845 39.277C471.845 39.5549 471.734 39.8214 471.538 40.0179C471.341 40.2144 471.074 40.3249 470.796 40.3253V40.3253Z" fill="#9EA9B1"/>
</g>
<rect x="65.4481" y="5.44815" width="443.742" height="483.104" rx="17.4778" stroke="white" stroke-opacity="0.06" stroke-width="0.896296"/>
</g>
<defs>
<filter id="filter0_d_620_5157" x="0.77037" y="0.77037" width="527.098" height="566.459" filterUnits="userSpaceOnUse" color-interpolation-filters="sRGB">
<feFlood flood-opacity="0" result="BackgroundImageFix"/>
<feColorMatrix in="SourceAlpha" type="matrix" values="0 0 0 0 0 0 0 0 0 0 0 0 0 0 0 0 0 0 127 0" result="hardAlpha"/>
<feOffset dx="-23" dy="37"/>
<feGaussianBlur stdDeviation="20.6148"/>
<feComposite in2="hardAlpha" operator="out"/>
<feColorMatrix type="matrix" values="0 0 0 0 0 0 0 0 0 0 0 0 0 0 0 0 0 0 0.26 0"/>
<feBlend mode="normal" in2="BackgroundImageFix" result="effect1_dropShadow_620_5157"/>
<feBlend mode="normal" in="SourceGraphic" in2="effect1_dropShadow_620_5157" result="shape"/>
</filter>
<linearGradient id="paint0_linear_620_5157" x1="287.319" y1="5" x2="287.319" y2="489" gradientUnits="userSpaceOnUse">
<stop stop-color="#1C2527"/>
<stop offset="0.8073" stop-color="#14161A"/>
<stop offset="1" stop-color="#121316"/>
</linearGradient>
<linearGradient id="paint1_linear_620_5157" x1="91.074" y1="9.70167" x2="224.8" y2="9.70167" gradientUnits="userSpaceOnUse">
<stop stop-color="#FFCE4F"/>
<stop offset="1" stop-color="#4FFFB0"/>
</linearGradient>
<linearGradient id="paint2_linear_620_5157" x1="91.074" y1="9.70167" x2="224.8" y2="9.70167" gradientUnits="userSpaceOnUse">
<stop stop-color="#4FFFB0"/>
<stop offset="0.505223" stop-color="#A2FF76"/>
<stop offset="1" stop-color="#FF984E"/>
</linearGradient>
<linearGradient id="paint3_linear_620_5157" x1="91.074" y1="9.70167" x2="224.8" y2="9.70167" gradientUnits="userSpaceOnUse">
<stop stop-color="#4FFFB0"/>
<stop offset="0.463556" stop-color="#B3FF8F"/>
<stop offset="1" stop-color="#FF984E"/>
</linearGradient>
<linearGradient id="paint4_linear_620_5157" x1="149.634" y1="265.293" x2="127.405" y2="239.284" gradientUnits="userSpaceOnUse">
<stop stop-color="#E40C5B"/>
<stop offset="1" stop-color="#FF4C3B"/>
</linearGradient>
<clipPath id="clip0_620_5157">
<rect x="65" y="5" width="444.639" height="484" rx="17.9259" fill="white"/>
</clipPath>
<clipPath id="clip1_620_5157">
<rect width="29" height="11" fill="white" transform="translate(139.35 125.603)"/>
</clipPath>
<clipPath id="clip2_620_5157">
<rect x="105.82" y="246.216" width="29.1566" height="29.1566" rx="14.5783" fill="white"/>
</clipPath>
<clipPath id="clip3_620_5157">
<rect width="27" height="11" fill="white" transform="translate(139.35 262.191)"/>
</clipPath>
</defs>
</svg>
