<svg width="548" height="496" viewBox="0 0 548 496" fill="none" xmlns="http://www.w3.org/2000/svg">
<g clip-path="url(#clip0_732_15099)">
<rect x="0.5" width="547" height="496" rx="35" fill="#1D2325"/>
<rect x="0.5" width="547" height="496" rx="35" fill="url(#paint0_linear_732_15099)" fill-opacity="0.2"/>
<rect x="0.5" width="547" height="496" rx="35" fill="url(#paint1_linear_732_15099)"/>
<mask id="mask0_732_15099" style="mask-type:alpha" maskUnits="userSpaceOnUse" x="-225" y="-96" width="915" height="664">
<rect x="-224.5" y="-96" width="914" height="664" fill="url(#paint2_linear_732_15099)"/>
</mask>
<g mask="url(#mask0_732_15099)">
<g filter="url(#filter0_d_732_15099)">
<rect x="61.5" y="61" width="607" height="463.157" rx="17.9259" fill="url(#paint3_linear_732_15099)" shape-rendering="crispEdges"/>
<path d="M102.146 274.755C102.146 272.922 100.872 271.726 99.117 271.726C97.31 271.726 96.101 272.909 96.101 274.755V278.408H105.5V277.134H102.146V274.755ZM97.245 274.976C97.245 273.78 97.921 273.065 99.104 273.065C100.261 273.065 101.002 273.767 101.002 275.028V277.134H97.245V274.976ZM99.091 266.351C99.039 266.598 99.013 266.78 99.013 267.001C99.013 267.872 99.455 268.509 100.118 268.769L99.156 268.847V269.991H105.5V268.769H102.133C100.911 268.769 100.209 268.054 100.209 266.897V266.351H99.091ZM97.635 264.107C97.635 263.665 97.271 263.301 96.829 263.301C96.374 263.301 96.023 263.665 96.023 264.107C96.023 264.549 96.374 264.913 96.829 264.913C97.271 264.913 97.635 264.549 97.635 264.107ZM105.5 264.705V263.483H99.143V264.705H105.5ZM102.328 261.625C104.33 261.625 105.656 260.39 105.656 258.518C105.656 256.984 104.733 255.801 103.355 255.554V256.776C104.109 256.997 104.564 257.647 104.564 258.518C104.564 259.675 103.68 260.416 102.315 260.416C100.937 260.416 100.053 259.623 100.053 258.466C100.053 257.647 100.482 256.997 101.288 256.789V255.567C99.871 255.788 98.961 256.906 98.961 258.505C98.961 260.364 100.339 261.625 102.328 261.625ZM105.656 251.021C105.656 249.448 104.889 248.382 103.524 248.07V249.214C104.252 249.422 104.642 250.046 104.642 250.995C104.642 252.204 103.901 252.906 102.562 252.997L102.549 248.083H102.094C100.209 248.083 98.961 249.266 98.961 251.073C98.961 252.919 100.339 254.18 102.328 254.18C104.304 254.18 105.656 252.893 105.656 251.021ZM99.988 251.073C99.988 249.994 100.69 249.305 101.743 249.305V252.971C100.625 252.815 99.988 252.139 99.988 251.073ZM97.635 241.566C97.635 241.124 97.271 240.76 96.829 240.76C96.374 240.76 96.023 241.124 96.023 241.566C96.023 242.008 96.374 242.372 96.829 242.372C97.271 242.372 97.635 242.008 97.635 241.566ZM105.5 242.164V240.942H99.143V242.164H105.5ZM105.5 237.446H102.133C100.898 237.446 100.079 236.783 100.079 235.639C100.079 234.703 100.599 234.105 101.886 234.105H105.5V232.883H101.613C99.988 232.883 98.961 233.65 98.961 235.327C98.961 236.224 99.39 237.03 100.118 237.433L99.143 237.563V238.668H105.5V237.446ZM102.159 226.493C104.33 226.493 105.656 225.115 105.656 222.892C105.656 220.682 104.317 219.304 102.159 219.304H96.101V220.591H102.081C103.576 220.591 104.421 221.41 104.421 222.892C104.421 224.387 103.589 225.219 102.081 225.219H96.101V226.493H102.159ZM98.636 217.231C99.988 217.231 100.872 216.438 101.223 214.904L101.574 213.357C101.782 212.46 102.25 212.057 102.991 212.057C103.927 212.057 104.512 212.85 104.512 214.098C104.512 215.281 103.94 216.035 103.043 216.061V217.361C104.655 217.283 105.656 216.009 105.656 214.098C105.656 212.096 104.577 210.783 102.887 210.783C101.561 210.783 100.729 211.563 100.378 213.097L100.014 214.644C99.806 215.528 99.351 215.957 98.597 215.957C97.674 215.957 97.076 215.19 97.076 214.007C97.076 212.954 97.622 212.291 98.558 212.226V210.939C96.933 211.043 95.932 212.2 95.932 213.994C95.932 215.931 97.024 217.231 98.636 217.231ZM105.5 205.575C105.5 202.793 103.602 200.921 100.807 200.921C97.999 200.921 96.101 202.819 96.101 205.627V208.682H105.5V205.575ZM97.271 205.718C97.271 203.573 98.623 202.247 100.807 202.247C102.965 202.247 104.317 203.573 104.317 205.666V207.408H97.271V205.718Z" fill="#F0DA73"/>
<rect x="174.5" y="140.25" width="1" height="177" fill="white" fill-opacity="0.12"/>
<rect x="261.5" y="140.25" width="1" height="177" fill="white" fill-opacity="0.12"/>
<rect x="348.5" y="140.25" width="1" height="177" fill="white" fill-opacity="0.12"/>
<rect x="435.5" y="140.25" width="1" height="177" fill="white" fill-opacity="0.12"/>
<rect x="522.5" y="140.25" width="1" height="177" fill="white" fill-opacity="0.12"/>
<rect x="157.5" y="272" width="1" height="481" transform="rotate(-90 157.5 272)" fill="white" fill-opacity="0.12"/>
<rect x="157.5" y="230" width="1" height="481" transform="rotate(-90 157.5 230)" fill="white" fill-opacity="0.12"/>
<rect x="157.5" y="188" width="1" height="481" transform="rotate(-90 157.5 188)" fill="white" fill-opacity="0.12"/>
<path d="M171.137 335.307C171.137 338.232 172.58 340.169 175.011 340.169C177.429 340.169 178.872 338.232 178.872 335.307C178.872 332.395 177.364 330.419 175.011 330.419C172.645 330.419 171.137 332.395 171.137 335.307ZM172.398 335.307C172.398 332.967 173.36 331.563 175.011 331.563C176.662 331.563 177.611 332.967 177.611 335.307C177.611 337.621 176.662 339.025 175.011 339.025C173.36 339.025 172.398 337.621 172.398 335.307Z" fill="white"/>
<path d="M260.296 340.156C262.324 340.156 263.715 338.791 263.715 336.841C263.715 335.034 262.48 333.695 260.569 333.695C259.867 333.695 259.243 333.89 258.749 334.267L259.373 331.771H263.156V330.601H258.45L257.306 335.424L258.385 335.697C258.814 335.164 259.542 334.787 260.335 334.787C261.648 334.787 262.415 335.684 262.415 336.893C262.415 338.167 261.596 339.012 260.322 339.012C259.126 339.012 258.385 338.271 258.385 337.062H257.124C257.124 338.934 258.372 340.156 260.296 340.156Z" fill="white"/>
<path d="M342.931 331.745V340H344.153V330.601H340.955V331.745H342.931ZM346.372 335.307C346.372 338.232 347.815 340.169 350.246 340.169C352.664 340.169 354.107 338.232 354.107 335.307C354.107 332.395 352.599 330.419 350.246 330.419C347.88 330.419 346.372 332.395 346.372 335.307ZM347.633 335.307C347.633 332.967 348.595 331.563 350.246 331.563C351.897 331.563 352.846 332.967 352.846 335.307C352.846 337.621 351.897 339.025 350.246 339.025C348.595 339.025 347.633 337.621 347.633 335.307Z" fill="white"/>
<path d="M433.931 331.745V340H435.153V330.601H431.955V331.745H433.931ZM440.481 340.156C442.509 340.156 443.9 338.791 443.9 336.841C443.9 335.034 442.665 333.695 440.754 333.695C440.052 333.695 439.428 333.89 438.934 334.267L439.558 331.771H443.341V330.601H438.635L437.491 335.424L438.57 335.697C438.999 335.164 439.727 334.787 440.52 334.787C441.833 334.787 442.6 335.684 442.6 336.893C442.6 338.167 441.781 339.012 440.507 339.012C439.311 339.012 438.57 338.271 438.57 337.062H437.309C437.309 338.934 438.557 340.156 440.481 340.156Z" fill="white"/>
<path d="M527.442 339.987V338.804H523.1L525.05 337.114C526.714 335.671 527.377 334.722 527.377 333.383C527.377 331.576 526.168 330.432 524.283 330.432C522.372 330.432 521.098 331.745 521.059 333.76H522.333C522.359 332.421 523.113 331.576 524.27 331.576C525.401 331.576 526.077 332.278 526.077 333.461C526.077 334.462 525.648 335.099 524.127 336.412L521.098 339.025V340L527.442 339.987ZM529.115 335.307C529.115 338.232 530.558 340.169 532.989 340.169C535.407 340.169 536.85 338.232 536.85 335.307C536.85 332.395 535.342 330.419 532.989 330.419C530.623 330.419 529.115 332.395 529.115 335.307ZM530.376 335.307C530.376 332.967 531.338 331.563 532.989 331.563C534.64 331.563 535.589 332.967 535.589 335.307C535.589 337.621 534.64 339.025 532.989 339.025C531.338 339.025 530.376 337.621 530.376 335.307Z" fill="white"/>
<path d="M336.699 360.25C339.481 360.25 341.353 358.352 341.353 355.557C341.353 352.749 339.455 350.851 336.647 350.851H333.592V360.25H336.699ZM336.556 352.021C338.701 352.021 340.027 353.373 340.027 355.557C340.027 357.715 338.701 359.067 336.608 359.067H334.866V352.021H336.556ZM345.125 360.406C346.152 360.406 347.023 359.951 347.348 359.223L347.478 360.25H348.518V356.259C348.518 354.543 347.452 353.711 345.879 353.711C344.241 353.711 343.149 354.582 343.149 355.908H344.215C344.215 355.141 344.8 354.686 345.827 354.686C346.685 354.686 347.322 355.063 347.322 356.129V356.311L345.32 356.467C343.825 356.584 342.954 357.312 342.954 358.482C342.954 359.639 343.76 360.406 345.125 360.406ZM345.476 359.457C344.683 359.457 344.189 359.119 344.189 358.443C344.189 357.819 344.631 357.403 345.71 357.299L347.335 357.169V357.507C347.335 358.703 346.633 359.457 345.476 359.457ZM349.947 363.097C350.272 363.175 350.61 363.227 351.013 363.227C351.988 363.227 352.625 362.772 353.054 361.68L356.057 353.893H354.796L352.911 359.015L351.065 353.893H349.778L352.339 360.588L352.118 361.199C351.819 362.005 351.351 362.096 350.766 362.096H349.947V363.097ZM356.924 358.404C356.924 359.613 357.873 360.406 359.368 360.406C360.876 360.406 361.916 359.639 361.916 358.43C361.916 357.481 361.383 356.987 360.304 356.727L359.186 356.454C358.562 356.298 358.25 356.012 358.25 355.583C358.25 354.998 358.679 354.66 359.446 354.66C360.187 354.66 360.616 355.063 360.642 355.7H361.812C361.786 354.491 360.876 353.711 359.485 353.711C358.081 353.711 357.093 354.452 357.093 355.622C357.093 356.558 357.626 357.117 358.757 357.39L359.875 357.65C360.538 357.819 360.746 358.079 360.746 358.508C360.746 359.093 360.252 359.444 359.394 359.444C358.588 359.444 358.094 359.054 358.094 358.404H356.924Z" fill="#F0DA73"/>
<path d="M132.931 142.745V151H134.153V141.601H130.955V142.745H132.931ZM137.529 151.156C138.023 151.156 138.452 150.74 138.452 150.246C138.452 149.739 138.023 149.323 137.529 149.323C137.022 149.323 136.593 149.739 136.593 150.246C136.593 150.74 137.022 151.156 137.529 151.156ZM139.932 146.307C139.932 149.232 141.375 151.169 143.806 151.169C146.224 151.169 147.667 149.232 147.667 146.307C147.667 143.395 146.159 141.419 143.806 141.419C141.44 141.419 139.932 143.395 139.932 146.307ZM141.193 146.307C141.193 143.967 142.155 142.563 143.806 142.563C145.457 142.563 146.406 143.967 146.406 146.307C146.406 148.621 145.457 150.025 143.806 150.025C142.155 150.025 141.193 148.621 141.193 146.307Z" fill="white"/>
<path d="M127.137 188.557C127.137 191.482 128.58 193.419 131.011 193.419C133.429 193.419 134.872 191.482 134.872 188.557C134.872 185.645 133.364 183.669 131.011 183.669C128.645 183.669 127.137 185.645 127.137 188.557ZM128.398 188.557C128.398 186.217 129.36 184.813 131.011 184.813C132.662 184.813 133.611 186.217 133.611 188.557C133.611 190.871 132.662 192.275 131.011 192.275C129.36 192.275 128.398 190.871 128.398 188.557ZM137.274 193.406C137.768 193.406 138.197 192.99 138.197 192.496C138.197 191.989 137.768 191.573 137.274 191.573C136.767 191.573 136.338 191.989 136.338 192.496C136.338 192.99 136.767 193.406 137.274 193.406ZM140.045 190.637C140.045 192.301 141.41 193.406 143.503 193.406C145.583 193.406 146.961 192.301 146.961 190.65C146.961 189.493 146.285 188.557 145.232 188.219C146.116 187.868 146.61 187.127 146.61 186.165C146.61 184.683 145.362 183.682 143.516 183.682C141.644 183.682 140.383 184.683 140.383 186.152C140.383 187.101 140.864 187.842 141.748 188.219C140.708 188.596 140.045 189.506 140.045 190.637ZM141.553 186.23C141.553 185.359 142.32 184.787 143.49 184.787C144.673 184.787 145.414 185.359 145.414 186.256C145.414 187.166 144.673 187.751 143.49 187.751C142.32 187.751 141.553 187.153 141.553 186.23ZM141.293 190.546C141.293 189.506 142.151 188.843 143.49 188.843C144.842 188.843 145.7 189.506 145.7 190.546C145.7 191.599 144.829 192.275 143.503 192.275C142.164 192.275 141.293 191.599 141.293 190.546Z" fill="white"/>
<path d="M128.137 230.807C128.137 233.732 129.58 235.669 132.011 235.669C134.429 235.669 135.872 233.732 135.872 230.807C135.872 227.895 134.364 225.919 132.011 225.919C129.645 225.919 128.137 227.895 128.137 230.807ZM129.398 230.807C129.398 228.467 130.36 227.063 132.011 227.063C133.662 227.063 134.611 228.467 134.611 230.807C134.611 233.121 133.662 234.525 132.011 234.525C130.36 234.525 129.398 233.121 129.398 230.807ZM138.274 235.656C138.768 235.656 139.197 235.24 139.197 234.746C139.197 234.239 138.768 233.823 138.274 233.823C137.767 233.823 137.338 234.239 137.338 234.746C137.338 235.24 137.767 235.656 138.274 235.656ZM142.013 229.078C141.051 230.391 140.713 231.171 140.713 232.289C140.713 234.187 142.221 235.656 144.171 235.656C146.108 235.656 147.59 234.252 147.59 232.289C147.59 230.43 146.277 229.026 144.327 229.026C144.002 229.026 143.664 229.091 143.339 229.221L145.692 226.101H144.21L142.013 229.078ZM142.013 232.302C142.013 231.015 142.897 230.105 144.171 230.105C145.419 230.105 146.303 231.015 146.303 232.302C146.303 233.589 145.419 234.512 144.171 234.512C142.897 234.512 142.013 233.589 142.013 232.302Z" fill="white"/>
<path d="M127.137 273.057C127.137 275.982 128.58 277.919 131.011 277.919C133.429 277.919 134.872 275.982 134.872 273.057C134.872 270.145 133.364 268.169 131.011 268.169C128.645 268.169 127.137 270.145 127.137 273.057ZM128.398 273.057C128.398 270.717 129.36 269.313 131.011 269.313C132.662 269.313 133.611 270.717 133.611 273.057C133.611 275.371 132.662 276.775 131.011 276.775C129.36 276.775 128.398 275.371 128.398 273.057ZM137.274 277.906C137.768 277.906 138.197 277.49 138.197 276.996C138.197 276.489 137.768 276.073 137.274 276.073C136.767 276.073 136.338 276.489 136.338 276.996C136.338 277.49 136.767 277.906 137.274 277.906ZM147.001 275.852V274.721H145.883V268.351H144.232L139.799 274.721V275.852H144.661V277.75H145.883V275.852H147.001ZM141.177 274.721L144.661 269.703V274.721H141.177Z" fill="white"/>
<path d="M128.137 315.307C128.137 318.232 129.58 320.169 132.011 320.169C134.429 320.169 135.872 318.232 135.872 315.307C135.872 312.395 134.364 310.419 132.011 310.419C129.645 310.419 128.137 312.395 128.137 315.307ZM129.398 315.307C129.398 312.967 130.36 311.563 132.011 311.563C133.662 311.563 134.611 312.967 134.611 315.307C134.611 317.621 133.662 319.025 132.011 319.025C130.36 319.025 129.398 317.621 129.398 315.307ZM138.274 320.156C138.768 320.156 139.197 319.74 139.197 319.246C139.197 318.739 138.768 318.323 138.274 318.323C137.767 318.323 137.338 318.739 137.338 319.246C137.338 319.74 137.767 320.156 138.274 320.156ZM147.515 319.987V318.804H143.173L145.123 317.114C146.787 315.671 147.45 314.722 147.45 313.383C147.45 311.576 146.241 310.432 144.356 310.432C142.445 310.432 141.171 311.745 141.132 313.76H142.406C142.432 312.421 143.186 311.576 144.343 311.576C145.474 311.576 146.15 312.278 146.15 313.461C146.15 314.462 145.721 315.099 144.2 316.412L141.171 319.025V320L147.515 319.987Z" fill="white"/>
<path d="M162.352 272.435L163.921 279.862C164.134 280.87 164.961 281.634 165.983 281.767V281.767C166.128 281.786 166.275 281.791 166.422 281.784L166.547 281.777C167.541 281.726 168.5 282.147 169.134 282.914L169.452 283.3C169.833 283.76 170.395 284.032 170.992 284.045V284.045C171.614 284.058 172.209 283.787 172.609 283.31L172.85 283.022C173.44 282.317 174.478 282.196 175.214 282.747V282.747C175.604 283.039 176.099 283.153 176.578 283.061L177.443 282.894C177.648 282.855 177.857 282.834 178.065 282.83L178.963 282.816C179.417 282.809 179.846 282.609 180.143 282.265L180.494 281.858C181.036 281.23 182.036 281.323 182.454 282.041V282.041C182.926 282.853 184.103 282.839 184.557 282.017L185.452 280.395L186.914 276.688C187.219 275.914 187.674 275.207 188.253 274.609V274.609C188.942 273.897 189.455 273.032 189.749 272.085L190.848 268.543C191.097 267.741 191.521 267.004 192.088 266.385V266.385C192.784 265.626 193.261 264.692 193.468 263.684L195.077 255.845L196.129 252.592C196.704 250.815 197.658 249.185 198.927 247.815V247.815V247.815C199.897 246.968 201.407 247.274 201.971 248.432L202.667 249.86C202.74 250.01 202.824 250.154 202.92 250.29L203.862 251.635C204.363 252.351 205.267 252.665 206.104 252.413L206.2 252.384C206.479 252.3 206.732 252.143 206.931 251.929V251.929C207.717 251.088 209.1 251.287 209.617 252.316L209.719 252.519C210.143 253.361 211.154 253.719 212.013 253.331V253.331C212.268 253.215 212.548 253.163 212.828 253.177L213.817 253.229C214.151 253.246 214.477 253.345 214.765 253.517L214.953 253.63C215.704 254.078 216.668 253.921 217.237 253.258L217.536 252.911C217.91 252.475 218.537 252.358 219.044 252.629V252.629C219.632 252.944 220.363 252.731 220.69 252.15L222.027 249.775L223.419 246.657C223.749 245.919 224.445 245.411 225.249 245.324L225.372 245.31C225.702 245.274 226.036 245.329 226.338 245.468L226.965 245.758C227.443 245.979 228.011 245.81 228.29 245.364V245.364C228.797 244.553 230.036 244.792 230.205 245.733L231.563 253.311C231.621 253.636 231.757 253.941 231.959 254.202V254.202C232.778 255.256 234.371 255.253 235.186 254.195L235.281 254.072C235.427 253.882 235.541 253.669 235.617 253.442L237.427 248.055L238.061 246.371C238.529 245.128 240.274 245.087 240.8 246.308V246.308C241.077 246.952 241.77 247.313 242.457 247.17L242.569 247.147C242.975 247.062 243.333 246.825 243.569 246.484L245.127 244.235V244.235C245.986 243.016 247.846 243.185 248.484 244.534V244.534C248.787 245.175 249.415 245.605 250.122 245.653L250.441 245.674C250.746 245.695 251.051 245.659 251.343 245.57L252.05 245.353C252.537 245.204 252.923 244.829 253.086 244.345L253.629 242.73C253.966 241.731 255.394 241.774 255.669 242.792V242.792C255.951 243.837 257.431 243.845 257.724 242.803L258.432 240.288C258.539 239.908 258.816 239.599 259.183 239.453V239.453C259.895 239.168 260.695 239.575 260.884 240.318L260.993 240.743C261.406 242.364 263.688 242.417 264.177 240.817L264.377 240.165L265.984 235.657C266.175 235.12 266.678 234.757 267.248 234.746V234.746C267.834 234.733 268.347 234.351 268.526 233.794L269.979 229.281C270.093 228.928 270.281 228.603 270.531 228.329L271.085 227.722C271.651 227.102 272.591 227.001 273.275 227.488V227.488C273.729 227.811 274.314 227.885 274.834 227.685L275.13 227.572C275.608 227.388 276.15 227.524 276.484 227.911V227.911C277.094 228.617 278.238 228.401 278.548 227.522L279.689 224.293C279.747 224.129 279.829 223.974 279.932 223.833V223.833C280.731 222.741 282.407 222.899 282.988 224.121L283.083 224.322C283.408 225.006 284.132 225.407 284.884 225.321V225.321C285.314 225.272 285.711 225.068 286.001 224.746L286.646 224.029C287.189 223.425 287.55 222.681 287.689 221.881L289.274 212.762C289.352 212.313 289.684 211.95 290.125 211.834V211.834C290.776 211.661 291.437 212.074 291.568 212.735L292.949 219.701C293.072 220.318 293.851 220.521 294.259 220.043V220.043C294.65 219.584 295.394 219.748 295.555 220.329L296.364 223.239C296.634 224.213 297.95 224.37 298.442 223.486L298.568 223.259C298.817 222.812 299.39 222.668 299.821 222.943V222.943C300.357 223.285 301.068 222.969 301.173 222.342L302.877 212.175L304.802 204.625L306.232 198.087C306.438 197.146 307.624 196.837 308.263 197.557V197.557C308.508 197.833 308.868 197.978 309.235 197.95L309.343 197.941C310.047 197.886 310.681 198.366 310.819 199.059L312.451 207.242C312.485 207.41 312.538 207.574 312.611 207.728L313.54 209.701C313.903 210.473 314.994 210.495 315.388 209.737V209.737C315.782 208.979 316.875 209.002 317.237 209.776L317.434 210.196C317.826 211.033 318.955 211.177 319.545 210.466L320 209.919C320.133 209.758 320.233 209.572 320.293 209.372V209.372C320.768 207.808 323.021 207.923 323.333 209.528L323.592 210.861C323.789 211.876 325.035 212.265 325.774 211.543V211.543C325.908 211.413 326.011 211.255 326.078 211.082L327.902 206.365V206.365C328.606 205.099 330.491 205.326 330.875 206.723L331.41 208.67C331.624 209.449 332.209 210.072 332.973 210.334L333.168 210.401C333.504 210.516 333.815 210.694 334.086 210.924L335.602 212.215L336.14 212.766C336.999 213.645 338.259 214.002 339.452 213.705V213.705V213.705C340.559 213.55 341.615 214.225 341.937 215.296L343.302 219.825L344.539 224.205C344.801 225.129 346.039 225.297 346.538 224.476V224.476C346.869 223.93 347.595 223.781 348.115 224.151L348.56 224.467C348.892 224.704 349.122 225.057 349.203 225.457L350.725 232.955C350.905 233.84 351.355 234.647 352.013 235.266L352.436 235.664C352.757 235.965 353.155 236.17 353.587 236.256V236.256C354.374 236.411 355.027 236.959 355.317 237.707L356.236 240.08C356.485 240.723 357.323 240.882 357.79 240.375V240.375C358.231 239.896 359.014 240.006 359.307 240.587L359.401 240.773C359.84 241.644 361.119 241.528 361.394 240.592L362.38 237.23C362.493 236.846 362.697 236.495 362.976 236.208L364.31 234.837C364.42 234.723 364.51 234.592 364.576 234.448V234.448C365.136 233.219 366.945 233.445 367.186 234.774L367.506 236.538C367.751 237.889 369.601 238.099 370.143 236.838V236.838C370.215 236.671 370.318 236.52 370.448 236.393L372.177 234.705" stroke="url(#paint4_linear_732_15099)" stroke-width="1.5" stroke-linecap="round" stroke-linejoin="round"/>
<path d="M375.694 234.976C379.343 252.091 403.498 281.5 449.999 293.5C496.499 305.5 550.5 304.5 550.5 304.5" stroke="#B8FFDF" stroke-linecap="square" stroke-dasharray="2 2"/>
<path d="M95.42 88.46V103H93.16V88.46H95.42ZM98.86 97.9H94.88V95.88H98.38C99.3 95.88 100 95.64 100.48 95.16C100.973 94.6667 101.22 93.9933 101.22 93.14C101.22 92.2867 100.973 91.6333 100.48 91.18C100 90.7133 99.3133 90.48 98.42 90.48H94.54V88.46H98.86C99.82 88.46 100.653 88.66 101.36 89.06C102.067 89.4467 102.613 89.9933 103 90.7C103.4 91.4067 103.6 92.2267 103.6 93.16C103.6 94.08 103.4 94.9 103 95.62C102.613 96.3267 102.067 96.8867 101.36 97.3C100.653 97.7 99.82 97.9 98.86 97.9ZM111.337 93.12V95.1H110.477C109.583 95.1 108.877 95.3467 108.357 95.84C107.85 96.3333 107.597 97.06 107.597 98.02V103H105.457V93.18H107.477L107.657 95.2H107.457C107.59 94.5467 107.903 94.0133 108.397 93.6C108.89 93.1867 109.53 92.98 110.317 92.98C110.477 92.98 110.637 92.9933 110.797 93.02C110.97 93.0333 111.15 93.0667 111.337 93.12ZM113.054 103V93.18H115.194V103H113.054ZM114.114 91.02C113.741 91.02 113.421 90.8867 113.154 90.62C112.888 90.3533 112.754 90.0333 112.754 89.66C112.754 89.2867 112.888 88.9667 113.154 88.7C113.421 88.4333 113.741 88.3 114.114 88.3C114.488 88.3 114.808 88.4333 115.074 88.7C115.341 88.9667 115.474 89.2867 115.474 89.66C115.474 90.0333 115.341 90.3533 115.074 90.62C114.808 90.8867 114.488 91.02 114.114 91.02ZM117.22 98.08C117.22 97.0533 117.426 96.1533 117.84 95.38C118.253 94.6067 118.82 94 119.54 93.56C120.273 93.1067 121.126 92.88 122.1 92.88C123.38 92.88 124.44 93.22 125.28 93.9C126.12 94.5667 126.613 95.4733 126.76 96.62H124.58C124.433 96.02 124.146 95.5733 123.72 95.28C123.293 94.9733 122.773 94.82 122.16 94.82C121.613 94.82 121.126 94.9533 120.7 95.22C120.286 95.4867 119.96 95.86 119.72 96.34C119.493 96.82 119.38 97.4 119.38 98.08C119.38 98.7333 119.486 99.3067 119.7 99.8C119.926 100.28 120.24 100.653 120.64 100.92C121.053 101.187 121.54 101.32 122.1 101.32C122.74 101.32 123.28 101.167 123.72 100.86C124.16 100.54 124.453 100.1 124.6 99.54H126.76C126.653 100.273 126.386 100.92 125.96 101.48C125.533 102.027 124.986 102.46 124.32 102.78C123.653 103.1 122.913 103.26 122.1 103.26C121.113 103.26 120.253 103.047 119.52 102.62C118.786 102.18 118.22 101.573 117.82 100.8C117.42 100.027 117.22 99.12 117.22 98.08ZM132.999 103.26C132.026 103.26 131.166 103.04 130.419 102.6C129.686 102.16 129.106 101.553 128.679 100.78C128.266 99.9933 128.059 99.0933 128.059 98.08C128.059 97.0533 128.259 96.1533 128.659 95.38C129.073 94.6067 129.646 94 130.379 93.56C131.113 93.1067 131.959 92.88 132.919 92.88C133.879 92.88 134.706 93.0867 135.399 93.5C136.106 93.9 136.653 94.4733 137.039 95.22C137.439 95.9533 137.639 96.82 137.639 97.82V98.54L129.199 98.56L129.239 97.16H135.479C135.479 96.4 135.246 95.8 134.779 95.36C134.326 94.9067 133.706 94.68 132.919 94.68C132.319 94.68 131.806 94.8067 131.379 95.06C130.966 95.3133 130.646 95.6933 130.419 96.2C130.206 96.6933 130.099 97.3 130.099 98.02C130.099 99.14 130.346 99.9933 130.839 100.58C131.346 101.167 132.079 101.46 133.039 101.46C133.733 101.46 134.306 101.327 134.759 101.06C135.213 100.793 135.506 100.4 135.639 99.88H137.659C137.433 100.933 136.906 101.76 136.079 102.36C135.266 102.96 134.239 103.26 132.999 103.26ZM147.645 103H145.445V88.46H147.645L152.485 100.36L157.345 88.46H159.565V103H157.365V97.88C157.365 97.1733 157.365 96.58 157.365 96.1C157.378 95.6067 157.385 95.1867 157.385 94.84C157.398 94.4933 157.412 94.1867 157.425 93.92C157.452 93.6533 157.478 93.3867 157.505 93.12L153.545 103H151.445L147.485 93.14C147.552 93.54 147.592 94.0933 147.605 94.8C147.632 95.4933 147.645 96.3267 147.645 97.3V103ZM161.927 98.08C161.927 97.0533 162.147 96.1533 162.587 95.38C163.04 94.6067 163.66 94 164.447 93.56C165.233 93.12 166.127 92.9 167.127 92.9C168.127 92.9 169.013 93.12 169.787 93.56C170.56 94 171.173 94.6067 171.627 95.38C172.08 96.1533 172.307 97.0533 172.307 98.08C172.307 99.0933 172.08 99.9867 171.627 100.76C171.173 101.533 170.56 102.14 169.787 102.58C169.013 103.02 168.127 103.24 167.127 103.24C166.127 103.24 165.233 103.02 164.447 102.58C163.66 102.14 163.04 101.533 162.587 100.76C162.147 99.9867 161.927 99.0933 161.927 98.08ZM164.087 98.06C164.087 98.7 164.213 99.2667 164.467 99.76C164.733 100.24 165.093 100.62 165.547 100.9C166 101.167 166.527 101.3 167.127 101.3C167.713 101.3 168.233 101.167 168.687 100.9C169.14 100.62 169.493 100.24 169.747 99.76C170 99.2667 170.127 98.7 170.127 98.06C170.127 97.42 170 96.86 169.747 96.38C169.493 95.9 169.14 95.5267 168.687 95.26C168.233 94.98 167.713 94.84 167.127 94.84C166.527 94.84 166 94.98 165.547 95.26C165.093 95.5267 164.733 95.9 164.467 96.38C164.213 96.86 164.087 97.42 164.087 98.06ZM176.596 103L172.656 93.18H174.976L176.896 98.16C177.082 98.6933 177.249 99.18 177.396 99.62C177.542 100.06 177.649 100.42 177.716 100.7C177.809 100.38 177.929 100 178.076 99.56C178.236 99.12 178.409 98.6533 178.596 98.16L180.596 93.18H182.816L178.736 103H176.596ZM188.156 103.26C187.182 103.26 186.322 103.04 185.576 102.6C184.842 102.16 184.262 101.553 183.836 100.78C183.422 99.9933 183.216 99.0933 183.216 98.08C183.216 97.0533 183.416 96.1533 183.816 95.38C184.229 94.6067 184.802 94 185.536 93.56C186.269 93.1067 187.116 92.88 188.076 92.88C189.036 92.88 189.862 93.0867 190.556 93.5C191.262 93.9 191.809 94.4733 192.196 95.22C192.596 95.9533 192.796 96.82 192.796 97.82V98.54L184.356 98.56L184.396 97.16H190.636C190.636 96.4 190.402 95.8 189.936 95.36C189.482 94.9067 188.862 94.68 188.076 94.68C187.476 94.68 186.962 94.8067 186.536 95.06C186.122 95.3133 185.802 95.6933 185.576 96.2C185.362 96.6933 185.256 97.3 185.256 98.02C185.256 99.14 185.502 99.9933 185.996 100.58C186.502 101.167 187.236 101.46 188.196 101.46C188.889 101.46 189.462 101.327 189.916 101.06C190.369 100.793 190.662 100.4 190.796 99.88H192.816C192.589 100.933 192.062 101.76 191.236 102.36C190.422 102.96 189.396 103.26 188.156 103.26ZM196.972 103H194.832V93.18H196.792L197.052 94.96L196.792 94.74C196.992 94.2333 197.358 93.8 197.892 93.44C198.438 93.0667 199.105 92.88 199.892 92.88C200.758 92.88 201.472 93.1133 202.032 93.58C202.592 94.0333 202.972 94.64 203.172 95.4H202.792C202.938 94.64 203.312 94.0333 203.912 93.58C204.525 93.1133 205.265 92.88 206.132 92.88C207.292 92.88 208.192 93.2133 208.832 93.88C209.472 94.5333 209.792 95.4333 209.792 96.58V103H207.652V97.12C207.652 96.3867 207.465 95.8267 207.092 95.44C206.732 95.04 206.238 94.84 205.612 94.84C205.185 94.84 204.805 94.9333 204.472 95.12C204.138 95.3067 203.872 95.5867 203.672 95.96C203.485 96.32 203.392 96.7667 203.392 97.3V103H201.252V97.1C201.252 96.3667 201.065 95.8067 200.692 95.42C200.332 95.0333 199.838 94.84 199.212 94.84C198.785 94.84 198.398 94.94 198.052 95.14C197.718 95.3267 197.452 95.6 197.252 95.96C197.065 96.32 196.972 96.7667 196.972 97.3V103ZM216.632 103.26C215.659 103.26 214.799 103.04 214.052 102.6C213.319 102.16 212.739 101.553 212.312 100.78C211.899 99.9933 211.692 99.0933 211.692 98.08C211.692 97.0533 211.892 96.1533 212.292 95.38C212.706 94.6067 213.279 94 214.012 93.56C214.746 93.1067 215.592 92.88 216.552 92.88C217.512 92.88 218.339 93.0867 219.032 93.5C219.739 93.9 220.286 94.4733 220.672 95.22C221.072 95.9533 221.272 96.82 221.272 97.82V98.54L212.832 98.56L212.872 97.16H219.112C219.112 96.4 218.879 95.8 218.412 95.36C217.959 94.9067 217.339 94.68 216.552 94.68C215.952 94.68 215.439 94.8067 215.012 95.06C214.599 95.3133 214.279 95.6933 214.052 96.2C213.839 96.6933 213.732 97.3 213.732 98.02C213.732 99.14 213.979 99.9933 214.472 100.58C214.979 101.167 215.712 101.46 216.672 101.46C217.366 101.46 217.939 101.327 218.392 101.06C218.846 100.793 219.139 100.4 219.272 99.88H221.292C221.066 100.933 220.539 101.76 219.712 102.36C218.899 102.96 217.872 103.26 216.632 103.26ZM225.448 103H223.308V93.18H225.268L225.468 94.56C225.788 94.0267 226.228 93.6133 226.788 93.32C227.362 93.0267 227.995 92.88 228.688 92.88C229.942 92.88 230.875 93.2467 231.488 93.98C232.115 94.7133 232.428 95.7067 232.428 96.96V103H230.288V97.46C230.288 96.5667 230.082 95.9067 229.668 95.48C229.268 95.0533 228.728 94.84 228.048 94.84C227.235 94.84 226.595 95.1067 226.128 95.64C225.675 96.16 225.448 96.86 225.448 97.74V103ZM233.929 93.18H239.909V94.98H233.929V93.18ZM237.989 103H235.849V90.1H237.989V103Z" fill="#E5ECF1"/>
<line x1="92.25" y1="394.25" x2="141.75" y2="394.25" stroke="url(#paint5_linear_732_15099)" stroke-width="1.5" stroke-linecap="round" stroke-linejoin="round"/>
<path d="M156.515 396.662C158.066 396.662 159.078 395.584 159.078 394.099C159.078 392.57 158.077 391.547 156.515 391.547H153.424V399.5H154.502V396.662H156.515ZM156.328 392.515C157.34 392.515 157.945 393.087 157.945 394.088C157.945 395.067 157.351 395.694 156.284 395.694H154.502V392.515H156.328ZM163.203 394.077C162.994 394.033 162.84 394.011 162.653 394.011C161.916 394.011 161.377 394.385 161.157 394.946L161.091 394.132H160.123V399.5H161.157V396.651C161.157 395.617 161.762 395.023 162.741 395.023H163.203V394.077ZM164.679 392.845C165.053 392.845 165.361 392.537 165.361 392.163C165.361 391.778 165.053 391.481 164.679 391.481C164.305 391.481 163.997 391.778 163.997 392.163C163.997 392.537 164.305 392.845 164.679 392.845ZM164.173 399.5H165.207V394.121H164.173V399.5ZM166.356 396.816C166.356 398.51 167.401 399.632 168.985 399.632C170.283 399.632 171.284 398.851 171.493 397.685H170.459C170.272 398.323 169.722 398.708 168.985 398.708C168.006 398.708 167.379 397.96 167.379 396.805C167.379 395.639 168.05 394.891 169.029 394.891C169.722 394.891 170.272 395.254 170.448 395.936H171.482C171.295 394.737 170.349 393.967 168.996 393.967C167.423 393.967 166.356 395.133 166.356 396.816ZM174.905 399.632C176.236 399.632 177.138 398.983 177.402 397.828H176.434C176.258 398.444 175.73 398.774 174.927 398.774C173.904 398.774 173.31 398.147 173.233 397.014L177.391 397.003V396.618C177.391 395.023 176.39 393.967 174.861 393.967C173.299 393.967 172.232 395.133 172.232 396.816C172.232 398.488 173.321 399.632 174.905 399.632ZM174.861 394.836C175.774 394.836 176.357 395.43 176.357 396.321H173.255C173.387 395.375 173.959 394.836 174.861 394.836ZM182.808 399.5V395.969H186.746V399.5H187.824V391.547H186.746V394.968H182.808V391.547H181.73V399.5H182.808ZM189.998 392.845C190.372 392.845 190.68 392.537 190.68 392.163C190.68 391.778 190.372 391.481 189.998 391.481C189.624 391.481 189.316 391.778 189.316 392.163C189.316 392.537 189.624 392.845 189.998 392.845ZM189.492 399.5H190.526V394.121H189.492V399.5ZM191.587 397.938C191.587 398.961 192.39 399.632 193.655 399.632C194.931 399.632 195.811 398.983 195.811 397.96C195.811 397.157 195.36 396.739 194.447 396.519L193.501 396.288C192.973 396.156 192.709 395.914 192.709 395.551C192.709 395.056 193.072 394.77 193.721 394.77C194.348 394.77 194.711 395.111 194.733 395.65H195.723C195.701 394.627 194.931 393.967 193.754 393.967C192.566 393.967 191.73 394.594 191.73 395.584C191.73 396.376 192.181 396.849 193.138 397.08L194.084 397.3C194.645 397.443 194.821 397.663 194.821 398.026C194.821 398.521 194.403 398.818 193.677 398.818C192.995 398.818 192.577 398.488 192.577 397.938H191.587ZM198.476 399.5V394.99H199.532V394.121H198.476V392.438H197.442V394.121H196.386V394.99H197.442V399.5H198.476ZM200.054 396.805C200.054 398.466 201.242 399.632 202.859 399.632C204.465 399.632 205.653 398.466 205.653 396.805C205.653 395.144 204.465 393.978 202.859 393.978C201.242 393.978 200.054 395.144 200.054 396.805ZM201.099 396.805C201.099 395.683 201.814 394.902 202.859 394.902C203.893 394.902 204.619 395.683 204.619 396.805C204.619 397.927 203.893 398.708 202.859 398.708C201.814 398.708 201.099 397.927 201.099 396.805ZM209.878 394.077C209.669 394.033 209.515 394.011 209.328 394.011C208.591 394.011 208.052 394.385 207.832 394.946L207.766 394.132H206.798V399.5H207.832V396.651C207.832 395.617 208.437 395.023 209.416 395.023H209.878V394.077ZM210.492 401.909C210.767 401.975 211.053 402.019 211.394 402.019C212.219 402.019 212.758 401.634 213.121 400.71L215.662 394.121H214.595L213 398.455L211.438 394.121H210.349L212.516 399.786L212.329 400.303C212.076 400.985 211.68 401.062 211.185 401.062H210.492V401.909Z" fill="#787E82"/>
<line x1="261.5" y1="395" x2="312.5" y2="395" stroke="#B8FFDF" stroke-dasharray="2 2"/>
<path d="M327.626 396.123V395.144H324.502V392.537H328.22V391.547H323.424V399.5H324.502V396.123H327.626ZM332.735 394.121V396.959C332.735 398.114 332.218 398.719 331.272 398.719C330.48 398.719 329.985 398.279 329.985 397.124V394.121H328.951V397.465C328.951 398.785 329.655 399.632 330.909 399.632C331.701 399.632 332.416 399.247 332.724 398.686L332.834 399.5H333.758V394.121H332.735ZM336.776 399.5V394.99H337.832V394.121H336.776V392.438H335.742V394.121H334.686V394.99H335.742V399.5H336.776ZM342.478 394.121V396.959C342.478 398.114 341.961 398.719 341.015 398.719C340.223 398.719 339.728 398.279 339.728 397.124V394.121H338.694V397.465C338.694 398.785 339.398 399.632 340.652 399.632C341.444 399.632 342.159 399.247 342.467 398.686L342.577 399.5H343.501V394.121H342.478ZM348.081 394.077C347.872 394.033 347.718 394.011 347.531 394.011C346.794 394.011 346.255 394.385 346.035 394.946L345.969 394.132H345.001V399.5H346.035V396.651C346.035 395.617 346.64 395.023 347.619 395.023H348.081V394.077ZM351.178 399.632C352.509 399.632 353.411 398.983 353.675 397.828H352.707C352.531 398.444 352.003 398.774 351.2 398.774C350.177 398.774 349.583 398.147 349.506 397.014L353.664 397.003V396.618C353.664 395.023 352.663 393.967 351.134 393.967C349.572 393.967 348.505 395.133 348.505 396.816C348.505 398.488 349.594 399.632 351.178 399.632ZM351.134 394.836C352.047 394.836 352.63 395.43 352.63 396.321H349.528C349.66 395.375 350.232 394.836 351.134 394.836ZM357.827 401.909H358.861V398.62C359.213 399.28 359.928 399.643 360.786 399.643C362.381 399.643 363.283 398.411 363.283 396.772C363.283 395.122 362.326 393.967 360.786 393.967C359.928 393.967 359.202 394.352 358.839 395.089L358.762 394.121H357.827V401.909ZM358.872 396.816C358.872 395.694 359.51 394.913 360.566 394.913C361.622 394.913 362.249 395.705 362.249 396.816C362.249 397.916 361.622 398.708 360.566 398.708C359.51 398.708 358.872 397.916 358.872 396.816ZM367.503 394.077C367.294 394.033 367.14 394.011 366.953 394.011C366.216 394.011 365.677 394.385 365.457 394.946L365.391 394.132H364.423V399.5H365.457V396.651C365.457 395.617 366.062 395.023 367.041 395.023H367.503V394.077ZM368.979 392.845C369.353 392.845 369.661 392.537 369.661 392.163C369.661 391.778 369.353 391.481 368.979 391.481C368.605 391.481 368.297 391.778 368.297 392.163C368.297 392.537 368.605 392.845 368.979 392.845ZM368.473 399.5H369.507V394.121H368.473V399.5ZM370.656 396.816C370.656 398.51 371.701 399.632 373.285 399.632C374.583 399.632 375.584 398.851 375.793 397.685H374.759C374.572 398.323 374.022 398.708 373.285 398.708C372.306 398.708 371.679 397.96 371.679 396.805C371.679 395.639 372.35 394.891 373.329 394.891C374.022 394.891 374.572 395.254 374.748 395.936H375.782C375.595 394.737 374.649 393.967 373.296 393.967C371.723 393.967 370.656 395.133 370.656 396.816ZM379.205 399.632C380.536 399.632 381.438 398.983 381.702 397.828H380.734C380.558 398.444 380.03 398.774 379.227 398.774C378.204 398.774 377.61 398.147 377.533 397.014L381.691 397.003V396.618C381.691 395.023 380.69 393.967 379.161 393.967C377.599 393.967 376.532 395.133 376.532 396.816C376.532 398.488 377.621 399.632 379.205 399.632ZM379.161 394.836C380.074 394.836 380.657 395.43 380.657 396.321H377.555C377.687 395.375 378.259 394.836 379.161 394.836Z" fill="#787E82"/>
<rect x="91.5" y="423.5" width="527" height="8" rx="4" fill="#DAFFEE" fill-opacity="0.06"/>
<rect x="91.5" y="441.5" width="527" height="8" rx="4" fill="#DAFFEE" fill-opacity="0.06"/>
<rect x="91.5" y="459.5" width="398" height="8" rx="4" fill="#DAFFEE" fill-opacity="0.06"/>
<rect x="91.5" y="477.5" width="154" height="8" rx="4" fill="#DAFFEE" fill-opacity="0.06"/>
<rect x="61.9481" y="61.4481" width="606.104" height="462.26" rx="17.4778" stroke="white" stroke-opacity="0.06" stroke-width="0.896296" shape-rendering="crispEdges"/>
</g>
</g>
</g>
<defs>
<filter id="filter0_d_732_15099" x="-2.72963" y="56.7704" width="689.459" height="545.616" filterUnits="userSpaceOnUse" color-interpolation-filters="sRGB">
<feFlood flood-opacity="0" result="BackgroundImageFix"/>
<feColorMatrix in="SourceAlpha" type="matrix" values="0 0 0 0 0 0 0 0 0 0 0 0 0 0 0 0 0 0 127 0" result="hardAlpha"/>
<feOffset dx="-23" dy="37"/>
<feGaussianBlur stdDeviation="20.6148"/>
<feComposite in2="hardAlpha" operator="out"/>
<feColorMatrix type="matrix" values="0 0 0 0 0 0 0 0 0 0 0 0 0 0 0 0 0 0 0.26 0"/>
<feBlend mode="normal" in2="BackgroundImageFix" result="effect1_dropShadow_732_15099"/>
<feBlend mode="normal" in="SourceGraphic" in2="effect1_dropShadow_732_15099" result="shape"/>
</filter>
<linearGradient id="paint0_linear_732_15099" x1="274" y1="0" x2="274" y2="496" gradientUnits="userSpaceOnUse">
<stop stop-color="#37383F"/>
<stop offset="1" stop-opacity="0"/>
</linearGradient>
<linearGradient id="paint1_linear_732_15099" x1="274" y1="-10" x2="274" y2="496" gradientUnits="userSpaceOnUse">
<stop stop-color="#63FFD0" stop-opacity="0.54"/>
<stop offset="0.257571" stop-color="#4FFFB0" stop-opacity="0.34"/>
<stop offset="1" stop-opacity="0"/>
</linearGradient>
<linearGradient id="paint2_linear_732_15099" x1="232.5" y1="372.5" x2="232.5" y2="497" gradientUnits="userSpaceOnUse">
<stop/>
<stop offset="1" stop-color="#D9D9D9" stop-opacity="0"/>
</linearGradient>
<linearGradient id="paint3_linear_732_15099" x1="365" y1="61" x2="365" y2="524.157" gradientUnits="userSpaceOnUse">
<stop stop-color="#1C2527"/>
<stop offset="0.8073" stop-color="#14161A"/>
<stop offset="1" stop-color="#121316"/>
</linearGradient>
<linearGradient id="paint4_linear_732_15099" x1="415.5" y1="191" x2="357.5" y2="358" gradientUnits="userSpaceOnUse">
<stop stop-color="#4FFFB0"/>
<stop offset="0.463556" stop-color="#B3FF8F"/>
<stop offset="1" stop-color="#FF984E"/>
</linearGradient>
<linearGradient id="paint5_linear_732_15099" x1="135" y1="395.5" x2="94" y2="398.5" gradientUnits="userSpaceOnUse">
<stop stop-color="#4FFFB0"/>
<stop offset="0.463556" stop-color="#B3FF8F"/>
<stop offset="1" stop-color="#FF984E"/>
</linearGradient>
<clipPath id="clip0_732_15099">
<rect x="0.5" width="547" height="496" rx="35" fill="white"/>
</clipPath>
</defs>
</svg>
