<svg width="691" height="547" viewBox="0 0 691 547" fill="none" xmlns="http://www.w3.org/2000/svg">
<g filter="url(#filter0_d_586_2949)">
<rect x="65" y="5" width="607" height="463.157" rx="17.9259" fill="url(#paint0_linear_586_2949)" shape-rendering="crispEdges"/>
<path d="M105.646 218.755C105.646 216.922 104.372 215.726 102.617 215.726C100.81 215.726 99.601 216.909 99.601 218.755V222.408H109V221.134H105.646V218.755ZM100.745 218.976C100.745 217.78 101.421 217.065 102.604 217.065C103.761 217.065 104.502 217.767 104.502 219.028V221.134H100.745V218.976ZM102.591 210.351C102.539 210.598 102.513 210.78 102.513 211.001C102.513 211.872 102.955 212.509 103.618 212.769L102.656 212.847V213.991H109V212.769H105.633C104.411 212.769 103.709 212.054 103.709 210.897V210.351H102.591ZM101.135 208.107C101.135 207.665 100.771 207.301 100.329 207.301C99.874 207.301 99.523 207.665 99.523 208.107C99.523 208.549 99.874 208.913 100.329 208.913C100.771 208.913 101.135 208.549 101.135 208.107ZM109 208.705V207.483H102.643V208.705H109ZM105.828 205.625C107.83 205.625 109.156 204.39 109.156 202.518C109.156 200.984 108.233 199.801 106.855 199.554V200.776C107.609 200.997 108.064 201.647 108.064 202.518C108.064 203.675 107.18 204.416 105.815 204.416C104.437 204.416 103.553 203.623 103.553 202.466C103.553 201.647 103.982 200.997 104.788 200.789V199.567C103.371 199.788 102.461 200.906 102.461 202.505C102.461 204.364 103.839 205.625 105.828 205.625ZM109.156 195.021C109.156 193.448 108.389 192.382 107.024 192.07V193.214C107.752 193.422 108.142 194.046 108.142 194.995C108.142 196.204 107.401 196.906 106.062 196.997L106.049 192.083H105.594C103.709 192.083 102.461 193.266 102.461 195.073C102.461 196.919 103.839 198.18 105.828 198.18C107.804 198.18 109.156 196.893 109.156 195.021ZM103.488 195.073C103.488 193.994 104.19 193.305 105.243 193.305V196.971C104.125 196.815 103.488 196.139 103.488 195.073ZM101.135 185.566C101.135 185.124 100.771 184.76 100.329 184.76C99.874 184.76 99.523 185.124 99.523 185.566C99.523 186.008 99.874 186.372 100.329 186.372C100.771 186.372 101.135 186.008 101.135 185.566ZM109 186.164V184.942H102.643V186.164H109ZM109 181.446H105.633C104.398 181.446 103.579 180.783 103.579 179.639C103.579 178.703 104.099 178.105 105.386 178.105H109V176.883H105.113C103.488 176.883 102.461 177.65 102.461 179.327C102.461 180.224 102.89 181.03 103.618 181.433L102.643 181.563V182.668H109V181.446ZM105.659 170.493C107.83 170.493 109.156 169.115 109.156 166.892C109.156 164.682 107.817 163.304 105.659 163.304H99.601V164.591H105.581C107.076 164.591 107.921 165.41 107.921 166.892C107.921 168.387 107.089 169.219 105.581 169.219H99.601V170.493H105.659ZM102.136 161.231C103.488 161.231 104.372 160.438 104.723 158.904L105.074 157.357C105.282 156.46 105.75 156.057 106.491 156.057C107.427 156.057 108.012 156.85 108.012 158.098C108.012 159.281 107.44 160.035 106.543 160.061V161.361C108.155 161.283 109.156 160.009 109.156 158.098C109.156 156.096 108.077 154.783 106.387 154.783C105.061 154.783 104.229 155.563 103.878 157.097L103.514 158.644C103.306 159.528 102.851 159.957 102.097 159.957C101.174 159.957 100.576 159.19 100.576 158.007C100.576 156.954 101.122 156.291 102.058 156.226V154.939C100.433 155.043 99.432 156.2 99.432 157.994C99.432 159.931 100.524 161.231 102.136 161.231ZM109 149.575C109 146.793 107.102 144.921 104.307 144.921C101.499 144.921 99.601 146.819 99.601 149.627V152.682H109V149.575ZM100.771 149.718C100.771 147.573 102.123 146.247 104.307 146.247C106.465 146.247 107.817 147.573 107.817 149.666V151.408H100.771V149.718Z" fill="#F0DA73"/>
<rect x="178" y="84.25" width="1" height="177" fill="white" fill-opacity="0.12"/>
<rect x="265" y="84.25" width="1" height="177" fill="white" fill-opacity="0.12"/>
<rect x="352" y="84.25" width="1" height="177" fill="white" fill-opacity="0.12"/>
<rect x="439" y="84.25" width="1" height="177" fill="white" fill-opacity="0.12"/>
<rect x="526" y="84.25" width="1" height="177" fill="white" fill-opacity="0.12"/>
<rect x="613" y="84.25" width="1" height="177" fill="white" fill-opacity="0.12"/>
<rect x="161" y="216" width="1" height="481" transform="rotate(-90 161 216)" fill="white" fill-opacity="0.12"/>
<rect x="161" y="174" width="1" height="481" transform="rotate(-90 161 174)" fill="white" fill-opacity="0.12"/>
<rect x="161" y="132" width="1" height="481" transform="rotate(-90 161 132)" fill="white" fill-opacity="0.12"/>
<path d="M174.637 279.307C174.637 282.232 176.08 284.169 178.511 284.169C180.929 284.169 182.372 282.232 182.372 279.307C182.372 276.395 180.864 274.419 178.511 274.419C176.145 274.419 174.637 276.395 174.637 279.307ZM175.898 279.307C175.898 276.967 176.86 275.563 178.511 275.563C180.162 275.563 181.111 276.967 181.111 279.307C181.111 281.621 180.162 283.025 178.511 283.025C176.86 283.025 175.898 281.621 175.898 279.307Z" fill="white"/>
<path d="M263.796 284.156C265.824 284.156 267.215 282.791 267.215 280.841C267.215 279.034 265.98 277.695 264.069 277.695C263.367 277.695 262.743 277.89 262.249 278.267L262.873 275.771H266.656V274.601H261.95L260.806 279.424L261.885 279.697C262.314 279.164 263.042 278.787 263.835 278.787C265.148 278.787 265.915 279.684 265.915 280.893C265.915 282.167 265.096 283.012 263.822 283.012C262.626 283.012 261.885 282.271 261.885 281.062H260.624C260.624 282.934 261.872 284.156 263.796 284.156Z" fill="white"/>
<path d="M346.431 275.745V284H347.653V274.601H344.455V275.745H346.431ZM349.872 279.307C349.872 282.232 351.315 284.169 353.746 284.169C356.164 284.169 357.607 282.232 357.607 279.307C357.607 276.395 356.099 274.419 353.746 274.419C351.38 274.419 349.872 276.395 349.872 279.307ZM351.133 279.307C351.133 276.967 352.095 275.563 353.746 275.563C355.397 275.563 356.346 276.967 356.346 279.307C356.346 281.621 355.397 283.025 353.746 283.025C352.095 283.025 351.133 281.621 351.133 279.307Z" fill="white"/>
<path d="M437.431 275.745V284H438.653V274.601H435.455V275.745H437.431ZM443.981 284.156C446.009 284.156 447.4 282.791 447.4 280.841C447.4 279.034 446.165 277.695 444.254 277.695C443.552 277.695 442.928 277.89 442.434 278.267L443.058 275.771H446.841V274.601H442.135L440.991 279.424L442.07 279.697C442.499 279.164 443.227 278.787 444.02 278.787C445.333 278.787 446.1 279.684 446.1 280.893C446.1 282.167 445.281 283.012 444.007 283.012C442.811 283.012 442.07 282.271 442.07 281.062H440.809C440.809 282.934 442.057 284.156 443.981 284.156Z" fill="white"/>
<path d="M530.942 283.987V282.804H526.6L528.55 281.114C530.214 279.671 530.877 278.722 530.877 277.383C530.877 275.576 529.668 274.432 527.783 274.432C525.872 274.432 524.598 275.745 524.559 277.76H525.833C525.859 276.421 526.613 275.576 527.77 275.576C528.901 275.576 529.577 276.278 529.577 277.461C529.577 278.462 529.148 279.099 527.627 280.412L524.598 283.025V284L530.942 283.987ZM532.615 279.307C532.615 282.232 534.058 284.169 536.489 284.169C538.907 284.169 540.35 282.232 540.35 279.307C540.35 276.395 538.842 274.419 536.489 274.419C534.123 274.419 532.615 276.395 532.615 279.307ZM533.876 279.307C533.876 276.967 534.838 275.563 536.489 275.563C538.14 275.563 539.089 276.967 539.089 279.307C539.089 281.621 538.14 283.025 536.489 283.025C534.838 283.025 533.876 281.621 533.876 279.307Z" fill="white"/>
<path d="M619.431 275.745V284H620.653V274.601H617.455V275.745H619.431ZM622.872 279.307C622.872 282.232 624.315 284.169 626.746 284.169C629.164 284.169 630.607 282.232 630.607 279.307C630.607 276.395 629.099 274.419 626.746 274.419C624.38 274.419 622.872 276.395 622.872 279.307ZM624.133 279.307C624.133 276.967 625.095 275.563 626.746 275.563C628.397 275.563 629.346 276.967 629.346 279.307C629.346 281.621 628.397 283.025 626.746 283.025C625.095 283.025 624.133 281.621 624.133 279.307ZM632.386 279.307C632.386 282.232 633.829 284.169 636.26 284.169C638.678 284.169 640.121 282.232 640.121 279.307C640.121 276.395 638.613 274.419 636.26 274.419C633.894 274.419 632.386 276.395 632.386 279.307ZM633.647 279.307C633.647 276.967 634.609 275.563 636.26 275.563C637.911 275.563 638.86 276.967 638.86 279.307C638.86 281.621 637.911 283.025 636.26 283.025C634.609 283.025 633.647 281.621 633.647 279.307Z" fill="white"/>
<path d="M340.199 304.25C342.981 304.25 344.853 302.352 344.853 299.557C344.853 296.749 342.955 294.851 340.147 294.851H337.092V304.25H340.199ZM340.056 296.021C342.201 296.021 343.527 297.373 343.527 299.557C343.527 301.715 342.201 303.067 340.108 303.067H338.366V296.021H340.056ZM348.625 304.406C349.652 304.406 350.523 303.951 350.848 303.223L350.978 304.25H352.018V300.259C352.018 298.543 350.952 297.711 349.379 297.711C347.741 297.711 346.649 298.582 346.649 299.908H347.715C347.715 299.141 348.3 298.686 349.327 298.686C350.185 298.686 350.822 299.063 350.822 300.129V300.311L348.82 300.467C347.325 300.584 346.454 301.312 346.454 302.482C346.454 303.639 347.26 304.406 348.625 304.406ZM348.976 303.457C348.183 303.457 347.689 303.119 347.689 302.443C347.689 301.819 348.131 301.403 349.21 301.299L350.835 301.169V301.507C350.835 302.703 350.133 303.457 348.976 303.457ZM353.447 307.097C353.772 307.175 354.11 307.227 354.513 307.227C355.488 307.227 356.125 306.772 356.554 305.68L359.557 297.893H358.296L356.411 303.015L354.565 297.893H353.278L355.839 304.588L355.618 305.199C355.319 306.005 354.851 306.096 354.266 306.096H353.447V307.097ZM360.424 302.404C360.424 303.613 361.373 304.406 362.868 304.406C364.376 304.406 365.416 303.639 365.416 302.43C365.416 301.481 364.883 300.987 363.804 300.727L362.686 300.454C362.062 300.298 361.75 300.012 361.75 299.583C361.75 298.998 362.179 298.66 362.946 298.66C363.687 298.66 364.116 299.063 364.142 299.7H365.312C365.286 298.491 364.376 297.711 362.985 297.711C361.581 297.711 360.593 298.452 360.593 299.622C360.593 300.558 361.126 301.117 362.257 301.39L363.375 301.65C364.038 301.819 364.246 302.079 364.246 302.508C364.246 303.093 363.752 303.444 362.894 303.444C362.088 303.444 361.594 303.054 361.594 302.404H360.424Z" fill="#F0DA73"/>
<path d="M136.431 86.745V95H137.653V85.601H134.455V86.745H136.431ZM141.029 95.156C141.523 95.156 141.952 94.74 141.952 94.246C141.952 93.739 141.523 93.323 141.029 93.323C140.522 93.323 140.093 93.739 140.093 94.246C140.093 94.74 140.522 95.156 141.029 95.156ZM143.432 90.307C143.432 93.232 144.875 95.169 147.306 95.169C149.724 95.169 151.167 93.232 151.167 90.307C151.167 87.395 149.659 85.419 147.306 85.419C144.94 85.419 143.432 87.395 143.432 90.307ZM144.693 90.307C144.693 87.967 145.655 86.563 147.306 86.563C148.957 86.563 149.906 87.967 149.906 90.307C149.906 92.621 148.957 94.025 147.306 94.025C145.655 94.025 144.693 92.621 144.693 90.307Z" fill="white"/>
<path d="M130.637 132.557C130.637 135.482 132.08 137.419 134.511 137.419C136.929 137.419 138.372 135.482 138.372 132.557C138.372 129.645 136.864 127.669 134.511 127.669C132.145 127.669 130.637 129.645 130.637 132.557ZM131.898 132.557C131.898 130.217 132.86 128.813 134.511 128.813C136.162 128.813 137.111 130.217 137.111 132.557C137.111 134.871 136.162 136.275 134.511 136.275C132.86 136.275 131.898 134.871 131.898 132.557ZM140.774 137.406C141.268 137.406 141.697 136.99 141.697 136.496C141.697 135.989 141.268 135.573 140.774 135.573C140.267 135.573 139.838 135.989 139.838 136.496C139.838 136.99 140.267 137.406 140.774 137.406ZM143.545 134.637C143.545 136.301 144.91 137.406 147.003 137.406C149.083 137.406 150.461 136.301 150.461 134.65C150.461 133.493 149.785 132.557 148.732 132.219C149.616 131.868 150.11 131.127 150.11 130.165C150.11 128.683 148.862 127.682 147.016 127.682C145.144 127.682 143.883 128.683 143.883 130.152C143.883 131.101 144.364 131.842 145.248 132.219C144.208 132.596 143.545 133.506 143.545 134.637ZM145.053 130.23C145.053 129.359 145.82 128.787 146.99 128.787C148.173 128.787 148.914 129.359 148.914 130.256C148.914 131.166 148.173 131.751 146.99 131.751C145.82 131.751 145.053 131.153 145.053 130.23ZM144.793 134.546C144.793 133.506 145.651 132.843 146.99 132.843C148.342 132.843 149.2 133.506 149.2 134.546C149.2 135.599 148.329 136.275 147.003 136.275C145.664 136.275 144.793 135.599 144.793 134.546Z" fill="white"/>
<path d="M131.637 174.807C131.637 177.732 133.08 179.669 135.511 179.669C137.929 179.669 139.372 177.732 139.372 174.807C139.372 171.895 137.864 169.919 135.511 169.919C133.145 169.919 131.637 171.895 131.637 174.807ZM132.898 174.807C132.898 172.467 133.86 171.063 135.511 171.063C137.162 171.063 138.111 172.467 138.111 174.807C138.111 177.121 137.162 178.525 135.511 178.525C133.86 178.525 132.898 177.121 132.898 174.807ZM141.774 179.656C142.268 179.656 142.697 179.24 142.697 178.746C142.697 178.239 142.268 177.823 141.774 177.823C141.267 177.823 140.838 178.239 140.838 178.746C140.838 179.24 141.267 179.656 141.774 179.656ZM145.513 173.078C144.551 174.391 144.213 175.171 144.213 176.289C144.213 178.187 145.721 179.656 147.671 179.656C149.608 179.656 151.09 178.252 151.09 176.289C151.09 174.43 149.777 173.026 147.827 173.026C147.502 173.026 147.164 173.091 146.839 173.221L149.192 170.101H147.71L145.513 173.078ZM145.513 176.302C145.513 175.015 146.397 174.105 147.671 174.105C148.919 174.105 149.803 175.015 149.803 176.302C149.803 177.589 148.919 178.512 147.671 178.512C146.397 178.512 145.513 177.589 145.513 176.302Z" fill="white"/>
<path d="M130.637 217.057C130.637 219.982 132.08 221.919 134.511 221.919C136.929 221.919 138.372 219.982 138.372 217.057C138.372 214.145 136.864 212.169 134.511 212.169C132.145 212.169 130.637 214.145 130.637 217.057ZM131.898 217.057C131.898 214.717 132.86 213.313 134.511 213.313C136.162 213.313 137.111 214.717 137.111 217.057C137.111 219.371 136.162 220.775 134.511 220.775C132.86 220.775 131.898 219.371 131.898 217.057ZM140.774 221.906C141.268 221.906 141.697 221.49 141.697 220.996C141.697 220.489 141.268 220.073 140.774 220.073C140.267 220.073 139.838 220.489 139.838 220.996C139.838 221.49 140.267 221.906 140.774 221.906ZM150.501 219.852V218.721H149.383V212.351H147.732L143.299 218.721V219.852H148.161V221.75H149.383V219.852H150.501ZM144.677 218.721L148.161 213.703V218.721H144.677Z" fill="white"/>
<path d="M131.637 259.307C131.637 262.232 133.08 264.169 135.511 264.169C137.929 264.169 139.372 262.232 139.372 259.307C139.372 256.395 137.864 254.419 135.511 254.419C133.145 254.419 131.637 256.395 131.637 259.307ZM132.898 259.307C132.898 256.967 133.86 255.563 135.511 255.563C137.162 255.563 138.111 256.967 138.111 259.307C138.111 261.621 137.162 263.025 135.511 263.025C133.86 263.025 132.898 261.621 132.898 259.307ZM141.774 264.156C142.268 264.156 142.697 263.74 142.697 263.246C142.697 262.739 142.268 262.323 141.774 262.323C141.267 262.323 140.838 262.739 140.838 263.246C140.838 263.74 141.267 264.156 141.774 264.156ZM151.015 263.987V262.804H146.673L148.623 261.114C150.287 259.671 150.95 258.722 150.95 257.383C150.95 255.576 149.741 254.432 147.856 254.432C145.945 254.432 144.671 255.745 144.632 257.76H145.906C145.932 256.421 146.686 255.576 147.843 255.576C148.974 255.576 149.65 256.278 149.65 257.461C149.65 258.462 149.221 259.099 147.7 260.412L144.671 263.025V264L151.015 263.987Z" fill="white"/>
<path d="M165.852 216.435L167.421 223.862C167.634 224.87 168.461 225.634 169.483 225.767V225.767C169.628 225.786 169.775 225.791 169.922 225.784L170.047 225.777C171.041 225.726 172 226.147 172.634 226.914L172.952 227.3C173.333 227.76 173.895 228.032 174.492 228.045V228.045C175.114 228.058 175.709 227.787 176.109 227.31L176.35 227.022C176.94 226.317 177.978 226.196 178.714 226.747V226.747C179.104 227.039 179.599 227.153 180.078 227.061L180.943 226.894C181.148 226.855 181.357 226.834 181.565 226.83L182.463 226.816C182.917 226.809 183.346 226.609 183.643 226.265L183.994 225.858C184.536 225.23 185.536 225.323 185.954 226.041V226.041C186.426 226.853 187.603 226.839 188.057 226.017L188.952 224.395L190.414 220.688C190.719 219.914 191.174 219.207 191.753 218.609V218.609C192.442 217.897 192.955 217.032 193.249 216.085L194.348 212.543C194.597 211.741 195.021 211.004 195.588 210.385V210.385C196.284 209.626 196.761 208.692 196.968 207.684L198.577 199.845L199.629 196.592C200.204 194.815 201.158 193.185 202.427 191.815V191.815V191.815C203.397 190.968 204.907 191.274 205.471 192.432L206.167 193.86C206.24 194.01 206.324 194.154 206.42 194.29L207.362 195.635C207.863 196.351 208.767 196.665 209.604 196.413L209.7 196.384C209.979 196.3 210.232 196.143 210.431 195.929V195.929C211.217 195.088 212.6 195.287 213.117 196.316L213.219 196.519C213.643 197.361 214.654 197.719 215.513 197.331V197.331C215.768 197.215 216.048 197.163 216.328 197.177L217.317 197.229C217.651 197.246 217.977 197.345 218.265 197.517L218.453 197.63C219.204 198.078 220.168 197.921 220.737 197.258L221.036 196.911C221.41 196.475 222.037 196.358 222.544 196.629V196.629C223.132 196.944 223.863 196.731 224.19 196.15L225.527 193.775L226.919 190.657C227.249 189.919 227.945 189.411 228.749 189.324L228.872 189.31C229.202 189.274 229.536 189.329 229.838 189.468L230.465 189.758C230.943 189.979 231.511 189.81 231.79 189.364V189.364C232.297 188.553 233.536 188.792 233.705 189.733L235.063 197.311C235.121 197.636 235.257 197.941 235.459 198.202V198.202C236.278 199.256 237.871 199.253 238.686 198.195L238.781 198.072C238.927 197.882 239.041 197.669 239.117 197.442L240.927 192.055L241.561 190.371C242.029 189.128 243.774 189.087 244.3 190.308V190.308C244.577 190.952 245.27 191.313 245.957 191.17L246.069 191.147C246.475 191.062 246.833 190.825 247.069 190.484L248.627 188.235V188.235C249.486 187.016 251.346 187.185 251.984 188.534V188.534C252.287 189.175 252.915 189.605 253.622 189.653L253.941 189.674C254.246 189.695 254.551 189.659 254.843 189.57L255.55 189.353C256.037 189.204 256.423 188.829 256.586 188.345L257.129 186.73C257.466 185.731 258.894 185.774 259.169 186.792V186.792C259.451 187.837 260.931 187.845 261.224 186.803L261.932 184.288C262.039 183.908 262.316 183.599 262.683 183.453V183.453C263.395 183.168 264.195 183.575 264.384 184.318L264.493 184.743C264.906 186.364 267.188 186.417 267.677 184.817L267.877 184.165L269.484 179.657C269.675 179.12 270.178 178.757 270.748 178.746V178.746C271.334 178.733 271.847 178.351 272.026 177.794L273.479 173.281C273.593 172.928 273.781 172.603 274.031 172.329L274.585 171.722C275.151 171.102 276.091 171.001 276.775 171.488V171.488C277.229 171.811 277.814 171.885 278.334 171.685L278.63 171.572C279.108 171.388 279.65 171.524 279.984 171.911V171.911C280.594 172.617 281.738 172.401 282.048 171.522L283.189 168.293C283.247 168.129 283.329 167.974 283.432 167.833V167.833C284.231 166.741 285.907 166.899 286.488 168.121L286.583 168.322C286.908 169.006 287.632 169.407 288.384 169.321V169.321C288.814 169.272 289.211 169.068 289.501 168.746L290.146 168.029C290.689 167.425 291.05 166.681 291.189 165.881L292.774 156.762C292.852 156.313 293.184 155.95 293.625 155.834V155.834C294.276 155.661 294.937 156.074 295.068 156.735L296.449 163.701C296.572 164.318 297.351 164.521 297.759 164.043V164.043C298.15 163.584 298.894 163.748 299.055 164.329L299.864 167.239C300.134 168.213 301.45 168.37 301.942 167.486L302.068 167.259C302.317 166.812 302.89 166.668 303.321 166.943V166.943C303.857 167.285 304.568 166.969 304.673 166.342L306.377 156.175L308.302 148.625L309.732 142.087C309.938 141.146 311.124 140.837 311.763 141.557V141.557C312.008 141.833 312.368 141.978 312.735 141.95L312.843 141.941C313.547 141.886 314.181 142.366 314.319 143.059L315.951 151.242C315.985 151.41 316.038 151.574 316.111 151.728L317.04 153.701C317.403 154.473 318.494 154.495 318.888 153.737V153.737C319.282 152.979 320.375 153.002 320.737 153.776L320.934 154.196C321.326 155.033 322.455 155.177 323.045 154.466L323.5 153.919C323.633 153.758 323.733 153.572 323.793 153.372V153.372C324.268 151.808 326.521 151.923 326.833 153.528L327.092 154.861C327.289 155.876 328.535 156.265 329.274 155.543V155.543C329.408 155.413 329.511 155.255 329.578 155.082L331.402 150.365V150.365C332.106 149.099 333.991 149.326 334.375 150.723L334.91 152.67C335.124 153.449 335.709 154.072 336.473 154.334L336.668 154.401C337.004 154.516 337.315 154.694 337.586 154.924L339.102 156.215L339.64 156.766C340.499 157.645 341.759 158.002 342.952 157.705V157.705V157.705C344.059 157.55 345.115 158.225 345.437 159.296L346.802 163.825L348.039 168.205C348.301 169.129 349.539 169.297 350.038 168.476V168.476C350.369 167.93 351.095 167.781 351.615 168.151L352.06 168.467C352.392 168.704 352.622 169.057 352.703 169.457L354.225 176.955C354.405 177.84 354.855 178.647 355.513 179.266L355.936 179.664C356.257 179.965 356.655 180.17 357.087 180.256V180.256C357.874 180.411 358.527 180.959 358.817 181.707L359.736 184.08C359.985 184.723 360.823 184.882 361.29 184.375V184.375C361.731 183.896 362.514 184.006 362.807 184.587L362.901 184.773C363.34 185.644 364.619 185.528 364.894 184.592L365.88 181.23C365.993 180.846 366.197 180.495 366.476 180.208L367.81 178.837C367.92 178.723 368.01 178.592 368.076 178.448V178.448C368.636 177.219 370.445 177.445 370.686 178.774L371.006 180.538C371.251 181.889 373.101 182.099 373.643 180.838V180.838C373.715 180.671 373.818 180.52 373.948 180.393L375.677 178.705" stroke="url(#paint1_linear_586_2949)" stroke-width="1.5" stroke-linecap="round" stroke-linejoin="round"/>
<path d="M379.194 178.976C382.843 196.091 406.998 225.5 453.499 237.5C499.999 249.5 554 248.5 554 248.5" stroke="#B8FFDF" stroke-linecap="square" stroke-dasharray="2 2"/>
<path d="M98.92 32.46V47H96.66V32.46H98.92ZM102.36 41.9H98.38V39.88H101.88C102.8 39.88 103.5 39.64 103.98 39.16C104.473 38.6667 104.72 37.9933 104.72 37.14C104.72 36.2867 104.473 35.6333 103.98 35.18C103.5 34.7133 102.813 34.48 101.92 34.48H98.04V32.46H102.36C103.32 32.46 104.153 32.66 104.86 33.06C105.567 33.4467 106.113 33.9933 106.5 34.7C106.9 35.4067 107.1 36.2267 107.1 37.16C107.1 38.08 106.9 38.9 106.5 39.62C106.113 40.3267 105.567 40.8867 104.86 41.3C104.153 41.7 103.32 41.9 102.36 41.9ZM114.837 37.12V39.1H113.977C113.083 39.1 112.377 39.3467 111.857 39.84C111.35 40.3333 111.097 41.06 111.097 42.02V47H108.957V37.18H110.977L111.157 39.2H110.957C111.09 38.5467 111.403 38.0133 111.897 37.6C112.39 37.1867 113.03 36.98 113.817 36.98C113.977 36.98 114.137 36.9933 114.297 37.02C114.47 37.0333 114.65 37.0667 114.837 37.12ZM116.554 47V37.18H118.694V47H116.554ZM117.614 35.02C117.241 35.02 116.921 34.8867 116.654 34.62C116.388 34.3533 116.254 34.0333 116.254 33.66C116.254 33.2867 116.388 32.9667 116.654 32.7C116.921 32.4333 117.241 32.3 117.614 32.3C117.988 32.3 118.308 32.4333 118.574 32.7C118.841 32.9667 118.974 33.2867 118.974 33.66C118.974 34.0333 118.841 34.3533 118.574 34.62C118.308 34.8867 117.988 35.02 117.614 35.02ZM120.72 42.08C120.72 41.0533 120.926 40.1533 121.34 39.38C121.753 38.6067 122.32 38 123.04 37.56C123.773 37.1067 124.626 36.88 125.6 36.88C126.88 36.88 127.94 37.22 128.78 37.9C129.62 38.5667 130.113 39.4733 130.26 40.62H128.08C127.933 40.02 127.646 39.5733 127.22 39.28C126.793 38.9733 126.273 38.82 125.66 38.82C125.113 38.82 124.626 38.9533 124.2 39.22C123.786 39.4867 123.46 39.86 123.22 40.34C122.993 40.82 122.88 41.4 122.88 42.08C122.88 42.7333 122.986 43.3067 123.2 43.8C123.426 44.28 123.74 44.6533 124.14 44.92C124.553 45.1867 125.04 45.32 125.6 45.32C126.24 45.32 126.78 45.1667 127.22 44.86C127.66 44.54 127.953 44.1 128.1 43.54H130.26C130.153 44.2733 129.886 44.92 129.46 45.48C129.033 46.0267 128.486 46.46 127.82 46.78C127.153 47.1 126.413 47.26 125.6 47.26C124.613 47.26 123.753 47.0467 123.02 46.62C122.286 46.18 121.72 45.5733 121.32 44.8C120.92 44.0267 120.72 43.12 120.72 42.08ZM136.499 47.26C135.526 47.26 134.666 47.04 133.919 46.6C133.186 46.16 132.606 45.5533 132.179 44.78C131.766 43.9933 131.559 43.0933 131.559 42.08C131.559 41.0533 131.759 40.1533 132.159 39.38C132.573 38.6067 133.146 38 133.879 37.56C134.613 37.1067 135.459 36.88 136.419 36.88C137.379 36.88 138.206 37.0867 138.899 37.5C139.606 37.9 140.153 38.4733 140.539 39.22C140.939 39.9533 141.139 40.82 141.139 41.82V42.54L132.699 42.56L132.739 41.16H138.979C138.979 40.4 138.746 39.8 138.279 39.36C137.826 38.9067 137.206 38.68 136.419 38.68C135.819 38.68 135.306 38.8067 134.879 39.06C134.466 39.3133 134.146 39.6933 133.919 40.2C133.706 40.6933 133.599 41.3 133.599 42.02C133.599 43.14 133.846 43.9933 134.339 44.58C134.846 45.1667 135.579 45.46 136.539 45.46C137.233 45.46 137.806 45.3267 138.259 45.06C138.713 44.7933 139.006 44.4 139.139 43.88H141.159C140.933 44.9333 140.406 45.76 139.579 46.36C138.766 46.96 137.739 47.26 136.499 47.26ZM151.145 47H148.945V32.46H151.145L155.985 44.36L160.845 32.46H163.065V47H160.865V41.88C160.865 41.1733 160.865 40.58 160.865 40.1C160.878 39.6067 160.885 39.1867 160.885 38.84C160.898 38.4933 160.912 38.1867 160.925 37.92C160.952 37.6533 160.978 37.3867 161.005 37.12L157.045 47H154.945L150.985 37.14C151.052 37.54 151.092 38.0933 151.105 38.8C151.132 39.4933 151.145 40.3267 151.145 41.3V47ZM165.427 42.08C165.427 41.0533 165.647 40.1533 166.087 39.38C166.54 38.6067 167.16 38 167.947 37.56C168.733 37.12 169.627 36.9 170.627 36.9C171.627 36.9 172.513 37.12 173.287 37.56C174.06 38 174.673 38.6067 175.127 39.38C175.58 40.1533 175.807 41.0533 175.807 42.08C175.807 43.0933 175.58 43.9867 175.127 44.76C174.673 45.5333 174.06 46.14 173.287 46.58C172.513 47.02 171.627 47.24 170.627 47.24C169.627 47.24 168.733 47.02 167.947 46.58C167.16 46.14 166.54 45.5333 166.087 44.76C165.647 43.9867 165.427 43.0933 165.427 42.08ZM167.587 42.06C167.587 42.7 167.713 43.2667 167.967 43.76C168.233 44.24 168.593 44.62 169.047 44.9C169.5 45.1667 170.027 45.3 170.627 45.3C171.213 45.3 171.733 45.1667 172.187 44.9C172.64 44.62 172.993 44.24 173.247 43.76C173.5 43.2667 173.627 42.7 173.627 42.06C173.627 41.42 173.5 40.86 173.247 40.38C172.993 39.9 172.64 39.5267 172.187 39.26C171.733 38.98 171.213 38.84 170.627 38.84C170.027 38.84 169.5 38.98 169.047 39.26C168.593 39.5267 168.233 39.9 167.967 40.38C167.713 40.86 167.587 41.42 167.587 42.06ZM180.096 47L176.156 37.18H178.476L180.396 42.16C180.582 42.6933 180.749 43.18 180.896 43.62C181.042 44.06 181.149 44.42 181.216 44.7C181.309 44.38 181.429 44 181.576 43.56C181.736 43.12 181.909 42.6533 182.096 42.16L184.096 37.18H186.316L182.236 47H180.096ZM191.656 47.26C190.682 47.26 189.822 47.04 189.076 46.6C188.342 46.16 187.762 45.5533 187.336 44.78C186.922 43.9933 186.716 43.0933 186.716 42.08C186.716 41.0533 186.916 40.1533 187.316 39.38C187.729 38.6067 188.302 38 189.036 37.56C189.769 37.1067 190.616 36.88 191.576 36.88C192.536 36.88 193.362 37.0867 194.056 37.5C194.762 37.9 195.309 38.4733 195.696 39.22C196.096 39.9533 196.296 40.82 196.296 41.82V42.54L187.856 42.56L187.896 41.16H194.136C194.136 40.4 193.902 39.8 193.436 39.36C192.982 38.9067 192.362 38.68 191.576 38.68C190.976 38.68 190.462 38.8067 190.036 39.06C189.622 39.3133 189.302 39.6933 189.076 40.2C188.862 40.6933 188.756 41.3 188.756 42.02C188.756 43.14 189.002 43.9933 189.496 44.58C190.002 45.1667 190.736 45.46 191.696 45.46C192.389 45.46 192.962 45.3267 193.416 45.06C193.869 44.7933 194.162 44.4 194.296 43.88H196.316C196.089 44.9333 195.562 45.76 194.736 46.36C193.922 46.96 192.896 47.26 191.656 47.26ZM200.472 47H198.332V37.18H200.292L200.552 38.96L200.292 38.74C200.492 38.2333 200.858 37.8 201.392 37.44C201.938 37.0667 202.605 36.88 203.392 36.88C204.258 36.88 204.972 37.1133 205.532 37.58C206.092 38.0333 206.472 38.64 206.672 39.4H206.292C206.438 38.64 206.812 38.0333 207.412 37.58C208.025 37.1133 208.765 36.88 209.632 36.88C210.792 36.88 211.692 37.2133 212.332 37.88C212.972 38.5333 213.292 39.4333 213.292 40.58V47H211.152V41.12C211.152 40.3867 210.965 39.8267 210.592 39.44C210.232 39.04 209.738 38.84 209.112 38.84C208.685 38.84 208.305 38.9333 207.972 39.12C207.638 39.3067 207.372 39.5867 207.172 39.96C206.985 40.32 206.892 40.7667 206.892 41.3V47H204.752V41.1C204.752 40.3667 204.565 39.8067 204.192 39.42C203.832 39.0333 203.338 38.84 202.712 38.84C202.285 38.84 201.898 38.94 201.552 39.14C201.218 39.3267 200.952 39.6 200.752 39.96C200.565 40.32 200.472 40.7667 200.472 41.3V47ZM220.132 47.26C219.159 47.26 218.299 47.04 217.552 46.6C216.819 46.16 216.239 45.5533 215.812 44.78C215.399 43.9933 215.192 43.0933 215.192 42.08C215.192 41.0533 215.392 40.1533 215.792 39.38C216.206 38.6067 216.779 38 217.512 37.56C218.246 37.1067 219.092 36.88 220.052 36.88C221.012 36.88 221.839 37.0867 222.532 37.5C223.239 37.9 223.786 38.4733 224.172 39.22C224.572 39.9533 224.772 40.82 224.772 41.82V42.54L216.332 42.56L216.372 41.16H222.612C222.612 40.4 222.379 39.8 221.912 39.36C221.459 38.9067 220.839 38.68 220.052 38.68C219.452 38.68 218.939 38.8067 218.512 39.06C218.099 39.3133 217.779 39.6933 217.552 40.2C217.339 40.6933 217.232 41.3 217.232 42.02C217.232 43.14 217.479 43.9933 217.972 44.58C218.479 45.1667 219.212 45.46 220.172 45.46C220.866 45.46 221.439 45.3267 221.892 45.06C222.346 44.7933 222.639 44.4 222.772 43.88H224.792C224.566 44.9333 224.039 45.76 223.212 46.36C222.399 46.96 221.372 47.26 220.132 47.26ZM228.948 47H226.808V37.18H228.768L228.968 38.56C229.288 38.0267 229.728 37.6133 230.288 37.32C230.862 37.0267 231.495 36.88 232.188 36.88C233.442 36.88 234.375 37.2467 234.988 37.98C235.615 38.7133 235.928 39.7067 235.928 40.96V47H233.788V41.46C233.788 40.5667 233.582 39.9067 233.168 39.48C232.768 39.0533 232.228 38.84 231.548 38.84C230.735 38.84 230.095 39.1067 229.628 39.64C229.175 40.16 228.948 40.86 228.948 41.74V47ZM237.429 37.18H243.409V38.98H237.429V37.18ZM241.489 47H239.349V34.1H241.489V47Z" fill="#E5ECF1"/>
<rect x="629.5" y="31.5" width="15" height="15" rx="7.5" fill="#44444A"/>
<path fill-rule="evenodd" clip-rule="evenodd" d="M637.677 35.3976C637.677 35.9156 637.267 36.3329 636.742 36.3329C636.224 36.3329 635.807 35.9156 635.807 35.3976C635.807 34.8724 636.224 34.4551 636.742 34.4551C637.267 34.4551 637.677 34.8724 637.677 35.3976ZM639 42.3464C639 42.6414 638.77 42.8501 638.475 42.8501H635.547C635.252 42.8501 635.021 42.6414 635.021 42.3464C635.021 42.0658 635.252 41.8428 635.547 41.8428H636.439L636.439 38.5405H635.669C635.374 38.5405 635.144 38.3318 635.144 38.0368C635.144 37.7562 635.374 37.5332 635.669 37.5332H637.022C637.389 37.5332 637.583 37.7922 637.583 38.1807L637.583 41.8428H638.475C638.77 41.8428 639 42.0658 639 42.3464Z" fill="#9EA9B1"/>
<rect x="629.5" y="31.5" width="15" height="15" rx="7.5" stroke="#5B5B63"/>
<line x1="95.75" y1="338.25" x2="145.25" y2="338.25" stroke="url(#paint2_linear_586_2949)" stroke-width="1.5" stroke-linecap="round" stroke-linejoin="round"/>
<path d="M160.015 340.662C161.566 340.662 162.578 339.584 162.578 338.099C162.578 336.57 161.577 335.547 160.015 335.547H156.924V343.5H158.002V340.662H160.015ZM159.828 336.515C160.84 336.515 161.445 337.087 161.445 338.088C161.445 339.067 160.851 339.694 159.784 339.694H158.002V336.515H159.828ZM166.703 338.077C166.494 338.033 166.34 338.011 166.153 338.011C165.416 338.011 164.877 338.385 164.657 338.946L164.591 338.132H163.623V343.5H164.657V340.651C164.657 339.617 165.262 339.023 166.241 339.023H166.703V338.077ZM168.179 336.845C168.553 336.845 168.861 336.537 168.861 336.163C168.861 335.778 168.553 335.481 168.179 335.481C167.805 335.481 167.497 335.778 167.497 336.163C167.497 336.537 167.805 336.845 168.179 336.845ZM167.673 343.5H168.707V338.121H167.673V343.5ZM169.856 340.816C169.856 342.51 170.901 343.632 172.485 343.632C173.783 343.632 174.784 342.851 174.993 341.685H173.959C173.772 342.323 173.222 342.708 172.485 342.708C171.506 342.708 170.879 341.96 170.879 340.805C170.879 339.639 171.55 338.891 172.529 338.891C173.222 338.891 173.772 339.254 173.948 339.936H174.982C174.795 338.737 173.849 337.967 172.496 337.967C170.923 337.967 169.856 339.133 169.856 340.816ZM178.405 343.632C179.736 343.632 180.638 342.983 180.902 341.828H179.934C179.758 342.444 179.23 342.774 178.427 342.774C177.404 342.774 176.81 342.147 176.733 341.014L180.891 341.003V340.618C180.891 339.023 179.89 337.967 178.361 337.967C176.799 337.967 175.732 339.133 175.732 340.816C175.732 342.488 176.821 343.632 178.405 343.632ZM178.361 338.836C179.274 338.836 179.857 339.43 179.857 340.321H176.755C176.887 339.375 177.459 338.836 178.361 338.836ZM186.308 343.5V339.969H190.246V343.5H191.324V335.547H190.246V338.968H186.308V335.547H185.23V343.5H186.308ZM193.498 336.845C193.872 336.845 194.18 336.537 194.18 336.163C194.18 335.778 193.872 335.481 193.498 335.481C193.124 335.481 192.816 335.778 192.816 336.163C192.816 336.537 193.124 336.845 193.498 336.845ZM192.992 343.5H194.026V338.121H192.992V343.5ZM195.087 341.938C195.087 342.961 195.89 343.632 197.155 343.632C198.431 343.632 199.311 342.983 199.311 341.96C199.311 341.157 198.86 340.739 197.947 340.519L197.001 340.288C196.473 340.156 196.209 339.914 196.209 339.551C196.209 339.056 196.572 338.77 197.221 338.77C197.848 338.77 198.211 339.111 198.233 339.65H199.223C199.201 338.627 198.431 337.967 197.254 337.967C196.066 337.967 195.23 338.594 195.23 339.584C195.23 340.376 195.681 340.849 196.638 341.08L197.584 341.3C198.145 341.443 198.321 341.663 198.321 342.026C198.321 342.521 197.903 342.818 197.177 342.818C196.495 342.818 196.077 342.488 196.077 341.938H195.087ZM201.976 343.5V338.99H203.032V338.121H201.976V336.438H200.942V338.121H199.886V338.99H200.942V343.5H201.976ZM203.554 340.805C203.554 342.466 204.742 343.632 206.359 343.632C207.965 343.632 209.153 342.466 209.153 340.805C209.153 339.144 207.965 337.978 206.359 337.978C204.742 337.978 203.554 339.144 203.554 340.805ZM204.599 340.805C204.599 339.683 205.314 338.902 206.359 338.902C207.393 338.902 208.119 339.683 208.119 340.805C208.119 341.927 207.393 342.708 206.359 342.708C205.314 342.708 204.599 341.927 204.599 340.805ZM213.378 338.077C213.169 338.033 213.015 338.011 212.828 338.011C212.091 338.011 211.552 338.385 211.332 338.946L211.266 338.132H210.298V343.5H211.332V340.651C211.332 339.617 211.937 339.023 212.916 339.023H213.378V338.077ZM213.992 345.909C214.267 345.975 214.553 346.019 214.894 346.019C215.719 346.019 216.258 345.634 216.621 344.71L219.162 338.121H218.095L216.5 342.455L214.938 338.121H213.849L216.016 343.786L215.829 344.303C215.576 344.985 215.18 345.062 214.685 345.062H213.992V345.909Z" fill="#787E82"/>
<line x1="265" y1="339" x2="316" y2="339" stroke="#B8FFDF" stroke-dasharray="2 2"/>
<path d="M331.126 340.123V339.144H328.002V336.537H331.72V335.547H326.924V343.5H328.002V340.123H331.126ZM336.235 338.121V340.959C336.235 342.114 335.718 342.719 334.772 342.719C333.98 342.719 333.485 342.279 333.485 341.124V338.121H332.451V341.465C332.451 342.785 333.155 343.632 334.409 343.632C335.201 343.632 335.916 343.247 336.224 342.686L336.334 343.5H337.258V338.121H336.235ZM340.276 343.5V338.99H341.332V338.121H340.276V336.438H339.242V338.121H338.186V338.99H339.242V343.5H340.276ZM345.978 338.121V340.959C345.978 342.114 345.461 342.719 344.515 342.719C343.723 342.719 343.228 342.279 343.228 341.124V338.121H342.194V341.465C342.194 342.785 342.898 343.632 344.152 343.632C344.944 343.632 345.659 343.247 345.967 342.686L346.077 343.5H347.001V338.121H345.978ZM351.581 338.077C351.372 338.033 351.218 338.011 351.031 338.011C350.294 338.011 349.755 338.385 349.535 338.946L349.469 338.132H348.501V343.5H349.535V340.651C349.535 339.617 350.14 339.023 351.119 339.023H351.581V338.077ZM354.678 343.632C356.009 343.632 356.911 342.983 357.175 341.828H356.207C356.031 342.444 355.503 342.774 354.7 342.774C353.677 342.774 353.083 342.147 353.006 341.014L357.164 341.003V340.618C357.164 339.023 356.163 337.967 354.634 337.967C353.072 337.967 352.005 339.133 352.005 340.816C352.005 342.488 353.094 343.632 354.678 343.632ZM354.634 338.836C355.547 338.836 356.13 339.43 356.13 340.321H353.028C353.16 339.375 353.732 338.836 354.634 338.836ZM361.327 345.909H362.361V342.62C362.713 343.28 363.428 343.643 364.286 343.643C365.881 343.643 366.783 342.411 366.783 340.772C366.783 339.122 365.826 337.967 364.286 337.967C363.428 337.967 362.702 338.352 362.339 339.089L362.262 338.121H361.327V345.909ZM362.372 340.816C362.372 339.694 363.01 338.913 364.066 338.913C365.122 338.913 365.749 339.705 365.749 340.816C365.749 341.916 365.122 342.708 364.066 342.708C363.01 342.708 362.372 341.916 362.372 340.816ZM371.003 338.077C370.794 338.033 370.64 338.011 370.453 338.011C369.716 338.011 369.177 338.385 368.957 338.946L368.891 338.132H367.923V343.5H368.957V340.651C368.957 339.617 369.562 339.023 370.541 339.023H371.003V338.077ZM372.479 336.845C372.853 336.845 373.161 336.537 373.161 336.163C373.161 335.778 372.853 335.481 372.479 335.481C372.105 335.481 371.797 335.778 371.797 336.163C371.797 336.537 372.105 336.845 372.479 336.845ZM371.973 343.5H373.007V338.121H371.973V343.5ZM374.156 340.816C374.156 342.51 375.201 343.632 376.785 343.632C378.083 343.632 379.084 342.851 379.293 341.685H378.259C378.072 342.323 377.522 342.708 376.785 342.708C375.806 342.708 375.179 341.96 375.179 340.805C375.179 339.639 375.85 338.891 376.829 338.891C377.522 338.891 378.072 339.254 378.248 339.936H379.282C379.095 338.737 378.149 337.967 376.796 337.967C375.223 337.967 374.156 339.133 374.156 340.816ZM382.705 343.632C384.036 343.632 384.938 342.983 385.202 341.828H384.234C384.058 342.444 383.53 342.774 382.727 342.774C381.704 342.774 381.11 342.147 381.033 341.014L385.191 341.003V340.618C385.191 339.023 384.19 337.967 382.661 337.967C381.099 337.967 380.032 339.133 380.032 340.816C380.032 342.488 381.121 343.632 382.705 343.632ZM382.661 338.836C383.574 338.836 384.157 339.43 384.157 340.321H381.055C381.187 339.375 381.759 338.836 382.661 338.836Z" fill="#787E82"/>
<rect x="95" y="367.5" width="527" height="8" rx="4" fill="#DAFFEE" fill-opacity="0.06"/>
<rect x="95" y="385.5" width="527" height="8" rx="4" fill="#DAFFEE" fill-opacity="0.06"/>
<rect x="95" y="403.5" width="398" height="8" rx="4" fill="#DAFFEE" fill-opacity="0.06"/>
<rect x="95" y="421.5" width="154" height="8" rx="4" fill="#DAFFEE" fill-opacity="0.06"/>
<rect x="65.4481" y="5.44815" width="606.104" height="462.26" rx="17.4778" stroke="white" stroke-opacity="0.06" stroke-width="0.896296" shape-rendering="crispEdges"/>
</g>
<defs>
<filter id="filter0_d_586_2949" x="0.77037" y="0.77037" width="689.459" height="545.616" filterUnits="userSpaceOnUse" color-interpolation-filters="sRGB">
<feFlood flood-opacity="0" result="BackgroundImageFix"/>
<feColorMatrix in="SourceAlpha" type="matrix" values="0 0 0 0 0 0 0 0 0 0 0 0 0 0 0 0 0 0 127 0" result="hardAlpha"/>
<feOffset dx="-23" dy="37"/>
<feGaussianBlur stdDeviation="20.6148"/>
<feComposite in2="hardAlpha" operator="out"/>
<feColorMatrix type="matrix" values="0 0 0 0 0 0 0 0 0 0 0 0 0 0 0 0 0 0 0.26 0"/>
<feBlend mode="normal" in2="BackgroundImageFix" result="effect1_dropShadow_586_2949"/>
<feBlend mode="normal" in="SourceGraphic" in2="effect1_dropShadow_586_2949" result="shape"/>
</filter>
<linearGradient id="paint0_linear_586_2949" x1="368.5" y1="5" x2="368.5" y2="468.157" gradientUnits="userSpaceOnUse">
<stop stop-color="#1C2527"/>
<stop offset="0.8073" stop-color="#14161A"/>
<stop offset="1" stop-color="#121316"/>
</linearGradient>
<linearGradient id="paint1_linear_586_2949" x1="419" y1="135" x2="361" y2="302" gradientUnits="userSpaceOnUse">
<stop stop-color="#4FFFB0"/>
<stop offset="0.463556" stop-color="#B3FF8F"/>
<stop offset="1" stop-color="#FF984E"/>
</linearGradient>
<linearGradient id="paint2_linear_586_2949" x1="138.5" y1="339.5" x2="97.5" y2="342.5" gradientUnits="userSpaceOnUse">
<stop stop-color="#4FFFB0"/>
<stop offset="0.463556" stop-color="#B3FF8F"/>
<stop offset="1" stop-color="#FF984E"/>
</linearGradient>
</defs>
</svg>
