<svg width="548" height="440" viewBox="0 0 548 440" fill="none" xmlns="http://www.w3.org/2000/svg">
<g filter="url(#filter0_d_732_15104)">
<rect x="61.5" y="5" width="607" height="463.157" rx="17.9259" fill="url(#paint0_linear_732_15104)" shape-rendering="crispEdges"/>
<path d="M102.146 218.755C102.146 216.922 100.872 215.726 99.117 215.726C97.31 215.726 96.101 216.909 96.101 218.755V222.408H105.5V221.134H102.146V218.755ZM97.245 218.976C97.245 217.78 97.921 217.065 99.104 217.065C100.261 217.065 101.002 217.767 101.002 219.028V221.134H97.245V218.976ZM99.091 210.351C99.039 210.598 99.013 210.78 99.013 211.001C99.013 211.872 99.455 212.509 100.118 212.769L99.156 212.847V213.991H105.5V212.769H102.133C100.911 212.769 100.209 212.054 100.209 210.897V210.351H99.091ZM97.635 208.107C97.635 207.665 97.271 207.301 96.829 207.301C96.374 207.301 96.023 207.665 96.023 208.107C96.023 208.549 96.374 208.913 96.829 208.913C97.271 208.913 97.635 208.549 97.635 208.107ZM105.5 208.705V207.483H99.143V208.705H105.5ZM102.328 205.625C104.33 205.625 105.656 204.39 105.656 202.518C105.656 200.984 104.733 199.801 103.355 199.554V200.776C104.109 200.997 104.564 201.647 104.564 202.518C104.564 203.675 103.68 204.416 102.315 204.416C100.937 204.416 100.053 203.623 100.053 202.466C100.053 201.647 100.482 200.997 101.288 200.789V199.567C99.871 199.788 98.961 200.906 98.961 202.505C98.961 204.364 100.339 205.625 102.328 205.625ZM105.656 195.021C105.656 193.448 104.889 192.382 103.524 192.07V193.214C104.252 193.422 104.642 194.046 104.642 194.995C104.642 196.204 103.901 196.906 102.562 196.997L102.549 192.083H102.094C100.209 192.083 98.961 193.266 98.961 195.073C98.961 196.919 100.339 198.18 102.328 198.18C104.304 198.18 105.656 196.893 105.656 195.021ZM99.988 195.073C99.988 193.994 100.69 193.305 101.743 193.305V196.971C100.625 196.815 99.988 196.139 99.988 195.073ZM97.635 185.566C97.635 185.124 97.271 184.76 96.829 184.76C96.374 184.76 96.023 185.124 96.023 185.566C96.023 186.008 96.374 186.372 96.829 186.372C97.271 186.372 97.635 186.008 97.635 185.566ZM105.5 186.164V184.942H99.143V186.164H105.5ZM105.5 181.446H102.133C100.898 181.446 100.079 180.783 100.079 179.639C100.079 178.703 100.599 178.105 101.886 178.105H105.5V176.883H101.613C99.988 176.883 98.961 177.65 98.961 179.327C98.961 180.224 99.39 181.03 100.118 181.433L99.143 181.563V182.668H105.5V181.446ZM102.159 170.493C104.33 170.493 105.656 169.115 105.656 166.892C105.656 164.682 104.317 163.304 102.159 163.304H96.101V164.591H102.081C103.576 164.591 104.421 165.41 104.421 166.892C104.421 168.387 103.589 169.219 102.081 169.219H96.101V170.493H102.159ZM98.636 161.231C99.988 161.231 100.872 160.438 101.223 158.904L101.574 157.357C101.782 156.46 102.25 156.057 102.991 156.057C103.927 156.057 104.512 156.85 104.512 158.098C104.512 159.281 103.94 160.035 103.043 160.061V161.361C104.655 161.283 105.656 160.009 105.656 158.098C105.656 156.096 104.577 154.783 102.887 154.783C101.561 154.783 100.729 155.563 100.378 157.097L100.014 158.644C99.806 159.528 99.351 159.957 98.597 159.957C97.674 159.957 97.076 159.19 97.076 158.007C97.076 156.954 97.622 156.291 98.558 156.226V154.939C96.933 155.043 95.932 156.2 95.932 157.994C95.932 159.931 97.024 161.231 98.636 161.231ZM105.5 149.575C105.5 146.793 103.602 144.921 100.807 144.921C97.999 144.921 96.101 146.819 96.101 149.627V152.682H105.5V149.575ZM97.271 149.718C97.271 147.573 98.623 146.247 100.807 146.247C102.965 146.247 104.317 147.573 104.317 149.666V151.408H97.271V149.718Z" fill="#F0DA73"/>
<rect x="174.5" y="84.25" width="1" height="177" fill="white" fill-opacity="0.12"/>
<rect x="261.5" y="84.25" width="1" height="177" fill="white" fill-opacity="0.12"/>
<rect x="348.5" y="84.25" width="1" height="177" fill="white" fill-opacity="0.12"/>
<rect x="435.5" y="84.25" width="1" height="177" fill="white" fill-opacity="0.12"/>
<rect x="522.5" y="84.25" width="1" height="177" fill="white" fill-opacity="0.12"/>
<rect x="157.5" y="216" width="1" height="481" transform="rotate(-90 157.5 216)" fill="white" fill-opacity="0.12"/>
<rect x="157.5" y="174" width="1" height="481" transform="rotate(-90 157.5 174)" fill="white" fill-opacity="0.12"/>
<rect x="157.5" y="132" width="1" height="481" transform="rotate(-90 157.5 132)" fill="white" fill-opacity="0.12"/>
<path d="M171.137 279.307C171.137 282.232 172.58 284.169 175.011 284.169C177.429 284.169 178.872 282.232 178.872 279.307C178.872 276.395 177.364 274.419 175.011 274.419C172.645 274.419 171.137 276.395 171.137 279.307ZM172.398 279.307C172.398 276.967 173.36 275.563 175.011 275.563C176.662 275.563 177.611 276.967 177.611 279.307C177.611 281.621 176.662 283.025 175.011 283.025C173.36 283.025 172.398 281.621 172.398 279.307Z" fill="white"/>
<path d="M260.296 284.156C262.324 284.156 263.715 282.791 263.715 280.841C263.715 279.034 262.48 277.695 260.569 277.695C259.867 277.695 259.243 277.89 258.749 278.267L259.373 275.771H263.156V274.601H258.45L257.306 279.424L258.385 279.697C258.814 279.164 259.542 278.787 260.335 278.787C261.648 278.787 262.415 279.684 262.415 280.893C262.415 282.167 261.596 283.012 260.322 283.012C259.126 283.012 258.385 282.271 258.385 281.062H257.124C257.124 282.934 258.372 284.156 260.296 284.156Z" fill="white"/>
<path d="M342.931 275.745V284H344.153V274.601H340.955V275.745H342.931ZM346.372 279.307C346.372 282.232 347.815 284.169 350.246 284.169C352.664 284.169 354.107 282.232 354.107 279.307C354.107 276.395 352.599 274.419 350.246 274.419C347.88 274.419 346.372 276.395 346.372 279.307ZM347.633 279.307C347.633 276.967 348.595 275.563 350.246 275.563C351.897 275.563 352.846 276.967 352.846 279.307C352.846 281.621 351.897 283.025 350.246 283.025C348.595 283.025 347.633 281.621 347.633 279.307Z" fill="white"/>
<path d="M433.931 275.745V284H435.153V274.601H431.955V275.745H433.931ZM440.481 284.156C442.509 284.156 443.9 282.791 443.9 280.841C443.9 279.034 442.665 277.695 440.754 277.695C440.052 277.695 439.428 277.89 438.934 278.267L439.558 275.771H443.341V274.601H438.635L437.491 279.424L438.57 279.697C438.999 279.164 439.727 278.787 440.52 278.787C441.833 278.787 442.6 279.684 442.6 280.893C442.6 282.167 441.781 283.012 440.507 283.012C439.311 283.012 438.57 282.271 438.57 281.062H437.309C437.309 282.934 438.557 284.156 440.481 284.156Z" fill="white"/>
<path d="M527.442 283.987V282.804H523.1L525.05 281.114C526.714 279.671 527.377 278.722 527.377 277.383C527.377 275.576 526.168 274.432 524.283 274.432C522.372 274.432 521.098 275.745 521.059 277.76H522.333C522.359 276.421 523.113 275.576 524.27 275.576C525.401 275.576 526.077 276.278 526.077 277.461C526.077 278.462 525.648 279.099 524.127 280.412L521.098 283.025V284L527.442 283.987ZM529.115 279.307C529.115 282.232 530.558 284.169 532.989 284.169C535.407 284.169 536.85 282.232 536.85 279.307C536.85 276.395 535.342 274.419 532.989 274.419C530.623 274.419 529.115 276.395 529.115 279.307ZM530.376 279.307C530.376 276.967 531.338 275.563 532.989 275.563C534.64 275.563 535.589 276.967 535.589 279.307C535.589 281.621 534.64 283.025 532.989 283.025C531.338 283.025 530.376 281.621 530.376 279.307Z" fill="white"/>
<path d="M336.699 304.25C339.481 304.25 341.353 302.352 341.353 299.557C341.353 296.749 339.455 294.851 336.647 294.851H333.592V304.25H336.699ZM336.556 296.021C338.701 296.021 340.027 297.373 340.027 299.557C340.027 301.715 338.701 303.067 336.608 303.067H334.866V296.021H336.556ZM345.125 304.406C346.152 304.406 347.023 303.951 347.348 303.223L347.478 304.25H348.518V300.259C348.518 298.543 347.452 297.711 345.879 297.711C344.241 297.711 343.149 298.582 343.149 299.908H344.215C344.215 299.141 344.8 298.686 345.827 298.686C346.685 298.686 347.322 299.063 347.322 300.129V300.311L345.32 300.467C343.825 300.584 342.954 301.312 342.954 302.482C342.954 303.639 343.76 304.406 345.125 304.406ZM345.476 303.457C344.683 303.457 344.189 303.119 344.189 302.443C344.189 301.819 344.631 301.403 345.71 301.299L347.335 301.169V301.507C347.335 302.703 346.633 303.457 345.476 303.457ZM349.947 307.097C350.272 307.175 350.61 307.227 351.013 307.227C351.988 307.227 352.625 306.772 353.054 305.68L356.057 297.893H354.796L352.911 303.015L351.065 297.893H349.778L352.339 304.588L352.118 305.199C351.819 306.005 351.351 306.096 350.766 306.096H349.947V307.097ZM356.924 302.404C356.924 303.613 357.873 304.406 359.368 304.406C360.876 304.406 361.916 303.639 361.916 302.43C361.916 301.481 361.383 300.987 360.304 300.727L359.186 300.454C358.562 300.298 358.25 300.012 358.25 299.583C358.25 298.998 358.679 298.66 359.446 298.66C360.187 298.66 360.616 299.063 360.642 299.7H361.812C361.786 298.491 360.876 297.711 359.485 297.711C358.081 297.711 357.093 298.452 357.093 299.622C357.093 300.558 357.626 301.117 358.757 301.39L359.875 301.65C360.538 301.819 360.746 302.079 360.746 302.508C360.746 303.093 360.252 303.444 359.394 303.444C358.588 303.444 358.094 303.054 358.094 302.404H356.924Z" fill="#F0DA73"/>
<path d="M132.931 86.745V95H134.153V85.601H130.955V86.745H132.931ZM137.529 95.156C138.023 95.156 138.452 94.74 138.452 94.246C138.452 93.739 138.023 93.323 137.529 93.323C137.022 93.323 136.593 93.739 136.593 94.246C136.593 94.74 137.022 95.156 137.529 95.156ZM139.932 90.307C139.932 93.232 141.375 95.169 143.806 95.169C146.224 95.169 147.667 93.232 147.667 90.307C147.667 87.395 146.159 85.419 143.806 85.419C141.44 85.419 139.932 87.395 139.932 90.307ZM141.193 90.307C141.193 87.967 142.155 86.563 143.806 86.563C145.457 86.563 146.406 87.967 146.406 90.307C146.406 92.621 145.457 94.025 143.806 94.025C142.155 94.025 141.193 92.621 141.193 90.307Z" fill="white"/>
<path d="M127.137 132.557C127.137 135.482 128.58 137.419 131.011 137.419C133.429 137.419 134.872 135.482 134.872 132.557C134.872 129.645 133.364 127.669 131.011 127.669C128.645 127.669 127.137 129.645 127.137 132.557ZM128.398 132.557C128.398 130.217 129.36 128.813 131.011 128.813C132.662 128.813 133.611 130.217 133.611 132.557C133.611 134.871 132.662 136.275 131.011 136.275C129.36 136.275 128.398 134.871 128.398 132.557ZM137.274 137.406C137.768 137.406 138.197 136.99 138.197 136.496C138.197 135.989 137.768 135.573 137.274 135.573C136.767 135.573 136.338 135.989 136.338 136.496C136.338 136.99 136.767 137.406 137.274 137.406ZM140.045 134.637C140.045 136.301 141.41 137.406 143.503 137.406C145.583 137.406 146.961 136.301 146.961 134.65C146.961 133.493 146.285 132.557 145.232 132.219C146.116 131.868 146.61 131.127 146.61 130.165C146.61 128.683 145.362 127.682 143.516 127.682C141.644 127.682 140.383 128.683 140.383 130.152C140.383 131.101 140.864 131.842 141.748 132.219C140.708 132.596 140.045 133.506 140.045 134.637ZM141.553 130.23C141.553 129.359 142.32 128.787 143.49 128.787C144.673 128.787 145.414 129.359 145.414 130.256C145.414 131.166 144.673 131.751 143.49 131.751C142.32 131.751 141.553 131.153 141.553 130.23ZM141.293 134.546C141.293 133.506 142.151 132.843 143.49 132.843C144.842 132.843 145.7 133.506 145.7 134.546C145.7 135.599 144.829 136.275 143.503 136.275C142.164 136.275 141.293 135.599 141.293 134.546Z" fill="white"/>
<path d="M128.137 174.807C128.137 177.732 129.58 179.669 132.011 179.669C134.429 179.669 135.872 177.732 135.872 174.807C135.872 171.895 134.364 169.919 132.011 169.919C129.645 169.919 128.137 171.895 128.137 174.807ZM129.398 174.807C129.398 172.467 130.36 171.063 132.011 171.063C133.662 171.063 134.611 172.467 134.611 174.807C134.611 177.121 133.662 178.525 132.011 178.525C130.36 178.525 129.398 177.121 129.398 174.807ZM138.274 179.656C138.768 179.656 139.197 179.24 139.197 178.746C139.197 178.239 138.768 177.823 138.274 177.823C137.767 177.823 137.338 178.239 137.338 178.746C137.338 179.24 137.767 179.656 138.274 179.656ZM142.013 173.078C141.051 174.391 140.713 175.171 140.713 176.289C140.713 178.187 142.221 179.656 144.171 179.656C146.108 179.656 147.59 178.252 147.59 176.289C147.59 174.43 146.277 173.026 144.327 173.026C144.002 173.026 143.664 173.091 143.339 173.221L145.692 170.101H144.21L142.013 173.078ZM142.013 176.302C142.013 175.015 142.897 174.105 144.171 174.105C145.419 174.105 146.303 175.015 146.303 176.302C146.303 177.589 145.419 178.512 144.171 178.512C142.897 178.512 142.013 177.589 142.013 176.302Z" fill="white"/>
<path d="M127.137 217.057C127.137 219.982 128.58 221.919 131.011 221.919C133.429 221.919 134.872 219.982 134.872 217.057C134.872 214.145 133.364 212.169 131.011 212.169C128.645 212.169 127.137 214.145 127.137 217.057ZM128.398 217.057C128.398 214.717 129.36 213.313 131.011 213.313C132.662 213.313 133.611 214.717 133.611 217.057C133.611 219.371 132.662 220.775 131.011 220.775C129.36 220.775 128.398 219.371 128.398 217.057ZM137.274 221.906C137.768 221.906 138.197 221.49 138.197 220.996C138.197 220.489 137.768 220.073 137.274 220.073C136.767 220.073 136.338 220.489 136.338 220.996C136.338 221.49 136.767 221.906 137.274 221.906ZM147.001 219.852V218.721H145.883V212.351H144.232L139.799 218.721V219.852H144.661V221.75H145.883V219.852H147.001ZM141.177 218.721L144.661 213.703V218.721H141.177Z" fill="white"/>
<path d="M128.137 259.307C128.137 262.232 129.58 264.169 132.011 264.169C134.429 264.169 135.872 262.232 135.872 259.307C135.872 256.395 134.364 254.419 132.011 254.419C129.645 254.419 128.137 256.395 128.137 259.307ZM129.398 259.307C129.398 256.967 130.36 255.563 132.011 255.563C133.662 255.563 134.611 256.967 134.611 259.307C134.611 261.621 133.662 263.025 132.011 263.025C130.36 263.025 129.398 261.621 129.398 259.307ZM138.274 264.156C138.768 264.156 139.197 263.74 139.197 263.246C139.197 262.739 138.768 262.323 138.274 262.323C137.767 262.323 137.338 262.739 137.338 263.246C137.338 263.74 137.767 264.156 138.274 264.156ZM147.515 263.987V262.804H143.173L145.123 261.114C146.787 259.671 147.45 258.722 147.45 257.383C147.45 255.576 146.241 254.432 144.356 254.432C142.445 254.432 141.171 255.745 141.132 257.76H142.406C142.432 256.421 143.186 255.576 144.343 255.576C145.474 255.576 146.15 256.278 146.15 257.461C146.15 258.462 145.721 259.099 144.2 260.412L141.171 263.025V264L147.515 263.987Z" fill="white"/>
<path d="M162.352 216.435L163.921 223.862C164.134 224.87 164.961 225.634 165.983 225.767V225.767C166.128 225.786 166.275 225.791 166.422 225.784L166.547 225.777C167.541 225.726 168.5 226.147 169.134 226.914L169.452 227.3C169.833 227.76 170.395 228.032 170.992 228.045V228.045C171.614 228.058 172.209 227.787 172.609 227.31L172.85 227.022C173.44 226.317 174.478 226.196 175.214 226.747V226.747C175.604 227.039 176.099 227.153 176.578 227.061L177.443 226.894C177.648 226.855 177.857 226.834 178.065 226.83L178.963 226.816C179.417 226.809 179.846 226.609 180.143 226.265L180.494 225.858C181.036 225.23 182.036 225.323 182.454 226.041V226.041C182.926 226.853 184.103 226.839 184.557 226.017L185.452 224.395L186.914 220.688C187.219 219.914 187.674 219.207 188.253 218.609V218.609C188.942 217.897 189.455 217.032 189.749 216.085L190.848 212.543C191.097 211.741 191.521 211.004 192.088 210.385V210.385C192.784 209.626 193.261 208.692 193.468 207.684L195.077 199.845L196.129 196.592C196.704 194.815 197.658 193.185 198.927 191.815V191.815V191.815C199.897 190.968 201.407 191.274 201.971 192.432L202.667 193.86C202.74 194.01 202.824 194.154 202.92 194.29L203.862 195.635C204.363 196.351 205.267 196.665 206.104 196.413L206.2 196.384C206.479 196.3 206.732 196.143 206.931 195.929V195.929C207.717 195.088 209.1 195.287 209.617 196.316L209.719 196.519C210.143 197.361 211.154 197.719 212.013 197.331V197.331C212.268 197.215 212.548 197.163 212.828 197.177L213.817 197.229C214.151 197.246 214.477 197.345 214.765 197.517L214.953 197.63C215.704 198.078 216.668 197.921 217.237 197.258L217.536 196.911C217.91 196.475 218.537 196.358 219.044 196.629V196.629C219.632 196.944 220.363 196.731 220.69 196.15L222.027 193.775L223.419 190.657C223.749 189.919 224.445 189.411 225.249 189.324L225.372 189.31C225.702 189.274 226.036 189.329 226.338 189.468L226.965 189.758C227.443 189.979 228.011 189.81 228.29 189.364V189.364C228.797 188.553 230.036 188.792 230.205 189.733L231.563 197.311C231.621 197.636 231.757 197.941 231.959 198.202V198.202C232.778 199.256 234.371 199.253 235.186 198.195L235.281 198.072C235.427 197.882 235.541 197.669 235.617 197.442L237.427 192.055L238.061 190.371C238.529 189.128 240.274 189.087 240.8 190.308V190.308C241.077 190.952 241.77 191.313 242.457 191.17L242.569 191.147C242.975 191.062 243.333 190.825 243.569 190.484L245.127 188.235V188.235C245.986 187.016 247.846 187.185 248.484 188.534V188.534C248.787 189.175 249.415 189.605 250.122 189.653L250.441 189.674C250.746 189.695 251.051 189.659 251.343 189.57L252.05 189.353C252.537 189.204 252.923 188.829 253.086 188.345L253.629 186.73C253.966 185.731 255.394 185.774 255.669 186.792V186.792C255.951 187.837 257.431 187.845 257.724 186.803L258.432 184.288C258.539 183.908 258.816 183.599 259.183 183.453V183.453C259.895 183.168 260.695 183.575 260.884 184.318L260.993 184.743C261.406 186.364 263.688 186.417 264.177 184.817L264.377 184.165L265.984 179.657C266.175 179.12 266.678 178.757 267.248 178.746V178.746C267.834 178.733 268.347 178.351 268.526 177.794L269.979 173.281C270.093 172.928 270.281 172.603 270.531 172.329L271.085 171.722C271.651 171.102 272.591 171.001 273.275 171.488V171.488C273.729 171.811 274.314 171.885 274.834 171.685L275.13 171.572C275.608 171.388 276.15 171.524 276.484 171.911V171.911C277.094 172.617 278.238 172.401 278.548 171.522L279.689 168.293C279.747 168.129 279.829 167.974 279.932 167.833V167.833C280.731 166.741 282.407 166.899 282.988 168.121L283.083 168.322C283.408 169.006 284.132 169.407 284.884 169.321V169.321C285.314 169.272 285.711 169.068 286.001 168.746L286.646 168.029C287.189 167.425 287.55 166.681 287.689 165.881L289.274 156.762C289.352 156.313 289.684 155.95 290.125 155.834V155.834C290.776 155.661 291.437 156.074 291.568 156.735L292.949 163.701C293.072 164.318 293.851 164.521 294.259 164.043V164.043C294.65 163.584 295.394 163.748 295.555 164.329L296.364 167.239C296.634 168.213 297.95 168.37 298.442 167.486L298.568 167.259C298.817 166.812 299.39 166.668 299.821 166.943V166.943C300.357 167.285 301.068 166.969 301.173 166.342L302.877 156.175L304.802 148.625L306.232 142.087C306.438 141.146 307.624 140.837 308.263 141.557V141.557C308.508 141.833 308.868 141.978 309.235 141.95L309.343 141.941C310.047 141.886 310.681 142.366 310.819 143.059L312.451 151.242C312.485 151.41 312.538 151.574 312.611 151.728L313.54 153.701C313.903 154.473 314.994 154.495 315.388 153.737V153.737C315.782 152.979 316.875 153.002 317.237 153.776L317.434 154.196C317.826 155.033 318.955 155.177 319.545 154.466L320 153.919C320.133 153.758 320.233 153.572 320.293 153.372V153.372C320.768 151.808 323.021 151.923 323.333 153.528L323.592 154.861C323.789 155.876 325.035 156.265 325.774 155.543V155.543C325.908 155.413 326.011 155.255 326.078 155.082L327.902 150.365V150.365C328.606 149.099 330.491 149.326 330.875 150.723L331.41 152.67C331.624 153.449 332.209 154.072 332.973 154.334L333.168 154.401C333.504 154.516 333.815 154.694 334.086 154.924L335.602 156.215L336.14 156.766C336.999 157.645 338.259 158.002 339.452 157.705V157.705V157.705C340.559 157.55 341.615 158.225 341.937 159.296L343.302 163.825L344.539 168.205C344.801 169.129 346.039 169.297 346.538 168.476V168.476C346.869 167.93 347.595 167.781 348.115 168.151L348.56 168.467C348.892 168.704 349.122 169.057 349.203 169.457L350.725 176.955C350.905 177.84 351.355 178.647 352.013 179.266L352.436 179.664C352.757 179.965 353.155 180.17 353.587 180.256V180.256C354.374 180.411 355.027 180.959 355.317 181.707L356.236 184.08C356.485 184.723 357.323 184.882 357.79 184.375V184.375C358.231 183.896 359.014 184.006 359.307 184.587L359.401 184.773C359.84 185.644 361.119 185.528 361.394 184.592L362.38 181.23C362.493 180.846 362.697 180.495 362.976 180.208L364.31 178.837C364.42 178.723 364.51 178.592 364.576 178.448V178.448C365.136 177.219 366.945 177.445 367.186 178.774L367.506 180.538C367.751 181.889 369.601 182.099 370.143 180.838V180.838C370.215 180.671 370.318 180.52 370.448 180.393L372.177 178.705" stroke="url(#paint1_linear_732_15104)" stroke-width="1.5" stroke-linecap="round" stroke-linejoin="round"/>
<path d="M375.694 178.976C379.343 196.091 403.498 225.5 449.999 237.5C496.499 249.5 550.5 248.5 550.5 248.5" stroke="#B8FFDF" stroke-linecap="square" stroke-dasharray="2 2"/>
<path d="M95.42 32.46V47H93.16V32.46H95.42ZM98.86 41.9H94.88V39.88H98.38C99.3 39.88 100 39.64 100.48 39.16C100.973 38.6667 101.22 37.9933 101.22 37.14C101.22 36.2867 100.973 35.6333 100.48 35.18C100 34.7133 99.3133 34.48 98.42 34.48H94.54V32.46H98.86C99.82 32.46 100.653 32.66 101.36 33.06C102.067 33.4467 102.613 33.9933 103 34.7C103.4 35.4067 103.6 36.2267 103.6 37.16C103.6 38.08 103.4 38.9 103 39.62C102.613 40.3267 102.067 40.8867 101.36 41.3C100.653 41.7 99.82 41.9 98.86 41.9ZM111.337 37.12V39.1H110.477C109.583 39.1 108.877 39.3467 108.357 39.84C107.85 40.3333 107.597 41.06 107.597 42.02V47H105.457V37.18H107.477L107.657 39.2H107.457C107.59 38.5467 107.903 38.0133 108.397 37.6C108.89 37.1867 109.53 36.98 110.317 36.98C110.477 36.98 110.637 36.9933 110.797 37.02C110.97 37.0333 111.15 37.0667 111.337 37.12ZM113.054 47V37.18H115.194V47H113.054ZM114.114 35.02C113.741 35.02 113.421 34.8867 113.154 34.62C112.888 34.3533 112.754 34.0333 112.754 33.66C112.754 33.2867 112.888 32.9667 113.154 32.7C113.421 32.4333 113.741 32.3 114.114 32.3C114.488 32.3 114.808 32.4333 115.074 32.7C115.341 32.9667 115.474 33.2867 115.474 33.66C115.474 34.0333 115.341 34.3533 115.074 34.62C114.808 34.8867 114.488 35.02 114.114 35.02ZM117.22 42.08C117.22 41.0533 117.426 40.1533 117.84 39.38C118.253 38.6067 118.82 38 119.54 37.56C120.273 37.1067 121.126 36.88 122.1 36.88C123.38 36.88 124.44 37.22 125.28 37.9C126.12 38.5667 126.613 39.4733 126.76 40.62H124.58C124.433 40.02 124.146 39.5733 123.72 39.28C123.293 38.9733 122.773 38.82 122.16 38.82C121.613 38.82 121.126 38.9533 120.7 39.22C120.286 39.4867 119.96 39.86 119.72 40.34C119.493 40.82 119.38 41.4 119.38 42.08C119.38 42.7333 119.486 43.3067 119.7 43.8C119.926 44.28 120.24 44.6533 120.64 44.92C121.053 45.1867 121.54 45.32 122.1 45.32C122.74 45.32 123.28 45.1667 123.72 44.86C124.16 44.54 124.453 44.1 124.6 43.54H126.76C126.653 44.2733 126.386 44.92 125.96 45.48C125.533 46.0267 124.986 46.46 124.32 46.78C123.653 47.1 122.913 47.26 122.1 47.26C121.113 47.26 120.253 47.0467 119.52 46.62C118.786 46.18 118.22 45.5733 117.82 44.8C117.42 44.0267 117.22 43.12 117.22 42.08ZM132.999 47.26C132.026 47.26 131.166 47.04 130.419 46.6C129.686 46.16 129.106 45.5533 128.679 44.78C128.266 43.9933 128.059 43.0933 128.059 42.08C128.059 41.0533 128.259 40.1533 128.659 39.38C129.073 38.6067 129.646 38 130.379 37.56C131.113 37.1067 131.959 36.88 132.919 36.88C133.879 36.88 134.706 37.0867 135.399 37.5C136.106 37.9 136.653 38.4733 137.039 39.22C137.439 39.9533 137.639 40.82 137.639 41.82V42.54L129.199 42.56L129.239 41.16H135.479C135.479 40.4 135.246 39.8 134.779 39.36C134.326 38.9067 133.706 38.68 132.919 38.68C132.319 38.68 131.806 38.8067 131.379 39.06C130.966 39.3133 130.646 39.6933 130.419 40.2C130.206 40.6933 130.099 41.3 130.099 42.02C130.099 43.14 130.346 43.9933 130.839 44.58C131.346 45.1667 132.079 45.46 133.039 45.46C133.733 45.46 134.306 45.3267 134.759 45.06C135.213 44.7933 135.506 44.4 135.639 43.88H137.659C137.433 44.9333 136.906 45.76 136.079 46.36C135.266 46.96 134.239 47.26 132.999 47.26ZM147.645 47H145.445V32.46H147.645L152.485 44.36L157.345 32.46H159.565V47H157.365V41.88C157.365 41.1733 157.365 40.58 157.365 40.1C157.378 39.6067 157.385 39.1867 157.385 38.84C157.398 38.4933 157.412 38.1867 157.425 37.92C157.452 37.6533 157.478 37.3867 157.505 37.12L153.545 47H151.445L147.485 37.14C147.552 37.54 147.592 38.0933 147.605 38.8C147.632 39.4933 147.645 40.3267 147.645 41.3V47ZM161.927 42.08C161.927 41.0533 162.147 40.1533 162.587 39.38C163.04 38.6067 163.66 38 164.447 37.56C165.233 37.12 166.127 36.9 167.127 36.9C168.127 36.9 169.013 37.12 169.787 37.56C170.56 38 171.173 38.6067 171.627 39.38C172.08 40.1533 172.307 41.0533 172.307 42.08C172.307 43.0933 172.08 43.9867 171.627 44.76C171.173 45.5333 170.56 46.14 169.787 46.58C169.013 47.02 168.127 47.24 167.127 47.24C166.127 47.24 165.233 47.02 164.447 46.58C163.66 46.14 163.04 45.5333 162.587 44.76C162.147 43.9867 161.927 43.0933 161.927 42.08ZM164.087 42.06C164.087 42.7 164.213 43.2667 164.467 43.76C164.733 44.24 165.093 44.62 165.547 44.9C166 45.1667 166.527 45.3 167.127 45.3C167.713 45.3 168.233 45.1667 168.687 44.9C169.14 44.62 169.493 44.24 169.747 43.76C170 43.2667 170.127 42.7 170.127 42.06C170.127 41.42 170 40.86 169.747 40.38C169.493 39.9 169.14 39.5267 168.687 39.26C168.233 38.98 167.713 38.84 167.127 38.84C166.527 38.84 166 38.98 165.547 39.26C165.093 39.5267 164.733 39.9 164.467 40.38C164.213 40.86 164.087 41.42 164.087 42.06ZM176.596 47L172.656 37.18H174.976L176.896 42.16C177.082 42.6933 177.249 43.18 177.396 43.62C177.542 44.06 177.649 44.42 177.716 44.7C177.809 44.38 177.929 44 178.076 43.56C178.236 43.12 178.409 42.6533 178.596 42.16L180.596 37.18H182.816L178.736 47H176.596ZM188.156 47.26C187.182 47.26 186.322 47.04 185.576 46.6C184.842 46.16 184.262 45.5533 183.836 44.78C183.422 43.9933 183.216 43.0933 183.216 42.08C183.216 41.0533 183.416 40.1533 183.816 39.38C184.229 38.6067 184.802 38 185.536 37.56C186.269 37.1067 187.116 36.88 188.076 36.88C189.036 36.88 189.862 37.0867 190.556 37.5C191.262 37.9 191.809 38.4733 192.196 39.22C192.596 39.9533 192.796 40.82 192.796 41.82V42.54L184.356 42.56L184.396 41.16H190.636C190.636 40.4 190.402 39.8 189.936 39.36C189.482 38.9067 188.862 38.68 188.076 38.68C187.476 38.68 186.962 38.8067 186.536 39.06C186.122 39.3133 185.802 39.6933 185.576 40.2C185.362 40.6933 185.256 41.3 185.256 42.02C185.256 43.14 185.502 43.9933 185.996 44.58C186.502 45.1667 187.236 45.46 188.196 45.46C188.889 45.46 189.462 45.3267 189.916 45.06C190.369 44.7933 190.662 44.4 190.796 43.88H192.816C192.589 44.9333 192.062 45.76 191.236 46.36C190.422 46.96 189.396 47.26 188.156 47.26ZM196.972 47H194.832V37.18H196.792L197.052 38.96L196.792 38.74C196.992 38.2333 197.358 37.8 197.892 37.44C198.438 37.0667 199.105 36.88 199.892 36.88C200.758 36.88 201.472 37.1133 202.032 37.58C202.592 38.0333 202.972 38.64 203.172 39.4H202.792C202.938 38.64 203.312 38.0333 203.912 37.58C204.525 37.1133 205.265 36.88 206.132 36.88C207.292 36.88 208.192 37.2133 208.832 37.88C209.472 38.5333 209.792 39.4333 209.792 40.58V47H207.652V41.12C207.652 40.3867 207.465 39.8267 207.092 39.44C206.732 39.04 206.238 38.84 205.612 38.84C205.185 38.84 204.805 38.9333 204.472 39.12C204.138 39.3067 203.872 39.5867 203.672 39.96C203.485 40.32 203.392 40.7667 203.392 41.3V47H201.252V41.1C201.252 40.3667 201.065 39.8067 200.692 39.42C200.332 39.0333 199.838 38.84 199.212 38.84C198.785 38.84 198.398 38.94 198.052 39.14C197.718 39.3267 197.452 39.6 197.252 39.96C197.065 40.32 196.972 40.7667 196.972 41.3V47ZM216.632 47.26C215.659 47.26 214.799 47.04 214.052 46.6C213.319 46.16 212.739 45.5533 212.312 44.78C211.899 43.9933 211.692 43.0933 211.692 42.08C211.692 41.0533 211.892 40.1533 212.292 39.38C212.706 38.6067 213.279 38 214.012 37.56C214.746 37.1067 215.592 36.88 216.552 36.88C217.512 36.88 218.339 37.0867 219.032 37.5C219.739 37.9 220.286 38.4733 220.672 39.22C221.072 39.9533 221.272 40.82 221.272 41.82V42.54L212.832 42.56L212.872 41.16H219.112C219.112 40.4 218.879 39.8 218.412 39.36C217.959 38.9067 217.339 38.68 216.552 38.68C215.952 38.68 215.439 38.8067 215.012 39.06C214.599 39.3133 214.279 39.6933 214.052 40.2C213.839 40.6933 213.732 41.3 213.732 42.02C213.732 43.14 213.979 43.9933 214.472 44.58C214.979 45.1667 215.712 45.46 216.672 45.46C217.366 45.46 217.939 45.3267 218.392 45.06C218.846 44.7933 219.139 44.4 219.272 43.88H221.292C221.066 44.9333 220.539 45.76 219.712 46.36C218.899 46.96 217.872 47.26 216.632 47.26ZM225.448 47H223.308V37.18H225.268L225.468 38.56C225.788 38.0267 226.228 37.6133 226.788 37.32C227.362 37.0267 227.995 36.88 228.688 36.88C229.942 36.88 230.875 37.2467 231.488 37.98C232.115 38.7133 232.428 39.7067 232.428 40.96V47H230.288V41.46C230.288 40.5667 230.082 39.9067 229.668 39.48C229.268 39.0533 228.728 38.84 228.048 38.84C227.235 38.84 226.595 39.1067 226.128 39.64C225.675 40.16 225.448 40.86 225.448 41.74V47ZM233.929 37.18H239.909V38.98H233.929V37.18ZM237.989 47H235.849V34.1H237.989V47Z" fill="#E5ECF1"/>
<line x1="92.25" y1="338.25" x2="141.75" y2="338.25" stroke="url(#paint2_linear_732_15104)" stroke-width="1.5" stroke-linecap="round" stroke-linejoin="round"/>
<path d="M156.515 340.662C158.066 340.662 159.078 339.584 159.078 338.099C159.078 336.57 158.077 335.547 156.515 335.547H153.424V343.5H154.502V340.662H156.515ZM156.328 336.515C157.34 336.515 157.945 337.087 157.945 338.088C157.945 339.067 157.351 339.694 156.284 339.694H154.502V336.515H156.328ZM163.203 338.077C162.994 338.033 162.84 338.011 162.653 338.011C161.916 338.011 161.377 338.385 161.157 338.946L161.091 338.132H160.123V343.5H161.157V340.651C161.157 339.617 161.762 339.023 162.741 339.023H163.203V338.077ZM164.679 336.845C165.053 336.845 165.361 336.537 165.361 336.163C165.361 335.778 165.053 335.481 164.679 335.481C164.305 335.481 163.997 335.778 163.997 336.163C163.997 336.537 164.305 336.845 164.679 336.845ZM164.173 343.5H165.207V338.121H164.173V343.5ZM166.356 340.816C166.356 342.51 167.401 343.632 168.985 343.632C170.283 343.632 171.284 342.851 171.493 341.685H170.459C170.272 342.323 169.722 342.708 168.985 342.708C168.006 342.708 167.379 341.96 167.379 340.805C167.379 339.639 168.05 338.891 169.029 338.891C169.722 338.891 170.272 339.254 170.448 339.936H171.482C171.295 338.737 170.349 337.967 168.996 337.967C167.423 337.967 166.356 339.133 166.356 340.816ZM174.905 343.632C176.236 343.632 177.138 342.983 177.402 341.828H176.434C176.258 342.444 175.73 342.774 174.927 342.774C173.904 342.774 173.31 342.147 173.233 341.014L177.391 341.003V340.618C177.391 339.023 176.39 337.967 174.861 337.967C173.299 337.967 172.232 339.133 172.232 340.816C172.232 342.488 173.321 343.632 174.905 343.632ZM174.861 338.836C175.774 338.836 176.357 339.43 176.357 340.321H173.255C173.387 339.375 173.959 338.836 174.861 338.836ZM182.808 343.5V339.969H186.746V343.5H187.824V335.547H186.746V338.968H182.808V335.547H181.73V343.5H182.808ZM189.998 336.845C190.372 336.845 190.68 336.537 190.68 336.163C190.68 335.778 190.372 335.481 189.998 335.481C189.624 335.481 189.316 335.778 189.316 336.163C189.316 336.537 189.624 336.845 189.998 336.845ZM189.492 343.5H190.526V338.121H189.492V343.5ZM191.587 341.938C191.587 342.961 192.39 343.632 193.655 343.632C194.931 343.632 195.811 342.983 195.811 341.96C195.811 341.157 195.36 340.739 194.447 340.519L193.501 340.288C192.973 340.156 192.709 339.914 192.709 339.551C192.709 339.056 193.072 338.77 193.721 338.77C194.348 338.77 194.711 339.111 194.733 339.65H195.723C195.701 338.627 194.931 337.967 193.754 337.967C192.566 337.967 191.73 338.594 191.73 339.584C191.73 340.376 192.181 340.849 193.138 341.08L194.084 341.3C194.645 341.443 194.821 341.663 194.821 342.026C194.821 342.521 194.403 342.818 193.677 342.818C192.995 342.818 192.577 342.488 192.577 341.938H191.587ZM198.476 343.5V338.99H199.532V338.121H198.476V336.438H197.442V338.121H196.386V338.99H197.442V343.5H198.476ZM200.054 340.805C200.054 342.466 201.242 343.632 202.859 343.632C204.465 343.632 205.653 342.466 205.653 340.805C205.653 339.144 204.465 337.978 202.859 337.978C201.242 337.978 200.054 339.144 200.054 340.805ZM201.099 340.805C201.099 339.683 201.814 338.902 202.859 338.902C203.893 338.902 204.619 339.683 204.619 340.805C204.619 341.927 203.893 342.708 202.859 342.708C201.814 342.708 201.099 341.927 201.099 340.805ZM209.878 338.077C209.669 338.033 209.515 338.011 209.328 338.011C208.591 338.011 208.052 338.385 207.832 338.946L207.766 338.132H206.798V343.5H207.832V340.651C207.832 339.617 208.437 339.023 209.416 339.023H209.878V338.077ZM210.492 345.909C210.767 345.975 211.053 346.019 211.394 346.019C212.219 346.019 212.758 345.634 213.121 344.71L215.662 338.121H214.595L213 342.455L211.438 338.121H210.349L212.516 343.786L212.329 344.303C212.076 344.985 211.68 345.062 211.185 345.062H210.492V345.909Z" fill="#787E82"/>
<line x1="261.5" y1="339" x2="312.5" y2="339" stroke="#B8FFDF" stroke-dasharray="2 2"/>
<path d="M327.626 340.123V339.144H324.502V336.537H328.22V335.547H323.424V343.5H324.502V340.123H327.626ZM332.735 338.121V340.959C332.735 342.114 332.218 342.719 331.272 342.719C330.48 342.719 329.985 342.279 329.985 341.124V338.121H328.951V341.465C328.951 342.785 329.655 343.632 330.909 343.632C331.701 343.632 332.416 343.247 332.724 342.686L332.834 343.5H333.758V338.121H332.735ZM336.776 343.5V338.99H337.832V338.121H336.776V336.438H335.742V338.121H334.686V338.99H335.742V343.5H336.776ZM342.478 338.121V340.959C342.478 342.114 341.961 342.719 341.015 342.719C340.223 342.719 339.728 342.279 339.728 341.124V338.121H338.694V341.465C338.694 342.785 339.398 343.632 340.652 343.632C341.444 343.632 342.159 343.247 342.467 342.686L342.577 343.5H343.501V338.121H342.478ZM348.081 338.077C347.872 338.033 347.718 338.011 347.531 338.011C346.794 338.011 346.255 338.385 346.035 338.946L345.969 338.132H345.001V343.5H346.035V340.651C346.035 339.617 346.64 339.023 347.619 339.023H348.081V338.077ZM351.178 343.632C352.509 343.632 353.411 342.983 353.675 341.828H352.707C352.531 342.444 352.003 342.774 351.2 342.774C350.177 342.774 349.583 342.147 349.506 341.014L353.664 341.003V340.618C353.664 339.023 352.663 337.967 351.134 337.967C349.572 337.967 348.505 339.133 348.505 340.816C348.505 342.488 349.594 343.632 351.178 343.632ZM351.134 338.836C352.047 338.836 352.63 339.43 352.63 340.321H349.528C349.66 339.375 350.232 338.836 351.134 338.836ZM357.827 345.909H358.861V342.62C359.213 343.28 359.928 343.643 360.786 343.643C362.381 343.643 363.283 342.411 363.283 340.772C363.283 339.122 362.326 337.967 360.786 337.967C359.928 337.967 359.202 338.352 358.839 339.089L358.762 338.121H357.827V345.909ZM358.872 340.816C358.872 339.694 359.51 338.913 360.566 338.913C361.622 338.913 362.249 339.705 362.249 340.816C362.249 341.916 361.622 342.708 360.566 342.708C359.51 342.708 358.872 341.916 358.872 340.816ZM367.503 338.077C367.294 338.033 367.14 338.011 366.953 338.011C366.216 338.011 365.677 338.385 365.457 338.946L365.391 338.132H364.423V343.5H365.457V340.651C365.457 339.617 366.062 339.023 367.041 339.023H367.503V338.077ZM368.979 336.845C369.353 336.845 369.661 336.537 369.661 336.163C369.661 335.778 369.353 335.481 368.979 335.481C368.605 335.481 368.297 335.778 368.297 336.163C368.297 336.537 368.605 336.845 368.979 336.845ZM368.473 343.5H369.507V338.121H368.473V343.5ZM370.656 340.816C370.656 342.51 371.701 343.632 373.285 343.632C374.583 343.632 375.584 342.851 375.793 341.685H374.759C374.572 342.323 374.022 342.708 373.285 342.708C372.306 342.708 371.679 341.96 371.679 340.805C371.679 339.639 372.35 338.891 373.329 338.891C374.022 338.891 374.572 339.254 374.748 339.936H375.782C375.595 338.737 374.649 337.967 373.296 337.967C371.723 337.967 370.656 339.133 370.656 340.816ZM379.205 343.632C380.536 343.632 381.438 342.983 381.702 341.828H380.734C380.558 342.444 380.03 342.774 379.227 342.774C378.204 342.774 377.61 342.147 377.533 341.014L381.691 341.003V340.618C381.691 339.023 380.69 337.967 379.161 337.967C377.599 337.967 376.532 339.133 376.532 340.816C376.532 342.488 377.621 343.632 379.205 343.632ZM379.161 338.836C380.074 338.836 380.657 339.43 380.657 340.321H377.555C377.687 339.375 378.259 338.836 379.161 338.836Z" fill="#787E82"/>
<rect x="91.5" y="367.5" width="527" height="8" rx="4" fill="#DAFFEE" fill-opacity="0.06"/>
<rect x="91.5" y="385.5" width="527" height="8" rx="4" fill="#DAFFEE" fill-opacity="0.06"/>
<rect x="91.5" y="403.5" width="398" height="8" rx="4" fill="#DAFFEE" fill-opacity="0.06"/>
<rect x="91.5" y="421.5" width="154" height="8" rx="4" fill="#DAFFEE" fill-opacity="0.06"/>
<rect x="61.9481" y="5.44815" width="606.104" height="462.26" rx="17.4778" stroke="white" stroke-opacity="0.06" stroke-width="0.896296" shape-rendering="crispEdges"/>
</g>
<defs>
<filter id="filter0_d_732_15104" x="-2.72963" y="0.77037" width="689.459" height="545.616" filterUnits="userSpaceOnUse" color-interpolation-filters="sRGB">
<feFlood flood-opacity="0" result="BackgroundImageFix"/>
<feColorMatrix in="SourceAlpha" type="matrix" values="0 0 0 0 0 0 0 0 0 0 0 0 0 0 0 0 0 0 127 0" result="hardAlpha"/>
<feOffset dx="-23" dy="37"/>
<feGaussianBlur stdDeviation="20.6148"/>
<feComposite in2="hardAlpha" operator="out"/>
<feColorMatrix type="matrix" values="0 0 0 0 0 0 0 0 0 0 0 0 0 0 0 0 0 0 0.26 0"/>
<feBlend mode="normal" in2="BackgroundImageFix" result="effect1_dropShadow_732_15104"/>
<feBlend mode="normal" in="SourceGraphic" in2="effect1_dropShadow_732_15104" result="shape"/>
</filter>
<linearGradient id="paint0_linear_732_15104" x1="365" y1="5" x2="365" y2="468.157" gradientUnits="userSpaceOnUse">
<stop stop-color="#1C2527"/>
<stop offset="0.8073" stop-color="#14161A"/>
<stop offset="1" stop-color="#121316"/>
</linearGradient>
<linearGradient id="paint1_linear_732_15104" x1="415.5" y1="135" x2="357.5" y2="302" gradientUnits="userSpaceOnUse">
<stop stop-color="#4FFFB0"/>
<stop offset="0.463556" stop-color="#B3FF8F"/>
<stop offset="1" stop-color="#FF984E"/>
</linearGradient>
<linearGradient id="paint2_linear_732_15104" x1="135" y1="339.5" x2="94" y2="342.5" gradientUnits="userSpaceOnUse">
<stop stop-color="#4FFFB0"/>
<stop offset="0.463556" stop-color="#B3FF8F"/>
<stop offset="1" stop-color="#FF984E"/>
</linearGradient>
</defs>
</svg>
