<svg width="547" height="568" viewBox="0 0 547 568" fill="none" xmlns="http://www.w3.org/2000/svg">
<rect width="547" height="496" rx="35" fill="#1D2325"/>
<rect width="547" height="496" rx="35" fill="url(#paint0_linear_732_14924)" fill-opacity="0.2"/>
<rect width="547" height="496" rx="35" fill="url(#paint1_linear_732_14924)"/>
<mask id="mask0_732_14924" style="mask-type:alpha" maskUnits="userSpaceOnUse" x="-225" y="-96" width="914" height="664">
<rect x="-225" y="-96" width="914" height="664" fill="url(#paint2_linear_732_14924)"/>
</mask>
<g mask="url(#mask0_732_14924)">
<g filter="url(#filter0_d_732_14924)">
<g clip-path="url(#clip0_732_14924)">
<rect x="73" y="45" width="444.639" height="484" rx="17.9259" fill="url(#paint3_linear_732_14924)"/>
<path d="M104.819 69.4533V83.9518H102.388V69.4533H104.819ZM97.7631 70.5504V68.3132H109.465V70.5504H97.7631ZM116.276 73.3253V75.4549H115.351C114.39 75.4549 113.63 75.7202 113.07 76.2508C112.526 76.7814 112.253 77.563 112.253 78.5955V83.9518H109.951V73.3898H112.124L112.318 75.5624H112.102C112.246 74.8598 112.583 74.2861 113.113 73.8416C113.644 73.397 114.332 73.1747 115.179 73.1747C115.351 73.1747 115.523 73.1891 115.695 73.2177C115.881 73.2321 116.075 73.2679 116.276 73.3253ZM120.801 84.2314C119.682 84.2314 118.8 83.9303 118.155 83.328C117.524 82.7256 117.208 81.9441 117.208 80.9832C117.208 80.0081 117.545 79.2337 118.219 78.66C118.908 78.0721 119.876 77.7279 121.123 77.6275L124.371 77.3694V77.1112C124.371 76.5663 124.271 76.1361 124.07 75.8206C123.869 75.4907 123.597 75.2541 123.253 75.1107C122.909 74.9673 122.507 74.8956 122.048 74.8956C121.231 74.8956 120.6 75.0605 120.155 75.3904C119.711 75.7202 119.488 76.1863 119.488 76.7886H117.509C117.509 76.0285 117.696 75.376 118.069 74.8311C118.456 74.2718 119.001 73.8416 119.703 73.5404C120.406 73.2249 121.224 73.0672 122.156 73.0672C123.074 73.0672 123.862 73.2321 124.522 73.5619C125.196 73.8774 125.712 74.3578 126.071 75.0032C126.444 75.6485 126.63 76.4587 126.63 77.4339V83.9518H124.629L124.414 82.3169C124.171 82.8906 123.719 83.3566 123.059 83.7152C122.4 84.0593 121.647 84.2314 120.801 84.2314ZM121.532 82.446C122.407 82.446 123.102 82.1879 123.618 81.6716C124.135 81.141 124.393 80.4311 124.393 79.542V78.9612L121.941 79.1763C121.08 79.248 120.464 79.4344 120.091 79.7356C119.732 80.0368 119.553 80.4168 119.553 80.8757C119.553 81.4063 119.725 81.8007 120.069 82.0588C120.413 82.3169 120.901 82.446 121.532 82.446ZM133.621 84.2314C132.603 84.2314 131.721 83.9948 130.976 83.5216C130.244 83.0483 129.678 82.403 129.276 81.5856C128.875 80.7538 128.674 79.793 128.674 78.7031C128.674 77.6132 128.875 76.6452 129.276 75.7991C129.678 74.953 130.259 74.2861 131.019 73.7985C131.779 73.311 132.689 73.0672 133.751 73.0672C134.525 73.0672 135.22 73.2249 135.837 73.5404C136.468 73.8559 136.956 74.3148 137.3 74.9171V68.0336H139.623V83.9518H137.493L137.343 82.1664C137.013 82.826 136.511 83.3351 135.837 83.6936C135.177 84.0522 134.439 84.2314 133.621 84.2314ZM134.116 82.1018C134.776 82.1018 135.335 81.9584 135.794 81.6716C136.267 81.3704 136.633 80.9617 136.891 80.4455C137.149 79.9149 137.278 79.3126 137.278 78.6385C137.278 77.9502 137.149 77.3479 136.891 76.8316C136.633 76.301 136.267 75.8923 135.794 75.6055C135.335 75.3043 134.776 75.1537 134.116 75.1537C133.471 75.1537 132.912 75.3043 132.438 75.6055C131.979 75.9066 131.621 76.3153 131.363 76.8316C131.119 77.3479 130.997 77.9502 130.997 78.6385C130.997 79.3126 131.119 79.9149 131.363 80.4455C131.621 80.9617 131.979 81.3704 132.438 81.6716C132.912 81.9584 133.471 82.1018 134.116 82.1018ZM147.095 84.2314C146.049 84.2314 145.124 83.9948 144.321 83.5216C143.532 83.0483 142.908 82.3958 142.449 81.564C142.005 80.7179 141.782 79.7499 141.782 78.66C141.782 77.5558 141.997 76.5878 142.428 75.756C142.872 74.9243 143.489 74.2718 144.278 73.7985C145.066 73.311 145.977 73.0672 147.009 73.0672C148.042 73.0672 148.931 73.2894 149.677 73.734C150.437 74.1642 151.025 74.7809 151.441 75.584C151.871 76.3727 152.086 77.3048 152.086 78.3804V79.1548L143.008 79.1763L143.051 77.6705H149.763C149.763 76.8531 149.512 76.2078 149.01 75.7345C148.522 75.247 147.856 75.0032 147.009 75.0032C146.364 75.0032 145.812 75.1394 145.353 75.4119C144.909 75.6843 144.564 76.0931 144.321 76.638C144.091 77.1686 143.976 77.8211 143.976 78.5955C143.976 79.8001 144.242 80.7179 144.772 81.3489C145.317 81.9799 146.106 82.2954 147.139 82.2954C147.884 82.2954 148.501 82.152 148.988 81.8652C149.476 81.5784 149.792 81.1553 149.935 80.596H152.108C151.864 81.729 151.297 82.6181 150.408 83.2634C149.533 83.9088 148.429 84.2314 147.095 84.2314ZM166.096 69.4533V83.9518H163.665V69.4533H166.096ZM159.04 70.5504V68.3132H170.742V70.5504H159.04ZM170.1 78.66C170.1 77.5558 170.336 76.5878 170.809 75.756C171.297 74.9243 171.964 74.2718 172.81 73.7985C173.656 73.3253 174.617 73.0887 175.693 73.0887C176.768 73.0887 177.722 73.3253 178.553 73.7985C179.385 74.2718 180.045 74.9243 180.533 75.756C181.02 76.5878 181.264 77.5558 181.264 78.66C181.264 79.7499 181.02 80.7108 180.533 81.5425C180.045 82.3743 179.385 83.0268 178.553 83.5C177.722 83.9733 176.768 84.2099 175.693 84.2099C174.617 84.2099 173.656 83.9733 172.81 83.5C171.964 83.0268 171.297 82.3743 170.809 81.5425C170.336 80.7108 170.1 79.7499 170.1 78.66ZM172.423 78.6385C172.423 79.3269 172.559 79.9364 172.832 80.467C173.118 80.9832 173.506 81.392 173.993 81.6931C174.481 81.9799 175.047 82.1233 175.693 82.1233C176.323 82.1233 176.883 81.9799 177.37 81.6931C177.858 81.392 178.238 80.9832 178.51 80.467C178.783 79.9364 178.919 79.3269 178.919 78.6385C178.919 77.9502 178.783 77.3479 178.51 76.8316C178.238 76.3153 177.858 75.9138 177.37 75.627C176.883 75.3258 176.323 75.1752 175.693 75.1752C175.047 75.1752 174.481 75.3258 173.993 75.627C173.506 75.9138 173.118 76.3153 172.832 76.8316C172.559 77.3479 172.423 77.9502 172.423 78.6385ZM185.757 83.9518H183.434V68.0336H185.757V78.0792L190.167 73.3898H193.071L189.049 77.5845L193.007 83.9518H190.339L187.435 79.2839L185.757 81.0263V83.9518ZM198.857 84.2314C197.81 84.2314 196.885 83.9948 196.082 83.5216C195.293 83.0483 194.669 82.3958 194.21 81.564C193.766 80.7179 193.543 79.7499 193.543 78.66C193.543 77.5558 193.758 76.5878 194.189 75.756C194.633 74.9243 195.25 74.2718 196.039 73.7985C196.827 73.311 197.738 73.0672 198.771 73.0672C199.803 73.0672 200.692 73.2894 201.438 73.734C202.198 74.1642 202.786 74.7809 203.202 75.584C203.632 76.3727 203.847 77.3048 203.847 78.3804V79.1548L194.769 79.1763L194.813 77.6705H201.524C201.524 76.8531 201.273 76.2078 200.771 75.7345C200.284 75.247 199.617 75.0032 198.771 75.0032C198.125 75.0032 197.573 75.1394 197.114 75.4119C196.67 75.6843 196.325 76.0931 196.082 76.638C195.852 77.1686 195.737 77.8211 195.737 78.5955C195.737 79.8001 196.003 80.7179 196.533 81.3489C197.078 81.9799 197.867 82.2954 198.9 82.2954C199.645 82.2954 200.262 82.152 200.75 81.8652C201.237 81.5784 201.553 81.1553 201.696 80.596H203.869C203.625 81.729 203.058 82.6181 202.169 83.2634C201.295 83.9088 200.19 84.2314 198.857 84.2314ZM208.339 83.9518H206.037V73.3898H208.145L208.36 74.8741C208.704 74.3005 209.178 73.8559 209.78 73.5404C210.397 73.2249 211.078 73.0672 211.824 73.0672C213.172 73.0672 214.175 73.4615 214.835 74.2503C215.509 75.039 215.846 76.1074 215.846 77.4554V83.9518H213.544V77.9932C213.544 77.0324 213.322 76.3225 212.878 75.8636C212.447 75.4047 211.867 75.1752 211.135 75.1752C210.26 75.1752 209.572 75.4621 209.07 76.0357C208.583 76.595 208.339 77.3479 208.339 78.2944V83.9518ZM217.592 80.8112H219.786C219.801 81.3131 219.987 81.7075 220.346 81.9943C220.704 82.2811 221.199 82.4245 221.83 82.4245C222.49 82.4245 222.999 82.2954 223.357 82.0373C223.716 81.7792 223.895 81.4422 223.895 81.0263C223.895 80.7108 223.802 80.4526 223.615 80.2519C223.429 80.0368 223.078 79.8647 222.561 79.7356L220.668 79.3054C219.736 79.0759 219.034 78.7246 218.56 78.2513C218.101 77.7781 217.872 77.1328 217.872 76.3153C217.872 75.6413 218.044 75.0677 218.388 74.5944C218.747 74.1069 219.234 73.734 219.851 73.4759C220.468 73.2034 221.17 73.0672 221.959 73.0672C222.748 73.0672 223.436 73.2106 224.024 73.4974C224.612 73.7699 225.071 74.1571 225.401 74.659C225.731 75.1609 225.896 75.756 225.896 76.4444H223.701C223.687 75.9425 223.522 75.5481 223.207 75.2613C222.891 74.9745 222.447 74.8311 221.873 74.8311C221.314 74.8311 220.876 74.9601 220.561 75.2183C220.245 75.4621 220.088 75.7991 220.088 76.2293C220.088 76.8746 220.568 77.3192 221.529 77.563L223.422 77.9932C224.311 78.194 224.978 78.5238 225.422 78.9827C225.867 79.4273 226.089 80.0511 226.089 80.8542C226.089 81.5282 225.903 82.1233 225.53 82.6396C225.171 83.1559 224.669 83.5502 224.024 83.8227C223.379 84.0952 222.626 84.2314 221.765 84.2314C220.489 84.2314 219.471 83.9159 218.711 83.2849C217.965 82.6539 217.592 81.8294 217.592 80.8112Z" fill="url(#paint4_linear_732_14924)"/>
<path d="M104.819 69.4533V83.9518H102.388V69.4533H104.819ZM97.7631 70.5504V68.3132H109.465V70.5504H97.7631ZM116.276 73.3253V75.4549H115.351C114.39 75.4549 113.63 75.7202 113.07 76.2508C112.526 76.7814 112.253 77.563 112.253 78.5955V83.9518H109.951V73.3898H112.124L112.318 75.5624H112.102C112.246 74.8598 112.583 74.2861 113.113 73.8416C113.644 73.397 114.332 73.1747 115.179 73.1747C115.351 73.1747 115.523 73.1891 115.695 73.2177C115.881 73.2321 116.075 73.2679 116.276 73.3253ZM120.801 84.2314C119.682 84.2314 118.8 83.9303 118.155 83.328C117.524 82.7256 117.208 81.9441 117.208 80.9832C117.208 80.0081 117.545 79.2337 118.219 78.66C118.908 78.0721 119.876 77.7279 121.123 77.6275L124.371 77.3694V77.1112C124.371 76.5663 124.271 76.1361 124.07 75.8206C123.869 75.4907 123.597 75.2541 123.253 75.1107C122.909 74.9673 122.507 74.8956 122.048 74.8956C121.231 74.8956 120.6 75.0605 120.155 75.3904C119.711 75.7202 119.488 76.1863 119.488 76.7886H117.509C117.509 76.0285 117.696 75.376 118.069 74.8311C118.456 74.2718 119.001 73.8416 119.703 73.5404C120.406 73.2249 121.224 73.0672 122.156 73.0672C123.074 73.0672 123.862 73.2321 124.522 73.5619C125.196 73.8774 125.712 74.3578 126.071 75.0032C126.444 75.6485 126.63 76.4587 126.63 77.4339V83.9518H124.629L124.414 82.3169C124.171 82.8906 123.719 83.3566 123.059 83.7152C122.4 84.0593 121.647 84.2314 120.801 84.2314ZM121.532 82.446C122.407 82.446 123.102 82.1879 123.618 81.6716C124.135 81.141 124.393 80.4311 124.393 79.542V78.9612L121.941 79.1763C121.08 79.248 120.464 79.4344 120.091 79.7356C119.732 80.0368 119.553 80.4168 119.553 80.8757C119.553 81.4063 119.725 81.8007 120.069 82.0588C120.413 82.3169 120.901 82.446 121.532 82.446ZM133.621 84.2314C132.603 84.2314 131.721 83.9948 130.976 83.5216C130.244 83.0483 129.678 82.403 129.276 81.5856C128.875 80.7538 128.674 79.793 128.674 78.7031C128.674 77.6132 128.875 76.6452 129.276 75.7991C129.678 74.953 130.259 74.2861 131.019 73.7985C131.779 73.311 132.689 73.0672 133.751 73.0672C134.525 73.0672 135.22 73.2249 135.837 73.5404C136.468 73.8559 136.956 74.3148 137.3 74.9171V68.0336H139.623V83.9518H137.493L137.343 82.1664C137.013 82.826 136.511 83.3351 135.837 83.6936C135.177 84.0522 134.439 84.2314 133.621 84.2314ZM134.116 82.1018C134.776 82.1018 135.335 81.9584 135.794 81.6716C136.267 81.3704 136.633 80.9617 136.891 80.4455C137.149 79.9149 137.278 79.3126 137.278 78.6385C137.278 77.9502 137.149 77.3479 136.891 76.8316C136.633 76.301 136.267 75.8923 135.794 75.6055C135.335 75.3043 134.776 75.1537 134.116 75.1537C133.471 75.1537 132.912 75.3043 132.438 75.6055C131.979 75.9066 131.621 76.3153 131.363 76.8316C131.119 77.3479 130.997 77.9502 130.997 78.6385C130.997 79.3126 131.119 79.9149 131.363 80.4455C131.621 80.9617 131.979 81.3704 132.438 81.6716C132.912 81.9584 133.471 82.1018 134.116 82.1018ZM147.095 84.2314C146.049 84.2314 145.124 83.9948 144.321 83.5216C143.532 83.0483 142.908 82.3958 142.449 81.564C142.005 80.7179 141.782 79.7499 141.782 78.66C141.782 77.5558 141.997 76.5878 142.428 75.756C142.872 74.9243 143.489 74.2718 144.278 73.7985C145.066 73.311 145.977 73.0672 147.009 73.0672C148.042 73.0672 148.931 73.2894 149.677 73.734C150.437 74.1642 151.025 74.7809 151.441 75.584C151.871 76.3727 152.086 77.3048 152.086 78.3804V79.1548L143.008 79.1763L143.051 77.6705H149.763C149.763 76.8531 149.512 76.2078 149.01 75.7345C148.522 75.247 147.856 75.0032 147.009 75.0032C146.364 75.0032 145.812 75.1394 145.353 75.4119C144.909 75.6843 144.564 76.0931 144.321 76.638C144.091 77.1686 143.976 77.8211 143.976 78.5955C143.976 79.8001 144.242 80.7179 144.772 81.3489C145.317 81.9799 146.106 82.2954 147.139 82.2954C147.884 82.2954 148.501 82.152 148.988 81.8652C149.476 81.5784 149.792 81.1553 149.935 80.596H152.108C151.864 81.729 151.297 82.6181 150.408 83.2634C149.533 83.9088 148.429 84.2314 147.095 84.2314ZM166.096 69.4533V83.9518H163.665V69.4533H166.096ZM159.04 70.5504V68.3132H170.742V70.5504H159.04ZM170.1 78.66C170.1 77.5558 170.336 76.5878 170.809 75.756C171.297 74.9243 171.964 74.2718 172.81 73.7985C173.656 73.3253 174.617 73.0887 175.693 73.0887C176.768 73.0887 177.722 73.3253 178.553 73.7985C179.385 74.2718 180.045 74.9243 180.533 75.756C181.02 76.5878 181.264 77.5558 181.264 78.66C181.264 79.7499 181.02 80.7108 180.533 81.5425C180.045 82.3743 179.385 83.0268 178.553 83.5C177.722 83.9733 176.768 84.2099 175.693 84.2099C174.617 84.2099 173.656 83.9733 172.81 83.5C171.964 83.0268 171.297 82.3743 170.809 81.5425C170.336 80.7108 170.1 79.7499 170.1 78.66ZM172.423 78.6385C172.423 79.3269 172.559 79.9364 172.832 80.467C173.118 80.9832 173.506 81.392 173.993 81.6931C174.481 81.9799 175.047 82.1233 175.693 82.1233C176.323 82.1233 176.883 81.9799 177.37 81.6931C177.858 81.392 178.238 80.9832 178.51 80.467C178.783 79.9364 178.919 79.3269 178.919 78.6385C178.919 77.9502 178.783 77.3479 178.51 76.8316C178.238 76.3153 177.858 75.9138 177.37 75.627C176.883 75.3258 176.323 75.1752 175.693 75.1752C175.047 75.1752 174.481 75.3258 173.993 75.627C173.506 75.9138 173.118 76.3153 172.832 76.8316C172.559 77.3479 172.423 77.9502 172.423 78.6385ZM185.757 83.9518H183.434V68.0336H185.757V78.0792L190.167 73.3898H193.071L189.049 77.5845L193.007 83.9518H190.339L187.435 79.2839L185.757 81.0263V83.9518ZM198.857 84.2314C197.81 84.2314 196.885 83.9948 196.082 83.5216C195.293 83.0483 194.669 82.3958 194.21 81.564C193.766 80.7179 193.543 79.7499 193.543 78.66C193.543 77.5558 193.758 76.5878 194.189 75.756C194.633 74.9243 195.25 74.2718 196.039 73.7985C196.827 73.311 197.738 73.0672 198.771 73.0672C199.803 73.0672 200.692 73.2894 201.438 73.734C202.198 74.1642 202.786 74.7809 203.202 75.584C203.632 76.3727 203.847 77.3048 203.847 78.3804V79.1548L194.769 79.1763L194.813 77.6705H201.524C201.524 76.8531 201.273 76.2078 200.771 75.7345C200.284 75.247 199.617 75.0032 198.771 75.0032C198.125 75.0032 197.573 75.1394 197.114 75.4119C196.67 75.6843 196.325 76.0931 196.082 76.638C195.852 77.1686 195.737 77.8211 195.737 78.5955C195.737 79.8001 196.003 80.7179 196.533 81.3489C197.078 81.9799 197.867 82.2954 198.9 82.2954C199.645 82.2954 200.262 82.152 200.75 81.8652C201.237 81.5784 201.553 81.1553 201.696 80.596H203.869C203.625 81.729 203.058 82.6181 202.169 83.2634C201.295 83.9088 200.19 84.2314 198.857 84.2314ZM208.339 83.9518H206.037V73.3898H208.145L208.36 74.8741C208.704 74.3005 209.178 73.8559 209.78 73.5404C210.397 73.2249 211.078 73.0672 211.824 73.0672C213.172 73.0672 214.175 73.4615 214.835 74.2503C215.509 75.039 215.846 76.1074 215.846 77.4554V83.9518H213.544V77.9932C213.544 77.0324 213.322 76.3225 212.878 75.8636C212.447 75.4047 211.867 75.1752 211.135 75.1752C210.26 75.1752 209.572 75.4621 209.07 76.0357C208.583 76.595 208.339 77.3479 208.339 78.2944V83.9518ZM217.592 80.8112H219.786C219.801 81.3131 219.987 81.7075 220.346 81.9943C220.704 82.2811 221.199 82.4245 221.83 82.4245C222.49 82.4245 222.999 82.2954 223.357 82.0373C223.716 81.7792 223.895 81.4422 223.895 81.0263C223.895 80.7108 223.802 80.4526 223.615 80.2519C223.429 80.0368 223.078 79.8647 222.561 79.7356L220.668 79.3054C219.736 79.0759 219.034 78.7246 218.56 78.2513C218.101 77.7781 217.872 77.1328 217.872 76.3153C217.872 75.6413 218.044 75.0677 218.388 74.5944C218.747 74.1069 219.234 73.734 219.851 73.4759C220.468 73.2034 221.17 73.0672 221.959 73.0672C222.748 73.0672 223.436 73.2106 224.024 73.4974C224.612 73.7699 225.071 74.1571 225.401 74.659C225.731 75.1609 225.896 75.756 225.896 76.4444H223.701C223.687 75.9425 223.522 75.5481 223.207 75.2613C222.891 74.9745 222.447 74.8311 221.873 74.8311C221.314 74.8311 220.876 74.9601 220.561 75.2183C220.245 75.4621 220.088 75.7991 220.088 76.2293C220.088 76.8746 220.568 77.3192 221.529 77.563L223.422 77.9932C224.311 78.194 224.978 78.5238 225.422 78.9827C225.867 79.4273 226.089 80.0511 226.089 80.8542C226.089 81.5282 225.903 82.1233 225.53 82.6396C225.171 83.1559 224.669 83.5502 224.024 83.8227C223.379 84.0952 222.626 84.2314 221.765 84.2314C220.489 84.2314 219.471 83.9159 218.711 83.2849C217.965 82.6539 217.592 81.8294 217.592 80.8112Z" fill="url(#paint5_linear_732_14924)"/>
<path d="M104.819 69.4533V83.9518H102.388V69.4533H104.819ZM97.7631 70.5504V68.3132H109.465V70.5504H97.7631ZM116.276 73.3253V75.4549H115.351C114.39 75.4549 113.63 75.7202 113.07 76.2508C112.526 76.7814 112.253 77.563 112.253 78.5955V83.9518H109.951V73.3898H112.124L112.318 75.5624H112.102C112.246 74.8598 112.583 74.2861 113.113 73.8416C113.644 73.397 114.332 73.1747 115.179 73.1747C115.351 73.1747 115.523 73.1891 115.695 73.2177C115.881 73.2321 116.075 73.2679 116.276 73.3253ZM120.801 84.2314C119.682 84.2314 118.8 83.9303 118.155 83.328C117.524 82.7256 117.208 81.9441 117.208 80.9832C117.208 80.0081 117.545 79.2337 118.219 78.66C118.908 78.0721 119.876 77.7279 121.123 77.6275L124.371 77.3694V77.1112C124.371 76.5663 124.271 76.1361 124.07 75.8206C123.869 75.4907 123.597 75.2541 123.253 75.1107C122.909 74.9673 122.507 74.8956 122.048 74.8956C121.231 74.8956 120.6 75.0605 120.155 75.3904C119.711 75.7202 119.488 76.1863 119.488 76.7886H117.509C117.509 76.0285 117.696 75.376 118.069 74.8311C118.456 74.2718 119.001 73.8416 119.703 73.5404C120.406 73.2249 121.224 73.0672 122.156 73.0672C123.074 73.0672 123.862 73.2321 124.522 73.5619C125.196 73.8774 125.712 74.3578 126.071 75.0032C126.444 75.6485 126.63 76.4587 126.63 77.4339V83.9518H124.629L124.414 82.3169C124.171 82.8906 123.719 83.3566 123.059 83.7152C122.4 84.0593 121.647 84.2314 120.801 84.2314ZM121.532 82.446C122.407 82.446 123.102 82.1879 123.618 81.6716C124.135 81.141 124.393 80.4311 124.393 79.542V78.9612L121.941 79.1763C121.08 79.248 120.464 79.4344 120.091 79.7356C119.732 80.0368 119.553 80.4168 119.553 80.8757C119.553 81.4063 119.725 81.8007 120.069 82.0588C120.413 82.3169 120.901 82.446 121.532 82.446ZM133.621 84.2314C132.603 84.2314 131.721 83.9948 130.976 83.5216C130.244 83.0483 129.678 82.403 129.276 81.5856C128.875 80.7538 128.674 79.793 128.674 78.7031C128.674 77.6132 128.875 76.6452 129.276 75.7991C129.678 74.953 130.259 74.2861 131.019 73.7985C131.779 73.311 132.689 73.0672 133.751 73.0672C134.525 73.0672 135.22 73.2249 135.837 73.5404C136.468 73.8559 136.956 74.3148 137.3 74.9171V68.0336H139.623V83.9518H137.493L137.343 82.1664C137.013 82.826 136.511 83.3351 135.837 83.6936C135.177 84.0522 134.439 84.2314 133.621 84.2314ZM134.116 82.1018C134.776 82.1018 135.335 81.9584 135.794 81.6716C136.267 81.3704 136.633 80.9617 136.891 80.4455C137.149 79.9149 137.278 79.3126 137.278 78.6385C137.278 77.9502 137.149 77.3479 136.891 76.8316C136.633 76.301 136.267 75.8923 135.794 75.6055C135.335 75.3043 134.776 75.1537 134.116 75.1537C133.471 75.1537 132.912 75.3043 132.438 75.6055C131.979 75.9066 131.621 76.3153 131.363 76.8316C131.119 77.3479 130.997 77.9502 130.997 78.6385C130.997 79.3126 131.119 79.9149 131.363 80.4455C131.621 80.9617 131.979 81.3704 132.438 81.6716C132.912 81.9584 133.471 82.1018 134.116 82.1018ZM147.095 84.2314C146.049 84.2314 145.124 83.9948 144.321 83.5216C143.532 83.0483 142.908 82.3958 142.449 81.564C142.005 80.7179 141.782 79.7499 141.782 78.66C141.782 77.5558 141.997 76.5878 142.428 75.756C142.872 74.9243 143.489 74.2718 144.278 73.7985C145.066 73.311 145.977 73.0672 147.009 73.0672C148.042 73.0672 148.931 73.2894 149.677 73.734C150.437 74.1642 151.025 74.7809 151.441 75.584C151.871 76.3727 152.086 77.3048 152.086 78.3804V79.1548L143.008 79.1763L143.051 77.6705H149.763C149.763 76.8531 149.512 76.2078 149.01 75.7345C148.522 75.247 147.856 75.0032 147.009 75.0032C146.364 75.0032 145.812 75.1394 145.353 75.4119C144.909 75.6843 144.564 76.0931 144.321 76.638C144.091 77.1686 143.976 77.8211 143.976 78.5955C143.976 79.8001 144.242 80.7179 144.772 81.3489C145.317 81.9799 146.106 82.2954 147.139 82.2954C147.884 82.2954 148.501 82.152 148.988 81.8652C149.476 81.5784 149.792 81.1553 149.935 80.596H152.108C151.864 81.729 151.297 82.6181 150.408 83.2634C149.533 83.9088 148.429 84.2314 147.095 84.2314ZM166.096 69.4533V83.9518H163.665V69.4533H166.096ZM159.04 70.5504V68.3132H170.742V70.5504H159.04ZM170.1 78.66C170.1 77.5558 170.336 76.5878 170.809 75.756C171.297 74.9243 171.964 74.2718 172.81 73.7985C173.656 73.3253 174.617 73.0887 175.693 73.0887C176.768 73.0887 177.722 73.3253 178.553 73.7985C179.385 74.2718 180.045 74.9243 180.533 75.756C181.02 76.5878 181.264 77.5558 181.264 78.66C181.264 79.7499 181.02 80.7108 180.533 81.5425C180.045 82.3743 179.385 83.0268 178.553 83.5C177.722 83.9733 176.768 84.2099 175.693 84.2099C174.617 84.2099 173.656 83.9733 172.81 83.5C171.964 83.0268 171.297 82.3743 170.809 81.5425C170.336 80.7108 170.1 79.7499 170.1 78.66ZM172.423 78.6385C172.423 79.3269 172.559 79.9364 172.832 80.467C173.118 80.9832 173.506 81.392 173.993 81.6931C174.481 81.9799 175.047 82.1233 175.693 82.1233C176.323 82.1233 176.883 81.9799 177.37 81.6931C177.858 81.392 178.238 80.9832 178.51 80.467C178.783 79.9364 178.919 79.3269 178.919 78.6385C178.919 77.9502 178.783 77.3479 178.51 76.8316C178.238 76.3153 177.858 75.9138 177.37 75.627C176.883 75.3258 176.323 75.1752 175.693 75.1752C175.047 75.1752 174.481 75.3258 173.993 75.627C173.506 75.9138 173.118 76.3153 172.832 76.8316C172.559 77.3479 172.423 77.9502 172.423 78.6385ZM185.757 83.9518H183.434V68.0336H185.757V78.0792L190.167 73.3898H193.071L189.049 77.5845L193.007 83.9518H190.339L187.435 79.2839L185.757 81.0263V83.9518ZM198.857 84.2314C197.81 84.2314 196.885 83.9948 196.082 83.5216C195.293 83.0483 194.669 82.3958 194.21 81.564C193.766 80.7179 193.543 79.7499 193.543 78.66C193.543 77.5558 193.758 76.5878 194.189 75.756C194.633 74.9243 195.25 74.2718 196.039 73.7985C196.827 73.311 197.738 73.0672 198.771 73.0672C199.803 73.0672 200.692 73.2894 201.438 73.734C202.198 74.1642 202.786 74.7809 203.202 75.584C203.632 76.3727 203.847 77.3048 203.847 78.3804V79.1548L194.769 79.1763L194.813 77.6705H201.524C201.524 76.8531 201.273 76.2078 200.771 75.7345C200.284 75.247 199.617 75.0032 198.771 75.0032C198.125 75.0032 197.573 75.1394 197.114 75.4119C196.67 75.6843 196.325 76.0931 196.082 76.638C195.852 77.1686 195.737 77.8211 195.737 78.5955C195.737 79.8001 196.003 80.7179 196.533 81.3489C197.078 81.9799 197.867 82.2954 198.9 82.2954C199.645 82.2954 200.262 82.152 200.75 81.8652C201.237 81.5784 201.553 81.1553 201.696 80.596H203.869C203.625 81.729 203.058 82.6181 202.169 83.2634C201.295 83.9088 200.19 84.2314 198.857 84.2314ZM208.339 83.9518H206.037V73.3898H208.145L208.36 74.8741C208.704 74.3005 209.178 73.8559 209.78 73.5404C210.397 73.2249 211.078 73.0672 211.824 73.0672C213.172 73.0672 214.175 73.4615 214.835 74.2503C215.509 75.039 215.846 76.1074 215.846 77.4554V83.9518H213.544V77.9932C213.544 77.0324 213.322 76.3225 212.878 75.8636C212.447 75.4047 211.867 75.1752 211.135 75.1752C210.26 75.1752 209.572 75.4621 209.07 76.0357C208.583 76.595 208.339 77.3479 208.339 78.2944V83.9518ZM217.592 80.8112H219.786C219.801 81.3131 219.987 81.7075 220.346 81.9943C220.704 82.2811 221.199 82.4245 221.83 82.4245C222.49 82.4245 222.999 82.2954 223.357 82.0373C223.716 81.7792 223.895 81.4422 223.895 81.0263C223.895 80.7108 223.802 80.4526 223.615 80.2519C223.429 80.0368 223.078 79.8647 222.561 79.7356L220.668 79.3054C219.736 79.0759 219.034 78.7246 218.56 78.2513C218.101 77.7781 217.872 77.1328 217.872 76.3153C217.872 75.6413 218.044 75.0677 218.388 74.5944C218.747 74.1069 219.234 73.734 219.851 73.4759C220.468 73.2034 221.17 73.0672 221.959 73.0672C222.748 73.0672 223.436 73.2106 224.024 73.4974C224.612 73.7699 225.071 74.1571 225.401 74.659C225.731 75.1609 225.896 75.756 225.896 76.4444H223.701C223.687 75.9425 223.522 75.5481 223.207 75.2613C222.891 74.9745 222.447 74.8311 221.873 74.8311C221.314 74.8311 220.876 74.9601 220.561 75.2183C220.245 75.4621 220.088 75.7991 220.088 76.2293C220.088 76.8746 220.568 77.3192 221.529 77.563L223.422 77.9932C224.311 78.194 224.978 78.5238 225.422 78.9827C225.867 79.4273 226.089 80.0511 226.089 80.8542C226.089 81.5282 225.903 82.1233 225.53 82.6396C225.171 83.1559 224.669 83.5502 224.024 83.8227C223.379 84.0952 222.626 84.2314 221.765 84.2314C220.489 84.2314 219.471 83.9159 218.711 83.2849C217.965 82.6539 217.592 81.8294 217.592 80.8112Z" fill="url(#paint6_linear_732_14924)"/>
<rect x="94.8679" y="106.904" width="400.904" height="91.1145" rx="8.74699" fill="#DAFFEE" fill-opacity="0.06"/>
<path d="M113.919 125.732V134.21H112.601V125.732H113.919ZM115.925 131.236H113.604V130.059H115.645C116.181 130.059 116.59 129.919 116.87 129.639C117.157 129.351 117.301 128.958 117.301 128.461C117.301 127.963 117.157 127.582 116.87 127.318C116.59 127.046 116.189 126.91 115.668 126.91H113.406V125.732H115.925C116.485 125.732 116.971 125.848 117.383 126.082C117.795 126.307 118.114 126.626 118.339 127.038C118.572 127.45 118.689 127.928 118.689 128.472C118.689 129.009 118.572 129.487 118.339 129.907C118.114 130.319 117.795 130.646 117.383 130.887C116.971 131.12 116.485 131.236 115.925 131.236ZM121.223 134.362C120.617 134.362 120.139 134.199 119.789 133.872C119.447 133.546 119.276 133.122 119.276 132.601C119.276 132.072 119.458 131.652 119.824 131.341C120.197 131.023 120.722 130.836 121.398 130.782L123.159 130.642V130.502C123.159 130.206 123.105 129.973 122.996 129.802C122.887 129.623 122.739 129.495 122.553 129.417C122.366 129.339 122.149 129.3 121.9 129.3C121.457 129.3 121.114 129.39 120.873 129.569C120.632 129.748 120.512 130 120.512 130.327H119.439C119.439 129.915 119.54 129.561 119.742 129.265C119.952 128.962 120.248 128.729 120.629 128.566C121.009 128.395 121.453 128.309 121.958 128.309C122.456 128.309 122.883 128.399 123.241 128.577C123.606 128.748 123.886 129.009 124.081 129.359C124.283 129.709 124.384 130.148 124.384 130.677V134.21H123.299L123.183 133.324C123.05 133.635 122.806 133.888 122.448 134.082C122.09 134.269 121.682 134.362 121.223 134.362ZM121.62 133.394C122.094 133.394 122.471 133.254 122.751 132.974C123.031 132.687 123.171 132.302 123.171 131.82V131.505L121.841 131.621C121.375 131.66 121.041 131.761 120.838 131.925C120.644 132.088 120.547 132.294 120.547 132.543C120.547 132.83 120.64 133.044 120.827 133.184C121.013 133.324 121.278 133.394 121.62 133.394ZM126.359 128.484L128.295 133.919L127.572 135.108L125.017 128.484H126.359ZM125.181 136.823V135.785H125.962C126.149 135.785 126.312 135.765 126.452 135.727C126.6 135.688 126.732 135.61 126.848 135.493C126.965 135.384 127.066 135.213 127.152 134.98L129.543 128.484H130.849L128.085 135.493C127.883 136.006 127.626 136.376 127.315 136.601C127.012 136.835 126.635 136.951 126.184 136.951C125.997 136.951 125.818 136.94 125.647 136.916C125.484 136.893 125.328 136.862 125.181 136.823ZM136.11 134.21L134.233 128.484H135.551L136.39 131.201C136.46 131.411 136.522 131.637 136.577 131.878C136.639 132.111 136.697 132.356 136.752 132.613C136.783 132.434 136.818 132.267 136.857 132.111C136.896 131.956 136.938 131.804 136.985 131.656C137.032 131.509 137.078 131.357 137.125 131.201L138.011 128.484H139.294L140.146 131.201C140.169 131.264 140.196 131.353 140.227 131.47C140.258 131.586 140.293 131.715 140.332 131.855C140.371 131.987 140.406 132.123 140.437 132.263C140.468 132.395 140.496 132.512 140.519 132.613C140.55 132.465 140.585 132.309 140.624 132.146C140.663 131.975 140.705 131.812 140.752 131.656C140.799 131.493 140.845 131.341 140.892 131.201L141.755 128.484H143.073L141.102 134.21H139.924L139.026 131.435C138.925 131.1 138.843 130.813 138.781 130.572C138.719 130.323 138.672 130.121 138.641 129.965C138.61 130.113 138.563 130.296 138.501 130.513C138.447 130.731 138.357 131.046 138.233 131.458L137.335 134.21H136.11ZM143.985 134.21V128.484H145.233V134.21H143.985ZM144.603 127.225C144.386 127.225 144.199 127.147 144.044 126.991C143.888 126.836 143.81 126.649 143.81 126.431C143.81 126.214 143.888 126.027 144.044 125.872C144.199 125.716 144.386 125.638 144.603 125.638C144.821 125.638 145.008 125.716 145.163 125.872C145.319 126.027 145.397 126.214 145.397 126.431C145.397 126.649 145.319 126.836 145.163 126.991C145.008 127.147 144.821 127.225 144.603 127.225ZM146.181 128.484H149.668V129.534H146.181V128.484ZM148.548 134.21H147.301V126.688H148.548V134.21ZM151.862 134.21H150.614V125.58H151.873V129.289C152.052 128.993 152.305 128.756 152.632 128.577C152.958 128.399 153.339 128.309 153.774 128.309C154.49 128.309 155.026 128.523 155.384 128.951C155.749 129.378 155.932 129.957 155.932 130.688V134.21H154.684V130.98C154.684 130.63 154.63 130.342 154.521 130.117C154.412 129.891 154.26 129.724 154.066 129.615C153.879 129.507 153.658 129.452 153.401 129.452C153.075 129.452 152.795 129.526 152.562 129.674C152.336 129.814 152.161 130.008 152.037 130.257C151.92 130.498 151.862 130.774 151.862 131.085V134.21Z" fill="#B8FFDF"/>
<path d="M319.152 129.271V131.842H320.01V129.271L322.135 125.518H321.199L319.8 128.046C319.686 128.256 319.668 128.308 319.59 128.466C319.52 128.317 319.467 128.195 319.38 128.046L317.972 125.518H317.009L319.152 129.271ZM321.679 129.699C321.679 131.02 322.623 131.947 323.909 131.947C325.186 131.947 326.131 131.02 326.131 129.699C326.131 128.378 325.186 127.451 323.909 127.451C322.623 127.451 321.679 128.378 321.679 129.699ZM322.51 129.699C322.51 128.807 323.078 128.186 323.909 128.186C324.731 128.186 325.309 128.807 325.309 129.699C325.309 130.591 324.731 131.212 323.909 131.212C323.078 131.212 322.51 130.591 322.51 129.699ZM329.895 127.565V129.822C329.895 130.74 329.484 131.221 328.732 131.221C328.102 131.221 327.708 130.871 327.708 129.953V127.565H326.886V130.224C326.886 131.274 327.446 131.947 328.443 131.947C329.073 131.947 329.641 131.641 329.886 131.195L329.974 131.842H330.708V127.565H329.895ZM334.351 127.53C334.184 127.495 334.062 127.477 333.913 127.477C333.327 127.477 332.899 127.775 332.724 128.221L332.671 127.574H331.901V131.842H332.724V129.577C332.724 128.754 333.205 128.282 333.983 128.282H334.351V127.53ZM338.257 131.842L338.318 131.064C338.598 131.65 339.167 131.947 339.84 131.947C341.082 131.947 341.852 131.02 341.852 129.725C341.852 128.405 341.117 127.442 339.893 127.442C339.193 127.442 338.616 127.74 338.336 128.3V125.404H337.513V131.842H338.257ZM338.344 129.69C338.344 128.816 338.852 128.186 339.691 128.186C340.531 128.186 341.03 128.816 341.03 129.69C341.03 130.574 340.531 131.204 339.691 131.204C338.852 131.204 338.344 130.583 338.344 129.69ZM344.009 131.947C344.7 131.947 345.286 131.641 345.505 131.151L345.592 131.842H346.292V129.157C346.292 128.002 345.575 127.442 344.516 127.442C343.414 127.442 342.68 128.028 342.68 128.921H343.397C343.397 128.405 343.79 128.098 344.481 128.098C345.059 128.098 345.487 128.352 345.487 129.069V129.192L344.14 129.297C343.134 129.376 342.548 129.865 342.548 130.653C342.548 131.431 343.091 131.947 344.009 131.947ZM344.245 131.309C343.712 131.309 343.379 131.081 343.379 130.626C343.379 130.206 343.677 129.927 344.403 129.857L345.496 129.769V129.997C345.496 130.801 345.024 131.309 344.245 131.309ZM348.27 131.842V125.404H347.448V131.842H348.27ZM350.732 131.947C351.423 131.947 352.009 131.641 352.227 131.151L352.315 131.842H353.015V129.157C353.015 128.002 352.297 127.442 351.239 127.442C350.137 127.442 349.402 128.028 349.402 128.921H350.119C350.119 128.405 350.513 128.098 351.204 128.098C351.781 128.098 352.21 128.352 352.21 129.069V129.192L350.863 129.297C349.857 129.376 349.271 129.865 349.271 130.653C349.271 131.431 349.813 131.947 350.732 131.947ZM350.968 131.309C350.434 131.309 350.102 131.081 350.102 130.626C350.102 130.206 350.399 129.927 351.125 129.857L352.219 129.769V129.997C352.219 130.801 351.746 131.309 350.968 131.309ZM354.975 131.842V129.577C354.975 128.746 355.422 128.195 356.191 128.195C356.821 128.195 357.223 128.545 357.223 129.41V131.842H358.046V129.227C358.046 128.133 357.53 127.442 356.401 127.442C355.798 127.442 355.255 127.731 354.984 128.221L354.897 127.565H354.153V131.842H354.975ZM358.905 129.708C358.905 131.055 359.736 131.947 360.995 131.947C362.027 131.947 362.823 131.326 362.989 130.399H362.167C362.018 130.906 361.581 131.212 360.995 131.212C360.217 131.212 359.718 130.618 359.718 129.699C359.718 128.772 360.252 128.177 361.03 128.177C361.581 128.177 362.018 128.466 362.158 129.008H362.981C362.832 128.055 362.08 127.442 361.004 127.442C359.753 127.442 358.905 128.37 358.905 129.708ZM365.703 131.947C366.761 131.947 367.478 131.431 367.688 130.513H366.918C366.778 131.002 366.359 131.265 365.72 131.265C364.907 131.265 364.434 130.766 364.373 129.865L367.679 129.857V129.55C367.679 128.282 366.883 127.442 365.668 127.442C364.425 127.442 363.577 128.37 363.577 129.708C363.577 131.037 364.443 131.947 365.703 131.947ZM365.668 128.133C366.394 128.133 366.857 128.606 366.857 129.314H364.39C364.495 128.562 364.95 128.133 365.668 128.133ZM369.297 128.667C369.63 128.667 369.919 128.387 369.919 128.063C369.919 127.722 369.63 127.442 369.297 127.442C368.956 127.442 368.668 127.722 368.668 128.063C368.668 128.387 368.956 128.667 369.297 128.667ZM369.297 131.947C369.63 131.947 369.919 131.667 369.919 131.335C369.919 130.994 369.63 130.714 369.297 130.714C368.956 130.714 368.668 130.994 368.668 131.335C368.668 131.667 368.956 131.947 369.297 131.947Z" fill="white" fill-opacity="0.7"/>
<rect x="378.092" y="126.291" width="83.8253" height="5.10241" rx="2.5512" fill="#DAFFEE" fill-opacity="0.16"/>
<rect x="465.562" y="123.464" width="13.4444" height="10.7556" rx="5.37778" fill="white" fill-opacity="0.06"/>
<path d="M128.162 151.186C130.613 151.185 133.009 151.912 135.047 153.274C137.085 154.635 138.673 156.57 139.611 158.835C140.549 161.099 140.795 163.591 140.317 165.994C139.838 168.398 138.658 170.606 136.925 172.339C135.192 174.072 132.984 175.253 130.58 175.731C128.177 176.209 125.685 175.963 123.421 175.025C121.156 174.087 119.221 172.499 117.86 170.461C116.498 168.423 115.771 166.027 115.771 163.576C115.771 161.949 116.092 160.338 116.715 158.835C117.337 157.331 118.25 155.965 119.401 154.815C120.551 153.664 121.917 152.751 123.421 152.129C124.924 151.506 126.535 151.186 128.162 151.186ZM124.12 163.576C124.12 169.565 128.162 174.419 128.162 174.419C128.162 174.419 132.205 169.565 132.205 163.576C132.205 157.588 128.162 152.735 128.162 152.735C128.162 152.735 124.12 157.589 124.12 163.576Z" fill="#4FFFB0"/>
<path d="M148.295 160.915H151.747C153.508 160.915 154.522 160.063 154.522 158.606C154.522 157.614 154.068 156.938 153.17 156.646C153.974 156.308 154.394 155.632 154.394 154.687C154.394 153.264 153.368 152.389 151.688 152.389H148.295V160.915ZM151.56 153.707C152.4 153.707 152.866 154.104 152.866 154.839C152.866 155.597 152.411 156.028 151.595 156.028H149.787V153.707H151.56ZM151.688 157.288C152.516 157.288 152.995 157.696 152.995 158.419C152.995 159.189 152.528 159.597 151.688 159.597H149.787V157.288H151.688ZM155.401 154.769C155.401 156.075 156.159 156.903 157.606 157.218L158.958 157.521C159.658 157.673 159.95 158.011 159.95 158.582C159.95 159.294 159.32 159.725 158.329 159.725C157.372 159.725 156.789 159.294 156.778 158.571H155.285C155.32 160.098 156.509 161.066 158.329 161.066C160.206 161.066 161.443 160.04 161.443 158.454C161.443 157.183 160.731 156.436 159.273 156.121L157.932 155.83C157.221 155.667 156.894 155.328 156.894 154.722C156.894 154.011 157.489 153.567 158.41 153.567C159.25 153.567 159.775 153.999 159.81 154.734H161.303C161.256 153.194 160.16 152.238 158.434 152.238C156.638 152.238 155.401 153.276 155.401 154.769ZM164.939 156.658L162.047 160.915H163.796L165.872 157.801C166.21 158.419 166.514 158.932 166.887 159.504L167.843 160.915H169.604L166.805 156.646L169.592 152.389H167.855L165.872 155.515C165.557 154.932 165.266 154.442 164.916 153.917L163.878 152.389H162.105L164.939 156.658Z" fill="white"/>
<g clip-path="url(#clip1_732_14924)">
<path d="M148.085 173.604H150.586C151.837 173.604 152.598 172.965 152.598 171.915C152.598 171.163 152.239 170.656 151.54 170.428C152.169 170.166 152.484 169.676 152.484 168.95C152.484 167.909 151.732 167.28 150.499 167.28H148.085V173.604ZM150.446 168.041C151.19 168.041 151.61 168.399 151.61 169.029C151.61 169.685 151.207 170.07 150.499 170.07H148.942V168.041H150.446ZM150.569 170.813C151.295 170.813 151.715 171.181 151.715 171.811C151.715 172.467 151.303 172.843 150.569 172.843H148.942V170.813H150.569ZM154.782 173.709C155.473 173.709 156.059 173.402 156.278 172.913L156.365 173.604H157.065V170.918C157.065 169.764 156.348 169.204 155.289 169.204C154.187 169.204 153.452 169.79 153.452 170.682H154.17C154.17 170.166 154.563 169.86 155.254 169.86C155.832 169.86 156.26 170.114 156.26 170.831V170.953L154.913 171.058C153.907 171.137 153.321 171.627 153.321 172.414C153.321 173.193 153.863 173.709 154.782 173.709ZM155.018 173.07C154.485 173.07 154.152 172.843 154.152 172.388C154.152 171.968 154.45 171.688 155.176 171.618L156.269 171.531V171.758C156.269 172.563 155.797 173.07 155.018 173.07ZM157.854 172.362C157.854 173.175 158.492 173.709 159.498 173.709C160.513 173.709 161.213 173.193 161.213 172.379C161.213 171.741 160.854 171.408 160.128 171.233L159.376 171.05C158.956 170.945 158.746 170.752 158.746 170.463C158.746 170.07 159.035 169.842 159.551 169.842C160.049 169.842 160.338 170.114 160.355 170.542H161.143C161.125 169.729 160.513 169.204 159.577 169.204C158.632 169.204 157.967 169.702 157.967 170.49C157.967 171.119 158.326 171.496 159.087 171.679L159.839 171.854C160.285 171.968 160.425 172.143 160.425 172.432C160.425 172.825 160.093 173.061 159.516 173.061C158.973 173.061 158.641 172.799 158.641 172.362H157.854ZM162.527 168.312C162.824 168.312 163.069 168.067 163.069 167.769C163.069 167.463 162.824 167.227 162.527 167.227C162.229 167.227 161.984 167.463 161.984 167.769C161.984 168.067 162.229 168.312 162.527 168.312ZM162.124 173.604H162.947V169.326H162.124V173.604ZM164.98 173.604V167.166H164.158V173.604H164.98ZM166.593 168.312C166.89 168.312 167.135 168.067 167.135 167.769C167.135 167.463 166.89 167.227 166.593 167.227C166.295 167.227 166.05 167.463 166.05 167.769C166.05 168.067 166.295 168.312 166.593 168.312ZM166.19 173.604H167.013V169.326H166.19V173.604ZM167.856 172.362C167.856 173.175 168.495 173.709 169.501 173.709C170.515 173.709 171.215 173.193 171.215 172.379C171.215 171.741 170.857 171.408 170.131 171.233L169.378 171.05C168.958 170.945 168.749 170.752 168.749 170.463C168.749 170.07 169.037 169.842 169.553 169.842C170.052 169.842 170.34 170.114 170.358 170.542H171.145C171.128 169.729 170.515 169.204 169.58 169.204C168.635 169.204 167.97 169.702 167.97 170.49C167.97 171.119 168.329 171.496 169.09 171.679L169.842 171.854C170.288 171.968 170.428 172.143 170.428 172.432C170.428 172.825 170.096 173.061 169.518 173.061C168.976 173.061 168.644 172.799 168.644 172.362H167.856ZM172.967 173.604V172.388L173.693 171.627L174.944 173.604H175.888L174.261 171.032L175.897 169.326H174.865L172.967 171.338V167.166H172.144V173.604H172.967Z" fill="#ACB2B5"/>
</g>
<path d="M180.723 161.751C180.742 161.689 180.757 161.626 180.778 161.565C180.831 161.404 180.923 161.259 181.045 161.143C181.167 161.027 181.316 160.943 181.477 160.899C181.639 160.856 181.809 160.853 181.973 160.892C182.136 160.93 182.287 161.01 182.412 161.122C182.449 161.154 182.484 161.189 182.519 161.225L185.366 164.105C185.392 164.131 185.415 164.161 185.445 164.196C185.481 164.162 185.507 164.138 185.532 164.112L188.419 161.193C188.597 160.988 188.848 160.863 189.117 160.845C189.385 160.828 189.65 160.919 189.853 161.098C190.056 161.278 190.179 161.532 190.197 161.804C190.215 162.076 190.125 162.343 189.947 162.548C189.916 162.587 189.882 162.623 189.847 162.658L186.209 166.337C186.061 166.502 185.864 166.615 185.648 166.657C185.431 166.698 185.207 166.667 185.009 166.568C184.9 166.511 184.8 166.438 184.713 166.35C183.49 165.117 182.268 163.883 181.047 162.647C180.883 162.478 180.771 162.265 180.723 162.033V161.751Z" fill="white"/>
<rect x="214.41" y="144.078" width="264.596" height="39.3614" rx="6.56024" fill="#DAFFEE" fill-opacity="0.06"/>
<path d="M388.691 162.517V160.956H384.702L386.434 159.473C387.89 158.227 388.625 157.216 388.625 155.878C388.625 153.936 387.352 152.768 385.306 152.768C383.272 152.768 381.934 154.133 381.921 156.232H383.587C383.6 154.999 384.256 154.264 385.306 154.264C386.316 154.264 386.906 154.881 386.906 155.97C386.906 156.888 386.473 157.518 385.174 158.62L382.039 161.27V162.53L388.691 162.517ZM389.712 159.814C389.712 161.559 391.142 162.687 393.36 162.687C395.59 162.687 397.02 161.546 397.02 159.814C397.02 158.659 396.364 157.728 395.354 157.374C396.207 157.019 396.679 156.298 396.679 155.366C396.679 153.805 395.354 152.768 393.386 152.768C391.405 152.768 390.053 153.818 390.053 155.34C390.053 156.272 390.513 156.993 391.352 157.374C390.355 157.754 389.712 158.673 389.712 159.814ZM391.575 155.484C391.575 154.697 392.271 154.199 393.36 154.199C394.436 154.199 395.118 154.697 395.118 155.497C395.118 156.298 394.436 156.796 393.36 156.796C392.271 156.796 391.575 156.285 391.575 155.484ZM391.352 159.696C391.352 158.764 392.127 158.187 393.36 158.187C394.593 158.187 395.367 158.764 395.367 159.696C395.367 160.628 394.593 161.205 393.373 161.205C392.127 161.205 391.352 160.628 391.352 159.696ZM401.386 162.687C403.525 162.687 404.981 161.27 404.981 159.197C404.981 157.308 403.708 156.009 401.793 156.009C401.137 156.009 400.559 156.18 400.1 156.481L400.612 154.487H404.404V152.939H399.405L398.224 157.964L399.706 158.279C400.048 157.78 400.717 157.413 401.451 157.413C402.606 157.413 403.275 158.174 403.275 159.289C403.275 160.457 402.554 161.192 401.425 161.192C400.362 161.192 399.72 160.549 399.72 159.46H398.053C398.053 161.402 399.378 162.687 401.386 162.687ZM409.253 162.687C411.392 162.687 412.848 161.27 412.848 159.197C412.848 157.308 411.575 156.009 409.66 156.009C409.004 156.009 408.426 156.18 407.967 156.481L408.479 154.487H412.271V152.939H407.272L406.091 157.964L407.574 158.279C407.915 157.78 408.584 157.413 409.319 157.413C410.473 157.413 411.142 158.174 411.142 159.289C411.142 160.457 410.421 161.192 409.292 161.192C408.23 161.192 407.587 160.549 407.587 159.46H405.92C405.92 161.402 407.246 162.687 409.253 162.687ZM414.947 162.687C415.524 162.687 416.01 162.215 416.01 161.651C416.01 161.074 415.524 160.601 414.947 160.601C414.37 160.601 413.884 161.074 413.884 161.651C413.884 162.215 414.37 162.687 414.947 162.687ZM424.119 162.517V160.956H420.13L421.862 159.473C423.318 158.227 424.053 157.216 424.053 155.878C424.053 153.936 422.78 152.768 420.733 152.768C418.7 152.768 417.362 154.133 417.348 156.232H419.015C419.028 154.999 419.684 154.264 420.733 154.264C421.744 154.264 422.334 154.881 422.334 155.97C422.334 156.888 421.901 157.518 420.602 158.62L417.466 161.27V162.53L424.119 162.517ZM432.439 160.706V159.237H431.271V152.939H429.158L424.816 159.237V160.706H429.683V162.53H431.271V160.706H432.439ZM426.6 159.237L429.683 154.75V159.237H426.6ZM434.693 155.76C433.617 157.216 433.236 158.056 433.236 159.211C433.236 161.179 434.784 162.701 436.857 162.701C438.904 162.701 440.426 161.27 440.426 159.224C440.426 157.282 439.088 155.891 437.107 155.891C436.871 155.891 436.621 155.93 436.385 155.996L438.681 152.939H436.766L434.693 155.76ZM434.955 159.224C434.955 158.069 435.716 157.269 436.857 157.269C437.96 157.269 438.734 158.069 438.734 159.224C438.734 160.391 437.946 161.205 436.857 161.205C435.729 161.205 434.955 160.391 434.955 159.224ZM444.948 155.616C444.948 157.085 445.801 158.017 447.428 158.371L448.95 158.712C449.737 158.883 450.065 159.263 450.065 159.906C450.065 160.706 449.357 161.192 448.241 161.192C447.165 161.192 446.509 160.706 446.496 159.893H444.817C444.856 161.612 446.195 162.701 448.241 162.701C450.354 162.701 451.745 161.546 451.745 159.762C451.745 158.331 450.944 157.492 449.304 157.138L447.795 156.809C446.995 156.626 446.628 156.245 446.628 155.563C446.628 154.763 447.297 154.264 448.333 154.264C449.278 154.264 449.868 154.75 449.908 155.576H451.587C451.535 153.844 450.301 152.768 448.359 152.768C446.339 152.768 444.948 153.936 444.948 155.616ZM454.09 162.53L454.865 160.313H458.446L459.221 162.53H460.992L457.528 152.939H455.809L452.345 162.53H454.09ZM456.452 155.799C456.544 155.537 456.623 155.248 456.662 155.064C456.688 155.261 456.78 155.55 456.859 155.799L457.961 158.896H455.363L456.452 155.799ZM463.572 162.53V160.785L464.517 159.801L466.209 162.53H468.046L465.632 158.62L468.099 156.049H466.091L463.572 158.764V152.768H461.985V162.53H463.572Z" fill="white"/>
<path d="M424.043 172.482H424.663C424.663 172.715 424.621 172.924 424.539 173.109C424.461 173.288 424.349 173.432 424.204 173.539C424.058 173.641 423.883 173.692 423.679 173.692C423.504 173.692 423.341 173.663 423.19 173.604C423.045 173.541 422.906 173.471 422.775 173.393C422.649 173.31 422.525 173.24 422.403 173.182C422.287 173.118 422.17 173.087 422.053 173.087C421.903 173.087 421.796 173.135 421.733 173.233C421.669 173.325 421.638 173.456 421.638 173.626H421.018C421.018 173.398 421.057 173.196 421.135 173.021C421.217 172.841 421.332 172.701 421.477 172.598C421.628 172.496 421.803 172.445 422.002 172.445C422.167 172.445 422.321 172.477 422.461 172.54C422.607 172.598 422.746 172.669 422.877 172.752C423.008 172.829 423.134 172.9 423.256 172.963C423.377 173.021 423.501 173.05 423.628 173.05C423.778 173.05 423.885 173.002 423.948 172.905C424.012 172.803 424.043 172.662 424.043 172.482ZM424.043 173.903H424.663C424.663 174.136 424.621 174.345 424.539 174.53C424.461 174.71 424.349 174.853 424.204 174.96C424.058 175.062 423.883 175.113 423.679 175.113C423.504 175.113 423.341 175.084 423.19 175.026C423.045 174.963 422.906 174.892 422.775 174.814C422.649 174.732 422.525 174.661 422.403 174.603C422.287 174.54 422.17 174.508 422.053 174.508C421.903 174.508 421.796 174.557 421.733 174.654C421.669 174.746 421.638 174.878 421.638 175.048H421.018C421.018 174.819 421.057 174.618 421.135 174.443C421.217 174.263 421.332 174.122 421.477 174.02C421.628 173.913 421.803 173.859 422.002 173.859C422.167 173.859 422.321 173.891 422.461 173.954C422.607 174.017 422.746 174.09 422.877 174.173C423.008 174.251 423.134 174.321 423.256 174.384C423.377 174.443 423.501 174.472 423.628 174.472C423.778 174.472 423.885 174.423 423.948 174.326C424.012 174.224 424.043 174.083 424.043 173.903ZM427.547 174.501C427.547 174.141 427.656 173.83 427.875 173.568C428.093 173.306 428.382 173.14 428.742 173.072L428.749 173.24C428.429 173.152 428.178 173.002 427.999 172.788C427.824 172.569 427.736 172.307 427.736 172.001C427.736 171.719 427.811 171.473 427.962 171.265C428.118 171.056 428.329 170.893 428.596 170.776C428.868 170.655 429.184 170.594 429.544 170.594C429.899 170.594 430.21 170.652 430.477 170.769C430.744 170.886 430.951 171.051 431.096 171.265C431.247 171.478 431.322 171.729 431.322 172.015C431.322 172.321 431.235 172.581 431.06 172.795C430.885 173.009 430.637 173.155 430.317 173.233L430.309 173.08C430.552 173.118 430.764 173.203 430.943 173.335C431.128 173.466 431.269 173.631 431.366 173.83C431.468 174.03 431.519 174.253 431.519 174.501C431.519 174.817 431.437 175.094 431.271 175.332C431.106 175.565 430.875 175.747 430.579 175.879C430.283 176.01 429.935 176.075 429.537 176.075C429.133 176.075 428.783 176.012 428.487 175.886C428.191 175.755 427.96 175.57 427.794 175.332C427.629 175.094 427.547 174.817 427.547 174.501ZM428.356 174.443C428.356 174.627 428.404 174.788 428.502 174.924C428.599 175.055 428.735 175.159 428.91 175.237C429.09 175.31 429.298 175.346 429.537 175.346C429.775 175.346 429.981 175.31 430.156 175.237C430.331 175.159 430.467 175.055 430.564 174.924C430.662 174.788 430.71 174.627 430.71 174.443C430.71 174.17 430.603 173.954 430.389 173.794C430.176 173.629 429.889 173.546 429.529 173.546C429.17 173.546 428.883 173.629 428.669 173.794C428.46 173.954 428.356 174.17 428.356 174.443ZM428.494 172.066C428.494 172.304 428.587 172.496 428.771 172.642C428.961 172.783 429.213 172.854 429.529 172.854C429.845 172.854 430.095 172.783 430.28 172.642C430.465 172.501 430.557 172.312 430.557 172.074C430.557 171.836 430.465 171.648 430.28 171.512C430.095 171.371 429.845 171.301 429.529 171.301C429.213 171.301 428.961 171.371 428.771 171.512C428.587 171.648 428.494 171.833 428.494 172.066ZM433.96 176.075C433.596 176.075 433.275 176.002 432.998 175.857C432.726 175.711 432.515 175.507 432.364 175.244C432.218 174.977 432.145 174.666 432.145 174.311H432.954C432.954 174.632 433.044 174.885 433.224 175.069C433.409 175.249 433.659 175.339 433.975 175.339C434.198 175.339 434.39 175.293 434.551 175.201C434.716 175.108 434.845 174.98 434.937 174.814C435.029 174.644 435.076 174.445 435.076 174.217C435.076 173.998 435.032 173.806 434.944 173.641C434.857 173.476 434.733 173.347 434.573 173.254C434.412 173.157 434.215 173.109 433.982 173.109C433.773 173.109 433.576 173.155 433.392 173.247C433.207 173.34 433.061 173.459 432.954 173.604L432.24 173.437L432.889 170.689H435.593V171.447H433.239L433.559 171.155L433.1 172.985L432.823 173.072C432.949 172.858 433.129 172.696 433.363 172.584C433.596 172.467 433.858 172.409 434.15 172.409C434.505 172.409 434.813 172.484 435.076 172.635C435.343 172.786 435.549 172.995 435.695 173.262C435.841 173.529 435.914 173.835 435.914 174.18C435.914 174.554 435.831 174.885 435.666 175.172C435.501 175.453 435.272 175.674 434.981 175.835C434.689 175.995 434.349 176.075 433.96 176.075ZM438.302 176.075C437.938 176.075 437.617 176.002 437.34 175.857C437.068 175.711 436.857 175.507 436.706 175.244C436.56 174.977 436.487 174.666 436.487 174.311H437.297C437.297 174.632 437.386 174.885 437.566 175.069C437.751 175.249 438.001 175.339 438.317 175.339C438.541 175.339 438.732 175.293 438.893 175.201C439.058 175.108 439.187 174.98 439.279 174.814C439.372 174.644 439.418 174.445 439.418 174.217C439.418 173.998 439.374 173.806 439.286 173.641C439.199 173.476 439.075 173.347 438.915 173.254C438.754 173.157 438.558 173.109 438.324 173.109C438.115 173.109 437.919 173.155 437.734 173.247C437.549 173.34 437.403 173.459 437.297 173.604L436.582 173.437L437.231 170.689H439.935V171.447H437.581L437.902 171.155L437.442 172.985L437.165 173.072C437.292 172.858 437.471 172.696 437.705 172.584C437.938 172.467 438.2 172.409 438.492 172.409C438.847 172.409 439.155 172.484 439.418 172.635C439.685 172.786 439.891 172.995 440.037 173.262C440.183 173.529 440.256 173.835 440.256 174.18C440.256 174.554 440.173 174.885 440.008 175.172C439.843 175.453 439.614 175.674 439.323 175.835C439.031 175.995 438.691 176.075 438.302 176.075ZM441.401 176.075C441.246 176.075 441.112 176.022 441.001 175.915C440.894 175.808 440.84 175.682 440.84 175.536C440.84 175.38 440.894 175.249 441.001 175.142C441.112 175.035 441.246 174.982 441.401 174.982C441.552 174.982 441.681 175.035 441.788 175.142C441.899 175.249 441.955 175.38 441.955 175.536C441.955 175.682 441.899 175.808 441.788 175.915C441.681 176.022 441.552 176.075 441.401 176.075ZM446.389 175.981L442.766 175.988V175.361L444.486 173.896C444.685 173.731 444.851 173.58 444.982 173.444C445.113 173.308 445.218 173.182 445.295 173.065C445.373 172.948 445.429 172.832 445.463 172.715C445.497 172.594 445.514 172.467 445.514 172.336C445.514 172.02 445.429 171.775 445.259 171.6C445.094 171.42 444.863 171.33 444.566 171.33C444.255 171.33 444.008 171.435 443.823 171.644C443.643 171.848 443.548 172.13 443.539 172.489H442.722C442.727 172.105 442.807 171.772 442.963 171.491C443.118 171.204 443.332 170.983 443.604 170.827C443.881 170.672 444.202 170.594 444.566 170.594C444.936 170.594 445.252 170.662 445.514 170.798C445.781 170.934 445.988 171.128 446.134 171.381C446.279 171.634 446.352 171.935 446.352 172.285C446.352 172.47 446.328 172.647 446.279 172.817C446.231 172.982 446.155 173.145 446.053 173.306C445.951 173.466 445.82 173.631 445.66 173.801C445.504 173.966 445.315 174.144 445.091 174.333L443.757 175.478L443.473 175.215H446.389V175.981ZM450.291 170.689V175.988H449.504V170.689H450.291ZM446.792 174.224L449.242 170.689H450.116L447.638 174.275L446.792 174.224ZM450.925 174.953H446.792V174.224H450.925V174.953ZM453.783 174.078V170.689H454.607V174.027C454.607 174.43 454.714 174.739 454.928 174.953C455.142 175.167 455.448 175.274 455.846 175.274C456.24 175.274 456.544 175.167 456.757 174.953C456.971 174.734 457.078 174.426 457.078 174.027V170.689H457.902V174.078C457.902 174.486 457.819 174.841 457.654 175.142C457.489 175.439 457.251 175.67 456.94 175.835C456.634 175.995 456.269 176.075 455.846 176.075C455.424 176.075 455.057 175.995 454.746 175.835C454.439 175.674 454.201 175.444 454.031 175.142C453.866 174.841 453.783 174.486 453.783 174.078ZM458.76 172.139C458.76 171.833 458.838 171.566 458.993 171.337C459.153 171.104 459.372 170.922 459.649 170.791C459.931 170.66 460.254 170.594 460.619 170.594C460.968 170.594 461.272 170.655 461.53 170.776C461.787 170.898 461.989 171.073 462.135 171.301C462.28 171.529 462.361 171.799 462.375 172.11H461.544C461.53 171.862 461.44 171.67 461.275 171.534C461.109 171.398 460.888 171.33 460.611 171.33C460.3 171.33 460.05 171.401 459.86 171.542C459.676 171.682 459.583 171.874 459.583 172.117C459.583 172.317 459.639 172.477 459.751 172.598C459.868 172.72 460.043 172.807 460.276 172.861L461.136 173.058C461.578 173.155 461.909 173.323 462.127 173.561C462.351 173.794 462.463 174.102 462.463 174.486C462.463 174.807 462.383 175.089 462.222 175.332C462.067 175.57 461.846 175.755 461.559 175.886C461.272 176.017 460.937 176.083 460.553 176.083C460.188 176.083 459.868 176.022 459.591 175.9C459.314 175.774 459.098 175.597 458.942 175.368C458.787 175.14 458.704 174.873 458.694 174.567H459.518C459.528 174.805 459.625 174.994 459.809 175.135C459.994 175.271 460.244 175.339 460.56 175.339C460.891 175.339 461.153 175.269 461.347 175.128C461.542 174.987 461.639 174.797 461.639 174.559C461.639 174.36 461.583 174.202 461.471 174.085C461.364 173.964 461.194 173.876 460.961 173.823L460.108 173.634C459.666 173.536 459.331 173.364 459.102 173.116C458.874 172.863 458.76 172.538 458.76 172.139ZM465.152 175.988H463.33V170.689H465.116C465.641 170.689 466.102 170.8 466.501 171.024C466.899 171.248 467.208 171.559 467.426 171.957C467.65 172.355 467.762 172.82 467.762 173.349C467.762 173.869 467.652 174.328 467.434 174.727C467.215 175.121 466.909 175.429 466.515 175.653C466.127 175.876 465.672 175.988 465.152 175.988ZM464.154 171.068V175.616L463.76 175.23H465.087C465.461 175.23 465.782 175.155 466.049 175.004C466.321 174.848 466.53 174.63 466.676 174.348C466.826 174.066 466.902 173.733 466.902 173.349C466.902 172.956 466.826 172.618 466.676 172.336C466.525 172.049 466.311 171.831 466.034 171.68C465.762 171.525 465.434 171.447 465.05 171.447H463.76L464.154 171.068Z" fill="#ACB2B5"/>
<rect x="214.775" y="144.443" width="263.867" height="38.6325" rx="6.19578" stroke="white" stroke-opacity="0.12" stroke-width="0.728916"/>
<line x1="72.2715" y1="220.614" x2="94.139" y2="220.614" stroke="#4CF3A8" stroke-opacity="0.12" stroke-width="0.728916"/>
<path d="M109.811 205.307C106.711 205.307 103.681 206.226 101.104 207.948C98.5267 209.67 96.518 212.118 95.3318 214.982C94.1457 217.845 93.8354 220.996 94.4401 224.036C95.0448 227.076 96.5373 229.869 98.729 232.06C100.921 234.252 103.713 235.745 106.753 236.349C109.793 236.954 112.944 236.644 115.808 235.458C118.672 234.272 121.119 232.263 122.841 229.686C124.563 227.108 125.482 224.078 125.482 220.979C125.478 216.824 123.825 212.841 120.887 209.903C117.949 206.965 113.966 205.312 109.811 205.307Z" fill="#4CF3A8" fill-opacity="0.12"/>
<path d="M109.8 215.862L109.8 225.794M109.8 225.794L105.966 221.96M109.8 225.794L113.622 221.971" stroke="#8AFFCB" stroke-width="1.45783" stroke-linecap="round" stroke-linejoin="round"/>
<line x1="125.481" y1="220.959" x2="357.645" y2="220.27" stroke="#4CF3A8" stroke-opacity="0.12" stroke-width="0.728916"/>
<rect x="357.646" y="210.774" width="133.392" height="20.4096" rx="5.10241" fill="#DAFFEE" fill-opacity="0.06"/>
<path d="M370.778 222.444C371.908 222.444 372.646 221.658 372.646 220.575C372.646 219.461 371.916 218.715 370.778 218.715H368.525V224.512H369.311V222.444H370.778ZM370.642 219.421C371.379 219.421 371.82 219.838 371.82 220.567C371.82 221.281 371.387 221.738 370.61 221.738H369.311V219.421H370.642ZM375.653 220.559C375.501 220.527 375.388 220.511 375.252 220.511C374.715 220.511 374.322 220.784 374.162 221.193L374.113 220.6H373.408V224.512H374.162V222.436C374.162 221.682 374.603 221.249 375.316 221.249H375.653V220.559ZM376.729 219.661C377.001 219.661 377.226 219.437 377.226 219.164C377.226 218.884 377.001 218.667 376.729 218.667C376.456 218.667 376.232 218.884 376.232 219.164C376.232 219.437 376.456 219.661 376.729 219.661ZM376.36 224.512H377.114V220.591H376.36V224.512ZM377.951 222.556C377.951 223.791 378.713 224.609 379.867 224.609C380.814 224.609 381.543 224.039 381.696 223.189H380.942C380.806 223.654 380.405 223.935 379.867 223.935C379.154 223.935 378.697 223.39 378.697 222.548C378.697 221.698 379.186 221.153 379.9 221.153C380.405 221.153 380.806 221.417 380.934 221.914H381.688C381.551 221.041 380.862 220.479 379.875 220.479C378.729 220.479 377.951 221.329 377.951 222.556ZM384.183 224.609C385.153 224.609 385.81 224.135 386.003 223.294H385.297C385.169 223.743 384.784 223.983 384.199 223.983C383.453 223.983 383.02 223.526 382.964 222.7L385.995 222.692V222.412C385.995 221.249 385.265 220.479 384.151 220.479C383.012 220.479 382.234 221.329 382.234 222.556C382.234 223.775 383.028 224.609 384.183 224.609ZM384.151 221.113C384.816 221.113 385.241 221.546 385.241 222.195H382.98C383.076 221.506 383.493 221.113 384.151 221.113ZM387.478 221.602C387.783 221.602 388.047 221.345 388.047 221.049C388.047 220.736 387.783 220.479 387.478 220.479C387.165 220.479 386.901 220.736 386.901 221.049C386.901 221.345 387.165 221.602 387.478 221.602ZM387.478 224.609C387.783 224.609 388.047 224.352 388.047 224.047C388.047 223.735 387.783 223.478 387.478 223.478C387.165 223.478 386.901 223.735 386.901 224.047C386.901 224.352 387.165 224.609 387.478 224.609Z" fill="white"/>
<rect x="398.097" y="218.428" width="83.8253" height="5.10241" rx="2.5512" fill="#DAFFEE" fill-opacity="0.16"/>
<line x1="491.038" y1="220.614" x2="539.875" y2="220.614" stroke="#4CF3A8" stroke-opacity="0.12" stroke-width="0.728916"/>
<rect x="94.8679" y="243.94" width="400.904" height="91.1145" rx="8.74699" fill="#DAFFEE" fill-opacity="0.06"/>
<path d="M114.619 267.853L111.75 262.768H113.231L115.004 266.01C115.058 266.111 115.109 266.212 115.155 266.313C115.202 266.407 115.248 266.5 115.295 266.593C115.334 266.523 115.365 266.461 115.388 266.407C115.412 266.352 115.435 266.294 115.458 266.232C115.49 266.169 115.532 266.092 115.587 265.998L117.348 262.768H118.794L115.937 267.853V271.247H114.619V267.853ZM118.135 268.378C118.135 267.779 118.263 267.254 118.519 266.803C118.784 266.352 119.145 265.998 119.604 265.742C120.063 265.485 120.584 265.357 121.167 265.357C121.75 265.357 122.267 265.485 122.718 265.742C123.169 265.998 123.527 266.352 123.791 266.803C124.055 267.254 124.187 267.779 124.187 268.378C124.187 268.968 124.055 269.489 123.791 269.94C123.527 270.391 123.169 270.745 122.718 271.002C122.267 271.258 121.75 271.387 121.167 271.387C120.584 271.387 120.063 271.258 119.604 271.002C119.145 270.745 118.784 270.391 118.519 269.94C118.263 269.489 118.135 268.968 118.135 268.378ZM119.394 268.366C119.394 268.739 119.468 269.07 119.616 269.357C119.771 269.637 119.981 269.859 120.245 270.022C120.51 270.178 120.817 270.255 121.167 270.255C121.509 270.255 121.812 270.178 122.077 270.022C122.341 269.859 122.547 269.637 122.695 269.357C122.842 269.07 122.916 268.739 122.916 268.366C122.916 267.993 122.842 267.666 122.695 267.386C122.547 267.106 122.341 266.889 122.077 266.733C121.812 266.57 121.509 266.488 121.167 266.488C120.817 266.488 120.51 266.57 120.245 266.733C119.981 266.889 119.771 267.106 119.616 267.386C119.468 267.666 119.394 267.993 119.394 268.366ZM129.134 265.52H130.394V271.247H129.239L129.123 270.43C128.959 270.718 128.703 270.951 128.353 271.13C128.011 271.309 127.638 271.398 127.233 271.398C126.573 271.398 126.059 271.188 125.694 270.768C125.329 270.349 125.146 269.789 125.146 269.089V265.509H126.405V268.657C126.405 269.233 126.518 269.645 126.744 269.894C126.969 270.143 127.288 270.267 127.7 270.267C128.174 270.267 128.532 270.123 128.773 269.835C129.014 269.548 129.134 269.112 129.134 268.529V265.52ZM134.74 268.249C134.74 267.697 134.853 267.204 135.079 266.768C135.304 266.333 135.619 265.987 136.023 265.73C136.435 265.474 136.914 265.345 137.458 265.345C137.963 265.345 138.395 265.462 138.752 265.695C139.11 265.921 139.359 266.236 139.499 266.64L139.359 266.78L139.475 265.52H140.63V270.978C140.63 271.6 140.51 272.137 140.269 272.588C140.027 273.047 139.685 273.396 139.242 273.637C138.807 273.886 138.29 274.011 137.691 274.011C136.89 274.011 136.229 273.797 135.708 273.369C135.195 272.942 134.888 272.358 134.787 271.62H136.058C136.113 272.016 136.284 272.323 136.571 272.541C136.859 272.767 137.228 272.879 137.679 272.879C138.2 272.879 138.612 272.724 138.916 272.413C139.219 272.11 139.37 271.705 139.37 271.2V269.672L139.534 269.824C139.386 270.22 139.122 270.535 138.741 270.768C138.36 271.002 137.917 271.118 137.411 271.118C136.875 271.118 136.404 270.994 136 270.745C135.603 270.489 135.292 270.146 135.067 269.719C134.849 269.283 134.74 268.794 134.74 268.249ZM136.012 268.214C136.012 268.556 136.078 268.864 136.21 269.136C136.342 269.4 136.533 269.614 136.781 269.777C137.03 269.933 137.322 270.01 137.656 270.01C137.998 270.01 138.294 269.936 138.542 269.789C138.799 269.633 138.993 269.419 139.126 269.147C139.266 268.875 139.335 268.564 139.335 268.214C139.335 267.864 139.269 267.557 139.137 267.293C139.005 267.029 138.815 266.823 138.566 266.675C138.317 266.519 138.014 266.442 137.656 266.442C137.314 266.442 137.019 266.523 136.77 266.686C136.529 266.842 136.342 267.052 136.21 267.316C136.078 267.581 136.012 267.88 136.012 268.214ZM144.682 271.398C144.115 271.398 143.613 271.27 143.178 271.013C142.75 270.757 142.412 270.403 142.163 269.952C141.922 269.493 141.802 268.968 141.802 268.378C141.802 267.779 141.918 267.254 142.151 266.803C142.392 266.352 142.727 265.998 143.154 265.742C143.582 265.477 144.076 265.345 144.636 265.345C145.195 265.345 145.677 265.466 146.082 265.707C146.494 265.94 146.813 266.274 147.038 266.71C147.271 267.137 147.388 267.643 147.388 268.226V268.646L142.466 268.657L142.49 267.841H146.128C146.128 267.398 145.992 267.048 145.72 266.791C145.456 266.527 145.094 266.395 144.636 266.395C144.286 266.395 143.986 266.469 143.738 266.617C143.496 266.764 143.31 266.986 143.178 267.281C143.053 267.569 142.991 267.923 142.991 268.343C142.991 268.996 143.135 269.493 143.423 269.835C143.718 270.178 144.146 270.349 144.706 270.349C145.11 270.349 145.444 270.271 145.708 270.115C145.973 269.96 146.144 269.73 146.222 269.427H147.4C147.267 270.041 146.96 270.523 146.478 270.873C146.004 271.223 145.405 271.398 144.682 271.398ZM147.923 265.52H151.411V266.57H147.923V265.52ZM150.291 271.247H149.043V263.724H150.291V271.247Z" fill="#B8FFDF"/>
<path d="M319.152 266.404V268.976H320.01V266.404L322.135 262.652H321.199L319.8 265.18C319.686 265.39 319.668 265.442 319.59 265.6C319.52 265.451 319.467 265.328 319.38 265.18L317.972 262.652H317.009L319.152 266.404ZM321.679 266.833C321.679 268.154 322.623 269.081 323.909 269.081C325.186 269.081 326.131 268.154 326.131 266.833C326.131 265.512 325.186 264.585 323.909 264.585C322.623 264.585 321.679 265.512 321.679 266.833ZM322.51 266.833C322.51 265.941 323.078 265.32 323.909 265.32C324.731 265.32 325.309 265.941 325.309 266.833C325.309 267.725 324.731 268.346 323.909 268.346C323.078 268.346 322.51 267.725 322.51 266.833ZM329.895 264.699V266.955C329.895 267.874 329.484 268.355 328.732 268.355C328.102 268.355 327.708 268.005 327.708 267.087V264.699H326.886V267.358C326.886 268.407 327.446 269.081 328.443 269.081C329.073 269.081 329.641 268.775 329.886 268.329L329.974 268.976H330.708V264.699H329.895ZM334.351 264.664C334.184 264.629 334.062 264.611 333.913 264.611C333.327 264.611 332.899 264.909 332.724 265.355L332.671 264.707H331.901V268.976H332.724V266.71C332.724 265.888 333.205 265.416 333.983 265.416H334.351V264.664ZM338.257 268.976L338.318 268.197C338.598 268.784 339.167 269.081 339.84 269.081C341.082 269.081 341.852 268.154 341.852 266.859C341.852 265.538 341.117 264.576 339.893 264.576C339.193 264.576 338.616 264.874 338.336 265.433V262.538H337.513V268.976H338.257ZM338.344 266.824C338.344 265.949 338.852 265.32 339.691 265.32C340.531 265.32 341.03 265.949 341.03 266.824C341.03 267.708 340.531 268.337 339.691 268.337C338.852 268.337 338.344 267.716 338.344 266.824ZM344.009 269.081C344.7 269.081 345.286 268.775 345.505 268.285L345.592 268.976H346.292V266.291C346.292 265.136 345.575 264.576 344.516 264.576C343.414 264.576 342.68 265.162 342.68 266.054H343.397C343.397 265.538 343.79 265.232 344.481 265.232C345.059 265.232 345.487 265.486 345.487 266.203V266.326L344.14 266.431C343.134 266.509 342.548 266.999 342.548 267.786C342.548 268.565 343.091 269.081 344.009 269.081ZM344.245 268.442C343.712 268.442 343.379 268.215 343.379 267.76C343.379 267.34 343.677 267.06 344.403 266.99L345.496 266.903V267.13C345.496 267.935 345.024 268.442 344.245 268.442ZM348.27 268.976V262.538H347.448V268.976H348.27ZM350.732 269.081C351.423 269.081 352.009 268.775 352.227 268.285L352.315 268.976H353.015V266.291C353.015 265.136 352.297 264.576 351.239 264.576C350.137 264.576 349.402 265.162 349.402 266.054H350.119C350.119 265.538 350.513 265.232 351.204 265.232C351.781 265.232 352.21 265.486 352.21 266.203V266.326L350.863 266.431C349.857 266.509 349.271 266.999 349.271 267.786C349.271 268.565 349.813 269.081 350.732 269.081ZM350.968 268.442C350.434 268.442 350.102 268.215 350.102 267.76C350.102 267.34 350.399 267.06 351.125 266.99L352.219 266.903V267.13C352.219 267.935 351.746 268.442 350.968 268.442ZM354.975 268.976V266.71C354.975 265.88 355.422 265.328 356.191 265.328C356.821 265.328 357.223 265.678 357.223 266.544V268.976H358.046V266.361C358.046 265.267 357.53 264.576 356.401 264.576C355.798 264.576 355.255 264.865 354.984 265.355L354.897 264.699H354.153V268.976H354.975ZM358.905 266.842C358.905 268.189 359.736 269.081 360.995 269.081C362.027 269.081 362.823 268.46 362.989 267.533H362.167C362.018 268.04 361.581 268.346 360.995 268.346C360.217 268.346 359.718 267.751 359.718 266.833C359.718 265.906 360.252 265.311 361.03 265.311C361.581 265.311 362.018 265.6 362.158 266.142H362.981C362.832 265.189 362.08 264.576 361.004 264.576C359.753 264.576 358.905 265.503 358.905 266.842ZM365.703 269.081C366.761 269.081 367.478 268.565 367.688 267.646H366.918C366.778 268.136 366.359 268.399 365.72 268.399C364.907 268.399 364.434 267.9 364.373 266.999L367.679 266.99V266.684C367.679 265.416 366.883 264.576 365.668 264.576C364.425 264.576 363.577 265.503 363.577 266.842C363.577 268.171 364.443 269.081 365.703 269.081ZM365.668 265.267C366.394 265.267 366.857 265.74 366.857 266.448H364.39C364.495 265.696 364.95 265.267 365.668 265.267ZM369.297 265.801C369.63 265.801 369.919 265.521 369.919 265.197C369.919 264.856 369.63 264.576 369.297 264.576C368.956 264.576 368.668 264.856 368.668 265.197C368.668 265.521 368.956 265.801 369.297 265.801ZM369.297 269.081C369.63 269.081 369.919 268.801 369.919 268.469C369.919 268.127 369.63 267.848 369.297 267.848C368.956 267.848 368.668 268.127 368.668 268.469C368.668 268.801 368.956 269.081 369.297 269.081Z" fill="white" fill-opacity="0.7"/>
<rect x="378.092" y="263.425" width="83.8253" height="5.10241" rx="2.5512" fill="#DAFFEE" fill-opacity="0.16"/>
<rect x="465.562" y="260.598" width="13.4444" height="10.7556" rx="5.37778" fill="white" fill-opacity="0.06"/>
<g clip-path="url(#clip2_732_14924)">
<circle cx="128.398" cy="300.796" r="14.5783" fill="url(#paint7_linear_732_14924)"/>
<path d="M132.568 293.777L128.006 297.958C127.535 298.39 126.92 298.631 126.281 298.634L124.921 298.637L124.917 293.777H122.458V307.665H123.799C124.169 307.666 124.532 307.568 124.851 307.382C125.17 307.196 125.434 306.928 125.615 306.606C125.618 306.602 125.619 306.597 125.623 306.594C125.866 306.153 125.988 305.281 125.964 304.686C125.911 303.326 125.694 302.973 125.694 302.973C125.649 303.905 124.684 303.955 124.684 303.955C125.37 303.294 124.996 302.794 124.996 302.794C123.78 303.667 123.476 302.735 123.453 302.65C123.491 302.683 123.837 302.974 124.495 302.066C125.19 301.105 126.117 299.504 126.706 299.093C127.297 298.68 127.858 298.714 127.858 298.714C127.858 298.714 128.181 298.272 129.034 297.906C129.887 297.542 130.435 298.076 130.435 298.076C129.562 298.786 128.377 299.952 128.311 301.623C128.259 302.976 131.148 305.296 130.641 308.724C130.944 307.945 131.066 307.165 130.962 306.2C130.878 305.422 130.381 303.796 130.381 303.796L133.156 307.664H136.225L130.227 299.351L136.224 293.777H132.567H132.568Z" fill="white"/>
<path d="M126.98 299.756C126.787 300.08 126.787 300.18 126.787 300.18C126.787 300.18 127.464 300.064 127.648 299.252C127.649 299.252 127.215 299.365 126.98 299.756Z" fill="white"/>
</g>
<path d="M149.787 289.874H148.295V298.399H149.787V296.58L151.199 294.772L153.309 298.399H155.036L152.178 293.512L155.001 289.874H153.239L149.787 294.352V289.874ZM156.888 298.399L157.576 296.428H160.76L161.448 298.399H163.022L159.944 289.874H158.416L155.337 298.399H156.888ZM158.987 292.416C159.069 292.183 159.139 291.926 159.174 291.763C159.197 291.938 159.279 292.195 159.349 292.416L160.328 295.168H158.019L158.987 292.416ZM165.584 298.399V295.215H167.415L168.862 298.399H170.494L168.873 294.9C169.876 294.492 170.413 293.676 170.413 292.533C170.413 290.853 169.281 289.874 167.345 289.874H164.091V298.399H165.584ZM165.584 291.203H167.345C168.29 291.203 168.85 291.681 168.85 292.533C168.85 293.396 168.29 293.897 167.345 293.897H165.584V291.203Z" fill="white"/>
<g clip-path="url(#clip3_732_14924)">
<path d="M148.942 303.868H148.085V310.192H148.942V308.74L150.096 307.279L151.82 310.192H152.817L150.665 306.553L152.782 303.868H151.758L148.942 307.454V303.868ZM154.688 310.297C155.379 310.297 155.965 309.99 156.184 309.501L156.271 310.192H156.971V307.506C156.971 306.352 156.254 305.792 155.195 305.792C154.093 305.792 153.358 306.378 153.358 307.27H154.076C154.076 306.754 154.469 306.448 155.16 306.448C155.738 306.448 156.166 306.702 156.166 307.419V307.541L154.819 307.646C153.813 307.725 153.227 308.215 153.227 309.002C153.227 309.781 153.77 310.297 154.688 310.297ZM154.924 309.658C154.391 309.658 154.058 309.431 154.058 308.976C154.058 308.556 154.356 308.276 155.082 308.206L156.175 308.119V308.346C156.175 309.151 155.703 309.658 154.924 309.658ZM160.559 305.879C160.393 305.844 160.27 305.827 160.121 305.827C159.535 305.827 159.107 306.124 158.932 306.57L158.879 305.923H158.11V310.192H158.932V307.926C158.932 307.104 159.413 306.632 160.191 306.632H160.559V305.879ZM164.286 305.914V308.171C164.286 309.09 163.875 309.571 163.123 309.571C162.493 309.571 162.1 309.221 162.1 308.302V305.914H161.277V308.573C161.277 309.623 161.837 310.297 162.834 310.297C163.464 310.297 164.033 309.99 164.278 309.544L164.365 310.192H165.1V305.914H164.286ZM168.742 305.879C168.576 305.844 168.453 305.827 168.305 305.827C167.719 305.827 167.29 306.124 167.115 306.57L167.063 305.923H166.293V310.192H167.115V307.926C167.115 307.104 167.596 306.632 168.375 306.632H168.742V305.879ZM170.593 310.297C171.284 310.297 171.87 309.99 172.089 309.501L172.176 310.192H172.876V307.506C172.876 306.352 172.159 305.792 171.1 305.792C169.998 305.792 169.264 306.378 169.264 307.27H169.981C169.981 306.754 170.374 306.448 171.065 306.448C171.643 306.448 172.071 306.702 172.071 307.419V307.541L170.724 307.646C169.718 307.725 169.132 308.215 169.132 309.002C169.132 309.781 169.675 310.297 170.593 310.297ZM170.829 309.658C170.296 309.658 169.963 309.431 169.963 308.976C169.963 308.556 170.261 308.276 170.987 308.206L172.08 308.119V308.346C172.08 309.151 171.608 309.658 170.829 309.658Z" fill="#ACB2B5"/>
</g>
<path d="M178.723 298.787C178.742 298.725 178.757 298.662 178.778 298.601C178.831 298.44 178.923 298.295 179.045 298.179C179.167 298.063 179.316 297.98 179.477 297.936C179.639 297.892 179.809 297.889 179.973 297.928C180.136 297.967 180.287 298.046 180.412 298.158C180.449 298.191 180.484 298.226 180.519 298.261L183.366 301.141C183.392 301.167 183.415 301.197 183.445 301.232C183.481 301.199 183.507 301.174 183.532 301.148L186.419 298.23C186.597 298.025 186.848 297.899 187.117 297.882C187.385 297.864 187.65 297.955 187.853 298.134C188.056 298.314 188.179 298.568 188.197 298.84C188.215 299.112 188.125 299.38 187.947 299.585C187.916 299.623 187.882 299.659 187.847 299.695L184.209 303.373C184.061 303.539 183.864 303.651 183.648 303.693C183.431 303.734 183.207 303.703 183.009 303.604C182.9 303.547 182.8 303.474 182.713 303.386C181.49 302.153 180.268 300.919 179.047 299.683C178.883 299.514 178.771 299.301 178.723 299.069V298.787Z" fill="white"/>
<rect x="214.41" y="281.114" width="264.596" height="39.3614" rx="6.56024" fill="#DAFFEE" fill-opacity="0.06"/>
<path d="M385.367 299.552V297.991H381.378L383.11 296.508C384.567 295.262 385.301 294.252 385.301 292.913C385.301 290.972 384.029 289.804 381.982 289.804C379.948 289.804 378.61 291.168 378.597 293.268H380.263C380.276 292.034 380.932 291.3 381.982 291.3C382.992 291.3 383.583 291.916 383.583 293.005C383.583 293.924 383.15 294.554 381.851 295.656L378.715 298.306V299.566L385.367 299.552ZM386.389 296.85C386.389 298.595 387.819 299.723 390.036 299.723C392.267 299.723 393.697 298.582 393.697 296.85C393.697 295.695 393.041 294.763 392.03 294.409C392.883 294.055 393.356 293.333 393.356 292.402C393.356 290.84 392.03 289.804 390.062 289.804C388.081 289.804 386.73 290.854 386.73 292.376C386.73 293.307 387.189 294.029 388.029 294.409C387.032 294.79 386.389 295.708 386.389 296.85ZM388.252 292.52C388.252 291.733 388.947 291.234 390.036 291.234C391.112 291.234 391.794 291.733 391.794 292.533C391.794 293.333 391.112 293.832 390.036 293.832C388.947 293.832 388.252 293.32 388.252 292.52ZM388.029 296.732C388.029 295.8 388.803 295.223 390.036 295.223C391.269 295.223 392.044 295.8 392.044 296.732C392.044 297.663 391.269 298.24 390.049 298.24C388.803 298.24 388.029 297.663 388.029 296.732ZM398.062 299.723C400.201 299.723 401.657 298.306 401.657 296.233C401.657 294.344 400.384 293.045 398.469 293.045C397.813 293.045 397.236 293.215 396.776 293.517L397.288 291.523H401.08V289.974H396.081L394.9 295L396.383 295.315C396.724 294.816 397.393 294.449 398.128 294.449C399.282 294.449 399.951 295.21 399.951 296.325C399.951 297.493 399.23 298.227 398.102 298.227C397.039 298.227 396.396 297.584 396.396 296.495H394.73C394.73 298.437 396.055 299.723 398.062 299.723ZM405.929 299.723C408.068 299.723 409.524 298.306 409.524 296.233C409.524 294.344 408.252 293.045 406.336 293.045C405.68 293.045 405.103 293.215 404.644 293.517L405.155 291.523H408.947V289.974H403.948L402.767 295L404.25 295.315C404.591 294.816 405.26 294.449 405.995 294.449C407.15 294.449 407.819 295.21 407.819 296.325C407.819 297.493 407.097 298.227 405.969 298.227C404.906 298.227 404.263 297.584 404.263 296.495H402.597C402.597 298.437 403.922 299.723 405.929 299.723ZM411.623 299.723C412.201 299.723 412.686 299.251 412.686 298.686C412.686 298.109 412.201 297.637 411.623 297.637C411.046 297.637 410.561 298.109 410.561 298.686C410.561 299.251 411.046 299.723 411.623 299.723ZM420.795 299.552V297.991H416.806L418.538 296.508C419.994 295.262 420.729 294.252 420.729 292.913C420.729 290.972 419.457 289.804 417.41 289.804C415.376 289.804 414.038 291.168 414.025 293.268H415.691C415.704 292.034 416.36 291.3 417.41 291.3C418.42 291.3 419.01 291.916 419.01 293.005C419.01 293.924 418.577 294.554 417.279 295.656L414.143 298.306V299.566L420.795 299.552ZM429.115 297.742V296.272H427.947V289.974H425.835L421.492 296.272V297.742H426.36V299.566H427.947V297.742H429.115ZM423.276 296.272L426.36 291.785V296.272H423.276ZM431.369 292.795C430.293 294.252 429.912 295.091 429.912 296.246C429.912 298.214 431.461 299.736 433.534 299.736C435.58 299.736 437.102 298.306 437.102 296.259C437.102 294.317 435.764 292.927 433.783 292.927C433.547 292.927 433.298 292.966 433.061 293.032L435.357 289.974H433.442L431.369 292.795ZM431.631 296.259C431.631 295.105 432.392 294.304 433.534 294.304C434.636 294.304 435.41 295.105 435.41 296.259C435.41 297.427 434.623 298.24 433.534 298.24C432.405 298.24 431.631 297.427 431.631 296.259ZM443.855 289.974H442.175V299.566H443.855V297.519L445.442 295.485L447.817 299.566H449.759L446.545 294.068L449.72 289.974H447.739L443.855 295.013V289.974ZM451.843 299.566L452.617 297.348H456.199L456.973 299.566H458.744L455.281 289.974H453.562L450.098 299.566H451.843ZM454.205 292.835C454.297 292.572 454.375 292.284 454.415 292.1C454.441 292.297 454.533 292.585 454.611 292.835L455.714 295.931H453.116L454.205 292.835ZM461.626 299.566V295.984H463.686L465.313 299.566H467.15L465.326 295.629C466.455 295.17 467.058 294.252 467.058 292.966C467.058 291.077 465.786 289.974 463.608 289.974H459.947V299.566H461.626ZM461.626 291.47H463.608C464.67 291.47 465.3 292.008 465.3 292.966C465.3 293.937 464.67 294.501 463.608 294.501H461.626V291.47Z" fill="white"/>
<path d="M423.719 309.517H424.339C424.339 309.751 424.298 309.96 424.215 310.144C424.137 310.324 424.026 310.467 423.88 310.574C423.734 310.676 423.559 310.727 423.355 310.727C423.18 310.727 423.017 310.698 422.867 310.64C422.721 310.577 422.582 310.506 422.451 310.428C422.325 310.346 422.201 310.275 422.079 310.217C421.963 310.154 421.846 310.122 421.73 310.122C421.579 310.122 421.472 310.171 421.409 310.268C421.346 310.36 421.314 310.492 421.314 310.662H420.694C420.694 310.433 420.733 310.232 420.811 310.057C420.894 309.877 421.008 309.736 421.154 309.634C421.304 309.532 421.479 309.481 421.678 309.481C421.844 309.481 421.997 309.512 422.138 309.576C422.283 309.634 422.422 309.704 422.553 309.787C422.684 309.865 422.811 309.935 422.932 309.998C423.054 310.057 423.178 310.086 423.304 310.086C423.455 310.086 423.562 310.037 423.625 309.94C423.688 309.838 423.719 309.697 423.719 309.517ZM423.719 310.939H424.339C424.339 311.172 424.298 311.381 424.215 311.566C424.137 311.745 424.026 311.889 423.88 311.996C423.734 312.098 423.559 312.149 423.355 312.149C423.18 312.149 423.017 312.12 422.867 312.061C422.721 311.998 422.582 311.928 422.451 311.85C422.325 311.767 422.201 311.697 422.079 311.638C421.963 311.575 421.846 311.544 421.73 311.544C421.579 311.544 421.472 311.592 421.409 311.69C421.346 311.782 421.314 311.913 421.314 312.083H420.694C420.694 311.855 420.733 311.653 420.811 311.478C420.894 311.298 421.008 311.157 421.154 311.055C421.304 310.948 421.479 310.895 421.678 310.895C421.844 310.895 421.997 310.927 422.138 310.99C422.283 311.053 422.422 311.126 422.553 311.208C422.684 311.286 422.811 311.357 422.932 311.42C423.054 311.478 423.178 311.507 423.304 311.507C423.455 311.507 423.562 311.459 423.625 311.362C423.688 311.259 423.719 311.119 423.719 310.939ZM427.223 311.536C427.223 311.177 427.332 310.866 427.551 310.603C427.77 310.341 428.059 310.176 428.418 310.108L428.426 310.275C428.105 310.188 427.855 310.037 427.675 309.823C427.5 309.605 427.412 309.342 427.412 309.036C427.412 308.754 427.488 308.509 427.638 308.3C427.794 308.091 428.005 307.928 428.273 307.812C428.545 307.69 428.861 307.629 429.22 307.629C429.575 307.629 429.886 307.688 430.153 307.804C430.42 307.921 430.627 308.086 430.773 308.3C430.923 308.514 430.999 308.764 430.999 309.051C430.999 309.357 430.911 309.617 430.736 309.831C430.561 310.045 430.314 310.19 429.993 310.268L429.986 310.115C430.228 310.154 430.44 310.239 430.62 310.37C430.804 310.501 430.945 310.667 431.042 310.866C431.144 311.065 431.196 311.289 431.196 311.536C431.196 311.852 431.113 312.129 430.948 312.367C430.782 312.601 430.552 312.783 430.255 312.914C429.959 313.045 429.611 313.111 429.213 313.111C428.81 313.111 428.46 313.048 428.163 312.921C427.867 312.79 427.636 312.606 427.471 312.367C427.306 312.129 427.223 311.852 427.223 311.536ZM428.032 311.478C428.032 311.663 428.081 311.823 428.178 311.959C428.275 312.09 428.411 312.195 428.586 312.273C428.766 312.346 428.975 312.382 429.213 312.382C429.451 312.382 429.658 312.346 429.832 312.273C430.007 312.195 430.143 312.09 430.241 311.959C430.338 311.823 430.386 311.663 430.386 311.478C430.386 311.206 430.28 310.99 430.066 310.829C429.852 310.664 429.565 310.582 429.206 310.582C428.846 310.582 428.559 310.664 428.345 310.829C428.137 310.99 428.032 311.206 428.032 311.478ZM428.171 309.102C428.171 309.34 428.263 309.532 428.448 309.678C428.637 309.819 428.89 309.889 429.206 309.889C429.521 309.889 429.772 309.819 429.956 309.678C430.141 309.537 430.233 309.347 430.233 309.109C430.233 308.871 430.141 308.684 429.956 308.548C429.772 308.407 429.521 308.337 429.206 308.337C428.89 308.337 428.637 308.407 428.448 308.548C428.263 308.684 428.171 308.869 428.171 309.102ZM433.637 313.111C433.272 313.111 432.951 313.038 432.674 312.892C432.402 312.746 432.191 312.542 432.04 312.28C431.894 312.013 431.822 311.702 431.822 311.347H432.631C432.631 311.668 432.721 311.92 432.9 312.105C433.085 312.285 433.335 312.375 433.651 312.375C433.875 312.375 434.067 312.329 434.227 312.236C434.392 312.144 434.521 312.015 434.613 311.85C434.706 311.68 434.752 311.481 434.752 311.252C434.752 311.033 434.708 310.842 434.621 310.676C434.533 310.511 434.409 310.382 434.249 310.29C434.088 310.193 433.892 310.144 433.658 310.144C433.449 310.144 433.253 310.19 433.068 310.283C432.883 310.375 432.738 310.494 432.631 310.64L431.916 310.472L432.565 307.724H435.269V308.482H432.915L433.236 308.191L432.776 310.02L432.499 310.108C432.626 309.894 432.806 309.731 433.039 309.619C433.272 309.503 433.534 309.444 433.826 309.444C434.181 309.444 434.489 309.52 434.752 309.67C435.019 309.821 435.226 310.03 435.371 310.297C435.517 310.565 435.59 310.871 435.59 311.216C435.59 311.59 435.507 311.92 435.342 312.207C435.177 312.489 434.949 312.71 434.657 312.87C434.365 313.031 434.025 313.111 433.637 313.111ZM437.979 313.111C437.614 313.111 437.294 313.038 437.017 312.892C436.744 312.746 436.533 312.542 436.382 312.28C436.237 312.013 436.164 311.702 436.164 311.347H436.973C436.973 311.668 437.063 311.92 437.242 312.105C437.427 312.285 437.677 312.375 437.993 312.375C438.217 312.375 438.409 312.329 438.569 312.236C438.734 312.144 438.863 312.015 438.955 311.85C439.048 311.68 439.094 311.481 439.094 311.252C439.094 311.033 439.05 310.842 438.963 310.676C438.875 310.511 438.751 310.382 438.591 310.29C438.431 310.193 438.234 310.144 438.001 310.144C437.792 310.144 437.595 310.19 437.41 310.283C437.225 310.375 437.08 310.494 436.973 310.64L436.258 310.472L436.907 307.724H439.611V308.482H437.257L437.578 308.191L437.119 310.02L436.842 310.108C436.968 309.894 437.148 309.731 437.381 309.619C437.614 309.503 437.877 309.444 438.168 309.444C438.523 309.444 438.832 309.52 439.094 309.67C439.361 309.821 439.568 310.03 439.714 310.297C439.859 310.565 439.932 310.871 439.932 311.216C439.932 311.59 439.85 311.92 439.684 312.207C439.519 312.489 439.291 312.71 438.999 312.87C438.708 313.031 438.367 313.111 437.979 313.111ZM441.078 313.111C440.922 313.111 440.789 313.057 440.677 312.951C440.57 312.844 440.516 312.717 440.516 312.572C440.516 312.416 440.57 312.285 440.677 312.178C440.789 312.071 440.922 312.018 441.078 312.018C441.228 312.018 441.357 312.071 441.464 312.178C441.576 312.285 441.632 312.416 441.632 312.572C441.632 312.717 441.576 312.844 441.464 312.951C441.357 313.057 441.228 313.111 441.078 313.111ZM446.065 313.016L442.442 313.023V312.397L444.162 310.931C444.362 310.766 444.527 310.616 444.658 310.48C444.789 310.343 444.894 310.217 444.972 310.1C445.049 309.984 445.105 309.867 445.139 309.751C445.173 309.629 445.19 309.503 445.19 309.372C445.19 309.056 445.105 308.81 444.935 308.635C444.77 308.456 444.539 308.366 444.243 308.366C443.932 308.366 443.684 308.47 443.499 308.679C443.319 308.883 443.225 309.165 443.215 309.525H442.398C442.403 309.141 442.484 308.808 442.639 308.526C442.795 308.239 443.008 308.018 443.28 307.863C443.557 307.707 443.878 307.629 444.243 307.629C444.612 307.629 444.928 307.697 445.19 307.834C445.458 307.97 445.664 308.164 445.81 308.417C445.956 308.669 446.028 308.971 446.028 309.321C446.028 309.505 446.004 309.683 445.956 309.853C445.907 310.018 445.832 310.181 445.73 310.341C445.628 310.501 445.496 310.667 445.336 310.837C445.181 311.002 444.991 311.179 444.767 311.369L443.434 312.513L443.149 312.251H446.065V313.016ZM449.967 307.724V313.023H449.18V307.724H449.967ZM446.469 311.259L448.918 307.724H449.792L447.314 311.31L446.469 311.259ZM450.602 311.988H446.469V311.259H450.602V311.988ZM453.46 311.114V307.724H454.283V311.063C454.283 311.466 454.39 311.775 454.604 311.988C454.818 312.202 455.124 312.309 455.523 312.309C455.916 312.309 456.22 312.202 456.434 311.988C456.648 311.77 456.754 311.461 456.754 311.063V307.724H457.578V311.114C457.578 311.522 457.495 311.877 457.33 312.178C457.165 312.474 456.927 312.705 456.616 312.87C456.31 313.031 455.945 313.111 455.523 313.111C455.1 313.111 454.733 313.031 454.422 312.87C454.116 312.71 453.878 312.479 453.708 312.178C453.542 311.877 453.46 311.522 453.46 311.114ZM458.436 309.175C458.436 308.869 458.514 308.601 458.669 308.373C458.83 308.14 459.048 307.957 459.325 307.826C459.607 307.695 459.93 307.629 460.295 307.629C460.645 307.629 460.948 307.69 461.206 307.812C461.463 307.933 461.665 308.108 461.811 308.337C461.957 308.565 462.037 308.835 462.051 309.146H461.221C461.206 308.898 461.116 308.706 460.951 308.57C460.786 308.434 460.564 308.366 460.288 308.366C459.977 308.366 459.726 308.436 459.537 308.577C459.352 308.718 459.26 308.91 459.26 309.153C459.26 309.352 459.316 309.512 459.427 309.634C459.544 309.755 459.719 309.843 459.952 309.896L460.812 310.093C461.255 310.19 461.585 310.358 461.804 310.596C462.027 310.829 462.139 311.138 462.139 311.522C462.139 311.843 462.059 312.124 461.898 312.367C461.743 312.606 461.522 312.79 461.235 312.921C460.948 313.053 460.613 313.118 460.229 313.118C459.865 313.118 459.544 313.057 459.267 312.936C458.99 312.81 458.774 312.632 458.618 312.404C458.463 312.175 458.38 311.908 458.37 311.602H459.194C459.204 311.84 459.301 312.03 459.486 312.171C459.67 312.307 459.921 312.375 460.236 312.375C460.567 312.375 460.829 312.304 461.024 312.163C461.218 312.022 461.315 311.833 461.315 311.595C461.315 311.396 461.259 311.238 461.148 311.121C461.041 310.999 460.871 310.912 460.637 310.859L459.785 310.669C459.342 310.572 459.007 310.399 458.779 310.152C458.55 309.899 458.436 309.573 458.436 309.175ZM464.829 313.023H463.006V307.724H464.792C465.317 307.724 465.779 307.836 466.177 308.06C466.576 308.283 466.884 308.594 467.103 308.993C467.326 309.391 467.438 309.855 467.438 310.385C467.438 310.905 467.329 311.364 467.11 311.762C466.891 312.156 466.585 312.465 466.192 312.688C465.803 312.912 465.349 313.023 464.829 313.023ZM463.83 308.103V312.652L463.436 312.265H464.763C465.137 312.265 465.458 312.19 465.725 312.039C465.997 311.884 466.206 311.665 466.352 311.383C466.503 311.102 466.578 310.769 466.578 310.385C466.578 309.991 466.503 309.653 466.352 309.372C466.201 309.085 465.988 308.866 465.711 308.716C465.438 308.56 465.11 308.482 464.726 308.482H463.436L463.83 308.103Z" fill="#ACB2B5"/>
<rect x="214.775" y="281.479" width="263.867" height="38.6325" rx="6.19578" stroke="white" stroke-opacity="0.12" stroke-width="0.728916"/>
<rect x="94.8677" y="349.633" width="121" height="8.01807" rx="4.00904" fill="#DAFFEE" fill-opacity="0.06"/>
<rect x="432.356" y="349.633" width="63.4157" height="8.01807" rx="4.00904" fill="#4CF3A8" fill-opacity="0.12"/>
<line x1="94.8677" y1="365.486" x2="495.771" y2="365.486" stroke="white" stroke-opacity="0.12" stroke-width="0.364458"/>
<rect x="94.8677" y="373.687" width="61.2289" height="8.01807" rx="4.00904" fill="#DAFFEE" fill-opacity="0.06"/>
<rect x="455.681" y="373.687" width="40.0904" height="8.01807" rx="4.00904" fill="#4CF3A8" fill-opacity="0.12"/>
<line x1="94.8677" y1="389.541" x2="495.771" y2="389.541" stroke="white" stroke-opacity="0.12" stroke-width="0.364458"/>
<rect x="94.8677" y="397.741" width="91.8434" height="8.01807" rx="4.00904" fill="#DAFFEE" fill-opacity="0.06"/>
<rect x="432.356" y="397.741" width="63.4157" height="8.01807" rx="4.00904" fill="#4CF3A8" fill-opacity="0.12"/>
<line x1="94.8677" y1="413.595" x2="495.771" y2="413.595" stroke="white" stroke-opacity="0.12" stroke-width="0.364458"/>
<rect x="94.8677" y="421.795" width="150.886" height="8.01807" rx="4.00904" fill="#DAFFEE" fill-opacity="0.06"/>
<rect x="407.573" y="421.795" width="88.1988" height="8.01807" rx="4.00904" fill="#4CF3A8" fill-opacity="0.12"/>
<line x1="94.8677" y1="437.649" x2="495.771" y2="437.649" stroke="white" stroke-opacity="0.12" stroke-width="0.364458"/>
<rect x="94.8677" y="445.849" width="56.1265" height="8.01807" rx="4.00904" fill="#DAFFEE" fill-opacity="0.06"/>
<rect x="458.597" y="445.849" width="37.1747" height="8.01807" rx="4.00904" fill="#4CF3A8" fill-opacity="0.12"/>
<circle cx="482.651" cy="76.344" r="14.8232" fill="white" fill-opacity="0.06"/>
<path d="M489.983 72.9879H488.121C487.974 72.4838 487.667 72.0412 487.246 71.7263C486.825 71.4114 486.314 71.2412 485.789 71.2412C485.263 71.2412 484.752 71.4114 484.331 71.7263C483.911 72.0412 483.604 72.4838 483.456 72.9879H474.603C474.418 72.9879 474.24 73.0615 474.109 73.1925C473.978 73.3236 473.904 73.5013 473.904 73.6865C473.904 73.8718 473.978 74.0495 474.109 74.1805C474.24 74.3116 474.418 74.3852 474.603 74.3852H483.456C483.604 74.8892 483.911 75.3319 484.331 75.6468C484.752 75.9617 485.263 76.1319 485.789 76.1319C486.314 76.1319 486.825 75.9617 487.246 75.6468C487.667 75.3319 487.974 74.8892 488.121 74.3852H489.983C490.168 74.3852 490.346 74.3116 490.477 74.1805C490.608 74.0495 490.682 73.8718 490.682 73.6865C490.682 73.5013 490.608 73.3236 490.477 73.1925C490.346 73.0615 490.168 72.9879 489.983 72.9879ZM485.789 74.7348C485.581 74.7348 485.379 74.6733 485.206 74.5581C485.034 74.4429 484.899 74.2792 484.82 74.0877C484.741 73.8961 484.72 73.6854 484.76 73.482C484.801 73.2787 484.901 73.0919 485.047 72.9453C485.194 72.7987 485.381 72.6989 485.584 72.6584C485.788 72.618 485.998 72.6387 486.19 72.7181C486.382 72.7974 486.545 72.9318 486.661 73.1042C486.776 73.2765 486.837 73.4792 486.837 73.6865C486.837 73.9645 486.726 74.2309 486.53 74.4274C486.333 74.6239 486.067 74.7345 485.789 74.7348Z" fill="#9EA9B1"/>
<path d="M489.982 78.5778H481.129C480.981 78.0737 480.674 77.631 480.254 77.3161C479.833 77.0012 479.322 76.8311 478.796 76.8311C478.271 76.8311 477.76 77.0012 477.339 77.3161C476.919 77.631 476.611 78.0737 476.464 78.5778H474.602C474.42 78.5833 474.248 78.6593 474.121 78.7898C473.995 78.9203 473.924 79.0949 473.924 79.2767C473.924 79.4585 473.995 79.6331 474.121 79.7636C474.248 79.8941 474.42 79.9701 474.602 79.9756H476.464C476.611 80.4797 476.919 80.9223 477.339 81.2372C477.76 81.5521 478.271 81.7223 478.796 81.7223C479.322 81.7223 479.833 81.5521 480.254 81.2372C480.674 80.9223 480.981 80.4797 481.129 79.9756H489.982C490.164 79.9701 490.336 79.8941 490.463 79.7636C490.589 79.6331 490.66 79.4585 490.66 79.2767C490.66 79.0949 490.589 78.9203 490.463 78.7898C490.336 78.6593 490.164 78.5833 489.982 78.5778ZM478.796 80.3253C478.589 80.3253 478.386 80.2638 478.214 80.1486C478.041 80.0334 477.907 79.8697 477.828 79.6782C477.748 79.4866 477.728 79.2759 477.768 79.0725C477.808 78.8692 477.908 78.6824 478.055 78.5358C478.202 78.3892 478.388 78.2893 478.592 78.2489C478.795 78.2085 479.006 78.2292 479.198 78.3085C479.389 78.3879 479.553 78.5222 479.668 78.6946C479.784 78.867 479.845 79.0697 479.845 79.277C479.845 79.5549 479.734 79.8214 479.538 80.0179C479.341 80.2144 479.074 80.3249 478.796 80.3253Z" fill="#9EA9B1"/>
</g>
<rect x="73.4481" y="45.4481" width="443.742" height="483.104" rx="17.4778" stroke="white" stroke-opacity="0.06" stroke-width="0.896296"/>
</g>
</g>
<defs>
<filter id="filter0_d_732_14924" x="8.77037" y="40.7704" width="527.098" height="566.459" filterUnits="userSpaceOnUse" color-interpolation-filters="sRGB">
<feFlood flood-opacity="0" result="BackgroundImageFix"/>
<feColorMatrix in="SourceAlpha" type="matrix" values="0 0 0 0 0 0 0 0 0 0 0 0 0 0 0 0 0 0 127 0" result="hardAlpha"/>
<feOffset dx="-23" dy="37"/>
<feGaussianBlur stdDeviation="20.6148"/>
<feComposite in2="hardAlpha" operator="out"/>
<feColorMatrix type="matrix" values="0 0 0 0 0 0 0 0 0 0 0 0 0 0 0 0 0 0 0.26 0"/>
<feBlend mode="normal" in2="BackgroundImageFix" result="effect1_dropShadow_732_14924"/>
<feBlend mode="normal" in="SourceGraphic" in2="effect1_dropShadow_732_14924" result="shape"/>
</filter>
<linearGradient id="paint0_linear_732_14924" x1="273.5" y1="0" x2="273.5" y2="496" gradientUnits="userSpaceOnUse">
<stop stop-color="#37383F"/>
<stop offset="1" stop-opacity="0"/>
</linearGradient>
<linearGradient id="paint1_linear_732_14924" x1="273.5" y1="-10" x2="273.5" y2="496" gradientUnits="userSpaceOnUse">
<stop stop-color="#63FFD0" stop-opacity="0.54"/>
<stop offset="0.257571" stop-color="#4FFFB0" stop-opacity="0.34"/>
<stop offset="1" stop-opacity="0"/>
</linearGradient>
<linearGradient id="paint2_linear_732_14924" x1="232" y1="223.567" x2="232" y2="452.956" gradientUnits="userSpaceOnUse">
<stop/>
<stop offset="1" stop-color="#D9D9D9" stop-opacity="0"/>
</linearGradient>
<linearGradient id="paint3_linear_732_14924" x1="295.319" y1="45" x2="295.319" y2="529" gradientUnits="userSpaceOnUse">
<stop stop-color="#1C2527"/>
<stop offset="0.8073" stop-color="#14161A"/>
<stop offset="1" stop-color="#121316"/>
</linearGradient>
<linearGradient id="paint4_linear_732_14924" x1="99.075" y1="49.7018" x2="232.801" y2="49.7018" gradientUnits="userSpaceOnUse">
<stop stop-color="#FFCE4F"/>
<stop offset="1" stop-color="#4FFFB0"/>
</linearGradient>
<linearGradient id="paint5_linear_732_14924" x1="99.075" y1="49.7018" x2="232.801" y2="49.7018" gradientUnits="userSpaceOnUse">
<stop stop-color="#4FFFB0"/>
<stop offset="0.505223" stop-color="#A2FF76"/>
<stop offset="1" stop-color="#FF984E"/>
</linearGradient>
<linearGradient id="paint6_linear_732_14924" x1="99.075" y1="49.7018" x2="232.801" y2="49.7018" gradientUnits="userSpaceOnUse">
<stop stop-color="#4FFFB0"/>
<stop offset="0.463556" stop-color="#B3FF8F"/>
<stop offset="1" stop-color="#FF984E"/>
</linearGradient>
<linearGradient id="paint7_linear_732_14924" x1="157.634" y1="305.295" x2="135.404" y2="279.286" gradientUnits="userSpaceOnUse">
<stop stop-color="#E40C5B"/>
<stop offset="1" stop-color="#FF4C3B"/>
</linearGradient>
<clipPath id="clip0_732_14924">
<rect x="73" y="45" width="444.639" height="484" rx="17.9259" fill="white"/>
</clipPath>
<clipPath id="clip1_732_14924">
<rect width="29" height="11" fill="white" transform="translate(147.35 165.604)"/>
</clipPath>
<clipPath id="clip2_732_14924">
<rect x="113.82" y="286.217" width="29.1566" height="29.1566" rx="14.5783" fill="white"/>
</clipPath>
<clipPath id="clip3_732_14924">
<rect width="27" height="11" fill="white" transform="translate(147.35 302.192)"/>
</clipPath>
</defs>
</svg>
