<svg width="549" height="505" viewBox="0 0 549 505" fill="none" xmlns="http://www.w3.org/2000/svg">
<mask id="mask0_606_5425" style="mask-type:alpha" maskUnits="userSpaceOnUse" x="0" y="0" width="549" height="505">
<path d="M0 0H549V505H0V0Z" fill="url(#paint0_linear_606_5425)"/>
</mask>
<g mask="url(#mask0_606_5425)">
<g filter="url(#filter0_dd_606_5425)">
<rect x="-26.2383" y="54.0947" width="515" height="546" rx="26" fill="#211F24" shape-rendering="crispEdges"/>
<path d="M25.0217 90.277V105.095H22.4271V90.277H25.0217ZM31.5894 92.6689H22.6298V90.277H31.5894V92.6689ZM30.5353 99.0338H22.5892V96.7027H30.5353V99.0338ZM35.7315 105.358C34.6774 105.358 33.8396 105.074 33.218 104.507C32.6098 103.926 32.3058 103.169 32.3058 102.237C32.3058 101.318 32.6234 100.588 33.2585 100.047C33.9072 99.4933 34.8261 99.169 36.0153 99.0744L39.0153 98.8311V98.6082C39.0153 98.1487 38.9275 97.7838 38.7518 97.5135C38.5897 97.2298 38.3532 97.0271 38.0423 96.9054C37.7315 96.7703 37.3667 96.7027 36.9477 96.7027C36.218 96.7027 35.6572 96.8514 35.2653 97.1487C34.8734 97.4325 34.6774 97.8379 34.6774 98.3649H32.5693C32.5693 97.6352 32.7517 97.0068 33.1166 96.4798C33.495 95.9392 34.022 95.5203 34.6977 95.223C35.3869 94.9257 36.1775 94.777 37.0694 94.777C37.9748 94.777 38.7518 94.9392 39.4005 95.2635C40.0491 95.5743 40.5491 96.0473 40.9005 96.6825C41.2518 97.3041 41.4275 98.0811 41.4275 99.0136V105.095H39.2586L39.0761 103.615C38.8599 104.128 38.441 104.547 37.8194 104.872C37.2113 105.196 36.5153 105.358 35.7315 105.358ZM36.5221 103.493C37.2923 103.493 37.9005 103.277 38.3464 102.845C38.8059 102.412 39.0356 101.811 39.0356 101.041V100.514L36.9477 100.676C36.1775 100.743 35.6302 100.905 35.3058 101.162C34.9815 101.405 34.8193 101.73 34.8193 102.135C34.8193 102.581 34.968 102.919 35.2653 103.149C35.5626 103.378 35.9815 103.493 36.5221 103.493ZM50.1408 95.0405V97.3311H49.2287C48.3233 97.3311 47.6138 97.5744 47.1003 98.0609C46.5867 98.5338 46.33 99.2568 46.33 100.23V105.095H43.857V95.1014H46.1881L46.3908 97.1689H46.1476C46.2827 96.5068 46.6003 95.9662 47.1003 95.5473C47.6003 95.1284 48.2489 94.9189 49.0462 94.9189C49.2219 94.9189 49.3976 94.9257 49.5733 94.9392C49.7489 94.9527 49.9381 94.9865 50.1408 95.0405ZM54.2878 105.095H51.8147V95.0811H54.085L54.3891 96.8649L54.1053 96.6216C54.308 96.1352 54.6796 95.7095 55.2202 95.3446C55.7607 94.9662 56.4364 94.777 57.2472 94.777C58.1256 94.777 58.8419 95.0068 59.3959 95.4662C59.9635 95.9257 60.3554 96.5338 60.5716 97.2906H60.1662C60.3149 96.5338 60.6932 95.9257 61.3014 95.4662C61.923 95.0068 62.673 94.777 63.5514 94.777C64.7676 94.777 65.7001 95.1216 66.3487 95.8108C66.9974 96.4865 67.3217 97.3987 67.3217 98.5473V105.095H64.869V99.196C64.869 98.4798 64.6865 97.9392 64.3217 97.5744C63.9703 97.196 63.4973 97.0068 62.9027 97.0068C62.5243 97.0068 62.173 97.0946 61.8487 97.2703C61.5378 97.446 61.2878 97.7095 61.0986 98.0609C60.9095 98.4122 60.8149 98.8649 60.8149 99.419V105.095H58.3419V99.1757C58.3419 98.473 58.1662 97.9392 57.8148 97.5744C57.4635 97.2095 56.9972 97.0271 56.4162 97.0271C56.0243 97.0271 55.6661 97.1149 55.3418 97.2906C55.0175 97.4527 54.7607 97.7163 54.5715 98.0811C54.3823 98.4325 54.2878 98.8784 54.2878 99.419V105.095ZM80.909 105.095H75.5778V90.277H80.7671C82.2266 90.277 83.5104 90.5945 84.6185 91.2297C85.7266 91.8513 86.5915 92.7229 87.2131 93.8446C87.8483 94.9527 88.1658 96.2433 88.1658 97.7163C88.1658 99.1622 87.855 100.446 87.2334 101.568C86.6253 102.676 85.7739 103.541 84.6793 104.162C83.5982 104.784 82.3414 105.095 80.909 105.095ZM78.1725 91.4729V103.919L76.936 102.703H80.6657C81.6522 102.703 82.5036 102.5 83.2198 102.095C83.936 101.689 84.4833 101.115 84.8617 100.372C85.2401 99.6284 85.4293 98.7433 85.4293 97.7163C85.4293 96.6622 85.2334 95.7635 84.8415 95.0203C84.4496 94.2635 83.8887 93.6824 83.159 93.277C82.4293 92.8716 81.5509 92.6689 80.5238 92.6689H76.936L78.1725 91.4729ZM94.6977 105.358C93.7112 105.358 92.8328 105.135 92.0625 104.689C91.3058 104.23 90.7112 103.608 90.2787 102.824C89.8463 102.027 89.6301 101.115 89.6301 100.088C89.6301 99.0474 89.8395 98.1284 90.2584 97.3311C90.6774 96.5338 91.2652 95.9122 92.022 95.4662C92.7787 95.0068 93.6436 94.777 94.6166 94.777C95.6301 94.777 96.5018 94.9932 97.2315 95.4257C97.9612 95.8446 98.5221 96.4325 98.914 97.1892C99.3194 97.946 99.5221 98.8514 99.5221 99.9055V100.655L90.9274 100.676L90.9679 99.0946H97.0693C97.0693 98.4055 96.8464 97.8514 96.4004 97.4325C95.968 97.0135 95.3801 96.8041 94.6369 96.8041C94.0558 96.8041 93.5625 96.9257 93.1571 97.1689C92.7652 97.4122 92.4679 97.7771 92.2652 98.2636C92.0625 98.75 91.9612 99.3447 91.9612 100.047C91.9612 101.128 92.1909 101.946 92.6504 102.5C93.1233 103.054 93.8193 103.331 94.7382 103.331C95.4139 103.331 95.968 103.203 96.4004 102.946C96.8464 102.689 97.1369 102.324 97.272 101.851H99.5626C99.3464 102.946 98.8058 103.804 97.941 104.426C97.0896 105.047 96.0085 105.358 94.6977 105.358ZM100.409 95.0811H106.733V97.1487H100.409V95.0811ZM104.808 105.095H102.335V91.9594H104.808V105.095ZM111.212 105.358C110.157 105.358 109.32 105.074 108.698 104.507C108.09 103.926 107.786 103.169 107.786 102.237C107.786 101.318 108.103 100.588 108.739 100.047C109.387 99.4933 110.306 99.169 111.495 99.0744L114.495 98.8311V98.6082C114.495 98.1487 114.408 97.7838 114.232 97.5135C114.07 97.2298 113.833 97.0271 113.522 96.9054C113.212 96.7703 112.847 96.7027 112.428 96.7027C111.698 96.7027 111.137 96.8514 110.745 97.1487C110.353 97.4325 110.157 97.8379 110.157 98.3649H108.049C108.049 97.6352 108.232 97.0068 108.597 96.4798C108.975 95.9392 109.502 95.5203 110.178 95.223C110.867 94.9257 111.657 94.777 112.549 94.777C113.455 94.777 114.232 94.9392 114.88 95.2635C115.529 95.5743 116.029 96.0473 116.381 96.6825C116.732 97.3041 116.908 98.0811 116.908 99.0136V105.095H114.739L114.556 103.615C114.34 104.128 113.921 104.547 113.299 104.872C112.691 105.196 111.995 105.358 111.212 105.358ZM112.002 103.493C112.772 103.493 113.38 103.277 113.826 102.845C114.286 102.412 114.516 101.811 114.516 101.041V100.514L112.428 100.676C111.657 100.743 111.11 100.905 110.786 101.162C110.462 101.405 110.299 101.73 110.299 102.135C110.299 102.581 110.448 102.919 110.745 103.149C111.043 103.378 111.462 103.493 112.002 103.493ZM119.337 105.095V95.0811H121.81V105.095H119.337ZM120.553 93.0743C120.134 93.0743 119.776 92.9324 119.479 92.6486C119.195 92.3513 119.053 91.9932 119.053 91.5743C119.053 91.1554 119.195 90.804 119.479 90.5202C119.776 90.2364 120.134 90.0945 120.553 90.0945C120.972 90.0945 121.324 90.2364 121.607 90.5202C121.905 90.804 122.053 91.1554 122.053 91.5743C122.053 91.9932 121.905 92.3513 121.607 92.6486C121.324 92.9324 120.972 93.0743 120.553 93.0743ZM126.858 105.095H124.406V90.0135H126.858V105.095ZM128.682 102.054H131.034C131.047 102.487 131.209 102.831 131.52 103.088C131.831 103.345 132.263 103.473 132.817 103.473C133.412 103.473 133.858 103.365 134.155 103.149C134.466 102.933 134.621 102.642 134.621 102.277C134.621 102.034 134.54 101.818 134.378 101.628C134.216 101.439 133.912 101.297 133.466 101.203L131.662 100.777C130.757 100.574 130.081 100.25 129.635 99.8041C129.202 99.3447 128.986 98.7163 128.986 97.919C128.986 97.2703 129.155 96.7095 129.493 96.2365C129.844 95.7635 130.317 95.4054 130.912 95.1622C131.507 94.9054 132.189 94.777 132.959 94.777C133.703 94.777 134.358 94.9122 134.926 95.1824C135.493 95.4527 135.932 95.8311 136.243 96.3176C136.567 96.8041 136.736 97.3717 136.75 98.0203H134.398C134.398 97.5879 134.263 97.25 133.993 97.0068C133.723 96.75 133.344 96.6216 132.858 96.6216C132.371 96.6216 131.993 96.7298 131.723 96.946C131.452 97.1622 131.317 97.4527 131.317 97.8176C131.317 98.3717 131.75 98.7501 132.615 98.9528L134.419 99.3784C135.257 99.5676 135.885 99.8717 136.304 100.291C136.736 100.71 136.953 101.304 136.953 102.074C136.953 102.75 136.777 103.338 136.426 103.838C136.074 104.324 135.581 104.703 134.946 104.973C134.311 105.23 133.581 105.358 132.757 105.358C131.513 105.358 130.52 105.054 129.777 104.446C129.047 103.838 128.682 103.041 128.682 102.054Z" fill="url(#paint1_linear_606_5425)"/>
<path d="M25.0217 90.277V105.095H22.4271V90.277H25.0217ZM31.5894 92.6689H22.6298V90.277H31.5894V92.6689ZM30.5353 99.0338H22.5892V96.7027H30.5353V99.0338ZM35.7315 105.358C34.6774 105.358 33.8396 105.074 33.218 104.507C32.6098 103.926 32.3058 103.169 32.3058 102.237C32.3058 101.318 32.6234 100.588 33.2585 100.047C33.9072 99.4933 34.8261 99.169 36.0153 99.0744L39.0153 98.8311V98.6082C39.0153 98.1487 38.9275 97.7838 38.7518 97.5135C38.5897 97.2298 38.3532 97.0271 38.0423 96.9054C37.7315 96.7703 37.3667 96.7027 36.9477 96.7027C36.218 96.7027 35.6572 96.8514 35.2653 97.1487C34.8734 97.4325 34.6774 97.8379 34.6774 98.3649H32.5693C32.5693 97.6352 32.7517 97.0068 33.1166 96.4798C33.495 95.9392 34.022 95.5203 34.6977 95.223C35.3869 94.9257 36.1775 94.777 37.0694 94.777C37.9748 94.777 38.7518 94.9392 39.4005 95.2635C40.0491 95.5743 40.5491 96.0473 40.9005 96.6825C41.2518 97.3041 41.4275 98.0811 41.4275 99.0136V105.095H39.2586L39.0761 103.615C38.8599 104.128 38.441 104.547 37.8194 104.872C37.2113 105.196 36.5153 105.358 35.7315 105.358ZM36.5221 103.493C37.2923 103.493 37.9005 103.277 38.3464 102.845C38.8059 102.412 39.0356 101.811 39.0356 101.041V100.514L36.9477 100.676C36.1775 100.743 35.6302 100.905 35.3058 101.162C34.9815 101.405 34.8193 101.73 34.8193 102.135C34.8193 102.581 34.968 102.919 35.2653 103.149C35.5626 103.378 35.9815 103.493 36.5221 103.493ZM50.1408 95.0405V97.3311H49.2287C48.3233 97.3311 47.6138 97.5744 47.1003 98.0609C46.5867 98.5338 46.33 99.2568 46.33 100.23V105.095H43.857V95.1014H46.1881L46.3908 97.1689H46.1476C46.2827 96.5068 46.6003 95.9662 47.1003 95.5473C47.6003 95.1284 48.2489 94.9189 49.0462 94.9189C49.2219 94.9189 49.3976 94.9257 49.5733 94.9392C49.7489 94.9527 49.9381 94.9865 50.1408 95.0405ZM54.2878 105.095H51.8147V95.0811H54.085L54.3891 96.8649L54.1053 96.6216C54.308 96.1352 54.6796 95.7095 55.2202 95.3446C55.7607 94.9662 56.4364 94.777 57.2472 94.777C58.1256 94.777 58.8419 95.0068 59.3959 95.4662C59.9635 95.9257 60.3554 96.5338 60.5716 97.2906H60.1662C60.3149 96.5338 60.6932 95.9257 61.3014 95.4662C61.923 95.0068 62.673 94.777 63.5514 94.777C64.7676 94.777 65.7001 95.1216 66.3487 95.8108C66.9974 96.4865 67.3217 97.3987 67.3217 98.5473V105.095H64.869V99.196C64.869 98.4798 64.6865 97.9392 64.3217 97.5744C63.9703 97.196 63.4973 97.0068 62.9027 97.0068C62.5243 97.0068 62.173 97.0946 61.8487 97.2703C61.5378 97.446 61.2878 97.7095 61.0986 98.0609C60.9095 98.4122 60.8149 98.8649 60.8149 99.419V105.095H58.3419V99.1757C58.3419 98.473 58.1662 97.9392 57.8148 97.5744C57.4635 97.2095 56.9972 97.0271 56.4162 97.0271C56.0243 97.0271 55.6661 97.1149 55.3418 97.2906C55.0175 97.4527 54.7607 97.7163 54.5715 98.0811C54.3823 98.4325 54.2878 98.8784 54.2878 99.419V105.095ZM80.909 105.095H75.5778V90.277H80.7671C82.2266 90.277 83.5104 90.5945 84.6185 91.2297C85.7266 91.8513 86.5915 92.7229 87.2131 93.8446C87.8483 94.9527 88.1658 96.2433 88.1658 97.7163C88.1658 99.1622 87.855 100.446 87.2334 101.568C86.6253 102.676 85.7739 103.541 84.6793 104.162C83.5982 104.784 82.3414 105.095 80.909 105.095ZM78.1725 91.4729V103.919L76.936 102.703H80.6657C81.6522 102.703 82.5036 102.5 83.2198 102.095C83.936 101.689 84.4833 101.115 84.8617 100.372C85.2401 99.6284 85.4293 98.7433 85.4293 97.7163C85.4293 96.6622 85.2334 95.7635 84.8415 95.0203C84.4496 94.2635 83.8887 93.6824 83.159 93.277C82.4293 92.8716 81.5509 92.6689 80.5238 92.6689H76.936L78.1725 91.4729ZM94.6977 105.358C93.7112 105.358 92.8328 105.135 92.0625 104.689C91.3058 104.23 90.7112 103.608 90.2787 102.824C89.8463 102.027 89.6301 101.115 89.6301 100.088C89.6301 99.0474 89.8395 98.1284 90.2584 97.3311C90.6774 96.5338 91.2652 95.9122 92.022 95.4662C92.7787 95.0068 93.6436 94.777 94.6166 94.777C95.6301 94.777 96.5018 94.9932 97.2315 95.4257C97.9612 95.8446 98.5221 96.4325 98.914 97.1892C99.3194 97.946 99.5221 98.8514 99.5221 99.9055V100.655L90.9274 100.676L90.9679 99.0946H97.0693C97.0693 98.4055 96.8464 97.8514 96.4004 97.4325C95.968 97.0135 95.3801 96.8041 94.6369 96.8041C94.0558 96.8041 93.5625 96.9257 93.1571 97.1689C92.7652 97.4122 92.4679 97.7771 92.2652 98.2636C92.0625 98.75 91.9612 99.3447 91.9612 100.047C91.9612 101.128 92.1909 101.946 92.6504 102.5C93.1233 103.054 93.8193 103.331 94.7382 103.331C95.4139 103.331 95.968 103.203 96.4004 102.946C96.8464 102.689 97.1369 102.324 97.272 101.851H99.5626C99.3464 102.946 98.8058 103.804 97.941 104.426C97.0896 105.047 96.0085 105.358 94.6977 105.358ZM100.409 95.0811H106.733V97.1487H100.409V95.0811ZM104.808 105.095H102.335V91.9594H104.808V105.095ZM111.212 105.358C110.157 105.358 109.32 105.074 108.698 104.507C108.09 103.926 107.786 103.169 107.786 102.237C107.786 101.318 108.103 100.588 108.739 100.047C109.387 99.4933 110.306 99.169 111.495 99.0744L114.495 98.8311V98.6082C114.495 98.1487 114.408 97.7838 114.232 97.5135C114.07 97.2298 113.833 97.0271 113.522 96.9054C113.212 96.7703 112.847 96.7027 112.428 96.7027C111.698 96.7027 111.137 96.8514 110.745 97.1487C110.353 97.4325 110.157 97.8379 110.157 98.3649H108.049C108.049 97.6352 108.232 97.0068 108.597 96.4798C108.975 95.9392 109.502 95.5203 110.178 95.223C110.867 94.9257 111.657 94.777 112.549 94.777C113.455 94.777 114.232 94.9392 114.88 95.2635C115.529 95.5743 116.029 96.0473 116.381 96.6825C116.732 97.3041 116.908 98.0811 116.908 99.0136V105.095H114.739L114.556 103.615C114.34 104.128 113.921 104.547 113.299 104.872C112.691 105.196 111.995 105.358 111.212 105.358ZM112.002 103.493C112.772 103.493 113.38 103.277 113.826 102.845C114.286 102.412 114.516 101.811 114.516 101.041V100.514L112.428 100.676C111.657 100.743 111.11 100.905 110.786 101.162C110.462 101.405 110.299 101.73 110.299 102.135C110.299 102.581 110.448 102.919 110.745 103.149C111.043 103.378 111.462 103.493 112.002 103.493ZM119.337 105.095V95.0811H121.81V105.095H119.337ZM120.553 93.0743C120.134 93.0743 119.776 92.9324 119.479 92.6486C119.195 92.3513 119.053 91.9932 119.053 91.5743C119.053 91.1554 119.195 90.804 119.479 90.5202C119.776 90.2364 120.134 90.0945 120.553 90.0945C120.972 90.0945 121.324 90.2364 121.607 90.5202C121.905 90.804 122.053 91.1554 122.053 91.5743C122.053 91.9932 121.905 92.3513 121.607 92.6486C121.324 92.9324 120.972 93.0743 120.553 93.0743ZM126.858 105.095H124.406V90.0135H126.858V105.095ZM128.682 102.054H131.034C131.047 102.487 131.209 102.831 131.52 103.088C131.831 103.345 132.263 103.473 132.817 103.473C133.412 103.473 133.858 103.365 134.155 103.149C134.466 102.933 134.621 102.642 134.621 102.277C134.621 102.034 134.54 101.818 134.378 101.628C134.216 101.439 133.912 101.297 133.466 101.203L131.662 100.777C130.757 100.574 130.081 100.25 129.635 99.8041C129.202 99.3447 128.986 98.7163 128.986 97.919C128.986 97.2703 129.155 96.7095 129.493 96.2365C129.844 95.7635 130.317 95.4054 130.912 95.1622C131.507 94.9054 132.189 94.777 132.959 94.777C133.703 94.777 134.358 94.9122 134.926 95.1824C135.493 95.4527 135.932 95.8311 136.243 96.3176C136.567 96.8041 136.736 97.3717 136.75 98.0203H134.398C134.398 97.5879 134.263 97.25 133.993 97.0068C133.723 96.75 133.344 96.6216 132.858 96.6216C132.371 96.6216 131.993 96.7298 131.723 96.946C131.452 97.1622 131.317 97.4527 131.317 97.8176C131.317 98.3717 131.75 98.7501 132.615 98.9528L134.419 99.3784C135.257 99.5676 135.885 99.8717 136.304 100.291C136.736 100.71 136.953 101.304 136.953 102.074C136.953 102.75 136.777 103.338 136.426 103.838C136.074 104.324 135.581 104.703 134.946 104.973C134.311 105.23 133.581 105.358 132.757 105.358C131.513 105.358 130.52 105.054 129.777 104.446C129.047 103.838 128.682 103.041 128.682 102.054Z" fill="url(#paint2_linear_606_5425)"/>
<path d="M25.0217 90.277V105.095H22.4271V90.277H25.0217ZM31.5894 92.6689H22.6298V90.277H31.5894V92.6689ZM30.5353 99.0338H22.5892V96.7027H30.5353V99.0338ZM35.7315 105.358C34.6774 105.358 33.8396 105.074 33.218 104.507C32.6098 103.926 32.3058 103.169 32.3058 102.237C32.3058 101.318 32.6234 100.588 33.2585 100.047C33.9072 99.4933 34.8261 99.169 36.0153 99.0744L39.0153 98.8311V98.6082C39.0153 98.1487 38.9275 97.7838 38.7518 97.5135C38.5897 97.2298 38.3532 97.0271 38.0423 96.9054C37.7315 96.7703 37.3667 96.7027 36.9477 96.7027C36.218 96.7027 35.6572 96.8514 35.2653 97.1487C34.8734 97.4325 34.6774 97.8379 34.6774 98.3649H32.5693C32.5693 97.6352 32.7517 97.0068 33.1166 96.4798C33.495 95.9392 34.022 95.5203 34.6977 95.223C35.3869 94.9257 36.1775 94.777 37.0694 94.777C37.9748 94.777 38.7518 94.9392 39.4005 95.2635C40.0491 95.5743 40.5491 96.0473 40.9005 96.6825C41.2518 97.3041 41.4275 98.0811 41.4275 99.0136V105.095H39.2586L39.0761 103.615C38.8599 104.128 38.441 104.547 37.8194 104.872C37.2113 105.196 36.5153 105.358 35.7315 105.358ZM36.5221 103.493C37.2923 103.493 37.9005 103.277 38.3464 102.845C38.8059 102.412 39.0356 101.811 39.0356 101.041V100.514L36.9477 100.676C36.1775 100.743 35.6302 100.905 35.3058 101.162C34.9815 101.405 34.8193 101.73 34.8193 102.135C34.8193 102.581 34.968 102.919 35.2653 103.149C35.5626 103.378 35.9815 103.493 36.5221 103.493ZM50.1408 95.0405V97.3311H49.2287C48.3233 97.3311 47.6138 97.5744 47.1003 98.0609C46.5867 98.5338 46.33 99.2568 46.33 100.23V105.095H43.857V95.1014H46.1881L46.3908 97.1689H46.1476C46.2827 96.5068 46.6003 95.9662 47.1003 95.5473C47.6003 95.1284 48.2489 94.9189 49.0462 94.9189C49.2219 94.9189 49.3976 94.9257 49.5733 94.9392C49.7489 94.9527 49.9381 94.9865 50.1408 95.0405ZM54.2878 105.095H51.8147V95.0811H54.085L54.3891 96.8649L54.1053 96.6216C54.308 96.1352 54.6796 95.7095 55.2202 95.3446C55.7607 94.9662 56.4364 94.777 57.2472 94.777C58.1256 94.777 58.8419 95.0068 59.3959 95.4662C59.9635 95.9257 60.3554 96.5338 60.5716 97.2906H60.1662C60.3149 96.5338 60.6932 95.9257 61.3014 95.4662C61.923 95.0068 62.673 94.777 63.5514 94.777C64.7676 94.777 65.7001 95.1216 66.3487 95.8108C66.9974 96.4865 67.3217 97.3987 67.3217 98.5473V105.095H64.869V99.196C64.869 98.4798 64.6865 97.9392 64.3217 97.5744C63.9703 97.196 63.4973 97.0068 62.9027 97.0068C62.5243 97.0068 62.173 97.0946 61.8487 97.2703C61.5378 97.446 61.2878 97.7095 61.0986 98.0609C60.9095 98.4122 60.8149 98.8649 60.8149 99.419V105.095H58.3419V99.1757C58.3419 98.473 58.1662 97.9392 57.8148 97.5744C57.4635 97.2095 56.9972 97.0271 56.4162 97.0271C56.0243 97.0271 55.6661 97.1149 55.3418 97.2906C55.0175 97.4527 54.7607 97.7163 54.5715 98.0811C54.3823 98.4325 54.2878 98.8784 54.2878 99.419V105.095ZM80.909 105.095H75.5778V90.277H80.7671C82.2266 90.277 83.5104 90.5945 84.6185 91.2297C85.7266 91.8513 86.5915 92.7229 87.2131 93.8446C87.8483 94.9527 88.1658 96.2433 88.1658 97.7163C88.1658 99.1622 87.855 100.446 87.2334 101.568C86.6253 102.676 85.7739 103.541 84.6793 104.162C83.5982 104.784 82.3414 105.095 80.909 105.095ZM78.1725 91.4729V103.919L76.936 102.703H80.6657C81.6522 102.703 82.5036 102.5 83.2198 102.095C83.936 101.689 84.4833 101.115 84.8617 100.372C85.2401 99.6284 85.4293 98.7433 85.4293 97.7163C85.4293 96.6622 85.2334 95.7635 84.8415 95.0203C84.4496 94.2635 83.8887 93.6824 83.159 93.277C82.4293 92.8716 81.5509 92.6689 80.5238 92.6689H76.936L78.1725 91.4729ZM94.6977 105.358C93.7112 105.358 92.8328 105.135 92.0625 104.689C91.3058 104.23 90.7112 103.608 90.2787 102.824C89.8463 102.027 89.6301 101.115 89.6301 100.088C89.6301 99.0474 89.8395 98.1284 90.2584 97.3311C90.6774 96.5338 91.2652 95.9122 92.022 95.4662C92.7787 95.0068 93.6436 94.777 94.6166 94.777C95.6301 94.777 96.5018 94.9932 97.2315 95.4257C97.9612 95.8446 98.5221 96.4325 98.914 97.1892C99.3194 97.946 99.5221 98.8514 99.5221 99.9055V100.655L90.9274 100.676L90.9679 99.0946H97.0693C97.0693 98.4055 96.8464 97.8514 96.4004 97.4325C95.968 97.0135 95.3801 96.8041 94.6369 96.8041C94.0558 96.8041 93.5625 96.9257 93.1571 97.1689C92.7652 97.4122 92.4679 97.7771 92.2652 98.2636C92.0625 98.75 91.9612 99.3447 91.9612 100.047C91.9612 101.128 92.1909 101.946 92.6504 102.5C93.1233 103.054 93.8193 103.331 94.7382 103.331C95.4139 103.331 95.968 103.203 96.4004 102.946C96.8464 102.689 97.1369 102.324 97.272 101.851H99.5626C99.3464 102.946 98.8058 103.804 97.941 104.426C97.0896 105.047 96.0085 105.358 94.6977 105.358ZM100.409 95.0811H106.733V97.1487H100.409V95.0811ZM104.808 105.095H102.335V91.9594H104.808V105.095ZM111.212 105.358C110.157 105.358 109.32 105.074 108.698 104.507C108.09 103.926 107.786 103.169 107.786 102.237C107.786 101.318 108.103 100.588 108.739 100.047C109.387 99.4933 110.306 99.169 111.495 99.0744L114.495 98.8311V98.6082C114.495 98.1487 114.408 97.7838 114.232 97.5135C114.07 97.2298 113.833 97.0271 113.522 96.9054C113.212 96.7703 112.847 96.7027 112.428 96.7027C111.698 96.7027 111.137 96.8514 110.745 97.1487C110.353 97.4325 110.157 97.8379 110.157 98.3649H108.049C108.049 97.6352 108.232 97.0068 108.597 96.4798C108.975 95.9392 109.502 95.5203 110.178 95.223C110.867 94.9257 111.657 94.777 112.549 94.777C113.455 94.777 114.232 94.9392 114.88 95.2635C115.529 95.5743 116.029 96.0473 116.381 96.6825C116.732 97.3041 116.908 98.0811 116.908 99.0136V105.095H114.739L114.556 103.615C114.34 104.128 113.921 104.547 113.299 104.872C112.691 105.196 111.995 105.358 111.212 105.358ZM112.002 103.493C112.772 103.493 113.38 103.277 113.826 102.845C114.286 102.412 114.516 101.811 114.516 101.041V100.514L112.428 100.676C111.657 100.743 111.11 100.905 110.786 101.162C110.462 101.405 110.299 101.73 110.299 102.135C110.299 102.581 110.448 102.919 110.745 103.149C111.043 103.378 111.462 103.493 112.002 103.493ZM119.337 105.095V95.0811H121.81V105.095H119.337ZM120.553 93.0743C120.134 93.0743 119.776 92.9324 119.479 92.6486C119.195 92.3513 119.053 91.9932 119.053 91.5743C119.053 91.1554 119.195 90.804 119.479 90.5202C119.776 90.2364 120.134 90.0945 120.553 90.0945C120.972 90.0945 121.324 90.2364 121.607 90.5202C121.905 90.804 122.053 91.1554 122.053 91.5743C122.053 91.9932 121.905 92.3513 121.607 92.6486C121.324 92.9324 120.972 93.0743 120.553 93.0743ZM126.858 105.095H124.406V90.0135H126.858V105.095ZM128.682 102.054H131.034C131.047 102.487 131.209 102.831 131.52 103.088C131.831 103.345 132.263 103.473 132.817 103.473C133.412 103.473 133.858 103.365 134.155 103.149C134.466 102.933 134.621 102.642 134.621 102.277C134.621 102.034 134.54 101.818 134.378 101.628C134.216 101.439 133.912 101.297 133.466 101.203L131.662 100.777C130.757 100.574 130.081 100.25 129.635 99.8041C129.202 99.3447 128.986 98.7163 128.986 97.919C128.986 97.2703 129.155 96.7095 129.493 96.2365C129.844 95.7635 130.317 95.4054 130.912 95.1622C131.507 94.9054 132.189 94.777 132.959 94.777C133.703 94.777 134.358 94.9122 134.926 95.1824C135.493 95.4527 135.932 95.8311 136.243 96.3176C136.567 96.8041 136.736 97.3717 136.75 98.0203H134.398C134.398 97.5879 134.263 97.25 133.993 97.0068C133.723 96.75 133.344 96.6216 132.858 96.6216C132.371 96.6216 131.993 96.7298 131.723 96.946C131.452 97.1622 131.317 97.4527 131.317 97.8176C131.317 98.3717 131.75 98.7501 132.615 98.9528L134.419 99.3784C135.257 99.5676 135.885 99.8717 136.304 100.291C136.736 100.71 136.953 101.304 136.953 102.074C136.953 102.75 136.777 103.338 136.426 103.838C136.074 104.324 135.581 104.703 134.946 104.973C134.311 105.23 133.581 105.358 132.757 105.358C131.513 105.358 130.52 105.054 129.777 104.446C129.047 103.838 128.682 103.041 128.682 102.054Z" fill="url(#paint3_linear_606_5425)"/>
<rect x="4.36523" y="124.608" width="454" height="83" rx="10.1353" fill="#1C1A1F"/>
<g clip-path="url(#clip0_606_5425)">
<path d="M29.1896 144.215C30.9176 144.215 32.6069 144.728 34.0438 145.688C35.4806 146.648 36.6006 148.012 37.2619 149.609C37.9232 151.205 38.0963 152.962 37.7592 154.657C37.4221 156.352 36.59 157.908 35.3681 159.13C34.1461 160.352 32.5893 161.184 30.8945 161.521C29.1996 161.859 27.4429 161.685 25.8464 161.024C24.2499 160.363 22.8854 159.243 21.9254 157.806C20.9654 156.369 20.453 154.68 20.4531 152.952C20.4531 151.805 20.6791 150.668 21.1182 149.608C21.5572 148.549 22.2007 147.585 23.012 146.774C23.8232 145.963 24.7863 145.319 25.8463 144.88C26.9063 144.441 28.0423 144.215 29.1896 144.215ZM26.3392 152.952C26.3392 157.174 29.1896 160.597 29.1896 160.597C29.1896 160.597 32.04 157.174 32.04 152.952C32.04 148.73 29.1896 145.308 29.1896 145.308C29.1896 145.308 26.3392 148.73 26.3392 152.952Z" fill="#4FFFB0"/>
</g>
<path d="M45.7606 158.082H49.7607C51.8012 158.082 52.9769 157.095 52.9769 155.406C52.9769 154.257 52.4499 153.473 51.4093 153.136C52.3418 152.744 52.8283 151.96 52.8283 150.865C52.8283 149.217 51.6391 148.203 49.6931 148.203H45.7606V158.082ZM49.5445 149.73C50.5174 149.73 51.058 150.19 51.058 151.041C51.058 151.919 50.531 152.419 49.585 152.419H47.4904V149.73H49.5445ZM49.6931 153.879C50.6526 153.879 51.2066 154.352 51.2066 155.19C51.2066 156.082 50.6661 156.554 49.6931 156.554H47.4904V153.879H49.6931ZM53.9954 150.96C53.9954 152.473 54.8738 153.433 56.5495 153.798L58.1171 154.149C58.9279 154.325 59.2658 154.717 59.2658 155.379C59.2658 156.203 58.536 156.703 57.3874 156.703C56.2792 156.703 55.6036 156.203 55.59 155.365H53.8603C53.9008 157.136 55.2792 158.257 57.3874 158.257C59.5631 158.257 60.9955 157.068 60.9955 155.23C60.9955 153.757 60.1712 152.892 58.482 152.527L56.9279 152.19C56.1036 152 55.7252 151.608 55.7252 150.906C55.7252 150.081 56.4144 149.568 57.482 149.568C58.4549 149.568 59.0631 150.068 59.1036 150.919H60.8333C60.7793 149.135 59.509 148.027 57.509 148.027C55.4279 148.027 53.9954 149.23 53.9954 150.96ZM65.0469 153.149L61.6955 158.082H63.7225L66.128 154.473C66.5199 155.19 66.8712 155.784 67.3037 156.446L68.4118 158.082H70.4523L67.2091 153.136L70.4388 148.203H68.4253L66.128 151.825C65.7631 151.149 65.4253 150.581 65.0198 149.973L63.8171 148.203H61.763L65.0469 153.149Z" fill="#E5ECF1"/>
<path d="M24.0073 185.196C23.1627 185.196 22.4194 185.027 21.7775 184.69C21.1469 184.352 20.657 183.879 20.3079 183.271C19.9701 182.651 19.8012 181.931 19.8012 181.108H21.6762C21.6762 181.852 21.8845 182.437 22.3012 182.865C22.7291 183.282 23.3091 183.49 24.0411 183.49C24.5591 183.49 25.0039 183.383 25.3756 183.169C25.7584 182.955 26.0569 182.657 26.2708 182.274C26.4848 181.88 26.5918 181.418 26.5918 180.889C26.5918 180.382 26.4904 179.937 26.2877 179.554C26.085 179.172 25.7979 178.873 25.4262 178.659C25.0546 178.434 24.5985 178.321 24.058 178.321C23.5737 178.321 23.1176 178.428 22.6897 178.642C22.2618 178.856 21.9239 179.132 21.6762 179.47L20.0208 179.081L21.5242 172.713H27.7911V174.47H22.335L23.0782 173.794L22.014 178.034L21.3721 178.237C21.6649 177.741 22.0816 177.364 22.6221 177.105C23.1627 176.835 23.7708 176.7 24.4465 176.7C25.2686 176.7 25.9837 176.874 26.5918 177.223C27.2112 177.572 27.6898 178.057 28.0276 178.676C28.3655 179.295 28.5344 180.005 28.5344 180.804C28.5344 181.672 28.3429 182.437 27.96 183.102C27.5772 183.755 27.0479 184.267 26.3722 184.639C25.6965 185.011 24.9082 185.196 24.0073 185.196ZM34.737 181.311V179.69H40.0411V181.311H34.737ZM48.8919 174.419H46.2567V172.713H50.7331V184.994H48.8919V174.419ZM52.8929 178.879C52.8929 177.595 53.1013 176.48 53.5179 175.534C53.9459 174.577 54.5427 173.828 55.3085 173.287C56.0743 172.747 56.9808 172.477 58.0281 172.477C59.0642 172.477 59.9651 172.747 60.7309 173.287C61.4966 173.828 62.0879 174.577 62.5045 175.534C62.9325 176.48 63.1464 177.595 63.1464 178.879C63.1464 180.14 62.9381 181.249 62.5214 182.206C62.116 183.152 61.5304 183.89 60.7647 184.419C60.0101 184.949 59.098 185.213 58.0281 185.213C56.9583 185.213 56.0405 184.949 55.2747 184.419C54.5089 183.89 53.9177 183.152 53.5011 182.206C53.0956 181.249 52.8929 180.14 52.8929 178.879ZM54.7849 178.879C54.7849 179.847 54.9087 180.681 55.1565 181.379C55.4155 182.077 55.7871 182.612 56.2714 182.983C56.7556 183.344 57.3412 183.524 58.0281 183.524C58.7151 183.524 59.295 183.344 59.768 182.983C60.2523 182.612 60.6183 182.077 60.866 181.379C61.125 180.681 61.2545 179.847 61.2545 178.879C61.2545 177.876 61.125 177.026 60.866 176.328C60.6183 175.63 60.2523 175.101 59.768 174.74C59.295 174.369 58.7151 174.183 58.0281 174.183C57.3412 174.183 56.7556 174.369 56.2714 174.74C55.7871 175.101 55.4155 175.63 55.1565 176.328C54.9087 177.026 54.7849 177.876 54.7849 178.879ZM70.8698 175.652C70.8698 176.272 70.7347 176.824 70.4644 177.308C70.1942 177.792 69.8225 178.169 69.3495 178.44C68.8766 178.71 68.336 178.845 67.7279 178.845C67.1198 178.845 66.5736 178.71 66.0894 178.44C65.6164 178.169 65.2448 177.792 64.9745 177.308C64.7042 176.824 64.5691 176.272 64.5691 175.652C64.5691 175.033 64.7042 174.487 64.9745 174.014C65.2448 173.53 65.6164 173.152 66.0894 172.882C66.5736 172.612 67.1198 172.477 67.7279 172.477C68.336 172.477 68.8766 172.612 69.3495 172.882C69.8225 173.152 70.1942 173.53 70.4644 174.014C70.7347 174.487 70.8698 175.033 70.8698 175.652ZM69.4002 175.652C69.4002 175.134 69.2426 174.718 68.9272 174.402C68.6232 174.076 68.2234 173.912 67.7279 173.912C67.2324 173.912 66.827 174.076 66.5117 174.402C66.1964 174.718 66.0387 175.134 66.0387 175.652C66.0387 176.17 66.1964 176.593 66.5117 176.919C66.827 177.246 67.2324 177.409 67.7279 177.409C68.2234 177.409 68.6232 177.246 68.9272 176.919C69.2426 176.593 69.4002 176.17 69.4002 175.652ZM77.4746 172.73L68.1502 184.994H66.3259L75.6334 172.73H77.4746ZM79.2652 182.038C79.2652 182.657 79.1301 183.209 78.8598 183.693C78.5895 184.166 78.2179 184.538 77.7449 184.808C77.2719 185.078 76.7258 185.213 76.1064 185.213C75.4983 185.213 74.9521 185.078 74.4679 184.808C73.9949 184.538 73.6232 184.166 73.353 183.693C73.0827 183.209 72.9476 182.657 72.9476 182.038C72.9476 181.418 73.0827 180.872 73.353 180.399C73.6232 179.915 73.9949 179.538 74.4679 179.267C74.9521 178.997 75.4983 178.862 76.1064 178.862C76.7258 178.862 77.2719 178.997 77.7449 179.267C78.2179 179.538 78.5895 179.915 78.8598 180.399C79.1301 180.872 79.2652 181.418 79.2652 182.038ZM77.7787 182.038C77.7787 181.52 77.621 181.097 77.3057 180.771C77.0017 180.444 76.6019 180.281 76.1064 180.281C75.6109 180.281 75.2055 180.444 74.8902 180.771C74.5861 181.097 74.4341 181.52 74.4341 182.038C74.4341 182.544 74.5861 182.967 74.8902 183.304C75.2055 183.631 75.6109 183.794 76.1064 183.794C76.6019 183.794 77.0017 183.631 77.3057 183.304C77.621 182.967 77.7787 182.544 77.7787 182.038ZM86.677 184.994H84.7006L89.1433 172.713H91.1872L95.6467 184.994H93.6366L92.5893 182.054H87.7243L86.677 184.994ZM89.9203 175.872L88.2818 180.416H92.0318L90.3933 175.872C90.3482 175.726 90.2976 175.579 90.2413 175.433C90.1962 175.275 90.1681 175.146 90.1568 175.044C90.1343 175.146 90.1005 175.275 90.0554 175.433C90.0217 175.579 89.9766 175.726 89.9203 175.872ZM99.1582 172.713V184.994H97.2494V172.713H99.1582ZM102.064 180.686H98.7021V178.98H101.658C102.435 178.98 103.026 178.777 103.432 178.372C103.849 177.955 104.057 177.387 104.057 176.666C104.057 175.945 103.849 175.393 103.432 175.01C103.026 174.616 102.447 174.419 101.692 174.419H98.4149V172.713H102.064C102.874 172.713 103.578 172.882 104.175 173.22C104.772 173.546 105.234 174.008 105.56 174.605C105.898 175.202 106.067 175.894 106.067 176.683C106.067 177.46 105.898 178.152 105.56 178.76C105.234 179.357 104.772 179.83 104.175 180.179C103.578 180.517 102.874 180.686 102.064 180.686ZM109.831 184.994H107.922V172.713H112.568C113.93 172.713 114.989 173.045 115.743 173.71C116.509 174.374 116.892 175.292 116.892 176.463C116.892 177.308 116.695 178.023 116.301 178.608C115.907 179.183 115.338 179.611 114.595 179.892L116.993 184.994H114.899L112.703 180.264H109.831V184.994ZM109.831 174.419V178.575H112.585C113.305 178.575 113.868 178.389 114.274 178.017C114.679 177.646 114.882 177.133 114.882 176.48C114.882 175.816 114.679 175.309 114.274 174.96C113.868 174.599 113.3 174.419 112.568 174.419H109.831Z" fill="#B8FFDF"/>
<line x1="153.093" y1="144.247" x2="221.634" y2="144.247" stroke="#29292D" stroke-width="5.91224" stroke-linecap="round"/>
<line x1="153.093" y1="144.247" x2="172.232" y2="144.247" stroke="#49E49F" stroke-width="2.53382" stroke-linecap="round"/>
<rect opacity="0.5" x="234.725" y="141.858" width="183.411" height="5" rx="2.5" fill="#DAFFEE" fill-opacity="0.06"/>
<line x1="150.137" y1="158.882" x2="418.137" y2="158.882" stroke="white" stroke-opacity="0.06" stroke-width="0.844605"/>
<line x1="151.403" y1="170.983" x2="219.945" y2="170.983" stroke="#29292D" stroke-width="5.91224" stroke-linecap="round"/>
<line x1="151.404" y1="170.984" x2="184.655" y2="170.984" stroke="url(#paint4_linear_606_5425)" stroke-width="2.53382" stroke-linecap="round"/>
<rect opacity="0.5" x="234.725" y="168.75" width="183.411" height="5" rx="2.5" fill="#DAFFEE" fill-opacity="0.06"/>
<rect opacity="0.5" x="150.137" y="185.197" width="95.8514" height="5" rx="2.5" fill="#DAFFEE" fill-opacity="0.06"/>
<g opacity="0.5">
<path d="M435.613 169.404L438.147 166.026L435.613 162.647" stroke="#BDCCD4" stroke-width="1.68921" stroke-linecap="round" stroke-linejoin="round"/>
</g>
<path d="M24.5527 405.657H21.4125V403.626L24.5527 402.143V400.947L21.2039 402.561C20.8855 401.572 20.0949 401.023 18.9969 401.023C17.5146 401.023 16.6143 402.034 16.6143 403.735V406.733H24.5527V405.657ZM17.5805 405.657V403.735C17.5805 402.747 18.0856 402.154 19.0079 402.154C19.9192 402.154 20.4572 402.725 20.4572 403.724V405.657H17.5805ZM24.6845 397.372C24.6845 396.043 24.0367 395.143 22.8838 394.879V395.845C23.4987 396.021 23.8281 396.548 23.8281 397.35C23.8281 398.371 23.2022 398.964 22.0713 399.04L22.0603 394.89H21.676C20.0839 394.89 19.0299 395.889 19.0299 397.415C19.0299 398.975 20.1937 400.04 21.8736 400.04C23.5426 400.04 24.6845 398.953 24.6845 397.372ZM19.8973 397.415C19.8973 396.504 20.4902 395.922 21.3796 395.922V399.018C20.4353 398.887 19.8973 398.316 19.8973 397.415ZM24.5527 392.344V391.323L21.687 390.39C21.0392 390.192 20.6878 390.093 20.4243 390.039C20.7208 389.984 21.138 389.874 21.676 389.698L24.5527 388.765V387.788L19.1836 385.954V387.03L21.9725 387.93C22.4446 388.084 22.8179 388.183 23.2461 388.271C22.8618 388.359 22.236 388.534 21.9725 388.622L19.1836 389.512V390.566L21.9725 391.466C22.3238 391.587 22.774 391.729 23.2461 391.817C22.774 391.916 22.3677 392.026 21.9725 392.147L19.1836 393.036V394.101L24.5527 392.344ZM24.6845 383.324C24.6845 382.456 24.3002 381.72 23.6853 381.446L24.5527 381.336V380.458H21.1819C19.7326 380.458 19.0299 381.358 19.0299 382.687C19.0299 384.07 19.7655 384.992 20.8855 384.992V384.092C20.2376 384.092 19.8533 383.598 19.8533 382.731C19.8533 382.006 20.1718 381.468 21.0721 381.468H21.2258L21.3576 383.159C21.4564 384.422 22.0713 385.157 23.0595 385.157C24.0367 385.157 24.6845 384.476 24.6845 383.324ZM23.883 383.027C23.883 383.697 23.5975 384.114 23.0265 384.114C22.4995 384.114 22.1481 383.741 22.0603 382.829L21.9505 381.457H22.236C23.2461 381.457 23.883 382.05 23.883 383.027ZM19.1397 375.532C19.0957 375.74 19.0738 375.894 19.0738 376.081C19.0738 376.816 19.4471 377.354 20.0071 377.574L19.1946 377.64V378.606H24.5527V377.574H21.7089C20.6768 377.574 20.0839 376.97 20.0839 375.993V375.532H19.1397ZM24.6845 372.182C24.6845 371.326 24.3112 370.601 23.5755 370.25L24.5527 370.162V369.24H16.4715V370.261H20.051C19.3922 370.623 19.0299 371.315 19.0299 372.138C19.0299 373.731 20.2376 374.686 21.8846 374.686C23.5206 374.686 24.6845 373.742 24.6845 372.182ZM23.7512 371.974C23.7512 373.028 22.9607 373.643 21.8517 373.643C20.7537 373.643 19.9631 373.028 19.9631 371.974C19.9631 370.92 20.7537 370.272 21.8517 370.272C22.9716 370.272 23.7512 370.92 23.7512 371.974ZM22.9936 367.768C24.0147 367.768 24.6845 366.966 24.6845 365.703C24.6845 364.43 24.0367 363.551 23.0156 363.551C22.214 363.551 21.7968 364.002 21.5772 364.913L21.3466 365.857C21.2149 366.384 20.9733 366.648 20.611 366.648C20.1169 366.648 19.8314 366.285 19.8314 365.638C19.8314 365.012 20.1718 364.649 20.7098 364.627L20.7098 363.639C19.6887 363.661 19.0299 364.43 19.0299 365.605C19.0299 366.79 19.6557 367.625 20.6439 367.625C21.4345 367.625 21.9066 367.175 22.1372 366.22L22.3568 365.275C22.4995 364.715 22.7191 364.54 23.0814 364.54C23.5755 364.54 23.872 364.957 23.872 365.682C23.872 366.362 23.5426 366.779 22.9936 366.779V367.768ZM24.5527 358.055L22.5764 357.352V354.014L24.5527 353.301V352.17L16.6143 355.079V356.276L24.5527 359.175V358.055ZM18.3271 355.815C18.1624 355.76 17.9758 355.705 17.866 355.683C17.9868 355.661 18.1734 355.606 18.3271 355.551L21.6431 354.333V357.023L18.3271 355.815ZM21.7199 347.607C21.7199 346.059 20.6439 345.048 19.1616 345.048C17.6354 345.048 16.6143 346.048 16.6143 347.607V350.692H24.5527V349.616H21.7199V347.607ZM17.5805 347.793C17.5805 346.783 18.1515 346.179 19.1506 346.179C20.1278 346.179 20.7537 346.772 20.7537 347.837V349.616H17.5805V347.793ZM24.5527 342.331H21.4125V340.3L24.5527 338.818V337.621L21.2039 339.235C20.8855 338.247 20.0949 337.698 18.9969 337.698C17.5146 337.698 16.6143 338.708 16.6143 340.41V343.407H24.5527V342.331ZM17.5805 342.331V340.41C17.5805 339.422 18.0856 338.829 19.0079 338.829C19.9192 338.829 20.4572 339.4 20.4572 340.399V342.331H17.5805ZM18.4918 328.83C17.306 328.83 16.4606 329.664 16.4606 330.839C16.4606 332.003 17.306 332.837 18.4918 332.837C19.6667 332.837 20.5121 332.003 20.5121 330.839C20.5121 329.664 19.6667 328.83 18.4918 328.83ZM16.6253 324.647V325.701L24.5527 331.729V330.674L16.6253 324.647ZM18.4918 329.675C19.1946 329.675 19.6887 330.158 19.6887 330.839C19.6887 331.52 19.1946 331.992 18.4918 331.992C17.7782 331.992 17.2841 331.52 17.2841 330.839C17.2841 330.147 17.7782 329.675 18.4918 329.675ZM22.6752 323.516C21.4894 323.516 20.6549 324.361 20.6549 325.525C20.6549 326.689 21.4894 327.534 22.6752 327.534C23.85 327.534 24.6955 326.689 24.6955 325.525C24.6955 324.361 23.85 323.516 22.6752 323.516ZM22.6752 324.372C23.3779 324.372 23.872 324.844 23.872 325.525C23.872 326.206 23.3779 326.678 22.6752 326.678C21.9615 326.678 21.4674 326.206 21.4674 325.525C21.4674 324.833 21.9615 324.372 22.6752 324.372Z" fill="#F0DA73"/>
<rect x="82.5605" y="281.366" width="0.844605" height="149.495" fill="white" fill-opacity="0.12"/>
<rect x="151.641" y="281.366" width="0.844605" height="149.495" fill="white" fill-opacity="0.12"/>
<rect x="220.723" y="281.366" width="0.844605" height="149.495" fill="white" fill-opacity="0.12"/>
<rect x="289.803" y="281.366" width="0.844605" height="149.495" fill="white" fill-opacity="0.12"/>
<rect x="358.883" y="281.366" width="0.844605" height="149.495" fill="white" fill-opacity="0.12"/>
<rect x="427.965" y="281.366" width="0.844605" height="149.495" fill="white" fill-opacity="0.12"/>
<rect x="68.2031" y="392.643" width="0.844605" height="384.255" transform="rotate(-90 68.2031 392.643)" fill="white" fill-opacity="0.12"/>
<rect x="68.2031" y="357.169" width="0.844605" height="384.255" transform="rotate(-90 68.2031 357.169)" fill="white" fill-opacity="0.12"/>
<rect x="68.2031" y="321.696" width="0.844605" height="384.255" transform="rotate(-90 68.2031 321.696)" fill="white" fill-opacity="0.12"/>
<path d="M79.7197 446.626C79.7197 449.096 80.9384 450.732 82.9917 450.732C85.0339 450.732 86.2527 449.096 86.2527 446.626C86.2527 444.166 84.979 442.497 82.9917 442.497C80.9933 442.497 79.7197 444.166 79.7197 446.626ZM80.7847 446.626C80.7847 444.649 81.5972 443.463 82.9917 443.463C84.3861 443.463 85.1876 444.649 85.1876 446.626C85.1876 448.58 84.3861 449.766 82.9917 449.766C81.5972 449.766 80.7847 448.58 80.7847 446.626Z" fill="white"/>
<path d="M146.152 450.578V449.579H142.485L144.132 448.152C145.537 446.933 146.097 446.132 146.097 445.001C146.097 443.474 145.076 442.508 143.484 442.508C141.87 442.508 140.794 443.617 140.761 445.319H141.837C141.859 444.188 142.496 443.474 143.473 443.474C144.428 443.474 144.999 444.067 144.999 445.066C144.999 445.912 144.637 446.45 143.352 447.559L140.794 449.766V450.589L146.152 450.578ZM147.565 446.626C147.565 449.096 148.784 450.732 150.837 450.732C152.879 450.732 154.098 449.096 154.098 446.626C154.098 444.166 152.824 442.497 150.837 442.497C148.839 442.497 147.565 444.166 147.565 446.626ZM148.63 446.626C148.63 444.649 149.443 443.463 150.837 443.463C152.231 443.463 153.033 444.649 153.033 446.626C153.033 448.58 152.231 449.766 150.837 449.766C149.443 449.766 148.63 448.58 148.63 446.626Z" fill="white"/>
<path d="M214.853 448.986V448.031H213.908V442.651H212.514L208.77 448.031V448.986H212.876V450.589H213.908V448.986H214.853ZM209.934 448.031L212.876 443.793V448.031H209.934ZM216.337 446.626C216.337 449.096 217.556 450.732 219.609 450.732C221.651 450.732 222.87 449.096 222.87 446.626C222.87 444.166 221.597 442.497 219.609 442.497C217.611 442.497 216.337 444.166 216.337 446.626ZM217.402 446.626C217.402 444.649 218.215 443.463 219.609 443.463C221.004 443.463 221.805 444.649 221.805 446.626C221.805 448.58 221.004 449.766 219.609 449.766C218.215 449.766 217.402 448.58 217.402 446.626Z" fill="white"/>
<path d="M279.052 445.165C278.24 446.274 277.954 446.933 277.954 447.877C277.954 449.48 279.228 450.721 280.875 450.721C282.511 450.721 283.762 449.535 283.762 447.877C283.762 446.307 282.653 445.121 281.006 445.121C280.732 445.121 280.447 445.176 280.172 445.286L282.159 442.651H280.908L279.052 445.165ZM279.052 447.888C279.052 446.801 279.799 446.033 280.875 446.033C281.929 446.033 282.675 446.801 282.675 447.888C282.675 448.975 281.929 449.755 280.875 449.755C279.799 449.755 279.052 448.975 279.052 447.888ZM285.177 446.626C285.177 449.096 286.395 450.732 288.449 450.732C290.491 450.732 291.71 449.096 291.71 446.626C291.71 444.166 290.436 442.497 288.449 442.497C286.45 442.497 285.177 444.166 285.177 446.626ZM286.242 446.626C286.242 444.649 287.054 443.463 288.449 443.463C289.843 443.463 290.645 444.649 290.645 446.626C290.645 448.58 289.843 449.766 288.449 449.766C287.054 449.766 286.242 448.58 286.242 446.626Z" fill="white"/>
<path d="M346.129 448.382C346.129 449.788 347.282 450.721 349.05 450.721C350.807 450.721 351.971 449.788 351.971 448.393C351.971 447.416 351.4 446.626 350.51 446.34C351.257 446.044 351.674 445.418 351.674 444.605C351.674 443.354 350.62 442.508 349.061 442.508C347.48 442.508 346.415 443.354 346.415 444.594C346.415 445.396 346.821 446.022 347.568 446.34C346.689 446.659 346.129 447.427 346.129 448.382ZM347.403 444.66C347.403 443.925 348.051 443.441 349.039 443.441C350.038 443.441 350.664 443.925 350.664 444.682C350.664 445.451 350.038 445.945 349.039 445.945C348.051 445.945 347.403 445.44 347.403 444.66ZM347.183 448.306C347.183 447.427 347.908 446.867 349.039 446.867C350.181 446.867 350.906 447.427 350.906 448.306C350.906 449.195 350.17 449.766 349.05 449.766C347.919 449.766 347.183 449.195 347.183 448.306ZM353.436 446.626C353.436 449.096 354.655 450.732 356.708 450.732C358.75 450.732 359.969 449.096 359.969 446.626C359.969 444.166 358.695 442.497 356.708 442.497C354.71 442.497 353.436 444.166 353.436 446.626ZM354.501 446.626C354.501 444.649 355.314 443.463 356.708 443.463C358.102 443.463 358.904 444.649 358.904 446.626C358.904 448.58 358.102 449.766 356.708 449.766C355.314 449.766 354.501 448.58 354.501 446.626Z" fill="white"/>
<path d="M415.774 443.617V450.589H416.806V442.651H414.105V443.617H415.774ZM418.681 446.626C418.681 449.096 419.899 450.732 421.953 450.732C423.995 450.732 425.214 449.096 425.214 446.626C425.214 444.166 423.94 442.497 421.953 442.497C419.954 442.497 418.681 444.166 418.681 446.626ZM419.746 446.626C419.746 444.649 420.558 443.463 421.953 443.463C423.347 443.463 424.148 444.649 424.148 446.626C424.148 448.58 423.347 449.766 421.953 449.766C420.558 449.766 419.746 448.58 419.746 446.626ZM426.716 446.626C426.716 449.096 427.935 450.732 429.988 450.732C432.03 450.732 433.249 449.096 433.249 446.626C433.249 444.166 431.975 442.497 429.988 442.497C427.989 442.497 426.716 444.166 426.716 446.626ZM427.781 446.626C427.781 444.649 428.593 443.463 429.988 443.463C431.382 443.463 432.184 444.649 432.184 446.626C432.184 448.58 431.382 449.766 429.988 449.766C428.593 449.766 427.781 448.58 427.781 446.626Z" fill="white"/>
<path d="M259.252 467.604C261.601 467.604 263.182 466.001 263.182 463.64C263.182 461.269 261.579 459.666 259.208 459.666H256.627V467.604H259.252ZM259.131 460.654C260.942 460.654 262.062 461.796 262.062 463.64C262.062 465.463 260.942 466.605 259.175 466.605H257.703V460.654H259.131ZM266.368 467.736C267.235 467.736 267.971 467.351 268.246 466.737L268.355 467.604H269.234V464.233C269.234 462.784 268.333 462.081 267.005 462.081C265.621 462.081 264.699 462.817 264.699 463.937H265.599C265.599 463.289 266.094 462.905 266.961 462.905C267.686 462.905 268.224 463.223 268.224 464.123V464.277L266.533 464.409C265.27 464.508 264.534 465.123 264.534 466.111C264.534 467.088 265.215 467.736 266.368 467.736ZM266.665 466.934C265.995 466.934 265.578 466.649 265.578 466.078C265.578 465.551 265.951 465.199 266.862 465.112L268.235 465.002V465.287C268.235 466.297 267.642 466.934 266.665 466.934ZM270.441 470.009C270.715 470.074 271.001 470.118 271.341 470.118C272.165 470.118 272.703 469.734 273.065 468.812L275.601 462.235H274.536L272.944 466.561L271.385 462.235H270.298L272.461 467.889L272.274 468.406C272.022 469.086 271.627 469.163 271.132 469.163H270.441V470.009ZM276.333 466.045C276.333 467.066 277.135 467.736 278.398 467.736C279.671 467.736 280.55 467.088 280.55 466.067C280.55 465.265 280.099 464.848 279.188 464.628L278.244 464.398C277.717 464.266 277.453 464.025 277.453 463.662C277.453 463.168 277.816 462.883 278.463 462.883C279.089 462.883 279.452 463.223 279.474 463.761H280.462C280.44 462.74 279.671 462.081 278.496 462.081C277.311 462.081 276.476 462.707 276.476 463.695C276.476 464.486 276.926 464.958 277.882 465.188L278.826 465.408C279.386 465.551 279.561 465.77 279.561 466.133C279.561 466.627 279.144 466.923 278.42 466.923C277.739 466.923 277.322 466.594 277.322 466.045H276.333Z" fill="#F0DA73"/>
<path d="M33.1469 288.411C33.1469 289.816 34.2998 290.749 36.0676 290.749C37.8243 290.749 38.9882 289.816 38.9882 288.422C38.9882 287.444 38.4173 286.654 37.5279 286.368C38.2745 286.072 38.6917 285.446 38.6917 284.634C38.6917 283.382 37.6377 282.536 36.0785 282.536C34.4974 282.536 33.4324 283.382 33.4324 284.623C33.4324 285.424 33.8386 286.05 34.5853 286.368C33.7069 286.687 33.1469 287.455 33.1469 288.411ZM34.4206 284.689C34.4206 283.953 35.0684 283.47 36.0566 283.47C37.0557 283.47 37.6816 283.953 37.6816 284.711C37.6816 285.479 37.0557 285.973 36.0566 285.973C35.0684 285.973 34.4206 285.468 34.4206 284.689ZM34.201 288.334C34.201 287.455 34.9257 286.895 36.0566 286.895C37.1985 286.895 37.9232 287.455 37.9232 288.334C37.9232 289.223 37.1875 289.794 36.0676 289.794C34.9366 289.794 34.201 289.223 34.201 288.334ZM40.4536 286.654C40.4536 289.124 41.6724 290.76 43.7256 290.76C45.7679 290.76 46.9866 289.124 46.9866 286.654C46.9866 284.194 45.713 282.526 43.7256 282.526C41.7273 282.526 40.4536 284.194 40.4536 286.654ZM41.5186 286.654C41.5186 284.678 42.3312 283.492 43.7256 283.492C45.12 283.492 45.9216 284.678 45.9216 286.654C45.9216 288.608 45.12 289.794 43.7256 289.794C42.3312 289.794 41.5186 288.608 41.5186 286.654ZM52.4197 284.557C52.4197 283.371 51.5852 282.526 50.4104 282.526C49.2465 282.526 48.412 283.371 48.412 284.557C48.412 285.732 49.2465 286.577 50.4104 286.577C51.5852 286.577 52.4197 285.732 52.4197 284.557ZM56.603 282.69H55.549L49.521 290.618H50.5751L56.603 282.69ZM51.5742 284.557C51.5742 285.259 51.0911 285.754 50.4104 285.754C49.7296 285.754 49.2575 285.259 49.2575 284.557C49.2575 283.843 49.7296 283.349 50.4104 283.349C51.1021 283.349 51.5742 283.843 51.5742 284.557ZM57.7339 288.74C57.7339 287.554 56.8885 286.72 55.7246 286.72C54.5608 286.72 53.7153 287.554 53.7153 288.74C53.7153 289.915 54.5608 290.76 55.7246 290.76C56.8885 290.76 57.7339 289.915 57.7339 288.74ZM56.8775 288.74C56.8775 289.443 56.4054 289.937 55.7246 289.937C55.0439 289.937 54.5717 289.443 54.5717 288.74C54.5717 288.026 55.0439 287.532 55.7246 287.532C56.4164 287.532 56.8775 288.026 56.8775 288.74Z" fill="white"/>
<path d="M34.179 320.986C33.3665 322.095 33.081 322.753 33.081 323.698C33.081 325.301 34.3547 326.541 36.0017 326.541C37.6377 326.541 38.8894 325.356 38.8894 323.698C38.8894 322.128 37.7804 320.942 36.1334 320.942C35.8589 320.942 35.5735 320.997 35.299 321.106L37.2863 318.471H36.0346L34.179 320.986ZM34.179 323.709C34.179 322.622 34.9257 321.853 36.0017 321.853C37.0557 321.853 37.8024 322.622 37.8024 323.709C37.8024 324.796 37.0557 325.575 36.0017 325.575C34.9257 325.575 34.179 324.796 34.179 323.709ZM40.3035 322.446C40.3035 324.916 41.5222 326.552 43.5755 326.552C45.6177 326.552 46.8365 324.916 46.8365 322.446C46.8365 319.986 45.5628 318.318 43.5755 318.318C41.5771 318.318 40.3035 319.986 40.3035 322.446ZM41.3685 322.446C41.3685 320.47 42.181 319.284 43.5755 319.284C44.9699 319.284 45.7715 320.47 45.7715 322.446C45.7715 324.4 44.9699 325.586 43.5755 325.586C42.181 325.586 41.3685 324.4 41.3685 322.446ZM52.2696 320.349C52.2696 319.163 51.4351 318.318 50.2603 318.318C49.0964 318.318 48.2619 319.163 48.2619 320.349C48.2619 321.524 49.0964 322.369 50.2603 322.369C51.4351 322.369 52.2696 321.524 52.2696 320.349ZM56.4529 318.482H55.3988L49.3709 326.41H50.425L56.4529 318.482ZM51.4241 320.349C51.4241 321.051 50.941 321.546 50.2603 321.546C49.5795 321.546 49.1074 321.051 49.1074 320.349C49.1074 319.635 49.5795 319.141 50.2603 319.141C50.952 319.141 51.4241 319.635 51.4241 320.349ZM57.5838 324.532C57.5838 323.346 56.7384 322.512 55.5745 322.512C54.4106 322.512 53.5652 323.346 53.5652 324.532C53.5652 325.707 54.4106 326.552 55.5745 326.552C56.7384 326.552 57.5838 325.707 57.5838 324.532ZM56.7274 324.532C56.7274 325.235 56.2553 325.729 55.5745 325.729C54.8938 325.729 54.4216 325.235 54.4216 324.532C54.4216 323.818 54.8938 323.324 55.5745 323.324C56.2662 323.324 56.7274 323.818 56.7274 324.532Z" fill="white"/>
<path d="M39.087 360.598V359.643H38.1428V354.263H36.7483L33.0042 359.643V360.598H37.1106V362.201H38.1428V360.598H39.087ZM34.168 359.643L37.1106 355.405V359.643H34.168ZM40.5715 358.237C40.5715 360.708 41.7903 362.344 43.8435 362.344C45.8858 362.344 47.1046 360.708 47.1046 358.237C47.1046 355.778 45.8309 354.109 43.8435 354.109C41.8452 354.109 40.5715 355.778 40.5715 358.237ZM41.6366 358.237C41.6366 356.261 42.4491 355.075 43.8435 355.075C45.238 355.075 46.0395 356.261 46.0395 358.237C46.0395 360.192 45.238 361.378 43.8435 361.378C42.4491 361.378 41.6366 360.192 41.6366 358.237ZM52.5376 356.14C52.5376 354.954 51.7032 354.109 50.5283 354.109C49.3645 354.109 48.53 354.954 48.53 356.14C48.53 357.315 49.3645 358.161 50.5283 358.161C51.7032 358.161 52.5376 357.315 52.5376 356.14ZM56.721 354.274H55.6669L49.639 362.201H50.693L56.721 354.274ZM51.6922 356.14C51.6922 356.843 51.2091 357.337 50.5283 357.337C49.8476 357.337 49.3754 356.843 49.3754 356.14C49.3754 355.427 49.8476 354.932 50.5283 354.932C51.2201 354.932 51.6922 355.427 51.6922 356.14ZM57.8519 360.324C57.8519 359.138 57.0064 358.303 55.8426 358.303C54.6787 358.303 53.8333 359.138 53.8333 360.324C53.8333 361.498 54.6787 362.344 55.8426 362.344C57.0064 362.344 57.8519 361.498 57.8519 360.324ZM56.9955 360.324C56.9955 361.026 56.5233 361.52 55.8426 361.52C55.1618 361.52 54.6897 361.026 54.6897 360.324C54.6897 359.61 55.1618 359.116 55.8426 359.116C56.5343 359.116 56.9955 359.61 56.9955 360.324Z" fill="white"/>
<path d="M38.4941 397.982V396.983H34.8268L36.4738 395.556C37.8792 394.337 38.4392 393.535 38.4392 392.404C38.4392 390.878 37.4181 389.912 35.826 389.912C34.212 389.912 33.1359 391.021 33.103 392.723H34.179C34.201 391.592 34.8378 390.878 35.815 390.878C36.7703 390.878 37.3412 391.471 37.3412 392.47C37.3412 393.316 36.9789 393.854 35.6942 394.963L33.1359 397.17V397.993L38.4941 397.982ZM39.9067 394.029C39.9067 396.5 41.1255 398.136 43.1787 398.136C45.221 398.136 46.4398 396.5 46.4398 394.029C46.4398 391.57 45.1661 389.901 43.1787 389.901C41.1804 389.901 39.9067 391.57 39.9067 394.029ZM40.9718 394.029C40.9718 392.053 41.7843 390.867 43.1787 390.867C44.5732 390.867 45.3747 392.053 45.3747 394.029C45.3747 395.984 44.5732 397.17 43.1787 397.17C41.7843 397.17 40.9718 395.984 40.9718 394.029ZM51.8728 391.932C51.8728 390.746 51.0384 389.901 49.8635 389.901C48.6997 389.901 47.8652 390.746 47.8652 391.932C47.8652 393.107 48.6997 393.953 49.8635 393.953C51.0384 393.953 51.8728 393.107 51.8728 391.932ZM56.0562 390.066H55.0021L48.9742 397.993H50.0282L56.0562 390.066ZM51.0274 391.932C51.0274 392.635 50.5443 393.129 49.8635 393.129C49.1828 393.129 48.7106 392.635 48.7106 391.932C48.7106 391.219 49.1828 390.724 49.8635 390.724C50.5553 390.724 51.0274 391.219 51.0274 391.932ZM57.1871 396.116C57.1871 394.93 56.3416 394.095 55.1778 394.095C54.0139 394.095 53.1685 394.93 53.1685 396.116C53.1685 397.29 54.0139 398.136 55.1778 398.136C56.3416 398.136 57.1871 397.29 57.1871 396.116ZM56.3307 396.116C56.3307 396.818 55.8585 397.312 55.1778 397.312C54.497 397.312 54.0249 396.818 54.0249 396.116C54.0249 395.402 54.497 394.908 55.1778 394.908C55.8695 394.908 56.3307 395.402 56.3307 396.116Z" fill="white"/>
<path d="M40.1689 429.821C40.1689 432.292 41.3876 433.928 43.4409 433.928C45.4831 433.928 46.7019 432.292 46.7019 429.821C46.7019 427.362 45.4282 425.693 43.4409 425.693C41.4425 425.693 40.1689 427.362 40.1689 429.821ZM41.2339 429.821C41.2339 427.845 42.0464 426.659 43.4409 426.659C44.8353 426.659 45.6368 427.845 45.6368 429.821C45.6368 431.776 44.8353 432.962 43.4409 432.962C42.0464 432.962 41.2339 431.776 41.2339 429.821ZM52.135 427.724C52.135 426.538 51.3005 425.693 50.1256 425.693C48.9618 425.693 48.1273 426.538 48.1273 427.724C48.1273 428.899 48.9618 429.745 50.1256 429.745C51.3005 429.745 52.135 428.899 52.135 427.724ZM56.3183 425.858H55.2642L49.2363 433.785H50.2903L56.3183 425.858ZM51.2895 427.724C51.2895 428.427 50.8064 428.921 50.1256 428.921C49.4449 428.921 48.9728 428.427 48.9728 427.724C48.9728 427.011 49.4449 426.516 50.1256 426.516C50.8174 426.516 51.2895 427.011 51.2895 427.724ZM57.4492 431.908C57.4492 430.722 56.6038 429.887 55.4399 429.887C54.276 429.887 53.4306 430.722 53.4306 431.908C53.4306 433.082 54.276 433.928 55.4399 433.928C56.6038 433.928 57.4492 433.082 57.4492 431.908ZM56.5928 431.908C56.5928 432.61 56.1207 433.104 55.4399 433.104C54.7592 433.104 54.287 432.61 54.287 431.908C54.287 431.194 54.7592 430.7 55.4399 430.7C56.1316 430.7 56.5928 431.194 56.5928 431.908Z" fill="white"/>
<path d="M83.0156 389.058C83.0156 389.058 92.7358 343.697 157.539 313.455C222.341 283.214 403.31 281.269 447.119 281.269" stroke="url(#paint5_linear_606_5425)" stroke-width="4.22303" stroke-linecap="round"/>
<path d="M83.0156 389.058C83.0156 389.058 92.7358 343.697 157.539 313.455C222.341 283.214 403.31 281.269 447.119 281.269" stroke="url(#paint6_linear_606_5425)" stroke-width="4.22303" stroke-linecap="round"/>
<path d="M83.0156 389.058C83.0156 389.058 92.7358 343.697 157.539 313.455C222.341 283.214 403.31 281.269 447.119 281.269" stroke="url(#paint7_linear_606_5425)" stroke-width="4.22303" stroke-linecap="round"/>
<path d="M25.0628 238.082V250.362H23.154V238.082H25.0628ZM23.4749 250.362V248.606H30.3163V250.362H23.4749ZM31.1357 246.207C31.1357 245.34 31.3215 244.58 31.6931 243.926C32.076 243.273 32.5996 242.761 33.2641 242.389C33.9285 242.018 34.683 241.832 35.5276 241.832C36.3722 241.832 37.1211 242.018 37.7743 242.389C38.4274 242.761 38.9454 243.273 39.3283 243.926C39.7112 244.58 39.9027 245.34 39.9027 246.207C39.9027 247.063 39.7112 247.817 39.3283 248.47C38.9454 249.124 38.4274 249.636 37.7743 250.008C37.1211 250.379 36.3722 250.565 35.5276 250.565C34.683 250.565 33.9285 250.379 33.2641 250.008C32.5996 249.636 32.076 249.124 31.6931 248.47C31.3215 247.817 31.1357 247.063 31.1357 246.207ZM32.96 246.19C32.96 246.731 33.067 247.209 33.2809 247.626C33.5062 248.031 33.8102 248.352 34.1931 248.589C34.576 248.814 35.0208 248.926 35.5276 248.926C36.0231 248.926 36.4623 248.814 36.8452 248.589C37.2281 248.352 37.5265 248.031 37.7405 247.626C37.9544 247.209 38.0614 246.731 38.0614 246.19C38.0614 245.649 37.9544 245.176 37.7405 244.771C37.5265 244.366 37.2281 244.05 36.8452 243.825C36.4623 243.589 36.0231 243.47 35.5276 243.47C35.0208 243.47 34.576 243.589 34.1931 243.825C33.8102 244.05 33.5062 244.366 33.2809 244.771C33.067 245.176 32.96 245.649 32.96 246.19ZM42.239 242.068L45.0431 249.94L43.9958 251.663L40.2965 242.068H42.239ZM40.5329 254.146V252.643H41.6647C41.935 252.643 42.1715 252.615 42.3742 252.558C42.5881 252.502 42.7796 252.389 42.9485 252.22C43.1174 252.063 43.2638 251.815 43.3877 251.477L46.8506 242.068H48.7425L44.7391 252.22C44.4463 252.964 44.0747 253.499 43.6242 253.825C43.185 254.163 42.6388 254.332 41.9857 254.332C41.7154 254.332 41.4564 254.315 41.2086 254.281C40.9721 254.247 40.7469 254.202 40.5329 254.146ZM52.0066 250.582C51.1283 250.582 50.4357 250.345 49.9289 249.872C49.4334 249.399 49.1857 248.786 49.1857 248.031C49.1857 247.265 49.4503 246.657 49.9796 246.207C50.5201 245.745 51.2803 245.475 52.26 245.396L54.8107 245.193V244.991C54.8107 244.563 54.7319 244.225 54.5742 243.977C54.4166 243.718 54.2026 243.532 53.9323 243.42C53.6621 243.307 53.3468 243.251 52.9864 243.251C52.3445 243.251 51.849 243.38 51.4999 243.639C51.1508 243.898 50.9762 244.264 50.9762 244.737H49.4222C49.4222 244.14 49.5685 243.628 49.8613 243.2C50.1654 242.761 50.5933 242.423 51.1451 242.187C51.697 241.939 52.3389 241.815 53.0708 241.815C53.7916 241.815 54.411 241.944 54.929 242.203C55.4583 242.451 55.8637 242.828 56.1452 243.335C56.438 243.842 56.5844 244.478 56.5844 245.244V250.362H55.0134L54.8445 249.079C54.6531 249.529 54.2983 249.895 53.7803 250.176C53.2623 250.447 52.6711 250.582 52.0066 250.582ZM52.581 249.18C53.2679 249.18 53.8141 248.977 54.2195 248.572C54.6249 248.155 54.8276 247.598 54.8276 246.899V246.443L52.9019 246.612C52.2262 246.669 51.742 246.815 51.4492 247.051C51.1677 247.288 51.0269 247.586 51.0269 247.947C51.0269 248.363 51.162 248.673 51.4323 248.876C51.7026 249.079 52.0855 249.18 52.581 249.18ZM60.5543 250.362H58.73V237.862H60.5543V250.362ZM61.9426 242.068H66.9934V243.589H61.9426V242.068ZM65.3717 250.362H63.5643V239.467H65.3717V250.362ZM69.3093 242.068L72.1134 249.94L71.0661 251.663L67.3667 242.068H69.3093ZM67.6032 254.146V252.643H68.735C69.0053 252.643 69.2417 252.615 69.4444 252.558C69.6584 252.502 69.8499 252.389 70.0188 252.22C70.1877 252.063 70.3341 251.815 70.458 251.477L73.9209 242.068H75.8128L71.8093 252.22C71.5165 252.964 71.1449 253.499 70.6945 253.825C70.2553 254.163 69.7091 254.332 69.0559 254.332C68.7857 254.332 68.5266 254.315 68.2789 254.281C68.0424 254.247 67.8172 254.202 67.6032 254.146ZM83.8223 250.362H81.9135V238.082H86.5588C87.9214 238.082 88.98 238.414 89.7345 239.078C90.5003 239.743 90.8832 240.661 90.8832 241.832C90.8832 242.676 90.6861 243.391 90.2919 243.977C89.8978 244.551 89.3291 244.979 88.5858 245.261L90.9845 250.362H88.8899L86.6939 245.633H83.8223V250.362ZM83.8223 239.788V243.943H86.5757C87.2964 243.943 87.8595 243.757 88.2649 243.386C88.6703 243.014 88.873 242.502 88.873 241.849C88.873 241.184 88.6703 240.677 88.2649 240.328C87.8595 239.968 87.2908 239.788 86.5588 239.788H83.8223ZM95.8656 250.582C95.0435 250.582 94.3171 250.396 93.6865 250.024C93.0671 249.653 92.5772 249.14 92.2169 248.487C91.8678 247.823 91.6932 247.063 91.6932 246.207C91.6932 245.34 91.8621 244.58 92.2 243.926C92.5491 243.273 93.0333 242.761 93.6527 242.389C94.2721 242.006 94.9872 241.815 95.798 241.815C96.6088 241.815 97.307 241.989 97.8926 242.339C98.4895 242.676 98.9512 243.161 99.2778 243.791C99.6156 244.411 99.7845 245.143 99.7845 245.987V246.595L92.6561 246.612L92.6898 245.43H97.9602C97.9602 244.788 97.7631 244.281 97.369 243.91C96.9861 243.527 96.4624 243.335 95.798 243.335C95.2912 243.335 94.8577 243.442 94.4973 243.656C94.1482 243.87 93.8779 244.191 93.6865 244.619C93.5063 245.036 93.4162 245.548 93.4162 246.156C93.4162 247.102 93.6245 247.823 94.0412 248.318C94.4691 248.814 95.0885 249.062 95.8993 249.062C96.4849 249.062 96.9692 248.949 97.3521 248.724C97.735 248.499 97.9827 248.166 98.0953 247.727H99.8014C99.61 248.617 99.1651 249.315 98.4669 249.822C97.78 250.329 96.9129 250.582 95.8656 250.582ZM102.998 250.362L100.279 242.068H102.187L103.404 246.004C103.505 246.308 103.595 246.635 103.674 246.984C103.764 247.322 103.848 247.676 103.927 248.048C103.972 247.789 104.023 247.547 104.079 247.322C104.136 247.096 104.198 246.877 104.265 246.663C104.333 246.449 104.4 246.229 104.468 246.004L105.752 242.068H107.61L108.843 246.004C108.877 246.094 108.916 246.224 108.961 246.393C109.006 246.562 109.057 246.747 109.113 246.95C109.169 247.142 109.22 247.339 109.265 247.541C109.31 247.733 109.35 247.902 109.383 248.048C109.429 247.834 109.479 247.609 109.535 247.372C109.592 247.125 109.654 246.888 109.721 246.663C109.789 246.426 109.856 246.207 109.924 246.004L111.174 242.068H113.083L110.228 250.362H108.522L107.221 246.342C107.075 245.858 106.957 245.441 106.867 245.092C106.776 244.732 106.709 244.439 106.664 244.214C106.619 244.428 106.551 244.692 106.461 245.008C106.382 245.323 106.253 245.779 106.073 246.376L104.772 250.362H102.998ZM116.441 250.582C115.562 250.582 114.87 250.345 114.363 249.872C113.868 249.399 113.62 248.786 113.62 248.031C113.62 247.265 113.884 246.657 114.414 246.207C114.954 245.745 115.714 245.475 116.694 245.396L119.245 245.193V244.991C119.245 244.563 119.166 244.225 119.008 243.977C118.851 243.718 118.637 243.532 118.367 243.42C118.096 243.307 117.781 243.251 117.421 243.251C116.779 243.251 116.283 243.38 115.934 243.639C115.585 243.898 115.41 244.264 115.41 244.737H113.856C113.856 244.14 114.003 243.628 114.296 243.2C114.6 242.761 115.027 242.423 115.579 242.187C116.131 241.939 116.773 241.815 117.505 241.815C118.226 241.815 118.845 241.944 119.363 242.203C119.892 242.451 120.298 242.828 120.579 243.335C120.872 243.842 121.019 244.478 121.019 245.244V250.362H119.448L119.279 249.079C119.087 249.529 118.733 249.895 118.214 250.176C117.696 250.447 117.105 250.582 116.441 250.582ZM117.015 249.18C117.702 249.18 118.248 248.977 118.654 248.572C119.059 248.155 119.262 247.598 119.262 246.899V246.443L117.336 246.612C116.66 246.669 116.176 246.815 115.883 247.051C115.602 247.288 115.461 247.586 115.461 247.947C115.461 248.363 115.596 248.673 115.866 248.876C116.137 249.079 116.52 249.18 117.015 249.18ZM128.114 242.018V243.69H127.387C126.633 243.69 126.036 243.898 125.597 244.315C125.169 244.732 124.955 245.345 124.955 246.156V250.362H123.147V242.068H124.853L125.005 243.774H124.836C124.949 243.223 125.214 242.772 125.63 242.423C126.047 242.074 126.588 241.899 127.252 241.899C127.387 241.899 127.522 241.911 127.657 241.933C127.804 241.944 127.956 241.973 128.114 242.018ZM132.645 250.582C131.846 250.582 131.153 250.396 130.568 250.024C129.993 249.653 129.548 249.146 129.233 248.504C128.918 247.851 128.76 247.096 128.76 246.241C128.76 245.385 128.918 244.625 129.233 243.96C129.548 243.296 130.005 242.772 130.601 242.389C131.198 242.006 131.913 241.815 132.747 241.815C133.355 241.815 133.901 241.939 134.385 242.187C134.881 242.434 135.264 242.795 135.534 243.268V237.862H137.358V250.362H135.686L135.568 248.96C135.309 249.478 134.915 249.878 134.385 250.16C133.867 250.441 133.287 250.582 132.645 250.582ZM133.034 248.91C133.552 248.91 133.991 248.797 134.351 248.572C134.723 248.335 135.01 248.014 135.213 247.609C135.416 247.192 135.517 246.719 135.517 246.19C135.517 245.649 135.416 245.176 135.213 244.771C135.01 244.354 134.723 244.033 134.351 243.808C133.991 243.572 133.552 243.453 133.034 243.453C132.527 243.453 132.088 243.572 131.716 243.808C131.356 244.045 131.074 244.366 130.872 244.771C130.68 245.176 130.585 245.649 130.585 246.19C130.585 246.719 130.68 247.192 130.872 247.609C131.074 248.014 131.356 248.335 131.716 248.572C132.088 248.797 132.527 248.91 133.034 248.91ZM138.919 247.896H140.642C140.653 248.29 140.799 248.6 141.081 248.825C141.362 249.05 141.751 249.163 142.246 249.163C142.764 249.163 143.164 249.062 143.446 248.859C143.727 248.656 143.868 248.392 143.868 248.065C143.868 247.817 143.795 247.615 143.648 247.457C143.502 247.288 143.226 247.153 142.821 247.051L141.334 246.714C140.602 246.533 140.05 246.258 139.679 245.886C139.318 245.514 139.138 245.008 139.138 244.366C139.138 243.836 139.273 243.386 139.544 243.014C139.825 242.631 140.208 242.339 140.692 242.136C141.177 241.922 141.728 241.815 142.348 241.815C142.967 241.815 143.508 241.928 143.969 242.153C144.431 242.367 144.791 242.671 145.05 243.065C145.31 243.459 145.439 243.926 145.439 244.467H143.716C143.705 244.073 143.575 243.763 143.327 243.538C143.08 243.313 142.731 243.2 142.28 243.2C141.841 243.2 141.498 243.301 141.25 243.504C141.002 243.696 140.878 243.96 140.878 244.298C140.878 244.805 141.255 245.154 142.01 245.345L143.496 245.683C144.195 245.841 144.718 246.1 145.067 246.46C145.416 246.809 145.591 247.299 145.591 247.93C145.591 248.459 145.445 248.926 145.152 249.332C144.87 249.737 144.476 250.047 143.969 250.261C143.463 250.475 142.871 250.582 142.196 250.582C141.193 250.582 140.394 250.334 139.797 249.839C139.211 249.343 138.919 248.696 138.919 247.896Z" fill="#E5ECF1"/>
<rect x="-25.816" y="54.517" width="514.155" height="545.155" rx="25.5777" stroke="#29292D" stroke-width="0.844605" shape-rendering="crispEdges"/>
<rect x="-25.816" y="54.517" width="514.155" height="545.155" rx="25.5777" stroke="white" stroke-opacity="0.06" stroke-width="0.844605" shape-rendering="crispEdges"/>
</g>
</g>
<defs>
<filter id="filter0_dd_606_5425" x="-65.0901" y="47.3379" width="615.29" height="630.986" filterUnits="userSpaceOnUse" color-interpolation-filters="sRGB">
<feFlood flood-opacity="0" result="BackgroundImageFix"/>
<feColorMatrix in="SourceAlpha" type="matrix" values="0 0 0 0 0 0 0 0 0 0 0 0 0 0 0 0 0 0 127 0" result="hardAlpha"/>
<feOffset dy="32.095"/>
<feGaussianBlur stdDeviation="19.4259"/>
<feComposite in2="hardAlpha" operator="out"/>
<feColorMatrix type="matrix" values="0 0 0 0 0 0 0 0 0 0 0 0 0 0 0 0 0 0 0.03 0"/>
<feBlend mode="normal" in2="BackgroundImageFix" result="effect1_dropShadow_606_5425"/>
<feColorMatrix in="SourceAlpha" type="matrix" values="0 0 0 0 0 0 0 0 0 0 0 0 0 0 0 0 0 0 127 0" result="hardAlpha"/>
<feOffset dx="20" dy="37"/>
<feGaussianBlur stdDeviation="20.6148"/>
<feComposite in2="hardAlpha" operator="out"/>
<feColorMatrix type="matrix" values="0 0 0 0 0 0 0 0 0 0 0 0 0 0 0 0 0 0 0.26 0"/>
<feBlend mode="normal" in2="effect1_dropShadow_606_5425" result="effect2_dropShadow_606_5425"/>
<feBlend mode="normal" in="SourceGraphic" in2="effect2_dropShadow_606_5425" result="shape"/>
</filter>
<linearGradient id="paint0_linear_606_5425" x1="276.159" y1="349.407" x2="276.159" y2="444.095" gradientUnits="userSpaceOnUse">
<stop/>
<stop offset="1" stop-color="#D9D9D9" stop-opacity="0"/>
</linearGradient>
<linearGradient id="paint1_linear_606_5425" x1="22.2756" y1="67.4697" x2="142.629" y2="67.4697" gradientUnits="userSpaceOnUse">
<stop stop-color="#FFCE4F"/>
<stop offset="1" stop-color="#4FFFB0"/>
</linearGradient>
<linearGradient id="paint2_linear_606_5425" x1="22.2756" y1="67.4697" x2="142.629" y2="67.4697" gradientUnits="userSpaceOnUse">
<stop stop-color="#4FFFB0"/>
<stop offset="0.505223" stop-color="#A2FF76"/>
<stop offset="1" stop-color="#FF984E"/>
</linearGradient>
<linearGradient id="paint3_linear_606_5425" x1="22.2756" y1="67.4697" x2="142.629" y2="67.4697" gradientUnits="userSpaceOnUse">
<stop stop-color="#4FFFB0"/>
<stop offset="0.463556" stop-color="#B3FF8F"/>
<stop offset="1" stop-color="#FF984E"/>
</linearGradient>
<linearGradient id="paint4_linear_606_5425" x1="150.593" y1="171.657" x2="221.445" y2="171.657" gradientUnits="userSpaceOnUse">
<stop stop-color="#4FFFB0"/>
<stop offset="0.463556" stop-color="#B3FF8F"/>
<stop offset="1" stop-color="#FF984E"/>
</linearGradient>
<linearGradient id="paint5_linear_606_5425" x1="87.6539" y1="217.269" x2="462.194" y2="217.269" gradientUnits="userSpaceOnUse">
<stop stop-color="#FFCE4F"/>
<stop offset="1" stop-color="#4FFFB0"/>
</linearGradient>
<linearGradient id="paint6_linear_606_5425" x1="87.6539" y1="217.269" x2="462.194" y2="217.269" gradientUnits="userSpaceOnUse">
<stop stop-color="#4FFFB0"/>
<stop offset="0.505223" stop-color="#A2FF76"/>
<stop offset="1" stop-color="#FF984E"/>
</linearGradient>
<linearGradient id="paint7_linear_606_5425" x1="87.6539" y1="217.269" x2="462.194" y2="217.269" gradientUnits="userSpaceOnUse">
<stop stop-color="#4FFFB0"/>
<stop offset="0.463556" stop-color="#B3FF8F"/>
<stop offset="1" stop-color="#FF984E"/>
</linearGradient>
<clipPath id="clip0_606_5425">
<rect x="20.4531" y="144.215" width="17.4739" height="17.4739" rx="8.73697" fill="white"/>
</clipPath>
</defs>
</svg>
