<svg width="548" height="496" viewBox="0 0 548 496" fill="none" xmlns="http://www.w3.org/2000/svg">
<g clip-path="url(#clip0_732_15317)">
<rect x="0.5" width="547" height="496" rx="35" fill="#1D2325"/>
<rect x="0.5" width="547" height="496" rx="35" fill="url(#paint0_linear_732_15317)" fill-opacity="0.2"/>
<rect x="0.5" width="547" height="496" rx="35" fill="url(#paint1_linear_732_15317)"/>
<mask id="mask0_732_15317" style="mask-type:alpha" maskUnits="userSpaceOnUse" x="-3" y="6" width="915" height="506">
<path d="M-2.26221 6.90527H911.738V511.851H-2.26221V6.90527Z" fill="url(#paint2_linear_732_15317)"/>
</mask>
<g mask="url(#mask0_732_15317)">
<g filter="url(#filter0_dd_732_15317)">
<rect x="-28.5" y="61" width="515" height="546" rx="26" fill="#211F24" shape-rendering="crispEdges"/>
<path d="M22.761 97.182V112H20.1663V97.182H22.761ZM29.3286 99.5739H20.369V97.182H29.3286V99.5739ZM28.2745 105.939H20.3285V103.608H28.2745V105.939ZM33.4708 112.263C32.4167 112.263 31.5788 111.979 30.9572 111.412C30.3491 110.831 30.045 110.074 30.045 109.142C30.045 108.223 30.3626 107.493 30.9978 106.952C31.6464 106.398 32.5653 106.074 33.7546 105.979L36.7546 105.736V105.513C36.7546 105.054 36.6668 104.689 36.4911 104.419C36.3289 104.135 36.0924 103.932 35.7816 103.81C35.4708 103.675 35.1059 103.608 34.687 103.608C33.9573 103.608 33.3964 103.756 33.0045 104.054C32.6126 104.337 32.4167 104.743 32.4167 105.27H30.3086C30.3086 104.54 30.491 103.912 30.8559 103.385C31.2342 102.844 31.7613 102.425 32.437 102.128C33.1262 101.831 33.9167 101.682 34.8086 101.682C35.714 101.682 36.4911 101.844 37.1397 102.169C37.7884 102.479 38.2884 102.952 38.6397 103.587C38.9911 104.209 39.1668 104.986 39.1668 105.919V112H36.9978L36.8154 110.52C36.5992 111.034 36.1803 111.452 35.5586 111.777C34.9505 112.101 34.2546 112.263 33.4708 112.263ZM34.2613 110.398C35.0316 110.398 35.6397 110.182 36.0857 109.75C36.5451 109.317 36.7749 108.716 36.7749 107.946V107.419L34.687 107.581C33.9167 107.648 33.3694 107.811 33.0451 108.067C32.7208 108.311 32.5586 108.635 32.5586 109.04C32.5586 109.486 32.7072 109.824 33.0045 110.054C33.3018 110.284 33.7208 110.398 34.2613 110.398ZM47.8801 101.946V104.236H46.9679C46.0625 104.236 45.353 104.479 44.8395 104.966C44.326 105.439 44.0692 106.162 44.0692 107.135V112H41.5962V102.006H43.9273L44.1301 104.074H43.8868C44.0219 103.412 44.3395 102.871 44.8395 102.452C45.3395 102.033 45.9882 101.824 46.7855 101.824C46.9612 101.824 47.1369 101.831 47.3125 101.844C47.4882 101.858 47.6774 101.892 47.8801 101.946ZM52.027 112H49.554V101.986H51.8243L52.1284 103.77L51.8446 103.527C52.0473 103.04 52.4189 102.614 52.9595 102.25C53.5 101.871 54.1757 101.682 54.9865 101.682C55.8649 101.682 56.5811 101.912 57.1352 102.371C57.7028 102.831 58.0947 103.439 58.3109 104.196H57.9055C58.0541 103.439 58.4325 102.831 59.0406 102.371C59.6622 101.912 60.4123 101.682 61.2906 101.682C62.5069 101.682 63.4393 102.027 64.088 102.716C64.7366 103.392 65.061 104.304 65.061 105.452V112H62.6082V106.101C62.6082 105.385 62.4258 104.844 62.0609 104.479C61.7096 104.101 61.2366 103.912 60.642 103.912C60.2636 103.912 59.9122 104 59.5879 104.175C59.2771 104.351 59.0271 104.615 58.8379 104.966C58.6487 105.317 58.5541 105.77 58.5541 106.324V112H56.0811V106.081C56.0811 105.378 55.9054 104.844 55.5541 104.479C55.2027 104.115 54.7365 103.932 54.1554 103.932C53.7635 103.932 53.4054 104.02 53.0811 104.196C52.7567 104.358 52.5 104.621 52.3108 104.986C52.1216 105.338 52.027 105.783 52.027 106.324V112ZM78.6482 112H73.3171V97.182H78.5063C79.9658 97.182 81.2496 97.4996 82.3577 98.1347C83.4659 98.7563 84.3307 99.628 84.9524 100.75C85.5875 101.858 85.9051 103.148 85.9051 104.621C85.9051 106.067 85.5943 107.351 84.9726 108.473C84.3645 109.581 83.5132 110.446 82.4186 111.067C81.3375 111.689 80.0807 112 78.6482 112ZM75.9117 98.378V110.824L74.6752 109.608H78.405C79.3915 109.608 80.2428 109.405 80.9591 109C81.6753 108.594 82.2226 108.02 82.601 107.277C82.9794 106.533 83.1686 105.648 83.1686 104.621C83.1686 103.567 82.9726 102.669 82.5807 101.925C82.1888 101.169 81.628 100.587 80.8983 100.182C80.1685 99.7766 79.2901 99.5739 78.2631 99.5739H74.6752L75.9117 98.378ZM92.4369 112.263C91.4504 112.263 90.5721 112.04 89.8018 111.594C89.045 111.135 88.4504 110.513 88.018 109.729C87.5855 108.932 87.3693 108.02 87.3693 106.993C87.3693 105.952 87.5788 105.033 87.9977 104.236C88.4166 103.439 89.0045 102.817 89.7612 102.371C90.518 101.912 91.3829 101.682 92.3559 101.682C93.3694 101.682 94.241 101.898 94.9708 102.331C95.7005 102.75 96.2613 103.337 96.6532 104.094C97.0586 104.851 97.2613 105.756 97.2613 106.81V107.561L88.6666 107.581L88.7072 106H94.8086C94.8086 105.31 94.5856 104.756 94.1397 104.337C93.7072 103.919 93.1194 103.709 92.3761 103.709C91.795 103.709 91.3018 103.831 90.8964 104.074C90.5045 104.317 90.2072 104.682 90.0045 105.169C89.8018 105.655 89.7004 106.25 89.7004 106.952C89.7004 108.033 89.9302 108.851 90.3896 109.405C90.8626 109.959 91.5586 110.236 92.4775 110.236C93.1532 110.236 93.7072 110.108 94.1397 109.851C94.5856 109.594 94.8762 109.229 95.0113 108.756H97.3019C97.0857 109.851 96.5451 110.709 95.6802 111.331C94.8289 111.952 93.7478 112.263 92.4369 112.263ZM98.1483 101.986H104.473V104.054H98.1483V101.986ZM102.547 112H100.074V98.8645H102.547V112ZM108.951 112.263C107.897 112.263 107.059 111.979 106.437 111.412C105.829 110.831 105.525 110.074 105.525 109.142C105.525 108.223 105.843 107.493 106.478 106.952C107.126 106.398 108.045 106.074 109.235 105.979L112.235 105.736V105.513C112.235 105.054 112.147 104.689 111.971 104.419C111.809 104.135 111.572 103.932 111.262 103.81C110.951 103.675 110.586 103.608 110.167 103.608C109.437 103.608 108.876 103.756 108.485 104.054C108.093 104.337 107.897 104.743 107.897 105.27H105.789C105.789 104.54 105.971 103.912 106.336 103.385C106.714 102.844 107.241 102.425 107.917 102.128C108.606 101.831 109.397 101.682 110.289 101.682C111.194 101.682 111.971 101.844 112.62 102.169C113.268 102.479 113.768 102.952 114.12 103.587C114.471 104.209 114.647 104.986 114.647 105.919V112H112.478L112.295 110.52C112.079 111.034 111.66 111.452 111.039 111.777C110.431 112.101 109.735 112.263 108.951 112.263ZM109.741 110.398C110.512 110.398 111.12 110.182 111.566 109.75C112.025 109.317 112.255 108.716 112.255 107.946V107.419L110.167 107.581C109.397 107.648 108.849 107.811 108.525 108.067C108.201 108.311 108.039 108.635 108.039 109.04C108.039 109.486 108.187 109.824 108.485 110.054C108.782 110.284 109.201 110.398 109.741 110.398ZM117.076 112V101.986H119.549V112H117.076ZM118.292 99.9793C117.874 99.9793 117.515 99.8374 117.218 99.5536C116.934 99.2563 116.792 98.8982 116.792 98.4793C116.792 98.0604 116.934 97.709 117.218 97.4252C117.515 97.1415 117.874 96.9996 118.292 96.9996C118.711 96.9996 119.063 97.1415 119.347 97.4252C119.644 97.709 119.793 98.0604 119.793 98.4793C119.793 98.8982 119.644 99.2563 119.347 99.5536C119.063 99.8374 118.711 99.9793 118.292 99.9793ZM124.598 112H122.145V96.9185H124.598V112ZM126.421 108.959H128.773C128.786 109.392 128.949 109.736 129.259 109.993C129.57 110.25 130.003 110.378 130.557 110.378C131.151 110.378 131.597 110.27 131.894 110.054C132.205 109.838 132.361 109.547 132.361 109.182C132.361 108.939 132.28 108.723 132.117 108.533C131.955 108.344 131.651 108.202 131.205 108.108L129.401 107.682C128.496 107.479 127.82 107.155 127.374 106.709C126.942 106.25 126.726 105.621 126.726 104.824C126.726 104.175 126.894 103.615 127.232 103.142C127.584 102.669 128.057 102.31 128.651 102.067C129.246 101.81 129.928 101.682 130.699 101.682C131.442 101.682 132.097 101.817 132.665 102.087C133.232 102.358 133.672 102.736 133.982 103.223C134.307 103.709 134.476 104.277 134.489 104.925H132.138C132.138 104.493 132.003 104.155 131.732 103.912C131.462 103.655 131.084 103.527 130.597 103.527C130.111 103.527 129.732 103.635 129.462 103.851C129.192 104.067 129.057 104.358 129.057 104.723C129.057 105.277 129.489 105.655 130.354 105.858L132.158 106.283C132.996 106.473 133.624 106.777 134.043 107.196C134.476 107.615 134.692 108.209 134.692 108.979C134.692 109.655 134.516 110.243 134.165 110.743C133.813 111.229 133.32 111.608 132.685 111.878C132.05 112.135 131.32 112.263 130.496 112.263C129.253 112.263 128.259 111.959 127.516 111.351C126.786 110.743 126.421 109.946 126.421 108.959Z" fill="url(#paint3_linear_732_15317)"/>
<path d="M22.761 97.182V112H20.1663V97.182H22.761ZM29.3286 99.5739H20.369V97.182H29.3286V99.5739ZM28.2745 105.939H20.3285V103.608H28.2745V105.939ZM33.4708 112.263C32.4167 112.263 31.5788 111.979 30.9572 111.412C30.3491 110.831 30.045 110.074 30.045 109.142C30.045 108.223 30.3626 107.493 30.9978 106.952C31.6464 106.398 32.5653 106.074 33.7546 105.979L36.7546 105.736V105.513C36.7546 105.054 36.6668 104.689 36.4911 104.419C36.3289 104.135 36.0924 103.932 35.7816 103.81C35.4708 103.675 35.1059 103.608 34.687 103.608C33.9573 103.608 33.3964 103.756 33.0045 104.054C32.6126 104.337 32.4167 104.743 32.4167 105.27H30.3086C30.3086 104.54 30.491 103.912 30.8559 103.385C31.2342 102.844 31.7613 102.425 32.437 102.128C33.1262 101.831 33.9167 101.682 34.8086 101.682C35.714 101.682 36.4911 101.844 37.1397 102.169C37.7884 102.479 38.2884 102.952 38.6397 103.587C38.9911 104.209 39.1668 104.986 39.1668 105.919V112H36.9978L36.8154 110.52C36.5992 111.034 36.1803 111.452 35.5586 111.777C34.9505 112.101 34.2546 112.263 33.4708 112.263ZM34.2613 110.398C35.0316 110.398 35.6397 110.182 36.0857 109.75C36.5451 109.317 36.7749 108.716 36.7749 107.946V107.419L34.687 107.581C33.9167 107.648 33.3694 107.811 33.0451 108.067C32.7208 108.311 32.5586 108.635 32.5586 109.04C32.5586 109.486 32.7072 109.824 33.0045 110.054C33.3018 110.284 33.7208 110.398 34.2613 110.398ZM47.8801 101.946V104.236H46.9679C46.0625 104.236 45.353 104.479 44.8395 104.966C44.326 105.439 44.0692 106.162 44.0692 107.135V112H41.5962V102.006H43.9273L44.1301 104.074H43.8868C44.0219 103.412 44.3395 102.871 44.8395 102.452C45.3395 102.033 45.9882 101.824 46.7855 101.824C46.9612 101.824 47.1369 101.831 47.3125 101.844C47.4882 101.858 47.6774 101.892 47.8801 101.946ZM52.027 112H49.554V101.986H51.8243L52.1284 103.77L51.8446 103.527C52.0473 103.04 52.4189 102.614 52.9595 102.25C53.5 101.871 54.1757 101.682 54.9865 101.682C55.8649 101.682 56.5811 101.912 57.1352 102.371C57.7028 102.831 58.0947 103.439 58.3109 104.196H57.9055C58.0541 103.439 58.4325 102.831 59.0406 102.371C59.6622 101.912 60.4123 101.682 61.2906 101.682C62.5069 101.682 63.4393 102.027 64.088 102.716C64.7366 103.392 65.061 104.304 65.061 105.452V112H62.6082V106.101C62.6082 105.385 62.4258 104.844 62.0609 104.479C61.7096 104.101 61.2366 103.912 60.642 103.912C60.2636 103.912 59.9122 104 59.5879 104.175C59.2771 104.351 59.0271 104.615 58.8379 104.966C58.6487 105.317 58.5541 105.77 58.5541 106.324V112H56.0811V106.081C56.0811 105.378 55.9054 104.844 55.5541 104.479C55.2027 104.115 54.7365 103.932 54.1554 103.932C53.7635 103.932 53.4054 104.02 53.0811 104.196C52.7567 104.358 52.5 104.621 52.3108 104.986C52.1216 105.338 52.027 105.783 52.027 106.324V112ZM78.6482 112H73.3171V97.182H78.5063C79.9658 97.182 81.2496 97.4996 82.3577 98.1347C83.4659 98.7563 84.3307 99.628 84.9524 100.75C85.5875 101.858 85.9051 103.148 85.9051 104.621C85.9051 106.067 85.5943 107.351 84.9726 108.473C84.3645 109.581 83.5132 110.446 82.4186 111.067C81.3375 111.689 80.0807 112 78.6482 112ZM75.9117 98.378V110.824L74.6752 109.608H78.405C79.3915 109.608 80.2428 109.405 80.9591 109C81.6753 108.594 82.2226 108.02 82.601 107.277C82.9794 106.533 83.1686 105.648 83.1686 104.621C83.1686 103.567 82.9726 102.669 82.5807 101.925C82.1888 101.169 81.628 100.587 80.8983 100.182C80.1685 99.7766 79.2901 99.5739 78.2631 99.5739H74.6752L75.9117 98.378ZM92.4369 112.263C91.4504 112.263 90.5721 112.04 89.8018 111.594C89.045 111.135 88.4504 110.513 88.018 109.729C87.5855 108.932 87.3693 108.02 87.3693 106.993C87.3693 105.952 87.5788 105.033 87.9977 104.236C88.4166 103.439 89.0045 102.817 89.7612 102.371C90.518 101.912 91.3829 101.682 92.3559 101.682C93.3694 101.682 94.241 101.898 94.9708 102.331C95.7005 102.75 96.2613 103.337 96.6532 104.094C97.0586 104.851 97.2613 105.756 97.2613 106.81V107.561L88.6666 107.581L88.7072 106H94.8086C94.8086 105.31 94.5856 104.756 94.1397 104.337C93.7072 103.919 93.1194 103.709 92.3761 103.709C91.795 103.709 91.3018 103.831 90.8964 104.074C90.5045 104.317 90.2072 104.682 90.0045 105.169C89.8018 105.655 89.7004 106.25 89.7004 106.952C89.7004 108.033 89.9302 108.851 90.3896 109.405C90.8626 109.959 91.5586 110.236 92.4775 110.236C93.1532 110.236 93.7072 110.108 94.1397 109.851C94.5856 109.594 94.8762 109.229 95.0113 108.756H97.3019C97.0857 109.851 96.5451 110.709 95.6802 111.331C94.8289 111.952 93.7478 112.263 92.4369 112.263ZM98.1483 101.986H104.473V104.054H98.1483V101.986ZM102.547 112H100.074V98.8645H102.547V112ZM108.951 112.263C107.897 112.263 107.059 111.979 106.437 111.412C105.829 110.831 105.525 110.074 105.525 109.142C105.525 108.223 105.843 107.493 106.478 106.952C107.126 106.398 108.045 106.074 109.235 105.979L112.235 105.736V105.513C112.235 105.054 112.147 104.689 111.971 104.419C111.809 104.135 111.572 103.932 111.262 103.81C110.951 103.675 110.586 103.608 110.167 103.608C109.437 103.608 108.876 103.756 108.485 104.054C108.093 104.337 107.897 104.743 107.897 105.27H105.789C105.789 104.54 105.971 103.912 106.336 103.385C106.714 102.844 107.241 102.425 107.917 102.128C108.606 101.831 109.397 101.682 110.289 101.682C111.194 101.682 111.971 101.844 112.62 102.169C113.268 102.479 113.768 102.952 114.12 103.587C114.471 104.209 114.647 104.986 114.647 105.919V112H112.478L112.295 110.52C112.079 111.034 111.66 111.452 111.039 111.777C110.431 112.101 109.735 112.263 108.951 112.263ZM109.741 110.398C110.512 110.398 111.12 110.182 111.566 109.75C112.025 109.317 112.255 108.716 112.255 107.946V107.419L110.167 107.581C109.397 107.648 108.849 107.811 108.525 108.067C108.201 108.311 108.039 108.635 108.039 109.04C108.039 109.486 108.187 109.824 108.485 110.054C108.782 110.284 109.201 110.398 109.741 110.398ZM117.076 112V101.986H119.549V112H117.076ZM118.292 99.9793C117.874 99.9793 117.515 99.8374 117.218 99.5536C116.934 99.2563 116.792 98.8982 116.792 98.4793C116.792 98.0604 116.934 97.709 117.218 97.4252C117.515 97.1415 117.874 96.9996 118.292 96.9996C118.711 96.9996 119.063 97.1415 119.347 97.4252C119.644 97.709 119.793 98.0604 119.793 98.4793C119.793 98.8982 119.644 99.2563 119.347 99.5536C119.063 99.8374 118.711 99.9793 118.292 99.9793ZM124.598 112H122.145V96.9185H124.598V112ZM126.421 108.959H128.773C128.786 109.392 128.949 109.736 129.259 109.993C129.57 110.25 130.003 110.378 130.557 110.378C131.151 110.378 131.597 110.27 131.894 110.054C132.205 109.838 132.361 109.547 132.361 109.182C132.361 108.939 132.28 108.723 132.117 108.533C131.955 108.344 131.651 108.202 131.205 108.108L129.401 107.682C128.496 107.479 127.82 107.155 127.374 106.709C126.942 106.25 126.726 105.621 126.726 104.824C126.726 104.175 126.894 103.615 127.232 103.142C127.584 102.669 128.057 102.31 128.651 102.067C129.246 101.81 129.928 101.682 130.699 101.682C131.442 101.682 132.097 101.817 132.665 102.087C133.232 102.358 133.672 102.736 133.982 103.223C134.307 103.709 134.476 104.277 134.489 104.925H132.138C132.138 104.493 132.003 104.155 131.732 103.912C131.462 103.655 131.084 103.527 130.597 103.527C130.111 103.527 129.732 103.635 129.462 103.851C129.192 104.067 129.057 104.358 129.057 104.723C129.057 105.277 129.489 105.655 130.354 105.858L132.158 106.283C132.996 106.473 133.624 106.777 134.043 107.196C134.476 107.615 134.692 108.209 134.692 108.979C134.692 109.655 134.516 110.243 134.165 110.743C133.813 111.229 133.32 111.608 132.685 111.878C132.05 112.135 131.32 112.263 130.496 112.263C129.253 112.263 128.259 111.959 127.516 111.351C126.786 110.743 126.421 109.946 126.421 108.959Z" fill="url(#paint4_linear_732_15317)"/>
<path d="M22.761 97.182V112H20.1663V97.182H22.761ZM29.3286 99.5739H20.369V97.182H29.3286V99.5739ZM28.2745 105.939H20.3285V103.608H28.2745V105.939ZM33.4708 112.263C32.4167 112.263 31.5788 111.979 30.9572 111.412C30.3491 110.831 30.045 110.074 30.045 109.142C30.045 108.223 30.3626 107.493 30.9978 106.952C31.6464 106.398 32.5653 106.074 33.7546 105.979L36.7546 105.736V105.513C36.7546 105.054 36.6668 104.689 36.4911 104.419C36.3289 104.135 36.0924 103.932 35.7816 103.81C35.4708 103.675 35.1059 103.608 34.687 103.608C33.9573 103.608 33.3964 103.756 33.0045 104.054C32.6126 104.337 32.4167 104.743 32.4167 105.27H30.3086C30.3086 104.54 30.491 103.912 30.8559 103.385C31.2342 102.844 31.7613 102.425 32.437 102.128C33.1262 101.831 33.9167 101.682 34.8086 101.682C35.714 101.682 36.4911 101.844 37.1397 102.169C37.7884 102.479 38.2884 102.952 38.6397 103.587C38.9911 104.209 39.1668 104.986 39.1668 105.919V112H36.9978L36.8154 110.52C36.5992 111.034 36.1803 111.452 35.5586 111.777C34.9505 112.101 34.2546 112.263 33.4708 112.263ZM34.2613 110.398C35.0316 110.398 35.6397 110.182 36.0857 109.75C36.5451 109.317 36.7749 108.716 36.7749 107.946V107.419L34.687 107.581C33.9167 107.648 33.3694 107.811 33.0451 108.067C32.7208 108.311 32.5586 108.635 32.5586 109.04C32.5586 109.486 32.7072 109.824 33.0045 110.054C33.3018 110.284 33.7208 110.398 34.2613 110.398ZM47.8801 101.946V104.236H46.9679C46.0625 104.236 45.353 104.479 44.8395 104.966C44.326 105.439 44.0692 106.162 44.0692 107.135V112H41.5962V102.006H43.9273L44.1301 104.074H43.8868C44.0219 103.412 44.3395 102.871 44.8395 102.452C45.3395 102.033 45.9882 101.824 46.7855 101.824C46.9612 101.824 47.1369 101.831 47.3125 101.844C47.4882 101.858 47.6774 101.892 47.8801 101.946ZM52.027 112H49.554V101.986H51.8243L52.1284 103.77L51.8446 103.527C52.0473 103.04 52.4189 102.614 52.9595 102.25C53.5 101.871 54.1757 101.682 54.9865 101.682C55.8649 101.682 56.5811 101.912 57.1352 102.371C57.7028 102.831 58.0947 103.439 58.3109 104.196H57.9055C58.0541 103.439 58.4325 102.831 59.0406 102.371C59.6622 101.912 60.4123 101.682 61.2906 101.682C62.5069 101.682 63.4393 102.027 64.088 102.716C64.7366 103.392 65.061 104.304 65.061 105.452V112H62.6082V106.101C62.6082 105.385 62.4258 104.844 62.0609 104.479C61.7096 104.101 61.2366 103.912 60.642 103.912C60.2636 103.912 59.9122 104 59.5879 104.175C59.2771 104.351 59.0271 104.615 58.8379 104.966C58.6487 105.317 58.5541 105.77 58.5541 106.324V112H56.0811V106.081C56.0811 105.378 55.9054 104.844 55.5541 104.479C55.2027 104.115 54.7365 103.932 54.1554 103.932C53.7635 103.932 53.4054 104.02 53.0811 104.196C52.7567 104.358 52.5 104.621 52.3108 104.986C52.1216 105.338 52.027 105.783 52.027 106.324V112ZM78.6482 112H73.3171V97.182H78.5063C79.9658 97.182 81.2496 97.4996 82.3577 98.1347C83.4659 98.7563 84.3307 99.628 84.9524 100.75C85.5875 101.858 85.9051 103.148 85.9051 104.621C85.9051 106.067 85.5943 107.351 84.9726 108.473C84.3645 109.581 83.5132 110.446 82.4186 111.067C81.3375 111.689 80.0807 112 78.6482 112ZM75.9117 98.378V110.824L74.6752 109.608H78.405C79.3915 109.608 80.2428 109.405 80.9591 109C81.6753 108.594 82.2226 108.02 82.601 107.277C82.9794 106.533 83.1686 105.648 83.1686 104.621C83.1686 103.567 82.9726 102.669 82.5807 101.925C82.1888 101.169 81.628 100.587 80.8983 100.182C80.1685 99.7766 79.2901 99.5739 78.2631 99.5739H74.6752L75.9117 98.378ZM92.4369 112.263C91.4504 112.263 90.5721 112.04 89.8018 111.594C89.045 111.135 88.4504 110.513 88.018 109.729C87.5855 108.932 87.3693 108.02 87.3693 106.993C87.3693 105.952 87.5788 105.033 87.9977 104.236C88.4166 103.439 89.0045 102.817 89.7612 102.371C90.518 101.912 91.3829 101.682 92.3559 101.682C93.3694 101.682 94.241 101.898 94.9708 102.331C95.7005 102.75 96.2613 103.337 96.6532 104.094C97.0586 104.851 97.2613 105.756 97.2613 106.81V107.561L88.6666 107.581L88.7072 106H94.8086C94.8086 105.31 94.5856 104.756 94.1397 104.337C93.7072 103.919 93.1194 103.709 92.3761 103.709C91.795 103.709 91.3018 103.831 90.8964 104.074C90.5045 104.317 90.2072 104.682 90.0045 105.169C89.8018 105.655 89.7004 106.25 89.7004 106.952C89.7004 108.033 89.9302 108.851 90.3896 109.405C90.8626 109.959 91.5586 110.236 92.4775 110.236C93.1532 110.236 93.7072 110.108 94.1397 109.851C94.5856 109.594 94.8762 109.229 95.0113 108.756H97.3019C97.0857 109.851 96.5451 110.709 95.6802 111.331C94.8289 111.952 93.7478 112.263 92.4369 112.263ZM98.1483 101.986H104.473V104.054H98.1483V101.986ZM102.547 112H100.074V98.8645H102.547V112ZM108.951 112.263C107.897 112.263 107.059 111.979 106.437 111.412C105.829 110.831 105.525 110.074 105.525 109.142C105.525 108.223 105.843 107.493 106.478 106.952C107.126 106.398 108.045 106.074 109.235 105.979L112.235 105.736V105.513C112.235 105.054 112.147 104.689 111.971 104.419C111.809 104.135 111.572 103.932 111.262 103.81C110.951 103.675 110.586 103.608 110.167 103.608C109.437 103.608 108.876 103.756 108.485 104.054C108.093 104.337 107.897 104.743 107.897 105.27H105.789C105.789 104.54 105.971 103.912 106.336 103.385C106.714 102.844 107.241 102.425 107.917 102.128C108.606 101.831 109.397 101.682 110.289 101.682C111.194 101.682 111.971 101.844 112.62 102.169C113.268 102.479 113.768 102.952 114.12 103.587C114.471 104.209 114.647 104.986 114.647 105.919V112H112.478L112.295 110.52C112.079 111.034 111.66 111.452 111.039 111.777C110.431 112.101 109.735 112.263 108.951 112.263ZM109.741 110.398C110.512 110.398 111.12 110.182 111.566 109.75C112.025 109.317 112.255 108.716 112.255 107.946V107.419L110.167 107.581C109.397 107.648 108.849 107.811 108.525 108.067C108.201 108.311 108.039 108.635 108.039 109.04C108.039 109.486 108.187 109.824 108.485 110.054C108.782 110.284 109.201 110.398 109.741 110.398ZM117.076 112V101.986H119.549V112H117.076ZM118.292 99.9793C117.874 99.9793 117.515 99.8374 117.218 99.5536C116.934 99.2563 116.792 98.8982 116.792 98.4793C116.792 98.0604 116.934 97.709 117.218 97.4252C117.515 97.1415 117.874 96.9996 118.292 96.9996C118.711 96.9996 119.063 97.1415 119.347 97.4252C119.644 97.709 119.793 98.0604 119.793 98.4793C119.793 98.8982 119.644 99.2563 119.347 99.5536C119.063 99.8374 118.711 99.9793 118.292 99.9793ZM124.598 112H122.145V96.9185H124.598V112ZM126.421 108.959H128.773C128.786 109.392 128.949 109.736 129.259 109.993C129.57 110.25 130.003 110.378 130.557 110.378C131.151 110.378 131.597 110.27 131.894 110.054C132.205 109.838 132.361 109.547 132.361 109.182C132.361 108.939 132.28 108.723 132.117 108.533C131.955 108.344 131.651 108.202 131.205 108.108L129.401 107.682C128.496 107.479 127.82 107.155 127.374 106.709C126.942 106.25 126.726 105.621 126.726 104.824C126.726 104.175 126.894 103.615 127.232 103.142C127.584 102.669 128.057 102.31 128.651 102.067C129.246 101.81 129.928 101.682 130.699 101.682C131.442 101.682 132.097 101.817 132.665 102.087C133.232 102.358 133.672 102.736 133.982 103.223C134.307 103.709 134.476 104.277 134.489 104.925H132.138C132.138 104.493 132.003 104.155 131.732 103.912C131.462 103.655 131.084 103.527 130.597 103.527C130.111 103.527 129.732 103.635 129.462 103.851C129.192 104.067 129.057 104.358 129.057 104.723C129.057 105.277 129.489 105.655 130.354 105.858L132.158 106.283C132.996 106.473 133.624 106.777 134.043 107.196C134.476 107.615 134.692 108.209 134.692 108.979C134.692 109.655 134.516 110.243 134.165 110.743C133.813 111.229 133.32 111.608 132.685 111.878C132.05 112.135 131.32 112.263 130.496 112.263C129.253 112.263 128.259 111.959 127.516 111.351C126.786 110.743 126.421 109.946 126.421 108.959Z" fill="url(#paint5_linear_732_15317)"/>
<rect x="2.10449" y="131.514" width="454" height="83" rx="10.1353" fill="#1C1A1F"/>
<g clip-path="url(#clip1_732_15317)">
<path d="M26.9291 151.121C28.6571 151.121 30.3464 151.633 31.7833 152.593C33.2201 153.553 34.3401 154.918 35.0014 156.514C35.6627 158.111 35.8358 159.867 35.4987 161.562C35.1616 163.257 34.3295 164.814 33.1076 166.036C31.8856 167.258 30.3288 168.09 28.634 168.427C26.9391 168.764 25.1824 168.591 23.5859 167.93C21.9894 167.268 20.6249 166.148 19.6649 164.712C18.7049 163.275 18.1925 161.585 18.1926 159.857C18.1926 158.71 18.4186 157.574 18.8577 156.514C19.2967 155.454 19.9402 154.491 20.7515 153.68C21.5627 152.868 22.5258 152.225 23.5858 151.786C24.6458 151.347 25.7818 151.121 26.9291 151.121ZM24.0787 159.857C24.0787 164.08 26.9291 167.502 26.9291 167.502C26.9291 167.502 29.7795 164.08 29.7795 159.857C29.7795 155.635 26.9291 152.213 26.9291 152.213C26.9291 152.213 24.0787 155.636 24.0787 159.857Z" fill="#4FFFB0"/>
</g>
<path d="M43.5001 164.987H47.5002C49.5407 164.987 50.7164 164 50.7164 162.311C50.7164 161.162 50.1894 160.379 49.1488 160.041C50.0813 159.649 50.5678 158.865 50.5678 157.771C50.5678 156.122 49.3786 155.108 47.4326 155.108H43.5001V164.987ZM47.284 156.635C48.2569 156.635 48.7975 157.095 48.7975 157.946C48.7975 158.825 48.2705 159.325 47.3245 159.325H45.2299V156.635H47.284ZM47.4326 160.784C48.3921 160.784 48.9461 161.257 48.9461 162.095C48.9461 162.987 48.4056 163.46 47.4326 163.46H45.2299V160.784H47.4326ZM51.7349 157.865C51.7349 159.379 52.6133 160.338 54.289 160.703L55.8566 161.054C56.6674 161.23 57.0053 161.622 57.0053 162.284C57.0053 163.108 56.2755 163.608 55.1269 163.608C54.0187 163.608 53.3431 163.108 53.3295 162.271H51.5998C51.6403 164.041 53.0187 165.162 55.1269 165.162C57.3026 165.162 58.735 163.973 58.735 162.135C58.735 160.662 57.9107 159.798 56.2215 159.433L54.6674 159.095C53.8431 158.906 53.4647 158.514 53.4647 157.811C53.4647 156.987 54.1539 156.473 55.2215 156.473C56.1944 156.473 56.8026 156.973 56.8431 157.825H58.5728C58.5188 156.041 57.2485 154.933 55.2485 154.933C53.1674 154.933 51.7349 156.135 51.7349 157.865ZM62.7864 160.054L59.435 164.987H61.462L63.8675 161.379C64.2594 162.095 64.6107 162.689 65.0432 163.352L66.1513 164.987H68.1919L64.9486 160.041L68.1783 155.108H66.1648L63.8675 158.73C63.5026 158.054 63.1648 157.487 62.7593 156.879L61.5566 155.108H59.5025L62.7864 160.054Z" fill="#E5ECF1"/>
<path d="M21.7466 192.102C20.9019 192.102 20.1587 191.933 19.5168 191.595C18.8862 191.257 18.3963 190.784 18.0472 190.176C17.7093 189.557 17.5404 188.836 17.5404 188.014H19.4154C19.4154 188.757 19.6238 189.343 20.0405 189.771C20.4684 190.187 21.0483 190.396 21.7803 190.396C22.2984 190.396 22.7432 190.289 23.1148 190.075C23.4977 189.861 23.7961 189.562 24.0101 189.179C24.2241 188.785 24.331 188.323 24.331 187.794C24.331 187.287 24.2297 186.843 24.027 186.46C23.8243 186.077 23.5371 185.778 23.1655 185.564C22.7939 185.339 22.3378 185.227 21.7972 185.227C21.313 185.227 20.8569 185.334 20.429 185.547C20.001 185.761 19.6632 186.037 19.4154 186.375L17.76 185.987L19.2634 179.618H25.5304V181.375H20.0742L20.8175 180.699L19.7533 184.939L19.1114 185.142C19.4042 184.647 19.8209 184.269 20.3614 184.01C20.9019 183.74 21.5101 183.605 22.1857 183.605C23.0078 183.605 23.7229 183.779 24.331 184.129C24.9504 184.478 25.429 184.962 25.7669 185.581C26.1047 186.201 26.2736 186.91 26.2736 187.71C26.2736 188.577 26.0822 189.343 25.6993 190.007C25.3164 190.66 24.7871 191.173 24.1114 191.544C23.4358 191.916 22.6475 192.102 21.7466 192.102ZM32.4762 188.216V186.595H37.7803V188.216H32.4762ZM46.6311 181.324H43.996V179.618H48.4724V191.899H46.6311V181.324ZM50.6322 185.784C50.6322 184.5 50.8405 183.385 51.2572 182.439C51.6851 181.482 52.282 180.733 53.0478 180.193C53.8135 179.652 54.7201 179.382 55.7674 179.382C56.8034 179.382 57.7044 179.652 58.4701 180.193C59.2359 180.733 59.8271 181.482 60.2438 182.439C60.6717 183.385 60.8857 184.5 60.8857 185.784C60.8857 187.045 60.6774 188.155 60.2607 189.112C59.8553 190.058 59.2697 190.795 58.5039 191.325C57.7494 191.854 56.8372 192.119 55.7674 192.119C54.6976 192.119 53.7798 191.854 53.014 191.325C52.2482 190.795 51.657 190.058 51.2403 189.112C50.8349 188.155 50.6322 187.045 50.6322 185.784ZM52.5241 185.784C52.5241 186.752 52.648 187.586 52.8957 188.284C53.1547 188.982 53.5264 189.517 54.0106 189.889C54.4949 190.249 55.0804 190.429 55.7674 190.429C56.4543 190.429 57.0343 190.249 57.5073 189.889C57.9915 189.517 58.3575 188.982 58.6053 188.284C58.8643 187.586 58.9938 186.752 58.9938 185.784C58.9938 184.782 58.8643 183.931 58.6053 183.233C58.3575 182.535 57.9915 182.006 57.5073 181.645C57.0343 181.274 56.4543 181.088 55.7674 181.088C55.0804 181.088 54.4949 181.274 54.0106 181.645C53.5264 182.006 53.1547 182.535 52.8957 183.233C52.648 183.931 52.5241 184.782 52.5241 185.784ZM68.6091 182.558C68.6091 183.177 68.474 183.729 68.2037 184.213C67.9334 184.697 67.5618 185.075 67.0888 185.345C66.6158 185.615 66.0753 185.75 65.4672 185.75C64.859 185.75 64.3129 185.615 63.8286 185.345C63.3556 185.075 62.984 184.697 62.7137 184.213C62.4435 183.729 62.3083 183.177 62.3083 182.558C62.3083 181.938 62.4435 181.392 62.7137 180.919C62.984 180.435 63.3556 180.058 63.8286 179.787C64.3129 179.517 64.859 179.382 65.4672 179.382C66.0753 179.382 66.6158 179.517 67.0888 179.787C67.5618 180.058 67.9334 180.435 68.2037 180.919C68.474 181.392 68.6091 181.938 68.6091 182.558ZM67.1395 182.558C67.1395 182.04 66.9818 181.623 66.6665 181.308C66.3624 180.981 65.9627 180.818 65.4672 180.818C64.9717 180.818 64.5662 180.981 64.2509 181.308C63.9356 181.623 63.7779 182.04 63.7779 182.558C63.7779 183.076 63.9356 183.498 64.2509 183.824C64.5662 184.151 64.9717 184.314 65.4672 184.314C65.9627 184.314 66.3624 184.151 66.6665 183.824C66.9818 183.498 67.1395 183.076 67.1395 182.558ZM75.2139 179.635L65.8895 191.899H64.0651L73.3727 179.635H75.2139ZM77.0045 188.943C77.0045 189.562 76.8693 190.114 76.5991 190.598C76.3288 191.071 75.9572 191.443 75.4842 191.713C75.0112 191.983 74.465 192.119 73.8456 192.119C73.2375 192.119 72.6914 191.983 72.2071 191.713C71.7341 191.443 71.3625 191.071 71.0922 190.598C70.822 190.114 70.6868 189.562 70.6868 188.943C70.6868 188.323 70.822 187.777 71.0922 187.304C71.3625 186.82 71.7341 186.443 72.2071 186.173C72.6914 185.902 73.2375 185.767 73.8456 185.767C74.465 185.767 75.0112 185.902 75.4842 186.173C75.9572 186.443 76.3288 186.82 76.5991 187.304C76.8693 187.777 77.0045 188.323 77.0045 188.943ZM75.518 188.943C75.518 188.425 75.3603 188.002 75.045 187.676C74.7409 187.349 74.3411 187.186 73.8456 187.186C73.3501 187.186 72.9447 187.349 72.6294 187.676C72.3254 188.002 72.1733 188.425 72.1733 188.943C72.1733 189.45 72.3254 189.872 72.6294 190.21C72.9447 190.536 73.3501 190.7 73.8456 190.7C74.3411 190.7 74.7409 190.536 75.045 190.21C75.3603 189.872 75.518 189.45 75.518 188.943ZM84.4163 191.899H82.4399L86.8825 179.618H88.9265L93.386 191.899H91.3758L90.3285 188.96H85.4636L84.4163 191.899ZM87.6596 182.777L86.021 187.321H89.7711L88.1325 182.777C88.0875 182.631 88.0368 182.484 87.9805 182.338C87.9355 182.18 87.9073 182.051 87.8961 181.949C87.8735 182.051 87.8397 182.18 87.7947 182.338C87.7609 182.484 87.7159 182.631 87.6596 182.777ZM96.8974 179.618V191.899H94.9886V179.618H96.8974ZM99.8029 187.591H96.4413V185.885H99.3975C100.175 185.885 100.766 185.683 101.171 185.277C101.588 184.861 101.796 184.292 101.796 183.571C101.796 182.85 101.588 182.299 101.171 181.916C100.766 181.522 100.186 181.324 99.4312 181.324H96.1542V179.618H99.8029C100.614 179.618 101.318 179.787 101.914 180.125C102.511 180.452 102.973 180.913 103.3 181.51C103.637 182.107 103.806 182.8 103.806 183.588C103.806 184.365 103.637 185.058 103.3 185.666C102.973 186.263 102.511 186.736 101.914 187.085C101.318 187.423 100.614 187.591 99.8029 187.591ZM107.57 191.899H105.662V179.618H110.307C111.67 179.618 112.728 179.951 113.483 180.615C114.248 181.279 114.631 182.197 114.631 183.368C114.631 184.213 114.434 184.928 114.04 185.514C113.646 186.088 113.077 186.516 112.334 186.798L114.733 191.899H112.638L110.442 187.169H107.57V191.899ZM107.57 181.324V185.48H110.324C111.045 185.48 111.608 185.294 112.013 184.922C112.419 184.551 112.621 184.038 112.621 183.385C112.621 182.721 112.419 182.214 112.013 181.865C111.608 181.505 111.039 181.324 110.307 181.324H107.57Z" fill="#B8FFDF"/>
<line x1="150.832" y1="151.152" x2="219.373" y2="151.152" stroke="#29292D" stroke-width="5.91224" stroke-linecap="round"/>
<line x1="150.832" y1="151.152" x2="169.971" y2="151.152" stroke="#49E49F" stroke-width="2.53382" stroke-linecap="round"/>
<rect opacity="0.5" x="232.465" y="148.764" width="183.411" height="5" rx="2.5" fill="#DAFFEE" fill-opacity="0.06"/>
<line x1="147.876" y1="165.787" x2="415.876" y2="165.787" stroke="white" stroke-opacity="0.06" stroke-width="0.844605"/>
<line x1="149.143" y1="177.888" x2="217.684" y2="177.888" stroke="#29292D" stroke-width="5.91224" stroke-linecap="round"/>
<line x1="149.143" y1="177.889" x2="182.394" y2="177.889" stroke="url(#paint6_linear_732_15317)" stroke-width="2.53382" stroke-linecap="round"/>
<rect opacity="0.5" x="232.465" y="175.656" width="183.411" height="5" rx="2.5" fill="#DAFFEE" fill-opacity="0.06"/>
<rect opacity="0.5" x="147.876" y="192.102" width="95.8514" height="5" rx="2.5" fill="#DAFFEE" fill-opacity="0.06"/>
<g opacity="0.5">
<path d="M433.352 176.31L435.886 172.931L433.352 169.553" stroke="#BDCCD4" stroke-width="1.68921" stroke-linecap="round" stroke-linejoin="round"/>
</g>
<path d="M22.2913 412.562H19.151V410.531L22.2913 409.049V407.852L18.9424 409.466C18.624 408.478 17.8334 407.929 16.7354 407.929C15.2532 407.929 14.3528 408.939 14.3528 410.641V413.638H22.2913V412.562ZM15.319 412.562V410.641C15.319 409.653 15.8241 409.06 16.7464 409.06C17.6578 409.06 18.1958 409.631 18.1958 410.63V412.562H15.319ZM22.423 404.277C22.423 402.948 21.7752 402.048 20.6223 401.784V402.751C21.2372 402.926 21.5666 403.453 21.5666 404.255C21.5666 405.276 20.9407 405.869 19.8098 405.946L19.7988 401.795H19.4145C17.8225 401.795 16.7684 402.794 16.7684 404.321C16.7684 405.88 17.9323 406.945 19.6122 406.945C21.2811 406.945 22.423 405.858 22.423 404.277ZM17.6358 404.321C17.6358 403.409 18.2287 402.827 19.1181 402.827V405.924C18.1738 405.792 17.6358 405.221 17.6358 404.321ZM22.2913 399.25V398.228L19.4255 397.295C18.7777 397.098 18.4263 396.999 18.1628 396.944C18.4593 396.889 18.8765 396.779 19.4145 396.603L22.2913 395.67V394.693L16.9221 392.859V393.935L19.711 394.836C20.1831 394.989 20.5564 395.088 20.9847 395.176C20.6004 395.264 19.9745 395.44 19.711 395.527L16.9221 396.417V397.471L19.711 398.371C20.0623 398.492 20.5125 398.635 20.9847 398.723C20.5125 398.821 20.1063 398.931 19.711 399.052L16.9221 399.941V401.006L22.2913 399.25ZM22.423 390.229C22.423 389.361 22.0387 388.626 21.4238 388.351L22.2913 388.241V387.363H18.9204C17.4711 387.363 16.7684 388.263 16.7684 389.592C16.7684 390.975 17.504 391.898 18.624 391.898V390.997C17.9762 390.997 17.5919 390.503 17.5919 389.636C17.5919 388.911 17.9103 388.373 18.8106 388.373H18.9644L19.0961 390.064C19.1949 391.327 19.8098 392.062 20.798 392.062C21.7752 392.062 22.423 391.382 22.423 390.229ZM21.6215 389.932C21.6215 390.602 21.336 391.019 20.7651 391.019C20.238 391.019 19.8867 390.646 19.7988 389.735L19.689 388.362H19.9745C20.9847 388.362 21.6215 388.955 21.6215 389.932ZM16.8782 382.437C16.8343 382.646 16.8123 382.799 16.8123 382.986C16.8123 383.722 17.1856 384.26 17.7456 384.479L16.9331 384.545V385.511H22.2913V384.479H19.4475C18.4154 384.479 17.8225 383.875 17.8225 382.898V382.437H16.8782ZM22.423 379.088C22.423 378.231 22.0497 377.507 21.3141 377.155L22.2913 377.067V376.145H14.2101V377.166H17.7895C17.1307 377.528 16.7684 378.22 16.7684 379.044C16.7684 380.636 17.9762 381.591 19.6232 381.591C21.2592 381.591 22.423 380.647 22.423 379.088ZM21.4897 378.879C21.4897 379.933 20.6992 380.548 19.5902 380.548C18.4922 380.548 17.7017 379.933 17.7017 378.879C17.7017 377.825 18.4922 377.177 19.5902 377.177C20.7102 377.177 21.4897 377.825 21.4897 378.879ZM20.7321 374.673C21.7532 374.673 22.423 373.871 22.423 372.609C22.423 371.335 21.7752 370.457 20.7541 370.457C19.9525 370.457 19.5353 370.907 19.3157 371.818L19.0851 372.762C18.9534 373.289 18.7118 373.553 18.3495 373.553C17.8554 373.553 17.5699 373.191 17.5699 372.543C17.5699 371.917 17.9103 371.555 18.4483 371.533L18.4483 370.545C17.4272 370.566 16.7684 371.335 16.7684 372.51C16.7684 373.696 17.3942 374.53 18.3824 374.53C19.173 374.53 19.6451 374.08 19.8757 373.125L20.0953 372.181C20.238 371.621 20.4576 371.445 20.82 371.445C21.3141 371.445 21.6105 371.862 21.6105 372.587C21.6105 373.268 21.2811 373.685 20.7321 373.685V374.673ZM22.2913 364.96L20.3149 364.257V360.92L22.2913 360.206V359.075L14.3528 361.985V363.181L22.2913 366.08V364.96ZM16.0657 362.72C15.901 362.665 15.7143 362.61 15.6045 362.588C15.7253 362.567 15.912 362.512 16.0657 362.457L19.3816 361.238V363.928L16.0657 362.72ZM19.4585 354.512C19.4585 352.964 18.3824 351.954 16.9001 351.954C15.3739 351.954 14.3528 352.953 14.3528 354.512V357.597H22.2913V356.521H19.4585V354.512ZM15.319 354.699C15.319 353.689 15.89 353.085 16.8892 353.085C17.8664 353.085 18.4922 353.678 18.4922 354.743V356.521H15.319V354.699ZM22.2913 349.237H19.151V347.205L22.2913 345.723V344.526L18.9424 346.14C18.624 345.152 17.8334 344.603 16.7354 344.603C15.2532 344.603 14.3528 345.613 14.3528 347.315V350.313H22.2913V349.237ZM15.319 349.237V347.315C15.319 346.327 15.8241 345.734 16.7464 345.734C17.6578 345.734 18.1958 346.305 18.1958 347.304V349.237H15.319ZM16.2304 335.735C15.0445 335.735 14.1991 336.57 14.1991 337.744C14.1991 338.908 15.0445 339.743 16.2304 339.743C17.4052 339.743 18.2507 338.908 18.2507 337.744C18.2507 336.57 17.4052 335.735 16.2304 335.735ZM14.3638 331.552V332.606L22.2913 338.634V337.58L14.3638 331.552ZM16.2304 336.581C16.9331 336.581 17.4272 337.064 17.4272 337.744C17.4272 338.425 16.9331 338.897 16.2304 338.897C15.5167 338.897 15.0226 338.425 15.0226 337.744C15.0226 337.053 15.5167 336.581 16.2304 336.581ZM20.4137 330.421C19.2279 330.421 18.3934 331.266 18.3934 332.43C18.3934 333.594 19.2279 334.439 20.4137 334.439C21.5885 334.439 22.434 333.594 22.434 332.43C22.434 331.266 21.5885 330.421 20.4137 330.421ZM20.4137 331.277C21.1164 331.277 21.6105 331.749 21.6105 332.43C21.6105 333.111 21.1164 333.583 20.4137 333.583C19.7 333.583 19.2059 333.111 19.2059 332.43C19.2059 331.738 19.7 331.277 20.4137 331.277Z" fill="#F0DA73"/>
<rect x="80.2988" y="288.271" width="0.844605" height="149.495" fill="white" fill-opacity="0.12"/>
<rect x="149.379" y="288.271" width="0.844605" height="149.495" fill="white" fill-opacity="0.12"/>
<rect x="218.46" y="288.271" width="0.844605" height="149.495" fill="white" fill-opacity="0.12"/>
<rect x="287.541" y="288.271" width="0.844605" height="149.495" fill="white" fill-opacity="0.12"/>
<rect x="356.622" y="288.271" width="0.844605" height="149.495" fill="white" fill-opacity="0.12"/>
<rect x="425.702" y="288.271" width="0.844605" height="149.495" fill="white" fill-opacity="0.12"/>
<rect x="65.9404" y="399.548" width="0.844605" height="384.255" transform="rotate(-90 65.9404 399.548)" fill="white" fill-opacity="0.12"/>
<rect x="65.9404" y="364.075" width="0.844605" height="384.255" transform="rotate(-90 65.9404 364.075)" fill="white" fill-opacity="0.12"/>
<rect x="65.9404" y="328.602" width="0.844605" height="384.255" transform="rotate(-90 65.9404 328.602)" fill="white" fill-opacity="0.12"/>
<path d="M77.4579 453.531C77.4579 456.002 78.6767 457.638 80.7299 457.638C82.7722 457.638 83.991 456.002 83.991 453.531C83.991 451.072 82.7173 449.403 80.7299 449.403C78.7316 449.403 77.4579 451.072 77.4579 453.531ZM78.523 453.531C78.523 451.555 79.3355 450.369 80.7299 450.369C82.1244 450.369 82.9259 451.555 82.9259 453.531C82.9259 455.486 82.1244 456.671 80.7299 456.671C79.3355 456.671 78.523 455.486 78.523 453.531Z" fill="white"/>
<path d="M143.891 457.484V456.485H140.224L141.871 455.057C143.276 453.839 143.836 453.037 143.836 451.906C143.836 450.38 142.815 449.414 141.223 449.414C139.609 449.414 138.533 450.523 138.5 452.225H139.576C139.598 451.094 140.235 450.38 141.212 450.38C142.167 450.38 142.738 450.973 142.738 451.972C142.738 452.817 142.376 453.355 141.091 454.464L138.533 456.671V457.495L143.891 457.484ZM145.303 453.531C145.303 456.002 146.522 457.638 148.575 457.638C150.618 457.638 151.836 456.002 151.836 453.531C151.836 451.072 150.563 449.403 148.575 449.403C146.577 449.403 145.303 451.072 145.303 453.531ZM146.369 453.531C146.369 451.555 147.181 450.369 148.575 450.369C149.97 450.369 150.771 451.555 150.771 453.531C150.771 455.486 149.97 456.671 148.575 456.671C147.181 456.671 146.369 455.486 146.369 453.531Z" fill="white"/>
<path d="M212.591 455.892V454.937H211.647V449.556H210.253L206.509 454.937V455.892H210.615V457.495H211.647V455.892H212.591ZM207.672 454.937L210.615 450.698V454.937H207.672ZM214.076 453.531C214.076 456.002 215.295 457.638 217.348 457.638C219.39 457.638 220.609 456.002 220.609 453.531C220.609 451.072 219.335 449.403 217.348 449.403C215.35 449.403 214.076 451.072 214.076 453.531ZM215.141 453.531C215.141 451.555 215.953 450.369 217.348 450.369C218.742 450.369 219.544 451.555 219.544 453.531C219.544 455.486 218.742 456.671 217.348 456.671C215.953 456.671 215.141 455.486 215.141 453.531Z" fill="white"/>
<path d="M276.791 452.071C275.979 453.18 275.693 453.839 275.693 454.783C275.693 456.386 276.967 457.627 278.614 457.627C280.25 457.627 281.502 456.441 281.502 454.783C281.502 453.213 280.393 452.027 278.746 452.027C278.471 452.027 278.186 452.082 277.911 452.192L279.899 449.556H278.647L276.791 452.071ZM276.791 454.794C276.791 453.707 277.538 452.938 278.614 452.938C279.668 452.938 280.415 453.707 280.415 454.794C280.415 455.881 279.668 456.66 278.614 456.66C277.538 456.66 276.791 455.881 276.791 454.794ZM282.916 453.531C282.916 456.002 284.135 457.638 286.188 457.638C288.23 457.638 289.449 456.002 289.449 453.531C289.449 451.072 288.175 449.403 286.188 449.403C284.189 449.403 282.916 451.072 282.916 453.531ZM283.981 453.531C283.981 451.555 284.793 450.369 286.188 450.369C287.582 450.369 288.384 451.555 288.384 453.531C288.384 455.486 287.582 456.671 286.188 456.671C284.793 456.671 283.981 455.486 283.981 453.531Z" fill="white"/>
<path d="M343.867 455.288C343.867 456.693 345.02 457.627 346.788 457.627C348.544 457.627 349.708 456.693 349.708 455.299C349.708 454.322 349.137 453.531 348.248 453.246C348.994 452.949 349.412 452.323 349.412 451.511C349.412 450.259 348.358 449.414 346.799 449.414C345.217 449.414 344.152 450.259 344.152 451.5C344.152 452.301 344.559 452.927 345.305 453.246C344.427 453.564 343.867 454.333 343.867 455.288ZM345.141 451.566C345.141 450.83 345.788 450.347 346.777 450.347C347.776 450.347 348.402 450.83 348.402 451.588C348.402 452.356 347.776 452.85 346.777 452.85C345.788 452.85 345.141 452.345 345.141 451.566ZM344.921 455.211C344.921 454.333 345.646 453.773 346.777 453.773C347.918 453.773 348.643 454.333 348.643 455.211C348.643 456.1 347.907 456.671 346.788 456.671C345.657 456.671 344.921 456.1 344.921 455.211ZM351.174 453.531C351.174 456.002 352.392 457.638 354.446 457.638C356.488 457.638 357.707 456.002 357.707 453.531C357.707 451.072 356.433 449.403 354.446 449.403C352.447 449.403 351.174 451.072 351.174 453.531ZM352.239 453.531C352.239 451.555 353.051 450.369 354.446 450.369C355.84 450.369 356.642 451.555 356.642 453.531C356.642 455.486 355.84 456.671 354.446 456.671C353.051 456.671 352.239 455.486 352.239 453.531Z" fill="white"/>
<path d="M413.512 450.523V457.495H414.544V449.556H411.843V450.523H413.512ZM416.418 453.531C416.418 456.002 417.637 457.638 419.69 457.638C421.733 457.638 422.951 456.002 422.951 453.531C422.951 451.072 421.678 449.403 419.69 449.403C417.692 449.403 416.418 451.072 416.418 453.531ZM417.483 453.531C417.483 451.555 418.296 450.369 419.69 450.369C421.085 450.369 421.886 451.555 421.886 453.531C421.886 455.486 421.085 456.671 419.69 456.671C418.296 456.671 417.483 455.486 417.483 453.531ZM424.454 453.531C424.454 456.002 425.672 457.638 427.726 457.638C429.768 457.638 430.987 456.002 430.987 453.531C430.987 451.072 429.713 449.403 427.726 449.403C425.727 449.403 424.454 451.072 424.454 453.531ZM425.519 453.531C425.519 451.555 426.331 450.369 427.726 450.369C429.12 450.369 429.922 451.555 429.922 453.531C429.922 455.486 429.12 456.671 427.726 456.671C426.331 456.671 425.519 455.486 425.519 453.531Z" fill="white"/>
<path d="M256.99 474.51C259.34 474.51 260.921 472.906 260.921 470.546C260.921 468.174 259.318 466.571 256.946 466.571H254.366V474.51H256.99ZM256.869 467.559C258.681 467.559 259.801 468.701 259.801 470.546C259.801 472.368 258.681 473.51 256.913 473.51H255.442V467.559H256.869ZM264.106 474.641C264.974 474.641 265.709 474.257 265.984 473.642L266.094 474.51H266.972V471.139C266.972 469.689 266.072 468.987 264.743 468.987C263.36 468.987 262.437 469.722 262.437 470.842H263.338C263.338 470.194 263.832 469.81 264.699 469.81C265.424 469.81 265.962 470.129 265.962 471.029V471.183L264.271 471.314C263.008 471.413 262.273 472.028 262.273 473.016C262.273 473.993 262.953 474.641 264.106 474.641ZM264.403 473.84C263.733 473.84 263.316 473.554 263.316 472.983C263.316 472.456 263.689 472.105 264.6 472.017L265.973 471.907V472.193C265.973 473.203 265.38 473.84 264.403 473.84ZM268.179 476.914C268.454 476.98 268.739 477.024 269.079 477.024C269.903 477.024 270.441 476.64 270.803 475.717L273.34 469.14H272.275L270.682 473.466L269.123 469.14H268.036L270.199 474.795L270.013 475.311C269.76 475.992 269.365 476.069 268.871 476.069H268.179V476.914ZM274.072 472.95C274.072 473.972 274.873 474.641 276.136 474.641C277.41 474.641 278.288 473.993 278.288 472.972C278.288 472.171 277.838 471.754 276.926 471.534L275.982 471.303C275.455 471.172 275.192 470.93 275.192 470.568C275.192 470.074 275.554 469.788 276.202 469.788C276.828 469.788 277.19 470.129 277.212 470.667H278.2C278.178 469.645 277.41 468.987 276.235 468.987C275.049 468.987 274.214 469.612 274.214 470.601C274.214 471.391 274.665 471.863 275.62 472.094L276.564 472.314C277.124 472.456 277.3 472.676 277.3 473.038C277.3 473.532 276.882 473.829 276.158 473.829C275.477 473.829 275.06 473.499 275.06 472.95H274.072Z" fill="#F0DA73"/>
<path d="M30.8859 295.316C30.8859 296.722 32.0388 297.655 33.8066 297.655C35.5634 297.655 36.7272 296.722 36.7272 295.327C36.7272 294.35 36.1563 293.559 35.2669 293.274C36.0135 292.978 36.4308 292.352 36.4308 291.539C36.4308 290.287 35.3767 289.442 33.8176 289.442C32.2365 289.442 31.1714 290.287 31.1714 291.528C31.1714 292.33 31.5777 292.956 32.3243 293.274C31.4459 293.592 30.8859 294.361 30.8859 295.316ZM32.1596 291.594C32.1596 290.858 32.8074 290.375 33.7956 290.375C34.7948 290.375 35.4206 290.858 35.4206 291.616C35.4206 292.385 34.7948 292.879 33.7956 292.879C32.8074 292.879 32.1596 292.374 32.1596 291.594ZM31.94 295.239C31.94 294.361 32.6647 293.801 33.7956 293.801C34.9375 293.801 35.6622 294.361 35.6622 295.239C35.6622 296.129 34.9265 296.7 33.8066 296.7C32.6756 296.7 31.94 296.129 31.94 295.239ZM38.1926 293.559C38.1926 296.03 39.4114 297.666 41.4646 297.666C43.5069 297.666 44.7256 296.03 44.7256 293.559C44.7256 291.1 43.452 289.431 41.4646 289.431C39.4663 289.431 38.1926 291.1 38.1926 293.559ZM39.2577 293.559C39.2577 291.583 40.0702 290.397 41.4646 290.397C42.8591 290.397 43.6606 291.583 43.6606 293.559C43.6606 295.514 42.8591 296.7 41.4646 296.7C40.0702 296.7 39.2577 295.514 39.2577 293.559ZM50.1587 291.462C50.1587 290.276 49.3242 289.431 48.1494 289.431C46.9855 289.431 46.151 290.276 46.151 291.462C46.151 292.637 46.9855 293.483 48.1494 293.483C49.3242 293.483 50.1587 292.637 50.1587 291.462ZM54.342 289.596H53.288L47.26 297.523H48.3141L54.342 289.596ZM49.3133 291.462C49.3133 292.165 48.8301 292.659 48.1494 292.659C47.4686 292.659 46.9965 292.165 46.9965 291.462C46.9965 290.749 47.4686 290.255 48.1494 290.255C48.8411 290.255 49.3133 290.749 49.3133 291.462ZM55.473 295.646C55.473 294.46 54.6275 293.625 53.4636 293.625C52.2998 293.625 51.4543 294.46 51.4543 295.646C51.4543 296.82 52.2998 297.666 53.4636 297.666C54.6275 297.666 55.473 296.82 55.473 295.646ZM54.6165 295.646C54.6165 296.348 54.1444 296.842 53.4636 296.842C52.7829 296.842 52.3108 296.348 52.3108 295.646C52.3108 294.932 52.7829 294.438 53.4636 294.438C54.1554 294.438 54.6165 294.932 54.6165 295.646Z" fill="white"/>
<path d="M31.918 327.891C31.1055 329 30.82 329.659 30.82 330.603C30.82 332.206 32.0937 333.447 33.7407 333.447C35.3767 333.447 36.6284 332.261 36.6284 330.603C36.6284 329.033 35.5194 327.847 33.8725 327.847C33.598 327.847 33.3125 327.902 33.038 328.012L35.0253 325.376H33.7736L31.918 327.891ZM31.918 330.614C31.918 329.527 32.6647 328.758 33.7407 328.758C34.7948 328.758 35.5414 329.527 35.5414 330.614C35.5414 331.701 34.7948 332.48 33.7407 332.48C32.6647 332.48 31.918 331.701 31.918 330.614ZM38.0425 329.351C38.0425 331.822 39.2613 333.458 41.3145 333.458C43.3568 333.458 44.5755 331.822 44.5755 329.351C44.5755 326.892 43.3019 325.223 41.3145 325.223C39.3162 325.223 38.0425 326.892 38.0425 329.351ZM39.1075 329.351C39.1075 327.375 39.9201 326.189 41.3145 326.189C42.7089 326.189 43.5105 327.375 43.5105 329.351C43.5105 331.306 42.7089 332.491 41.3145 332.491C39.9201 332.491 39.1075 331.306 39.1075 329.351ZM50.0086 327.254C50.0086 326.068 49.1741 325.223 47.9993 325.223C46.8354 325.223 46.0009 326.068 46.0009 327.254C46.0009 328.429 46.8354 329.274 47.9993 329.274C49.1741 329.274 50.0086 328.429 50.0086 327.254ZM54.1919 325.387H53.1378L47.1099 333.315H48.164L54.1919 325.387ZM49.1631 327.254C49.1631 327.957 48.68 328.451 47.9993 328.451C47.3185 328.451 46.8464 327.957 46.8464 327.254C46.8464 326.54 47.3185 326.046 47.9993 326.046C48.691 326.046 49.1631 326.54 49.1631 327.254ZM55.3228 331.437C55.3228 330.252 54.4774 329.417 53.3135 329.417C52.1497 329.417 51.3042 330.252 51.3042 331.437C51.3042 332.612 52.1497 333.458 53.3135 333.458C54.4774 333.458 55.3228 332.612 55.3228 331.437ZM54.4664 331.437C54.4664 332.14 53.9943 332.634 53.3135 332.634C52.6328 332.634 52.1606 332.14 52.1606 331.437C52.1606 330.724 52.6328 330.23 53.3135 330.23C54.0053 330.23 54.4664 330.724 54.4664 331.437Z" fill="white"/>
<path d="M36.826 367.504V366.549H35.8818V361.168H34.4873L30.7432 366.549V367.504H34.8497V369.107H35.8818V367.504H36.826ZM31.9071 366.549L34.8497 362.31V366.549H31.9071ZM38.3106 365.143C38.3106 367.614 39.5293 369.25 41.5826 369.25C43.6248 369.25 44.8436 367.614 44.8436 365.143C44.8436 362.684 43.5699 361.015 41.5826 361.015C39.5842 361.015 38.3106 362.684 38.3106 365.143ZM39.3756 365.143C39.3756 363.167 40.1881 361.981 41.5826 361.981C42.977 361.981 43.7785 363.167 43.7785 365.143C43.7785 367.098 42.977 368.283 41.5826 368.283C40.1881 368.283 39.3756 367.098 39.3756 365.143ZM50.2766 363.046C50.2766 361.86 49.4422 361.015 48.2673 361.015C47.1035 361.015 46.269 361.86 46.269 363.046C46.269 364.221 47.1035 365.066 48.2673 365.066C49.4422 365.066 50.2766 364.221 50.2766 363.046ZM54.46 361.179H53.4059L47.378 369.107H48.432L54.46 361.179ZM49.4312 363.046C49.4312 363.749 48.9481 364.243 48.2673 364.243C47.5866 364.243 47.1144 363.749 47.1144 363.046C47.1144 362.332 47.5866 361.838 48.2673 361.838C48.9591 361.838 49.4312 362.332 49.4312 363.046ZM55.5909 367.229C55.5909 366.044 54.7455 365.209 53.5816 365.209C52.4177 365.209 51.5723 366.044 51.5723 367.229C51.5723 368.404 52.4177 369.25 53.5816 369.25C54.7455 369.25 55.5909 368.404 55.5909 367.229ZM54.7345 367.229C54.7345 367.932 54.2623 368.426 53.5816 368.426C52.9008 368.426 52.4287 367.932 52.4287 367.229C52.4287 366.516 52.9008 366.022 53.5816 366.022C54.2733 366.022 54.7345 366.516 54.7345 367.229Z" fill="white"/>
<path d="M36.2331 404.888V403.889H32.5658L34.2128 402.461C35.6183 401.242 36.1782 400.441 36.1782 399.31C36.1782 397.784 35.1571 396.817 33.565 396.817C31.951 396.817 30.8749 397.926 30.842 399.628H31.918C31.94 398.497 32.5768 397.784 33.554 397.784C34.5093 397.784 35.0802 398.377 35.0802 399.376C35.0802 400.221 34.7179 400.759 33.4333 401.868L30.8749 404.075V404.899L36.2331 404.888ZM37.6458 400.935C37.6458 403.405 38.8645 405.041 40.9178 405.041C42.96 405.041 44.1788 403.405 44.1788 400.935C44.1788 398.475 42.9051 396.807 40.9178 396.807C38.9194 396.807 37.6458 398.475 37.6458 400.935ZM38.7108 400.935C38.7108 398.959 39.5233 397.773 40.9178 397.773C42.3122 397.773 43.1137 398.959 43.1137 400.935C43.1137 402.889 42.3122 404.075 40.9178 404.075C39.5233 404.075 38.7108 402.889 38.7108 400.935ZM49.6119 398.838C49.6119 397.652 48.7774 396.807 47.6025 396.807C46.4387 396.807 45.6042 397.652 45.6042 398.838C45.6042 400.013 46.4387 400.858 47.6025 400.858C48.7774 400.858 49.6119 400.013 49.6119 398.838ZM53.7952 396.971H52.7411L46.7132 404.899H47.7672L53.7952 396.971ZM48.7664 398.838C48.7664 399.541 48.2833 400.035 47.6025 400.035C46.9218 400.035 46.4497 399.541 46.4497 398.838C46.4497 398.124 46.9218 397.63 47.6025 397.63C48.2943 397.63 48.7664 398.124 48.7664 398.838ZM54.9261 403.021C54.9261 401.835 54.0807 401.001 52.9168 401.001C51.7529 401.001 50.9075 401.835 50.9075 403.021C50.9075 404.196 51.7529 405.041 52.9168 405.041C54.0807 405.041 54.9261 404.196 54.9261 403.021ZM54.0697 403.021C54.0697 403.724 53.5975 404.218 52.9168 404.218C52.236 404.218 51.7639 403.724 51.7639 403.021C51.7639 402.307 52.236 401.813 52.9168 401.813C53.6085 401.813 54.0697 402.307 54.0697 403.021Z" fill="white"/>
<path d="M37.9079 436.727C37.9079 439.197 39.1267 440.833 41.1799 440.833C43.2221 440.833 44.4409 439.197 44.4409 436.727C44.4409 434.267 43.1672 432.599 41.1799 432.599C39.1816 432.599 37.9079 434.267 37.9079 436.727ZM38.9729 436.727C38.9729 434.751 39.7854 433.565 41.1799 433.565C42.5743 433.565 43.3759 434.751 43.3759 436.727C43.3759 438.681 42.5743 439.867 41.1799 439.867C39.7854 439.867 38.9729 438.681 38.9729 436.727ZM49.874 434.63C49.874 433.444 49.0395 432.599 47.8647 432.599C46.7008 432.599 45.8663 433.444 45.8663 434.63C45.8663 435.805 46.7008 436.65 47.8647 436.65C49.0395 436.65 49.874 435.805 49.874 434.63ZM54.0573 432.763H53.0032L46.9753 440.691H48.0294L54.0573 432.763ZM49.0285 434.63C49.0285 435.332 48.5454 435.827 47.8647 435.827C47.1839 435.827 46.7118 435.332 46.7118 434.63C46.7118 433.916 47.1839 433.422 47.8647 433.422C48.5564 433.422 49.0285 433.916 49.0285 434.63ZM55.1882 438.813C55.1882 437.627 54.3428 436.793 53.1789 436.793C52.0151 436.793 51.1696 437.627 51.1696 438.813C51.1696 439.988 52.0151 440.833 53.1789 440.833C54.3428 440.833 55.1882 439.988 55.1882 438.813ZM54.3318 438.813C54.3318 439.516 53.8597 440.01 53.1789 440.01C52.4982 440.01 52.026 439.516 52.026 438.813C52.026 438.099 52.4982 437.605 53.1789 437.605C53.8707 437.605 54.3318 438.099 54.3318 438.813Z" fill="white"/>
<path d="M80.7527 395.964C80.7527 395.964 90.4729 350.603 155.276 320.361C220.078 290.12 401.048 288.175 444.856 288.175" stroke="url(#paint7_linear_732_15317)" stroke-width="4.22303" stroke-linecap="round"/>
<path d="M80.7527 395.964C80.7527 395.964 90.4729 350.603 155.276 320.361C220.078 290.12 401.048 288.175 444.856 288.175" stroke="url(#paint8_linear_732_15317)" stroke-width="4.22303" stroke-linecap="round"/>
<path d="M80.7527 395.964C80.7527 395.964 90.4729 350.603 155.276 320.361C220.078 290.12 401.048 288.175 444.856 288.175" stroke="url(#paint9_linear_732_15317)" stroke-width="4.22303" stroke-linecap="round"/>
<path d="M22.8001 244.987V257.268H20.8913V244.987H22.8001ZM21.2123 257.268V255.511H28.0536V257.268H21.2123ZM28.873 253.112C28.873 252.245 29.0588 251.485 29.4304 250.832C29.8133 250.179 30.3369 249.666 31.0014 249.295C31.6658 248.923 32.4203 248.737 33.2649 248.737C34.1095 248.737 34.8584 248.923 35.5116 249.295C36.1647 249.666 36.6827 250.179 37.0656 250.832C37.4485 251.485 37.64 252.245 37.64 253.112C37.64 253.968 37.4485 254.723 37.0656 255.376C36.6827 256.029 36.1647 256.541 35.5116 256.913C34.8584 257.284 34.1095 257.47 33.2649 257.47C32.4203 257.47 31.6658 257.284 31.0014 256.913C30.3369 256.541 29.8133 256.029 29.4304 255.376C29.0588 254.723 28.873 253.968 28.873 253.112ZM30.6973 253.095C30.6973 253.636 30.8043 254.114 31.0183 254.531C31.2435 254.936 31.5475 255.257 31.9304 255.494C32.3133 255.719 32.7581 255.832 33.2649 255.832C33.7604 255.832 34.1996 255.719 34.5825 255.494C34.9654 255.257 35.2638 254.936 35.4778 254.531C35.6917 254.114 35.7987 253.636 35.7987 253.095C35.7987 252.555 35.6917 252.082 35.4778 251.676C35.2638 251.271 34.9654 250.956 34.5825 250.73C34.1996 250.494 33.7604 250.376 33.2649 250.376C32.7581 250.376 32.3133 250.494 31.9304 250.73C31.5475 250.956 31.2435 251.271 31.0183 251.676C30.8043 252.082 30.6973 252.555 30.6973 253.095ZM39.9763 248.974L42.7804 256.845L41.7331 258.568L38.0338 248.974H39.9763ZM38.2702 261.051V259.548H39.402C39.6723 259.548 39.9088 259.52 40.1115 259.464C40.3255 259.407 40.5169 259.295 40.6858 259.126C40.8547 258.968 41.0011 258.72 41.125 258.382L44.5879 248.974H46.4798L42.4764 259.126C42.1836 259.869 41.812 260.404 41.3615 260.73C40.9223 261.068 40.3761 261.237 39.723 261.237C39.4527 261.237 39.1937 261.22 38.9459 261.187C38.7094 261.153 38.4842 261.108 38.2702 261.051ZM49.7439 257.487C48.8656 257.487 48.173 257.251 47.6662 256.778C47.1707 256.305 46.923 255.691 46.923 254.936C46.923 254.171 47.1876 253.563 47.7169 253.112C48.2574 252.65 49.0176 252.38 49.9973 252.301L52.548 252.099V251.896C52.548 251.468 52.4692 251.13 52.3115 250.882C52.1539 250.623 51.9399 250.438 51.6696 250.325C51.3994 250.212 51.0841 250.156 50.7237 250.156C50.0818 250.156 49.5863 250.286 49.2372 250.545C48.8881 250.804 48.7135 251.17 48.7135 251.643H47.1595C47.1595 251.046 47.3059 250.533 47.5987 250.105C47.9027 249.666 48.3306 249.328 48.8825 249.092C49.4343 248.844 50.0762 248.72 50.8082 248.72C51.5289 248.72 52.1483 248.85 52.6663 249.109C53.1956 249.356 53.601 249.734 53.8825 250.24C54.1753 250.747 54.3217 251.383 54.3217 252.149V257.268H52.7507L52.5818 255.984C52.3904 256.434 52.0356 256.8 51.5176 257.082C50.9996 257.352 50.4084 257.487 49.7439 257.487ZM50.3183 256.085C51.0052 256.085 51.5514 255.882 51.9568 255.477C52.3622 255.06 52.5649 254.503 52.5649 253.805V253.349L50.6392 253.518C49.9635 253.574 49.4793 253.72 49.1865 253.957C48.905 254.193 48.7642 254.492 48.7642 254.852C48.7642 255.269 48.8993 255.578 49.1696 255.781C49.4399 255.984 49.8228 256.085 50.3183 256.085ZM58.2916 257.268H56.4673V244.767H58.2916V257.268ZM59.6799 248.974H64.7307V250.494H59.6799V248.974ZM63.109 257.268H61.3016V246.372H63.109V257.268ZM67.0466 248.974L69.8507 256.845L68.8034 258.568L65.104 248.974H67.0466ZM65.3405 261.051V259.548H66.4723C66.7426 259.548 66.979 259.52 67.1818 259.464C67.3957 259.407 67.5872 259.295 67.7561 259.126C67.925 258.968 68.0714 258.72 68.1953 258.382L71.6582 248.974H73.5501L69.5466 259.126C69.2539 259.869 68.8822 260.404 68.4318 260.73C67.9926 261.068 67.4464 261.237 66.7932 261.237C66.523 261.237 66.2639 261.22 66.0162 261.187C65.7797 261.153 65.5545 261.108 65.3405 261.051ZM81.5596 257.268H79.6508V244.987H84.2961C85.6587 244.987 86.7173 245.319 87.4718 245.984C88.2376 246.648 88.6205 247.566 88.6205 248.737C88.6205 249.582 88.4234 250.297 88.0293 250.882C87.6351 251.457 87.0664 251.885 86.3232 252.166L88.7218 257.268H86.6272L84.4312 252.538H81.5596V257.268ZM81.5596 246.693V250.849H84.313C85.0337 250.849 85.5968 250.663 86.0022 250.291C86.4076 249.92 86.6103 249.407 86.6103 248.754C86.6103 248.09 86.4076 247.583 86.0022 247.234C85.5968 246.873 85.0281 246.693 84.2961 246.693H81.5596ZM93.6029 257.487C92.7808 257.487 92.0544 257.301 91.4238 256.93C90.8044 256.558 90.3145 256.046 89.9542 255.393C89.6051 254.728 89.4305 253.968 89.4305 253.112C89.4305 252.245 89.5994 251.485 89.9373 250.832C90.2864 250.179 90.7706 249.666 91.39 249.295C92.0094 248.912 92.7245 248.72 93.5353 248.72C94.3461 248.72 95.0443 248.895 95.6299 249.244C96.2268 249.582 96.6885 250.066 97.0151 250.697C97.3529 251.316 97.5218 252.048 97.5218 252.893V253.501L90.3934 253.518L90.4271 252.335H95.6975C95.6975 251.693 95.5004 251.186 95.1063 250.815C94.7234 250.432 94.1997 250.24 93.5353 250.24C93.0285 250.24 92.595 250.347 92.2346 250.561C91.8855 250.775 91.6152 251.096 91.4238 251.524C91.2436 251.941 91.1535 252.453 91.1535 253.061C91.1535 254.007 91.3618 254.728 91.7785 255.224C92.2064 255.719 92.8258 255.967 93.6366 255.967C94.2222 255.967 94.7065 255.854 95.0894 255.629C95.4723 255.404 95.72 255.072 95.8326 254.632H97.5387C97.3473 255.522 96.9025 256.22 96.2042 256.727C95.5173 257.234 94.6502 257.487 93.6029 257.487ZM100.736 257.268L98.0159 248.974H99.9247L101.141 252.909C101.242 253.213 101.332 253.54 101.411 253.889C101.501 254.227 101.586 254.582 101.665 254.953C101.71 254.694 101.76 254.452 101.817 254.227C101.873 254.002 101.935 253.782 102.002 253.568C102.07 253.354 102.138 253.135 102.205 252.909L103.489 248.974H105.347L106.58 252.909C106.614 253 106.653 253.129 106.698 253.298C106.744 253.467 106.794 253.653 106.85 253.855C106.907 254.047 106.957 254.244 107.003 254.447C107.048 254.638 107.087 254.807 107.121 254.953C107.166 254.739 107.216 254.514 107.273 254.278C107.329 254.03 107.391 253.793 107.459 253.568C107.526 253.332 107.594 253.112 107.661 252.909L108.911 248.974H110.82L107.965 257.268H106.259L104.959 253.247C104.812 252.763 104.694 252.346 104.604 251.997C104.514 251.637 104.446 251.344 104.401 251.119C104.356 251.333 104.289 251.597 104.198 251.913C104.12 252.228 103.99 252.684 103.81 253.281L102.509 257.268H100.736ZM114.178 257.487C113.3 257.487 112.607 257.251 112.1 256.778C111.605 256.305 111.357 255.691 111.357 254.936C111.357 254.171 111.622 253.563 112.151 253.112C112.692 252.65 113.452 252.38 114.431 252.301L116.982 252.099V251.896C116.982 251.468 116.903 251.13 116.746 250.882C116.588 250.623 116.374 250.438 116.104 250.325C115.834 250.212 115.518 250.156 115.158 250.156C114.516 250.156 114.02 250.286 113.671 250.545C113.322 250.804 113.148 251.17 113.148 251.643H111.594C111.594 251.046 111.74 250.533 112.033 250.105C112.337 249.666 112.765 249.328 113.317 249.092C113.868 248.844 114.51 248.72 115.242 248.72C115.963 248.72 116.582 248.85 117.1 249.109C117.63 249.356 118.035 249.734 118.317 250.24C118.609 250.747 118.756 251.383 118.756 252.149V257.268H117.185L117.016 255.984C116.825 256.434 116.47 256.8 115.952 257.082C115.434 257.352 114.843 257.487 114.178 257.487ZM114.752 256.085C115.439 256.085 115.986 255.882 116.391 255.477C116.796 255.06 116.999 254.503 116.999 253.805V253.349L115.073 253.518C114.398 253.574 113.913 253.72 113.621 253.957C113.339 254.193 113.198 254.492 113.198 254.852C113.198 255.269 113.334 255.578 113.604 255.781C113.874 255.984 114.257 256.085 114.752 256.085ZM125.851 248.923V250.595H125.124C124.37 250.595 123.773 250.804 123.334 251.22C122.906 251.637 122.692 252.251 122.692 253.061V257.268H120.885V248.974H122.591L122.743 250.68H122.574C122.686 250.128 122.951 249.677 123.368 249.328C123.784 248.979 124.325 248.805 124.989 248.805C125.124 248.805 125.26 248.816 125.395 248.838C125.541 248.85 125.693 248.878 125.851 248.923ZM130.383 257.487C129.583 257.487 128.891 257.301 128.305 256.93C127.731 256.558 127.286 256.051 126.97 255.409C126.655 254.756 126.497 254.002 126.497 253.146C126.497 252.29 126.655 251.53 126.97 250.865C127.286 250.201 127.742 249.677 128.339 249.295C128.936 248.912 129.651 248.72 130.484 248.72C131.092 248.72 131.638 248.844 132.123 249.092C132.618 249.34 133.001 249.7 133.271 250.173V244.767H135.096V257.268H133.423L133.305 255.866C133.046 256.384 132.652 256.783 132.123 257.065C131.605 257.346 131.025 257.487 130.383 257.487ZM130.771 255.815C131.289 255.815 131.728 255.702 132.089 255.477C132.46 255.241 132.748 254.92 132.95 254.514C133.153 254.097 133.254 253.625 133.254 253.095C133.254 252.555 133.153 252.082 132.95 251.676C132.748 251.26 132.46 250.939 132.089 250.713C131.728 250.477 131.289 250.359 130.771 250.359C130.264 250.359 129.825 250.477 129.454 250.713C129.093 250.95 128.812 251.271 128.609 251.676C128.418 252.082 128.322 252.555 128.322 253.095C128.322 253.625 128.418 254.097 128.609 254.514C128.812 254.92 129.093 255.241 129.454 255.477C129.825 255.702 130.264 255.815 130.771 255.815ZM136.656 254.801H138.379C138.39 255.195 138.537 255.505 138.818 255.73C139.1 255.956 139.488 256.068 139.984 256.068C140.502 256.068 140.902 255.967 141.183 255.764C141.465 255.561 141.605 255.297 141.605 254.97C141.605 254.723 141.532 254.52 141.386 254.362C141.239 254.193 140.963 254.058 140.558 253.957L139.072 253.619C138.34 253.439 137.788 253.163 137.416 252.791C137.056 252.42 136.876 251.913 136.876 251.271C136.876 250.742 137.011 250.291 137.281 249.92C137.563 249.537 137.945 249.244 138.43 249.041C138.914 248.827 139.466 248.72 140.085 248.72C140.704 248.72 141.245 248.833 141.707 249.058C142.168 249.272 142.529 249.576 142.788 249.97C143.047 250.364 143.176 250.832 143.176 251.372H141.453C141.442 250.978 141.313 250.668 141.065 250.443C140.817 250.218 140.468 250.105 140.017 250.105C139.578 250.105 139.235 250.207 138.987 250.409C138.739 250.601 138.615 250.865 138.615 251.203C138.615 251.71 138.993 252.059 139.747 252.251L141.234 252.588C141.932 252.746 142.456 253.005 142.805 253.366C143.154 253.715 143.328 254.204 143.328 254.835C143.328 255.364 143.182 255.832 142.889 256.237C142.608 256.643 142.213 256.952 141.707 257.166C141.2 257.38 140.609 257.487 139.933 257.487C138.931 257.487 138.131 257.239 137.534 256.744C136.949 256.248 136.656 255.601 136.656 254.801Z" fill="#E5ECF1"/>
<rect x="-28.0777" y="61.4223" width="514.155" height="545.155" rx="25.5777" stroke="#29292D" stroke-width="0.844605" shape-rendering="crispEdges"/>
<rect x="-28.0777" y="61.4223" width="514.155" height="545.155" rx="25.5777" stroke="white" stroke-opacity="0.06" stroke-width="0.844605" shape-rendering="crispEdges"/>
</g>
</g>
</g>
<defs>
<filter id="filter0_dd_732_15317" x="-67.3519" y="54.2432" width="615.291" height="630.986" filterUnits="userSpaceOnUse" color-interpolation-filters="sRGB">
<feFlood flood-opacity="0" result="BackgroundImageFix"/>
<feColorMatrix in="SourceAlpha" type="matrix" values="0 0 0 0 0 0 0 0 0 0 0 0 0 0 0 0 0 0 127 0" result="hardAlpha"/>
<feOffset dy="32.095"/>
<feGaussianBlur stdDeviation="19.4259"/>
<feComposite in2="hardAlpha" operator="out"/>
<feColorMatrix type="matrix" values="0 0 0 0 0 0 0 0 0 0 0 0 0 0 0 0 0 0 0.03 0"/>
<feBlend mode="normal" in2="BackgroundImageFix" result="effect1_dropShadow_732_15317"/>
<feColorMatrix in="SourceAlpha" type="matrix" values="0 0 0 0 0 0 0 0 0 0 0 0 0 0 0 0 0 0 127 0" result="hardAlpha"/>
<feOffset dx="20" dy="37"/>
<feGaussianBlur stdDeviation="20.6148"/>
<feComposite in2="hardAlpha" operator="out"/>
<feColorMatrix type="matrix" values="0 0 0 0 0 0 0 0 0 0 0 0 0 0 0 0 0 0 0.26 0"/>
<feBlend mode="normal" in2="effect1_dropShadow_732_15317" result="effect2_dropShadow_732_15317"/>
<feBlend mode="normal" in="SourceGraphic" in2="effect2_dropShadow_732_15317" result="shape"/>
</filter>
<linearGradient id="paint0_linear_732_15317" x1="274" y1="0" x2="274" y2="496" gradientUnits="userSpaceOnUse">
<stop stop-color="#37383F"/>
<stop offset="1" stop-opacity="0"/>
</linearGradient>
<linearGradient id="paint1_linear_732_15317" x1="274" y1="-10" x2="274" y2="496" gradientUnits="userSpaceOnUse">
<stop stop-color="#63FFD0" stop-opacity="0.54"/>
<stop offset="0.257571" stop-color="#4FFFB0" stop-opacity="0.34"/>
<stop offset="1" stop-opacity="0"/>
</linearGradient>
<linearGradient id="paint2_linear_732_15317" x1="457.5" y1="356.275" x2="457.5" y2="450.952" gradientUnits="userSpaceOnUse">
<stop/>
<stop offset="1" stop-color="#D9D9D9" stop-opacity="0"/>
</linearGradient>
<linearGradient id="paint3_linear_732_15317" x1="20.0149" y1="74.3748" x2="140.368" y2="74.3748" gradientUnits="userSpaceOnUse">
<stop stop-color="#FFCE4F"/>
<stop offset="1" stop-color="#4FFFB0"/>
</linearGradient>
<linearGradient id="paint4_linear_732_15317" x1="20.0149" y1="74.3748" x2="140.368" y2="74.3748" gradientUnits="userSpaceOnUse">
<stop stop-color="#4FFFB0"/>
<stop offset="0.505223" stop-color="#A2FF76"/>
<stop offset="1" stop-color="#FF984E"/>
</linearGradient>
<linearGradient id="paint5_linear_732_15317" x1="20.0149" y1="74.3748" x2="140.368" y2="74.3748" gradientUnits="userSpaceOnUse">
<stop stop-color="#4FFFB0"/>
<stop offset="0.463556" stop-color="#B3FF8F"/>
<stop offset="1" stop-color="#FF984E"/>
</linearGradient>
<linearGradient id="paint6_linear_732_15317" x1="148.332" y1="178.562" x2="219.185" y2="178.562" gradientUnits="userSpaceOnUse">
<stop stop-color="#4FFFB0"/>
<stop offset="0.463556" stop-color="#B3FF8F"/>
<stop offset="1" stop-color="#FF984E"/>
</linearGradient>
<linearGradient id="paint7_linear_732_15317" x1="85.3909" y1="224.175" x2="459.931" y2="224.175" gradientUnits="userSpaceOnUse">
<stop stop-color="#FFCE4F"/>
<stop offset="1" stop-color="#4FFFB0"/>
</linearGradient>
<linearGradient id="paint8_linear_732_15317" x1="85.3909" y1="224.175" x2="459.931" y2="224.175" gradientUnits="userSpaceOnUse">
<stop stop-color="#4FFFB0"/>
<stop offset="0.505223" stop-color="#A2FF76"/>
<stop offset="1" stop-color="#FF984E"/>
</linearGradient>
<linearGradient id="paint9_linear_732_15317" x1="85.3909" y1="224.175" x2="459.931" y2="224.175" gradientUnits="userSpaceOnUse">
<stop stop-color="#4FFFB0"/>
<stop offset="0.463556" stop-color="#B3FF8F"/>
<stop offset="1" stop-color="#FF984E"/>
</linearGradient>
<clipPath id="clip0_732_15317">
<rect x="0.5" width="547" height="496" rx="35" fill="white"/>
</clipPath>
<clipPath id="clip1_732_15317">
<rect x="18.1926" y="151.121" width="17.4739" height="17.4739" rx="8.73697" fill="white"/>
</clipPath>
</defs>
</svg>
