<svg width="381" height="354" viewBox="0 0 381 354" fill="none" xmlns="http://www.w3.org/2000/svg">
<path d="M159.173 -175.653C190.647 -175.653 221.426 -166.181 247.622 -148.459C273.789 -130.709 294.207 -105.514 306.263 -76.0141C318.319 -46.514 321.458 -14.0695 315.319 17.2639C309.18 48.5695 294.013 77.3474 271.762 99.9308C249.511 122.514 221.148 137.875 190.258 144.098C159.368 150.32 127.367 147.125 98.282 134.903C69.1974 122.681 44.3352 101.986 26.8344 75.4585C9.3337 48.9029 0 17.7084 0 -14.2362C0 -35.4306 4.11129 -56.4307 12.1116 -76.0141C20.112 -95.5975 31.8347 -113.403 46.6131 -128.375C61.3915 -143.375 78.9478 -155.264 98.2542 -163.375C117.561 -171.487 138.256 -175.653 159.173 -175.653ZM107.255 -14.2362C107.255 63.764 159.173 127.014 159.173 127.014C159.173 127.014 211.092 63.7918 211.092 -14.2362C211.092 -92.2641 159.173 -155.459 159.173 -155.459C159.173 -155.459 107.255 -92.2363 107.255 -14.2362Z" fill="url(#paint0_linear_831_8488)"/>
<path d="M491.438 -175.653C522.911 -175.653 553.69 -166.181 579.886 -148.459C606.054 -130.709 626.471 -105.514 638.527 -76.0141C650.583 -46.514 653.722 -14.0695 647.583 17.2639C641.444 48.5695 626.277 77.3474 604.026 99.9308C581.775 122.514 553.413 137.875 522.522 144.098C491.632 150.32 459.631 147.125 430.546 134.903C401.462 122.681 376.599 101.986 359.099 75.4585C341.598 48.9029 332.264 17.7084 332.264 -14.2362C332.264 -35.4306 336.375 -56.4307 344.376 -76.0141C352.376 -95.5975 364.099 -113.403 378.877 -128.375C393.656 -143.375 411.212 -155.264 430.518 -163.375C449.825 -171.487 470.52 -175.653 491.438 -175.653ZM439.519 -14.2362C439.519 63.764 491.438 127.014 491.438 127.014C491.438 127.014 543.357 63.7918 543.357 -14.2362C543.357 -92.2641 491.438 -155.459 491.438 -155.459C491.438 -155.459 439.519 -92.2363 439.519 -14.2362Z" fill="url(#paint1_linear_831_8488)"/>
<path d="M273.678 97.4863C291.318 78.8196 304.208 56.1806 311.374 31.5139C294.235 33.0695 277.429 37.4584 261.622 44.4862C242.483 53.014 225.204 65.264 210.759 80.5696C196.314 95.8752 184.952 113.903 177.397 133.653C175.785 137.875 174.341 142.153 173.091 146.486C179.813 145.875 186.508 144.848 193.147 143.375C223.899 136.486 251.927 120.514 273.678 97.4585V97.4863Z" fill="url(#paint2_linear_831_8488)"/>
<path d="M324.953 31C356.426 31 387.205 40.4722 413.401 58.1945C439.569 75.9445 459.986 101.139 472.042 130.639C484.098 160.139 487.237 192.584 481.098 223.917C474.959 255.223 459.792 284.001 437.541 306.584C415.29 329.167 386.928 344.529 356.037 350.751C325.147 356.973 293.146 353.779 264.061 341.556C234.977 329.334 210.115 308.639 192.614 282.112C175.113 255.556 165.779 224.362 165.779 192.417C165.779 171.223 169.891 150.222 177.891 130.639C185.891 111.056 197.614 93.2502 212.392 78.2779C227.171 63.2779 244.727 51.3889 264.033 43.2778C283.34 35.1667 304.035 31 324.953 31ZM273.034 192.417C273.034 270.417 324.953 333.667 324.953 333.667C324.953 333.667 376.872 270.445 376.872 192.417C376.872 114.389 324.953 51.1945 324.953 51.1945C324.953 51.1945 273.034 114.417 273.034 192.417Z" fill="url(#paint3_linear_831_8488)"/>
<path d="M440.575 80.5697C458.214 99.2364 471.104 121.875 478.27 146.542C461.131 144.987 444.325 140.598 428.518 133.57C409.379 125.042 392.1 112.792 377.655 97.4864C363.21 82.1808 351.848 64.153 344.293 44.4029C342.681 40.1807 341.237 35.9029 339.987 31.5696C346.709 32.1807 353.404 33.2085 360.043 34.6807C390.795 41.5696 418.824 57.5418 440.575 80.5975V80.5697Z" fill="url(#paint4_linear_831_8488)"/>
<defs>
<linearGradient id="paint0_linear_831_8488" x1="0" y1="-14.268" x2="318.379" y2="-14.268" gradientUnits="userSpaceOnUse">
<stop stop-color="#A8FF94" stop-opacity="0"/>
<stop offset="0.45467" stop-color="#55FFAE"/>
<stop offset="1" stop-color="#A8FF94" stop-opacity="0"/>
</linearGradient>
<linearGradient id="paint1_linear_831_8488" x1="332.264" y1="-14.268" x2="650.643" y2="-14.268" gradientUnits="userSpaceOnUse">
<stop stop-color="#A8FF94" stop-opacity="0"/>
<stop offset="0.45467" stop-color="#55FFAE"/>
<stop offset="1" stop-color="#A8FF94" stop-opacity="0"/>
</linearGradient>
<linearGradient id="paint2_linear_831_8488" x1="173.091" y1="88.9863" x2="311.374" y2="88.9863" gradientUnits="userSpaceOnUse">
<stop offset="0.07" stop-color="#55FFAE" stop-opacity="0"/>
<stop offset="1" stop-color="#A8FF94"/>
</linearGradient>
<linearGradient id="paint3_linear_831_8488" x1="165.779" y1="192.385" x2="484.158" y2="192.385" gradientUnits="userSpaceOnUse">
<stop stop-color="#A8FF94" stop-opacity="0"/>
<stop offset="0.45467" stop-color="#55FFAE"/>
<stop offset="1" stop-color="#A8FF94" stop-opacity="0"/>
</linearGradient>
<linearGradient id="paint4_linear_831_8488" x1="339.987" y1="89.0419" x2="478.27" y2="89.0419" gradientUnits="userSpaceOnUse">
<stop offset="0.07" stop-color="#55FFAE" stop-opacity="0"/>
<stop offset="1" stop-color="#A8FF94"/>
</linearGradient>
</defs>
</svg>
