<svg width="660" height="182" viewBox="0 0 660 182" fill="none" xmlns="http://www.w3.org/2000/svg">
<path d="M570.491 0C588.186 0 605.491 5.32551 620.219 15.2894C634.931 25.2689 646.41 39.4338 653.188 56.0194C659.966 72.605 661.731 90.8461 658.28 108.462C654.828 126.063 646.301 142.243 633.791 154.94C621.281 167.637 605.335 176.273 587.968 179.771C570.6 183.27 552.608 181.474 536.256 174.602C519.904 167.73 505.926 156.095 496.087 141.181C486.248 126.251 481 108.712 481 90.7524C481 78.8364 483.311 67.0297 487.809 56.0194C492.307 45.0092 498.898 34.9985 507.207 26.5807C515.516 18.1474 525.386 11.4631 536.241 6.90287C547.095 2.3426 558.731 0 570.491 0ZM541.301 90.7524C541.301 134.606 570.491 170.167 570.491 170.167C570.491 170.167 599.681 134.622 599.681 90.7524C599.681 46.8833 570.491 11.3538 570.491 11.3538C570.491 11.3538 541.301 46.8989 541.301 90.7524Z" fill="url(#paint0_linear_871_13554)"/>
<path d="M89.491 0C107.186 0 124.491 5.32551 139.219 15.2894C153.931 25.2689 165.41 39.4338 172.188 56.0194C178.966 72.605 180.731 90.8461 177.28 108.462C173.828 126.063 165.301 142.243 152.791 154.94C140.281 167.637 124.335 176.273 106.968 179.771C89.6003 183.27 71.6085 181.474 55.2564 174.602C38.9044 167.73 24.9263 156.095 15.087 141.181C5.24765 126.251 0 108.712 0 90.7524C0 78.8364 2.31144 67.0297 6.80942 56.0194C11.3074 45.0092 17.8982 34.9985 26.207 26.5807C34.5157 18.1474 44.3863 11.4631 55.2408 6.90287C66.0953 2.3426 77.7307 0 89.491 0ZM60.301 90.7524C60.301 134.606 89.491 170.167 89.491 170.167C89.491 170.167 118.681 134.622 118.681 90.7524C118.681 46.8833 89.491 11.3538 89.491 11.3538C89.491 11.3538 60.301 46.8989 60.301 90.7524Z" fill="url(#paint1_linear_871_13554)"/>
<defs>
<linearGradient id="paint0_linear_871_13554" x1="481" y1="90.7345" x2="660" y2="90.7345" gradientUnits="userSpaceOnUse">
<stop stop-color="#A8FF94" stop-opacity="0"/>
<stop offset="0.45467" stop-color="#55FFAE"/>
<stop offset="1" stop-color="#A8FF94" stop-opacity="0"/>
</linearGradient>
<linearGradient id="paint1_linear_871_13554" x1="0" y1="90.7345" x2="179" y2="90.7345" gradientUnits="userSpaceOnUse">
<stop stop-color="#A8FF94" stop-opacity="0"/>
<stop offset="0.45467" stop-color="#55FFAE"/>
<stop offset="1" stop-color="#A8FF94" stop-opacity="0"/>
</linearGradient>
</defs>
</svg>
