<svg width="26" height="26" viewBox="0 0 26 26" fill="none" xmlns="http://www.w3.org/2000/svg">
<path d="M12.9869 -0.171051C15.5557 -0.1712 18.0669 0.60116 20.2028 2.04836C22.3387 3.49555 24.0035 5.55258 24.9866 7.95931C25.9697 10.366 26.227 13.0144 25.7258 15.5694C25.2247 18.1244 23.9878 20.4713 22.1714 22.3133C20.355 24.1554 18.0407 25.4098 15.5213 25.918C13.0018 26.4262 10.3904 26.1653 8.01717 25.1683C5.64395 24.1713 3.61556 22.4831 2.18851 20.317C0.76146 18.1509 -0.000147284 15.6043 2.13641e-08 12.9992C2.13641e-08 11.2697 0.33592 9.55708 0.988574 7.95919C1.64123 6.3613 2.59784 4.90941 3.80378 3.68644C5.00973 2.46346 6.44141 1.49335 8.01705 0.831478C9.5927 0.169609 11.2815 -0.171051 12.9869 -0.171051V-0.171051ZM8.74982 12.9992C8.74982 19.3642 12.9869 24.5237 12.9869 24.5237C12.9869 24.5237 17.2241 19.3642 17.2241 12.9992C17.2241 6.63427 12.9869 1.47552 12.9869 1.47552C12.9869 1.47552 8.74982 6.63502 8.74982 12.9992V12.9992Z" fill="#4FFFB0"/>
</svg>
