<svg width="557" height="789" viewBox="0 0 557 789" fill="none" xmlns="http://www.w3.org/2000/svg">
<g filter="url(#filter0_d_623_3265)">
<rect x="44.4941" y="3" width="444" height="214" rx="18" fill="url(#paint0_linear_623_3265)" shape-rendering="crispEdges"/>
<path d="M81.8726 38.1822L78.9537 53H76.5212L79.4199 38.1822H81.8726ZM86.8997 38.1822L84.001 53H81.5686L84.447 38.1822H86.8997ZM76.4604 42.0336H88.2376L87.7713 44.3445H75.9942L76.4604 42.0336ZM75.7915 46.858H87.5281L87.0619 49.1689H75.3252L75.7915 46.858ZM92.9961 40.5134H89.7528V38.1822H95.4691V53H92.9961V40.5134ZM109.577 53H104.246V38.1822H109.435C110.894 38.1822 112.178 38.4998 113.286 39.135C114.394 39.7566 115.259 40.6282 115.881 41.7499C116.516 42.858 116.834 44.1485 116.834 45.6215C116.834 47.0675 116.523 48.3513 115.901 49.4729C115.293 50.581 114.442 51.4459 113.347 52.0676C112.266 52.6892 111.009 53 109.577 53ZM106.84 39.3782V51.8243L105.604 50.6081H109.333C110.32 50.6081 111.171 50.4054 111.888 50C112.604 49.5946 113.151 49.0202 113.529 48.277C113.908 47.5337 114.097 46.6486 114.097 45.6215C114.097 44.5675 113.901 43.6688 113.509 42.9255C113.117 42.1688 112.556 41.5877 111.827 41.1823C111.097 40.7769 110.219 40.5742 109.192 40.5742H105.604L106.84 39.3782ZM118.886 53V42.9864H121.359V53H118.886ZM120.102 40.9796C119.683 40.9796 119.325 40.8377 119.028 40.5539C118.744 40.2566 118.602 39.8985 118.602 39.4796C118.602 39.0606 118.744 38.7093 119.028 38.4255C119.325 38.1417 119.683 37.9998 120.102 37.9998C120.521 37.9998 120.872 38.1417 121.156 38.4255C121.453 38.7093 121.602 39.0606 121.602 39.4796C121.602 39.8985 121.453 40.2566 121.156 40.5539C120.872 40.8377 120.521 40.9796 120.102 40.9796ZM123.143 49.9594H125.495C125.508 50.3919 125.67 50.7365 125.981 50.9932C126.292 51.25 126.725 51.3784 127.279 51.3784C127.873 51.3784 128.319 51.2702 128.616 51.054C128.927 50.8378 129.083 50.5473 129.083 50.1824C129.083 49.9391 129.002 49.7229 128.839 49.5337C128.677 49.3445 128.373 49.2027 127.927 49.1081L126.123 48.6824C125.218 48.4797 124.542 48.1553 124.096 47.7094C123.664 47.2499 123.447 46.6215 123.447 45.8242C123.447 45.1756 123.616 44.6148 123.954 44.1418C124.306 43.6688 124.779 43.3107 125.373 43.0674C125.968 42.8107 126.65 42.6823 127.42 42.6823C128.164 42.6823 128.819 42.8174 129.387 43.0877C129.954 43.358 130.394 43.7364 130.704 44.2229C131.029 44.7094 131.198 45.2769 131.211 45.9256H128.86C128.86 45.4931 128.725 45.1553 128.454 44.9121C128.184 44.6553 127.806 44.5269 127.319 44.5269C126.833 44.5269 126.454 44.635 126.184 44.8512C125.914 45.0675 125.779 45.358 125.779 45.7229C125.779 46.2769 126.211 46.6553 127.076 46.858L128.88 47.2837C129.718 47.4729 130.346 47.777 130.765 48.1959C131.198 48.6148 131.414 49.2094 131.414 49.9797C131.414 50.6554 131.238 51.2432 130.887 51.7432C130.535 52.2297 130.042 52.6081 129.407 52.8784C128.772 53.1351 128.042 53.2635 127.218 53.2635C125.975 53.2635 124.981 52.9595 124.238 52.3513C123.508 51.7432 123.143 50.9459 123.143 49.9594ZM132.303 42.9864H138.628V45.054H132.303V42.9864ZM136.702 53H134.229V39.8647H136.702V53ZM146.469 42.9458V45.2364H145.557C144.652 45.2364 143.942 45.4796 143.429 45.9661C142.915 46.4391 142.659 47.1621 142.659 48.1351V53H140.186V43.0066H142.517L142.719 45.0742H142.476C142.611 44.4121 142.929 43.8715 143.429 43.4526C143.929 43.0337 144.577 42.8242 145.375 42.8242C145.55 42.8242 145.726 42.8309 145.902 42.8445C146.078 42.858 146.267 42.8918 146.469 42.9458ZM148.143 53V42.9864H150.616V53H148.143ZM149.36 40.9796C148.941 40.9796 148.583 40.8377 148.285 40.5539C148.001 40.2566 147.86 39.8985 147.86 39.4796C147.86 39.0606 148.001 38.7093 148.285 38.4255C148.583 38.1417 148.941 37.9998 149.36 37.9998C149.778 37.9998 150.13 38.1417 150.414 38.4255C150.711 38.7093 150.86 39.0606 150.86 39.4796C150.86 39.8985 150.711 40.2566 150.414 40.5539C150.13 40.8377 149.778 40.9796 149.36 40.9796ZM155.462 53H153.171V37.9187H155.644V44.4458C155.969 43.8783 156.442 43.4458 157.063 43.1485C157.685 42.8377 158.381 42.6823 159.151 42.6823C160.111 42.6823 160.928 42.912 161.604 43.3715C162.293 43.8174 162.82 44.4458 163.185 45.2567C163.563 46.0675 163.753 47.0067 163.753 48.0743C163.753 49.0878 163.557 49.9864 163.165 50.7702C162.773 51.554 162.219 52.1689 161.503 52.6149C160.786 53.0473 159.948 53.2635 158.989 53.2635C158.246 53.2635 157.57 53.1014 156.962 52.777C156.367 52.4527 155.921 52.0067 155.624 51.4392L155.462 53ZM155.665 47.9526C155.665 48.5472 155.779 49.081 156.009 49.554C156.239 50.0135 156.563 50.3716 156.982 50.6283C157.415 50.8716 157.915 50.9932 158.482 50.9932C159.063 50.9932 159.563 50.8648 159.982 50.6081C160.401 50.3513 160.719 49.9932 160.935 49.5337C161.151 49.0743 161.259 48.5472 161.259 47.9526C161.259 47.358 161.151 46.831 160.935 46.3715C160.719 45.9121 160.401 45.554 159.982 45.2972C159.563 45.0269 159.063 44.8918 158.482 44.8918C157.915 44.8918 157.415 45.0269 156.982 45.2972C156.563 45.554 156.239 45.9121 156.009 46.3715C155.779 46.8175 155.665 47.3445 155.665 47.9526ZM172.275 42.9864H174.748V53H172.457L172.275 51.6621C171.977 52.1351 171.531 52.5203 170.937 52.8176C170.342 53.1149 169.707 53.2635 169.031 53.2635C167.883 53.2635 166.984 52.8986 166.335 52.1689C165.687 51.4392 165.362 50.4662 165.362 49.25V42.9864H167.836V48.3783C167.836 49.3243 168.018 50.0067 168.383 50.4256C168.748 50.8446 169.275 51.054 169.964 51.054C170.748 51.054 171.329 50.8243 171.707 50.3648C172.086 49.8919 172.275 49.1824 172.275 48.2364V42.9864ZM176.309 42.9864H182.633V45.054H176.309V42.9864ZM180.707 53H178.234V39.8647H180.707V53ZM188.572 53.2635C187.585 53.2635 186.707 53.0405 185.936 52.5946C185.18 52.1351 184.585 51.5135 184.153 50.7297C183.72 49.9324 183.504 49.0202 183.504 47.9932C183.504 46.9526 183.713 46.0337 184.132 45.2364C184.551 44.4391 185.139 43.8174 185.896 43.3715C186.653 42.912 187.518 42.6823 188.491 42.6823C189.504 42.6823 190.376 42.8985 191.105 43.331C191.835 43.7499 192.396 44.3377 192.788 45.0945C193.193 45.8513 193.396 46.7567 193.396 47.8107V48.5608L184.801 48.581L184.842 46.9999H190.943C190.943 46.3107 190.72 45.7567 190.274 45.3377C189.842 44.9188 189.254 44.7094 188.511 44.7094C187.93 44.7094 187.436 44.831 187.031 45.0742C186.639 45.3175 186.342 45.6823 186.139 46.1688C185.936 46.6553 185.835 47.2499 185.835 47.9526C185.835 49.0337 186.065 49.8513 186.524 50.4054C186.997 50.9594 187.693 51.2365 188.612 51.2365C189.288 51.2365 189.842 51.1081 190.274 50.8513C190.72 50.5946 191.011 50.2297 191.146 49.7567H193.437C193.22 50.8513 192.68 51.7094 191.815 52.3311C190.964 52.9527 189.882 53.2635 188.572 53.2635ZM203.798 38.1822V53H201.204V38.1822H203.798ZM207.082 46.6959H203.008V44.5066H206.94C207.656 44.5066 208.204 44.331 208.582 43.9796C208.96 43.6147 209.15 43.1012 209.15 42.4391C209.15 41.8039 208.954 41.3174 208.562 40.9796C208.17 40.6417 207.602 40.4728 206.859 40.4728H202.927V38.1822H207.082C208.555 38.1822 209.711 38.5404 210.548 39.2566C211.386 39.9728 211.805 40.9525 211.805 42.1958C211.805 43.0877 211.589 43.8377 211.156 44.4458C210.724 45.0404 210.082 45.4729 209.231 45.7431V45.4594C210.15 45.6756 210.846 46.081 211.319 46.6756C211.792 47.2702 212.028 48.0405 212.028 48.9864C212.028 49.8243 211.839 50.5473 211.461 51.1554C211.082 51.75 210.528 52.2094 209.798 52.5338C209.082 52.8446 208.217 53 207.204 53H202.927V50.7094H207.082C207.825 50.7094 208.393 50.5338 208.785 50.1824C209.177 49.831 209.373 49.3243 209.373 48.6621C209.373 48.0405 209.17 47.5607 208.765 47.2229C208.373 46.8715 207.812 46.6959 207.082 46.6959ZM213.556 42.3174C213.556 41.4526 213.779 40.689 214.225 40.0269C214.671 39.3647 215.286 38.8512 216.069 38.4863C216.867 38.1079 217.786 37.9187 218.826 37.9187C219.826 37.9187 220.691 38.0944 221.421 38.4458C222.164 38.7971 222.738 39.2971 223.144 39.9458C223.563 40.5944 223.786 41.3647 223.813 42.2566H221.218C221.191 41.6215 220.961 41.1282 220.529 40.7769C220.096 40.412 219.515 40.2296 218.786 40.2296C217.988 40.2296 217.346 40.412 216.86 40.7769C216.387 41.1282 216.15 41.6147 216.15 42.2363C216.15 42.7634 216.292 43.1823 216.576 43.4931C216.873 43.7904 217.333 44.0134 217.955 44.162L220.286 44.6891C221.556 44.9594 222.502 45.4256 223.124 46.0877C223.745 46.7364 224.056 47.6148 224.056 48.7229C224.056 49.6283 223.833 50.4256 223.387 51.1148C222.941 51.804 222.306 52.3378 221.482 52.7162C220.671 53.0811 219.718 53.2635 218.623 53.2635C217.583 53.2635 216.671 53.0878 215.887 52.7365C215.103 52.3716 214.488 51.8649 214.042 51.2162C213.61 50.5675 213.38 49.804 213.353 48.9256H215.948C215.961 49.5473 216.205 50.0405 216.678 50.4054C217.164 50.7567 217.819 50.9324 218.644 50.9324C219.509 50.9324 220.191 50.7567 220.691 50.4054C221.205 50.0405 221.461 49.5608 221.461 48.9662C221.461 48.4526 221.326 48.0472 221.056 47.7499C220.786 47.4391 220.346 47.2229 219.738 47.1013L217.387 46.5742C216.13 46.304 215.177 45.8175 214.529 45.1148C213.88 44.3985 213.556 43.4661 213.556 42.3174ZM230.133 45.6013L225.207 38.1822H228.288L230.092 40.858C230.39 41.2904 230.667 41.7363 230.924 42.1958C231.194 42.6418 231.471 43.1147 231.755 43.6147L235.201 38.1822H238.221L233.376 45.581L238.241 53H235.18L233.518 50.5473C233.18 50.0473 232.876 49.5608 232.606 49.0878C232.336 48.6148 232.045 48.1148 231.734 47.5878L228.147 53H225.106L230.133 45.6013ZM251.583 42.9458V45.2364H250.671C249.766 45.2364 249.056 45.4796 248.543 45.9661C248.029 46.4391 247.772 47.1621 247.772 48.1351V53H245.299V43.0066H247.63L247.833 45.0742H247.59C247.725 44.4121 248.043 43.8715 248.543 43.4526C249.043 43.0337 249.691 42.8242 250.489 42.8242C250.664 42.8242 250.84 42.8309 251.016 42.8445C251.191 42.858 251.38 42.8918 251.583 42.9458ZM257.4 53.2635C256.414 53.2635 255.535 53.0405 254.765 52.5946C254.008 52.1351 253.414 51.5135 252.981 50.7297C252.549 49.9324 252.333 49.0202 252.333 47.9932C252.333 46.9526 252.542 46.0337 252.961 45.2364C253.38 44.4391 253.968 43.8174 254.725 43.3715C255.481 42.912 256.346 42.6823 257.319 42.6823C258.333 42.6823 259.204 42.8985 259.934 43.331C260.664 43.7499 261.225 44.3377 261.617 45.0945C262.022 45.8513 262.225 46.7567 262.225 47.8107V48.5608L253.63 48.581L253.671 46.9999H259.772C259.772 46.3107 259.549 45.7567 259.103 45.3377C258.671 44.9188 258.083 44.7094 257.34 44.7094C256.758 44.7094 256.265 44.831 255.86 45.0742C255.468 45.3175 255.171 45.6823 254.968 46.1688C254.765 46.6553 254.664 47.2499 254.664 47.9526C254.664 49.0337 254.894 49.8513 255.353 50.4054C255.826 50.9594 256.522 51.2365 257.441 51.2365C258.117 51.2365 258.671 51.1081 259.103 50.8513C259.549 50.5946 259.84 50.2297 259.975 49.7567H262.265C262.049 50.8513 261.509 51.7094 260.644 52.3311C259.792 52.9527 258.711 53.2635 257.4 53.2635ZM265.998 53L262.754 42.9864H265.329L266.646 47.2837C266.755 47.6756 266.863 48.0878 266.971 48.5202C267.079 48.9527 267.173 49.4054 267.255 49.8783C267.322 49.554 267.383 49.2567 267.437 48.9864C267.505 48.7162 267.579 48.4526 267.66 48.1959C267.741 47.9256 267.836 47.6216 267.944 47.2837L269.322 42.9864H271.836L273.174 47.2837C273.201 47.3783 273.241 47.5405 273.295 47.7702C273.363 47.9864 273.43 48.2229 273.498 48.4797C273.565 48.7364 273.626 48.9932 273.68 49.25C273.748 49.4932 273.795 49.7027 273.822 49.8783C273.876 49.6216 273.944 49.331 274.025 49.0067C274.106 48.6824 274.187 48.3716 274.268 48.0743C274.363 47.7634 274.437 47.4999 274.491 47.2837L275.829 42.9864H278.444L274.978 53H272.667L271.288 48.6621C271.086 47.9999 270.924 47.4391 270.802 46.9797C270.68 46.5067 270.599 46.1418 270.559 45.885C270.518 46.1283 270.444 46.4526 270.336 46.858C270.228 47.2634 270.045 47.8783 269.788 48.7026L268.41 53H265.998ZM282.446 53.2635C281.392 53.2635 280.554 52.9797 279.932 52.4122C279.324 51.8311 279.02 51.0743 279.02 50.1419C279.02 49.2229 279.338 48.4932 279.973 47.9526C280.622 47.3986 281.541 47.0742 282.73 46.9797L285.73 46.7364V46.5134C285.73 46.054 285.642 45.6891 285.466 45.4188C285.304 45.135 285.068 44.9323 284.757 44.8107C284.446 44.6756 284.081 44.608 283.662 44.608C282.933 44.608 282.372 44.7567 281.98 45.054C281.588 45.3377 281.392 45.7431 281.392 46.2702H279.284C279.284 45.5404 279.466 44.9121 279.831 44.385C280.21 43.8445 280.737 43.4256 281.412 43.1283C282.101 42.831 282.892 42.6823 283.784 42.6823C284.689 42.6823 285.466 42.8445 286.115 43.1688C286.764 43.4796 287.264 43.9526 287.615 44.5877C287.966 45.2094 288.142 45.9864 288.142 46.9188V53H285.973L285.791 51.5203C285.574 52.0338 285.156 52.4527 284.534 52.777C283.926 53.1014 283.23 53.2635 282.446 53.2635ZM283.237 51.3986C284.007 51.3986 284.615 51.1824 285.061 50.75C285.52 50.3175 285.75 49.7162 285.75 48.9459V48.4189L283.662 48.581C282.892 48.6486 282.345 48.8108 282.02 49.0675C281.696 49.3108 281.534 49.6351 281.534 50.0405C281.534 50.4865 281.683 50.8243 281.98 51.054C282.277 51.2838 282.696 51.3986 283.237 51.3986ZM296.855 42.9458V45.2364H295.943C295.038 45.2364 294.328 45.4796 293.815 45.9661C293.301 46.4391 293.045 47.1621 293.045 48.1351V53H290.572V43.0066H292.903L293.105 45.0742H292.862C292.997 44.4121 293.315 43.8715 293.815 43.4526C294.315 43.0337 294.963 42.8242 295.761 42.8242C295.936 42.8242 296.112 42.8309 296.288 42.8445C296.463 42.858 296.653 42.8918 296.855 42.9458ZM302.308 53.2635C301.335 53.2635 300.497 53.0473 299.794 52.6149C299.105 52.1689 298.564 51.554 298.172 50.7702C297.794 49.9864 297.605 49.0743 297.605 48.0337C297.605 46.9932 297.794 46.0742 298.172 45.2769C298.564 44.4661 299.125 43.831 299.855 43.3715C300.585 42.912 301.45 42.6823 302.45 42.6823C303.152 42.6823 303.794 42.8242 304.375 43.108C304.956 43.3783 305.402 43.7634 305.713 44.2634V37.9187H308.166V53H305.896L305.733 51.4392C305.436 52.0067 304.977 52.4527 304.355 52.777C303.747 53.1014 303.064 53.2635 302.308 53.2635ZM302.855 50.9932C303.436 50.9932 303.936 50.8716 304.355 50.6283C304.774 50.3716 305.098 50.0135 305.328 49.554C305.571 49.081 305.693 48.5472 305.693 47.9526C305.693 47.3445 305.571 46.8175 305.328 46.3715C305.098 45.9121 304.774 45.554 304.355 45.2972C303.936 45.0269 303.436 44.8918 302.855 44.8918C302.287 44.8918 301.794 45.0269 301.375 45.2972C300.956 45.554 300.632 45.9121 300.402 46.3715C300.186 46.831 300.078 47.358 300.078 47.9526C300.078 48.5472 300.186 49.0743 300.402 49.5337C300.632 49.9932 300.956 50.3513 301.375 50.6081C301.794 50.8648 302.287 50.9932 302.855 50.9932ZM309.973 49.9594H312.324C312.338 50.3919 312.5 50.7365 312.811 50.9932C313.121 51.25 313.554 51.3784 314.108 51.3784C314.703 51.3784 315.149 51.2702 315.446 51.054C315.757 50.8378 315.912 50.5473 315.912 50.1824C315.912 49.9391 315.831 49.7229 315.669 49.5337C315.507 49.3445 315.203 49.2027 314.757 49.1081L312.953 48.6824C312.047 48.4797 311.371 48.1553 310.925 47.7094C310.493 47.2499 310.277 46.6215 310.277 45.8242C310.277 45.1756 310.446 44.6148 310.784 44.1418C311.135 43.6688 311.608 43.3107 312.203 43.0674C312.797 42.8107 313.48 42.6823 314.25 42.6823C314.993 42.6823 315.649 42.8174 316.216 43.0877C316.784 43.358 317.223 43.7364 317.534 44.2229C317.858 44.7094 318.027 45.2769 318.04 45.9256H315.689C315.689 45.4931 315.554 45.1553 315.284 44.9121C315.013 44.6553 314.635 44.5269 314.149 44.5269C313.662 44.5269 313.284 44.635 313.013 44.8512C312.743 45.0675 312.608 45.358 312.608 45.7229C312.608 46.2769 313.04 46.6553 313.905 46.858L315.709 47.2837C316.547 47.4729 317.176 47.777 317.595 48.1959C318.027 48.6148 318.243 49.2094 318.243 49.9797C318.243 50.6554 318.067 51.2432 317.716 51.7432C317.365 52.2297 316.872 52.6081 316.236 52.8784C315.601 53.1351 314.871 53.2635 314.047 53.2635C312.804 53.2635 311.811 52.9595 311.067 52.3513C310.338 51.7432 309.973 50.9459 309.973 49.9594ZM324.596 42.9864H330.921V45.054H324.596V42.9864ZM328.995 53H326.522V39.8647H328.995V53ZM331.792 47.9729C331.792 46.9324 332.021 46.0202 332.481 45.2364C332.94 44.4391 333.575 43.8174 334.386 43.3715C335.197 42.9255 336.116 42.7026 337.143 42.7026C338.184 42.7026 339.103 42.9255 339.9 43.3715C340.711 43.8174 341.346 44.4391 341.805 45.2364C342.265 46.0202 342.494 46.9324 342.494 47.9729C342.494 49.0135 342.265 49.9324 341.805 50.7297C341.346 51.5135 340.711 52.1284 339.9 52.5743C339.103 53.0203 338.184 53.2432 337.143 53.2432C336.116 53.2432 335.197 53.0203 334.386 52.5743C333.575 52.1284 332.94 51.5135 332.481 50.7297C332.021 49.9324 331.792 49.0135 331.792 47.9729ZM334.265 47.9729C334.265 48.581 334.386 49.1148 334.629 49.5743C334.886 50.0337 335.224 50.3919 335.643 50.6486C336.075 50.9054 336.575 51.0338 337.143 51.0338C337.711 51.0338 338.211 50.9054 338.643 50.6486C339.075 50.3919 339.413 50.0337 339.657 49.5743C339.9 49.1148 340.021 48.581 340.021 47.9729C340.021 47.3513 339.9 46.8175 339.657 46.3715C339.413 45.9121 339.075 45.554 338.643 45.2972C338.211 45.0404 337.711 44.9121 337.143 44.9121C336.575 44.9121 336.075 45.0404 335.643 45.2972C335.224 45.554 334.886 45.9121 334.629 46.3715C334.386 46.8175 334.265 47.3513 334.265 47.9729ZM352.878 38.1822V53H350.283V38.1822H352.878ZM356.162 46.6959H352.087V44.5066H356.02C356.736 44.5066 357.283 44.331 357.662 43.9796C358.04 43.6147 358.229 43.1012 358.229 42.4391C358.229 41.8039 358.033 41.3174 357.641 40.9796C357.249 40.6417 356.682 40.4728 355.939 40.4728H352.006V38.1822H356.162C357.635 38.1822 358.79 38.5404 359.628 39.2566C360.466 39.9728 360.885 40.9525 360.885 42.1958C360.885 43.0877 360.668 43.8377 360.236 44.4458C359.804 45.0404 359.162 45.4729 358.31 45.7431V45.4594C359.229 45.6756 359.925 46.081 360.398 46.6756C360.871 47.2702 361.108 48.0405 361.108 48.9864C361.108 49.8243 360.918 50.5473 360.54 51.1554C360.162 51.75 359.608 52.2094 358.878 52.5338C358.162 52.8446 357.297 53 356.283 53H352.006V50.7094H356.162C356.905 50.7094 357.472 50.5338 357.864 50.1824C358.256 49.831 358.452 49.3243 358.452 48.6621C358.452 48.0405 358.249 47.5607 357.844 47.2229C357.452 46.8715 356.891 46.6959 356.162 46.6959ZM363.122 53V42.9864H365.595V53H363.122ZM364.338 40.9796C363.919 40.9796 363.561 40.8377 363.264 40.5539C362.98 40.2566 362.838 39.8985 362.838 39.4796C362.838 39.0606 362.98 38.7093 363.264 38.4255C363.561 38.1417 363.919 37.9998 364.338 37.9998C364.757 37.9998 365.108 38.1417 365.392 38.4255C365.689 38.7093 365.838 39.0606 365.838 39.4796C365.838 39.8985 365.689 40.2566 365.392 40.5539C365.108 40.8377 364.757 40.9796 364.338 40.9796ZM367.157 42.9864H373.44V45.054H367.157V42.9864ZM373.461 38.0201V40.1282C373.326 40.1282 373.184 40.1282 373.035 40.1282C372.9 40.1282 372.758 40.1282 372.609 40.1282C371.988 40.1282 371.569 40.2769 371.353 40.5742C371.15 40.8715 371.049 41.2701 371.049 41.7701V53H368.596V41.7701C368.596 40.8512 368.744 40.1147 369.042 39.5606C369.339 38.9931 369.758 38.5809 370.299 38.3241C370.839 38.0539 371.467 37.9187 372.184 37.9187C372.386 37.9187 372.596 37.9255 372.812 37.939C373.042 37.9525 373.258 37.9795 373.461 38.0201ZM381.303 42.9458V45.2364H380.391C379.485 45.2364 378.776 45.4796 378.262 45.9661C377.749 46.4391 377.492 47.1621 377.492 48.1351V53H375.019V43.0066H377.35L377.553 45.0742H377.309C377.445 44.4121 377.762 43.8715 378.262 43.4526C378.762 43.0337 379.411 42.8242 380.208 42.8242C380.384 42.8242 380.559 42.8309 380.735 42.8445C380.911 42.858 381.1 42.8918 381.303 42.9458ZM382.052 47.9729C382.052 46.9324 382.282 46.0202 382.741 45.2364C383.201 44.4391 383.836 43.8174 384.647 43.3715C385.458 42.9255 386.377 42.7026 387.404 42.7026C388.444 42.7026 389.363 42.9255 390.16 43.3715C390.971 43.8174 391.606 44.4391 392.066 45.2364C392.525 46.0202 392.755 46.9324 392.755 47.9729C392.755 49.0135 392.525 49.9324 392.066 50.7297C391.606 51.5135 390.971 52.1284 390.16 52.5743C389.363 53.0203 388.444 53.2432 387.404 53.2432C386.377 53.2432 385.458 53.0203 384.647 52.5743C383.836 52.1284 383.201 51.5135 382.741 50.7297C382.282 49.9324 382.052 49.0135 382.052 47.9729ZM384.525 47.9729C384.525 48.581 384.647 49.1148 384.89 49.5743C385.147 50.0337 385.485 50.3919 385.904 50.6486C386.336 50.9054 386.836 51.0338 387.404 51.0338C387.971 51.0338 388.471 50.9054 388.904 50.6486C389.336 50.3919 389.674 50.0337 389.917 49.5743C390.16 49.1148 390.282 48.581 390.282 47.9729C390.282 47.3513 390.16 46.8175 389.917 46.3715C389.674 45.9121 389.336 45.554 388.904 45.2972C388.471 45.0404 387.971 44.9121 387.404 44.9121C386.836 44.9121 386.336 45.0404 385.904 45.2972C385.485 45.554 385.147 45.9121 384.89 46.3715C384.647 46.8175 384.525 47.3513 384.525 47.9729ZM393.945 49.9594H396.296C396.31 50.3919 396.472 50.7365 396.783 50.9932C397.094 51.25 397.526 51.3784 398.08 51.3784C398.675 51.3784 399.121 51.2702 399.418 51.054C399.729 50.8378 399.884 50.5473 399.884 50.1824C399.884 49.9391 399.803 49.7229 399.641 49.5337C399.479 49.3445 399.175 49.2027 398.729 49.1081L396.925 48.6824C396.019 48.4797 395.344 48.1553 394.898 47.7094C394.465 47.2499 394.249 46.6215 394.249 45.8242C394.249 45.1756 394.418 44.6148 394.756 44.1418C395.107 43.6688 395.58 43.3107 396.175 43.0674C396.769 42.8107 397.452 42.6823 398.222 42.6823C398.965 42.6823 399.621 42.8174 400.188 43.0877C400.756 43.358 401.195 43.7364 401.506 44.2229C401.83 44.7094 401.999 45.2769 402.013 45.9256H399.661C399.661 45.4931 399.526 45.1553 399.256 44.9121C398.986 44.6553 398.607 44.5269 398.121 44.5269C397.634 44.5269 397.256 44.635 396.986 44.8512C396.715 45.0675 396.58 45.358 396.58 45.7229C396.58 46.2769 397.013 46.6553 397.878 46.858L399.682 47.2837C400.519 47.4729 401.148 47.777 401.567 48.1959C401.999 48.6148 402.215 49.2094 402.215 49.9797C402.215 50.6554 402.04 51.2432 401.688 51.7432C401.337 52.2297 400.844 52.6081 400.209 52.8784C399.573 53.1351 398.844 53.2635 398.019 53.2635C396.776 53.2635 395.783 52.9595 395.04 52.3513C394.31 51.7432 393.945 50.9459 393.945 49.9594ZM403.105 42.9864H409.43V45.054H403.105V42.9864ZM407.504 53H405.031V39.8647H407.504V53ZM75.1833 73.9729C75.1833 72.9459 75.3928 72.0337 75.8117 71.2364C76.2442 70.4391 76.832 69.8174 77.5753 69.3715C78.332 68.912 79.2037 68.6823 80.1902 68.6823C81.555 68.6823 82.6699 69.0404 83.5348 69.7566C84.4132 70.4593 84.92 71.4121 85.0551 72.6148H82.5821C82.4334 72.0472 82.1564 71.6215 81.751 71.3377C81.3591 71.0404 80.8658 70.8918 80.2712 70.8918C79.7577 70.8918 79.2983 71.0202 78.8928 71.2769C78.5009 71.5202 78.1969 71.8715 77.9807 72.331C77.7645 72.7905 77.6563 73.3378 77.6563 73.9729C77.6563 74.6081 77.7577 75.1554 77.9604 75.6148C78.1631 76.0743 78.4537 76.4324 78.832 76.6892C79.2239 76.9324 79.6834 77.054 80.2104 77.054C80.8321 77.054 81.3456 76.9054 81.751 76.6081C82.1699 76.3108 82.4469 75.8851 82.5821 75.331H85.0754C84.9672 76.1148 84.6902 76.804 84.2443 77.3986C83.8118 77.9797 83.251 78.4392 82.5618 78.777C81.8726 79.1014 81.0888 79.2635 80.2104 79.2635C79.1969 79.2635 78.3118 79.0473 77.555 78.6149C76.7982 78.1689 76.2104 77.554 75.7915 76.7702C75.386 75.9729 75.1833 75.0405 75.1833 73.9729ZM93.1999 68.9458V71.2364H92.2877C91.3823 71.2364 90.6728 71.4796 90.1593 71.9661C89.6458 72.4391 89.389 73.1621 89.389 74.1351V79H86.916V69.0066H89.2471L89.4498 71.0742H89.2066C89.3417 70.4121 89.6593 69.8715 90.1593 69.4526C90.6593 69.0337 91.308 68.8242 92.1053 68.8242C92.281 68.8242 92.4566 68.8309 92.6323 68.8445C92.808 68.858 92.9972 68.8918 93.1999 68.9458ZM93.9494 73.9729C93.9494 72.9324 94.1791 72.0202 94.6386 71.2364C95.0981 70.4391 95.7332 69.8174 96.544 69.3715C97.3549 68.9255 98.2738 68.7026 99.3008 68.7026C100.341 68.7026 101.26 68.9255 102.058 69.3715C102.868 69.8174 103.504 70.4391 103.963 71.2364C104.423 72.0202 104.652 72.9324 104.652 73.9729C104.652 75.0135 104.423 75.9324 103.963 76.7297C103.504 77.5135 102.868 78.1284 102.058 78.5743C101.26 79.0203 100.341 79.2432 99.3008 79.2432C98.2738 79.2432 97.3549 79.0203 96.544 78.5743C95.7332 78.1284 95.0981 77.5135 94.6386 76.7297C94.1791 75.9324 93.9494 75.0135 93.9494 73.9729ZM96.4224 73.9729C96.4224 74.581 96.544 75.1148 96.7873 75.5743C97.0441 76.0337 97.3819 76.3919 97.8008 76.6486C98.2333 76.9054 98.7333 77.0338 99.3008 77.0338C99.8684 77.0338 100.368 76.9054 100.801 76.6486C101.233 76.3919 101.571 76.0337 101.814 75.5743C102.058 75.1148 102.179 74.581 102.179 73.9729C102.179 73.3513 102.058 72.8175 101.814 72.3715C101.571 71.9121 101.233 71.554 100.801 71.2972C100.368 71.0404 99.8684 70.9121 99.3008 70.9121C98.7333 70.9121 98.2333 71.0404 97.8008 71.2972C97.3819 71.554 97.0441 71.9121 96.7873 72.3715C96.544 72.8175 96.4224 73.3513 96.4224 73.9729ZM108.347 79L105.104 68.9864H107.678L108.996 73.2837C109.104 73.6756 109.212 74.0878 109.32 74.5202C109.428 74.9527 109.523 75.4054 109.604 75.8783C109.671 75.554 109.732 75.2567 109.786 74.9864C109.854 74.7162 109.928 74.4526 110.009 74.1959C110.09 73.9256 110.185 73.6216 110.293 73.2837L111.671 68.9864H114.185L115.523 73.2837C115.55 73.3783 115.59 73.5405 115.644 73.7702C115.712 73.9864 115.779 74.2229 115.847 74.4797C115.915 74.7364 115.975 74.9932 116.029 75.25C116.097 75.4932 116.144 75.7027 116.171 75.8783C116.225 75.6216 116.293 75.331 116.374 75.0067C116.455 74.6824 116.536 74.3716 116.617 74.0743C116.712 73.7634 116.786 73.4999 116.84 73.2837L118.178 68.9864H120.793L117.327 79H115.016L113.637 74.6621C113.435 73.9999 113.273 73.4391 113.151 72.9797C113.029 72.5067 112.948 72.1418 112.908 71.885C112.867 72.1283 112.793 72.4526 112.685 72.858C112.577 73.2634 112.394 73.8783 112.137 74.7026L110.759 79H108.347ZM125.93 79.2635C124.957 79.2635 124.119 79.0473 123.417 78.6149C122.728 78.1689 122.187 77.554 121.795 76.7702C121.417 75.9864 121.228 75.0743 121.228 74.0337C121.228 72.9932 121.417 72.0742 121.795 71.2769C122.187 70.4661 122.748 69.831 123.478 69.3715C124.207 68.912 125.072 68.6823 126.072 68.6823C126.775 68.6823 127.417 68.8242 127.998 69.108C128.579 69.3783 129.025 69.7634 129.336 70.2634V63.9187H131.788V79H129.518L129.356 77.4392C129.059 78.0067 128.599 78.4527 127.978 78.777C127.37 79.1014 126.687 79.2635 125.93 79.2635ZM126.478 76.9932C127.059 76.9932 127.559 76.8716 127.978 76.6283C128.397 76.3716 128.721 76.0135 128.951 75.554C129.194 75.081 129.315 74.5472 129.315 73.9526C129.315 73.3445 129.194 72.8175 128.951 72.3715C128.721 71.9121 128.397 71.554 127.978 71.2972C127.559 71.0269 127.059 70.8918 126.478 70.8918C125.91 70.8918 125.417 71.0269 124.998 71.2972C124.579 71.554 124.255 71.9121 124.025 72.3715C123.809 72.831 123.701 73.358 123.701 73.9526C123.701 74.5472 123.809 75.0743 124.025 75.5337C124.255 75.9932 124.579 76.3513 124.998 76.6081C125.417 76.8648 125.91 76.9932 126.478 76.9932ZM136.859 79H134.406V63.9187H136.859V79ZM138.865 73.9729C138.865 72.9324 139.095 72.0202 139.554 71.2364C140.014 70.4391 140.649 69.8174 141.46 69.3715C142.271 68.9255 143.19 68.7026 144.217 68.7026C145.257 68.7026 146.176 68.9255 146.973 69.3715C147.784 69.8174 148.419 70.4391 148.879 71.2364C149.338 72.0202 149.568 72.9324 149.568 73.9729C149.568 75.0135 149.338 75.9324 148.879 76.7297C148.419 77.5135 147.784 78.1284 146.973 78.5743C146.176 79.0203 145.257 79.2432 144.217 79.2432C143.19 79.2432 142.271 79.0203 141.46 78.5743C140.649 78.1284 140.014 77.5135 139.554 76.7297C139.095 75.9324 138.865 75.0135 138.865 73.9729ZM141.338 73.9729C141.338 74.581 141.46 75.1148 141.703 75.5743C141.96 76.0337 142.298 76.3919 142.717 76.6486C143.149 76.9054 143.649 77.0338 144.217 77.0338C144.784 77.0338 145.284 76.9054 145.717 76.6486C146.149 76.3919 146.487 76.0337 146.73 75.5743C146.973 75.1148 147.095 74.581 147.095 73.9729C147.095 73.3513 146.973 72.8175 146.73 72.3715C146.487 71.9121 146.149 71.554 145.717 71.2972C145.284 71.0404 144.784 70.9121 144.217 70.9121C143.649 70.9121 143.149 71.0404 142.717 71.2972C142.298 71.554 141.96 71.9121 141.703 72.3715C141.46 72.8175 141.338 73.3513 141.338 73.9729ZM154.508 79.2635C153.454 79.2635 152.616 78.9797 151.995 78.4122C151.386 77.8311 151.082 77.0743 151.082 76.1419C151.082 75.2229 151.4 74.4932 152.035 73.9526C152.684 73.3986 153.603 73.0742 154.792 72.9797L157.792 72.7364V72.5134C157.792 72.054 157.704 71.6891 157.528 71.4188C157.366 71.135 157.13 70.9323 156.819 70.8107C156.508 70.6756 156.143 70.608 155.724 70.608C154.995 70.608 154.434 70.7567 154.042 71.054C153.65 71.3377 153.454 71.7431 153.454 72.2702H151.346C151.346 71.5404 151.528 70.9121 151.893 70.385C152.272 69.8445 152.799 69.4256 153.474 69.1283C154.164 68.831 154.954 68.6823 155.846 68.6823C156.751 68.6823 157.528 68.8445 158.177 69.1688C158.826 69.4796 159.326 69.9526 159.677 70.5877C160.028 71.2094 160.204 71.9864 160.204 72.9188V79H158.035L157.853 77.5203C157.637 78.0338 157.218 78.4527 156.596 78.777C155.988 79.1014 155.292 79.2635 154.508 79.2635ZM155.299 77.3986C156.069 77.3986 156.677 77.1824 157.123 76.75C157.582 76.3175 157.812 75.7162 157.812 74.9459V74.4189L155.724 74.581C154.954 74.6486 154.407 74.8108 154.082 75.0675C153.758 75.3108 153.596 75.6351 153.596 76.0405C153.596 76.4865 153.745 76.8243 154.042 77.054C154.339 77.2838 154.758 77.3986 155.299 77.3986ZM165.107 79H162.634V68.9864H164.924L165.127 70.2837C165.438 69.7837 165.877 69.3918 166.444 69.108C167.026 68.8242 167.654 68.6823 168.33 68.6823C169.586 68.6823 170.532 69.0539 171.167 69.7972C171.816 70.5404 172.14 71.554 172.14 72.8378V79H169.667V73.4256C169.667 72.5878 169.478 71.9661 169.1 71.5607C168.721 71.1418 168.208 70.9323 167.559 70.9323C166.789 70.9323 166.188 71.1756 165.755 71.6621C165.323 72.1486 165.107 72.7972 165.107 73.608V79ZM179.446 73.9729C179.446 72.9459 179.655 72.0337 180.074 71.2364C180.507 70.4391 181.095 69.8174 181.838 69.3715C182.595 68.912 183.466 68.6823 184.453 68.6823C185.818 68.6823 186.933 69.0404 187.797 69.7566C188.676 70.4593 189.183 71.4121 189.318 72.6148H186.845C186.696 72.0472 186.419 71.6215 186.014 71.3377C185.622 71.0404 185.128 70.8918 184.534 70.8918C184.02 70.8918 183.561 71.0202 183.155 71.2769C182.764 71.5202 182.459 71.8715 182.243 72.331C182.027 72.7905 181.919 73.3378 181.919 73.9729C181.919 74.6081 182.02 75.1554 182.223 75.6148C182.426 76.0743 182.716 76.4324 183.095 76.6892C183.487 76.9324 183.946 77.054 184.473 77.054C185.095 77.054 185.608 76.9054 186.014 76.6081C186.432 76.3108 186.71 75.8851 186.845 75.331H189.338C189.23 76.1148 188.953 76.804 188.507 77.3986C188.074 77.9797 187.514 78.4392 186.824 78.777C186.135 79.1014 185.351 79.2635 184.473 79.2635C183.459 79.2635 182.574 79.0473 181.818 78.6149C181.061 78.1689 180.473 77.554 180.054 76.7702C179.649 75.9729 179.446 75.0405 179.446 73.9729ZM190.591 73.9729C190.591 72.9324 190.82 72.0202 191.28 71.2364C191.739 70.4391 192.375 69.8174 193.185 69.3715C193.996 68.9255 194.915 68.7026 195.942 68.7026C196.983 68.7026 197.902 68.9255 198.699 69.3715C199.51 69.8174 200.145 70.4391 200.604 71.2364C201.064 72.0202 201.294 72.9324 201.294 73.9729C201.294 75.0135 201.064 75.9324 200.604 76.7297C200.145 77.5135 199.51 78.1284 198.699 78.5743C197.902 79.0203 196.983 79.2432 195.942 79.2432C194.915 79.2432 193.996 79.0203 193.185 78.5743C192.375 78.1284 191.739 77.5135 191.28 76.7297C190.82 75.9324 190.591 75.0135 190.591 73.9729ZM193.064 73.9729C193.064 74.581 193.185 75.1148 193.429 75.5743C193.685 76.0337 194.023 76.3919 194.442 76.6486C194.875 76.9054 195.375 77.0338 195.942 77.0338C196.51 77.0338 197.01 76.9054 197.442 76.6486C197.875 76.3919 198.212 76.0337 198.456 75.5743C198.699 75.1148 198.821 74.581 198.821 73.9729C198.821 73.3513 198.699 72.8175 198.456 72.3715C198.212 71.9121 197.875 71.554 197.442 71.2972C197.01 71.0404 196.51 70.9121 195.942 70.9121C195.375 70.9121 194.875 71.0404 194.442 71.2972C194.023 71.554 193.685 71.9121 193.429 72.3715C193.185 72.8175 193.064 73.3513 193.064 73.9729ZM205.727 79H203.254V68.9864H205.544L205.747 70.2837C206.058 69.7837 206.497 69.3918 207.065 69.108C207.646 68.8242 208.274 68.6823 208.95 68.6823C210.207 68.6823 211.153 69.0539 211.788 69.7972C212.436 70.5404 212.761 71.554 212.761 72.8378V79H210.288V73.4256C210.288 72.5878 210.099 71.9661 209.72 71.5607C209.342 71.1418 208.828 70.9323 208.18 70.9323C207.409 70.9323 206.808 71.1756 206.375 71.6621C205.943 72.1486 205.727 72.7972 205.727 73.608V79ZM214.197 68.9864H220.522V71.054H214.197V68.9864ZM218.596 79H216.123V65.8647H218.596V79ZM228.363 68.9458V71.2364H227.451C226.546 71.2364 225.836 71.4796 225.323 71.9661C224.809 72.4391 224.552 73.1621 224.552 74.1351V79H222.079V69.0066H224.41L224.613 71.0742H224.37C224.505 70.4121 224.823 69.8715 225.323 69.4526C225.823 69.0337 226.471 68.8242 227.269 68.8242C227.444 68.8242 227.62 68.8309 227.796 68.8445C227.971 68.858 228.16 68.8918 228.363 68.9458ZM230.037 79V68.9864H232.51V79H230.037ZM231.253 66.9796C230.834 66.9796 230.476 66.8377 230.179 66.5539C229.895 66.2566 229.753 65.8985 229.753 65.4796C229.753 65.0606 229.895 64.7093 230.179 64.4255C230.476 64.1417 230.834 63.9998 231.253 63.9998C231.672 63.9998 232.024 64.1417 232.307 64.4255C232.605 64.7093 232.753 65.0606 232.753 65.4796C232.753 65.8985 232.605 66.2566 232.307 66.5539C232.024 66.8377 231.672 66.9796 231.253 66.9796ZM237.356 79H235.065V63.9187H237.538V70.4458C237.862 69.8783 238.335 69.4458 238.957 69.1485C239.579 68.8377 240.275 68.6823 241.045 68.6823C242.004 68.6823 242.822 68.912 243.498 69.3715C244.187 69.8174 244.714 70.4458 245.079 71.2567C245.457 72.0675 245.646 73.0067 245.646 74.0743C245.646 75.0878 245.45 75.9864 245.058 76.7702C244.667 77.554 244.112 78.1689 243.396 78.6149C242.68 79.0473 241.842 79.2635 240.883 79.2635C240.139 79.2635 239.464 79.1014 238.856 78.777C238.261 78.4527 237.815 78.0067 237.518 77.4392L237.356 79ZM237.558 73.9526C237.558 74.5472 237.673 75.081 237.903 75.554C238.133 76.0135 238.457 76.3716 238.876 76.6283C239.308 76.8716 239.808 76.9932 240.376 76.9932C240.957 76.9932 241.457 76.8648 241.876 76.6081C242.295 76.3513 242.612 75.9932 242.829 75.5337C243.045 75.0743 243.153 74.5472 243.153 73.9526C243.153 73.358 243.045 72.831 242.829 72.3715C242.612 71.9121 242.295 71.554 241.876 71.2972C241.457 71.0269 240.957 70.8918 240.376 70.8918C239.808 70.8918 239.308 71.0269 238.876 71.2972C238.457 71.554 238.133 71.9121 237.903 72.3715C237.673 72.8175 237.558 73.3445 237.558 73.9526ZM254.168 68.9864H256.641V79H254.351L254.168 77.6621C253.871 78.1351 253.425 78.5203 252.831 78.8176C252.236 79.1149 251.601 79.2635 250.925 79.2635C249.777 79.2635 248.878 78.8986 248.229 78.1689C247.581 77.4392 247.256 76.4662 247.256 75.25V68.9864H249.729V74.3783C249.729 75.3243 249.912 76.0067 250.277 76.4256C250.641 76.8446 251.168 77.054 251.858 77.054C252.641 77.054 253.223 76.8243 253.601 76.3648C253.979 75.8919 254.168 75.1824 254.168 74.2364V68.9864ZM258.202 68.9864H264.527V71.054H258.202V68.9864ZM262.601 79H260.128V65.8647H262.601V79ZM265.398 73.9729C265.398 72.9324 265.627 72.0202 266.087 71.2364C266.546 70.4391 267.182 69.8174 267.992 69.3715C268.803 68.9255 269.722 68.7026 270.749 68.7026C271.79 68.7026 272.709 68.9255 273.506 69.3715C274.317 69.8174 274.952 70.4391 275.411 71.2364C275.871 72.0202 276.101 72.9324 276.101 73.9729C276.101 75.0135 275.871 75.9324 275.411 76.7297C274.952 77.5135 274.317 78.1284 273.506 78.5743C272.709 79.0203 271.79 79.2432 270.749 79.2432C269.722 79.2432 268.803 79.0203 267.992 78.5743C267.182 78.1284 266.546 77.5135 266.087 76.7297C265.627 75.9324 265.398 75.0135 265.398 73.9729ZM267.871 73.9729C267.871 74.581 267.992 75.1148 268.236 75.5743C268.492 76.0337 268.83 76.3919 269.249 76.6486C269.682 76.9054 270.182 77.0338 270.749 77.0338C271.317 77.0338 271.817 76.9054 272.249 76.6486C272.682 76.3919 273.019 76.0337 273.263 75.5743C273.506 75.1148 273.628 74.581 273.628 73.9729C273.628 73.3513 273.506 72.8175 273.263 72.3715C273.019 71.9121 272.682 71.554 272.249 71.2972C271.817 71.0404 271.317 70.9121 270.749 70.9121C270.182 70.9121 269.682 71.0404 269.249 71.2972C268.83 71.554 268.492 71.9121 268.236 72.3715C267.992 72.8175 267.871 73.3513 267.871 73.9729ZM284.345 68.9458V71.2364H283.432C282.527 71.2364 281.818 71.4796 281.304 71.9661C280.791 72.4391 280.534 73.1621 280.534 74.1351V79H278.061V69.0066H280.392L280.595 71.0742H280.351C280.486 70.4121 280.804 69.8715 281.304 69.4526C281.804 69.0337 282.453 68.8242 283.25 68.8242C283.426 68.8242 283.601 68.8309 283.777 68.8445C283.953 68.858 284.142 68.8918 284.345 68.9458ZM285.248 75.9594H287.6C287.613 76.3919 287.775 76.7365 288.086 76.9932C288.397 77.25 288.829 77.3784 289.383 77.3784C289.978 77.3784 290.424 77.2702 290.721 77.054C291.032 76.8378 291.188 76.5473 291.188 76.1824C291.188 75.9391 291.106 75.7229 290.944 75.5337C290.782 75.3445 290.478 75.2027 290.032 75.1081L288.228 74.6824C287.323 74.4797 286.647 74.1553 286.201 73.7094C285.769 73.2499 285.552 72.6215 285.552 71.8242C285.552 71.1756 285.721 70.6148 286.059 70.1418C286.41 69.6688 286.883 69.3107 287.478 69.0674C288.073 68.8107 288.755 68.6823 289.525 68.6823C290.269 68.6823 290.924 68.8174 291.492 69.0877C292.059 69.358 292.498 69.7364 292.809 70.2229C293.134 70.7094 293.302 71.2769 293.316 71.9256H290.965C290.965 71.4931 290.829 71.1553 290.559 70.9121C290.289 70.6553 289.911 70.5269 289.424 70.5269C288.938 70.5269 288.559 70.635 288.289 70.8512C288.019 71.0675 287.883 71.358 287.883 71.7229C287.883 72.2769 288.316 72.6553 289.181 72.858L290.985 73.2837C291.823 73.4729 292.451 73.777 292.87 74.1959C293.302 74.6148 293.519 75.2094 293.519 75.9797C293.519 76.6554 293.343 77.2432 292.992 77.7432C292.64 78.2297 292.147 78.6081 291.512 78.8784C290.877 79.1351 290.147 79.2635 289.323 79.2635C288.079 79.2635 287.086 78.9595 286.343 78.3513C285.613 77.7432 285.248 76.9459 285.248 75.9594Z" fill="white"/>
<rect x="74.4941" y="99" width="388" height="5" rx="2.5" fill="white" fill-opacity="0.06"/>
<rect x="74.4941" y="113" width="388" height="5" rx="2.5" fill="white" fill-opacity="0.06"/>
<rect x="74.4941" y="127" width="166.595" height="5" rx="2.5" fill="white" fill-opacity="0.06"/>
<path d="M450.992 184.151L452.603 183.183C453.468 182.664 454.529 182.542 455.473 182.902C456.032 183.116 456.663 183.18 457.317 183.058C458.623 182.809 459.679 181.765 459.941 180.461C460.412 178.12 458.419 176.074 456.088 176.466C454.844 176.675 453.814 177.61 453.45 178.816C453.392 179.007 453.354 179.193 453.331 179.376C453.206 180.378 452.565 181.245 451.7 181.766L450.716 182.355C449.872 182.86 448.851 182.895 447.928 182.554C447.568 182.422 447.178 182.347 446.772 182.347C444.7 182.347 443.06 184.245 443.491 186.391C443.753 187.695 444.809 188.739 446.115 188.988C446.769 189.113 447.4 189.046 447.959 188.832C448.904 188.472 449.961 188.593 450.829 189.113L452.435 190.075C452.978 190.4 453.308 190.987 453.308 191.618V191.627C453.308 193.694 455.197 195.33 457.335 194.909C458.64 194.654 459.688 193.603 459.946 192.299C460.365 190.16 458.73 188.272 456.663 188.272C456.257 188.272 455.867 188.346 455.508 188.478C454.584 188.819 453.565 188.785 452.721 188.279L450.99 187.239C450.451 186.917 450.122 186.335 450.122 185.706V185.688C450.121 185.061 450.452 184.476 450.992 184.151L450.992 184.151Z" fill="#44444A"/>
<path d="M88.6236 177.075C88.1112 176.4 87.3001 176.02 86.4539 176.057C85.6077 176.095 84.8335 176.545 84.3831 177.263L80.7598 183.051V193.437C80.8453 193.481 80.9409 193.503 81.0366 193.5H89.5095C90.6199 193.502 91.592 192.756 91.8797 191.685L93.7492 184.858H93.7501C93.9119 184.251 93.7828 183.603 93.4012 183.104C93.0204 182.605 92.4274 182.314 91.7992 182.318H88.1851L89.0439 179.338C89.2603 178.559 89.1052 177.724 88.6237 177.075L88.6236 177.075Z" fill="url(#paint1_linear_623_3265)"/>
<path d="M78.3522 193.5H79.8644V183.211H78.3522C77.4883 183.213 76.7879 183.913 76.7871 184.777V191.934C76.7879 192.798 77.4883 193.499 78.3522 193.5Z" fill="url(#paint2_linear_623_3265)"/>
<path d="M126.624 196.484C126.111 197.158 125.3 197.539 124.454 197.501C123.608 197.464 122.833 197.013 122.383 196.296L118.76 190.508V180.121C118.845 180.078 118.941 180.056 119.037 180.058H127.509C128.62 180.057 129.592 180.802 129.88 181.874L131.749 188.701H131.75C131.912 189.308 131.783 189.955 131.401 190.454C131.02 190.953 130.427 191.244 129.799 191.241H126.185L127.044 194.22C127.26 194.999 127.105 195.835 126.624 196.484L126.624 196.484Z" fill="#FBCD9C"/>
<path d="M116.352 180.059H117.864V190.348H116.352C115.488 190.346 114.788 189.646 114.787 188.782V181.625C114.788 180.76 115.488 180.06 116.352 180.059Z" fill="#FBCD9C"/>
<line opacity="0.7" x1="74.4941" y1="153.342" x2="462.411" y2="153.342" stroke="#29292D"/>
<rect x="446.494" y="16" width="25" height="12" rx="6" fill="#2A3F39"/>
</g>
<g filter="url(#filter1_d_623_3265)">
<g filter="url(#filter2_d_623_3265)">
<rect x="44" y="226" width="444.639" height="484" rx="18" fill="url(#paint3_linear_623_3265)"/>
<rect x="71.4941" y="290" width="300" height="15" rx="7.5" fill="url(#paint4_linear_623_3265)"/>
<rect x="378.494" y="290" width="96" height="15" rx="7.5" fill="#FC607C"/>
<path d="M80.7341 267.192C79.5928 267.192 78.6008 266.947 77.7581 266.456C76.9261 265.955 76.2755 265.256 75.8061 264.36C75.3475 263.453 75.1181 262.387 75.1181 261.16C75.1181 259.944 75.3528 258.883 75.8221 257.976C76.3021 257.069 76.9741 256.365 77.8381 255.864C78.7021 255.363 79.6995 255.112 80.8301 255.112C81.7581 255.112 82.5901 255.283 83.3261 255.624C84.0621 255.965 84.6701 256.445 85.1501 257.064C85.6301 257.672 85.9341 258.397 86.0621 259.24H83.9021C83.6995 258.557 83.3208 258.029 82.7661 257.656C82.2221 257.272 81.5555 257.08 80.7661 257.08C80.0621 257.08 79.4435 257.245 78.9101 257.576C78.3875 257.907 77.9821 258.376 77.6941 258.984C77.4061 259.592 77.2621 260.317 77.2621 261.16C77.2621 261.971 77.4061 262.685 77.6941 263.304C77.9821 263.912 78.3875 264.387 78.9101 264.728C79.4435 265.059 80.0621 265.224 80.7661 265.224C81.5661 265.224 82.2488 265.032 82.8141 264.648C83.3901 264.264 83.7741 263.747 83.9661 263.096H86.0941C85.9448 263.907 85.6195 264.621 85.1181 265.24C84.6275 265.859 84.0035 266.339 83.2461 266.68C82.4995 267.021 81.6621 267.192 80.7341 267.192ZM93.0028 259.096H94.9548V267H93.1468L93.0028 265.944C92.7681 266.317 92.4161 266.621 91.9468 266.856C91.4774 267.091 90.9761 267.208 90.4428 267.208C89.5361 267.208 88.8268 266.92 88.3148 266.344C87.8028 265.768 87.5468 265 87.5468 264.04V259.096H89.4988V263.352C89.4988 264.099 89.6428 264.637 89.9308 264.968C90.2188 265.299 90.6348 265.464 91.1788 265.464C91.7974 265.464 92.2561 265.283 92.5548 264.92C92.8534 264.547 93.0028 263.987 93.0028 263.24V259.096ZM101.931 259.064V260.872H101.211C100.496 260.872 99.9362 261.064 99.5309 261.448C99.1256 261.821 98.9229 262.392 98.9229 263.16V267H96.9709V259.112H98.8109L98.9709 260.744H98.7789C98.8856 260.221 99.1362 259.795 99.5309 259.464C99.9256 259.133 100.438 258.968 101.067 258.968C101.206 258.968 101.344 258.973 101.483 258.984C101.622 258.995 101.771 259.021 101.931 259.064ZM108.212 259.064V260.872H107.492C106.777 260.872 106.217 261.064 105.812 261.448C105.407 261.821 105.204 262.392 105.204 263.16V267H103.252V259.112H105.092L105.252 260.744H105.06C105.167 260.221 105.417 259.795 105.812 259.464C106.207 259.133 106.719 258.968 107.348 258.968C107.487 258.968 107.625 258.973 107.764 258.984C107.903 258.995 108.052 259.021 108.212 259.064ZM112.804 267.208C112.025 267.208 111.332 267.032 110.724 266.68C110.126 266.317 109.657 265.827 109.316 265.208C108.974 264.579 108.804 263.859 108.804 263.048C108.804 262.227 108.969 261.501 109.3 260.872C109.63 260.243 110.094 259.752 110.692 259.4C111.289 259.037 111.972 258.856 112.74 258.856C113.54 258.856 114.228 259.027 114.804 259.368C115.38 259.699 115.822 260.163 116.132 260.76C116.452 261.357 116.612 262.072 116.612 262.904V263.496L109.828 263.512L109.86 262.264H114.676C114.676 261.72 114.5 261.283 114.148 260.952C113.806 260.621 113.342 260.456 112.756 260.456C112.297 260.456 111.908 260.552 111.588 260.744C111.278 260.936 111.044 261.224 110.884 261.608C110.724 261.992 110.644 262.461 110.644 263.016C110.644 263.869 110.825 264.515 111.188 264.952C111.561 265.389 112.11 265.608 112.836 265.608C113.369 265.608 113.806 265.507 114.148 265.304C114.5 265.101 114.729 264.813 114.836 264.44H116.644C116.473 265.304 116.046 265.981 115.364 266.472C114.692 266.963 113.838 267.208 112.804 267.208ZM120.126 267H118.174V259.096H119.982L120.142 260.12C120.387 259.725 120.734 259.416 121.182 259.192C121.641 258.968 122.137 258.856 122.67 258.856C123.662 258.856 124.409 259.149 124.91 259.736C125.422 260.323 125.678 261.123 125.678 262.136V267H123.726V262.6C123.726 261.939 123.577 261.448 123.278 261.128C122.979 260.797 122.574 260.632 122.062 260.632C121.454 260.632 120.979 260.824 120.638 261.208C120.297 261.592 120.126 262.104 120.126 262.744V267ZM126.812 259.096H131.804V260.728H126.812V259.096ZM130.284 267H128.332V256.632H130.284V267ZM142.306 259.064V260.872H141.586C140.871 260.872 140.311 261.064 139.906 261.448C139.501 261.821 139.298 262.392 139.298 263.16V267H137.346V259.112H139.186L139.346 260.744H139.154C139.261 260.221 139.511 259.795 139.906 259.464C140.301 259.133 140.813 258.968 141.442 258.968C141.581 258.968 141.719 258.973 141.858 258.984C141.997 258.995 142.146 259.021 142.306 259.064ZM146.898 267.208C146.119 267.208 145.426 267.032 144.818 266.68C144.22 266.317 143.751 265.827 143.41 265.208C143.068 264.579 142.898 263.859 142.898 263.048C142.898 262.227 143.063 261.501 143.394 260.872C143.724 260.243 144.188 259.752 144.786 259.4C145.383 259.037 146.066 258.856 146.834 258.856C147.634 258.856 148.322 259.027 148.898 259.368C149.474 259.699 149.916 260.163 150.226 260.76C150.546 261.357 150.706 262.072 150.706 262.904V263.496L143.922 263.512L143.954 262.264H148.77C148.77 261.72 148.594 261.283 148.242 260.952C147.9 260.621 147.436 260.456 146.85 260.456C146.391 260.456 146.002 260.552 145.682 260.744C145.372 260.936 145.138 261.224 144.978 261.608C144.818 261.992 144.738 262.461 144.738 263.016C144.738 263.869 144.919 264.515 145.282 264.952C145.655 265.389 146.204 265.608 146.93 265.608C147.463 265.608 147.9 265.507 148.242 265.304C148.594 265.101 148.823 264.813 148.93 264.44H150.738C150.567 265.304 150.14 265.981 149.458 266.472C148.786 266.963 147.932 267.208 146.898 267.208ZM151.66 264.6H153.516C153.526 264.941 153.654 265.213 153.9 265.416C154.145 265.619 154.486 265.72 154.924 265.72C155.393 265.72 155.745 265.635 155.98 265.464C156.225 265.293 156.348 265.064 156.348 264.776C156.348 264.584 156.284 264.413 156.156 264.264C156.028 264.115 155.788 264.003 155.436 263.928L154.012 263.592C153.297 263.432 152.764 263.176 152.412 262.824C152.07 262.461 151.9 261.965 151.9 261.336C151.9 260.824 152.033 260.381 152.3 260.008C152.577 259.635 152.95 259.352 153.42 259.16C153.889 258.957 154.428 258.856 155.036 258.856C155.622 258.856 156.14 258.963 156.588 259.176C157.036 259.389 157.382 259.688 157.628 260.072C157.884 260.456 158.017 260.904 158.028 261.416H156.172C156.172 261.075 156.065 260.808 155.852 260.616C155.638 260.413 155.34 260.312 154.956 260.312C154.572 260.312 154.273 260.397 154.06 260.568C153.846 260.739 153.74 260.968 153.74 261.256C153.74 261.693 154.081 261.992 154.764 262.152L156.188 262.488C156.849 262.637 157.345 262.877 157.676 263.208C158.017 263.539 158.188 264.008 158.188 264.616C158.188 265.149 158.049 265.613 157.772 266.008C157.494 266.392 157.105 266.691 156.604 266.904C156.102 267.107 155.526 267.208 154.876 267.208C153.894 267.208 153.11 266.968 152.524 266.488C151.948 266.008 151.66 265.379 151.66 264.6ZM165.034 259.096H166.986V267H165.178L165.034 265.944C164.799 266.317 164.447 266.621 163.978 266.856C163.509 267.091 163.007 267.208 162.474 267.208C161.567 267.208 160.858 266.92 160.346 266.344C159.834 265.768 159.578 265 159.578 264.04V259.096H161.53V263.352C161.53 264.099 161.674 264.637 161.962 264.968C162.25 265.299 162.666 265.464 163.21 265.464C163.829 265.464 164.287 265.283 164.586 264.92C164.885 264.547 165.034 263.987 165.034 263.24V259.096ZM170.97 267H169.034V255.096H170.97V267ZM172.234 259.096H177.226V260.728H172.234V259.096ZM175.706 267H173.754V256.632H175.706V267ZM177.847 264.6H179.703C179.714 264.941 179.842 265.213 180.087 265.416C180.333 265.619 180.674 265.72 181.111 265.72C181.581 265.72 181.933 265.635 182.167 265.464C182.413 265.293 182.535 265.064 182.535 264.776C182.535 264.584 182.471 264.413 182.343 264.264C182.215 264.115 181.975 264.003 181.623 263.928L180.199 263.592C179.485 263.432 178.951 263.176 178.599 262.824C178.258 262.461 178.087 261.965 178.087 261.336C178.087 260.824 178.221 260.381 178.487 260.008C178.765 259.635 179.138 259.352 179.607 259.16C180.077 258.957 180.615 258.856 181.223 258.856C181.81 258.856 182.327 258.963 182.775 259.176C183.223 259.389 183.57 259.688 183.815 260.072C184.071 260.456 184.205 260.904 184.215 261.416H182.359C182.359 261.075 182.253 260.808 182.039 260.616C181.826 260.413 181.527 260.312 181.143 260.312C180.759 260.312 180.461 260.397 180.247 260.568C180.034 260.739 179.927 260.968 179.927 261.256C179.927 261.693 180.269 261.992 180.951 262.152L182.375 262.488C183.037 262.637 183.533 262.877 183.863 263.208C184.205 263.539 184.375 264.008 184.375 264.616C184.375 265.149 184.237 265.613 183.959 266.008C183.682 266.392 183.293 266.691 182.791 266.904C182.29 267.107 181.714 267.208 181.063 267.208C180.082 267.208 179.298 266.968 178.711 266.488C178.135 266.008 177.847 265.379 177.847 264.6Z" fill="white"/>
<path d="M75.2101 323H73.6261L76.7941 314.228H78.3661L81.5341 323H79.9141L79.2061 320.972H75.9301L75.2101 323ZM77.3821 316.844L76.3741 319.676H78.7621L77.7541 316.844C77.7221 316.724 77.6861 316.604 77.6461 316.484C77.6061 316.364 77.5821 316.26 77.5741 316.172C77.5581 316.252 77.5301 316.356 77.4901 316.484C77.4581 316.604 77.4221 316.724 77.3821 316.844ZM82.9894 317.072L84.9214 322.544L84.1294 324.044L81.4414 317.072H82.9894ZM81.5974 325.748V324.536H82.4734C82.6654 324.536 82.8334 324.512 82.9774 324.464C83.1214 324.424 83.2494 324.344 83.3614 324.224C83.4814 324.104 83.5814 323.928 83.6614 323.696L86.1214 317.072H87.6334L84.7294 324.32C84.5134 324.864 84.2414 325.26 83.9134 325.508C83.5854 325.756 83.1774 325.88 82.6894 325.88C82.4814 325.88 82.2854 325.868 82.1014 325.844C81.9254 325.828 81.7574 325.796 81.5974 325.748ZM90.8475 323.156C90.2635 323.156 89.7435 323.024 89.2875 322.76C88.8395 322.488 88.4875 322.12 88.2315 321.656C87.9755 321.184 87.8475 320.644 87.8475 320.036C87.8475 319.42 87.9715 318.876 88.2195 318.404C88.4675 317.932 88.8155 317.564 89.2635 317.3C89.7115 317.028 90.2235 316.892 90.7995 316.892C91.3995 316.892 91.9155 317.02 92.3475 317.276C92.7795 317.524 93.1115 317.872 93.3435 318.32C93.5835 318.768 93.7035 319.304 93.7035 319.928V320.372L88.6155 320.384L88.6395 319.448H92.2515C92.2515 319.04 92.1195 318.712 91.8555 318.464C91.5995 318.216 91.2515 318.092 90.8115 318.092C90.4675 318.092 90.1755 318.164 89.9355 318.308C89.7035 318.452 89.5275 318.668 89.4075 318.956C89.2875 319.244 89.2275 319.596 89.2275 320.012C89.2275 320.652 89.3635 321.136 89.6355 321.464C89.9155 321.792 90.3275 321.956 90.8715 321.956C91.2715 321.956 91.5995 321.88 91.8555 321.728C92.1195 321.576 92.2915 321.36 92.3715 321.08H93.7275C93.5995 321.728 93.2795 322.236 92.7675 322.604C92.2635 322.972 91.6235 323.156 90.8475 323.156Z" fill="white"/>
<path d="M73.5641 333.69H78.8141V334.87H73.5641V333.69ZM77.8141 334.23L78.8141 334.87L76.1641 341H74.8341L77.8141 334.23ZM79.4601 340.91L79.5801 340.88C79.5267 340.927 79.4667 340.963 79.4001 340.99C79.3401 341.01 79.2667 341.02 79.1801 341.02C78.9867 341.02 78.8201 340.957 78.6801 340.83C78.5401 340.697 78.4701 340.53 78.4701 340.33C78.4701 340.09 78.5401 339.897 78.6801 339.75C78.8201 339.603 79.0034 339.53 79.2301 339.53C79.4834 339.53 79.6901 339.623 79.8501 339.81C80.0101 339.997 80.0901 340.247 80.0901 340.56C80.0901 340.833 80.0301 341.083 79.9101 341.31C79.7901 341.543 79.6234 341.733 79.4101 341.88C79.1967 342.027 78.9534 342.117 78.6801 342.15V341.66C78.9067 341.62 79.0934 341.533 79.2401 341.4C79.3867 341.273 79.4601 341.11 79.4601 340.91ZM81.9075 335.84L83.4875 333.69H84.9475L82.8875 336.44L82.5675 336.36C82.7142 336.227 82.8942 336.123 83.1075 336.05C83.3275 335.977 83.5408 335.94 83.7475 335.94C84.2475 335.94 84.6875 336.05 85.0675 336.27C85.4475 336.483 85.7442 336.783 85.9575 337.17C86.1708 337.55 86.2775 337.987 86.2775 338.48C86.2775 339 86.1575 339.46 85.9175 339.86C85.6842 340.253 85.3608 340.563 84.9475 340.79C84.5408 341.017 84.0775 341.13 83.5575 341.13C83.0308 341.13 82.5575 341.013 82.1375 340.78C81.7242 340.547 81.3975 340.23 81.1575 339.83C80.9175 339.423 80.7975 338.97 80.7975 338.47C80.7975 338.17 80.8308 337.893 80.8975 337.64C80.9708 337.38 81.0875 337.107 81.2475 336.82C81.4142 336.533 81.6342 336.207 81.9075 335.84ZM82.1075 338.48C82.1075 338.78 82.1675 339.043 82.2875 339.27C82.4142 339.497 82.5842 339.673 82.7975 339.8C83.0175 339.927 83.2708 339.99 83.5575 339.99C83.8375 339.99 84.0842 339.927 84.2975 339.8C84.5108 339.673 84.6775 339.497 84.7975 339.27C84.9242 339.043 84.9875 338.78 84.9875 338.48C84.9875 338.187 84.9242 337.93 84.7975 337.71C84.6775 337.483 84.5108 337.307 84.2975 337.18C84.0842 337.053 83.8375 336.99 83.5575 336.99C83.2708 336.99 83.0175 337.053 82.7975 337.18C82.5775 337.307 82.4075 337.483 82.2875 337.71C82.1675 337.93 82.1075 338.187 82.1075 338.48ZM87.0687 337.36C87.0687 336.6 87.1953 335.937 87.4487 335.37C87.7087 334.803 88.0687 334.36 88.5287 334.04C88.9953 333.713 89.5387 333.55 90.1587 333.55C90.7853 333.55 91.3287 333.713 91.7887 334.04C92.2553 334.36 92.6153 334.803 92.8687 335.37C93.1287 335.937 93.2587 336.6 93.2587 337.36C93.2587 338.113 93.1353 338.773 92.8887 339.34C92.642 339.907 92.2887 340.347 91.8287 340.66C91.3687 340.973 90.812 341.13 90.1587 341.13C89.5187 341.13 88.9653 340.973 88.4987 340.66C88.0387 340.347 87.6853 339.907 87.4387 339.34C87.192 338.773 87.0687 338.113 87.0687 337.36ZM88.3287 337.36C88.3287 337.92 88.402 338.4 88.5487 338.8C88.6953 339.193 88.9053 339.493 89.1787 339.7C89.452 339.9 89.7787 340 90.1587 340C90.552 340 90.882 339.9 91.1487 339.7C91.422 339.493 91.632 339.193 91.7787 338.8C91.9253 338.4 91.9987 337.92 91.9987 337.36C91.9987 336.78 91.9253 336.293 91.7787 335.9C91.632 335.5 91.422 335.197 91.1487 334.99C90.882 334.783 90.552 334.68 90.1587 334.68C89.7787 334.68 89.452 334.783 89.1787 334.99C88.9053 335.197 88.6953 335.5 88.5487 335.9C88.402 336.293 88.3287 336.78 88.3287 337.36ZM98.8895 333.69V341H97.6795V333.69H98.8895ZM93.9695 338.49L97.2795 333.69H98.6295L95.2695 338.57L93.9695 338.49ZM99.7795 339.61H93.9695V338.49H99.7795V339.61ZM101.628 340.91L101.748 340.88C101.695 340.927 101.635 340.963 101.568 340.99C101.508 341.01 101.435 341.02 101.348 341.02C101.155 341.02 100.988 340.957 100.848 340.83C100.708 340.697 100.638 340.53 100.638 340.33C100.638 340.09 100.708 339.897 100.848 339.75C100.988 339.603 101.171 339.53 101.398 339.53C101.651 339.53 101.858 339.623 102.018 339.81C102.178 339.997 102.258 340.247 102.258 340.56C102.258 340.833 102.198 341.083 102.078 341.31C101.958 341.543 101.791 341.733 101.578 341.88C101.365 342.027 101.121 342.117 100.848 342.15V341.66C101.075 341.62 101.261 341.533 101.408 341.4C101.555 341.273 101.628 341.11 101.628 340.91ZM103.27 338.93C103.27 338.43 103.416 338.003 103.71 337.65C104.01 337.29 104.4 337.063 104.88 336.97L104.89 337.2C104.456 337.087 104.12 336.883 103.88 336.59C103.646 336.297 103.53 335.94 103.53 335.52C103.53 335.133 103.636 334.793 103.85 334.5C104.063 334.207 104.36 333.977 104.74 333.81C105.126 333.643 105.57 333.56 106.07 333.56C106.57 333.56 107.006 333.643 107.38 333.81C107.76 333.97 108.053 334.2 108.26 334.5C108.473 334.793 108.58 335.14 108.58 335.54C108.58 335.96 108.46 336.317 108.22 336.61C107.98 336.897 107.643 337.09 107.21 337.19L107.2 336.98C107.526 337.027 107.813 337.143 108.06 337.33C108.306 337.51 108.496 337.737 108.63 338.01C108.77 338.283 108.84 338.59 108.84 338.93C108.84 339.37 108.723 339.757 108.49 340.09C108.263 340.417 107.94 340.67 107.52 340.85C107.106 341.03 106.616 341.12 106.05 341.12C105.49 341.12 105 341.03 104.58 340.85C104.166 340.67 103.843 340.417 103.61 340.09C103.383 339.757 103.27 339.37 103.27 338.93ZM104.52 338.84C104.52 339.073 104.58 339.277 104.7 339.45C104.826 339.623 105.003 339.757 105.23 339.85C105.463 339.943 105.74 339.99 106.06 339.99C106.366 339.99 106.633 339.943 106.86 339.85C107.093 339.757 107.27 339.627 107.39 339.46C107.516 339.287 107.58 339.08 107.58 338.84C107.58 338.487 107.44 338.207 107.16 338C106.886 337.793 106.516 337.69 106.05 337.69C105.583 337.69 105.21 337.793 104.93 338C104.656 338.207 104.52 338.487 104.52 338.84ZM104.69 335.63C104.69 335.93 104.813 336.173 105.06 336.36C105.306 336.54 105.636 336.63 106.05 336.63C106.456 336.63 106.78 336.54 107.02 336.36C107.266 336.18 107.39 335.94 107.39 335.64C107.39 335.333 107.266 335.093 107.02 334.92C106.78 334.74 106.456 334.65 106.05 334.65C105.636 334.65 105.306 334.74 105.06 334.92C104.813 335.093 104.69 335.33 104.69 335.63ZM112.177 341.12C111.67 341.12 111.223 341.02 110.837 340.82C110.457 340.613 110.16 340.327 109.947 339.96C109.74 339.587 109.637 339.153 109.637 338.66H110.897C110.897 339.073 111.013 339.397 111.247 339.63C111.48 339.863 111.8 339.98 112.207 339.98C112.493 339.98 112.74 339.923 112.947 339.81C113.16 339.69 113.323 339.52 113.437 339.3C113.557 339.08 113.617 338.823 113.617 338.53C113.617 338.25 113.56 338.003 113.447 337.79C113.34 337.57 113.183 337.4 112.977 337.28C112.77 337.16 112.52 337.1 112.227 337.1C111.947 337.1 111.687 337.163 111.447 337.29C111.213 337.41 111.03 337.567 110.897 337.76L109.767 337.52L110.667 333.69H114.477V334.87H111.257L111.687 334.47L111.097 336.8L110.667 336.98C110.827 336.673 111.067 336.44 111.387 336.28C111.713 336.113 112.08 336.03 112.487 336.03C112.973 336.03 113.397 336.133 113.757 336.34C114.123 336.547 114.407 336.833 114.607 337.2C114.813 337.56 114.917 337.98 114.917 338.46C114.917 338.987 114.8 339.45 114.567 339.85C114.34 340.25 114.02 340.563 113.607 340.79C113.2 341.01 112.723 341.12 112.177 341.12ZM119.923 338.85L118.343 341H116.883L118.943 338.25L119.263 338.33C119.117 338.457 118.933 338.56 118.713 338.64C118.5 338.713 118.29 338.75 118.083 338.75C117.583 338.75 117.143 338.643 116.763 338.43C116.383 338.21 116.087 337.91 115.873 337.53C115.66 337.143 115.553 336.703 115.553 336.21C115.553 335.69 115.67 335.23 115.903 334.83C116.143 334.43 116.467 334.12 116.873 333.9C117.287 333.673 117.753 333.56 118.273 333.56C118.8 333.56 119.27 333.68 119.683 333.92C120.103 334.153 120.433 334.47 120.673 334.87C120.913 335.27 121.033 335.72 121.033 336.22C121.033 336.513 120.997 336.79 120.923 337.05C120.85 337.31 120.733 337.583 120.573 337.87C120.413 338.15 120.197 338.477 119.923 338.85ZM119.723 336.21C119.723 335.91 119.663 335.647 119.543 335.42C119.423 335.193 119.253 335.017 119.033 334.89C118.813 334.763 118.56 334.7 118.273 334.7C117.993 334.7 117.743 334.763 117.523 334.89C117.31 335.017 117.143 335.193 117.023 335.42C116.903 335.647 116.843 335.91 116.843 336.21C116.843 336.503 116.903 336.763 117.023 336.99C117.143 337.21 117.31 337.383 117.523 337.51C117.743 337.637 117.993 337.7 118.273 337.7C118.567 337.7 118.82 337.637 119.033 337.51C119.253 337.383 119.423 337.21 119.543 336.99C119.663 336.763 119.723 336.503 119.723 336.21ZM122.483 341.12C122.263 341.12 122.073 341.043 121.913 340.89C121.753 340.737 121.673 340.55 121.673 340.33C121.673 340.11 121.753 339.923 121.913 339.77C122.073 339.61 122.263 339.53 122.483 339.53C122.703 339.53 122.893 339.61 123.053 339.77C123.213 339.923 123.293 340.11 123.293 340.33C123.293 340.55 123.213 340.737 123.053 340.89C122.893 341.043 122.703 341.12 122.483 341.12ZM124.305 338.93C124.305 338.43 124.451 338.003 124.745 337.65C125.045 337.29 125.435 337.063 125.915 336.97L125.925 337.2C125.491 337.087 125.155 336.883 124.915 336.59C124.681 336.297 124.565 335.94 124.565 335.52C124.565 335.133 124.671 334.793 124.885 334.5C125.098 334.207 125.395 333.977 125.775 333.81C126.161 333.643 126.605 333.56 127.105 333.56C127.605 333.56 128.041 333.643 128.415 333.81C128.795 333.97 129.088 334.2 129.295 334.5C129.508 334.793 129.615 335.14 129.615 335.54C129.615 335.96 129.495 336.317 129.255 336.61C129.015 336.897 128.678 337.09 128.245 337.19L128.235 336.98C128.561 337.027 128.848 337.143 129.095 337.33C129.341 337.51 129.531 337.737 129.665 338.01C129.805 338.283 129.875 338.59 129.875 338.93C129.875 339.37 129.758 339.757 129.525 340.09C129.298 340.417 128.975 340.67 128.555 340.85C128.141 341.03 127.651 341.12 127.085 341.12C126.525 341.12 126.035 341.03 125.615 340.85C125.201 340.67 124.878 340.417 124.645 340.09C124.418 339.757 124.305 339.37 124.305 338.93ZM125.555 338.84C125.555 339.073 125.615 339.277 125.735 339.45C125.861 339.623 126.038 339.757 126.265 339.85C126.498 339.943 126.775 339.99 127.095 339.99C127.401 339.99 127.668 339.943 127.895 339.85C128.128 339.757 128.305 339.627 128.425 339.46C128.551 339.287 128.615 339.08 128.615 338.84C128.615 338.487 128.475 338.207 128.195 338C127.921 337.793 127.551 337.69 127.085 337.69C126.618 337.69 126.245 337.793 125.965 338C125.691 338.207 125.555 338.487 125.555 338.84ZM125.725 335.63C125.725 335.93 125.848 336.173 126.095 336.36C126.341 336.54 126.671 336.63 127.085 336.63C127.491 336.63 127.815 336.54 128.055 336.36C128.301 336.18 128.425 335.94 128.425 335.64C128.425 335.333 128.301 335.093 128.055 334.92C127.815 334.74 127.491 334.65 127.085 334.65C126.671 334.65 126.341 334.74 126.095 334.92C125.848 335.093 125.725 335.33 125.725 335.63ZM130.711 338.93C130.711 338.43 130.858 338.003 131.151 337.65C131.451 337.29 131.841 337.063 132.321 336.97L132.331 337.2C131.898 337.087 131.561 336.883 131.321 336.59C131.088 336.297 130.971 335.94 130.971 335.52C130.971 335.133 131.078 334.793 131.291 334.5C131.504 334.207 131.801 333.977 132.181 333.81C132.568 333.643 133.011 333.56 133.511 333.56C134.011 333.56 134.448 333.643 134.821 333.81C135.201 333.97 135.494 334.2 135.701 334.5C135.914 334.793 136.021 335.14 136.021 335.54C136.021 335.96 135.901 336.317 135.661 336.61C135.421 336.897 135.084 337.09 134.651 337.19L134.641 336.98C134.968 337.027 135.254 337.143 135.501 337.33C135.748 337.51 135.938 337.737 136.071 338.01C136.211 338.283 136.281 338.59 136.281 338.93C136.281 339.37 136.164 339.757 135.931 340.09C135.704 340.417 135.381 340.67 134.961 340.85C134.548 341.03 134.058 341.12 133.491 341.12C132.931 341.12 132.441 341.03 132.021 340.85C131.608 340.67 131.284 340.417 131.051 340.09C130.824 339.757 130.711 339.37 130.711 338.93ZM131.961 338.84C131.961 339.073 132.021 339.277 132.141 339.45C132.268 339.623 132.444 339.757 132.671 339.85C132.904 339.943 133.181 339.99 133.501 339.99C133.808 339.99 134.074 339.943 134.301 339.85C134.534 339.757 134.711 339.627 134.831 339.46C134.958 339.287 135.021 339.08 135.021 338.84C135.021 338.487 134.881 338.207 134.601 338C134.328 337.793 133.958 337.69 133.491 337.69C133.024 337.69 132.651 337.793 132.371 338C132.098 338.207 131.961 338.487 131.961 338.84ZM132.131 335.63C132.131 335.93 132.254 336.173 132.501 336.36C132.748 336.54 133.078 336.63 133.491 336.63C133.898 336.63 134.221 336.54 134.461 336.36C134.708 336.18 134.831 335.94 134.831 335.64C134.831 335.333 134.708 335.093 134.461 334.92C134.221 334.74 133.898 334.65 133.491 334.65C133.078 334.65 132.748 334.74 132.501 334.92C132.254 335.093 132.131 335.33 132.131 335.63ZM141.483 333.69V341H140.203V333.69H141.483ZM143.103 337.89H141.093V336.81H143.033C143.386 336.81 143.656 336.723 143.843 336.55C144.029 336.37 144.123 336.117 144.123 335.79C144.123 335.477 144.026 335.237 143.833 335.07C143.639 334.903 143.359 334.82 142.993 334.82H141.053V333.69H143.103C143.829 333.69 144.399 333.867 144.813 334.22C145.226 334.573 145.433 335.057 145.433 335.67C145.433 336.11 145.326 336.48 145.113 336.78C144.899 337.073 144.583 337.287 144.163 337.42V337.28C144.616 337.387 144.959 337.587 145.193 337.88C145.426 338.173 145.543 338.553 145.543 339.02C145.543 339.433 145.449 339.79 145.263 340.09C145.076 340.383 144.803 340.61 144.443 340.77C144.089 340.923 143.663 341 143.163 341H141.053V339.87H143.103C143.469 339.87 143.749 339.783 143.943 339.61C144.136 339.437 144.233 339.187 144.233 338.86C144.233 338.553 144.133 338.317 143.933 338.15C143.739 337.977 143.463 337.89 143.103 337.89ZM146.296 335.73C146.296 335.303 146.406 334.927 146.626 334.6C146.846 334.273 147.15 334.02 147.536 333.84C147.93 333.653 148.383 333.56 148.896 333.56C149.39 333.56 149.816 333.647 150.176 333.82C150.543 333.993 150.826 334.24 151.026 334.56C151.233 334.88 151.343 335.26 151.356 335.7H150.076C150.063 335.387 149.95 335.143 149.736 334.97C149.523 334.79 149.236 334.7 148.876 334.7C148.483 334.7 148.166 334.79 147.926 334.97C147.693 335.143 147.576 335.383 147.576 335.69C147.576 335.95 147.646 336.157 147.786 336.31C147.933 336.457 148.16 336.567 148.466 336.64L149.616 336.9C150.243 337.033 150.71 337.263 151.016 337.59C151.323 337.91 151.476 338.343 151.476 338.89C151.476 339.337 151.366 339.73 151.146 340.07C150.926 340.41 150.613 340.673 150.206 340.86C149.806 341.04 149.336 341.13 148.796 341.13C148.283 341.13 147.833 341.043 147.446 340.87C147.06 340.69 146.756 340.44 146.536 340.12C146.323 339.8 146.21 339.423 146.196 338.99H147.476C147.483 339.297 147.603 339.54 147.836 339.72C148.076 339.893 148.4 339.98 148.806 339.98C149.233 339.98 149.57 339.893 149.816 339.72C150.07 339.54 150.196 339.303 150.196 339.01C150.196 338.757 150.13 338.557 149.996 338.41C149.863 338.257 149.646 338.15 149.346 338.09L148.186 337.83C147.566 337.697 147.096 337.457 146.776 337.11C146.456 336.757 146.296 336.297 146.296 335.73ZM154.474 337.35L152.044 333.69H153.564L154.454 335.01C154.601 335.223 154.738 335.443 154.864 335.67C154.998 335.89 155.134 336.123 155.274 336.37L156.974 333.69H158.464L156.074 337.34L158.474 341H156.964L156.144 339.79C155.978 339.543 155.828 339.303 155.694 339.07C155.561 338.837 155.418 338.59 155.264 338.33L153.494 341H151.994L154.474 337.35Z" fill="#787E82"/>
<path d="M394.964 335.84L396.544 333.69H398.004L395.944 336.44L395.624 336.36C395.771 336.227 395.951 336.123 396.164 336.05C396.384 335.977 396.597 335.94 396.804 335.94C397.304 335.94 397.744 336.05 398.124 336.27C398.504 336.483 398.801 336.783 399.014 337.17C399.227 337.55 399.334 337.987 399.334 338.48C399.334 339 399.214 339.46 398.974 339.86C398.741 340.253 398.417 340.563 398.004 340.79C397.597 341.017 397.134 341.13 396.614 341.13C396.087 341.13 395.614 341.013 395.194 340.78C394.781 340.547 394.454 340.23 394.214 339.83C393.974 339.423 393.854 338.97 393.854 338.47C393.854 338.17 393.887 337.893 393.954 337.64C394.027 337.38 394.144 337.107 394.304 336.82C394.471 336.533 394.691 336.207 394.964 335.84ZM395.164 338.48C395.164 338.78 395.224 339.043 395.344 339.27C395.471 339.497 395.641 339.673 395.854 339.8C396.074 339.927 396.327 339.99 396.614 339.99C396.894 339.99 397.141 339.927 397.354 339.8C397.567 339.673 397.734 339.497 397.854 339.27C397.981 339.043 398.044 338.78 398.044 338.48C398.044 338.187 397.981 337.93 397.854 337.71C397.734 337.483 397.567 337.307 397.354 337.18C397.141 337.053 396.894 336.99 396.614 336.99C396.327 336.99 396.074 337.053 395.854 337.18C395.634 337.307 395.464 337.483 395.344 337.71C395.224 337.93 395.164 338.187 395.164 338.48ZM400.125 337.36C400.125 336.6 400.252 335.937 400.505 335.37C400.765 334.803 401.125 334.36 401.585 334.04C402.052 333.713 402.595 333.55 403.215 333.55C403.842 333.55 404.385 333.713 404.845 334.04C405.312 334.36 405.672 334.803 405.925 335.37C406.185 335.937 406.315 336.6 406.315 337.36C406.315 338.113 406.192 338.773 405.945 339.34C405.699 339.907 405.345 340.347 404.885 340.66C404.425 340.973 403.869 341.13 403.215 341.13C402.575 341.13 402.022 340.973 401.555 340.66C401.095 340.347 400.742 339.907 400.495 339.34C400.249 338.773 400.125 338.113 400.125 337.36ZM401.385 337.36C401.385 337.92 401.459 338.4 401.605 338.8C401.752 339.193 401.962 339.493 402.235 339.7C402.509 339.9 402.835 340 403.215 340C403.609 340 403.939 339.9 404.205 339.7C404.479 339.493 404.689 339.193 404.835 338.8C404.982 338.4 405.055 337.92 405.055 337.36C405.055 336.78 404.982 336.293 404.835 335.9C404.689 335.5 404.479 335.197 404.205 334.99C403.939 334.783 403.609 334.68 403.215 334.68C402.835 334.68 402.509 334.783 402.235 334.99C401.962 335.197 401.752 335.5 401.605 335.9C401.459 336.293 401.385 336.78 401.385 337.36ZM411.946 333.69V341H410.736V333.69H411.946ZM407.026 338.49L410.336 333.69H411.686L408.326 338.57L407.026 338.49ZM412.836 339.61H407.026V338.49H412.836V339.61ZM414.685 340.91L414.805 340.88C414.751 340.927 414.691 340.963 414.625 340.99C414.565 341.01 414.491 341.02 414.405 341.02C414.211 341.02 414.045 340.957 413.905 340.83C413.765 340.697 413.695 340.53 413.695 340.33C413.695 340.09 413.765 339.897 413.905 339.75C414.045 339.603 414.228 339.53 414.455 339.53C414.708 339.53 414.915 339.623 415.075 339.81C415.235 339.997 415.315 340.247 415.315 340.56C415.315 340.833 415.255 341.083 415.135 341.31C415.015 341.543 414.848 341.733 414.635 341.88C414.421 342.027 414.178 342.117 413.905 342.15V341.66C414.131 341.62 414.318 341.533 414.465 341.4C414.611 341.273 414.685 341.11 414.685 340.91ZM416.326 338.93C416.326 338.43 416.473 338.003 416.766 337.65C417.066 337.29 417.456 337.063 417.936 336.97L417.946 337.2C417.513 337.087 417.176 336.883 416.936 336.59C416.703 336.297 416.586 335.94 416.586 335.52C416.586 335.133 416.693 334.793 416.906 334.5C417.12 334.207 417.416 333.977 417.796 333.81C418.183 333.643 418.626 333.56 419.126 333.56C419.626 333.56 420.063 333.643 420.436 333.81C420.816 333.97 421.11 334.2 421.316 334.5C421.53 334.793 421.636 335.14 421.636 335.54C421.636 335.96 421.516 336.317 421.276 336.61C421.036 336.897 420.7 337.09 420.266 337.19L420.256 336.98C420.583 337.027 420.87 337.143 421.116 337.33C421.363 337.51 421.553 337.737 421.686 338.01C421.826 338.283 421.896 338.59 421.896 338.93C421.896 339.37 421.78 339.757 421.546 340.09C421.32 340.417 420.996 340.67 420.576 340.85C420.163 341.03 419.673 341.12 419.106 341.12C418.546 341.12 418.056 341.03 417.636 340.85C417.223 340.67 416.9 340.417 416.666 340.09C416.44 339.757 416.326 339.37 416.326 338.93ZM417.576 338.84C417.576 339.073 417.636 339.277 417.756 339.45C417.883 339.623 418.06 339.757 418.286 339.85C418.52 339.943 418.796 339.99 419.116 339.99C419.423 339.99 419.69 339.943 419.916 339.85C420.15 339.757 420.326 339.627 420.446 339.46C420.573 339.287 420.636 339.08 420.636 338.84C420.636 338.487 420.496 338.207 420.216 338C419.943 337.793 419.573 337.69 419.106 337.69C418.64 337.69 418.266 337.793 417.986 338C417.713 338.207 417.576 338.487 417.576 338.84ZM417.746 335.63C417.746 335.93 417.87 336.173 418.116 336.36C418.363 336.54 418.693 336.63 419.106 336.63C419.513 336.63 419.836 336.54 420.076 336.36C420.323 336.18 420.446 335.94 420.446 335.64C420.446 335.333 420.323 335.093 420.076 334.92C419.836 334.74 419.513 334.65 419.106 334.65C418.693 334.65 418.363 334.74 418.116 334.92C417.87 335.093 417.746 335.33 417.746 335.63ZM425.233 341.12C424.727 341.12 424.28 341.02 423.893 340.82C423.513 340.613 423.217 340.327 423.003 339.96C422.797 339.587 422.693 339.153 422.693 338.66H423.953C423.953 339.073 424.07 339.397 424.303 339.63C424.537 339.863 424.857 339.98 425.263 339.98C425.55 339.98 425.797 339.923 426.003 339.81C426.217 339.69 426.38 339.52 426.493 339.3C426.613 339.08 426.673 338.823 426.673 338.53C426.673 338.25 426.617 338.003 426.503 337.79C426.397 337.57 426.24 337.4 426.033 337.28C425.827 337.16 425.577 337.1 425.283 337.1C425.003 337.1 424.743 337.163 424.503 337.29C424.27 337.41 424.087 337.567 423.953 337.76L422.823 337.52L423.723 333.69H427.533V334.87H424.313L424.743 334.47L424.153 336.8L423.723 336.98C423.883 336.673 424.123 336.44 424.443 336.28C424.77 336.113 425.137 336.03 425.543 336.03C426.03 336.03 426.453 336.133 426.813 336.34C427.18 336.547 427.463 336.833 427.663 337.2C427.87 337.56 427.973 337.98 427.973 338.46C427.973 338.987 427.857 339.45 427.623 339.85C427.397 340.25 427.077 340.563 426.663 340.79C426.257 341.01 425.78 341.12 425.233 341.12ZM432.98 338.85L431.4 341H429.94L432 338.25L432.32 338.33C432.173 338.457 431.99 338.56 431.77 338.64C431.557 338.713 431.347 338.75 431.14 338.75C430.64 338.75 430.2 338.643 429.82 338.43C429.44 338.21 429.143 337.91 428.93 337.53C428.717 337.143 428.61 336.703 428.61 336.21C428.61 335.69 428.727 335.23 428.96 334.83C429.2 334.43 429.523 334.12 429.93 333.9C430.343 333.673 430.81 333.56 431.33 333.56C431.857 333.56 432.327 333.68 432.74 333.92C433.16 334.153 433.49 334.47 433.73 334.87C433.97 335.27 434.09 335.72 434.09 336.22C434.09 336.513 434.053 336.79 433.98 337.05C433.907 337.31 433.79 337.583 433.63 337.87C433.47 338.15 433.253 338.477 432.98 338.85ZM432.78 336.21C432.78 335.91 432.72 335.647 432.6 335.42C432.48 335.193 432.31 335.017 432.09 334.89C431.87 334.763 431.617 334.7 431.33 334.7C431.05 334.7 430.8 334.763 430.58 334.89C430.367 335.017 430.2 335.193 430.08 335.42C429.96 335.647 429.9 335.91 429.9 336.21C429.9 336.503 429.96 336.763 430.08 336.99C430.2 337.21 430.367 337.383 430.58 337.51C430.8 337.637 431.05 337.7 431.33 337.7C431.623 337.7 431.877 337.637 432.09 337.51C432.31 337.383 432.48 337.21 432.6 336.99C432.72 336.763 432.78 336.503 432.78 336.21ZM435.54 341.12C435.32 341.12 435.13 341.043 434.97 340.89C434.81 340.737 434.73 340.55 434.73 340.33C434.73 340.11 434.81 339.923 434.97 339.77C435.13 339.61 435.32 339.53 435.54 339.53C435.76 339.53 435.95 339.61 436.11 339.77C436.27 339.923 436.35 340.11 436.35 340.33C436.35 340.55 436.27 340.737 436.11 340.89C435.95 341.043 435.76 341.12 435.54 341.12ZM437.361 338.93C437.361 338.43 437.508 338.003 437.801 337.65C438.101 337.29 438.491 337.063 438.971 336.97L438.981 337.2C438.548 337.087 438.211 336.883 437.971 336.59C437.738 336.297 437.621 335.94 437.621 335.52C437.621 335.133 437.728 334.793 437.941 334.5C438.155 334.207 438.451 333.977 438.831 333.81C439.218 333.643 439.661 333.56 440.161 333.56C440.661 333.56 441.098 333.643 441.471 333.81C441.851 333.97 442.145 334.2 442.351 334.5C442.565 334.793 442.671 335.14 442.671 335.54C442.671 335.96 442.551 336.317 442.311 336.61C442.071 336.897 441.735 337.09 441.301 337.19L441.291 336.98C441.618 337.027 441.905 337.143 442.151 337.33C442.398 337.51 442.588 337.737 442.721 338.01C442.861 338.283 442.931 338.59 442.931 338.93C442.931 339.37 442.815 339.757 442.581 340.09C442.355 340.417 442.031 340.67 441.611 340.85C441.198 341.03 440.708 341.12 440.141 341.12C439.581 341.12 439.091 341.03 438.671 340.85C438.258 340.67 437.935 340.417 437.701 340.09C437.475 339.757 437.361 339.37 437.361 338.93ZM438.611 338.84C438.611 339.073 438.671 339.277 438.791 339.45C438.918 339.623 439.095 339.757 439.321 339.85C439.555 339.943 439.831 339.99 440.151 339.99C440.458 339.99 440.725 339.943 440.951 339.85C441.185 339.757 441.361 339.627 441.481 339.46C441.608 339.287 441.671 339.08 441.671 338.84C441.671 338.487 441.531 338.207 441.251 338C440.978 337.793 440.608 337.69 440.141 337.69C439.675 337.69 439.301 337.793 439.021 338C438.748 338.207 438.611 338.487 438.611 338.84ZM438.781 335.63C438.781 335.93 438.905 336.173 439.151 336.36C439.398 336.54 439.728 336.63 440.141 336.63C440.548 336.63 440.871 336.54 441.111 336.36C441.358 336.18 441.481 335.94 441.481 335.64C441.481 335.333 441.358 335.093 441.111 334.92C440.871 334.74 440.548 334.65 440.141 334.65C439.728 334.65 439.398 334.74 439.151 334.92C438.905 335.093 438.781 335.33 438.781 335.63ZM443.768 338.93C443.768 338.43 443.914 338.003 444.208 337.65C444.508 337.29 444.898 337.063 445.378 336.97L445.388 337.2C444.954 337.087 444.618 336.883 444.378 336.59C444.144 336.297 444.028 335.94 444.028 335.52C444.028 335.133 444.134 334.793 444.348 334.5C444.561 334.207 444.858 333.977 445.238 333.81C445.624 333.643 446.068 333.56 446.568 333.56C447.068 333.56 447.504 333.643 447.878 333.81C448.258 333.97 448.551 334.2 448.758 334.5C448.971 334.793 449.078 335.14 449.078 335.54C449.078 335.96 448.958 336.317 448.718 336.61C448.478 336.897 448.141 337.09 447.708 337.19L447.698 336.98C448.024 337.027 448.311 337.143 448.558 337.33C448.804 337.51 448.994 337.737 449.128 338.01C449.268 338.283 449.338 338.59 449.338 338.93C449.338 339.37 449.221 339.757 448.988 340.09C448.761 340.417 448.438 340.67 448.018 340.85C447.604 341.03 447.114 341.12 446.548 341.12C445.988 341.12 445.498 341.03 445.078 340.85C444.664 340.67 444.341 340.417 444.108 340.09C443.881 339.757 443.768 339.37 443.768 338.93ZM445.018 338.84C445.018 339.073 445.078 339.277 445.198 339.45C445.324 339.623 445.501 339.757 445.728 339.85C445.961 339.943 446.238 339.99 446.558 339.99C446.864 339.99 447.131 339.943 447.358 339.85C447.591 339.757 447.768 339.627 447.888 339.46C448.014 339.287 448.078 339.08 448.078 338.84C448.078 338.487 447.938 338.207 447.658 338C447.384 337.793 447.014 337.69 446.548 337.69C446.081 337.69 445.708 337.793 445.428 338C445.154 338.207 445.018 338.487 445.018 338.84ZM445.188 335.63C445.188 335.93 445.311 336.173 445.558 336.36C445.804 336.54 446.134 336.63 446.548 336.63C446.954 336.63 447.278 336.54 447.518 336.36C447.764 336.18 447.888 335.94 447.888 335.64C447.888 335.333 447.764 335.093 447.518 334.92C447.278 334.74 446.954 334.65 446.548 334.65C446.134 334.65 445.804 334.74 445.558 334.92C445.311 335.093 445.188 335.33 445.188 335.63ZM454.539 333.69V341H453.259V333.69H454.539ZM456.159 337.89H454.149V336.81H456.089C456.443 336.81 456.713 336.723 456.899 336.55C457.086 336.37 457.179 336.117 457.179 335.79C457.179 335.477 457.083 335.237 456.889 335.07C456.696 334.903 456.416 334.82 456.049 334.82H454.109V333.69H456.159C456.886 333.69 457.456 333.867 457.869 334.22C458.283 334.573 458.489 335.057 458.489 335.67C458.489 336.11 458.383 336.48 458.169 336.78C457.956 337.073 457.639 337.287 457.219 337.42V337.28C457.673 337.387 458.016 337.587 458.249 337.88C458.483 338.173 458.599 338.553 458.599 339.02C458.599 339.433 458.506 339.79 458.319 340.09C458.133 340.383 457.859 340.61 457.499 340.77C457.146 340.923 456.719 341 456.219 341H454.109V339.87H456.159C456.526 339.87 456.806 339.783 456.999 339.61C457.193 339.437 457.289 339.187 457.289 338.86C457.289 338.553 457.189 338.317 456.989 338.15C456.796 337.977 456.519 337.89 456.159 337.89ZM459.353 335.73C459.353 335.303 459.463 334.927 459.683 334.6C459.903 334.273 460.206 334.02 460.593 333.84C460.986 333.653 461.44 333.56 461.953 333.56C462.446 333.56 462.873 333.647 463.233 333.82C463.6 333.993 463.883 334.24 464.083 334.56C464.29 334.88 464.4 335.26 464.413 335.7H463.133C463.12 335.387 463.006 335.143 462.793 334.97C462.58 334.79 462.293 334.7 461.933 334.7C461.54 334.7 461.223 334.79 460.983 334.97C460.75 335.143 460.633 335.383 460.633 335.69C460.633 335.95 460.703 336.157 460.843 336.31C460.99 336.457 461.216 336.567 461.523 336.64L462.673 336.9C463.3 337.033 463.766 337.263 464.073 337.59C464.38 337.91 464.533 338.343 464.533 338.89C464.533 339.337 464.423 339.73 464.203 340.07C463.983 340.41 463.67 340.673 463.263 340.86C462.863 341.04 462.393 341.13 461.853 341.13C461.34 341.13 460.89 341.043 460.503 340.87C460.116 340.69 459.813 340.44 459.593 340.12C459.38 339.8 459.266 339.423 459.253 338.99H460.533C460.54 339.297 460.66 339.54 460.893 339.72C461.133 339.893 461.456 339.98 461.863 339.98C462.29 339.98 462.626 339.893 462.873 339.72C463.126 339.54 463.253 339.303 463.253 339.01C463.253 338.757 463.186 338.557 463.053 338.41C462.92 338.257 462.703 338.15 462.403 338.09L461.243 337.83C460.623 337.697 460.153 337.457 459.833 337.11C459.513 336.757 459.353 336.297 459.353 335.73ZM467.531 337.35L465.101 333.69H466.621L467.511 335.01C467.658 335.223 467.794 335.443 467.921 335.67C468.054 335.89 468.191 336.123 468.331 336.37L470.031 333.69H471.521L469.131 337.34L471.531 341H470.021L469.201 339.79C469.034 339.543 468.884 339.303 468.751 339.07C468.618 338.837 468.474 338.59 468.321 338.33L466.551 341H465.051L467.531 337.35Z" fill="#787E82"/>
<path d="M451.978 323H450.466V314.228H451.99L456.55 321.128H456.106V314.228H457.618V323H456.106L451.534 316.112H451.978V323ZM461.108 323.156C460.484 323.156 459.988 322.988 459.62 322.652C459.26 322.308 459.08 321.86 459.08 321.308C459.08 320.764 459.268 320.332 459.644 320.012C460.028 319.684 460.572 319.492 461.276 319.436L463.052 319.292V319.16C463.052 318.888 463 318.672 462.896 318.512C462.8 318.344 462.66 318.224 462.476 318.152C462.292 318.072 462.076 318.032 461.828 318.032C461.396 318.032 461.064 318.12 460.832 318.296C460.6 318.464 460.484 318.704 460.484 319.016H459.236C459.236 318.584 459.344 318.212 459.56 317.9C459.784 317.58 460.096 317.332 460.496 317.156C460.904 316.98 461.372 316.892 461.9 316.892C462.436 316.892 462.896 316.988 463.28 317.18C463.664 317.364 463.96 317.644 464.168 318.02C464.376 318.388 464.48 318.848 464.48 319.4V323H463.196L463.088 322.124C462.96 322.428 462.712 322.676 462.344 322.868C461.984 323.06 461.572 323.156 461.108 323.156ZM461.576 322.052C462.032 322.052 462.392 321.924 462.656 321.668C462.928 321.412 463.064 321.056 463.064 320.6V320.288L461.828 320.384C461.372 320.424 461.048 320.52 460.856 320.672C460.664 320.816 460.568 321.008 460.568 321.248C460.568 321.512 460.656 321.712 460.832 321.848C461.008 321.984 461.256 322.052 461.576 322.052ZM466.642 317.072L468.574 322.544L467.782 324.044L465.094 317.072H466.642ZM465.25 325.748V324.536H466.126C466.318 324.536 466.486 324.512 466.63 324.464C466.774 324.424 466.902 324.344 467.014 324.224C467.134 324.104 467.234 323.928 467.314 323.696L469.774 317.072H471.286L468.382 324.32C468.166 324.864 467.894 325.26 467.566 325.508C467.238 325.756 466.83 325.88 466.342 325.88C466.134 325.88 465.938 325.868 465.754 325.844C465.578 325.828 465.41 325.796 465.25 325.748Z" fill="white"/>
<rect x="74.4941" y="377" width="388" height="5" rx="2.5" fill="white" fill-opacity="0.06"/>
<rect x="74.4941" y="391" width="388" height="5" rx="2.5" fill="white" fill-opacity="0.06"/>
<rect x="74.4941" y="405" width="388" height="5" rx="2.5" fill="white" fill-opacity="0.06"/>
<rect x="74.4941" y="419" width="388" height="5" rx="2.5" fill="white" fill-opacity="0.06"/>
<rect x="74.4941" y="433" width="166.595" height="5" rx="2.5" fill="white" fill-opacity="0.06"/>
<line opacity="0.78" x1="74.4941" y1="360.342" x2="462.411" y2="360.342" stroke="#29292D"/>
</g>
</g>
<defs>
<filter id="filter0_d_623_3265" x="41.3854" y="0.161549" width="499.337" height="269.337" filterUnits="userSpaceOnUse" color-interpolation-filters="sRGB">
<feFlood flood-opacity="0" result="BackgroundImageFix"/>
<feColorMatrix in="SourceAlpha" type="matrix" values="0 0 0 0 0 0 0 0 0 0 0 0 0 0 0 0 0 0 127 0" result="hardAlpha"/>
<feOffset dx="24.56" dy="24.8302"/>
<feGaussianBlur stdDeviation="13.8343"/>
<feComposite in2="hardAlpha" operator="out"/>
<feColorMatrix type="matrix" values="0 0 0 0 0 0 0 0 0 0 0 0 0 0 0 0 0 0 0.26 0"/>
<feBlend mode="normal" in2="BackgroundImageFix" result="effect1_dropShadow_623_3265"/>
<feBlend mode="normal" in="SourceGraphic" in2="effect1_dropShadow_623_3265" result="shape"/>
</filter>
<filter id="filter1_d_623_3265" x="29.7704" y="221.77" width="527.098" height="566.459" filterUnits="userSpaceOnUse" color-interpolation-filters="sRGB">
<feFlood flood-opacity="0" result="BackgroundImageFix"/>
<feColorMatrix in="SourceAlpha" type="matrix" values="0 0 0 0 0 0 0 0 0 0 0 0 0 0 0 0 0 0 127 0" result="hardAlpha"/>
<feOffset dx="27" dy="37"/>
<feGaussianBlur stdDeviation="20.6148"/>
<feComposite in2="hardAlpha" operator="out"/>
<feColorMatrix type="matrix" values="0 0 0 0 0 0 0 0 0 0 0 0 0 0 0 0 0 0 0.26 0"/>
<feBlend mode="normal" in2="BackgroundImageFix" result="effect1_dropShadow_623_3265"/>
<feBlend mode="normal" in="SourceGraphic" in2="effect1_dropShadow_623_3265" result="shape"/>
</filter>
<filter id="filter2_d_623_3265" x="0.896295" y="223.162" width="499.976" height="539.337" filterUnits="userSpaceOnUse" color-interpolation-filters="sRGB">
<feFlood flood-opacity="0" result="BackgroundImageFix"/>
<feColorMatrix in="SourceAlpha" type="matrix" values="0 0 0 0 0 0 0 0 0 0 0 0 0 0 0 0 0 0 127 0" result="hardAlpha"/>
<feOffset dx="-15.435" dy="24.8302"/>
<feGaussianBlur stdDeviation="13.8343"/>
<feComposite in2="hardAlpha" operator="out"/>
<feColorMatrix type="matrix" values="0 0 0 0 0 0 0 0 0 0 0 0 0 0 0 0 0 0 0.26 0"/>
<feBlend mode="normal" in2="BackgroundImageFix" result="effect1_dropShadow_623_3265"/>
<feBlend mode="normal" in="SourceGraphic" in2="effect1_dropShadow_623_3265" result="shape"/>
</filter>
<linearGradient id="paint0_linear_623_3265" x1="266.494" y1="3" x2="266.494" y2="217" gradientUnits="userSpaceOnUse">
<stop stop-color="#121A23"/>
<stop offset="1" stop-color="#121316"/>
</linearGradient>
<linearGradient id="paint1_linear_623_3265" x1="80.7598" y1="184.778" x2="93.8184" y2="184.778" gradientUnits="userSpaceOnUse">
<stop stop-color="#4FFFB0"/>
<stop offset="1" stop-color="#B3FF8F"/>
</linearGradient>
<linearGradient id="paint2_linear_623_3265" x1="76.7871" y1="188.355" x2="79.8644" y2="188.355" gradientUnits="userSpaceOnUse">
<stop stop-color="#4FFFB0"/>
<stop offset="1" stop-color="#B3FF8F"/>
</linearGradient>
<linearGradient id="paint3_linear_623_3265" x1="266.319" y1="226" x2="266.319" y2="710" gradientUnits="userSpaceOnUse">
<stop stop-color="#121A23"/>
<stop offset="1" stop-color="#121316"/>
</linearGradient>
<linearGradient id="paint4_linear_623_3265" x1="71.4941" y1="297.5" x2="371.494" y2="297.5" gradientUnits="userSpaceOnUse">
<stop stop-color="#4FFFB0"/>
<stop offset="1" stop-color="#B3FF8F"/>
</linearGradient>
</defs>
</svg>
