<svg width="549" height="499" viewBox="0 0 549 499" fill="none" xmlns="http://www.w3.org/2000/svg">
<mask id="mask0_732_15459" style="mask-type:alpha" maskUnits="userSpaceOnUse" x="0" y="0" width="549" height="499">
<rect x="0.500488" width="548" height="499" fill="url(#paint0_linear_732_15459)"/>
</mask>
<g mask="url(#mask0_732_15459)">
<g filter="url(#filter0_d_732_15459)">
<rect x="62.5005" y="61" width="444" height="214" rx="18" fill="url(#paint1_linear_732_15459)" shape-rendering="crispEdges"/>
<path d="M99.879 96.1822L96.96 111H94.5275L97.4262 96.1822H99.879ZM104.906 96.1822L102.007 111H99.5749L102.453 96.1822H104.906ZM94.4667 100.034H106.244L105.778 102.344H94.0005L94.4667 100.034ZM93.7978 104.858H105.534L105.068 107.169H93.3316L93.7978 104.858ZM111.002 98.5134H107.759V96.1822H113.475V111H111.002V98.5134ZM127.583 111H122.252V96.1822H127.441C128.901 96.1822 130.184 96.4998 131.293 97.135C132.401 97.7566 133.266 98.6282 133.887 99.7499C134.522 100.858 134.84 102.149 134.84 103.622C134.84 105.067 134.529 106.351 133.907 107.473C133.299 108.581 132.448 109.446 131.353 110.068C130.272 110.689 129.016 111 127.583 111ZM124.847 97.3782V109.824L123.61 108.608H127.34C128.326 108.608 129.178 108.405 129.894 108C130.61 107.595 131.157 107.02 131.536 106.277C131.914 105.534 132.103 104.649 132.103 103.622C132.103 102.567 131.907 101.669 131.516 100.926C131.124 100.169 130.563 99.5877 129.833 99.1823C129.103 98.7769 128.225 98.5742 127.198 98.5742H123.61L124.847 97.3782ZM136.892 111V100.986H139.365V111H136.892ZM138.108 98.9796C137.689 98.9796 137.331 98.8377 137.034 98.5539C136.75 98.2566 136.608 97.8985 136.608 97.4796C136.608 97.0606 136.75 96.7093 137.034 96.4255C137.331 96.1417 137.689 95.9998 138.108 95.9998C138.527 95.9998 138.879 96.1417 139.162 96.4255C139.46 96.7093 139.608 97.0606 139.608 97.4796C139.608 97.8985 139.46 98.2566 139.162 98.5539C138.879 98.8377 138.527 98.9796 138.108 98.9796ZM141.15 107.959H143.501C143.515 108.392 143.677 108.736 143.988 108.993C144.298 109.25 144.731 109.378 145.285 109.378C145.88 109.378 146.326 109.27 146.623 109.054C146.934 108.838 147.089 108.547 147.089 108.182C147.089 107.939 147.008 107.723 146.846 107.534C146.684 107.345 146.38 107.203 145.934 107.108L144.13 106.682C143.224 106.48 142.548 106.155 142.102 105.709C141.67 105.25 141.454 104.622 141.454 103.824C141.454 103.176 141.623 102.615 141.961 102.142C142.312 101.669 142.785 101.311 143.38 101.067C143.974 100.811 144.657 100.682 145.427 100.682C146.17 100.682 146.826 100.817 147.393 101.088C147.961 101.358 148.4 101.736 148.711 102.223C149.035 102.709 149.204 103.277 149.217 103.926H146.866C146.866 103.493 146.731 103.155 146.461 102.912C146.19 102.655 145.812 102.527 145.325 102.527C144.839 102.527 144.461 102.635 144.19 102.851C143.92 103.067 143.785 103.358 143.785 103.723C143.785 104.277 144.217 104.655 145.082 104.858L146.886 105.284C147.724 105.473 148.353 105.777 148.771 106.196C149.204 106.615 149.42 107.209 149.42 107.98C149.42 108.655 149.244 109.243 148.893 109.743C148.542 110.23 148.048 110.608 147.413 110.878C146.778 111.135 146.048 111.264 145.224 111.264C143.981 111.264 142.988 110.959 142.244 110.351C141.515 109.743 141.15 108.946 141.15 107.959ZM150.31 100.986H156.634V103.054H150.31V100.986ZM154.709 111H152.236V97.8647H154.709V111ZM164.476 100.946V103.236H163.564C162.658 103.236 161.949 103.48 161.435 103.966C160.922 104.439 160.665 105.162 160.665 106.135V111H158.192V101.007H160.523L160.726 103.074H160.482C160.618 102.412 160.935 101.872 161.435 101.453C161.935 101.034 162.584 100.824 163.381 100.824C163.557 100.824 163.733 100.831 163.908 100.844C164.084 100.858 164.273 100.892 164.476 100.946ZM166.15 111V100.986H168.623V111H166.15ZM167.366 98.9796C166.947 98.9796 166.589 98.8377 166.292 98.5539C166.008 98.2566 165.866 97.8985 165.866 97.4796C165.866 97.0606 166.008 96.7093 166.292 96.4255C166.589 96.1417 166.947 95.9998 167.366 95.9998C167.785 95.9998 168.136 96.1417 168.42 96.4255C168.717 96.7093 168.866 97.0606 168.866 97.4796C168.866 97.8985 168.717 98.2566 168.42 98.5539C168.136 98.8377 167.785 98.9796 167.366 98.9796ZM173.468 111H171.178V95.9187H173.651V102.446C173.975 101.878 174.448 101.446 175.07 101.149C175.691 100.838 176.387 100.682 177.158 100.682C178.117 100.682 178.935 100.912 179.61 101.371C180.299 101.817 180.826 102.446 181.191 103.257C181.57 104.067 181.759 105.007 181.759 106.074C181.759 107.088 181.563 107.986 181.171 108.77C180.779 109.554 180.225 110.169 179.509 110.615C178.793 111.047 177.955 111.264 176.995 111.264C176.252 111.264 175.576 111.101 174.968 110.777C174.374 110.453 173.928 110.007 173.63 109.439L173.468 111ZM173.671 105.953C173.671 106.547 173.786 107.081 174.016 107.554C174.245 108.013 174.57 108.372 174.989 108.628C175.421 108.872 175.921 108.993 176.489 108.993C177.07 108.993 177.57 108.865 177.989 108.608C178.408 108.351 178.725 107.993 178.941 107.534C179.158 107.074 179.266 106.547 179.266 105.953C179.266 105.358 179.158 104.831 178.941 104.372C178.725 103.912 178.408 103.554 177.989 103.297C177.57 103.027 177.07 102.892 176.489 102.892C175.921 102.892 175.421 103.027 174.989 103.297C174.57 103.554 174.245 103.912 174.016 104.372C173.786 104.817 173.671 105.345 173.671 105.953ZM190.281 100.986H192.754V111H190.464L190.281 109.662C189.984 110.135 189.538 110.52 188.943 110.818C188.349 111.115 187.713 111.264 187.038 111.264C185.889 111.264 184.99 110.899 184.342 110.169C183.693 109.439 183.369 108.466 183.369 107.25V100.986H185.842V106.378C185.842 107.324 186.024 108.007 186.389 108.426C186.754 108.845 187.281 109.054 187.97 109.054C188.754 109.054 189.335 108.824 189.714 108.365C190.092 107.892 190.281 107.182 190.281 106.236V100.986ZM194.315 100.986H200.639V103.054H194.315V100.986ZM198.714 111H196.241V97.8647H198.714V111ZM206.578 111.264C205.591 111.264 204.713 111.041 203.943 110.595C203.186 110.135 202.591 109.513 202.159 108.73C201.727 107.932 201.51 107.02 201.51 105.993C201.51 104.953 201.72 104.034 202.139 103.236C202.558 102.439 203.145 101.817 203.902 101.371C204.659 100.912 205.524 100.682 206.497 100.682C207.51 100.682 208.382 100.899 209.112 101.331C209.842 101.75 210.402 102.338 210.794 103.094C211.2 103.851 211.402 104.757 211.402 105.811V106.561L202.808 106.581L202.848 105H208.95C208.95 104.311 208.727 103.757 208.281 103.338C207.848 102.919 207.26 102.709 206.517 102.709C205.936 102.709 205.443 102.831 205.037 103.074C204.646 103.317 204.348 103.682 204.146 104.169C203.943 104.655 203.841 105.25 203.841 105.953C203.841 107.034 204.071 107.851 204.531 108.405C205.004 108.959 205.7 109.236 206.619 109.236C207.294 109.236 207.848 109.108 208.281 108.851C208.727 108.595 209.017 108.23 209.152 107.757H211.443C211.227 108.851 210.686 109.709 209.821 110.331C208.97 110.953 207.889 111.264 206.578 111.264ZM221.805 96.1822V111H219.21V96.1822H221.805ZM225.088 104.696H221.014V102.507H224.947C225.663 102.507 226.21 102.331 226.588 101.98C226.967 101.615 227.156 101.101 227.156 100.439C227.156 99.8039 226.96 99.3174 226.568 98.9796C226.176 98.6417 225.609 98.4728 224.865 98.4728H220.933V96.1822H225.088C226.561 96.1822 227.717 96.5404 228.555 97.2566C229.393 97.9728 229.811 98.9525 229.811 100.196C229.811 101.088 229.595 101.838 229.163 102.446C228.73 103.04 228.088 103.473 227.237 103.743V103.459C228.156 103.676 228.852 104.081 229.325 104.676C229.798 105.27 230.034 106.04 230.034 106.986C230.034 107.824 229.845 108.547 229.467 109.155C229.088 109.75 228.534 110.209 227.805 110.534C227.088 110.845 226.224 111 225.21 111H220.933V108.709H225.088C225.832 108.709 226.399 108.534 226.791 108.182C227.183 107.831 227.379 107.324 227.379 106.662C227.379 106.04 227.176 105.561 226.771 105.223C226.379 104.872 225.818 104.696 225.088 104.696ZM231.562 100.317C231.562 99.4526 231.785 98.689 232.231 98.0269C232.677 97.3647 233.292 96.8512 234.076 96.4863C234.873 96.1079 235.792 95.9187 236.833 95.9187C237.833 95.9187 238.697 96.0944 239.427 96.4458C240.17 96.7971 240.745 97.2971 241.15 97.9458C241.569 98.5944 241.792 99.3647 241.819 100.257H239.224C239.197 99.6215 238.968 99.1282 238.535 98.7769C238.103 98.412 237.522 98.2296 236.792 98.2296C235.995 98.2296 235.353 98.412 234.866 98.7769C234.393 99.1282 234.157 99.6147 234.157 100.236C234.157 100.763 234.299 101.182 234.582 101.493C234.88 101.79 235.339 102.013 235.961 102.162L238.292 102.689C239.562 102.959 240.508 103.426 241.13 104.088C241.752 104.736 242.062 105.615 242.062 106.723C242.062 107.628 241.839 108.426 241.393 109.115C240.947 109.804 240.312 110.338 239.488 110.716C238.677 111.081 237.724 111.264 236.63 111.264C235.589 111.264 234.677 111.088 233.893 110.736C233.11 110.372 232.495 109.865 232.049 109.216C231.616 108.568 231.387 107.804 231.359 106.926H233.954C233.968 107.547 234.211 108.041 234.684 108.405C235.17 108.757 235.826 108.932 236.65 108.932C237.515 108.932 238.197 108.757 238.697 108.405C239.211 108.041 239.468 107.561 239.468 106.966C239.468 106.453 239.333 106.047 239.062 105.75C238.792 105.439 238.353 105.223 237.745 105.101L235.393 104.574C234.137 104.304 233.184 103.817 232.535 103.115C231.887 102.399 231.562 101.466 231.562 100.317ZM248.139 103.601L243.214 96.1822H246.295L248.099 98.858C248.396 99.2904 248.673 99.7363 248.93 100.196C249.2 100.642 249.477 101.115 249.761 101.615L253.207 96.1822H256.227L251.383 103.581L256.248 111H253.187L251.525 108.547C251.187 108.047 250.883 107.561 250.612 107.088C250.342 106.615 250.052 106.115 249.741 105.588L246.153 111H243.112L248.139 103.601ZM269.59 100.946V103.236H268.677C267.772 103.236 267.062 103.48 266.549 103.966C266.035 104.439 265.779 105.162 265.779 106.135V111H263.306V101.007H265.637L265.84 103.074H265.596C265.731 102.412 266.049 101.872 266.549 101.453C267.049 101.034 267.698 100.824 268.495 100.824C268.671 100.824 268.846 100.831 269.022 100.844C269.198 100.858 269.387 100.892 269.59 100.946ZM275.407 111.264C274.42 111.264 273.542 111.041 272.772 110.595C272.015 110.135 271.42 109.513 270.988 108.73C270.555 107.932 270.339 107.02 270.339 105.993C270.339 104.953 270.549 104.034 270.967 103.236C271.386 102.439 271.974 101.817 272.731 101.371C273.488 100.912 274.353 100.682 275.326 100.682C276.339 100.682 277.211 100.899 277.941 101.331C278.67 101.75 279.231 102.338 279.623 103.094C280.028 103.851 280.231 104.757 280.231 105.811V106.561L271.636 106.581L271.677 105H277.778C277.778 104.311 277.555 103.757 277.109 103.338C276.677 102.919 276.089 102.709 275.346 102.709C274.765 102.709 274.272 102.831 273.866 103.074C273.474 103.317 273.177 103.682 272.974 104.169C272.772 104.655 272.67 105.25 272.67 105.953C272.67 107.034 272.9 107.851 273.359 108.405C273.832 108.959 274.528 109.236 275.447 109.236C276.123 109.236 276.677 109.108 277.109 108.851C277.555 108.595 277.846 108.23 277.981 107.757H280.272C280.055 108.851 279.515 109.709 278.65 110.331C277.799 110.953 276.718 111.264 275.407 111.264ZM284.004 111L280.761 100.986H283.335L284.653 105.284C284.761 105.676 284.869 106.088 284.977 106.52C285.085 106.953 285.18 107.405 285.261 107.878C285.328 107.554 285.389 107.257 285.443 106.986C285.511 106.716 285.585 106.453 285.666 106.196C285.747 105.926 285.842 105.622 285.95 105.284L287.328 100.986H289.842L291.18 105.284C291.207 105.378 291.247 105.54 291.302 105.77C291.369 105.986 291.437 106.223 291.504 106.48C291.572 106.736 291.633 106.993 291.687 107.25C291.754 107.493 291.802 107.703 291.829 107.878C291.883 107.622 291.95 107.331 292.031 107.007C292.112 106.682 292.193 106.372 292.274 106.074C292.369 105.763 292.443 105.5 292.497 105.284L293.835 100.986H296.45L292.984 111H290.673L289.295 106.662C289.092 106 288.93 105.439 288.808 104.98C288.687 104.507 288.606 104.142 288.565 103.885C288.524 104.128 288.45 104.453 288.342 104.858C288.234 105.263 288.051 105.878 287.795 106.703L286.416 111H284.004ZM300.452 111.264C299.398 111.264 298.56 110.98 297.939 110.412C297.331 109.831 297.027 109.074 297.027 108.142C297.027 107.223 297.344 106.493 297.979 105.953C298.628 105.399 299.547 105.074 300.736 104.98L303.736 104.736V104.513C303.736 104.054 303.648 103.689 303.473 103.419C303.311 103.135 303.074 102.932 302.763 102.811C302.452 102.676 302.088 102.608 301.669 102.608C300.939 102.608 300.378 102.757 299.986 103.054C299.594 103.338 299.398 103.743 299.398 104.27H297.29C297.29 103.54 297.473 102.912 297.837 102.385C298.216 101.844 298.743 101.426 299.419 101.128C300.108 100.831 300.898 100.682 301.79 100.682C302.696 100.682 303.473 100.844 304.121 101.169C304.77 101.48 305.27 101.953 305.621 102.588C305.973 103.209 306.148 103.986 306.148 104.919V111H303.979L303.797 109.52C303.581 110.034 303.162 110.453 302.54 110.777C301.932 111.101 301.236 111.264 300.452 111.264ZM301.243 109.399C302.013 109.399 302.621 109.182 303.067 108.75C303.527 108.318 303.756 107.716 303.756 106.946V106.419L301.669 106.581C300.898 106.649 300.351 106.811 300.027 107.068C299.702 107.311 299.54 107.635 299.54 108.041C299.54 108.486 299.689 108.824 299.986 109.054C300.283 109.284 300.702 109.399 301.243 109.399ZM314.862 100.946V103.236H313.95C313.044 103.236 312.335 103.48 311.821 103.966C311.308 104.439 311.051 105.162 311.051 106.135V111H308.578V101.007H310.909L311.112 103.074H310.868C311.004 102.412 311.321 101.872 311.821 101.453C312.321 101.034 312.97 100.824 313.767 100.824C313.943 100.824 314.118 100.831 314.294 100.844C314.47 100.858 314.659 100.892 314.862 100.946ZM320.314 111.264C319.341 111.264 318.503 111.047 317.8 110.615C317.111 110.169 316.571 109.554 316.179 108.77C315.8 107.986 315.611 107.074 315.611 106.034C315.611 104.993 315.8 104.074 316.179 103.277C316.571 102.466 317.132 101.831 317.861 101.371C318.591 100.912 319.456 100.682 320.456 100.682C321.159 100.682 321.801 100.824 322.382 101.108C322.963 101.378 323.409 101.763 323.719 102.263V95.9187H326.172V111H323.902L323.74 109.439C323.442 110.007 322.983 110.453 322.361 110.777C321.753 111.101 321.071 111.264 320.314 111.264ZM320.861 108.993C321.442 108.993 321.942 108.872 322.361 108.628C322.78 108.372 323.105 108.013 323.334 107.554C323.578 107.081 323.699 106.547 323.699 105.953C323.699 105.345 323.578 104.817 323.334 104.372C323.105 103.912 322.78 103.554 322.361 103.297C321.942 103.027 321.442 102.892 320.861 102.892C320.294 102.892 319.8 103.027 319.382 103.297C318.963 103.554 318.638 103.912 318.409 104.372C318.192 104.831 318.084 105.358 318.084 105.953C318.084 106.547 318.192 107.074 318.409 107.534C318.638 107.993 318.963 108.351 319.382 108.608C319.8 108.865 320.294 108.993 320.861 108.993ZM327.979 107.959H330.331C330.344 108.392 330.506 108.736 330.817 108.993C331.128 109.25 331.56 109.378 332.114 109.378C332.709 109.378 333.155 109.27 333.452 109.054C333.763 108.838 333.918 108.547 333.918 108.182C333.918 107.939 333.837 107.723 333.675 107.534C333.513 107.345 333.209 107.203 332.763 107.108L330.959 106.682C330.053 106.48 329.378 106.155 328.932 105.709C328.499 105.25 328.283 104.622 328.283 103.824C328.283 103.176 328.452 102.615 328.79 102.142C329.141 101.669 329.614 101.311 330.209 101.067C330.803 100.811 331.486 100.682 332.256 100.682C332.999 100.682 333.655 100.817 334.222 101.088C334.79 101.358 335.229 101.736 335.54 102.223C335.864 102.709 336.033 103.277 336.047 103.926H333.695C333.695 103.493 333.56 103.155 333.29 102.912C333.02 102.655 332.641 102.527 332.155 102.527C331.668 102.527 331.29 102.635 331.02 102.851C330.749 103.067 330.614 103.358 330.614 103.723C330.614 104.277 331.047 104.655 331.912 104.858L333.716 105.284C334.554 105.473 335.182 105.777 335.601 106.196C336.033 106.615 336.25 107.209 336.25 107.98C336.25 108.655 336.074 109.243 335.722 109.743C335.371 110.23 334.878 110.608 334.243 110.878C333.608 111.135 332.878 111.264 332.054 111.264C330.81 111.264 329.817 110.959 329.074 110.351C328.344 109.743 327.979 108.946 327.979 107.959ZM342.603 100.986H348.927V103.054H342.603V100.986ZM347.001 111H344.528V97.8647H347.001V111ZM349.798 105.973C349.798 104.932 350.028 104.02 350.487 103.236C350.947 102.439 351.582 101.817 352.393 101.371C353.203 100.926 354.122 100.703 355.149 100.703C356.19 100.703 357.109 100.926 357.906 101.371C358.717 101.817 359.352 102.439 359.812 103.236C360.271 104.02 360.501 104.932 360.501 105.973C360.501 107.013 360.271 107.932 359.812 108.73C359.352 109.513 358.717 110.128 357.906 110.574C357.109 111.02 356.19 111.243 355.149 111.243C354.122 111.243 353.203 111.02 352.393 110.574C351.582 110.128 350.947 109.513 350.487 108.73C350.028 107.932 349.798 107.013 349.798 105.973ZM352.271 105.973C352.271 106.581 352.393 107.115 352.636 107.574C352.893 108.034 353.23 108.392 353.649 108.649C354.082 108.905 354.582 109.034 355.149 109.034C355.717 109.034 356.217 108.905 356.649 108.649C357.082 108.392 357.42 108.034 357.663 107.574C357.906 107.115 358.028 106.581 358.028 105.973C358.028 105.351 357.906 104.817 357.663 104.372C357.42 103.912 357.082 103.554 356.649 103.297C356.217 103.04 355.717 102.912 355.149 102.912C354.582 102.912 354.082 103.04 353.649 103.297C353.23 103.554 352.893 103.912 352.636 104.372C352.393 104.817 352.271 105.351 352.271 105.973ZM370.884 96.1822V111H368.289V96.1822H370.884ZM374.168 104.696H370.094V102.507H374.026C374.742 102.507 375.29 102.331 375.668 101.98C376.046 101.615 376.236 101.101 376.236 100.439C376.236 99.8039 376.04 99.3174 375.648 98.9796C375.256 98.6417 374.688 98.4728 373.945 98.4728H370.012V96.1822H374.168C375.641 96.1822 376.796 96.5404 377.634 97.2566C378.472 97.9728 378.891 98.9525 378.891 100.196C378.891 101.088 378.675 101.838 378.242 102.446C377.81 103.04 377.168 103.473 376.317 103.743V103.459C377.236 103.676 377.931 104.081 378.404 104.676C378.877 105.27 379.114 106.04 379.114 106.986C379.114 107.824 378.925 108.547 378.546 109.155C378.168 109.75 377.614 110.209 376.884 110.534C376.168 110.845 375.303 111 374.29 111H370.012V108.709H374.168C374.911 108.709 375.479 108.534 375.871 108.182C376.263 107.831 376.458 107.324 376.458 106.662C376.458 106.04 376.256 105.561 375.85 105.223C375.458 104.872 374.898 104.696 374.168 104.696ZM381.128 111V100.986H383.601V111H381.128ZM382.344 98.9796C381.925 98.9796 381.567 98.8377 381.27 98.5539C380.986 98.2566 380.844 97.8985 380.844 97.4796C380.844 97.0606 380.986 96.7093 381.27 96.4255C381.567 96.1417 381.925 95.9998 382.344 95.9998C382.763 95.9998 383.115 96.1417 383.398 96.4255C383.696 96.7093 383.844 97.0606 383.844 97.4796C383.844 97.8985 383.696 98.2566 383.398 98.5539C383.115 98.8377 382.763 98.9796 382.344 98.9796ZM385.163 100.986H391.447V103.054H385.163V100.986ZM391.467 96.0201V98.1282C391.332 98.1282 391.19 98.1282 391.041 98.1282C390.906 98.1282 390.764 98.1282 390.616 98.1282C389.994 98.1282 389.575 98.2769 389.359 98.5742C389.156 98.8715 389.055 99.2701 389.055 99.7701V111H386.602V99.7701C386.602 98.8512 386.751 98.1147 387.048 97.5606C387.345 96.9931 387.764 96.5809 388.305 96.3241C388.845 96.0539 389.474 95.9187 390.19 95.9187C390.393 95.9187 390.602 95.9255 390.818 95.939C391.048 95.9525 391.264 95.9795 391.467 96.0201ZM399.309 100.946V103.236H398.397C397.491 103.236 396.782 103.48 396.268 103.966C395.755 104.439 395.498 105.162 395.498 106.135V111H393.025V101.007H395.356L395.559 103.074H395.316C395.451 102.412 395.768 101.872 396.268 101.453C396.769 101.034 397.417 100.824 398.214 100.824C398.39 100.824 398.566 100.831 398.742 100.844C398.917 100.858 399.106 100.892 399.309 100.946ZM400.059 105.973C400.059 104.932 400.288 104.02 400.748 103.236C401.207 102.439 401.842 101.817 402.653 101.371C403.464 100.926 404.383 100.703 405.41 100.703C406.451 100.703 407.37 100.926 408.167 101.371C408.978 101.817 409.613 102.439 410.072 103.236C410.532 104.02 410.761 104.932 410.761 105.973C410.761 107.013 410.532 107.932 410.072 108.73C409.613 109.513 408.978 110.128 408.167 110.574C407.37 111.02 406.451 111.243 405.41 111.243C404.383 111.243 403.464 111.02 402.653 110.574C401.842 110.128 401.207 109.513 400.748 108.73C400.288 107.932 400.059 107.013 400.059 105.973ZM402.532 105.973C402.532 106.581 402.653 107.115 402.896 107.574C403.153 108.034 403.491 108.392 403.91 108.649C404.342 108.905 404.842 109.034 405.41 109.034C405.978 109.034 406.478 108.905 406.91 108.649C407.342 108.392 407.68 108.034 407.924 107.574C408.167 107.115 408.288 106.581 408.288 105.973C408.288 105.351 408.167 104.817 407.924 104.372C407.68 103.912 407.342 103.554 406.91 103.297C406.478 103.04 405.978 102.912 405.41 102.912C404.842 102.912 404.342 103.04 403.91 103.297C403.491 103.554 403.153 103.912 402.896 104.372C402.653 104.817 402.532 105.351 402.532 105.973ZM411.951 107.959H414.303C414.316 108.392 414.478 108.736 414.789 108.993C415.1 109.25 415.533 109.378 416.087 109.378C416.681 109.378 417.127 109.27 417.424 109.054C417.735 108.838 417.891 108.547 417.891 108.182C417.891 107.939 417.81 107.723 417.647 107.534C417.485 107.345 417.181 107.203 416.735 107.108L414.931 106.682C414.026 106.48 413.35 106.155 412.904 105.709C412.472 105.25 412.255 104.622 412.255 103.824C412.255 103.176 412.424 102.615 412.762 102.142C413.114 101.669 413.587 101.311 414.181 101.067C414.776 100.811 415.458 100.682 416.228 100.682C416.972 100.682 417.627 100.817 418.195 101.088C418.762 101.358 419.201 101.736 419.512 102.223C419.837 102.709 420.006 103.277 420.019 103.926H417.668C417.668 103.493 417.533 103.155 417.262 102.912C416.992 102.655 416.614 102.527 416.127 102.527C415.641 102.527 415.262 102.635 414.992 102.851C414.722 103.067 414.587 103.358 414.587 103.723C414.587 104.277 415.019 104.655 415.884 104.858L417.688 105.284C418.526 105.473 419.154 105.777 419.573 106.196C420.006 106.615 420.222 107.209 420.222 107.98C420.222 108.655 420.046 109.243 419.695 109.743C419.343 110.23 418.85 110.608 418.215 110.878C417.58 111.135 416.85 111.264 416.026 111.264C414.782 111.264 413.789 110.959 413.046 110.351C412.316 109.743 411.951 108.946 411.951 107.959ZM421.111 100.986H427.436V103.054H421.111V100.986ZM425.51 111H423.037V97.8647H425.51V111ZM93.1897 131.973C93.1897 130.946 93.3991 130.034 93.8181 129.236C94.2505 128.439 94.8384 127.817 95.5816 127.371C96.3384 126.912 97.21 126.682 98.1965 126.682C99.5614 126.682 100.676 127.04 101.541 127.757C102.42 128.459 102.926 129.412 103.061 130.615H100.588C100.44 130.047 100.163 129.622 99.7573 129.338C99.3654 129.04 98.8722 128.892 98.2776 128.892C97.7641 128.892 97.3046 129.02 96.8992 129.277C96.5073 129.52 96.2032 129.872 95.987 130.331C95.7708 130.79 95.6627 131.338 95.6627 131.973C95.6627 132.608 95.764 133.155 95.9667 133.615C96.1695 134.074 96.46 134.432 96.8384 134.689C97.2303 134.932 97.6897 135.054 98.2168 135.054C98.8384 135.054 99.3519 134.905 99.7573 134.608C100.176 134.311 100.453 133.885 100.588 133.331H103.082C102.974 134.115 102.697 134.804 102.251 135.399C101.818 135.98 101.257 136.439 100.568 136.777C99.879 137.101 99.0952 137.264 98.2168 137.264C97.2033 137.264 96.3181 137.047 95.5613 136.615C94.8046 136.169 94.2167 135.554 93.7978 134.77C93.3924 133.973 93.1897 133.04 93.1897 131.973ZM111.206 126.946V129.236H110.294C109.389 129.236 108.679 129.48 108.166 129.966C107.652 130.439 107.395 131.162 107.395 132.135V137H104.922V127.007H107.253L107.456 129.074H107.213C107.348 128.412 107.666 127.872 108.166 127.453C108.666 127.034 109.314 126.824 110.112 126.824C110.287 126.824 110.463 126.831 110.639 126.844C110.814 126.858 111.004 126.892 111.206 126.946ZM111.956 131.973C111.956 130.932 112.185 130.02 112.645 129.236C113.104 128.439 113.74 127.817 114.55 127.371C115.361 126.926 116.28 126.703 117.307 126.703C118.348 126.703 119.267 126.926 120.064 127.371C120.875 127.817 121.51 128.439 121.969 129.236C122.429 130.02 122.659 130.932 122.659 131.973C122.659 133.013 122.429 133.932 121.969 134.73C121.51 135.513 120.875 136.128 120.064 136.574C119.267 137.02 118.348 137.243 117.307 137.243C116.28 137.243 115.361 137.02 114.55 136.574C113.74 136.128 113.104 135.513 112.645 134.73C112.185 133.932 111.956 133.013 111.956 131.973ZM114.429 131.973C114.429 132.581 114.55 133.115 114.794 133.574C115.05 134.034 115.388 134.392 115.807 134.649C116.24 134.905 116.74 135.034 117.307 135.034C117.875 135.034 118.375 134.905 118.807 134.649C119.24 134.392 119.577 134.034 119.821 133.574C120.064 133.115 120.186 132.581 120.186 131.973C120.186 131.351 120.064 130.817 119.821 130.372C119.577 129.912 119.24 129.554 118.807 129.297C118.375 129.04 117.875 128.912 117.307 128.912C116.74 128.912 116.24 129.04 115.807 129.297C115.388 129.554 115.05 129.912 114.794 130.372C114.55 130.817 114.429 131.351 114.429 131.973ZM126.353 137L123.11 126.986H125.684L127.002 131.284C127.11 131.676 127.218 132.088 127.326 132.52C127.434 132.953 127.529 133.405 127.61 133.878C127.678 133.554 127.738 133.257 127.792 132.986C127.86 132.716 127.934 132.453 128.015 132.196C128.096 131.926 128.191 131.622 128.299 131.284L129.678 126.986H132.191L133.529 131.284C133.556 131.378 133.597 131.54 133.651 131.77C133.718 131.986 133.786 132.223 133.853 132.48C133.921 132.736 133.982 132.993 134.036 133.25C134.103 133.493 134.151 133.703 134.178 133.878C134.232 133.622 134.299 133.331 134.38 133.007C134.461 132.682 134.543 132.372 134.624 132.074C134.718 131.763 134.793 131.5 134.847 131.284L136.184 126.986H138.799L135.333 137H133.022L131.644 132.662C131.441 132 131.279 131.439 131.157 130.98C131.036 130.507 130.955 130.142 130.914 129.885C130.874 130.128 130.799 130.453 130.691 130.858C130.583 131.263 130.401 131.878 130.144 132.703L128.765 137H126.353ZM143.937 137.264C142.964 137.264 142.126 137.047 141.423 136.615C140.734 136.169 140.193 135.554 139.801 134.77C139.423 133.986 139.234 133.074 139.234 132.034C139.234 130.993 139.423 130.074 139.801 129.277C140.193 128.466 140.754 127.831 141.484 127.371C142.214 126.912 143.079 126.682 144.079 126.682C144.781 126.682 145.423 126.824 146.004 127.108C146.585 127.378 147.031 127.763 147.342 128.263V121.919H149.795V137H147.525L147.362 135.439C147.065 136.007 146.606 136.453 145.984 136.777C145.376 137.101 144.693 137.264 143.937 137.264ZM144.484 134.993C145.065 134.993 145.565 134.872 145.984 134.628C146.403 134.372 146.727 134.013 146.957 133.554C147.2 133.081 147.322 132.547 147.322 131.953C147.322 131.345 147.2 130.817 146.957 130.372C146.727 129.912 146.403 129.554 145.984 129.297C145.565 129.027 145.065 128.892 144.484 128.892C143.916 128.892 143.423 129.027 143.004 129.297C142.585 129.554 142.261 129.912 142.031 130.372C141.815 130.831 141.707 131.358 141.707 131.953C141.707 132.547 141.815 133.074 142.031 133.534C142.261 133.993 142.585 134.351 143.004 134.608C143.423 134.865 143.916 134.993 144.484 134.993ZM154.865 137H152.413V121.919H154.865V137ZM156.872 131.973C156.872 130.932 157.101 130.02 157.561 129.236C158.02 128.439 158.655 127.817 159.466 127.371C160.277 126.926 161.196 126.703 162.223 126.703C163.264 126.703 164.183 126.926 164.98 127.371C165.791 127.817 166.426 128.439 166.885 129.236C167.345 130.02 167.574 130.932 167.574 131.973C167.574 133.013 167.345 133.932 166.885 134.73C166.426 135.513 165.791 136.128 164.98 136.574C164.183 137.02 163.264 137.243 162.223 137.243C161.196 137.243 160.277 137.02 159.466 136.574C158.655 136.128 158.02 135.513 157.561 134.73C157.101 133.932 156.872 133.013 156.872 131.973ZM159.345 131.973C159.345 132.581 159.466 133.115 159.709 133.574C159.966 134.034 160.304 134.392 160.723 134.649C161.155 134.905 161.655 135.034 162.223 135.034C162.791 135.034 163.291 134.905 163.723 134.649C164.155 134.392 164.493 134.034 164.737 133.574C164.98 133.115 165.101 132.581 165.101 131.973C165.101 131.351 164.98 130.817 164.737 130.372C164.493 129.912 164.155 129.554 163.723 129.297C163.291 129.04 162.791 128.912 162.223 128.912C161.655 128.912 161.155 129.04 160.723 129.297C160.304 129.554 159.966 129.912 159.709 130.372C159.466 130.817 159.345 131.351 159.345 131.973ZM172.514 137.264C171.46 137.264 170.623 136.98 170.001 136.412C169.393 135.831 169.089 135.074 169.089 134.142C169.089 133.223 169.406 132.493 170.041 131.953C170.69 131.399 171.609 131.074 172.798 130.98L175.798 130.736V130.513C175.798 130.054 175.71 129.689 175.535 129.419C175.373 129.135 175.136 128.932 174.825 128.811C174.514 128.676 174.15 128.608 173.731 128.608C173.001 128.608 172.44 128.757 172.048 129.054C171.656 129.338 171.46 129.743 171.46 130.27H169.352C169.352 129.54 169.535 128.912 169.9 128.385C170.278 127.844 170.805 127.426 171.481 127.128C172.17 126.831 172.96 126.682 173.852 126.682C174.758 126.682 175.535 126.844 176.183 127.169C176.832 127.48 177.332 127.953 177.683 128.588C178.035 129.209 178.21 129.986 178.21 130.919V137H176.042L175.859 135.52C175.643 136.034 175.224 136.453 174.602 136.777C173.994 137.101 173.298 137.264 172.514 137.264ZM173.305 135.399C174.075 135.399 174.683 135.182 175.129 134.75C175.589 134.318 175.819 133.716 175.819 132.946V132.419L173.731 132.581C172.96 132.649 172.413 132.811 172.089 133.068C171.764 133.311 171.602 133.635 171.602 134.041C171.602 134.486 171.751 134.824 172.048 135.054C172.346 135.284 172.764 135.399 173.305 135.399ZM183.113 137H180.64V126.986H182.93L183.133 128.284C183.444 127.784 183.883 127.392 184.451 127.108C185.032 126.824 185.66 126.682 186.336 126.682C187.593 126.682 188.539 127.054 189.174 127.797C189.822 128.54 190.147 129.554 190.147 130.838V137H187.674V131.426C187.674 130.588 187.485 129.966 187.106 129.561C186.728 129.142 186.214 128.932 185.566 128.932C184.795 128.932 184.194 129.176 183.762 129.662C183.329 130.149 183.113 130.797 183.113 131.608V137ZM197.452 131.973C197.452 130.946 197.662 130.034 198.081 129.236C198.513 128.439 199.101 127.817 199.844 127.371C200.601 126.912 201.473 126.682 202.459 126.682C203.824 126.682 204.939 127.04 205.804 127.757C206.682 128.459 207.189 129.412 207.324 130.615H204.851C204.702 130.047 204.425 129.622 204.02 129.338C203.628 129.04 203.135 128.892 202.54 128.892C202.027 128.892 201.567 129.02 201.162 129.277C200.77 129.52 200.466 129.872 200.25 130.331C200.033 130.79 199.925 131.338 199.925 131.973C199.925 132.608 200.027 133.155 200.229 133.615C200.432 134.074 200.723 134.432 201.101 134.689C201.493 134.932 201.952 135.054 202.479 135.054C203.101 135.054 203.615 134.905 204.02 134.608C204.439 134.311 204.716 133.885 204.851 133.331H207.344C207.236 134.115 206.959 134.804 206.513 135.399C206.081 135.98 205.52 136.439 204.831 136.777C204.142 137.101 203.358 137.264 202.479 137.264C201.466 137.264 200.581 137.047 199.824 136.615C199.067 136.169 198.479 135.554 198.06 134.77C197.655 133.973 197.452 133.04 197.452 131.973ZM208.597 131.973C208.597 130.932 208.827 130.02 209.286 129.236C209.746 128.439 210.381 127.817 211.192 127.371C212.003 126.926 212.921 126.703 213.949 126.703C214.989 126.703 215.908 126.926 216.705 127.371C217.516 127.817 218.151 128.439 218.611 129.236C219.07 130.02 219.3 130.932 219.3 131.973C219.3 133.013 219.07 133.932 218.611 134.73C218.151 135.513 217.516 136.128 216.705 136.574C215.908 137.02 214.989 137.243 213.949 137.243C212.921 137.243 212.003 137.02 211.192 136.574C210.381 136.128 209.746 135.513 209.286 134.73C208.827 133.932 208.597 133.013 208.597 131.973ZM211.07 131.973C211.07 132.581 211.192 133.115 211.435 133.574C211.692 134.034 212.03 134.392 212.449 134.649C212.881 134.905 213.381 135.034 213.949 135.034C214.516 135.034 215.016 134.905 215.449 134.649C215.881 134.392 216.219 134.034 216.462 133.574C216.705 133.115 216.827 132.581 216.827 131.973C216.827 131.351 216.705 130.817 216.462 130.372C216.219 129.912 215.881 129.554 215.449 129.297C215.016 129.04 214.516 128.912 213.949 128.912C213.381 128.912 212.881 129.04 212.449 129.297C212.03 129.554 211.692 129.912 211.435 130.372C211.192 130.817 211.07 131.351 211.07 131.973ZM223.733 137H221.26V126.986H223.551L223.753 128.284C224.064 127.784 224.503 127.392 225.071 127.108C225.652 126.824 226.281 126.682 226.956 126.682C228.213 126.682 229.159 127.054 229.794 127.797C230.443 128.54 230.767 129.554 230.767 130.838V137H228.294V131.426C228.294 130.588 228.105 129.966 227.726 129.561C227.348 129.142 226.835 128.932 226.186 128.932C225.416 128.932 224.814 129.176 224.382 129.662C223.949 130.149 223.733 130.797 223.733 131.608V137ZM232.204 126.986H238.528V129.054H232.204V126.986ZM236.602 137H234.129V123.865H236.602V137ZM246.369 126.946V129.236H245.457C244.552 129.236 243.842 129.48 243.329 129.966C242.815 130.439 242.559 131.162 242.559 132.135V137H240.086V127.007H242.417L242.619 129.074H242.376C242.511 128.412 242.829 127.872 243.329 127.453C243.829 127.034 244.478 126.824 245.275 126.824C245.451 126.824 245.626 126.831 245.802 126.844C245.978 126.858 246.167 126.892 246.369 126.946ZM248.043 137V126.986H250.516V137H248.043ZM249.26 124.98C248.841 124.98 248.483 124.838 248.185 124.554C247.902 124.257 247.76 123.898 247.76 123.48C247.76 123.061 247.902 122.709 248.185 122.425C248.483 122.142 248.841 122 249.26 122C249.679 122 250.03 122.142 250.314 122.425C250.611 122.709 250.76 123.061 250.76 123.48C250.76 123.898 250.611 124.257 250.314 124.554C250.03 124.838 249.679 124.98 249.26 124.98ZM255.362 137H253.071V121.919H255.544V128.446C255.869 127.878 256.342 127.446 256.963 127.149C257.585 126.838 258.281 126.682 259.051 126.682C260.011 126.682 260.828 126.912 261.504 127.371C262.193 127.817 262.72 128.446 263.085 129.257C263.463 130.067 263.653 131.007 263.653 132.074C263.653 133.088 263.457 133.986 263.065 134.77C262.673 135.554 262.119 136.169 261.403 136.615C260.686 137.047 259.849 137.264 258.889 137.264C258.146 137.264 257.47 137.101 256.862 136.777C256.267 136.453 255.821 136.007 255.524 135.439L255.362 137ZM255.565 131.953C255.565 132.547 255.68 133.081 255.909 133.554C256.139 134.013 256.463 134.372 256.882 134.628C257.315 134.872 257.815 134.993 258.382 134.993C258.963 134.993 259.463 134.865 259.882 134.608C260.301 134.351 260.619 133.993 260.835 133.534C261.051 133.074 261.159 132.547 261.159 131.953C261.159 131.358 261.051 130.831 260.835 130.372C260.619 129.912 260.301 129.554 259.882 129.297C259.463 129.027 258.963 128.892 258.382 128.892C257.815 128.892 257.315 129.027 256.882 129.297C256.463 129.554 256.139 129.912 255.909 130.372C255.68 130.817 255.565 131.345 255.565 131.953ZM272.175 126.986H274.648V137H272.357L272.175 135.662C271.878 136.135 271.432 136.52 270.837 136.818C270.242 137.115 269.607 137.264 268.932 137.264C267.783 137.264 266.884 136.899 266.236 136.169C265.587 135.439 265.263 134.466 265.263 133.25V126.986H267.736V132.378C267.736 133.324 267.918 134.007 268.283 134.426C268.648 134.845 269.175 135.054 269.864 135.054C270.648 135.054 271.229 134.824 271.607 134.365C271.986 133.892 272.175 133.182 272.175 132.236V126.986ZM276.209 126.986H282.533V129.054H276.209V126.986ZM280.608 137H278.135V123.865H280.608V137ZM283.404 131.973C283.404 130.932 283.634 130.02 284.093 129.236C284.553 128.439 285.188 127.817 285.999 127.371C286.81 126.926 287.728 126.703 288.755 126.703C289.796 126.703 290.715 126.926 291.512 127.371C292.323 127.817 292.958 128.439 293.418 129.236C293.877 130.02 294.107 130.932 294.107 131.973C294.107 133.013 293.877 133.932 293.418 134.73C292.958 135.513 292.323 136.128 291.512 136.574C290.715 137.02 289.796 137.243 288.755 137.243C287.728 137.243 286.81 137.02 285.999 136.574C285.188 136.128 284.553 135.513 284.093 134.73C283.634 133.932 283.404 133.013 283.404 131.973ZM285.877 131.973C285.877 132.581 285.999 133.115 286.242 133.574C286.499 134.034 286.837 134.392 287.255 134.649C287.688 134.905 288.188 135.034 288.755 135.034C289.323 135.034 289.823 134.905 290.256 134.649C290.688 134.392 291.026 134.034 291.269 133.574C291.512 133.115 291.634 132.581 291.634 131.973C291.634 131.351 291.512 130.817 291.269 130.372C291.026 129.912 290.688 129.554 290.256 129.297C289.823 129.04 289.323 128.912 288.755 128.912C288.188 128.912 287.688 129.04 287.255 129.297C286.837 129.554 286.499 129.912 286.242 130.372C285.999 130.817 285.877 131.351 285.877 131.973ZM302.351 126.946V129.236H301.439C300.533 129.236 299.824 129.48 299.31 129.966C298.797 130.439 298.54 131.162 298.54 132.135V137H296.067V127.007H298.398L298.601 129.074H298.358C298.493 128.412 298.81 127.872 299.31 127.453C299.81 127.034 300.459 126.824 301.256 126.824C301.432 126.824 301.608 126.831 301.783 126.844C301.959 126.858 302.148 126.892 302.351 126.946ZM303.255 133.959H305.606C305.62 134.392 305.782 134.736 306.093 134.993C306.403 135.25 306.836 135.378 307.39 135.378C307.984 135.378 308.43 135.27 308.728 135.054C309.038 134.838 309.194 134.547 309.194 134.182C309.194 133.939 309.113 133.723 308.951 133.534C308.788 133.345 308.484 133.203 308.038 133.108L306.234 132.682C305.329 132.48 304.653 132.155 304.207 131.709C303.775 131.25 303.559 130.622 303.559 129.824C303.559 129.176 303.728 128.615 304.065 128.142C304.417 127.669 304.89 127.311 305.484 127.067C306.079 126.811 306.761 126.682 307.532 126.682C308.275 126.682 308.93 126.817 309.498 127.088C310.066 127.358 310.505 127.736 310.816 128.223C311.14 128.709 311.309 129.277 311.322 129.926H308.971C308.971 129.493 308.836 129.155 308.566 128.912C308.295 128.655 307.917 128.527 307.43 128.527C306.944 128.527 306.565 128.635 306.295 128.851C306.025 129.067 305.89 129.358 305.89 129.723C305.89 130.277 306.322 130.655 307.187 130.858L308.991 131.284C309.829 131.473 310.457 131.777 310.876 132.196C311.309 132.615 311.525 133.209 311.525 133.98C311.525 134.655 311.349 135.243 310.998 135.743C310.647 136.23 310.153 136.608 309.518 136.878C308.883 137.135 308.153 137.264 307.329 137.264C306.086 137.264 305.092 136.959 304.349 136.351C303.619 135.743 303.255 134.946 303.255 133.959Z" fill="white"/>
<rect x="92.5005" y="157" width="388" height="5" rx="2.5" fill="white" fill-opacity="0.06"/>
<rect x="92.5005" y="171" width="388" height="5" rx="2.5" fill="white" fill-opacity="0.06"/>
<rect x="92.5005" y="185" width="166.595" height="5" rx="2.5" fill="white" fill-opacity="0.06"/>
<path d="M468.999 242.151L470.609 241.183C471.475 240.664 472.535 240.542 473.479 240.902C474.039 241.116 474.669 241.18 475.324 241.058C476.63 240.809 477.686 239.765 477.947 238.461C478.419 236.12 476.426 234.074 474.094 234.466C472.851 234.675 471.82 235.61 471.456 236.816C471.398 237.007 471.361 237.193 471.337 237.376C471.212 238.378 470.571 239.245 469.706 239.766L468.723 240.355C467.878 240.86 466.857 240.895 465.934 240.554C465.574 240.422 465.184 240.347 464.778 240.347C462.707 240.347 461.066 242.245 461.498 244.391C461.759 245.695 462.815 246.739 464.121 246.988C464.776 247.113 465.406 247.046 465.966 246.832C466.91 246.472 467.968 246.593 468.836 247.113L470.442 248.075C470.985 248.4 471.314 248.987 471.314 249.618V249.627C471.314 251.694 473.203 253.33 475.342 252.909C476.646 252.654 477.695 251.603 477.952 250.299C478.372 248.16 476.737 246.272 474.669 246.272C474.263 246.272 473.874 246.346 473.514 246.478C472.59 246.819 471.572 246.785 470.727 246.279L468.996 245.239C468.458 244.917 468.129 244.335 468.129 243.706V243.688C468.127 243.061 468.459 242.476 468.999 242.151L468.999 242.151Z" fill="#44444A"/>
<path d="M106.63 235.077C106.118 234.402 105.306 234.021 104.46 234.059C103.614 234.097 102.84 234.547 102.389 235.264L98.7661 241.053V251.439C98.8517 251.483 98.9473 251.505 99.0429 251.502H107.516C108.626 251.504 109.598 250.758 109.886 249.686L111.756 242.86H111.756C111.918 242.253 111.789 241.605 111.407 241.106C111.027 240.607 110.434 240.316 109.806 240.319H106.191L107.05 237.34C107.267 236.561 107.112 235.726 106.63 235.077L106.63 235.077Z" fill="url(#paint2_linear_732_15459)"/>
<path d="M96.3585 251.503H97.8708V241.214H96.3585C95.4947 241.216 94.7943 241.916 94.7935 242.78V249.937C94.7943 250.801 95.4946 251.502 96.3585 251.503Z" fill="url(#paint3_linear_732_15459)"/>
<path d="M144.63 254.483C144.118 255.157 143.306 255.538 142.46 255.5C141.614 255.463 140.84 255.012 140.389 254.295L136.766 248.507V238.12C136.852 238.077 136.947 238.055 137.043 238.057H145.516C146.626 238.056 147.598 238.801 147.886 239.873L149.756 246.7H149.756C149.918 247.307 149.789 247.954 149.407 248.453C149.027 248.952 148.434 249.243 147.806 249.24H144.191L145.05 252.219C145.267 252.998 145.112 253.834 144.63 254.483L144.63 254.483Z" fill="#FBCD9C"/>
<path d="M134.359 238.057H135.871V248.346H134.359C133.495 248.344 132.794 247.644 132.793 246.78V239.623C132.794 238.758 133.495 238.058 134.359 238.057Z" fill="#FBCD9C"/>
<line opacity="0.7" x1="92.5005" y1="211.342" x2="480.417" y2="211.342" stroke="#29292D"/>
<rect x="464.5" y="74" width="25" height="12" rx="6" fill="#2A3F39"/>
</g>
<g filter="url(#filter1_d_732_15459)">
<g filter="url(#filter2_d_732_15459)">
<rect x="62.0063" y="284" width="444.639" height="484" rx="18" fill="url(#paint4_linear_732_15459)"/>
<rect x="89.5005" y="348" width="300" height="15" rx="7.5" fill="url(#paint5_linear_732_15459)"/>
<rect x="396.5" y="348" width="96" height="15" rx="7.5" fill="#FC607C"/>
<path d="M98.7405 325.192C97.5992 325.192 96.6072 324.947 95.7645 324.456C94.9325 323.955 94.2818 323.256 93.8125 322.36C93.3538 321.453 93.1245 320.387 93.1245 319.16C93.1245 317.944 93.3592 316.883 93.8285 315.976C94.3085 315.069 94.9805 314.365 95.8445 313.864C96.7085 313.363 97.7058 313.112 98.8365 313.112C99.7645 313.112 100.596 313.283 101.332 313.624C102.068 313.965 102.676 314.445 103.156 315.064C103.636 315.672 103.94 316.397 104.068 317.24H101.908C101.706 316.557 101.327 316.029 100.772 315.656C100.228 315.272 99.5618 315.08 98.7725 315.08C98.0685 315.08 97.4498 315.245 96.9165 315.576C96.3938 315.907 95.9885 316.376 95.7005 316.984C95.4125 317.592 95.2685 318.317 95.2685 319.16C95.2685 319.971 95.4125 320.685 95.7005 321.304C95.9885 321.912 96.3938 322.387 96.9165 322.728C97.4498 323.059 98.0685 323.224 98.7725 323.224C99.5725 323.224 100.255 323.032 100.82 322.648C101.396 322.264 101.78 321.747 101.972 321.096H104.1C103.951 321.907 103.626 322.621 103.124 323.24C102.634 323.859 102.01 324.339 101.252 324.68C100.506 325.021 99.6685 325.192 98.7405 325.192ZM111.009 317.096H112.961V325H111.153L111.009 323.944C110.774 324.317 110.422 324.621 109.953 324.856C109.484 325.091 108.982 325.208 108.449 325.208C107.542 325.208 106.833 324.92 106.321 324.344C105.809 323.768 105.553 323 105.553 322.04V317.096H107.505V321.352C107.505 322.099 107.649 322.637 107.937 322.968C108.225 323.299 108.641 323.464 109.185 323.464C109.804 323.464 110.262 323.283 110.561 322.92C110.86 322.547 111.009 321.987 111.009 321.24V317.096ZM119.937 317.064V318.872H119.217C118.503 318.872 117.943 319.064 117.537 319.448C117.132 319.821 116.929 320.392 116.929 321.16V325H114.977V317.112H116.817L116.977 318.744H116.785C116.892 318.221 117.143 317.795 117.537 317.464C117.932 317.133 118.444 316.968 119.073 316.968C119.212 316.968 119.351 316.973 119.489 316.984C119.628 316.995 119.777 317.021 119.937 317.064ZM126.218 317.064V318.872H125.498C124.784 318.872 124.224 319.064 123.818 319.448C123.413 319.821 123.21 320.392 123.21 321.16V325H121.258V317.112H123.098L123.258 318.744H123.066C123.173 318.221 123.424 317.795 123.818 317.464C124.213 317.133 124.725 316.968 125.354 316.968C125.493 316.968 125.632 316.973 125.77 316.984C125.909 316.995 126.058 317.021 126.218 317.064ZM130.81 325.208C130.031 325.208 129.338 325.032 128.73 324.68C128.133 324.317 127.663 323.827 127.322 323.208C126.981 322.579 126.81 321.859 126.81 321.048C126.81 320.227 126.975 319.501 127.306 318.872C127.637 318.243 128.101 317.752 128.698 317.4C129.295 317.037 129.978 316.856 130.746 316.856C131.546 316.856 132.234 317.027 132.81 317.368C133.386 317.699 133.829 318.163 134.138 318.76C134.458 319.357 134.618 320.072 134.618 320.904V321.496L127.834 321.512L127.866 320.264H132.682C132.682 319.72 132.506 319.283 132.154 318.952C131.813 318.621 131.349 318.456 130.762 318.456C130.303 318.456 129.914 318.552 129.594 318.744C129.285 318.936 129.05 319.224 128.89 319.608C128.73 319.992 128.65 320.461 128.65 321.016C128.65 321.869 128.831 322.515 129.194 322.952C129.567 323.389 130.117 323.608 130.842 323.608C131.375 323.608 131.813 323.507 132.154 323.304C132.506 323.101 132.735 322.813 132.842 322.44H134.65C134.479 323.304 134.053 323.981 133.37 324.472C132.698 324.963 131.845 325.208 130.81 325.208ZM138.132 325H136.18V317.096H137.988L138.148 318.12C138.394 317.725 138.74 317.416 139.188 317.192C139.647 316.968 140.143 316.856 140.676 316.856C141.668 316.856 142.415 317.149 142.916 317.736C143.428 318.323 143.684 319.123 143.684 320.136V325H141.732V320.6C141.732 319.939 141.583 319.448 141.284 319.128C140.986 318.797 140.58 318.632 140.068 318.632C139.46 318.632 138.986 318.824 138.644 319.208C138.303 319.592 138.132 320.104 138.132 320.744V325ZM144.818 317.096H149.81V318.728H144.818V317.096ZM148.29 325H146.338V314.632H148.29V325ZM160.312 317.064V318.872H159.592C158.878 318.872 158.318 319.064 157.912 319.448C157.507 319.821 157.304 320.392 157.304 321.16V325H155.352V317.112H157.192L157.352 318.744H157.16C157.267 318.221 157.518 317.795 157.912 317.464C158.307 317.133 158.819 316.968 159.448 316.968C159.587 316.968 159.726 316.973 159.864 316.984C160.003 316.995 160.152 317.021 160.312 317.064ZM164.904 325.208C164.125 325.208 163.432 325.032 162.824 324.68C162.227 324.317 161.757 323.827 161.416 323.208C161.075 322.579 160.904 321.859 160.904 321.048C160.904 320.227 161.069 319.501 161.4 318.872C161.731 318.243 162.195 317.752 162.792 317.4C163.389 317.037 164.072 316.856 164.84 316.856C165.64 316.856 166.328 317.027 166.904 317.368C167.48 317.699 167.923 318.163 168.232 318.76C168.552 319.357 168.712 320.072 168.712 320.904V321.496L161.928 321.512L161.96 320.264H166.776C166.776 319.72 166.6 319.283 166.248 318.952C165.907 318.621 165.443 318.456 164.856 318.456C164.397 318.456 164.008 318.552 163.688 318.744C163.379 318.936 163.144 319.224 162.984 319.608C162.824 319.992 162.744 320.461 162.744 321.016C162.744 321.869 162.925 322.515 163.288 322.952C163.661 323.389 164.211 323.608 164.936 323.608C165.469 323.608 165.907 323.507 166.248 323.304C166.6 323.101 166.829 322.813 166.936 322.44H168.744C168.573 323.304 168.147 323.981 167.464 324.472C166.792 324.963 165.939 325.208 164.904 325.208ZM169.666 322.6H171.522C171.533 322.941 171.661 323.213 171.906 323.416C172.151 323.619 172.493 323.72 172.93 323.72C173.399 323.72 173.751 323.635 173.986 323.464C174.231 323.293 174.354 323.064 174.354 322.776C174.354 322.584 174.29 322.413 174.162 322.264C174.034 322.115 173.794 322.003 173.442 321.928L172.018 321.592C171.303 321.432 170.77 321.176 170.418 320.824C170.077 320.461 169.906 319.965 169.906 319.336C169.906 318.824 170.039 318.381 170.306 318.008C170.583 317.635 170.957 317.352 171.426 317.16C171.895 316.957 172.434 316.856 173.042 316.856C173.629 316.856 174.146 316.963 174.594 317.176C175.042 317.389 175.389 317.688 175.634 318.072C175.89 318.456 176.023 318.904 176.034 319.416H174.178C174.178 319.075 174.071 318.808 173.858 318.616C173.645 318.413 173.346 318.312 172.962 318.312C172.578 318.312 172.279 318.397 172.066 318.568C171.853 318.739 171.746 318.968 171.746 319.256C171.746 319.693 172.087 319.992 172.77 320.152L174.194 320.488C174.855 320.637 175.351 320.877 175.682 321.208C176.023 321.539 176.194 322.008 176.194 322.616C176.194 323.149 176.055 323.613 175.778 324.008C175.501 324.392 175.111 324.691 174.61 324.904C174.109 325.107 173.533 325.208 172.882 325.208C171.901 325.208 171.117 324.968 170.53 324.488C169.954 324.008 169.666 323.379 169.666 322.6ZM183.04 317.096H184.992V325H183.184L183.04 323.944C182.806 324.317 182.454 324.621 181.984 324.856C181.515 325.091 181.014 325.208 180.48 325.208C179.574 325.208 178.864 324.92 178.352 324.344C177.84 323.768 177.584 323 177.584 322.04V317.096H179.536V321.352C179.536 322.099 179.68 322.637 179.968 322.968C180.256 323.299 180.672 323.464 181.216 323.464C181.835 323.464 182.294 323.283 182.592 322.92C182.891 322.547 183.04 321.987 183.04 321.24V317.096ZM188.976 325H187.04V313.096H188.976V325ZM190.24 317.096H195.232V318.728H190.24V317.096ZM193.712 325H191.76V314.632H193.712V325ZM195.854 322.6H197.71C197.72 322.941 197.848 323.213 198.094 323.416C198.339 323.619 198.68 323.72 199.118 323.72C199.587 323.72 199.939 323.635 200.174 323.464C200.419 323.293 200.542 323.064 200.542 322.776C200.542 322.584 200.478 322.413 200.35 322.264C200.222 322.115 199.982 322.003 199.63 321.928L198.206 321.592C197.491 321.432 196.958 321.176 196.606 320.824C196.264 320.461 196.094 319.965 196.094 319.336C196.094 318.824 196.227 318.381 196.494 318.008C196.771 317.635 197.144 317.352 197.614 317.16C198.083 316.957 198.622 316.856 199.23 316.856C199.816 316.856 200.334 316.963 200.782 317.176C201.23 317.389 201.576 317.688 201.822 318.072C202.078 318.456 202.211 318.904 202.222 319.416H200.366C200.366 319.075 200.259 318.808 200.046 318.616C199.832 318.413 199.534 318.312 199.15 318.312C198.766 318.312 198.467 318.397 198.254 318.568C198.04 318.739 197.934 318.968 197.934 319.256C197.934 319.693 198.275 319.992 198.958 320.152L200.382 320.488C201.043 320.637 201.539 320.877 201.87 321.208C202.211 321.539 202.382 322.008 202.382 322.616C202.382 323.149 202.243 323.613 201.966 324.008C201.688 324.392 201.299 324.691 200.798 324.904C200.296 325.107 199.72 325.208 199.07 325.208C198.088 325.208 197.304 324.968 196.718 324.488C196.142 324.008 195.854 323.379 195.854 322.6Z" fill="white"/>
<path d="M93.2165 381H91.6325L94.8005 372.228H96.3725L99.5405 381H97.9205L97.2125 378.972H93.9365L93.2165 381ZM95.3885 374.844L94.3805 377.676H96.7685L95.7605 374.844C95.7285 374.724 95.6925 374.604 95.6525 374.484C95.6125 374.364 95.5885 374.26 95.5805 374.172C95.5645 374.252 95.5365 374.356 95.4965 374.484C95.4645 374.604 95.4285 374.724 95.3885 374.844ZM100.996 375.072L102.928 380.544L102.136 382.044L99.4478 375.072H100.996ZM99.6038 383.748V382.536H100.48C100.672 382.536 100.84 382.512 100.984 382.464C101.128 382.424 101.256 382.344 101.368 382.224C101.488 382.104 101.588 381.928 101.668 381.696L104.128 375.072H105.64L102.736 382.32C102.52 382.864 102.248 383.26 101.92 383.508C101.592 383.756 101.184 383.88 100.696 383.88C100.488 383.88 100.292 383.868 100.108 383.844C99.9318 383.828 99.7638 383.796 99.6038 383.748ZM108.854 381.156C108.27 381.156 107.75 381.024 107.294 380.76C106.846 380.488 106.494 380.12 106.238 379.656C105.982 379.184 105.854 378.644 105.854 378.036C105.854 377.42 105.978 376.876 106.226 376.404C106.474 375.932 106.822 375.564 107.27 375.3C107.718 375.028 108.23 374.892 108.806 374.892C109.406 374.892 109.922 375.02 110.354 375.276C110.786 375.524 111.118 375.872 111.35 376.32C111.59 376.768 111.71 377.304 111.71 377.928V378.372L106.622 378.384L106.646 377.448H110.258C110.258 377.04 110.126 376.712 109.862 376.464C109.606 376.216 109.258 376.092 108.818 376.092C108.474 376.092 108.182 376.164 107.942 376.308C107.71 376.452 107.534 376.668 107.414 376.956C107.294 377.244 107.234 377.596 107.234 378.012C107.234 378.652 107.37 379.136 107.642 379.464C107.922 379.792 108.334 379.956 108.878 379.956C109.278 379.956 109.606 379.88 109.862 379.728C110.126 379.576 110.298 379.36 110.378 379.08H111.734C111.606 379.728 111.286 380.236 110.774 380.604C110.27 380.972 109.63 381.156 108.854 381.156Z" fill="white"/>
<path d="M91.5705 391.69H96.8205V392.87H91.5705V391.69ZM95.8205 392.23L96.8205 392.87L94.1705 399H92.8405L95.8205 392.23ZM97.4664 398.91L97.5864 398.88C97.5331 398.927 97.4731 398.963 97.4064 398.99C97.3464 399.01 97.2731 399.02 97.1864 399.02C96.9931 399.02 96.8264 398.957 96.6864 398.83C96.5464 398.697 96.4764 398.53 96.4764 398.33C96.4764 398.09 96.5464 397.897 96.6864 397.75C96.8264 397.603 97.0098 397.53 97.2364 397.53C97.4898 397.53 97.6964 397.623 97.8564 397.81C98.0164 397.997 98.0964 398.247 98.0964 398.56C98.0964 398.833 98.0364 399.083 97.9164 399.31C97.7964 399.543 97.6298 399.733 97.4164 399.88C97.2031 400.027 96.9598 400.117 96.6864 400.15V399.66C96.9131 399.62 97.0998 399.533 97.2464 399.4C97.3931 399.273 97.4664 399.11 97.4664 398.91ZM99.9138 393.84L101.494 391.69H102.954L100.894 394.44L100.574 394.36C100.721 394.227 100.901 394.123 101.114 394.05C101.334 393.977 101.547 393.94 101.754 393.94C102.254 393.94 102.694 394.05 103.074 394.27C103.454 394.483 103.751 394.783 103.964 395.17C104.177 395.55 104.284 395.987 104.284 396.48C104.284 397 104.164 397.46 103.924 397.86C103.691 398.253 103.367 398.563 102.954 398.79C102.547 399.017 102.084 399.13 101.564 399.13C101.037 399.13 100.564 399.013 100.144 398.78C99.7305 398.547 99.4038 398.23 99.1638 397.83C98.9238 397.423 98.8038 396.97 98.8038 396.47C98.8038 396.17 98.8372 395.893 98.9038 395.64C98.9772 395.38 99.0938 395.107 99.2538 394.82C99.4205 394.533 99.6405 394.207 99.9138 393.84ZM100.114 396.48C100.114 396.78 100.174 397.043 100.294 397.27C100.421 397.497 100.591 397.673 100.804 397.8C101.024 397.927 101.277 397.99 101.564 397.99C101.844 397.99 102.091 397.927 102.304 397.8C102.517 397.673 102.684 397.497 102.804 397.27C102.931 397.043 102.994 396.78 102.994 396.48C102.994 396.187 102.931 395.93 102.804 395.71C102.684 395.483 102.517 395.307 102.304 395.18C102.091 395.053 101.844 394.99 101.564 394.99C101.277 394.99 101.024 395.053 100.804 395.18C100.584 395.307 100.414 395.483 100.294 395.71C100.174 395.93 100.114 396.187 100.114 396.48ZM105.075 395.36C105.075 394.6 105.202 393.937 105.455 393.37C105.715 392.803 106.075 392.36 106.535 392.04C107.002 391.713 107.545 391.55 108.165 391.55C108.792 391.55 109.335 391.713 109.795 392.04C110.262 392.36 110.622 392.803 110.875 393.37C111.135 393.937 111.265 394.6 111.265 395.36C111.265 396.113 111.142 396.773 110.895 397.34C110.648 397.907 110.295 398.347 109.835 398.66C109.375 398.973 108.818 399.13 108.165 399.13C107.525 399.13 106.972 398.973 106.505 398.66C106.045 398.347 105.692 397.907 105.445 397.34C105.198 396.773 105.075 396.113 105.075 395.36ZM106.335 395.36C106.335 395.92 106.408 396.4 106.555 396.8C106.702 397.193 106.912 397.493 107.185 397.7C107.458 397.9 107.785 398 108.165 398C108.558 398 108.888 397.9 109.155 397.7C109.428 397.493 109.638 397.193 109.785 396.8C109.932 396.4 110.005 395.92 110.005 395.36C110.005 394.78 109.932 394.293 109.785 393.9C109.638 393.5 109.428 393.197 109.155 392.99C108.888 392.783 108.558 392.68 108.165 392.68C107.785 392.68 107.458 392.783 107.185 392.99C106.912 393.197 106.702 393.5 106.555 393.9C106.408 394.293 106.335 394.78 106.335 395.36ZM116.896 391.69V399H115.686V391.69H116.896ZM111.976 396.49L115.286 391.69H116.636L113.276 396.57L111.976 396.49ZM117.786 397.61H111.976V396.49H117.786V397.61ZM119.634 398.91L119.754 398.88C119.701 398.927 119.641 398.963 119.574 398.99C119.514 399.01 119.441 399.02 119.354 399.02C119.161 399.02 118.994 398.957 118.854 398.83C118.714 398.697 118.644 398.53 118.644 398.33C118.644 398.09 118.714 397.897 118.854 397.75C118.994 397.603 119.178 397.53 119.404 397.53C119.658 397.53 119.864 397.623 120.024 397.81C120.184 397.997 120.264 398.247 120.264 398.56C120.264 398.833 120.204 399.083 120.084 399.31C119.964 399.543 119.798 399.733 119.584 399.88C119.371 400.027 119.128 400.117 118.854 400.15V399.66C119.081 399.62 119.268 399.533 119.414 399.4C119.561 399.273 119.634 399.11 119.634 398.91ZM121.276 396.93C121.276 396.43 121.423 396.003 121.716 395.65C122.016 395.29 122.406 395.063 122.886 394.97L122.896 395.2C122.463 395.087 122.126 394.883 121.886 394.59C121.653 394.297 121.536 393.94 121.536 393.52C121.536 393.133 121.643 392.793 121.856 392.5C122.069 392.207 122.366 391.977 122.746 391.81C123.133 391.643 123.576 391.56 124.076 391.56C124.576 391.56 125.013 391.643 125.386 391.81C125.766 391.97 126.059 392.2 126.266 392.5C126.479 392.793 126.586 393.14 126.586 393.54C126.586 393.96 126.466 394.317 126.226 394.61C125.986 394.897 125.649 395.09 125.216 395.19L125.206 394.98C125.533 395.027 125.819 395.143 126.066 395.33C126.313 395.51 126.503 395.737 126.636 396.01C126.776 396.283 126.846 396.59 126.846 396.93C126.846 397.37 126.729 397.757 126.496 398.09C126.269 398.417 125.946 398.67 125.526 398.85C125.113 399.03 124.623 399.12 124.056 399.12C123.496 399.12 123.006 399.03 122.586 398.85C122.173 398.67 121.849 398.417 121.616 398.09C121.389 397.757 121.276 397.37 121.276 396.93ZM122.526 396.84C122.526 397.073 122.586 397.277 122.706 397.45C122.833 397.623 123.009 397.757 123.236 397.85C123.469 397.943 123.746 397.99 124.066 397.99C124.373 397.99 124.639 397.943 124.866 397.85C125.099 397.757 125.276 397.627 125.396 397.46C125.523 397.287 125.586 397.08 125.586 396.84C125.586 396.487 125.446 396.207 125.166 396C124.893 395.793 124.523 395.69 124.056 395.69C123.589 395.69 123.216 395.793 122.936 396C122.663 396.207 122.526 396.487 122.526 396.84ZM122.696 393.63C122.696 393.93 122.819 394.173 123.066 394.36C123.313 394.54 123.643 394.63 124.056 394.63C124.463 394.63 124.786 394.54 125.026 394.36C125.273 394.18 125.396 393.94 125.396 393.64C125.396 393.333 125.273 393.093 125.026 392.92C124.786 392.74 124.463 392.65 124.056 392.65C123.643 392.65 123.313 392.74 123.066 392.92C122.819 393.093 122.696 393.33 122.696 393.63ZM130.183 399.12C129.676 399.12 129.23 399.02 128.843 398.82C128.463 398.613 128.166 398.327 127.953 397.96C127.746 397.587 127.643 397.153 127.643 396.66H128.903C128.903 397.073 129.02 397.397 129.253 397.63C129.486 397.863 129.806 397.98 130.213 397.98C130.5 397.98 130.746 397.923 130.953 397.81C131.166 397.69 131.33 397.52 131.443 397.3C131.563 397.08 131.623 396.823 131.623 396.53C131.623 396.25 131.566 396.003 131.453 395.79C131.346 395.57 131.19 395.4 130.983 395.28C130.776 395.16 130.526 395.1 130.233 395.1C129.953 395.1 129.693 395.163 129.453 395.29C129.22 395.41 129.036 395.567 128.903 395.76L127.773 395.52L128.673 391.69H132.483V392.87H129.263L129.693 392.47L129.103 394.8L128.673 394.98C128.833 394.673 129.073 394.44 129.393 394.28C129.72 394.113 130.086 394.03 130.493 394.03C130.98 394.03 131.403 394.133 131.763 394.34C132.13 394.547 132.413 394.833 132.613 395.2C132.82 395.56 132.923 395.98 132.923 396.46C132.923 396.987 132.806 397.45 132.573 397.85C132.346 398.25 132.026 398.563 131.613 398.79C131.206 399.01 130.73 399.12 130.183 399.12ZM137.93 396.85L136.35 399H134.89L136.95 396.25L137.27 396.33C137.123 396.457 136.94 396.56 136.72 396.64C136.506 396.713 136.296 396.75 136.09 396.75C135.59 396.75 135.15 396.643 134.77 396.43C134.39 396.21 134.093 395.91 133.88 395.53C133.666 395.143 133.56 394.703 133.56 394.21C133.56 393.69 133.676 393.23 133.91 392.83C134.15 392.43 134.473 392.12 134.88 391.9C135.293 391.673 135.76 391.56 136.28 391.56C136.806 391.56 137.276 391.68 137.69 391.92C138.11 392.153 138.44 392.47 138.68 392.87C138.92 393.27 139.04 393.72 139.04 394.22C139.04 394.513 139.003 394.79 138.93 395.05C138.856 395.31 138.74 395.583 138.58 395.87C138.42 396.15 138.203 396.477 137.93 396.85ZM137.73 394.21C137.73 393.91 137.67 393.647 137.55 393.42C137.43 393.193 137.26 393.017 137.04 392.89C136.82 392.763 136.566 392.7 136.28 392.7C136 392.7 135.75 392.763 135.53 392.89C135.316 393.017 135.15 393.193 135.03 393.42C134.91 393.647 134.85 393.91 134.85 394.21C134.85 394.503 134.91 394.763 135.03 394.99C135.15 395.21 135.316 395.383 135.53 395.51C135.75 395.637 136 395.7 136.28 395.7C136.573 395.7 136.826 395.637 137.04 395.51C137.26 395.383 137.43 395.21 137.55 394.99C137.67 394.763 137.73 394.503 137.73 394.21ZM140.49 399.12C140.27 399.12 140.08 399.043 139.92 398.89C139.76 398.737 139.68 398.55 139.68 398.33C139.68 398.11 139.76 397.923 139.92 397.77C140.08 397.61 140.27 397.53 140.49 397.53C140.71 397.53 140.9 397.61 141.06 397.77C141.22 397.923 141.3 398.11 141.3 398.33C141.3 398.55 141.22 398.737 141.06 398.89C140.9 399.043 140.71 399.12 140.49 399.12ZM142.311 396.93C142.311 396.43 142.458 396.003 142.751 395.65C143.051 395.29 143.441 395.063 143.921 394.97L143.931 395.2C143.498 395.087 143.161 394.883 142.921 394.59C142.688 394.297 142.571 393.94 142.571 393.52C142.571 393.133 142.678 392.793 142.891 392.5C143.104 392.207 143.401 391.977 143.781 391.81C144.168 391.643 144.611 391.56 145.111 391.56C145.611 391.56 146.048 391.643 146.421 391.81C146.801 391.97 147.094 392.2 147.301 392.5C147.514 392.793 147.621 393.14 147.621 393.54C147.621 393.96 147.501 394.317 147.261 394.61C147.021 394.897 146.684 395.09 146.251 395.19L146.241 394.98C146.568 395.027 146.854 395.143 147.101 395.33C147.348 395.51 147.538 395.737 147.671 396.01C147.811 396.283 147.881 396.59 147.881 396.93C147.881 397.37 147.764 397.757 147.531 398.09C147.304 398.417 146.981 398.67 146.561 398.85C146.148 399.03 145.658 399.12 145.091 399.12C144.531 399.12 144.041 399.03 143.621 398.85C143.208 398.67 142.884 398.417 142.651 398.09C142.424 397.757 142.311 397.37 142.311 396.93ZM143.561 396.84C143.561 397.073 143.621 397.277 143.741 397.45C143.868 397.623 144.044 397.757 144.271 397.85C144.504 397.943 144.781 397.99 145.101 397.99C145.408 397.99 145.674 397.943 145.901 397.85C146.134 397.757 146.311 397.627 146.431 397.46C146.558 397.287 146.621 397.08 146.621 396.84C146.621 396.487 146.481 396.207 146.201 396C145.928 395.793 145.558 395.69 145.091 395.69C144.624 395.69 144.251 395.793 143.971 396C143.698 396.207 143.561 396.487 143.561 396.84ZM143.731 393.63C143.731 393.93 143.854 394.173 144.101 394.36C144.348 394.54 144.678 394.63 145.091 394.63C145.498 394.63 145.821 394.54 146.061 394.36C146.308 394.18 146.431 393.94 146.431 393.64C146.431 393.333 146.308 393.093 146.061 392.92C145.821 392.74 145.498 392.65 145.091 392.65C144.678 392.65 144.348 392.74 144.101 392.92C143.854 393.093 143.731 393.33 143.731 393.63ZM148.717 396.93C148.717 396.43 148.864 396.003 149.157 395.65C149.457 395.29 149.847 395.063 150.327 394.97L150.337 395.2C149.904 395.087 149.567 394.883 149.327 394.59C149.094 394.297 148.977 393.94 148.977 393.52C148.977 393.133 149.084 392.793 149.297 392.5C149.511 392.207 149.807 391.977 150.187 391.81C150.574 391.643 151.017 391.56 151.517 391.56C152.017 391.56 152.454 391.643 152.827 391.81C153.207 391.97 153.501 392.2 153.707 392.5C153.921 392.793 154.027 393.14 154.027 393.54C154.027 393.96 153.907 394.317 153.667 394.61C153.427 394.897 153.091 395.09 152.657 395.19L152.647 394.98C152.974 395.027 153.261 395.143 153.507 395.33C153.754 395.51 153.944 395.737 154.077 396.01C154.217 396.283 154.287 396.59 154.287 396.93C154.287 397.37 154.171 397.757 153.937 398.09C153.711 398.417 153.387 398.67 152.967 398.85C152.554 399.03 152.064 399.12 151.497 399.12C150.937 399.12 150.447 399.03 150.027 398.85C149.614 398.67 149.291 398.417 149.057 398.09C148.831 397.757 148.717 397.37 148.717 396.93ZM149.967 396.84C149.967 397.073 150.027 397.277 150.147 397.45C150.274 397.623 150.451 397.757 150.677 397.85C150.911 397.943 151.187 397.99 151.507 397.99C151.814 397.99 152.081 397.943 152.307 397.85C152.541 397.757 152.717 397.627 152.837 397.46C152.964 397.287 153.027 397.08 153.027 396.84C153.027 396.487 152.887 396.207 152.607 396C152.334 395.793 151.964 395.69 151.497 395.69C151.031 395.69 150.657 395.793 150.377 396C150.104 396.207 149.967 396.487 149.967 396.84ZM150.137 393.63C150.137 393.93 150.261 394.173 150.507 394.36C150.754 394.54 151.084 394.63 151.497 394.63C151.904 394.63 152.227 394.54 152.467 394.36C152.714 394.18 152.837 393.94 152.837 393.64C152.837 393.333 152.714 393.093 152.467 392.92C152.227 392.74 151.904 392.65 151.497 392.65C151.084 392.65 150.754 392.74 150.507 392.92C150.261 393.093 150.137 393.33 150.137 393.63ZM159.489 391.69V399H158.209V391.69H159.489ZM161.109 395.89H159.099V394.81H161.039C161.392 394.81 161.662 394.723 161.849 394.55C162.036 394.37 162.129 394.117 162.129 393.79C162.129 393.477 162.032 393.237 161.839 393.07C161.646 392.903 161.366 392.82 160.999 392.82H159.059V391.69H161.109C161.836 391.69 162.406 391.867 162.819 392.22C163.232 392.573 163.439 393.057 163.439 393.67C163.439 394.11 163.332 394.48 163.119 394.78C162.906 395.073 162.589 395.287 162.169 395.42V395.28C162.622 395.387 162.966 395.587 163.199 395.88C163.432 396.173 163.549 396.553 163.549 397.02C163.549 397.433 163.456 397.79 163.269 398.09C163.082 398.383 162.809 398.61 162.449 398.77C162.096 398.923 161.669 399 161.169 399H159.059V397.87H161.109C161.476 397.87 161.756 397.783 161.949 397.61C162.142 397.437 162.239 397.187 162.239 396.86C162.239 396.553 162.139 396.317 161.939 396.15C161.746 395.977 161.469 395.89 161.109 395.89ZM164.303 393.73C164.303 393.303 164.413 392.927 164.633 392.6C164.853 392.273 165.156 392.02 165.543 391.84C165.936 391.653 166.389 391.56 166.903 391.56C167.396 391.56 167.823 391.647 168.183 391.82C168.549 391.993 168.833 392.24 169.033 392.56C169.239 392.88 169.349 393.26 169.363 393.7H168.083C168.069 393.387 167.956 393.143 167.743 392.97C167.529 392.79 167.243 392.7 166.883 392.7C166.489 392.7 166.173 392.79 165.933 392.97C165.699 393.143 165.583 393.383 165.583 393.69C165.583 393.95 165.653 394.157 165.793 394.31C165.939 394.457 166.166 394.567 166.473 394.64L167.623 394.9C168.249 395.033 168.716 395.263 169.023 395.59C169.329 395.91 169.483 396.343 169.483 396.89C169.483 397.337 169.373 397.73 169.153 398.07C168.933 398.41 168.619 398.673 168.213 398.86C167.813 399.04 167.343 399.13 166.803 399.13C166.289 399.13 165.839 399.043 165.453 398.87C165.066 398.69 164.763 398.44 164.543 398.12C164.329 397.8 164.216 397.423 164.203 396.99H165.483C165.489 397.297 165.609 397.54 165.843 397.72C166.083 397.893 166.406 397.98 166.813 397.98C167.239 397.98 167.576 397.893 167.823 397.72C168.076 397.54 168.203 397.303 168.203 397.01C168.203 396.757 168.136 396.557 168.003 396.41C167.869 396.257 167.653 396.15 167.353 396.09L166.193 395.83C165.573 395.697 165.103 395.457 164.783 395.11C164.463 394.757 164.303 394.297 164.303 393.73ZM172.481 395.35L170.051 391.69H171.571L172.461 393.01C172.607 393.223 172.744 393.443 172.871 393.67C173.004 393.89 173.141 394.123 173.281 394.37L174.981 391.69H176.471L174.081 395.34L176.481 399H174.971L174.151 397.79C173.984 397.543 173.834 397.303 173.701 397.07C173.567 396.837 173.424 396.59 173.271 396.33L171.501 399H170.001L172.481 395.35Z" fill="#787E82"/>
<path d="M412.97 393.84L414.55 391.69H416.01L413.95 394.44L413.63 394.36C413.777 394.227 413.957 394.123 414.17 394.05C414.39 393.977 414.604 393.94 414.81 393.94C415.31 393.94 415.75 394.05 416.13 394.27C416.51 394.483 416.807 394.783 417.02 395.17C417.234 395.55 417.34 395.987 417.34 396.48C417.34 397 417.22 397.46 416.98 397.86C416.747 398.253 416.424 398.563 416.01 398.79C415.604 399.017 415.14 399.13 414.62 399.13C414.094 399.13 413.62 399.013 413.2 398.78C412.787 398.547 412.46 398.23 412.22 397.83C411.98 397.423 411.86 396.97 411.86 396.47C411.86 396.17 411.894 395.893 411.96 395.64C412.034 395.38 412.15 395.107 412.31 394.82C412.477 394.533 412.697 394.207 412.97 393.84ZM413.17 396.48C413.17 396.78 413.23 397.043 413.35 397.27C413.477 397.497 413.647 397.673 413.86 397.8C414.08 397.927 414.334 397.99 414.62 397.99C414.9 397.99 415.147 397.927 415.36 397.8C415.574 397.673 415.74 397.497 415.86 397.27C415.987 397.043 416.05 396.78 416.05 396.48C416.05 396.187 415.987 395.93 415.86 395.71C415.74 395.483 415.574 395.307 415.36 395.18C415.147 395.053 414.9 394.99 414.62 394.99C414.334 394.99 414.08 395.053 413.86 395.18C413.64 395.307 413.47 395.483 413.35 395.71C413.23 395.93 413.17 396.187 413.17 396.48ZM418.132 395.36C418.132 394.6 418.258 393.937 418.512 393.37C418.772 392.803 419.132 392.36 419.592 392.04C420.058 391.713 420.602 391.55 421.222 391.55C421.848 391.55 422.392 391.713 422.852 392.04C423.318 392.36 423.678 392.803 423.932 393.37C424.192 393.937 424.322 394.6 424.322 395.36C424.322 396.113 424.198 396.773 423.952 397.34C423.705 397.907 423.352 398.347 422.892 398.66C422.432 398.973 421.875 399.13 421.222 399.13C420.582 399.13 420.028 398.973 419.562 398.66C419.102 398.347 418.748 397.907 418.502 397.34C418.255 396.773 418.132 396.113 418.132 395.36ZM419.392 395.36C419.392 395.92 419.465 396.4 419.612 396.8C419.758 397.193 419.968 397.493 420.242 397.7C420.515 397.9 420.842 398 421.222 398C421.615 398 421.945 397.9 422.212 397.7C422.485 397.493 422.695 397.193 422.842 396.8C422.988 396.4 423.062 395.92 423.062 395.36C423.062 394.78 422.988 394.293 422.842 393.9C422.695 393.5 422.485 393.197 422.212 392.99C421.945 392.783 421.615 392.68 421.222 392.68C420.842 392.68 420.515 392.783 420.242 392.99C419.968 393.197 419.758 393.5 419.612 393.9C419.465 394.293 419.392 394.78 419.392 395.36ZM429.952 391.69V399H428.742V391.69H429.952ZM425.032 396.49L428.342 391.69H429.692L426.332 396.57L425.032 396.49ZM430.842 397.61H425.032V396.49H430.842V397.61ZM432.691 398.91L432.811 398.88C432.758 398.927 432.698 398.963 432.631 398.99C432.571 399.01 432.498 399.02 432.411 399.02C432.218 399.02 432.051 398.957 431.911 398.83C431.771 398.697 431.701 398.53 431.701 398.33C431.701 398.09 431.771 397.897 431.911 397.75C432.051 397.603 432.234 397.53 432.461 397.53C432.714 397.53 432.921 397.623 433.081 397.81C433.241 397.997 433.321 398.247 433.321 398.56C433.321 398.833 433.261 399.083 433.141 399.31C433.021 399.543 432.854 399.733 432.641 399.88C432.428 400.027 432.184 400.117 431.911 400.15V399.66C432.138 399.62 432.324 399.533 432.471 399.4C432.618 399.273 432.691 399.11 432.691 398.91ZM434.333 396.93C434.333 396.43 434.479 396.003 434.773 395.65C435.073 395.29 435.463 395.063 435.943 394.97L435.953 395.2C435.519 395.087 435.183 394.883 434.943 394.59C434.709 394.297 434.593 393.94 434.593 393.52C434.593 393.133 434.699 392.793 434.913 392.5C435.126 392.207 435.423 391.977 435.803 391.81C436.189 391.643 436.633 391.56 437.133 391.56C437.633 391.56 438.069 391.643 438.443 391.81C438.823 391.97 439.116 392.2 439.323 392.5C439.536 392.793 439.643 393.14 439.643 393.54C439.643 393.96 439.523 394.317 439.283 394.61C439.043 394.897 438.706 395.09 438.273 395.19L438.263 394.98C438.589 395.027 438.876 395.143 439.123 395.33C439.369 395.51 439.559 395.737 439.693 396.01C439.833 396.283 439.903 396.59 439.903 396.93C439.903 397.37 439.786 397.757 439.553 398.09C439.326 398.417 439.003 398.67 438.583 398.85C438.169 399.03 437.679 399.12 437.113 399.12C436.553 399.12 436.063 399.03 435.643 398.85C435.229 398.67 434.906 398.417 434.673 398.09C434.446 397.757 434.333 397.37 434.333 396.93ZM435.583 396.84C435.583 397.073 435.643 397.277 435.763 397.45C435.889 397.623 436.066 397.757 436.293 397.85C436.526 397.943 436.803 397.99 437.123 397.99C437.429 397.99 437.696 397.943 437.923 397.85C438.156 397.757 438.333 397.627 438.453 397.46C438.579 397.287 438.643 397.08 438.643 396.84C438.643 396.487 438.503 396.207 438.223 396C437.949 395.793 437.579 395.69 437.113 395.69C436.646 395.69 436.273 395.793 435.993 396C435.719 396.207 435.583 396.487 435.583 396.84ZM435.753 393.63C435.753 393.93 435.876 394.173 436.123 394.36C436.369 394.54 436.699 394.63 437.113 394.63C437.519 394.63 437.843 394.54 438.083 394.36C438.329 394.18 438.453 393.94 438.453 393.64C438.453 393.333 438.329 393.093 438.083 392.92C437.843 392.74 437.519 392.65 437.113 392.65C436.699 392.65 436.369 392.74 436.123 392.92C435.876 393.093 435.753 393.33 435.753 393.63ZM443.24 399.12C442.733 399.12 442.286 399.02 441.9 398.82C441.52 398.613 441.223 398.327 441.01 397.96C440.803 397.587 440.7 397.153 440.7 396.66H441.96C441.96 397.073 442.076 397.397 442.31 397.63C442.543 397.863 442.863 397.98 443.27 397.98C443.556 397.98 443.803 397.923 444.01 397.81C444.223 397.69 444.386 397.52 444.5 397.3C444.62 397.08 444.68 396.823 444.68 396.53C444.68 396.25 444.623 396.003 444.51 395.79C444.403 395.57 444.246 395.4 444.04 395.28C443.833 395.16 443.583 395.1 443.29 395.1C443.01 395.1 442.75 395.163 442.51 395.29C442.276 395.41 442.093 395.567 441.96 395.76L440.83 395.52L441.73 391.69H445.54V392.87H442.32L442.75 392.47L442.16 394.8L441.73 394.98C441.89 394.673 442.13 394.44 442.45 394.28C442.776 394.113 443.143 394.03 443.55 394.03C444.036 394.03 444.46 394.133 444.82 394.34C445.186 394.547 445.47 394.833 445.67 395.2C445.876 395.56 445.98 395.98 445.98 396.46C445.98 396.987 445.863 397.45 445.63 397.85C445.403 398.25 445.083 398.563 444.67 398.79C444.263 399.01 443.786 399.12 443.24 399.12ZM450.986 396.85L449.406 399H447.946L450.006 396.25L450.326 396.33C450.18 396.457 449.996 396.56 449.776 396.64C449.563 396.713 449.353 396.75 449.146 396.75C448.646 396.75 448.206 396.643 447.826 396.43C447.446 396.21 447.15 395.91 446.936 395.53C446.723 395.143 446.616 394.703 446.616 394.21C446.616 393.69 446.733 393.23 446.966 392.83C447.206 392.43 447.53 392.12 447.936 391.9C448.35 391.673 448.816 391.56 449.336 391.56C449.863 391.56 450.333 391.68 450.746 391.92C451.166 392.153 451.496 392.47 451.736 392.87C451.976 393.27 452.096 393.72 452.096 394.22C452.096 394.513 452.06 394.79 451.986 395.05C451.913 395.31 451.796 395.583 451.636 395.87C451.476 396.15 451.26 396.477 450.986 396.85ZM450.786 394.21C450.786 393.91 450.726 393.647 450.606 393.42C450.486 393.193 450.316 393.017 450.096 392.89C449.876 392.763 449.623 392.7 449.336 392.7C449.056 392.7 448.806 392.763 448.586 392.89C448.373 393.017 448.206 393.193 448.086 393.42C447.966 393.647 447.906 393.91 447.906 394.21C447.906 394.503 447.966 394.763 448.086 394.99C448.206 395.21 448.373 395.383 448.586 395.51C448.806 395.637 449.056 395.7 449.336 395.7C449.63 395.7 449.883 395.637 450.096 395.51C450.316 395.383 450.486 395.21 450.606 394.99C450.726 394.763 450.786 394.503 450.786 394.21ZM453.546 399.12C453.326 399.12 453.136 399.043 452.976 398.89C452.816 398.737 452.736 398.55 452.736 398.33C452.736 398.11 452.816 397.923 452.976 397.77C453.136 397.61 453.326 397.53 453.546 397.53C453.766 397.53 453.956 397.61 454.116 397.77C454.276 397.923 454.356 398.11 454.356 398.33C454.356 398.55 454.276 398.737 454.116 398.89C453.956 399.043 453.766 399.12 453.546 399.12ZM455.368 396.93C455.368 396.43 455.514 396.003 455.808 395.65C456.108 395.29 456.498 395.063 456.978 394.97L456.988 395.2C456.554 395.087 456.218 394.883 455.978 394.59C455.744 394.297 455.628 393.94 455.628 393.52C455.628 393.133 455.734 392.793 455.948 392.5C456.161 392.207 456.458 391.977 456.838 391.81C457.224 391.643 457.668 391.56 458.168 391.56C458.668 391.56 459.104 391.643 459.478 391.81C459.858 391.97 460.151 392.2 460.358 392.5C460.571 392.793 460.678 393.14 460.678 393.54C460.678 393.96 460.558 394.317 460.318 394.61C460.078 394.897 459.741 395.09 459.308 395.19L459.298 394.98C459.624 395.027 459.911 395.143 460.158 395.33C460.404 395.51 460.594 395.737 460.728 396.01C460.868 396.283 460.938 396.59 460.938 396.93C460.938 397.37 460.821 397.757 460.588 398.09C460.361 398.417 460.038 398.67 459.618 398.85C459.204 399.03 458.714 399.12 458.148 399.12C457.588 399.12 457.098 399.03 456.678 398.85C456.264 398.67 455.941 398.417 455.708 398.09C455.481 397.757 455.368 397.37 455.368 396.93ZM456.618 396.84C456.618 397.073 456.678 397.277 456.798 397.45C456.924 397.623 457.101 397.757 457.328 397.85C457.561 397.943 457.838 397.99 458.158 397.99C458.464 397.99 458.731 397.943 458.958 397.85C459.191 397.757 459.368 397.627 459.488 397.46C459.614 397.287 459.678 397.08 459.678 396.84C459.678 396.487 459.538 396.207 459.258 396C458.984 395.793 458.614 395.69 458.148 395.69C457.681 395.69 457.308 395.793 457.028 396C456.754 396.207 456.618 396.487 456.618 396.84ZM456.788 393.63C456.788 393.93 456.911 394.173 457.158 394.36C457.404 394.54 457.734 394.63 458.148 394.63C458.554 394.63 458.878 394.54 459.118 394.36C459.364 394.18 459.488 393.94 459.488 393.64C459.488 393.333 459.364 393.093 459.118 392.92C458.878 392.74 458.554 392.65 458.148 392.65C457.734 392.65 457.404 392.74 457.158 392.92C456.911 393.093 456.788 393.33 456.788 393.63ZM461.774 396.93C461.774 396.43 461.921 396.003 462.214 395.65C462.514 395.29 462.904 395.063 463.384 394.97L463.394 395.2C462.961 395.087 462.624 394.883 462.384 394.59C462.151 394.297 462.034 393.94 462.034 393.52C462.034 393.133 462.141 392.793 462.354 392.5C462.567 392.207 462.864 391.977 463.244 391.81C463.631 391.643 464.074 391.56 464.574 391.56C465.074 391.56 465.511 391.643 465.884 391.81C466.264 391.97 466.557 392.2 466.764 392.5C466.977 392.793 467.084 393.14 467.084 393.54C467.084 393.96 466.964 394.317 466.724 394.61C466.484 394.897 466.147 395.09 465.714 395.19L465.704 394.98C466.031 395.027 466.317 395.143 466.564 395.33C466.811 395.51 467.001 395.737 467.134 396.01C467.274 396.283 467.344 396.59 467.344 396.93C467.344 397.37 467.227 397.757 466.994 398.09C466.767 398.417 466.444 398.67 466.024 398.85C465.611 399.03 465.121 399.12 464.554 399.12C463.994 399.12 463.504 399.03 463.084 398.85C462.671 398.67 462.347 398.417 462.114 398.09C461.887 397.757 461.774 397.37 461.774 396.93ZM463.024 396.84C463.024 397.073 463.084 397.277 463.204 397.45C463.331 397.623 463.507 397.757 463.734 397.85C463.967 397.943 464.244 397.99 464.564 397.99C464.871 397.99 465.137 397.943 465.364 397.85C465.597 397.757 465.774 397.627 465.894 397.46C466.021 397.287 466.084 397.08 466.084 396.84C466.084 396.487 465.944 396.207 465.664 396C465.391 395.793 465.021 395.69 464.554 395.69C464.087 395.69 463.714 395.793 463.434 396C463.161 396.207 463.024 396.487 463.024 396.84ZM463.194 393.63C463.194 393.93 463.317 394.173 463.564 394.36C463.811 394.54 464.141 394.63 464.554 394.63C464.961 394.63 465.284 394.54 465.524 394.36C465.771 394.18 465.894 393.94 465.894 393.64C465.894 393.333 465.771 393.093 465.524 392.92C465.284 392.74 464.961 392.65 464.554 392.65C464.141 392.65 463.811 392.74 463.564 392.92C463.317 393.093 463.194 393.33 463.194 393.63ZM472.546 391.69V399H471.266V391.69H472.546ZM474.166 395.89H472.156V394.81H474.096C474.449 394.81 474.719 394.723 474.906 394.55C475.092 394.37 475.186 394.117 475.186 393.79C475.186 393.477 475.089 393.237 474.896 393.07C474.702 392.903 474.422 392.82 474.056 392.82H472.116V391.69H474.166C474.892 391.69 475.462 391.867 475.876 392.22C476.289 392.573 476.496 393.057 476.496 393.67C476.496 394.11 476.389 394.48 476.176 394.78C475.962 395.073 475.646 395.287 475.226 395.42V395.28C475.679 395.387 476.022 395.587 476.256 395.88C476.489 396.173 476.606 396.553 476.606 397.02C476.606 397.433 476.512 397.79 476.326 398.09C476.139 398.383 475.866 398.61 475.506 398.77C475.152 398.923 474.726 399 474.226 399H472.116V397.87H474.166C474.532 397.87 474.812 397.783 475.006 397.61C475.199 397.437 475.296 397.187 475.296 396.86C475.296 396.553 475.196 396.317 474.996 396.15C474.802 395.977 474.526 395.89 474.166 395.89ZM477.359 393.73C477.359 393.303 477.469 392.927 477.689 392.6C477.909 392.273 478.213 392.02 478.599 391.84C478.993 391.653 479.446 391.56 479.959 391.56C480.453 391.56 480.879 391.647 481.239 391.82C481.606 391.993 481.889 392.24 482.089 392.56C482.296 392.88 482.406 393.26 482.419 393.7H481.139C481.126 393.387 481.013 393.143 480.799 392.97C480.586 392.79 480.299 392.7 479.939 392.7C479.546 392.7 479.229 392.79 478.989 392.97C478.756 393.143 478.639 393.383 478.639 393.69C478.639 393.95 478.709 394.157 478.849 394.31C478.996 394.457 479.223 394.567 479.529 394.64L480.679 394.9C481.306 395.033 481.773 395.263 482.079 395.59C482.386 395.91 482.539 396.343 482.539 396.89C482.539 397.337 482.429 397.73 482.209 398.07C481.989 398.41 481.676 398.673 481.269 398.86C480.869 399.04 480.399 399.13 479.859 399.13C479.346 399.13 478.896 399.043 478.509 398.87C478.123 398.69 477.819 398.44 477.599 398.12C477.386 397.8 477.273 397.423 477.259 396.99H478.539C478.546 397.297 478.666 397.54 478.899 397.72C479.139 397.893 479.463 397.98 479.869 397.98C480.296 397.98 480.633 397.893 480.879 397.72C481.133 397.54 481.259 397.303 481.259 397.01C481.259 396.757 481.193 396.557 481.059 396.41C480.926 396.257 480.709 396.15 480.409 396.09L479.249 395.83C478.629 395.697 478.159 395.457 477.839 395.11C477.519 394.757 477.359 394.297 477.359 393.73ZM485.537 395.35L483.107 391.69H484.627L485.517 393.01C485.664 393.223 485.801 393.443 485.927 393.67C486.061 393.89 486.197 394.123 486.337 394.37L488.037 391.69H489.527L487.137 395.34L489.537 399H488.027L487.207 397.79C487.041 397.543 486.891 397.303 486.757 397.07C486.624 396.837 486.481 396.59 486.327 396.33L484.557 399H483.057L485.537 395.35Z" fill="#787E82"/>
<path d="M469.984 381H468.472V372.228H469.996L474.556 379.128H474.112V372.228H475.624V381H474.112L469.54 374.112H469.984V381ZM479.114 381.156C478.49 381.156 477.994 380.988 477.626 380.652C477.266 380.308 477.086 379.86 477.086 379.308C477.086 378.764 477.274 378.332 477.65 378.012C478.034 377.684 478.578 377.492 479.282 377.436L481.058 377.292V377.16C481.058 376.888 481.006 376.672 480.902 376.512C480.806 376.344 480.666 376.224 480.482 376.152C480.298 376.072 480.082 376.032 479.834 376.032C479.402 376.032 479.07 376.12 478.838 376.296C478.606 376.464 478.49 376.704 478.49 377.016H477.242C477.242 376.584 477.35 376.212 477.566 375.9C477.79 375.58 478.102 375.332 478.502 375.156C478.91 374.98 479.378 374.892 479.906 374.892C480.442 374.892 480.902 374.988 481.286 375.18C481.67 375.364 481.966 375.644 482.174 376.02C482.382 376.388 482.486 376.848 482.486 377.4V381H481.202L481.094 380.124C480.966 380.428 480.718 380.676 480.35 380.868C479.99 381.06 479.578 381.156 479.114 381.156ZM479.582 380.052C480.038 380.052 480.398 379.924 480.662 379.668C480.934 379.412 481.07 379.056 481.07 378.6V378.288L479.834 378.384C479.378 378.424 479.054 378.52 478.862 378.672C478.67 378.816 478.574 379.008 478.574 379.248C478.574 379.512 478.662 379.712 478.838 379.848C479.014 379.984 479.262 380.052 479.582 380.052ZM484.648 375.072L486.58 380.544L485.788 382.044L483.1 375.072H484.648ZM483.256 383.748V382.536H484.132C484.324 382.536 484.492 382.512 484.636 382.464C484.78 382.424 484.908 382.344 485.02 382.224C485.14 382.104 485.24 381.928 485.32 381.696L487.78 375.072H489.292L486.388 382.32C486.172 382.864 485.9 383.26 485.572 383.508C485.244 383.756 484.836 383.88 484.348 383.88C484.14 383.88 483.944 383.868 483.76 383.844C483.584 383.828 483.416 383.796 483.256 383.748Z" fill="white"/>
<rect x="92.5005" y="435" width="388" height="5" rx="2.5" fill="white" fill-opacity="0.06"/>
<rect x="92.5005" y="449" width="388" height="5" rx="2.5" fill="white" fill-opacity="0.06"/>
<rect x="92.5005" y="463" width="388" height="5" rx="2.5" fill="white" fill-opacity="0.06"/>
<rect x="92.5005" y="477" width="388" height="5" rx="2.5" fill="white" fill-opacity="0.06"/>
<rect x="92.5005" y="491" width="166.595" height="5" rx="2.5" fill="white" fill-opacity="0.06"/>
<line opacity="0.78" x1="92.5005" y1="418.342" x2="480.417" y2="418.342" stroke="#29292D"/>
</g>
</g>
</g>
<defs>
<filter id="filter0_d_732_15459" x="59.3918" y="58.1615" width="499.337" height="269.337" filterUnits="userSpaceOnUse" color-interpolation-filters="sRGB">
<feFlood flood-opacity="0" result="BackgroundImageFix"/>
<feColorMatrix in="SourceAlpha" type="matrix" values="0 0 0 0 0 0 0 0 0 0 0 0 0 0 0 0 0 0 127 0" result="hardAlpha"/>
<feOffset dx="24.56" dy="24.8302"/>
<feGaussianBlur stdDeviation="13.8343"/>
<feComposite in2="hardAlpha" operator="out"/>
<feColorMatrix type="matrix" values="0 0 0 0 0 0 0 0 0 0 0 0 0 0 0 0 0 0 0.26 0"/>
<feBlend mode="normal" in2="BackgroundImageFix" result="effect1_dropShadow_732_15459"/>
<feBlend mode="normal" in="SourceGraphic" in2="effect1_dropShadow_732_15459" result="shape"/>
</filter>
<filter id="filter1_d_732_15459" x="47.7767" y="279.77" width="527.098" height="566.459" filterUnits="userSpaceOnUse" color-interpolation-filters="sRGB">
<feFlood flood-opacity="0" result="BackgroundImageFix"/>
<feColorMatrix in="SourceAlpha" type="matrix" values="0 0 0 0 0 0 0 0 0 0 0 0 0 0 0 0 0 0 127 0" result="hardAlpha"/>
<feOffset dx="27" dy="37"/>
<feGaussianBlur stdDeviation="20.6148"/>
<feComposite in2="hardAlpha" operator="out"/>
<feColorMatrix type="matrix" values="0 0 0 0 0 0 0 0 0 0 0 0 0 0 0 0 0 0 0.26 0"/>
<feBlend mode="normal" in2="BackgroundImageFix" result="effect1_dropShadow_732_15459"/>
<feBlend mode="normal" in="SourceGraphic" in2="effect1_dropShadow_732_15459" result="shape"/>
</filter>
<filter id="filter2_d_732_15459" x="18.9026" y="281.162" width="499.976" height="539.337" filterUnits="userSpaceOnUse" color-interpolation-filters="sRGB">
<feFlood flood-opacity="0" result="BackgroundImageFix"/>
<feColorMatrix in="SourceAlpha" type="matrix" values="0 0 0 0 0 0 0 0 0 0 0 0 0 0 0 0 0 0 127 0" result="hardAlpha"/>
<feOffset dx="-15.435" dy="24.8302"/>
<feGaussianBlur stdDeviation="13.8343"/>
<feComposite in2="hardAlpha" operator="out"/>
<feColorMatrix type="matrix" values="0 0 0 0 0 0 0 0 0 0 0 0 0 0 0 0 0 0 0.26 0"/>
<feBlend mode="normal" in2="BackgroundImageFix" result="effect1_dropShadow_732_15459"/>
<feBlend mode="normal" in="SourceGraphic" in2="effect1_dropShadow_732_15459" result="shape"/>
</filter>
<linearGradient id="paint0_linear_732_15459" x1="274.5" y1="363" x2="274.5" y2="494.5" gradientUnits="userSpaceOnUse">
<stop/>
<stop offset="1" stop-color="#D9D9D9" stop-opacity="0"/>
</linearGradient>
<linearGradient id="paint1_linear_732_15459" x1="284.5" y1="61" x2="284.5" y2="275" gradientUnits="userSpaceOnUse">
<stop stop-color="#121A23"/>
<stop offset="1" stop-color="#121316"/>
</linearGradient>
<linearGradient id="paint2_linear_732_15459" x1="98.7661" y1="242.78" x2="111.825" y2="242.78" gradientUnits="userSpaceOnUse">
<stop stop-color="#4FFFB0"/>
<stop offset="1" stop-color="#B3FF8F"/>
</linearGradient>
<linearGradient id="paint3_linear_732_15459" x1="94.7935" y1="246.358" x2="97.8708" y2="246.358" gradientUnits="userSpaceOnUse">
<stop stop-color="#4FFFB0"/>
<stop offset="1" stop-color="#B3FF8F"/>
</linearGradient>
<linearGradient id="paint4_linear_732_15459" x1="284.326" y1="284" x2="284.326" y2="768" gradientUnits="userSpaceOnUse">
<stop stop-color="#121A23"/>
<stop offset="1" stop-color="#121316"/>
</linearGradient>
<linearGradient id="paint5_linear_732_15459" x1="89.5005" y1="355.5" x2="389.5" y2="355.5" gradientUnits="userSpaceOnUse">
<stop stop-color="#4FFFB0"/>
<stop offset="1" stop-color="#B3FF8F"/>
</linearGradient>
</defs>
</svg>
