<svg width="548" height="501" viewBox="0 0 548 501" fill="none" xmlns="http://www.w3.org/2000/svg">
<rect x="0.00634766" y="0.5" width="547" height="496" rx="35" fill="#212328"/>
<rect x="0.00634766" y="0.5" width="547" height="496" rx="35" fill="url(#paint0_linear_732_15452)"/>
<mask id="mask0_732_15452" style="mask-type:alpha" maskUnits="userSpaceOnUse" x="-1" y="2" width="549" height="499">
<rect x="-0.499512" y="2" width="548" height="499" fill="url(#paint1_linear_732_15452)"/>
</mask>
<g mask="url(#mask0_732_15452)">
<g filter="url(#filter0_d_732_15452)">
<rect x="61.5005" y="63" width="444" height="214" rx="18" fill="url(#paint2_linear_732_15452)" shape-rendering="crispEdges"/>
<path d="M98.879 98.1822L95.96 113H93.5275L96.4262 98.1822H98.879ZM103.906 98.1822L101.007 113H98.5749L101.453 98.1822H103.906ZM93.4667 102.034H105.244L104.778 104.344H93.0005L93.4667 102.034ZM92.7978 106.858H104.534L104.068 109.169H92.3316L92.7978 106.858ZM110.002 100.513H106.759V98.1822H112.475V113H110.002V100.513ZM126.583 113H121.252V98.1822H126.441C127.901 98.1822 129.184 98.4998 130.293 99.135C131.401 99.7566 132.266 100.628 132.887 101.75C133.522 102.858 133.84 104.149 133.84 105.622C133.84 107.067 133.529 108.351 132.907 109.473C132.299 110.581 131.448 111.446 130.353 112.068C129.272 112.689 128.016 113 126.583 113ZM123.847 99.3782V111.824L122.61 110.608H126.34C127.326 110.608 128.178 110.405 128.894 110C129.61 109.595 130.157 109.02 130.536 108.277C130.914 107.534 131.103 106.649 131.103 105.622C131.103 104.567 130.907 103.669 130.516 102.926C130.124 102.169 129.563 101.588 128.833 101.182C128.103 100.777 127.225 100.574 126.198 100.574H122.61L123.847 99.3782ZM135.892 113V102.986H138.365V113H135.892ZM137.108 100.98C136.689 100.98 136.331 100.838 136.034 100.554C135.75 100.257 135.608 99.8985 135.608 99.4796C135.608 99.0606 135.75 98.7093 136.034 98.4255C136.331 98.1417 136.689 97.9998 137.108 97.9998C137.527 97.9998 137.879 98.1417 138.162 98.4255C138.46 98.7093 138.608 99.0606 138.608 99.4796C138.608 99.8985 138.46 100.257 138.162 100.554C137.879 100.838 137.527 100.98 137.108 100.98ZM140.15 109.959H142.501C142.515 110.392 142.677 110.736 142.988 110.993C143.298 111.25 143.731 111.378 144.285 111.378C144.88 111.378 145.326 111.27 145.623 111.054C145.934 110.838 146.089 110.547 146.089 110.182C146.089 109.939 146.008 109.723 145.846 109.534C145.684 109.345 145.38 109.203 144.934 109.108L143.13 108.682C142.224 108.48 141.548 108.155 141.102 107.709C140.67 107.25 140.454 106.622 140.454 105.824C140.454 105.176 140.623 104.615 140.961 104.142C141.312 103.669 141.785 103.311 142.38 103.067C142.974 102.811 143.657 102.682 144.427 102.682C145.17 102.682 145.826 102.817 146.393 103.088C146.961 103.358 147.4 103.736 147.711 104.223C148.035 104.709 148.204 105.277 148.217 105.926H145.866C145.866 105.493 145.731 105.155 145.461 104.912C145.19 104.655 144.812 104.527 144.325 104.527C143.839 104.527 143.461 104.635 143.19 104.851C142.92 105.067 142.785 105.358 142.785 105.723C142.785 106.277 143.217 106.655 144.082 106.858L145.886 107.284C146.724 107.473 147.353 107.777 147.771 108.196C148.204 108.615 148.42 109.209 148.42 109.98C148.42 110.655 148.244 111.243 147.893 111.743C147.542 112.23 147.048 112.608 146.413 112.878C145.778 113.135 145.048 113.264 144.224 113.264C142.981 113.264 141.988 112.959 141.244 112.351C140.515 111.743 140.15 110.946 140.15 109.959ZM149.31 102.986H155.634V105.054H149.31V102.986ZM153.709 113H151.236V99.8647H153.709V113ZM163.476 102.946V105.236H162.564C161.658 105.236 160.949 105.48 160.435 105.966C159.922 106.439 159.665 107.162 159.665 108.135V113H157.192V103.007H159.523L159.726 105.074H159.482C159.618 104.412 159.935 103.872 160.435 103.453C160.935 103.034 161.584 102.824 162.381 102.824C162.557 102.824 162.733 102.831 162.908 102.844C163.084 102.858 163.273 102.892 163.476 102.946ZM165.15 113V102.986H167.623V113H165.15ZM166.366 100.98C165.947 100.98 165.589 100.838 165.292 100.554C165.008 100.257 164.866 99.8985 164.866 99.4796C164.866 99.0606 165.008 98.7093 165.292 98.4255C165.589 98.1417 165.947 97.9998 166.366 97.9998C166.785 97.9998 167.136 98.1417 167.42 98.4255C167.717 98.7093 167.866 99.0606 167.866 99.4796C167.866 99.8985 167.717 100.257 167.42 100.554C167.136 100.838 166.785 100.98 166.366 100.98ZM172.468 113H170.178V97.9187H172.651V104.446C172.975 103.878 173.448 103.446 174.07 103.149C174.691 102.838 175.387 102.682 176.158 102.682C177.117 102.682 177.935 102.912 178.61 103.371C179.299 103.817 179.826 104.446 180.191 105.257C180.57 106.067 180.759 107.007 180.759 108.074C180.759 109.088 180.563 109.986 180.171 110.77C179.779 111.554 179.225 112.169 178.509 112.615C177.793 113.047 176.955 113.264 175.995 113.264C175.252 113.264 174.576 113.101 173.968 112.777C173.374 112.453 172.928 112.007 172.63 111.439L172.468 113ZM172.671 107.953C172.671 108.547 172.786 109.081 173.016 109.554C173.245 110.013 173.57 110.372 173.989 110.628C174.421 110.872 174.921 110.993 175.489 110.993C176.07 110.993 176.57 110.865 176.989 110.608C177.408 110.351 177.725 109.993 177.941 109.534C178.158 109.074 178.266 108.547 178.266 107.953C178.266 107.358 178.158 106.831 177.941 106.372C177.725 105.912 177.408 105.554 176.989 105.297C176.57 105.027 176.07 104.892 175.489 104.892C174.921 104.892 174.421 105.027 173.989 105.297C173.57 105.554 173.245 105.912 173.016 106.372C172.786 106.817 172.671 107.345 172.671 107.953ZM189.281 102.986H191.754V113H189.464L189.281 111.662C188.984 112.135 188.538 112.52 187.943 112.818C187.349 113.115 186.713 113.264 186.038 113.264C184.889 113.264 183.99 112.899 183.342 112.169C182.693 111.439 182.369 110.466 182.369 109.25V102.986H184.842V108.378C184.842 109.324 185.024 110.007 185.389 110.426C185.754 110.845 186.281 111.054 186.97 111.054C187.754 111.054 188.335 110.824 188.714 110.365C189.092 109.892 189.281 109.182 189.281 108.236V102.986ZM193.315 102.986H199.639V105.054H193.315V102.986ZM197.714 113H195.241V99.8647H197.714V113ZM205.578 113.264C204.591 113.264 203.713 113.041 202.943 112.595C202.186 112.135 201.591 111.513 201.159 110.73C200.727 109.932 200.51 109.02 200.51 107.993C200.51 106.953 200.72 106.034 201.139 105.236C201.558 104.439 202.145 103.817 202.902 103.371C203.659 102.912 204.524 102.682 205.497 102.682C206.51 102.682 207.382 102.899 208.112 103.331C208.842 103.75 209.402 104.338 209.794 105.094C210.2 105.851 210.402 106.757 210.402 107.811V108.561L201.808 108.581L201.848 107H207.95C207.95 106.311 207.727 105.757 207.281 105.338C206.848 104.919 206.26 104.709 205.517 104.709C204.936 104.709 204.443 104.831 204.037 105.074C203.646 105.317 203.348 105.682 203.146 106.169C202.943 106.655 202.841 107.25 202.841 107.953C202.841 109.034 203.071 109.851 203.531 110.405C204.004 110.959 204.7 111.236 205.619 111.236C206.294 111.236 206.848 111.108 207.281 110.851C207.727 110.595 208.017 110.23 208.152 109.757H210.443C210.227 110.851 209.686 111.709 208.821 112.331C207.97 112.953 206.889 113.264 205.578 113.264ZM220.805 98.1822V113H218.21V98.1822H220.805ZM224.088 106.696H220.014V104.507H223.947C224.663 104.507 225.21 104.331 225.588 103.98C225.967 103.615 226.156 103.101 226.156 102.439C226.156 101.804 225.96 101.317 225.568 100.98C225.176 100.642 224.609 100.473 223.865 100.473H219.933V98.1822H224.088C225.561 98.1822 226.717 98.5404 227.555 99.2566C228.393 99.9728 228.811 100.953 228.811 102.196C228.811 103.088 228.595 103.838 228.163 104.446C227.73 105.04 227.088 105.473 226.237 105.743V105.459C227.156 105.676 227.852 106.081 228.325 106.676C228.798 107.27 229.034 108.04 229.034 108.986C229.034 109.824 228.845 110.547 228.467 111.155C228.088 111.75 227.534 112.209 226.805 112.534C226.088 112.845 225.224 113 224.21 113H219.933V110.709H224.088C224.832 110.709 225.399 110.534 225.791 110.182C226.183 109.831 226.379 109.324 226.379 108.662C226.379 108.04 226.176 107.561 225.771 107.223C225.379 106.872 224.818 106.696 224.088 106.696ZM230.562 102.317C230.562 101.453 230.785 100.689 231.231 100.027C231.677 99.3647 232.292 98.8512 233.076 98.4863C233.873 98.1079 234.792 97.9187 235.833 97.9187C236.833 97.9187 237.697 98.0944 238.427 98.4458C239.17 98.7971 239.745 99.2971 240.15 99.9458C240.569 100.594 240.792 101.365 240.819 102.257H238.224C238.197 101.621 237.968 101.128 237.535 100.777C237.103 100.412 236.522 100.23 235.792 100.23C234.995 100.23 234.353 100.412 233.866 100.777C233.393 101.128 233.157 101.615 233.157 102.236C233.157 102.763 233.299 103.182 233.582 103.493C233.88 103.79 234.339 104.013 234.961 104.162L237.292 104.689C238.562 104.959 239.508 105.426 240.13 106.088C240.752 106.736 241.062 107.615 241.062 108.723C241.062 109.628 240.839 110.426 240.393 111.115C239.947 111.804 239.312 112.338 238.488 112.716C237.677 113.081 236.724 113.264 235.63 113.264C234.589 113.264 233.677 113.088 232.893 112.736C232.11 112.372 231.495 111.865 231.049 111.216C230.616 110.568 230.387 109.804 230.359 108.926H232.954C232.968 109.547 233.211 110.041 233.684 110.405C234.17 110.757 234.826 110.932 235.65 110.932C236.515 110.932 237.197 110.757 237.697 110.405C238.211 110.041 238.468 109.561 238.468 108.966C238.468 108.453 238.333 108.047 238.062 107.75C237.792 107.439 237.353 107.223 236.745 107.101L234.393 106.574C233.137 106.304 232.184 105.817 231.535 105.115C230.887 104.399 230.562 103.466 230.562 102.317ZM247.139 105.601L242.214 98.1822H245.295L247.099 100.858C247.396 101.29 247.673 101.736 247.93 102.196C248.2 102.642 248.477 103.115 248.761 103.615L252.207 98.1822H255.227L250.383 105.581L255.248 113H252.187L250.525 110.547C250.187 110.047 249.883 109.561 249.612 109.088C249.342 108.615 249.052 108.115 248.741 107.588L245.153 113H242.112L247.139 105.601ZM268.59 102.946V105.236H267.677C266.772 105.236 266.062 105.48 265.549 105.966C265.035 106.439 264.779 107.162 264.779 108.135V113H262.306V103.007H264.637L264.84 105.074H264.596C264.731 104.412 265.049 103.872 265.549 103.453C266.049 103.034 266.698 102.824 267.495 102.824C267.671 102.824 267.846 102.831 268.022 102.844C268.198 102.858 268.387 102.892 268.59 102.946ZM274.407 113.264C273.42 113.264 272.542 113.041 271.772 112.595C271.015 112.135 270.42 111.513 269.988 110.73C269.555 109.932 269.339 109.02 269.339 107.993C269.339 106.953 269.549 106.034 269.967 105.236C270.386 104.439 270.974 103.817 271.731 103.371C272.488 102.912 273.353 102.682 274.326 102.682C275.339 102.682 276.211 102.899 276.941 103.331C277.67 103.75 278.231 104.338 278.623 105.094C279.028 105.851 279.231 106.757 279.231 107.811V108.561L270.636 108.581L270.677 107H276.778C276.778 106.311 276.555 105.757 276.109 105.338C275.677 104.919 275.089 104.709 274.346 104.709C273.765 104.709 273.272 104.831 272.866 105.074C272.474 105.317 272.177 105.682 271.974 106.169C271.772 106.655 271.67 107.25 271.67 107.953C271.67 109.034 271.9 109.851 272.359 110.405C272.832 110.959 273.528 111.236 274.447 111.236C275.123 111.236 275.677 111.108 276.109 110.851C276.555 110.595 276.846 110.23 276.981 109.757H279.272C279.055 110.851 278.515 111.709 277.65 112.331C276.799 112.953 275.718 113.264 274.407 113.264ZM283.004 113L279.761 102.986H282.335L283.653 107.284C283.761 107.676 283.869 108.088 283.977 108.52C284.085 108.953 284.18 109.405 284.261 109.878C284.328 109.554 284.389 109.257 284.443 108.986C284.511 108.716 284.585 108.453 284.666 108.196C284.747 107.926 284.842 107.622 284.95 107.284L286.328 102.986H288.842L290.18 107.284C290.207 107.378 290.247 107.54 290.302 107.77C290.369 107.986 290.437 108.223 290.504 108.48C290.572 108.736 290.633 108.993 290.687 109.25C290.754 109.493 290.802 109.703 290.829 109.878C290.883 109.622 290.95 109.331 291.031 109.007C291.112 108.682 291.193 108.372 291.274 108.074C291.369 107.763 291.443 107.5 291.497 107.284L292.835 102.986H295.45L291.984 113H289.673L288.295 108.662C288.092 108 287.93 107.439 287.808 106.98C287.687 106.507 287.606 106.142 287.565 105.885C287.524 106.128 287.45 106.453 287.342 106.858C287.234 107.263 287.051 107.878 286.795 108.703L285.416 113H283.004ZM299.452 113.264C298.398 113.264 297.56 112.98 296.939 112.412C296.331 111.831 296.027 111.074 296.027 110.142C296.027 109.223 296.344 108.493 296.979 107.953C297.628 107.399 298.547 107.074 299.736 106.98L302.736 106.736V106.513C302.736 106.054 302.648 105.689 302.473 105.419C302.311 105.135 302.074 104.932 301.763 104.811C301.452 104.676 301.088 104.608 300.669 104.608C299.939 104.608 299.378 104.757 298.986 105.054C298.594 105.338 298.398 105.743 298.398 106.27H296.29C296.29 105.54 296.473 104.912 296.837 104.385C297.216 103.844 297.743 103.426 298.419 103.128C299.108 102.831 299.898 102.682 300.79 102.682C301.696 102.682 302.473 102.844 303.121 103.169C303.77 103.48 304.27 103.953 304.621 104.588C304.973 105.209 305.148 105.986 305.148 106.919V113H302.979L302.797 111.52C302.581 112.034 302.162 112.453 301.54 112.777C300.932 113.101 300.236 113.264 299.452 113.264ZM300.243 111.399C301.013 111.399 301.621 111.182 302.067 110.75C302.527 110.318 302.756 109.716 302.756 108.946V108.419L300.669 108.581C299.898 108.649 299.351 108.811 299.027 109.068C298.702 109.311 298.54 109.635 298.54 110.041C298.54 110.486 298.689 110.824 298.986 111.054C299.283 111.284 299.702 111.399 300.243 111.399ZM313.862 102.946V105.236H312.95C312.044 105.236 311.335 105.48 310.821 105.966C310.308 106.439 310.051 107.162 310.051 108.135V113H307.578V103.007H309.909L310.112 105.074H309.868C310.004 104.412 310.321 103.872 310.821 103.453C311.321 103.034 311.97 102.824 312.767 102.824C312.943 102.824 313.118 102.831 313.294 102.844C313.47 102.858 313.659 102.892 313.862 102.946ZM319.314 113.264C318.341 113.264 317.503 113.047 316.8 112.615C316.111 112.169 315.571 111.554 315.179 110.77C314.8 109.986 314.611 109.074 314.611 108.034C314.611 106.993 314.8 106.074 315.179 105.277C315.571 104.466 316.132 103.831 316.861 103.371C317.591 102.912 318.456 102.682 319.456 102.682C320.159 102.682 320.801 102.824 321.382 103.108C321.963 103.378 322.409 103.763 322.719 104.263V97.9187H325.172V113H322.902L322.74 111.439C322.442 112.007 321.983 112.453 321.361 112.777C320.753 113.101 320.071 113.264 319.314 113.264ZM319.861 110.993C320.442 110.993 320.942 110.872 321.361 110.628C321.78 110.372 322.105 110.013 322.334 109.554C322.578 109.081 322.699 108.547 322.699 107.953C322.699 107.345 322.578 106.817 322.334 106.372C322.105 105.912 321.78 105.554 321.361 105.297C320.942 105.027 320.442 104.892 319.861 104.892C319.294 104.892 318.8 105.027 318.382 105.297C317.963 105.554 317.638 105.912 317.409 106.372C317.192 106.831 317.084 107.358 317.084 107.953C317.084 108.547 317.192 109.074 317.409 109.534C317.638 109.993 317.963 110.351 318.382 110.608C318.8 110.865 319.294 110.993 319.861 110.993ZM326.979 109.959H329.331C329.344 110.392 329.506 110.736 329.817 110.993C330.128 111.25 330.56 111.378 331.114 111.378C331.709 111.378 332.155 111.27 332.452 111.054C332.763 110.838 332.918 110.547 332.918 110.182C332.918 109.939 332.837 109.723 332.675 109.534C332.513 109.345 332.209 109.203 331.763 109.108L329.959 108.682C329.053 108.48 328.378 108.155 327.932 107.709C327.499 107.25 327.283 106.622 327.283 105.824C327.283 105.176 327.452 104.615 327.79 104.142C328.141 103.669 328.614 103.311 329.209 103.067C329.803 102.811 330.486 102.682 331.256 102.682C331.999 102.682 332.655 102.817 333.222 103.088C333.79 103.358 334.229 103.736 334.54 104.223C334.864 104.709 335.033 105.277 335.047 105.926H332.695C332.695 105.493 332.56 105.155 332.29 104.912C332.02 104.655 331.641 104.527 331.155 104.527C330.668 104.527 330.29 104.635 330.02 104.851C329.749 105.067 329.614 105.358 329.614 105.723C329.614 106.277 330.047 106.655 330.912 106.858L332.716 107.284C333.554 107.473 334.182 107.777 334.601 108.196C335.033 108.615 335.25 109.209 335.25 109.98C335.25 110.655 335.074 111.243 334.722 111.743C334.371 112.23 333.878 112.608 333.243 112.878C332.608 113.135 331.878 113.264 331.054 113.264C329.81 113.264 328.817 112.959 328.074 112.351C327.344 111.743 326.979 110.946 326.979 109.959ZM341.603 102.986H347.927V105.054H341.603V102.986ZM346.001 113H343.528V99.8647H346.001V113ZM348.798 107.973C348.798 106.932 349.028 106.02 349.487 105.236C349.947 104.439 350.582 103.817 351.393 103.371C352.203 102.926 353.122 102.703 354.149 102.703C355.19 102.703 356.109 102.926 356.906 103.371C357.717 103.817 358.352 104.439 358.812 105.236C359.271 106.02 359.501 106.932 359.501 107.973C359.501 109.013 359.271 109.932 358.812 110.73C358.352 111.513 357.717 112.128 356.906 112.574C356.109 113.02 355.19 113.243 354.149 113.243C353.122 113.243 352.203 113.02 351.393 112.574C350.582 112.128 349.947 111.513 349.487 110.73C349.028 109.932 348.798 109.013 348.798 107.973ZM351.271 107.973C351.271 108.581 351.393 109.115 351.636 109.574C351.893 110.034 352.23 110.392 352.649 110.649C353.082 110.905 353.582 111.034 354.149 111.034C354.717 111.034 355.217 110.905 355.649 110.649C356.082 110.392 356.42 110.034 356.663 109.574C356.906 109.115 357.028 108.581 357.028 107.973C357.028 107.351 356.906 106.817 356.663 106.372C356.42 105.912 356.082 105.554 355.649 105.297C355.217 105.04 354.717 104.912 354.149 104.912C353.582 104.912 353.082 105.04 352.649 105.297C352.23 105.554 351.893 105.912 351.636 106.372C351.393 106.817 351.271 107.351 351.271 107.973ZM369.884 98.1822V113H367.289V98.1822H369.884ZM373.168 106.696H369.094V104.507H373.026C373.742 104.507 374.29 104.331 374.668 103.98C375.046 103.615 375.236 103.101 375.236 102.439C375.236 101.804 375.04 101.317 374.648 100.98C374.256 100.642 373.688 100.473 372.945 100.473H369.012V98.1822H373.168C374.641 98.1822 375.796 98.5404 376.634 99.2566C377.472 99.9728 377.891 100.953 377.891 102.196C377.891 103.088 377.675 103.838 377.242 104.446C376.81 105.04 376.168 105.473 375.317 105.743V105.459C376.236 105.676 376.931 106.081 377.404 106.676C377.877 107.27 378.114 108.04 378.114 108.986C378.114 109.824 377.925 110.547 377.546 111.155C377.168 111.75 376.614 112.209 375.884 112.534C375.168 112.845 374.303 113 373.29 113H369.012V110.709H373.168C373.911 110.709 374.479 110.534 374.871 110.182C375.263 109.831 375.458 109.324 375.458 108.662C375.458 108.04 375.256 107.561 374.85 107.223C374.458 106.872 373.898 106.696 373.168 106.696ZM380.128 113V102.986H382.601V113H380.128ZM381.344 100.98C380.925 100.98 380.567 100.838 380.27 100.554C379.986 100.257 379.844 99.8985 379.844 99.4796C379.844 99.0606 379.986 98.7093 380.27 98.4255C380.567 98.1417 380.925 97.9998 381.344 97.9998C381.763 97.9998 382.115 98.1417 382.398 98.4255C382.696 98.7093 382.844 99.0606 382.844 99.4796C382.844 99.8985 382.696 100.257 382.398 100.554C382.115 100.838 381.763 100.98 381.344 100.98ZM384.163 102.986H390.447V105.054H384.163V102.986ZM390.467 98.0201V100.128C390.332 100.128 390.19 100.128 390.041 100.128C389.906 100.128 389.764 100.128 389.616 100.128C388.994 100.128 388.575 100.277 388.359 100.574C388.156 100.871 388.055 101.27 388.055 101.77V113H385.602V101.77C385.602 100.851 385.751 100.115 386.048 99.5606C386.345 98.9931 386.764 98.5809 387.305 98.3241C387.845 98.0539 388.474 97.9187 389.19 97.9187C389.393 97.9187 389.602 97.9255 389.818 97.939C390.048 97.9525 390.264 97.9795 390.467 98.0201ZM398.309 102.946V105.236H397.397C396.491 105.236 395.782 105.48 395.268 105.966C394.755 106.439 394.498 107.162 394.498 108.135V113H392.025V103.007H394.356L394.559 105.074H394.316C394.451 104.412 394.768 103.872 395.268 103.453C395.769 103.034 396.417 102.824 397.214 102.824C397.39 102.824 397.566 102.831 397.742 102.844C397.917 102.858 398.106 102.892 398.309 102.946ZM399.059 107.973C399.059 106.932 399.288 106.02 399.748 105.236C400.207 104.439 400.842 103.817 401.653 103.371C402.464 102.926 403.383 102.703 404.41 102.703C405.451 102.703 406.37 102.926 407.167 103.371C407.978 103.817 408.613 104.439 409.072 105.236C409.532 106.02 409.761 106.932 409.761 107.973C409.761 109.013 409.532 109.932 409.072 110.73C408.613 111.513 407.978 112.128 407.167 112.574C406.37 113.02 405.451 113.243 404.41 113.243C403.383 113.243 402.464 113.02 401.653 112.574C400.842 112.128 400.207 111.513 399.748 110.73C399.288 109.932 399.059 109.013 399.059 107.973ZM401.532 107.973C401.532 108.581 401.653 109.115 401.896 109.574C402.153 110.034 402.491 110.392 402.91 110.649C403.342 110.905 403.842 111.034 404.41 111.034C404.978 111.034 405.478 110.905 405.91 110.649C406.342 110.392 406.68 110.034 406.924 109.574C407.167 109.115 407.288 108.581 407.288 107.973C407.288 107.351 407.167 106.817 406.924 106.372C406.68 105.912 406.342 105.554 405.91 105.297C405.478 105.04 404.978 104.912 404.41 104.912C403.842 104.912 403.342 105.04 402.91 105.297C402.491 105.554 402.153 105.912 401.896 106.372C401.653 106.817 401.532 107.351 401.532 107.973ZM410.951 109.959H413.303C413.316 110.392 413.478 110.736 413.789 110.993C414.1 111.25 414.533 111.378 415.087 111.378C415.681 111.378 416.127 111.27 416.424 111.054C416.735 110.838 416.891 110.547 416.891 110.182C416.891 109.939 416.81 109.723 416.647 109.534C416.485 109.345 416.181 109.203 415.735 109.108L413.931 108.682C413.026 108.48 412.35 108.155 411.904 107.709C411.472 107.25 411.255 106.622 411.255 105.824C411.255 105.176 411.424 104.615 411.762 104.142C412.114 103.669 412.587 103.311 413.181 103.067C413.776 102.811 414.458 102.682 415.228 102.682C415.972 102.682 416.627 102.817 417.195 103.088C417.762 103.358 418.201 103.736 418.512 104.223C418.837 104.709 419.006 105.277 419.019 105.926H416.668C416.668 105.493 416.533 105.155 416.262 104.912C415.992 104.655 415.614 104.527 415.127 104.527C414.641 104.527 414.262 104.635 413.992 104.851C413.722 105.067 413.587 105.358 413.587 105.723C413.587 106.277 414.019 106.655 414.884 106.858L416.688 107.284C417.526 107.473 418.154 107.777 418.573 108.196C419.006 108.615 419.222 109.209 419.222 109.98C419.222 110.655 419.046 111.243 418.695 111.743C418.343 112.23 417.85 112.608 417.215 112.878C416.58 113.135 415.85 113.264 415.026 113.264C413.782 113.264 412.789 112.959 412.046 112.351C411.316 111.743 410.951 110.946 410.951 109.959ZM420.111 102.986H426.436V105.054H420.111V102.986ZM424.51 113H422.037V99.8647H424.51V113ZM92.1897 133.973C92.1897 132.946 92.3991 132.034 92.8181 131.236C93.2505 130.439 93.8384 129.817 94.5816 129.371C95.3384 128.912 96.21 128.682 97.1965 128.682C98.5614 128.682 99.6763 129.04 100.541 129.757C101.42 130.459 101.926 131.412 102.061 132.615H99.5884C99.4398 132.047 99.1627 131.622 98.7573 131.338C98.3654 131.04 97.8722 130.892 97.2776 130.892C96.7641 130.892 96.3046 131.02 95.8992 131.277C95.5073 131.52 95.2032 131.872 94.987 132.331C94.7708 132.79 94.6627 133.338 94.6627 133.973C94.6627 134.608 94.764 135.155 94.9667 135.615C95.1695 136.074 95.46 136.432 95.8384 136.689C96.2303 136.932 96.6897 137.054 97.2168 137.054C97.8384 137.054 98.3519 136.905 98.7573 136.608C99.1763 136.311 99.4533 135.885 99.5884 135.331H102.082C101.974 136.115 101.697 136.804 101.251 137.399C100.818 137.98 100.257 138.439 99.5682 138.777C98.879 139.101 98.0952 139.264 97.2168 139.264C96.2033 139.264 95.3181 139.047 94.5613 138.615C93.8046 138.169 93.2167 137.554 92.7978 136.77C92.3924 135.973 92.1897 135.04 92.1897 133.973ZM110.206 128.946V131.236H109.294C108.389 131.236 107.679 131.48 107.166 131.966C106.652 132.439 106.395 133.162 106.395 134.135V139H103.922V129.007H106.253L106.456 131.074H106.213C106.348 130.412 106.666 129.872 107.166 129.453C107.666 129.034 108.314 128.824 109.112 128.824C109.287 128.824 109.463 128.831 109.639 128.844C109.814 128.858 110.004 128.892 110.206 128.946ZM110.956 133.973C110.956 132.932 111.185 132.02 111.645 131.236C112.104 130.439 112.74 129.817 113.55 129.371C114.361 128.926 115.28 128.703 116.307 128.703C117.348 128.703 118.267 128.926 119.064 129.371C119.875 129.817 120.51 130.439 120.969 131.236C121.429 132.02 121.659 132.932 121.659 133.973C121.659 135.013 121.429 135.932 120.969 136.73C120.51 137.513 119.875 138.128 119.064 138.574C118.267 139.02 117.348 139.243 116.307 139.243C115.28 139.243 114.361 139.02 113.55 138.574C112.74 138.128 112.104 137.513 111.645 136.73C111.185 135.932 110.956 135.013 110.956 133.973ZM113.429 133.973C113.429 134.581 113.55 135.115 113.794 135.574C114.05 136.034 114.388 136.392 114.807 136.649C115.24 136.905 115.74 137.034 116.307 137.034C116.875 137.034 117.375 136.905 117.807 136.649C118.24 136.392 118.577 136.034 118.821 135.574C119.064 135.115 119.186 134.581 119.186 133.973C119.186 133.351 119.064 132.817 118.821 132.372C118.577 131.912 118.24 131.554 117.807 131.297C117.375 131.04 116.875 130.912 116.307 130.912C115.74 130.912 115.24 131.04 114.807 131.297C114.388 131.554 114.05 131.912 113.794 132.372C113.55 132.817 113.429 133.351 113.429 133.973ZM125.353 139L122.11 128.986H124.684L126.002 133.284C126.11 133.676 126.218 134.088 126.326 134.52C126.434 134.953 126.529 135.405 126.61 135.878C126.678 135.554 126.738 135.257 126.792 134.986C126.86 134.716 126.934 134.453 127.015 134.196C127.096 133.926 127.191 133.622 127.299 133.284L128.678 128.986H131.191L132.529 133.284C132.556 133.378 132.597 133.54 132.651 133.77C132.718 133.986 132.786 134.223 132.853 134.48C132.921 134.736 132.982 134.993 133.036 135.25C133.103 135.493 133.151 135.703 133.178 135.878C133.232 135.622 133.299 135.331 133.38 135.007C133.461 134.682 133.543 134.372 133.624 134.074C133.718 133.763 133.793 133.5 133.847 133.284L135.184 128.986H137.799L134.333 139H132.022L130.644 134.662C130.441 134 130.279 133.439 130.157 132.98C130.036 132.507 129.955 132.142 129.914 131.885C129.874 132.128 129.799 132.453 129.691 132.858C129.583 133.263 129.401 133.878 129.144 134.703L127.765 139H125.353ZM142.937 139.264C141.964 139.264 141.126 139.047 140.423 138.615C139.734 138.169 139.193 137.554 138.801 136.77C138.423 135.986 138.234 135.074 138.234 134.034C138.234 132.993 138.423 132.074 138.801 131.277C139.193 130.466 139.754 129.831 140.484 129.371C141.214 128.912 142.079 128.682 143.079 128.682C143.781 128.682 144.423 128.824 145.004 129.108C145.585 129.378 146.031 129.763 146.342 130.263V123.919H148.795V139H146.525L146.362 137.439C146.065 138.007 145.606 138.453 144.984 138.777C144.376 139.101 143.693 139.264 142.937 139.264ZM143.484 136.993C144.065 136.993 144.565 136.872 144.984 136.628C145.403 136.372 145.727 136.013 145.957 135.554C146.2 135.081 146.322 134.547 146.322 133.953C146.322 133.345 146.2 132.817 145.957 132.372C145.727 131.912 145.403 131.554 144.984 131.297C144.565 131.027 144.065 130.892 143.484 130.892C142.916 130.892 142.423 131.027 142.004 131.297C141.585 131.554 141.261 131.912 141.031 132.372C140.815 132.831 140.707 133.358 140.707 133.953C140.707 134.547 140.815 135.074 141.031 135.534C141.261 135.993 141.585 136.351 142.004 136.608C142.423 136.865 142.916 136.993 143.484 136.993ZM153.865 139H151.413V123.919H153.865V139ZM155.872 133.973C155.872 132.932 156.101 132.02 156.561 131.236C157.02 130.439 157.655 129.817 158.466 129.371C159.277 128.926 160.196 128.703 161.223 128.703C162.264 128.703 163.183 128.926 163.98 129.371C164.791 129.817 165.426 130.439 165.885 131.236C166.345 132.02 166.574 132.932 166.574 133.973C166.574 135.013 166.345 135.932 165.885 136.73C165.426 137.513 164.791 138.128 163.98 138.574C163.183 139.02 162.264 139.243 161.223 139.243C160.196 139.243 159.277 139.02 158.466 138.574C157.655 138.128 157.02 137.513 156.561 136.73C156.101 135.932 155.872 135.013 155.872 133.973ZM158.345 133.973C158.345 134.581 158.466 135.115 158.709 135.574C158.966 136.034 159.304 136.392 159.723 136.649C160.155 136.905 160.655 137.034 161.223 137.034C161.791 137.034 162.291 136.905 162.723 136.649C163.155 136.392 163.493 136.034 163.737 135.574C163.98 135.115 164.101 134.581 164.101 133.973C164.101 133.351 163.98 132.817 163.737 132.372C163.493 131.912 163.155 131.554 162.723 131.297C162.291 131.04 161.791 130.912 161.223 130.912C160.655 130.912 160.155 131.04 159.723 131.297C159.304 131.554 158.966 131.912 158.709 132.372C158.466 132.817 158.345 133.351 158.345 133.973ZM171.514 139.264C170.46 139.264 169.623 138.98 169.001 138.412C168.393 137.831 168.089 137.074 168.089 136.142C168.089 135.223 168.406 134.493 169.041 133.953C169.69 133.399 170.609 133.074 171.798 132.98L174.798 132.736V132.513C174.798 132.054 174.71 131.689 174.535 131.419C174.373 131.135 174.136 130.932 173.825 130.811C173.514 130.676 173.15 130.608 172.731 130.608C172.001 130.608 171.44 130.757 171.048 131.054C170.656 131.338 170.46 131.743 170.46 132.27H168.352C168.352 131.54 168.535 130.912 168.9 130.385C169.278 129.844 169.805 129.426 170.481 129.128C171.17 128.831 171.96 128.682 172.852 128.682C173.758 128.682 174.535 128.844 175.183 129.169C175.832 129.48 176.332 129.953 176.683 130.588C177.035 131.209 177.21 131.986 177.21 132.919V139H175.042L174.859 137.52C174.643 138.034 174.224 138.453 173.602 138.777C172.994 139.101 172.298 139.264 171.514 139.264ZM172.305 137.399C173.075 137.399 173.683 137.182 174.129 136.75C174.589 136.318 174.819 135.716 174.819 134.946V134.419L172.731 134.581C171.96 134.649 171.413 134.811 171.089 135.068C170.764 135.311 170.602 135.635 170.602 136.041C170.602 136.486 170.751 136.824 171.048 137.054C171.346 137.284 171.764 137.399 172.305 137.399ZM182.113 139H179.64V128.986H181.93L182.133 130.284C182.444 129.784 182.883 129.392 183.451 129.108C184.032 128.824 184.66 128.682 185.336 128.682C186.593 128.682 187.539 129.054 188.174 129.797C188.822 130.54 189.147 131.554 189.147 132.838V139H186.674V133.426C186.674 132.588 186.485 131.966 186.106 131.561C185.728 131.142 185.214 130.932 184.566 130.932C183.795 130.932 183.194 131.176 182.762 131.662C182.329 132.149 182.113 132.797 182.113 133.608V139ZM196.452 133.973C196.452 132.946 196.662 132.034 197.081 131.236C197.513 130.439 198.101 129.817 198.844 129.371C199.601 128.912 200.473 128.682 201.459 128.682C202.824 128.682 203.939 129.04 204.804 129.757C205.682 130.459 206.189 131.412 206.324 132.615H203.851C203.702 132.047 203.425 131.622 203.02 131.338C202.628 131.04 202.135 130.892 201.54 130.892C201.027 130.892 200.567 131.02 200.162 131.277C199.77 131.52 199.466 131.872 199.25 132.331C199.033 132.79 198.925 133.338 198.925 133.973C198.925 134.608 199.027 135.155 199.229 135.615C199.432 136.074 199.723 136.432 200.101 136.689C200.493 136.932 200.952 137.054 201.479 137.054C202.101 137.054 202.615 136.905 203.02 136.608C203.439 136.311 203.716 135.885 203.851 135.331H206.344C206.236 136.115 205.959 136.804 205.513 137.399C205.081 137.98 204.52 138.439 203.831 138.777C203.142 139.101 202.358 139.264 201.479 139.264C200.466 139.264 199.581 139.047 198.824 138.615C198.067 138.169 197.479 137.554 197.06 136.77C196.655 135.973 196.452 135.04 196.452 133.973ZM207.597 133.973C207.597 132.932 207.827 132.02 208.286 131.236C208.746 130.439 209.381 129.817 210.192 129.371C211.003 128.926 211.921 128.703 212.949 128.703C213.989 128.703 214.908 128.926 215.705 129.371C216.516 129.817 217.151 130.439 217.611 131.236C218.07 132.02 218.3 132.932 218.3 133.973C218.3 135.013 218.07 135.932 217.611 136.73C217.151 137.513 216.516 138.128 215.705 138.574C214.908 139.02 213.989 139.243 212.949 139.243C211.921 139.243 211.003 139.02 210.192 138.574C209.381 138.128 208.746 137.513 208.286 136.73C207.827 135.932 207.597 135.013 207.597 133.973ZM210.07 133.973C210.07 134.581 210.192 135.115 210.435 135.574C210.692 136.034 211.03 136.392 211.449 136.649C211.881 136.905 212.381 137.034 212.949 137.034C213.516 137.034 214.016 136.905 214.449 136.649C214.881 136.392 215.219 136.034 215.462 135.574C215.705 135.115 215.827 134.581 215.827 133.973C215.827 133.351 215.705 132.817 215.462 132.372C215.219 131.912 214.881 131.554 214.449 131.297C214.016 131.04 213.516 130.912 212.949 130.912C212.381 130.912 211.881 131.04 211.449 131.297C211.03 131.554 210.692 131.912 210.435 132.372C210.192 132.817 210.07 133.351 210.07 133.973ZM222.733 139H220.26V128.986H222.551L222.753 130.284C223.064 129.784 223.503 129.392 224.071 129.108C224.652 128.824 225.281 128.682 225.956 128.682C227.213 128.682 228.159 129.054 228.794 129.797C229.443 130.54 229.767 131.554 229.767 132.838V139H227.294V133.426C227.294 132.588 227.105 131.966 226.726 131.561C226.348 131.142 225.835 130.932 225.186 130.932C224.416 130.932 223.814 131.176 223.382 131.662C222.949 132.149 222.733 132.797 222.733 133.608V139ZM231.204 128.986H237.528V131.054H231.204V128.986ZM235.602 139H233.129V125.865H235.602V139ZM245.369 128.946V131.236H244.457C243.552 131.236 242.842 131.48 242.329 131.966C241.815 132.439 241.559 133.162 241.559 134.135V139H239.086V129.007H241.417L241.619 131.074H241.376C241.511 130.412 241.829 129.872 242.329 129.453C242.829 129.034 243.478 128.824 244.275 128.824C244.451 128.824 244.626 128.831 244.802 128.844C244.978 128.858 245.167 128.892 245.369 128.946ZM247.043 139V128.986H249.516V139H247.043ZM248.26 126.98C247.841 126.98 247.483 126.838 247.185 126.554C246.902 126.257 246.76 125.898 246.76 125.48C246.76 125.061 246.902 124.709 247.185 124.425C247.483 124.142 247.841 124 248.26 124C248.679 124 249.03 124.142 249.314 124.425C249.611 124.709 249.76 125.061 249.76 125.48C249.76 125.898 249.611 126.257 249.314 126.554C249.03 126.838 248.679 126.98 248.26 126.98ZM254.362 139H252.071V123.919H254.544V130.446C254.869 129.878 255.342 129.446 255.963 129.149C256.585 128.838 257.281 128.682 258.051 128.682C259.011 128.682 259.828 128.912 260.504 129.371C261.193 129.817 261.72 130.446 262.085 131.257C262.463 132.067 262.653 133.007 262.653 134.074C262.653 135.088 262.457 135.986 262.065 136.77C261.673 137.554 261.119 138.169 260.403 138.615C259.686 139.047 258.849 139.264 257.889 139.264C257.146 139.264 256.47 139.101 255.862 138.777C255.267 138.453 254.821 138.007 254.524 137.439L254.362 139ZM254.565 133.953C254.565 134.547 254.68 135.081 254.909 135.554C255.139 136.013 255.463 136.372 255.882 136.628C256.315 136.872 256.815 136.993 257.382 136.993C257.963 136.993 258.463 136.865 258.882 136.608C259.301 136.351 259.619 135.993 259.835 135.534C260.051 135.074 260.159 134.547 260.159 133.953C260.159 133.358 260.051 132.831 259.835 132.372C259.619 131.912 259.301 131.554 258.882 131.297C258.463 131.027 257.963 130.892 257.382 130.892C256.815 130.892 256.315 131.027 255.882 131.297C255.463 131.554 255.139 131.912 254.909 132.372C254.68 132.817 254.565 133.345 254.565 133.953ZM271.175 128.986H273.648V139H271.357L271.175 137.662C270.878 138.135 270.432 138.52 269.837 138.818C269.242 139.115 268.607 139.264 267.932 139.264C266.783 139.264 265.884 138.899 265.236 138.169C264.587 137.439 264.263 136.466 264.263 135.25V128.986H266.736V134.378C266.736 135.324 266.918 136.007 267.283 136.426C267.648 136.845 268.175 137.054 268.864 137.054C269.648 137.054 270.229 136.824 270.607 136.365C270.986 135.892 271.175 135.182 271.175 134.236V128.986ZM275.209 128.986H281.533V131.054H275.209V128.986ZM279.608 139H277.135V125.865H279.608V139ZM282.404 133.973C282.404 132.932 282.634 132.02 283.093 131.236C283.553 130.439 284.188 129.817 284.999 129.371C285.81 128.926 286.728 128.703 287.755 128.703C288.796 128.703 289.715 128.926 290.512 129.371C291.323 129.817 291.958 130.439 292.418 131.236C292.877 132.02 293.107 132.932 293.107 133.973C293.107 135.013 292.877 135.932 292.418 136.73C291.958 137.513 291.323 138.128 290.512 138.574C289.715 139.02 288.796 139.243 287.755 139.243C286.728 139.243 285.81 139.02 284.999 138.574C284.188 138.128 283.553 137.513 283.093 136.73C282.634 135.932 282.404 135.013 282.404 133.973ZM284.877 133.973C284.877 134.581 284.999 135.115 285.242 135.574C285.499 136.034 285.837 136.392 286.255 136.649C286.688 136.905 287.188 137.034 287.755 137.034C288.323 137.034 288.823 136.905 289.256 136.649C289.688 136.392 290.026 136.034 290.269 135.574C290.512 135.115 290.634 134.581 290.634 133.973C290.634 133.351 290.512 132.817 290.269 132.372C290.026 131.912 289.688 131.554 289.256 131.297C288.823 131.04 288.323 130.912 287.755 130.912C287.188 130.912 286.688 131.04 286.255 131.297C285.837 131.554 285.499 131.912 285.242 132.372C284.999 132.817 284.877 133.351 284.877 133.973ZM301.351 128.946V131.236H300.439C299.533 131.236 298.824 131.48 298.31 131.966C297.797 132.439 297.54 133.162 297.54 134.135V139H295.067V129.007H297.398L297.601 131.074H297.358C297.493 130.412 297.81 129.872 298.31 129.453C298.81 129.034 299.459 128.824 300.256 128.824C300.432 128.824 300.608 128.831 300.783 128.844C300.959 128.858 301.148 128.892 301.351 128.946ZM302.255 135.959H304.606C304.62 136.392 304.782 136.736 305.093 136.993C305.403 137.25 305.836 137.378 306.39 137.378C306.984 137.378 307.43 137.27 307.728 137.054C308.038 136.838 308.194 136.547 308.194 136.182C308.194 135.939 308.113 135.723 307.951 135.534C307.788 135.345 307.484 135.203 307.038 135.108L305.234 134.682C304.329 134.48 303.653 134.155 303.207 133.709C302.775 133.25 302.559 132.622 302.559 131.824C302.559 131.176 302.728 130.615 303.065 130.142C303.417 129.669 303.89 129.311 304.484 129.067C305.079 128.811 305.761 128.682 306.532 128.682C307.275 128.682 307.93 128.817 308.498 129.088C309.066 129.358 309.505 129.736 309.816 130.223C310.14 130.709 310.309 131.277 310.322 131.926H307.971C307.971 131.493 307.836 131.155 307.566 130.912C307.295 130.655 306.917 130.527 306.43 130.527C305.944 130.527 305.565 130.635 305.295 130.851C305.025 131.067 304.89 131.358 304.89 131.723C304.89 132.277 305.322 132.655 306.187 132.858L307.991 133.284C308.829 133.473 309.457 133.777 309.876 134.196C310.309 134.615 310.525 135.209 310.525 135.98C310.525 136.655 310.349 137.243 309.998 137.743C309.647 138.23 309.153 138.608 308.518 138.878C307.883 139.135 307.153 139.264 306.329 139.264C305.086 139.264 304.092 138.959 303.349 138.351C302.619 137.743 302.255 136.946 302.255 135.959Z" fill="white"/>
<rect x="91.5005" y="159" width="388" height="5" rx="2.5" fill="white" fill-opacity="0.06"/>
<rect x="91.5005" y="173" width="388" height="5" rx="2.5" fill="white" fill-opacity="0.06"/>
<rect x="91.5005" y="187" width="166.595" height="5" rx="2.5" fill="white" fill-opacity="0.06"/>
<path d="M467.999 244.151L469.609 243.183C470.475 242.664 471.535 242.542 472.479 242.902C473.039 243.116 473.669 243.18 474.324 243.058C475.63 242.809 476.686 241.765 476.947 240.461C477.419 238.12 475.426 236.074 473.094 236.466C471.851 236.675 470.82 237.61 470.456 238.816C470.398 239.007 470.361 239.193 470.337 239.376C470.212 240.378 469.571 241.245 468.706 241.766L467.723 242.355C466.878 242.86 465.857 242.895 464.934 242.554C464.574 242.422 464.184 242.347 463.778 242.347C461.707 242.347 460.066 244.245 460.498 246.391C460.759 247.695 461.815 248.739 463.121 248.988C463.776 249.113 464.406 249.046 464.966 248.832C465.91 248.472 466.968 248.593 467.836 249.113L469.442 250.075C469.985 250.4 470.314 250.987 470.314 251.618V251.627C470.314 253.694 472.203 255.33 474.342 254.909C475.646 254.654 476.695 253.603 476.952 252.299C477.372 250.16 475.737 248.272 473.669 248.272C473.263 248.272 472.874 248.346 472.514 248.478C471.59 248.819 470.572 248.785 469.727 248.279L467.996 247.239C467.458 246.917 467.129 246.335 467.129 245.706V245.688C467.127 245.061 467.459 244.476 467.999 244.151L467.999 244.151Z" fill="#44444A"/>
<path d="M105.63 237.077C105.118 236.402 104.306 236.021 103.46 236.059C102.614 236.097 101.84 236.547 101.389 237.264L97.7661 243.053V253.439C97.8517 253.483 97.9473 253.505 98.0429 253.502H106.516C107.626 253.504 108.598 252.758 108.886 251.686L110.756 244.86H110.756C110.918 244.253 110.789 243.605 110.407 243.106C110.027 242.607 109.434 242.316 108.806 242.319H105.191L106.05 239.34C106.267 238.561 106.112 237.726 105.63 237.077L105.63 237.077Z" fill="url(#paint3_linear_732_15452)"/>
<path d="M95.3585 253.503H96.8708V243.214H95.3585C94.4947 243.216 93.7943 243.916 93.7935 244.78V251.937C93.7943 252.801 94.4946 253.502 95.3585 253.503Z" fill="url(#paint4_linear_732_15452)"/>
<path d="M143.63 256.483C143.118 257.157 142.306 257.538 141.46 257.5C140.614 257.463 139.84 257.012 139.389 256.295L135.766 250.507V240.12C135.852 240.077 135.947 240.055 136.043 240.057H144.516C145.626 240.056 146.598 240.801 146.886 241.873L148.756 248.7H148.756C148.918 249.307 148.789 249.954 148.407 250.453C148.027 250.952 147.434 251.243 146.806 251.24H143.191L144.05 254.219C144.267 254.998 144.112 255.834 143.63 256.483L143.63 256.483Z" fill="#FBCD9C"/>
<path d="M133.359 240.057H134.871V250.346H133.359C132.495 250.344 131.794 249.644 131.793 248.78V241.623C131.794 240.758 132.495 240.058 133.359 240.057Z" fill="#FBCD9C"/>
<line opacity="0.7" x1="91.5005" y1="213.342" x2="479.417" y2="213.342" stroke="#29292D"/>
<rect x="463.5" y="76" width="25" height="12" rx="6" fill="#2A3F39"/>
</g>
<g filter="url(#filter1_d_732_15452)">
<g filter="url(#filter2_d_732_15452)">
<rect x="61.0063" y="286" width="444.639" height="484" rx="18" fill="url(#paint5_linear_732_15452)"/>
<rect x="88.5005" y="350" width="300" height="15" rx="7.5" fill="url(#paint6_linear_732_15452)"/>
<rect x="395.5" y="350" width="96" height="15" rx="7.5" fill="#FC607C"/>
<path d="M97.7405 327.192C96.5992 327.192 95.6072 326.947 94.7645 326.456C93.9325 325.955 93.2818 325.256 92.8125 324.36C92.3538 323.453 92.1245 322.387 92.1245 321.16C92.1245 319.944 92.3592 318.883 92.8285 317.976C93.3085 317.069 93.9805 316.365 94.8445 315.864C95.7085 315.363 96.7058 315.112 97.8365 315.112C98.7645 315.112 99.5965 315.283 100.332 315.624C101.068 315.965 101.676 316.445 102.156 317.064C102.636 317.672 102.94 318.397 103.068 319.24H100.908C100.706 318.557 100.327 318.029 99.7725 317.656C99.2285 317.272 98.5618 317.08 97.7725 317.08C97.0685 317.08 96.4498 317.245 95.9165 317.576C95.3938 317.907 94.9885 318.376 94.7005 318.984C94.4125 319.592 94.2685 320.317 94.2685 321.16C94.2685 321.971 94.4125 322.685 94.7005 323.304C94.9885 323.912 95.3938 324.387 95.9165 324.728C96.4498 325.059 97.0685 325.224 97.7725 325.224C98.5725 325.224 99.2552 325.032 99.8205 324.648C100.396 324.264 100.78 323.747 100.972 323.096H103.1C102.951 323.907 102.626 324.621 102.124 325.24C101.634 325.859 101.01 326.339 100.252 326.68C99.5058 327.021 98.6685 327.192 97.7405 327.192ZM110.009 319.096H111.961V327H110.153L110.009 325.944C109.774 326.317 109.422 326.621 108.953 326.856C108.484 327.091 107.982 327.208 107.449 327.208C106.542 327.208 105.833 326.92 105.321 326.344C104.809 325.768 104.553 325 104.553 324.04V319.096H106.505V323.352C106.505 324.099 106.649 324.637 106.937 324.968C107.225 325.299 107.641 325.464 108.185 325.464C108.804 325.464 109.262 325.283 109.561 324.92C109.86 324.547 110.009 323.987 110.009 323.24V319.096ZM118.937 319.064V320.872H118.217C117.503 320.872 116.943 321.064 116.537 321.448C116.132 321.821 115.929 322.392 115.929 323.16V327H113.977V319.112H115.817L115.977 320.744H115.785C115.892 320.221 116.143 319.795 116.537 319.464C116.932 319.133 117.444 318.968 118.073 318.968C118.212 318.968 118.351 318.973 118.489 318.984C118.628 318.995 118.777 319.021 118.937 319.064ZM125.218 319.064V320.872H124.498C123.784 320.872 123.224 321.064 122.818 321.448C122.413 321.821 122.21 322.392 122.21 323.16V327H120.258V319.112H122.098L122.258 320.744H122.066C122.173 320.221 122.424 319.795 122.818 319.464C123.213 319.133 123.725 318.968 124.354 318.968C124.493 318.968 124.632 318.973 124.77 318.984C124.909 318.995 125.058 319.021 125.218 319.064ZM129.81 327.208C129.031 327.208 128.338 327.032 127.73 326.68C127.133 326.317 126.663 325.827 126.322 325.208C125.981 324.579 125.81 323.859 125.81 323.048C125.81 322.227 125.975 321.501 126.306 320.872C126.637 320.243 127.101 319.752 127.698 319.4C128.295 319.037 128.978 318.856 129.746 318.856C130.546 318.856 131.234 319.027 131.81 319.368C132.386 319.699 132.829 320.163 133.138 320.76C133.458 321.357 133.618 322.072 133.618 322.904V323.496L126.834 323.512L126.866 322.264H131.682C131.682 321.72 131.506 321.283 131.154 320.952C130.813 320.621 130.349 320.456 129.762 320.456C129.303 320.456 128.914 320.552 128.594 320.744C128.285 320.936 128.05 321.224 127.89 321.608C127.73 321.992 127.65 322.461 127.65 323.016C127.65 323.869 127.831 324.515 128.194 324.952C128.567 325.389 129.117 325.608 129.842 325.608C130.375 325.608 130.813 325.507 131.154 325.304C131.506 325.101 131.735 324.813 131.842 324.44H133.65C133.479 325.304 133.053 325.981 132.37 326.472C131.698 326.963 130.845 327.208 129.81 327.208ZM137.132 327H135.18V319.096H136.988L137.148 320.12C137.394 319.725 137.74 319.416 138.188 319.192C138.647 318.968 139.143 318.856 139.676 318.856C140.668 318.856 141.415 319.149 141.916 319.736C142.428 320.323 142.684 321.123 142.684 322.136V327H140.732V322.6C140.732 321.939 140.583 321.448 140.284 321.128C139.986 320.797 139.58 320.632 139.068 320.632C138.46 320.632 137.986 320.824 137.644 321.208C137.303 321.592 137.132 322.104 137.132 322.744V327ZM143.818 319.096H148.81V320.728H143.818V319.096ZM147.29 327H145.338V316.632H147.29V327ZM159.312 319.064V320.872H158.592C157.878 320.872 157.318 321.064 156.912 321.448C156.507 321.821 156.304 322.392 156.304 323.16V327H154.352V319.112H156.192L156.352 320.744H156.16C156.267 320.221 156.518 319.795 156.912 319.464C157.307 319.133 157.819 318.968 158.448 318.968C158.587 318.968 158.726 318.973 158.864 318.984C159.003 318.995 159.152 319.021 159.312 319.064ZM163.904 327.208C163.125 327.208 162.432 327.032 161.824 326.68C161.227 326.317 160.757 325.827 160.416 325.208C160.075 324.579 159.904 323.859 159.904 323.048C159.904 322.227 160.069 321.501 160.4 320.872C160.731 320.243 161.195 319.752 161.792 319.4C162.389 319.037 163.072 318.856 163.84 318.856C164.64 318.856 165.328 319.027 165.904 319.368C166.48 319.699 166.923 320.163 167.232 320.76C167.552 321.357 167.712 322.072 167.712 322.904V323.496L160.928 323.512L160.96 322.264H165.776C165.776 321.72 165.6 321.283 165.248 320.952C164.907 320.621 164.443 320.456 163.856 320.456C163.397 320.456 163.008 320.552 162.688 320.744C162.379 320.936 162.144 321.224 161.984 321.608C161.824 321.992 161.744 322.461 161.744 323.016C161.744 323.869 161.925 324.515 162.288 324.952C162.661 325.389 163.211 325.608 163.936 325.608C164.469 325.608 164.907 325.507 165.248 325.304C165.6 325.101 165.829 324.813 165.936 324.44H167.744C167.573 325.304 167.147 325.981 166.464 326.472C165.792 326.963 164.939 327.208 163.904 327.208ZM168.666 324.6H170.522C170.533 324.941 170.661 325.213 170.906 325.416C171.151 325.619 171.493 325.72 171.93 325.72C172.399 325.72 172.751 325.635 172.986 325.464C173.231 325.293 173.354 325.064 173.354 324.776C173.354 324.584 173.29 324.413 173.162 324.264C173.034 324.115 172.794 324.003 172.442 323.928L171.018 323.592C170.303 323.432 169.77 323.176 169.418 322.824C169.077 322.461 168.906 321.965 168.906 321.336C168.906 320.824 169.039 320.381 169.306 320.008C169.583 319.635 169.957 319.352 170.426 319.16C170.895 318.957 171.434 318.856 172.042 318.856C172.629 318.856 173.146 318.963 173.594 319.176C174.042 319.389 174.389 319.688 174.634 320.072C174.89 320.456 175.023 320.904 175.034 321.416H173.178C173.178 321.075 173.071 320.808 172.858 320.616C172.645 320.413 172.346 320.312 171.962 320.312C171.578 320.312 171.279 320.397 171.066 320.568C170.853 320.739 170.746 320.968 170.746 321.256C170.746 321.693 171.087 321.992 171.77 322.152L173.194 322.488C173.855 322.637 174.351 322.877 174.682 323.208C175.023 323.539 175.194 324.008 175.194 324.616C175.194 325.149 175.055 325.613 174.778 326.008C174.501 326.392 174.111 326.691 173.61 326.904C173.109 327.107 172.533 327.208 171.882 327.208C170.901 327.208 170.117 326.968 169.53 326.488C168.954 326.008 168.666 325.379 168.666 324.6ZM182.04 319.096H183.992V327H182.184L182.04 325.944C181.806 326.317 181.454 326.621 180.984 326.856C180.515 327.091 180.014 327.208 179.48 327.208C178.574 327.208 177.864 326.92 177.352 326.344C176.84 325.768 176.584 325 176.584 324.04V319.096H178.536V323.352C178.536 324.099 178.68 324.637 178.968 324.968C179.256 325.299 179.672 325.464 180.216 325.464C180.835 325.464 181.294 325.283 181.592 324.92C181.891 324.547 182.04 323.987 182.04 323.24V319.096ZM187.976 327H186.04V315.096H187.976V327ZM189.24 319.096H194.232V320.728H189.24V319.096ZM192.712 327H190.76V316.632H192.712V327ZM194.854 324.6H196.71C196.72 324.941 196.848 325.213 197.094 325.416C197.339 325.619 197.68 325.72 198.118 325.72C198.587 325.72 198.939 325.635 199.174 325.464C199.419 325.293 199.542 325.064 199.542 324.776C199.542 324.584 199.478 324.413 199.35 324.264C199.222 324.115 198.982 324.003 198.63 323.928L197.206 323.592C196.491 323.432 195.958 323.176 195.606 322.824C195.264 322.461 195.094 321.965 195.094 321.336C195.094 320.824 195.227 320.381 195.494 320.008C195.771 319.635 196.144 319.352 196.614 319.16C197.083 318.957 197.622 318.856 198.23 318.856C198.816 318.856 199.334 318.963 199.782 319.176C200.23 319.389 200.576 319.688 200.822 320.072C201.078 320.456 201.211 320.904 201.222 321.416H199.366C199.366 321.075 199.259 320.808 199.046 320.616C198.832 320.413 198.534 320.312 198.15 320.312C197.766 320.312 197.467 320.397 197.254 320.568C197.04 320.739 196.934 320.968 196.934 321.256C196.934 321.693 197.275 321.992 197.958 322.152L199.382 322.488C200.043 322.637 200.539 322.877 200.87 323.208C201.211 323.539 201.382 324.008 201.382 324.616C201.382 325.149 201.243 325.613 200.966 326.008C200.688 326.392 200.299 326.691 199.798 326.904C199.296 327.107 198.72 327.208 198.07 327.208C197.088 327.208 196.304 326.968 195.718 326.488C195.142 326.008 194.854 325.379 194.854 324.6Z" fill="white"/>
<path d="M92.2165 383H90.6325L93.8005 374.228H95.3725L98.5405 383H96.9205L96.2125 380.972H92.9365L92.2165 383ZM94.3885 376.844L93.3805 379.676H95.7685L94.7605 376.844C94.7285 376.724 94.6925 376.604 94.6525 376.484C94.6125 376.364 94.5885 376.26 94.5805 376.172C94.5645 376.252 94.5365 376.356 94.4965 376.484C94.4645 376.604 94.4285 376.724 94.3885 376.844ZM99.9958 377.072L101.928 382.544L101.136 384.044L98.4478 377.072H99.9958ZM98.6038 385.748V384.536H99.4798C99.6718 384.536 99.8398 384.512 99.9838 384.464C100.128 384.424 100.256 384.344 100.368 384.224C100.488 384.104 100.588 383.928 100.668 383.696L103.128 377.072H104.64L101.736 384.32C101.52 384.864 101.248 385.26 100.92 385.508C100.592 385.756 100.184 385.88 99.6958 385.88C99.4878 385.88 99.2918 385.868 99.1078 385.844C98.9318 385.828 98.7638 385.796 98.6038 385.748ZM107.854 383.156C107.27 383.156 106.75 383.024 106.294 382.76C105.846 382.488 105.494 382.12 105.238 381.656C104.982 381.184 104.854 380.644 104.854 380.036C104.854 379.42 104.978 378.876 105.226 378.404C105.474 377.932 105.822 377.564 106.27 377.3C106.718 377.028 107.23 376.892 107.806 376.892C108.406 376.892 108.922 377.02 109.354 377.276C109.786 377.524 110.118 377.872 110.35 378.32C110.59 378.768 110.71 379.304 110.71 379.928V380.372L105.622 380.384L105.646 379.448H109.258C109.258 379.04 109.126 378.712 108.862 378.464C108.606 378.216 108.258 378.092 107.818 378.092C107.474 378.092 107.182 378.164 106.942 378.308C106.71 378.452 106.534 378.668 106.414 378.956C106.294 379.244 106.234 379.596 106.234 380.012C106.234 380.652 106.37 381.136 106.642 381.464C106.922 381.792 107.334 381.956 107.878 381.956C108.278 381.956 108.606 381.88 108.862 381.728C109.126 381.576 109.298 381.36 109.378 381.08H110.734C110.606 381.728 110.286 382.236 109.774 382.604C109.27 382.972 108.63 383.156 107.854 383.156Z" fill="white"/>
<path d="M90.5705 393.69H95.8205V394.87H90.5705V393.69ZM94.8205 394.23L95.8205 394.87L93.1705 401H91.8405L94.8205 394.23ZM96.4664 400.91L96.5864 400.88C96.5331 400.927 96.4731 400.963 96.4064 400.99C96.3464 401.01 96.2731 401.02 96.1864 401.02C95.9931 401.02 95.8264 400.957 95.6864 400.83C95.5464 400.697 95.4764 400.53 95.4764 400.33C95.4764 400.09 95.5464 399.897 95.6864 399.75C95.8264 399.603 96.0098 399.53 96.2364 399.53C96.4898 399.53 96.6964 399.623 96.8564 399.81C97.0164 399.997 97.0964 400.247 97.0964 400.56C97.0964 400.833 97.0364 401.083 96.9164 401.31C96.7964 401.543 96.6298 401.733 96.4164 401.88C96.2031 402.027 95.9598 402.117 95.6864 402.15V401.66C95.9131 401.62 96.0998 401.533 96.2464 401.4C96.3931 401.273 96.4664 401.11 96.4664 400.91ZM98.9138 395.84L100.494 393.69H101.954L99.8938 396.44L99.5738 396.36C99.7205 396.227 99.9005 396.123 100.114 396.05C100.334 395.977 100.547 395.94 100.754 395.94C101.254 395.94 101.694 396.05 102.074 396.27C102.454 396.483 102.751 396.783 102.964 397.17C103.177 397.55 103.284 397.987 103.284 398.48C103.284 399 103.164 399.46 102.924 399.86C102.691 400.253 102.367 400.563 101.954 400.79C101.547 401.017 101.084 401.13 100.564 401.13C100.037 401.13 99.5638 401.013 99.1438 400.78C98.7305 400.547 98.4038 400.23 98.1638 399.83C97.9238 399.423 97.8038 398.97 97.8038 398.47C97.8038 398.17 97.8372 397.893 97.9038 397.64C97.9772 397.38 98.0938 397.107 98.2538 396.82C98.4205 396.533 98.6405 396.207 98.9138 395.84ZM99.1138 398.48C99.1138 398.78 99.1738 399.043 99.2938 399.27C99.4205 399.497 99.5905 399.673 99.8038 399.8C100.024 399.927 100.277 399.99 100.564 399.99C100.844 399.99 101.091 399.927 101.304 399.8C101.517 399.673 101.684 399.497 101.804 399.27C101.931 399.043 101.994 398.78 101.994 398.48C101.994 398.187 101.931 397.93 101.804 397.71C101.684 397.483 101.517 397.307 101.304 397.18C101.091 397.053 100.844 396.99 100.564 396.99C100.277 396.99 100.024 397.053 99.8038 397.18C99.5838 397.307 99.4138 397.483 99.2938 397.71C99.1738 397.93 99.1138 398.187 99.1138 398.48ZM104.075 397.36C104.075 396.6 104.202 395.937 104.455 395.37C104.715 394.803 105.075 394.36 105.535 394.04C106.002 393.713 106.545 393.55 107.165 393.55C107.792 393.55 108.335 393.713 108.795 394.04C109.262 394.36 109.622 394.803 109.875 395.37C110.135 395.937 110.265 396.6 110.265 397.36C110.265 398.113 110.142 398.773 109.895 399.34C109.648 399.907 109.295 400.347 108.835 400.66C108.375 400.973 107.818 401.13 107.165 401.13C106.525 401.13 105.972 400.973 105.505 400.66C105.045 400.347 104.692 399.907 104.445 399.34C104.198 398.773 104.075 398.113 104.075 397.36ZM105.335 397.36C105.335 397.92 105.408 398.4 105.555 398.8C105.702 399.193 105.912 399.493 106.185 399.7C106.458 399.9 106.785 400 107.165 400C107.558 400 107.888 399.9 108.155 399.7C108.428 399.493 108.638 399.193 108.785 398.8C108.932 398.4 109.005 397.92 109.005 397.36C109.005 396.78 108.932 396.293 108.785 395.9C108.638 395.5 108.428 395.197 108.155 394.99C107.888 394.783 107.558 394.68 107.165 394.68C106.785 394.68 106.458 394.783 106.185 394.99C105.912 395.197 105.702 395.5 105.555 395.9C105.408 396.293 105.335 396.78 105.335 397.36ZM115.896 393.69V401H114.686V393.69H115.896ZM110.976 398.49L114.286 393.69H115.636L112.276 398.57L110.976 398.49ZM116.786 399.61H110.976V398.49H116.786V399.61ZM118.634 400.91L118.754 400.88C118.701 400.927 118.641 400.963 118.574 400.99C118.514 401.01 118.441 401.02 118.354 401.02C118.161 401.02 117.994 400.957 117.854 400.83C117.714 400.697 117.644 400.53 117.644 400.33C117.644 400.09 117.714 399.897 117.854 399.75C117.994 399.603 118.178 399.53 118.404 399.53C118.658 399.53 118.864 399.623 119.024 399.81C119.184 399.997 119.264 400.247 119.264 400.56C119.264 400.833 119.204 401.083 119.084 401.31C118.964 401.543 118.798 401.733 118.584 401.88C118.371 402.027 118.128 402.117 117.854 402.15V401.66C118.081 401.62 118.268 401.533 118.414 401.4C118.561 401.273 118.634 401.11 118.634 400.91ZM120.276 398.93C120.276 398.43 120.423 398.003 120.716 397.65C121.016 397.29 121.406 397.063 121.886 396.97L121.896 397.2C121.463 397.087 121.126 396.883 120.886 396.59C120.653 396.297 120.536 395.94 120.536 395.52C120.536 395.133 120.643 394.793 120.856 394.5C121.069 394.207 121.366 393.977 121.746 393.81C122.133 393.643 122.576 393.56 123.076 393.56C123.576 393.56 124.013 393.643 124.386 393.81C124.766 393.97 125.059 394.2 125.266 394.5C125.479 394.793 125.586 395.14 125.586 395.54C125.586 395.96 125.466 396.317 125.226 396.61C124.986 396.897 124.649 397.09 124.216 397.19L124.206 396.98C124.533 397.027 124.819 397.143 125.066 397.33C125.313 397.51 125.503 397.737 125.636 398.01C125.776 398.283 125.846 398.59 125.846 398.93C125.846 399.37 125.729 399.757 125.496 400.09C125.269 400.417 124.946 400.67 124.526 400.85C124.113 401.03 123.623 401.12 123.056 401.12C122.496 401.12 122.006 401.03 121.586 400.85C121.173 400.67 120.849 400.417 120.616 400.09C120.389 399.757 120.276 399.37 120.276 398.93ZM121.526 398.84C121.526 399.073 121.586 399.277 121.706 399.45C121.833 399.623 122.009 399.757 122.236 399.85C122.469 399.943 122.746 399.99 123.066 399.99C123.373 399.99 123.639 399.943 123.866 399.85C124.099 399.757 124.276 399.627 124.396 399.46C124.523 399.287 124.586 399.08 124.586 398.84C124.586 398.487 124.446 398.207 124.166 398C123.893 397.793 123.523 397.69 123.056 397.69C122.589 397.69 122.216 397.793 121.936 398C121.663 398.207 121.526 398.487 121.526 398.84ZM121.696 395.63C121.696 395.93 121.819 396.173 122.066 396.36C122.313 396.54 122.643 396.63 123.056 396.63C123.463 396.63 123.786 396.54 124.026 396.36C124.273 396.18 124.396 395.94 124.396 395.64C124.396 395.333 124.273 395.093 124.026 394.92C123.786 394.74 123.463 394.65 123.056 394.65C122.643 394.65 122.313 394.74 122.066 394.92C121.819 395.093 121.696 395.33 121.696 395.63ZM129.183 401.12C128.676 401.12 128.23 401.02 127.843 400.82C127.463 400.613 127.166 400.327 126.953 399.96C126.746 399.587 126.643 399.153 126.643 398.66H127.903C127.903 399.073 128.02 399.397 128.253 399.63C128.486 399.863 128.806 399.98 129.213 399.98C129.5 399.98 129.746 399.923 129.953 399.81C130.166 399.69 130.33 399.52 130.443 399.3C130.563 399.08 130.623 398.823 130.623 398.53C130.623 398.25 130.566 398.003 130.453 397.79C130.346 397.57 130.19 397.4 129.983 397.28C129.776 397.16 129.526 397.1 129.233 397.1C128.953 397.1 128.693 397.163 128.453 397.29C128.22 397.41 128.036 397.567 127.903 397.76L126.773 397.52L127.673 393.69H131.483V394.87H128.263L128.693 394.47L128.103 396.8L127.673 396.98C127.833 396.673 128.073 396.44 128.393 396.28C128.72 396.113 129.086 396.03 129.493 396.03C129.98 396.03 130.403 396.133 130.763 396.34C131.13 396.547 131.413 396.833 131.613 397.2C131.82 397.56 131.923 397.98 131.923 398.46C131.923 398.987 131.806 399.45 131.573 399.85C131.346 400.25 131.026 400.563 130.613 400.79C130.206 401.01 129.73 401.12 129.183 401.12ZM136.93 398.85L135.35 401H133.89L135.95 398.25L136.27 398.33C136.123 398.457 135.94 398.56 135.72 398.64C135.506 398.713 135.296 398.75 135.09 398.75C134.59 398.75 134.15 398.643 133.77 398.43C133.39 398.21 133.093 397.91 132.88 397.53C132.666 397.143 132.56 396.703 132.56 396.21C132.56 395.69 132.676 395.23 132.91 394.83C133.15 394.43 133.473 394.12 133.88 393.9C134.293 393.673 134.76 393.56 135.28 393.56C135.806 393.56 136.276 393.68 136.69 393.92C137.11 394.153 137.44 394.47 137.68 394.87C137.92 395.27 138.04 395.72 138.04 396.22C138.04 396.513 138.003 396.79 137.93 397.05C137.856 397.31 137.74 397.583 137.58 397.87C137.42 398.15 137.203 398.477 136.93 398.85ZM136.73 396.21C136.73 395.91 136.67 395.647 136.55 395.42C136.43 395.193 136.26 395.017 136.04 394.89C135.82 394.763 135.566 394.7 135.28 394.7C135 394.7 134.75 394.763 134.53 394.89C134.316 395.017 134.15 395.193 134.03 395.42C133.91 395.647 133.85 395.91 133.85 396.21C133.85 396.503 133.91 396.763 134.03 396.99C134.15 397.21 134.316 397.383 134.53 397.51C134.75 397.637 135 397.7 135.28 397.7C135.573 397.7 135.826 397.637 136.04 397.51C136.26 397.383 136.43 397.21 136.55 396.99C136.67 396.763 136.73 396.503 136.73 396.21ZM139.49 401.12C139.27 401.12 139.08 401.043 138.92 400.89C138.76 400.737 138.68 400.55 138.68 400.33C138.68 400.11 138.76 399.923 138.92 399.77C139.08 399.61 139.27 399.53 139.49 399.53C139.71 399.53 139.9 399.61 140.06 399.77C140.22 399.923 140.3 400.11 140.3 400.33C140.3 400.55 140.22 400.737 140.06 400.89C139.9 401.043 139.71 401.12 139.49 401.12ZM141.311 398.93C141.311 398.43 141.458 398.003 141.751 397.65C142.051 397.29 142.441 397.063 142.921 396.97L142.931 397.2C142.498 397.087 142.161 396.883 141.921 396.59C141.688 396.297 141.571 395.94 141.571 395.52C141.571 395.133 141.678 394.793 141.891 394.5C142.104 394.207 142.401 393.977 142.781 393.81C143.168 393.643 143.611 393.56 144.111 393.56C144.611 393.56 145.048 393.643 145.421 393.81C145.801 393.97 146.094 394.2 146.301 394.5C146.514 394.793 146.621 395.14 146.621 395.54C146.621 395.96 146.501 396.317 146.261 396.61C146.021 396.897 145.684 397.09 145.251 397.19L145.241 396.98C145.568 397.027 145.854 397.143 146.101 397.33C146.348 397.51 146.538 397.737 146.671 398.01C146.811 398.283 146.881 398.59 146.881 398.93C146.881 399.37 146.764 399.757 146.531 400.09C146.304 400.417 145.981 400.67 145.561 400.85C145.148 401.03 144.658 401.12 144.091 401.12C143.531 401.12 143.041 401.03 142.621 400.85C142.208 400.67 141.884 400.417 141.651 400.09C141.424 399.757 141.311 399.37 141.311 398.93ZM142.561 398.84C142.561 399.073 142.621 399.277 142.741 399.45C142.868 399.623 143.044 399.757 143.271 399.85C143.504 399.943 143.781 399.99 144.101 399.99C144.408 399.99 144.674 399.943 144.901 399.85C145.134 399.757 145.311 399.627 145.431 399.46C145.558 399.287 145.621 399.08 145.621 398.84C145.621 398.487 145.481 398.207 145.201 398C144.928 397.793 144.558 397.69 144.091 397.69C143.624 397.69 143.251 397.793 142.971 398C142.698 398.207 142.561 398.487 142.561 398.84ZM142.731 395.63C142.731 395.93 142.854 396.173 143.101 396.36C143.348 396.54 143.678 396.63 144.091 396.63C144.498 396.63 144.821 396.54 145.061 396.36C145.308 396.18 145.431 395.94 145.431 395.64C145.431 395.333 145.308 395.093 145.061 394.92C144.821 394.74 144.498 394.65 144.091 394.65C143.678 394.65 143.348 394.74 143.101 394.92C142.854 395.093 142.731 395.33 142.731 395.63ZM147.717 398.93C147.717 398.43 147.864 398.003 148.157 397.65C148.457 397.29 148.847 397.063 149.327 396.97L149.337 397.2C148.904 397.087 148.567 396.883 148.327 396.59C148.094 396.297 147.977 395.94 147.977 395.52C147.977 395.133 148.084 394.793 148.297 394.5C148.511 394.207 148.807 393.977 149.187 393.81C149.574 393.643 150.017 393.56 150.517 393.56C151.017 393.56 151.454 393.643 151.827 393.81C152.207 393.97 152.501 394.2 152.707 394.5C152.921 394.793 153.027 395.14 153.027 395.54C153.027 395.96 152.907 396.317 152.667 396.61C152.427 396.897 152.091 397.09 151.657 397.19L151.647 396.98C151.974 397.027 152.261 397.143 152.507 397.33C152.754 397.51 152.944 397.737 153.077 398.01C153.217 398.283 153.287 398.59 153.287 398.93C153.287 399.37 153.171 399.757 152.937 400.09C152.711 400.417 152.387 400.67 151.967 400.85C151.554 401.03 151.064 401.12 150.497 401.12C149.937 401.12 149.447 401.03 149.027 400.85C148.614 400.67 148.291 400.417 148.057 400.09C147.831 399.757 147.717 399.37 147.717 398.93ZM148.967 398.84C148.967 399.073 149.027 399.277 149.147 399.45C149.274 399.623 149.451 399.757 149.677 399.85C149.911 399.943 150.187 399.99 150.507 399.99C150.814 399.99 151.081 399.943 151.307 399.85C151.541 399.757 151.717 399.627 151.837 399.46C151.964 399.287 152.027 399.08 152.027 398.84C152.027 398.487 151.887 398.207 151.607 398C151.334 397.793 150.964 397.69 150.497 397.69C150.031 397.69 149.657 397.793 149.377 398C149.104 398.207 148.967 398.487 148.967 398.84ZM149.137 395.63C149.137 395.93 149.261 396.173 149.507 396.36C149.754 396.54 150.084 396.63 150.497 396.63C150.904 396.63 151.227 396.54 151.467 396.36C151.714 396.18 151.837 395.94 151.837 395.64C151.837 395.333 151.714 395.093 151.467 394.92C151.227 394.74 150.904 394.65 150.497 394.65C150.084 394.65 149.754 394.74 149.507 394.92C149.261 395.093 149.137 395.33 149.137 395.63ZM158.489 393.69V401H157.209V393.69H158.489ZM160.109 397.89H158.099V396.81H160.039C160.392 396.81 160.662 396.723 160.849 396.55C161.036 396.37 161.129 396.117 161.129 395.79C161.129 395.477 161.032 395.237 160.839 395.07C160.646 394.903 160.366 394.82 159.999 394.82H158.059V393.69H160.109C160.836 393.69 161.406 393.867 161.819 394.22C162.232 394.573 162.439 395.057 162.439 395.67C162.439 396.11 162.332 396.48 162.119 396.78C161.906 397.073 161.589 397.287 161.169 397.42V397.28C161.622 397.387 161.966 397.587 162.199 397.88C162.432 398.173 162.549 398.553 162.549 399.02C162.549 399.433 162.456 399.79 162.269 400.09C162.082 400.383 161.809 400.61 161.449 400.77C161.096 400.923 160.669 401 160.169 401H158.059V399.87H160.109C160.476 399.87 160.756 399.783 160.949 399.61C161.142 399.437 161.239 399.187 161.239 398.86C161.239 398.553 161.139 398.317 160.939 398.15C160.746 397.977 160.469 397.89 160.109 397.89ZM163.303 395.73C163.303 395.303 163.413 394.927 163.633 394.6C163.853 394.273 164.156 394.02 164.543 393.84C164.936 393.653 165.389 393.56 165.903 393.56C166.396 393.56 166.823 393.647 167.183 393.82C167.549 393.993 167.833 394.24 168.033 394.56C168.239 394.88 168.349 395.26 168.363 395.7H167.083C167.069 395.387 166.956 395.143 166.743 394.97C166.529 394.79 166.243 394.7 165.883 394.7C165.489 394.7 165.173 394.79 164.933 394.97C164.699 395.143 164.583 395.383 164.583 395.69C164.583 395.95 164.653 396.157 164.793 396.31C164.939 396.457 165.166 396.567 165.473 396.64L166.623 396.9C167.249 397.033 167.716 397.263 168.023 397.59C168.329 397.91 168.483 398.343 168.483 398.89C168.483 399.337 168.373 399.73 168.153 400.07C167.933 400.41 167.619 400.673 167.213 400.86C166.813 401.04 166.343 401.13 165.803 401.13C165.289 401.13 164.839 401.043 164.453 400.87C164.066 400.69 163.763 400.44 163.543 400.12C163.329 399.8 163.216 399.423 163.203 398.99H164.483C164.489 399.297 164.609 399.54 164.843 399.72C165.083 399.893 165.406 399.98 165.813 399.98C166.239 399.98 166.576 399.893 166.823 399.72C167.076 399.54 167.203 399.303 167.203 399.01C167.203 398.757 167.136 398.557 167.003 398.41C166.869 398.257 166.653 398.15 166.353 398.09L165.193 397.83C164.573 397.697 164.103 397.457 163.783 397.11C163.463 396.757 163.303 396.297 163.303 395.73ZM171.481 397.35L169.051 393.69H170.571L171.461 395.01C171.607 395.223 171.744 395.443 171.871 395.67C172.004 395.89 172.141 396.123 172.281 396.37L173.981 393.69H175.471L173.081 397.34L175.481 401H173.971L173.151 399.79C172.984 399.543 172.834 399.303 172.701 399.07C172.567 398.837 172.424 398.59 172.271 398.33L170.501 401H169.001L171.481 397.35Z" fill="#787E82"/>
<path d="M411.97 395.84L413.55 393.69H415.01L412.95 396.44L412.63 396.36C412.777 396.227 412.957 396.123 413.17 396.05C413.39 395.977 413.604 395.94 413.81 395.94C414.31 395.94 414.75 396.05 415.13 396.27C415.51 396.483 415.807 396.783 416.02 397.17C416.234 397.55 416.34 397.987 416.34 398.48C416.34 399 416.22 399.46 415.98 399.86C415.747 400.253 415.424 400.563 415.01 400.79C414.604 401.017 414.14 401.13 413.62 401.13C413.094 401.13 412.62 401.013 412.2 400.78C411.787 400.547 411.46 400.23 411.22 399.83C410.98 399.423 410.86 398.97 410.86 398.47C410.86 398.17 410.894 397.893 410.96 397.64C411.034 397.38 411.15 397.107 411.31 396.82C411.477 396.533 411.697 396.207 411.97 395.84ZM412.17 398.48C412.17 398.78 412.23 399.043 412.35 399.27C412.477 399.497 412.647 399.673 412.86 399.8C413.08 399.927 413.334 399.99 413.62 399.99C413.9 399.99 414.147 399.927 414.36 399.8C414.574 399.673 414.74 399.497 414.86 399.27C414.987 399.043 415.05 398.78 415.05 398.48C415.05 398.187 414.987 397.93 414.86 397.71C414.74 397.483 414.574 397.307 414.36 397.18C414.147 397.053 413.9 396.99 413.62 396.99C413.334 396.99 413.08 397.053 412.86 397.18C412.64 397.307 412.47 397.483 412.35 397.71C412.23 397.93 412.17 398.187 412.17 398.48ZM417.132 397.36C417.132 396.6 417.258 395.937 417.512 395.37C417.772 394.803 418.132 394.36 418.592 394.04C419.058 393.713 419.602 393.55 420.222 393.55C420.848 393.55 421.392 393.713 421.852 394.04C422.318 394.36 422.678 394.803 422.932 395.37C423.192 395.937 423.322 396.6 423.322 397.36C423.322 398.113 423.198 398.773 422.952 399.34C422.705 399.907 422.352 400.347 421.892 400.66C421.432 400.973 420.875 401.13 420.222 401.13C419.582 401.13 419.028 400.973 418.562 400.66C418.102 400.347 417.748 399.907 417.502 399.34C417.255 398.773 417.132 398.113 417.132 397.36ZM418.392 397.36C418.392 397.92 418.465 398.4 418.612 398.8C418.758 399.193 418.968 399.493 419.242 399.7C419.515 399.9 419.842 400 420.222 400C420.615 400 420.945 399.9 421.212 399.7C421.485 399.493 421.695 399.193 421.842 398.8C421.988 398.4 422.062 397.92 422.062 397.36C422.062 396.78 421.988 396.293 421.842 395.9C421.695 395.5 421.485 395.197 421.212 394.99C420.945 394.783 420.615 394.68 420.222 394.68C419.842 394.68 419.515 394.783 419.242 394.99C418.968 395.197 418.758 395.5 418.612 395.9C418.465 396.293 418.392 396.78 418.392 397.36ZM428.952 393.69V401H427.742V393.69H428.952ZM424.032 398.49L427.342 393.69H428.692L425.332 398.57L424.032 398.49ZM429.842 399.61H424.032V398.49H429.842V399.61ZM431.691 400.91L431.811 400.88C431.758 400.927 431.698 400.963 431.631 400.99C431.571 401.01 431.498 401.02 431.411 401.02C431.218 401.02 431.051 400.957 430.911 400.83C430.771 400.697 430.701 400.53 430.701 400.33C430.701 400.09 430.771 399.897 430.911 399.75C431.051 399.603 431.234 399.53 431.461 399.53C431.714 399.53 431.921 399.623 432.081 399.81C432.241 399.997 432.321 400.247 432.321 400.56C432.321 400.833 432.261 401.083 432.141 401.31C432.021 401.543 431.854 401.733 431.641 401.88C431.428 402.027 431.184 402.117 430.911 402.15V401.66C431.138 401.62 431.324 401.533 431.471 401.4C431.618 401.273 431.691 401.11 431.691 400.91ZM433.333 398.93C433.333 398.43 433.479 398.003 433.773 397.65C434.073 397.29 434.463 397.063 434.943 396.97L434.953 397.2C434.519 397.087 434.183 396.883 433.943 396.59C433.709 396.297 433.593 395.94 433.593 395.52C433.593 395.133 433.699 394.793 433.913 394.5C434.126 394.207 434.423 393.977 434.803 393.81C435.189 393.643 435.633 393.56 436.133 393.56C436.633 393.56 437.069 393.643 437.443 393.81C437.823 393.97 438.116 394.2 438.323 394.5C438.536 394.793 438.643 395.14 438.643 395.54C438.643 395.96 438.523 396.317 438.283 396.61C438.043 396.897 437.706 397.09 437.273 397.19L437.263 396.98C437.589 397.027 437.876 397.143 438.123 397.33C438.369 397.51 438.559 397.737 438.693 398.01C438.833 398.283 438.903 398.59 438.903 398.93C438.903 399.37 438.786 399.757 438.553 400.09C438.326 400.417 438.003 400.67 437.583 400.85C437.169 401.03 436.679 401.12 436.113 401.12C435.553 401.12 435.063 401.03 434.643 400.85C434.229 400.67 433.906 400.417 433.673 400.09C433.446 399.757 433.333 399.37 433.333 398.93ZM434.583 398.84C434.583 399.073 434.643 399.277 434.763 399.45C434.889 399.623 435.066 399.757 435.293 399.85C435.526 399.943 435.803 399.99 436.123 399.99C436.429 399.99 436.696 399.943 436.923 399.85C437.156 399.757 437.333 399.627 437.453 399.46C437.579 399.287 437.643 399.08 437.643 398.84C437.643 398.487 437.503 398.207 437.223 398C436.949 397.793 436.579 397.69 436.113 397.69C435.646 397.69 435.273 397.793 434.993 398C434.719 398.207 434.583 398.487 434.583 398.84ZM434.753 395.63C434.753 395.93 434.876 396.173 435.123 396.36C435.369 396.54 435.699 396.63 436.113 396.63C436.519 396.63 436.843 396.54 437.083 396.36C437.329 396.18 437.453 395.94 437.453 395.64C437.453 395.333 437.329 395.093 437.083 394.92C436.843 394.74 436.519 394.65 436.113 394.65C435.699 394.65 435.369 394.74 435.123 394.92C434.876 395.093 434.753 395.33 434.753 395.63ZM442.24 401.12C441.733 401.12 441.286 401.02 440.9 400.82C440.52 400.613 440.223 400.327 440.01 399.96C439.803 399.587 439.7 399.153 439.7 398.66H440.96C440.96 399.073 441.076 399.397 441.31 399.63C441.543 399.863 441.863 399.98 442.27 399.98C442.556 399.98 442.803 399.923 443.01 399.81C443.223 399.69 443.386 399.52 443.5 399.3C443.62 399.08 443.68 398.823 443.68 398.53C443.68 398.25 443.623 398.003 443.51 397.79C443.403 397.57 443.246 397.4 443.04 397.28C442.833 397.16 442.583 397.1 442.29 397.1C442.01 397.1 441.75 397.163 441.51 397.29C441.276 397.41 441.093 397.567 440.96 397.76L439.83 397.52L440.73 393.69H444.54V394.87H441.32L441.75 394.47L441.16 396.8L440.73 396.98C440.89 396.673 441.13 396.44 441.45 396.28C441.776 396.113 442.143 396.03 442.55 396.03C443.036 396.03 443.46 396.133 443.82 396.34C444.186 396.547 444.47 396.833 444.67 397.2C444.876 397.56 444.98 397.98 444.98 398.46C444.98 398.987 444.863 399.45 444.63 399.85C444.403 400.25 444.083 400.563 443.67 400.79C443.263 401.01 442.786 401.12 442.24 401.12ZM449.986 398.85L448.406 401H446.946L449.006 398.25L449.326 398.33C449.18 398.457 448.996 398.56 448.776 398.64C448.563 398.713 448.353 398.75 448.146 398.75C447.646 398.75 447.206 398.643 446.826 398.43C446.446 398.21 446.15 397.91 445.936 397.53C445.723 397.143 445.616 396.703 445.616 396.21C445.616 395.69 445.733 395.23 445.966 394.83C446.206 394.43 446.53 394.12 446.936 393.9C447.35 393.673 447.816 393.56 448.336 393.56C448.863 393.56 449.333 393.68 449.746 393.92C450.166 394.153 450.496 394.47 450.736 394.87C450.976 395.27 451.096 395.72 451.096 396.22C451.096 396.513 451.06 396.79 450.986 397.05C450.913 397.31 450.796 397.583 450.636 397.87C450.476 398.15 450.26 398.477 449.986 398.85ZM449.786 396.21C449.786 395.91 449.726 395.647 449.606 395.42C449.486 395.193 449.316 395.017 449.096 394.89C448.876 394.763 448.623 394.7 448.336 394.7C448.056 394.7 447.806 394.763 447.586 394.89C447.373 395.017 447.206 395.193 447.086 395.42C446.966 395.647 446.906 395.91 446.906 396.21C446.906 396.503 446.966 396.763 447.086 396.99C447.206 397.21 447.373 397.383 447.586 397.51C447.806 397.637 448.056 397.7 448.336 397.7C448.63 397.7 448.883 397.637 449.096 397.51C449.316 397.383 449.486 397.21 449.606 396.99C449.726 396.763 449.786 396.503 449.786 396.21ZM452.546 401.12C452.326 401.12 452.136 401.043 451.976 400.89C451.816 400.737 451.736 400.55 451.736 400.33C451.736 400.11 451.816 399.923 451.976 399.77C452.136 399.61 452.326 399.53 452.546 399.53C452.766 399.53 452.956 399.61 453.116 399.77C453.276 399.923 453.356 400.11 453.356 400.33C453.356 400.55 453.276 400.737 453.116 400.89C452.956 401.043 452.766 401.12 452.546 401.12ZM454.368 398.93C454.368 398.43 454.514 398.003 454.808 397.65C455.108 397.29 455.498 397.063 455.978 396.97L455.988 397.2C455.554 397.087 455.218 396.883 454.978 396.59C454.744 396.297 454.628 395.94 454.628 395.52C454.628 395.133 454.734 394.793 454.948 394.5C455.161 394.207 455.458 393.977 455.838 393.81C456.224 393.643 456.668 393.56 457.168 393.56C457.668 393.56 458.104 393.643 458.478 393.81C458.858 393.97 459.151 394.2 459.358 394.5C459.571 394.793 459.678 395.14 459.678 395.54C459.678 395.96 459.558 396.317 459.318 396.61C459.078 396.897 458.741 397.09 458.308 397.19L458.298 396.98C458.624 397.027 458.911 397.143 459.158 397.33C459.404 397.51 459.594 397.737 459.728 398.01C459.868 398.283 459.938 398.59 459.938 398.93C459.938 399.37 459.821 399.757 459.588 400.09C459.361 400.417 459.038 400.67 458.618 400.85C458.204 401.03 457.714 401.12 457.148 401.12C456.588 401.12 456.098 401.03 455.678 400.85C455.264 400.67 454.941 400.417 454.708 400.09C454.481 399.757 454.368 399.37 454.368 398.93ZM455.618 398.84C455.618 399.073 455.678 399.277 455.798 399.45C455.924 399.623 456.101 399.757 456.328 399.85C456.561 399.943 456.838 399.99 457.158 399.99C457.464 399.99 457.731 399.943 457.958 399.85C458.191 399.757 458.368 399.627 458.488 399.46C458.614 399.287 458.678 399.08 458.678 398.84C458.678 398.487 458.538 398.207 458.258 398C457.984 397.793 457.614 397.69 457.148 397.69C456.681 397.69 456.308 397.793 456.028 398C455.754 398.207 455.618 398.487 455.618 398.84ZM455.788 395.63C455.788 395.93 455.911 396.173 456.158 396.36C456.404 396.54 456.734 396.63 457.148 396.63C457.554 396.63 457.878 396.54 458.118 396.36C458.364 396.18 458.488 395.94 458.488 395.64C458.488 395.333 458.364 395.093 458.118 394.92C457.878 394.74 457.554 394.65 457.148 394.65C456.734 394.65 456.404 394.74 456.158 394.92C455.911 395.093 455.788 395.33 455.788 395.63ZM460.774 398.93C460.774 398.43 460.921 398.003 461.214 397.65C461.514 397.29 461.904 397.063 462.384 396.97L462.394 397.2C461.961 397.087 461.624 396.883 461.384 396.59C461.151 396.297 461.034 395.94 461.034 395.52C461.034 395.133 461.141 394.793 461.354 394.5C461.567 394.207 461.864 393.977 462.244 393.81C462.631 393.643 463.074 393.56 463.574 393.56C464.074 393.56 464.511 393.643 464.884 393.81C465.264 393.97 465.557 394.2 465.764 394.5C465.977 394.793 466.084 395.14 466.084 395.54C466.084 395.96 465.964 396.317 465.724 396.61C465.484 396.897 465.147 397.09 464.714 397.19L464.704 396.98C465.031 397.027 465.317 397.143 465.564 397.33C465.811 397.51 466.001 397.737 466.134 398.01C466.274 398.283 466.344 398.59 466.344 398.93C466.344 399.37 466.227 399.757 465.994 400.09C465.767 400.417 465.444 400.67 465.024 400.85C464.611 401.03 464.121 401.12 463.554 401.12C462.994 401.12 462.504 401.03 462.084 400.85C461.671 400.67 461.347 400.417 461.114 400.09C460.887 399.757 460.774 399.37 460.774 398.93ZM462.024 398.84C462.024 399.073 462.084 399.277 462.204 399.45C462.331 399.623 462.507 399.757 462.734 399.85C462.967 399.943 463.244 399.99 463.564 399.99C463.871 399.99 464.137 399.943 464.364 399.85C464.597 399.757 464.774 399.627 464.894 399.46C465.021 399.287 465.084 399.08 465.084 398.84C465.084 398.487 464.944 398.207 464.664 398C464.391 397.793 464.021 397.69 463.554 397.69C463.087 397.69 462.714 397.793 462.434 398C462.161 398.207 462.024 398.487 462.024 398.84ZM462.194 395.63C462.194 395.93 462.317 396.173 462.564 396.36C462.811 396.54 463.141 396.63 463.554 396.63C463.961 396.63 464.284 396.54 464.524 396.36C464.771 396.18 464.894 395.94 464.894 395.64C464.894 395.333 464.771 395.093 464.524 394.92C464.284 394.74 463.961 394.65 463.554 394.65C463.141 394.65 462.811 394.74 462.564 394.92C462.317 395.093 462.194 395.33 462.194 395.63ZM471.546 393.69V401H470.266V393.69H471.546ZM473.166 397.89H471.156V396.81H473.096C473.449 396.81 473.719 396.723 473.906 396.55C474.092 396.37 474.186 396.117 474.186 395.79C474.186 395.477 474.089 395.237 473.896 395.07C473.702 394.903 473.422 394.82 473.056 394.82H471.116V393.69H473.166C473.892 393.69 474.462 393.867 474.876 394.22C475.289 394.573 475.496 395.057 475.496 395.67C475.496 396.11 475.389 396.48 475.176 396.78C474.962 397.073 474.646 397.287 474.226 397.42V397.28C474.679 397.387 475.022 397.587 475.256 397.88C475.489 398.173 475.606 398.553 475.606 399.02C475.606 399.433 475.512 399.79 475.326 400.09C475.139 400.383 474.866 400.61 474.506 400.77C474.152 400.923 473.726 401 473.226 401H471.116V399.87H473.166C473.532 399.87 473.812 399.783 474.006 399.61C474.199 399.437 474.296 399.187 474.296 398.86C474.296 398.553 474.196 398.317 473.996 398.15C473.802 397.977 473.526 397.89 473.166 397.89ZM476.359 395.73C476.359 395.303 476.469 394.927 476.689 394.6C476.909 394.273 477.213 394.02 477.599 393.84C477.993 393.653 478.446 393.56 478.959 393.56C479.453 393.56 479.879 393.647 480.239 393.82C480.606 393.993 480.889 394.24 481.089 394.56C481.296 394.88 481.406 395.26 481.419 395.7H480.139C480.126 395.387 480.013 395.143 479.799 394.97C479.586 394.79 479.299 394.7 478.939 394.7C478.546 394.7 478.229 394.79 477.989 394.97C477.756 395.143 477.639 395.383 477.639 395.69C477.639 395.95 477.709 396.157 477.849 396.31C477.996 396.457 478.223 396.567 478.529 396.64L479.679 396.9C480.306 397.033 480.773 397.263 481.079 397.59C481.386 397.91 481.539 398.343 481.539 398.89C481.539 399.337 481.429 399.73 481.209 400.07C480.989 400.41 480.676 400.673 480.269 400.86C479.869 401.04 479.399 401.13 478.859 401.13C478.346 401.13 477.896 401.043 477.509 400.87C477.123 400.69 476.819 400.44 476.599 400.12C476.386 399.8 476.273 399.423 476.259 398.99H477.539C477.546 399.297 477.666 399.54 477.899 399.72C478.139 399.893 478.463 399.98 478.869 399.98C479.296 399.98 479.633 399.893 479.879 399.72C480.133 399.54 480.259 399.303 480.259 399.01C480.259 398.757 480.193 398.557 480.059 398.41C479.926 398.257 479.709 398.15 479.409 398.09L478.249 397.83C477.629 397.697 477.159 397.457 476.839 397.11C476.519 396.757 476.359 396.297 476.359 395.73ZM484.537 397.35L482.107 393.69H483.627L484.517 395.01C484.664 395.223 484.801 395.443 484.927 395.67C485.061 395.89 485.197 396.123 485.337 396.37L487.037 393.69H488.527L486.137 397.34L488.537 401H487.027L486.207 399.79C486.041 399.543 485.891 399.303 485.757 399.07C485.624 398.837 485.481 398.59 485.327 398.33L483.557 401H482.057L484.537 397.35Z" fill="#787E82"/>
<path d="M468.984 383H467.472V374.228H468.996L473.556 381.128H473.112V374.228H474.624V383H473.112L468.54 376.112H468.984V383ZM478.114 383.156C477.49 383.156 476.994 382.988 476.626 382.652C476.266 382.308 476.086 381.86 476.086 381.308C476.086 380.764 476.274 380.332 476.65 380.012C477.034 379.684 477.578 379.492 478.282 379.436L480.058 379.292V379.16C480.058 378.888 480.006 378.672 479.902 378.512C479.806 378.344 479.666 378.224 479.482 378.152C479.298 378.072 479.082 378.032 478.834 378.032C478.402 378.032 478.07 378.12 477.838 378.296C477.606 378.464 477.49 378.704 477.49 379.016H476.242C476.242 378.584 476.35 378.212 476.566 377.9C476.79 377.58 477.102 377.332 477.502 377.156C477.91 376.98 478.378 376.892 478.906 376.892C479.442 376.892 479.902 376.988 480.286 377.18C480.67 377.364 480.966 377.644 481.174 378.02C481.382 378.388 481.486 378.848 481.486 379.4V383H480.202L480.094 382.124C479.966 382.428 479.718 382.676 479.35 382.868C478.99 383.06 478.578 383.156 478.114 383.156ZM478.582 382.052C479.038 382.052 479.398 381.924 479.662 381.668C479.934 381.412 480.07 381.056 480.07 380.6V380.288L478.834 380.384C478.378 380.424 478.054 380.52 477.862 380.672C477.67 380.816 477.574 381.008 477.574 381.248C477.574 381.512 477.662 381.712 477.838 381.848C478.014 381.984 478.262 382.052 478.582 382.052ZM483.648 377.072L485.58 382.544L484.788 384.044L482.1 377.072H483.648ZM482.256 385.748V384.536H483.132C483.324 384.536 483.492 384.512 483.636 384.464C483.78 384.424 483.908 384.344 484.02 384.224C484.14 384.104 484.24 383.928 484.32 383.696L486.78 377.072H488.292L485.388 384.32C485.172 384.864 484.9 385.26 484.572 385.508C484.244 385.756 483.836 385.88 483.348 385.88C483.14 385.88 482.944 385.868 482.76 385.844C482.584 385.828 482.416 385.796 482.256 385.748Z" fill="white"/>
<rect x="91.5005" y="437" width="388" height="5" rx="2.5" fill="white" fill-opacity="0.06"/>
<rect x="91.5005" y="451" width="388" height="5" rx="2.5" fill="white" fill-opacity="0.06"/>
<rect x="91.5005" y="465" width="388" height="5" rx="2.5" fill="white" fill-opacity="0.06"/>
<rect x="91.5005" y="479" width="388" height="5" rx="2.5" fill="white" fill-opacity="0.06"/>
<rect x="91.5005" y="493" width="166.595" height="5" rx="2.5" fill="white" fill-opacity="0.06"/>
<line opacity="0.78" x1="91.5005" y1="420.342" x2="479.417" y2="420.342" stroke="#29292D"/>
</g>
</g>
</g>
<defs>
<filter id="filter0_d_732_15452" x="58.3918" y="60.1615" width="499.337" height="269.337" filterUnits="userSpaceOnUse" color-interpolation-filters="sRGB">
<feFlood flood-opacity="0" result="BackgroundImageFix"/>
<feColorMatrix in="SourceAlpha" type="matrix" values="0 0 0 0 0 0 0 0 0 0 0 0 0 0 0 0 0 0 127 0" result="hardAlpha"/>
<feOffset dx="24.56" dy="24.8302"/>
<feGaussianBlur stdDeviation="13.8343"/>
<feComposite in2="hardAlpha" operator="out"/>
<feColorMatrix type="matrix" values="0 0 0 0 0 0 0 0 0 0 0 0 0 0 0 0 0 0 0.26 0"/>
<feBlend mode="normal" in2="BackgroundImageFix" result="effect1_dropShadow_732_15452"/>
<feBlend mode="normal" in="SourceGraphic" in2="effect1_dropShadow_732_15452" result="shape"/>
</filter>
<filter id="filter1_d_732_15452" x="46.7767" y="281.77" width="527.098" height="566.459" filterUnits="userSpaceOnUse" color-interpolation-filters="sRGB">
<feFlood flood-opacity="0" result="BackgroundImageFix"/>
<feColorMatrix in="SourceAlpha" type="matrix" values="0 0 0 0 0 0 0 0 0 0 0 0 0 0 0 0 0 0 127 0" result="hardAlpha"/>
<feOffset dx="27" dy="37"/>
<feGaussianBlur stdDeviation="20.6148"/>
<feComposite in2="hardAlpha" operator="out"/>
<feColorMatrix type="matrix" values="0 0 0 0 0 0 0 0 0 0 0 0 0 0 0 0 0 0 0.26 0"/>
<feBlend mode="normal" in2="BackgroundImageFix" result="effect1_dropShadow_732_15452"/>
<feBlend mode="normal" in="SourceGraphic" in2="effect1_dropShadow_732_15452" result="shape"/>
</filter>
<filter id="filter2_d_732_15452" x="17.9026" y="283.162" width="499.976" height="539.337" filterUnits="userSpaceOnUse" color-interpolation-filters="sRGB">
<feFlood flood-opacity="0" result="BackgroundImageFix"/>
<feColorMatrix in="SourceAlpha" type="matrix" values="0 0 0 0 0 0 0 0 0 0 0 0 0 0 0 0 0 0 127 0" result="hardAlpha"/>
<feOffset dx="-15.435" dy="24.8302"/>
<feGaussianBlur stdDeviation="13.8343"/>
<feComposite in2="hardAlpha" operator="out"/>
<feColorMatrix type="matrix" values="0 0 0 0 0 0 0 0 0 0 0 0 0 0 0 0 0 0 0.26 0"/>
<feBlend mode="normal" in2="BackgroundImageFix" result="effect1_dropShadow_732_15452"/>
<feBlend mode="normal" in="SourceGraphic" in2="effect1_dropShadow_732_15452" result="shape"/>
</filter>
<linearGradient id="paint0_linear_732_15452" x1="273.506" y1="-9.5" x2="273.506" y2="496.5" gradientUnits="userSpaceOnUse">
<stop offset="0.0865225" stop-color="#FF9263"/>
<stop offset="0.398614" stop-color="#FF88A5" stop-opacity="0.34"/>
<stop offset="1" stop-opacity="0"/>
</linearGradient>
<linearGradient id="paint1_linear_732_15452" x1="273.5" y1="365" x2="273.5" y2="496.5" gradientUnits="userSpaceOnUse">
<stop/>
<stop offset="1" stop-color="#D9D9D9" stop-opacity="0"/>
</linearGradient>
<linearGradient id="paint2_linear_732_15452" x1="283.5" y1="63" x2="283.5" y2="277" gradientUnits="userSpaceOnUse">
<stop stop-color="#121A23"/>
<stop offset="1" stop-color="#121316"/>
</linearGradient>
<linearGradient id="paint3_linear_732_15452" x1="97.7661" y1="244.78" x2="110.825" y2="244.78" gradientUnits="userSpaceOnUse">
<stop stop-color="#4FFFB0"/>
<stop offset="1" stop-color="#B3FF8F"/>
</linearGradient>
<linearGradient id="paint4_linear_732_15452" x1="93.7935" y1="248.358" x2="96.8708" y2="248.358" gradientUnits="userSpaceOnUse">
<stop stop-color="#4FFFB0"/>
<stop offset="1" stop-color="#B3FF8F"/>
</linearGradient>
<linearGradient id="paint5_linear_732_15452" x1="283.326" y1="286" x2="283.326" y2="770" gradientUnits="userSpaceOnUse">
<stop stop-color="#121A23"/>
<stop offset="1" stop-color="#121316"/>
</linearGradient>
<linearGradient id="paint6_linear_732_15452" x1="88.5005" y1="357.5" x2="388.5" y2="357.5" gradientUnits="userSpaceOnUse">
<stop stop-color="#4FFFB0"/>
<stop offset="1" stop-color="#B3FF8F"/>
</linearGradient>
</defs>
</svg>
