<svg width="281" height="736" viewBox="0 0 281 736" fill="none" xmlns="http://www.w3.org/2000/svg">
<path d="M121.438 205.723C152.911 205.723 183.69 215.195 209.886 232.917C236.054 250.667 256.471 275.862 268.527 305.362C280.583 334.862 283.722 367.306 277.583 398.64C271.444 429.945 256.277 458.723 234.026 481.307C211.775 503.89 183.413 519.251 152.522 525.473C121.632 531.696 89.6307 528.501 60.5462 516.279C31.4616 504.057 6.5994 483.362 -10.9014 456.834C-28.4021 430.279 -37.7358 399.084 -37.7358 367.14C-37.7358 345.945 -33.6245 324.945 -25.6242 305.362C-17.6238 285.778 -5.90115 267.973 8.87726 253.001C23.6557 238.001 41.212 226.112 60.5183 218C79.8247 209.889 100.52 205.723 121.438 205.723ZM69.5188 367.14C69.5188 445.14 121.438 508.39 121.438 508.39C121.438 508.39 173.357 445.168 173.357 367.14C173.357 289.112 121.438 225.917 121.438 225.917C121.438 225.917 69.5188 289.14 69.5188 367.14Z" fill="url(#paint0_linear_997_22242)"/>
<path d="M-45.375 412.89C-13.9015 412.89 16.8776 422.362 43.0732 440.084C69.241 457.834 89.6585 483.029 101.715 512.529C113.771 542.029 116.91 574.474 110.771 605.807C104.631 637.113 89.4641 665.89 67.2131 688.474C44.9622 711.057 16.5998 726.418 -14.2904 732.641C-45.1806 738.863 -77.1819 735.668 -106.266 723.446C-135.351 711.224 -160.213 690.529 -177.714 664.002C-195.215 637.446 -204.548 606.251 -204.548 574.307C-204.548 553.112 -200.437 532.112 -192.437 512.529C-184.437 492.946 -172.714 475.14 -157.935 460.168C-143.157 445.168 -125.601 433.279 -106.294 425.168C-86.9879 417.057 -66.2926 412.89 -45.375 412.89ZM-97.2939 574.307C-97.2939 652.307 -45.375 715.557 -45.375 715.557C-45.375 715.557 6.54385 652.335 6.54385 574.307C6.54385 496.279 -45.375 433.084 -45.375 433.084C-45.375 433.084 -97.2939 496.307 -97.2939 574.307Z" fill="url(#paint1_linear_997_22242)"/>
<path d="M70.5743 461.945C88.2139 480.612 101.103 503.251 108.27 527.918C91.1306 526.362 74.3244 521.973 58.5182 514.946C39.3785 506.418 22.0999 494.168 7.65484 478.862C-6.79022 463.557 -18.1518 445.529 -25.7076 425.779C-27.3188 421.556 -28.7634 417.279 -30.0134 412.945C-23.2909 413.556 -16.5962 414.584 -9.95701 416.056C20.7943 422.945 48.8233 438.918 70.5743 461.973V461.945Z" fill="url(#paint2_linear_997_22242)"/>
<path d="M69.1298 272.362C86.7695 253.695 99.659 231.056 106.826 206.389C89.6863 207.945 72.88 212.334 57.0738 219.362C37.9341 227.889 20.6556 240.139 6.21051 255.445C-8.23456 270.751 -19.5962 288.778 -27.1521 308.529C-28.7632 312.751 -30.2077 317.029 -31.4578 321.362C-24.7353 320.751 -18.0405 319.723 -11.4013 318.251C19.35 311.362 47.3789 295.39 69.1298 272.334V272.362Z" fill="url(#paint3_linear_997_22242)"/>
<path d="M-45.375 0C-13.9015 0 16.8776 9.47224 43.0732 27.1945C69.241 44.9445 89.6585 70.139 101.715 99.6391C113.771 129.139 116.91 161.584 110.771 192.917C104.631 224.223 89.4641 253.001 67.2131 275.584C44.9622 298.167 16.5998 313.529 -14.2904 319.751C-45.1806 325.973 -77.1819 322.779 -106.266 310.556C-135.351 298.334 -160.213 277.64 -177.714 251.112C-195.215 224.556 -204.548 193.362 -204.548 161.417C-204.548 140.223 -200.437 119.222 -192.437 99.6391C-184.437 80.0557 -172.714 62.2501 -157.935 47.2779C-143.157 32.2779 -125.601 20.3889 -106.294 12.2778C-86.9879 4.16668 -66.2926 0 -45.375 0ZM-97.2939 161.417C-97.2939 239.417 -45.375 302.667 -45.375 302.667C-45.375 302.667 6.54385 239.445 6.54385 161.417C6.54385 83.3891 -45.375 20.1945 -45.375 20.1945C-45.375 20.1945 -97.2939 83.4169 -97.2939 161.417Z" fill="url(#paint4_linear_997_22242)"/>
<defs>
<linearGradient id="paint0_linear_997_22242" x1="-37.7358" y1="367.108" x2="280.643" y2="367.108" gradientUnits="userSpaceOnUse">
<stop stop-color="#3077F3" stop-opacity="0"/>
<stop offset="0.45467" stop-color="#3B49C7"/>
<stop offset="1" stop-color="#2C7DF4" stop-opacity="0"/>
</linearGradient>
<linearGradient id="paint1_linear_997_22242" x1="-204.548" y1="574.275" x2="113.83" y2="574.275" gradientUnits="userSpaceOnUse">
<stop stop-color="#3077F3" stop-opacity="0"/>
<stop offset="0.45467" stop-color="#3B49C7"/>
<stop offset="1" stop-color="#2C7DF4" stop-opacity="0"/>
</linearGradient>
<linearGradient id="paint2_linear_997_22242" x1="-30.0134" y1="470.418" x2="108.27" y2="470.418" gradientUnits="userSpaceOnUse">
<stop stop-color="#3B4AC7" stop-opacity="0"/>
<stop offset="1" stop-color="#3342A4"/>
</linearGradient>
<linearGradient id="paint3_linear_997_22242" x1="-31.4578" y1="263.862" x2="106.826" y2="263.862" gradientUnits="userSpaceOnUse">
<stop stop-color="#3B4AC7" stop-opacity="0"/>
<stop offset="1" stop-color="#3342A4"/>
</linearGradient>
<linearGradient id="paint4_linear_997_22242" x1="-204.548" y1="161.385" x2="113.83" y2="161.385" gradientUnits="userSpaceOnUse">
<stop stop-color="#3077F3" stop-opacity="0"/>
<stop offset="0.45467" stop-color="#3B49C7"/>
<stop offset="1" stop-color="#2C7DF4" stop-opacity="0"/>
</linearGradient>
</defs>
</svg>
