<svg width="515" height="418" viewBox="0 0 515 418" fill="none" xmlns="http://www.w3.org/2000/svg">
<g filter="url(#filter0_d_608_5764)">
<g clip-path="url(#clip0_608_5764)">
<rect x="44" y="3" width="397" height="104" rx="18" fill="url(#paint0_linear_608_5764)"/>
<line opacity="0.4" x1="102.557" y1="3" x2="102.557" y2="109.175" stroke="#29292D"/>
<path d="M145.569 49.6782H151.043V40.5544C151.043 37.5321 148.591 35.0801 145.569 35.0801H129.146C126.124 35.0801 123.672 37.5321 123.672 40.5544V49.6782C123.672 52.4652 125.768 54.8068 128.537 55.1204L129.421 55.2202L129.339 56.1111C129.249 57.052 128.989 57.829 128.558 58.4206C128.448 58.5774 128.576 58.7912 128.765 58.7734C130.162 58.6166 132.361 57.8575 133.266 55.7119L133.505 55.1524H138.512C139.325 52.0089 142.176 49.6782 145.569 49.6782ZM138.27 49.6782V50.5906C138.27 51.0931 137.86 51.5029 137.358 51.5029C136.855 51.5029 136.445 51.0931 136.445 50.5906V49.6782H133.708C133.206 49.6782 132.796 49.2683 132.796 48.7658C132.796 48.2633 133.206 47.8534 133.708 47.8534H136.445V46.0287H135.533C134.025 46.0287 132.796 44.799 132.796 43.2915C132.796 41.784 134.025 40.5544 135.533 40.5544H136.445V39.642C136.445 39.1395 136.855 38.7296 137.358 38.7296C137.86 38.7296 138.27 39.1395 138.27 39.642V40.5544H141.007C141.51 40.5544 141.92 40.9642 141.92 41.4667C141.92 41.9693 141.51 42.3791 141.007 42.3791H138.27V44.2039H139.182C140.69 44.2039 141.92 45.4335 141.92 46.941C141.92 48.4486 140.69 49.6782 139.182 49.6782H138.27ZM135.533 42.3791H136.445V44.2039H135.533C135.03 44.2039 134.62 43.794 134.62 43.2915C134.62 42.789 135.03 42.3791 135.533 42.3791ZM140.095 46.941C140.095 47.4436 139.685 47.8534 139.182 47.8534H138.27V46.0287H139.182C139.685 46.0287 140.095 46.4385 140.095 46.941Z" fill="url(#paint1_linear_608_5764)"/>
<path fill-rule="evenodd" clip-rule="evenodd" d="M161.991 51.5029H145.568C142.549 51.5029 140.094 53.9585 140.094 56.9772V66.101C140.094 69.1197 142.549 71.5753 145.568 71.5753H157.629L157.868 72.1313C158.78 74.2769 160.968 75.0431 162.365 75.1964C162.558 75.2142 162.693 74.9968 162.576 74.84C162.148 74.2483 161.881 73.4714 161.799 72.5305L161.717 71.636L162.601 71.5362C165.373 71.2261 167.462 68.8917 167.462 66.1083L167.465 56.9771C167.465 53.9584 165.01 51.5029 161.991 51.5029ZM158.341 63.3639C158.341 61.8599 157.108 60.6267 155.604 60.6267H154.692V58.802H157.429C157.932 58.802 158.341 58.3921 158.341 57.8896C158.341 57.3871 157.932 56.9772 157.429 56.9772H154.692V56.0648C154.692 55.5623 154.282 55.1525 153.779 55.1525C153.277 55.1525 152.867 55.5623 152.867 56.0648V56.9772H151.955C150.451 56.9772 149.218 58.2104 149.218 59.7144C149.218 61.2183 150.451 62.4515 151.955 62.4515H152.867V64.2763H150.13C149.627 64.2763 149.218 64.6861 149.218 65.1887C149.218 65.6912 149.627 66.101 150.13 66.101H152.867V67.0134C152.867 67.5159 153.277 67.9258 153.779 67.9258C154.282 67.9258 154.692 67.5159 154.692 67.0134V66.101H155.604C157.108 66.101 158.341 64.8679 158.341 63.3639ZM151.955 58.802H152.867V60.6267H151.955C151.452 60.6267 151.042 60.2169 151.042 59.7144C151.042 59.2118 151.452 58.802 151.955 58.802ZM154.692 62.4515H155.604C156.107 62.4515 156.517 62.8614 156.517 63.3639C156.517 63.8664 156.107 64.2763 155.604 64.2763H154.692V62.4515Z" fill="url(#paint2_linear_608_5764)"/>
<path d="M194.722 47.5H187.458V35.804H194.722V37.692H188.786L189.506 37.036V40.7H194.178V42.508H189.506V46.268L188.786 45.612H194.722V47.5ZM198.591 47.5H196.639V39.596H198.447L198.607 40.62C198.852 40.2253 199.199 39.916 199.647 39.692C200.106 39.468 200.602 39.356 201.135 39.356C202.127 39.356 202.874 39.6493 203.375 40.236C203.887 40.8227 204.143 41.6227 204.143 42.636V47.5H202.191V43.1C202.191 42.4387 202.042 41.948 201.743 41.628C201.444 41.2973 201.039 41.132 200.527 41.132C199.919 41.132 199.444 41.324 199.103 41.708C198.762 42.092 198.591 42.604 198.591 43.244V47.5ZM205.613 43.372C205.613 42.604 205.767 41.9213 206.077 41.324C206.397 40.716 206.839 40.236 207.405 39.884C207.97 39.532 208.626 39.356 209.373 39.356C210.045 39.356 210.621 39.5053 211.101 39.804C211.581 40.092 211.917 40.4973 212.109 41.02L211.901 41.196L212.061 39.596H213.869V47.1C213.869 47.9747 213.698 48.732 213.357 49.372C213.026 50.0227 212.551 50.5187 211.933 50.86C211.325 51.212 210.589 51.388 209.725 51.388C208.594 51.388 207.666 51.084 206.941 50.476C206.215 49.868 205.789 49.036 205.661 47.98H207.613C207.677 48.492 207.89 48.892 208.253 49.18C208.626 49.468 209.117 49.612 209.725 49.612C210.397 49.612 210.93 49.4147 211.325 49.02C211.73 48.636 211.933 48.1133 211.933 47.452V45.484L212.157 45.692C211.965 46.1933 211.613 46.5933 211.101 46.892C210.589 47.1907 209.997 47.34 209.325 47.34C208.578 47.34 207.927 47.1693 207.373 46.828C206.818 46.4867 206.386 46.0173 206.077 45.42C205.767 44.8227 205.613 44.14 205.613 43.372ZM207.581 43.324C207.581 43.772 207.666 44.172 207.837 44.524C208.018 44.8653 208.269 45.1373 208.589 45.34C208.909 45.5427 209.282 45.644 209.709 45.644C210.157 45.644 210.541 45.548 210.861 45.356C211.191 45.1533 211.442 44.8813 211.613 44.54C211.794 44.188 211.885 43.7827 211.885 43.324C211.885 42.8653 211.799 42.4707 211.629 42.14C211.458 41.7987 211.207 41.532 210.877 41.34C210.557 41.148 210.167 41.052 209.709 41.052C209.271 41.052 208.893 41.1533 208.573 41.356C208.253 41.548 208.007 41.8147 207.837 42.156C207.666 42.4973 207.581 42.8867 207.581 43.324ZM217.857 47.5H215.921V35.596H217.857V47.5ZM219.904 47.5V39.596H221.856V47.5H219.904ZM220.864 38.012C220.534 38.012 220.251 37.9 220.016 37.676C219.792 37.4413 219.68 37.1587 219.68 36.828C219.68 36.4973 219.792 36.22 220.016 35.996C220.251 35.772 220.534 35.66 220.864 35.66C221.195 35.66 221.472 35.772 221.696 35.996C221.931 36.22 222.048 36.4973 222.048 36.828C222.048 37.1587 221.931 37.4413 221.696 37.676C221.472 37.9 221.195 38.012 220.864 38.012ZM223.265 45.1H225.121C225.132 45.4413 225.26 45.7133 225.505 45.916C225.751 46.1187 226.092 46.22 226.529 46.22C226.999 46.22 227.351 46.1347 227.585 45.964C227.831 45.7933 227.953 45.564 227.953 45.276C227.953 45.084 227.889 44.9133 227.761 44.764C227.633 44.6147 227.393 44.5027 227.041 44.428L225.617 44.092C224.903 43.932 224.369 43.676 224.017 43.324C223.676 42.9613 223.505 42.4653 223.505 41.836C223.505 41.324 223.639 40.8813 223.905 40.508C224.183 40.1347 224.556 39.852 225.025 39.66C225.495 39.4573 226.033 39.356 226.641 39.356C227.228 39.356 227.745 39.4627 228.193 39.676C228.641 39.8893 228.988 40.188 229.233 40.572C229.489 40.956 229.623 41.404 229.633 41.916H227.777C227.777 41.5747 227.671 41.308 227.457 41.116C227.244 40.9133 226.945 40.812 226.561 40.812C226.177 40.812 225.879 40.8973 225.665 41.068C225.452 41.2387 225.345 41.468 225.345 41.756C225.345 42.1933 225.687 42.492 226.369 42.652L227.793 42.988C228.455 43.1373 228.951 43.3773 229.281 43.708C229.623 44.0387 229.793 44.508 229.793 45.116C229.793 45.6493 229.655 46.1133 229.377 46.508C229.1 46.892 228.711 47.1907 228.209 47.404C227.708 47.6067 227.132 47.708 226.481 47.708C225.5 47.708 224.716 47.468 224.129 46.988C223.553 46.508 223.265 45.8787 223.265 45.1ZM233.231 47.5H231.279V35.596H233.247V40.62C233.493 40.236 233.834 39.932 234.271 39.708C234.719 39.4733 235.231 39.356 235.807 39.356C236.778 39.356 237.514 39.6493 238.015 40.236C238.527 40.8227 238.783 41.6227 238.783 42.636V47.5H236.831V43.1C236.831 42.652 236.762 42.284 236.623 41.996C236.485 41.708 236.293 41.4947 236.047 41.356C235.802 41.2067 235.514 41.132 235.183 41.132C234.778 41.132 234.426 41.2227 234.127 41.404C233.839 41.5747 233.615 41.8147 233.455 42.124C233.306 42.4333 233.231 42.7853 233.231 43.18V47.5ZM246.294 47.5H244.182L248.406 35.804H250.502L254.726 47.5H252.566L251.622 44.796H247.254L246.294 47.5ZM249.19 39.292L247.846 43.068H251.03L249.686 39.292C249.643 39.132 249.595 38.972 249.542 38.812C249.489 38.652 249.457 38.5133 249.446 38.396C249.425 38.5027 249.387 38.6413 249.334 38.812C249.291 38.972 249.243 39.132 249.19 39.292ZM260.952 39.596H262.904V47.5H261.096L260.952 46.444C260.717 46.8173 260.365 47.1213 259.896 47.356C259.427 47.5907 258.925 47.708 258.392 47.708C257.485 47.708 256.776 47.42 256.264 46.844C255.752 46.268 255.496 45.5 255.496 44.54V39.596H257.448V43.852C257.448 44.5987 257.592 45.1373 257.88 45.468C258.168 45.7987 258.584 45.964 259.128 45.964C259.747 45.964 260.205 45.7827 260.504 45.42C260.803 45.0467 260.952 44.4867 260.952 43.74V39.596ZM264.3 43.532C264.3 42.7213 264.465 42.0013 264.796 41.372C265.137 40.7427 265.601 40.252 266.188 39.9C266.785 39.5373 267.473 39.356 268.252 39.356C269.329 39.356 270.209 39.6387 270.892 40.204C271.585 40.7587 271.985 41.5107 272.092 42.46H270.14C270.023 42.012 269.804 41.676 269.484 41.452C269.175 41.2173 268.785 41.1 268.316 41.1C267.911 41.1 267.548 41.2013 267.228 41.404C266.919 41.596 266.679 41.8733 266.508 42.236C266.337 42.5987 266.252 43.0307 266.252 43.532C266.252 44.0333 266.332 44.4653 266.492 44.828C266.652 45.1907 266.881 45.4733 267.18 45.676C267.489 45.868 267.852 45.964 268.268 45.964C268.759 45.964 269.164 45.8467 269.484 45.612C269.815 45.3773 270.033 45.0413 270.14 44.604H272.108C272.023 45.2227 271.804 45.7667 271.452 46.236C271.111 46.6947 270.668 47.0573 270.124 47.324C269.58 47.58 268.961 47.708 268.268 47.708C267.468 47.708 266.769 47.5373 266.172 47.196C265.575 46.844 265.111 46.3587 264.78 45.74C264.46 45.1107 264.3 44.3747 264.3 43.532ZM272.777 39.596H277.769V41.228H272.777V39.596ZM276.249 47.5H274.297V37.132H276.249V47.5ZM278.998 47.5V39.596H280.95V47.5H278.998ZM279.958 38.012C279.628 38.012 279.345 37.9 279.11 37.676C278.886 37.4413 278.774 37.1587 278.774 36.828C278.774 36.4973 278.886 36.22 279.11 35.996C279.345 35.772 279.628 35.66 279.958 35.66C280.289 35.66 280.566 35.772 280.79 35.996C281.025 36.22 281.142 36.4973 281.142 36.828C281.142 37.1587 281.025 37.4413 280.79 37.676C280.566 37.9 280.289 38.012 279.958 38.012ZM282.503 43.532C282.503 42.7107 282.684 41.9907 283.047 41.372C283.41 40.7427 283.911 40.252 284.551 39.9C285.191 39.548 285.916 39.372 286.727 39.372C287.548 39.372 288.274 39.548 288.903 39.9C289.543 40.252 290.044 40.7427 290.407 41.372C290.77 41.9907 290.951 42.7107 290.951 43.532C290.951 44.3533 290.77 45.0787 290.407 45.708C290.044 46.3267 289.543 46.812 288.903 47.164C288.274 47.516 287.548 47.692 286.727 47.692C285.916 47.692 285.191 47.516 284.551 47.164C283.911 46.812 283.41 46.3267 283.047 45.708C282.684 45.0787 282.503 44.3533 282.503 43.532ZM284.455 43.532C284.455 44.012 284.551 44.4333 284.743 44.796C284.946 45.1587 285.212 45.4413 285.543 45.644C285.884 45.8467 286.279 45.948 286.727 45.948C287.175 45.948 287.57 45.8467 287.911 45.644C288.252 45.4413 288.519 45.1587 288.711 44.796C288.903 44.4333 288.999 44.012 288.999 43.532C288.999 43.0413 288.903 42.62 288.711 42.268C288.519 41.9053 288.252 41.6227 287.911 41.42C287.57 41.2173 287.175 41.116 286.727 41.116C286.279 41.116 285.884 41.2173 285.543 41.42C285.212 41.6227 284.946 41.9053 284.743 42.268C284.551 42.62 284.455 43.0413 284.455 43.532ZM294.45 47.5H292.498V39.596H294.306L294.466 40.62C294.712 40.2253 295.058 39.916 295.506 39.692C295.965 39.468 296.461 39.356 296.994 39.356C297.986 39.356 298.733 39.6493 299.234 40.236C299.746 40.8227 300.002 41.6227 300.002 42.636V47.5H298.05V43.1C298.05 42.4387 297.901 41.948 297.602 41.628C297.304 41.2973 296.898 41.132 296.386 41.132C295.778 41.132 295.304 41.324 294.962 41.708C294.621 42.092 294.45 42.604 294.45 43.244V47.5Z" fill="#E5ECF1"/>
<rect x="186.162" y="60.5" width="233.64" height="5" rx="2.5" fill="#DAFFEE" fill-opacity="0.06"/>
<rect x="186.162" y="74.5" width="166.595" height="5" rx="2.5" fill="#DAFFEE" fill-opacity="0.06"/>
<rect x="60.5" y="42" width="24" height="24" rx="8.5" stroke="#44444A"/>
<rect x="67.2812" y="48.7334" width="10" height="10" rx="3" fill="url(#paint3_linear_608_5764)"/>
</g>
</g>
<g filter="url(#filter1_d_608_5764)">
<g clip-path="url(#clip1_608_5764)">
<rect x="105" y="132.058" width="397" height="104" rx="18" fill="url(#paint4_linear_608_5764)"/>
<line opacity="0.4" x1="163.557" y1="132.058" x2="163.557" y2="238.233" stroke="#29292D"/>
<path d="M197.793 166.162C200.559 167.759 198.164 171.906 195.398 170.311C192.634 168.714 195.029 164.565 197.793 166.162Z" fill="#909BFF"/>
<path d="M184 184.057C184 189.139 186.018 194.01 189.61 197.604C193.204 201.196 198.076 203.214 203.157 203.214C208.238 203.214 213.11 201.196 216.704 197.604C220.296 194.01 222.314 189.139 222.314 184.057C222.314 178.976 220.296 174.105 216.704 170.51C213.11 166.919 208.238 164.9 203.157 164.9H200.762V169.69H203.157C206.967 169.69 210.622 171.203 213.316 173.899C216.012 176.593 217.525 180.248 217.525 184.057C217.525 187.867 216.012 191.522 213.316 194.216C210.622 196.912 206.967 198.425 203.157 198.425C199.347 198.425 195.692 196.912 192.999 194.216C190.302 191.522 188.789 187.867 188.789 184.057V181.663H184L184 184.057Z" fill="url(#paint5_angular_608_5764)"/>
<path opacity="0.6" d="M190.236 172.98C193.002 174.577 190.608 178.726 187.841 177.128C185.077 175.531 187.472 171.385 190.236 172.98Z" fill="#909BFF"/>
<path d="M203.156 187.65C203.792 187.65 204.4 187.397 204.849 186.948C205.298 186.499 205.551 185.891 205.551 185.255V175.677H200.762V185.255C200.762 185.891 201.014 186.499 201.463 186.948C201.912 187.397 202.52 187.65 203.156 187.65Z" fill="#909BFF"/>
<path d="M246.554 176.75C245.413 176.75 244.421 176.504 243.578 176.014C242.746 175.512 242.096 174.814 241.626 173.918C241.168 173.011 240.938 171.944 240.938 170.718C240.938 169.502 241.173 168.44 241.642 167.534C242.122 166.627 242.794 165.923 243.658 165.422C244.522 164.92 245.52 164.67 246.65 164.67C247.578 164.67 248.41 164.84 249.146 165.182C249.882 165.523 250.49 166.003 250.97 166.622C251.45 167.23 251.754 167.955 251.882 168.798H249.722C249.52 168.115 249.141 167.587 248.586 167.214C248.042 166.83 247.376 166.638 246.586 166.638C245.882 166.638 245.264 166.803 244.73 167.134C244.208 167.464 243.802 167.934 243.514 168.542C243.226 169.15 243.082 169.875 243.082 170.718C243.082 171.528 243.226 172.243 243.514 172.862C243.802 173.47 244.208 173.944 244.73 174.286C245.264 174.616 245.882 174.782 246.586 174.782C247.386 174.782 248.069 174.59 248.634 174.206C249.21 173.822 249.594 173.304 249.786 172.654H251.914C251.765 173.464 251.44 174.179 250.938 174.798C250.448 175.416 249.824 175.896 249.066 176.238C248.32 176.579 247.482 176.75 246.554 176.75ZM255.659 176.766C254.827 176.766 254.165 176.542 253.675 176.094C253.195 175.635 252.955 175.038 252.955 174.302C252.955 173.576 253.205 173 253.707 172.574C254.219 172.136 254.944 171.88 255.883 171.806L258.251 171.614V171.438C258.251 171.075 258.181 170.787 258.043 170.574C257.915 170.35 257.728 170.19 257.483 170.094C257.237 169.987 256.949 169.934 256.619 169.934C256.043 169.934 255.6 170.051 255.291 170.286C254.981 170.51 254.827 170.83 254.827 171.246H253.163C253.163 170.67 253.307 170.174 253.595 169.758C253.893 169.331 254.309 169 254.843 168.766C255.387 168.531 256.011 168.414 256.715 168.414C257.429 168.414 258.043 168.542 258.555 168.798C259.067 169.043 259.461 169.416 259.739 169.918C260.016 170.408 260.155 171.022 260.155 171.758V176.558H258.443L258.299 175.39C258.128 175.795 257.797 176.126 257.307 176.382C256.827 176.638 256.277 176.766 255.659 176.766ZM256.283 175.294C256.891 175.294 257.371 175.123 257.723 174.782C258.085 174.44 258.267 173.966 258.267 173.358V172.942L256.619 173.07C256.011 173.123 255.579 173.251 255.323 173.454C255.067 173.646 254.939 173.902 254.939 174.222C254.939 174.574 255.056 174.84 255.291 175.022C255.525 175.203 255.856 175.294 256.283 175.294ZM264.024 176.558H262.072V168.654H263.88L264.04 169.678C264.286 169.283 264.632 168.974 265.08 168.75C265.539 168.526 266.035 168.414 266.568 168.414C267.56 168.414 268.307 168.707 268.808 169.294C269.32 169.88 269.576 170.68 269.576 171.694V176.558H267.624V172.158C267.624 171.496 267.475 171.006 267.176 170.686C266.878 170.355 266.472 170.19 265.96 170.19C265.352 170.19 264.878 170.382 264.536 170.766C264.195 171.15 264.024 171.662 264.024 172.302V176.558ZM274.742 176.766C273.974 176.766 273.313 176.595 272.758 176.254C272.214 175.902 271.788 175.416 271.478 174.798C271.18 174.179 271.03 173.459 271.03 172.638C271.03 171.816 271.18 171.091 271.478 170.462C271.788 169.822 272.23 169.32 272.806 168.958C273.382 168.595 274.065 168.414 274.854 168.414C275.409 168.414 275.916 168.526 276.374 168.75C276.833 168.963 277.185 169.267 277.43 169.662V164.654H279.366V176.558H277.574L277.446 175.326C277.212 175.774 276.849 176.126 276.358 176.382C275.878 176.638 275.34 176.766 274.742 176.766ZM275.174 174.974C275.633 174.974 276.028 174.878 276.358 174.686C276.689 174.483 276.945 174.2 277.126 173.838C277.318 173.464 277.414 173.043 277.414 172.574C277.414 172.094 277.318 171.678 277.126 171.326C276.945 170.963 276.689 170.68 276.358 170.478C276.028 170.264 275.633 170.158 275.174 170.158C274.726 170.158 274.337 170.264 274.006 170.478C273.676 170.68 273.42 170.963 273.238 171.326C273.068 171.688 272.982 172.104 272.982 172.574C272.982 173.043 273.068 173.459 273.238 173.822C273.42 174.184 273.676 174.467 274.006 174.67C274.337 174.872 274.726 174.974 275.174 174.974ZM283.369 176.558H281.433V164.654H283.369V176.558ZM288.952 176.766C288.174 176.766 287.48 176.59 286.872 176.238C286.275 175.875 285.806 175.384 285.464 174.766C285.123 174.136 284.952 173.416 284.952 172.606C284.952 171.784 285.118 171.059 285.448 170.43C285.779 169.8 286.243 169.31 286.84 168.958C287.438 168.595 288.12 168.414 288.888 168.414C289.688 168.414 290.376 168.584 290.952 168.926C291.528 169.256 291.971 169.72 292.28 170.318C292.6 170.915 292.76 171.63 292.76 172.462V173.054L285.976 173.07L286.008 171.822H290.824C290.824 171.278 290.648 170.84 290.296 170.51C289.955 170.179 289.491 170.014 288.904 170.014C288.446 170.014 288.056 170.11 287.736 170.302C287.427 170.494 287.192 170.782 287.032 171.166C286.872 171.55 286.792 172.019 286.792 172.574C286.792 173.427 286.974 174.072 287.336 174.51C287.71 174.947 288.259 175.166 288.984 175.166C289.518 175.166 289.955 175.064 290.296 174.862C290.648 174.659 290.878 174.371 290.984 173.998H292.792C292.622 174.862 292.195 175.539 291.512 176.03C290.84 176.52 289.987 176.766 288.952 176.766ZM299.915 176.558H297.803L302.027 164.862H304.123L308.347 176.558H306.187L305.243 173.854H300.875L299.915 176.558ZM302.811 168.35L301.467 172.126H304.651L303.307 168.35C303.264 168.19 303.216 168.03 303.163 167.87C303.11 167.71 303.078 167.571 303.067 167.454C303.046 167.56 303.008 167.699 302.955 167.87C302.912 168.03 302.864 168.19 302.811 168.35ZM314.573 168.654H316.525V176.558H314.717L314.573 175.502C314.338 175.875 313.986 176.179 313.517 176.414C313.048 176.648 312.546 176.766 312.013 176.766C311.106 176.766 310.397 176.478 309.885 175.902C309.373 175.326 309.117 174.558 309.117 173.598V168.654H311.069V172.91C311.069 173.656 311.213 174.195 311.501 174.526C311.789 174.856 312.205 175.022 312.749 175.022C313.368 175.022 313.826 174.84 314.125 174.478C314.424 174.104 314.573 173.544 314.573 172.798V168.654ZM317.921 172.59C317.921 171.779 318.086 171.059 318.417 170.43C318.758 169.8 319.222 169.31 319.809 168.958C320.406 168.595 321.094 168.414 321.873 168.414C322.95 168.414 323.83 168.696 324.513 169.262C325.206 169.816 325.606 170.568 325.713 171.518H323.761C323.644 171.07 323.425 170.734 323.105 170.51C322.796 170.275 322.406 170.158 321.937 170.158C321.532 170.158 321.169 170.259 320.849 170.462C320.54 170.654 320.3 170.931 320.129 171.294C319.958 171.656 319.873 172.088 319.873 172.59C319.873 173.091 319.953 173.523 320.113 173.886C320.273 174.248 320.502 174.531 320.801 174.734C321.11 174.926 321.473 175.022 321.889 175.022C322.38 175.022 322.785 174.904 323.105 174.67C323.436 174.435 323.654 174.099 323.761 173.662H325.729C325.644 174.28 325.425 174.824 325.073 175.294C324.732 175.752 324.289 176.115 323.745 176.382C323.201 176.638 322.582 176.766 321.889 176.766C321.089 176.766 320.39 176.595 319.793 176.254C319.196 175.902 318.732 175.416 318.401 174.798C318.081 174.168 317.921 173.432 317.921 172.59ZM326.398 168.654H331.39V170.286H326.398V168.654ZM329.87 176.558H327.918V166.19H329.87V176.558ZM332.619 176.558V168.654H334.571V176.558H332.619ZM333.579 167.07C333.249 167.07 332.966 166.958 332.731 166.734C332.507 166.499 332.395 166.216 332.395 165.886C332.395 165.555 332.507 165.278 332.731 165.054C332.966 164.83 333.249 164.718 333.579 164.718C333.91 164.718 334.187 164.83 334.411 165.054C334.646 165.278 334.763 165.555 334.763 165.886C334.763 166.216 334.646 166.499 334.411 166.734C334.187 166.958 333.91 167.07 333.579 167.07ZM336.124 172.59C336.124 171.768 336.305 171.048 336.668 170.43C337.031 169.8 337.532 169.31 338.172 168.958C338.812 168.606 339.537 168.43 340.348 168.43C341.169 168.43 341.895 168.606 342.524 168.958C343.164 169.31 343.665 169.8 344.028 170.43C344.391 171.048 344.572 171.768 344.572 172.59C344.572 173.411 344.391 174.136 344.028 174.766C343.665 175.384 343.164 175.87 342.524 176.222C341.895 176.574 341.169 176.75 340.348 176.75C339.537 176.75 338.812 176.574 338.172 176.222C337.532 175.87 337.031 175.384 336.668 174.766C336.305 174.136 336.124 173.411 336.124 172.59ZM338.076 172.59C338.076 173.07 338.172 173.491 338.364 173.854C338.567 174.216 338.833 174.499 339.164 174.702C339.505 174.904 339.9 175.006 340.348 175.006C340.796 175.006 341.191 174.904 341.532 174.702C341.873 174.499 342.14 174.216 342.332 173.854C342.524 173.491 342.62 173.07 342.62 172.59C342.62 172.099 342.524 171.678 342.332 171.326C342.14 170.963 341.873 170.68 341.532 170.478C341.191 170.275 340.796 170.174 340.348 170.174C339.9 170.174 339.505 170.275 339.164 170.478C338.833 170.68 338.567 170.963 338.364 171.326C338.172 171.678 338.076 172.099 338.076 172.59ZM348.071 176.558H346.119V168.654H347.927L348.087 169.678C348.333 169.283 348.679 168.974 349.127 168.75C349.586 168.526 350.082 168.414 350.615 168.414C351.607 168.414 352.354 168.707 352.855 169.294C353.367 169.88 353.623 170.68 353.623 171.694V176.558H351.671V172.158C351.671 171.496 351.522 171.006 351.223 170.686C350.925 170.355 350.519 170.19 350.007 170.19C349.399 170.19 348.925 170.382 348.583 170.766C348.242 171.15 348.071 171.662 348.071 172.302V176.558Z" fill="#E5ECF1"/>
<rect x="240.314" y="189.558" width="233.64" height="5" rx="2.5" fill="#DAFFEE" fill-opacity="0.06"/>
<rect x="240.314" y="203.558" width="166.595" height="5" rx="2.5" fill="#DAFFEE" fill-opacity="0.06"/>
<rect x="121.5" y="171.058" width="24" height="24" rx="8.5" stroke="#44444A"/>
</g>
</g>
<g filter="url(#filter2_d_608_5764)">
<g clip-path="url(#clip2_608_5764)">
<rect x="50" y="261.115" width="397" height="104" rx="18" fill="url(#paint6_linear_608_5764)"/>
<line opacity="0.4" x1="108.557" y1="261.115" x2="108.557" y2="367.291" stroke="#29292D"/>
<circle opacity="0.5" cx="158.646" cy="313.636" r="15.8726" fill="url(#paint7_linear_608_5764)"/>
<g filter="url(#filter3_b_608_5764)">
<circle cx="153.871" cy="317.222" r="15.8726" fill="url(#paint8_linear_608_5764)" fill-opacity="0.7"/>
</g>
<circle cx="149.093" cy="313.636" r="15.8726" fill="url(#paint9_linear_608_5764)"/>
<path d="M149.98 321.15V320.036C152.397 319.616 153.722 318.018 153.722 316.147C153.722 314.256 152.713 313.098 150.209 312.216C148.421 311.541 147.687 311.102 147.687 310.406C147.687 309.817 148.13 309.229 149.496 309.229C150.368 309.229 151.06 309.388 151.593 309.57C151.839 309.653 152.105 309.63 152.333 309.506C152.561 309.384 152.723 309.172 152.787 308.922L152.833 308.745C152.923 308.399 152.866 308.03 152.684 307.723C152.499 307.416 152.201 307.195 151.851 307.111C151.357 306.989 150.778 306.902 150.086 306.872L150.088 306.053C150.084 305.485 149.623 305.022 149.053 305.022C148.483 305.022 148.024 305.483 148.024 306.052V307.021C145.775 307.462 144.471 308.913 144.471 310.763C144.471 312.804 146.006 313.854 148.255 314.611C149.812 315.137 150.483 315.642 150.483 316.44C150.483 317.282 149.664 317.743 148.465 317.743C147.555 317.743 146.704 317.547 145.973 317.275C145.713 317.179 145.424 317.197 145.18 317.324C144.935 317.453 144.757 317.679 144.686 317.947L144.645 318.106C144.458 318.835 144.88 319.58 145.6 319.796C146.289 320.002 147.096 320.145 147.918 320.182V321.149C147.918 321.718 148.379 322.18 148.949 322.18C149.519 322.18 149.98 321.72 149.98 321.149L149.98 321.15Z" fill="#131920"/>
<path d="M201.394 294.895V305.615H199.346V294.895H201.394ZM195.922 295.807V293.919H204.818V295.807H195.922ZM204.288 301.647C204.288 300.826 204.469 300.106 204.832 299.487C205.195 298.858 205.696 298.367 206.336 298.015C206.976 297.663 207.701 297.487 208.512 297.487C209.333 297.487 210.059 297.663 210.688 298.015C211.328 298.367 211.829 298.858 212.192 299.487C212.555 300.106 212.736 300.826 212.736 301.647C212.736 302.469 212.555 303.194 212.192 303.823C211.829 304.442 211.328 304.927 210.688 305.279C210.059 305.631 209.333 305.807 208.512 305.807C207.701 305.807 206.976 305.631 206.336 305.279C205.696 304.927 205.195 304.442 204.832 303.823C204.469 303.194 204.288 302.469 204.288 301.647ZM206.24 301.647C206.24 302.127 206.336 302.549 206.528 302.911C206.731 303.274 206.997 303.557 207.328 303.759C207.669 303.962 208.064 304.063 208.512 304.063C208.96 304.063 209.355 303.962 209.696 303.759C210.037 303.557 210.304 303.274 210.496 302.911C210.688 302.549 210.784 302.127 210.784 301.647C210.784 301.157 210.688 300.735 210.496 300.383C210.304 300.021 210.037 299.738 209.696 299.535C209.355 299.333 208.96 299.231 208.512 299.231C208.064 299.231 207.669 299.333 207.328 299.535C206.997 299.738 206.731 300.021 206.528 300.383C206.336 300.735 206.24 301.157 206.24 301.647ZM214.283 309.279V297.711H216.091L216.219 298.911C216.454 298.453 216.817 298.101 217.307 297.855C217.798 297.599 218.337 297.471 218.923 297.471C219.681 297.471 220.331 297.642 220.875 297.983C221.43 298.325 221.862 298.799 222.171 299.407C222.481 300.015 222.635 300.735 222.635 301.567C222.635 302.389 222.491 303.119 222.203 303.759C221.915 304.399 221.494 304.906 220.939 305.279C220.395 305.642 219.729 305.823 218.939 305.823C218.353 305.823 217.814 305.711 217.323 305.487C216.843 305.263 216.481 304.954 216.235 304.559V309.279H214.283ZM216.251 301.663C216.251 302.133 216.342 302.549 216.523 302.911C216.705 303.274 216.961 303.562 217.291 303.775C217.633 303.978 218.027 304.079 218.475 304.079C218.934 304.079 219.329 303.978 219.659 303.775C219.99 303.562 220.241 303.274 220.411 302.911C220.582 302.549 220.667 302.133 220.667 301.663C220.667 301.194 220.582 300.778 220.411 300.415C220.241 300.053 219.99 299.77 219.659 299.567C219.329 299.354 218.934 299.247 218.475 299.247C218.027 299.247 217.633 299.349 217.291 299.551C216.961 299.754 216.705 300.037 216.523 300.399C216.342 300.762 216.251 301.183 216.251 301.663ZM224.174 302.207V300.479H229.326V302.207H224.174ZM231.523 301.343V293.919H233.571V301.215C233.571 302.058 233.795 302.703 234.243 303.151C234.691 303.599 235.325 303.823 236.147 303.823C236.979 303.823 237.619 303.599 238.067 303.151C238.515 302.693 238.739 302.047 238.739 301.215V293.919H240.787V301.343C240.787 302.25 240.595 303.039 240.211 303.711C239.837 304.373 239.304 304.89 238.611 305.263C237.917 305.626 237.096 305.807 236.147 305.807C235.208 305.807 234.392 305.626 233.699 305.263C233.005 304.901 232.467 304.383 232.083 303.711C231.709 303.039 231.523 302.25 231.523 301.343ZM243.018 309.279V297.711H244.826L244.954 298.911C245.188 298.453 245.551 298.101 246.042 297.855C246.532 297.599 247.071 297.471 247.658 297.471C248.415 297.471 249.066 297.642 249.61 297.983C250.164 298.325 250.596 298.799 250.906 299.407C251.215 300.015 251.37 300.735 251.37 301.567C251.37 302.389 251.226 303.119 250.938 303.759C250.65 304.399 250.228 304.906 249.674 305.279C249.13 305.642 248.463 305.823 247.674 305.823C247.087 305.823 246.548 305.711 246.058 305.487C245.578 305.263 245.215 304.954 244.97 304.559V309.279H243.018ZM244.986 301.663C244.986 302.133 245.076 302.549 245.258 302.911C245.439 303.274 245.695 303.562 246.026 303.775C246.367 303.978 246.762 304.079 247.21 304.079C247.668 304.079 248.063 303.978 248.394 303.775C248.724 303.562 248.975 303.274 249.146 302.911C249.316 302.549 249.402 302.133 249.402 301.663C249.402 301.194 249.316 300.778 249.146 300.415C248.975 300.053 248.724 299.77 248.394 299.567C248.063 299.354 247.668 299.247 247.21 299.247C246.762 299.247 246.367 299.349 246.026 299.551C245.695 299.754 245.439 300.037 245.258 300.399C245.076 300.762 244.986 301.183 244.986 301.663ZM258.517 305.615H256.405L260.629 293.919H262.725L266.949 305.615H264.789L263.845 302.911H259.477L258.517 305.615ZM261.413 297.407L260.069 301.183H263.253L261.909 297.407C261.866 297.247 261.818 297.087 261.765 296.927C261.711 296.767 261.679 296.629 261.669 296.511C261.647 296.618 261.61 296.757 261.557 296.927C261.514 297.087 261.466 297.247 261.413 297.407ZM273.175 297.711H275.127V305.615H273.319L273.175 304.559C272.94 304.933 272.588 305.237 272.119 305.471C271.649 305.706 271.148 305.823 270.615 305.823C269.708 305.823 268.999 305.535 268.487 304.959C267.975 304.383 267.719 303.615 267.719 302.655V297.711H269.671V301.967C269.671 302.714 269.815 303.253 270.103 303.583C270.391 303.914 270.807 304.079 271.351 304.079C271.969 304.079 272.428 303.898 272.727 303.535C273.025 303.162 273.175 302.602 273.175 301.855V297.711ZM276.523 301.647C276.523 300.837 276.688 300.117 277.019 299.487C277.36 298.858 277.824 298.367 278.411 298.015C279.008 297.653 279.696 297.471 280.475 297.471C281.552 297.471 282.432 297.754 283.115 298.319C283.808 298.874 284.208 299.626 284.315 300.575H282.363C282.245 300.127 282.027 299.791 281.707 299.567C281.397 299.333 281.008 299.215 280.539 299.215C280.133 299.215 279.771 299.317 279.451 299.519C279.141 299.711 278.901 299.989 278.731 300.351C278.56 300.714 278.475 301.146 278.475 301.647C278.475 302.149 278.555 302.581 278.715 302.943C278.875 303.306 279.104 303.589 279.403 303.791C279.712 303.983 280.075 304.079 280.491 304.079C280.981 304.079 281.387 303.962 281.707 303.727C282.037 303.493 282.256 303.157 282.363 302.719H284.331C284.245 303.338 284.027 303.882 283.675 304.351C283.333 304.81 282.891 305.173 282.347 305.439C281.803 305.695 281.184 305.823 280.491 305.823C279.691 305.823 278.992 305.653 278.395 305.311C277.797 304.959 277.333 304.474 277.003 303.855C276.683 303.226 276.523 302.49 276.523 301.647ZM284.999 297.711H289.991V299.343H284.999V297.711ZM288.471 305.615H286.519V295.247H288.471V305.615ZM291.221 305.615V297.711H293.173V305.615H291.221ZM292.181 296.127C291.85 296.127 291.568 296.015 291.333 295.791C291.109 295.557 290.997 295.274 290.997 294.943C290.997 294.613 291.109 294.335 291.333 294.111C291.568 293.887 291.85 293.775 292.181 293.775C292.512 293.775 292.789 293.887 293.013 294.111C293.248 294.335 293.365 294.613 293.365 294.943C293.365 295.274 293.248 295.557 293.013 295.791C292.789 296.015 292.512 296.127 292.181 296.127ZM294.726 301.647C294.726 300.826 294.907 300.106 295.27 299.487C295.632 298.858 296.134 298.367 296.774 298.015C297.414 297.663 298.139 297.487 298.95 297.487C299.771 297.487 300.496 297.663 301.126 298.015C301.766 298.367 302.267 298.858 302.63 299.487C302.992 300.106 303.174 300.826 303.174 301.647C303.174 302.469 302.992 303.194 302.63 303.823C302.267 304.442 301.766 304.927 301.126 305.279C300.496 305.631 299.771 305.807 298.95 305.807C298.139 305.807 297.414 305.631 296.774 305.279C296.134 304.927 295.632 304.442 295.27 303.823C294.907 303.194 294.726 302.469 294.726 301.647ZM296.678 301.647C296.678 302.127 296.774 302.549 296.966 302.911C297.168 303.274 297.435 303.557 297.766 303.759C298.107 303.962 298.502 304.063 298.95 304.063C299.398 304.063 299.792 303.962 300.134 303.759C300.475 303.557 300.742 303.274 300.934 302.911C301.126 302.549 301.222 302.127 301.222 301.647C301.222 301.157 301.126 300.735 300.934 300.383C300.742 300.021 300.475 299.738 300.134 299.535C299.792 299.333 299.398 299.231 298.95 299.231C298.502 299.231 298.107 299.333 297.766 299.535C297.435 299.738 297.168 300.021 296.966 300.383C296.774 300.735 296.678 301.157 296.678 301.647ZM306.673 305.615H304.721V297.711H306.529L306.689 298.735C306.934 298.341 307.281 298.031 307.729 297.807C308.188 297.583 308.684 297.471 309.217 297.471C310.209 297.471 310.956 297.765 311.457 298.351C311.969 298.938 312.225 299.738 312.225 300.751V305.615H310.273V301.215C310.273 300.554 310.124 300.063 309.825 299.743C309.526 299.413 309.121 299.247 308.609 299.247C308.001 299.247 307.526 299.439 307.185 299.823C306.844 300.207 306.673 300.719 306.673 301.359V305.615Z" fill="#E5ECF1"/>
<rect x="195.65" y="318.615" width="233.64" height="5" rx="2.5" fill="#DAFFEE" fill-opacity="0.06"/>
<rect x="195.65" y="332.615" width="166.595" height="5" rx="2.5" fill="#DAFFEE" fill-opacity="0.06"/>
<rect x="66.5" y="300.115" width="24" height="24" rx="8.5" stroke="#44444A"/>
</g>
</g>
<defs>
<filter id="filter0_d_608_5764" x="0.896295" y="0.161549" width="452.337" height="159.337" filterUnits="userSpaceOnUse" color-interpolation-filters="sRGB">
<feFlood flood-opacity="0" result="BackgroundImageFix"/>
<feColorMatrix in="SourceAlpha" type="matrix" values="0 0 0 0 0 0 0 0 0 0 0 0 0 0 0 0 0 0 127 0" result="hardAlpha"/>
<feOffset dx="-15.435" dy="24.8302"/>
<feGaussianBlur stdDeviation="13.8343"/>
<feComposite in2="hardAlpha" operator="out"/>
<feColorMatrix type="matrix" values="0 0 0 0 0 0 0 0 0 0 0 0 0 0 0 0 0 0 0.26 0"/>
<feBlend mode="normal" in2="BackgroundImageFix" result="effect1_dropShadow_608_5764"/>
<feBlend mode="normal" in="SourceGraphic" in2="effect1_dropShadow_608_5764" result="shape"/>
</filter>
<filter id="filter1_d_608_5764" x="61.8963" y="129.219" width="452.337" height="159.337" filterUnits="userSpaceOnUse" color-interpolation-filters="sRGB">
<feFlood flood-opacity="0" result="BackgroundImageFix"/>
<feColorMatrix in="SourceAlpha" type="matrix" values="0 0 0 0 0 0 0 0 0 0 0 0 0 0 0 0 0 0 127 0" result="hardAlpha"/>
<feOffset dx="-15.435" dy="24.8302"/>
<feGaussianBlur stdDeviation="13.8343"/>
<feComposite in2="hardAlpha" operator="out"/>
<feColorMatrix type="matrix" values="0 0 0 0 0 0 0 0 0 0 0 0 0 0 0 0 0 0 0.26 0"/>
<feBlend mode="normal" in2="BackgroundImageFix" result="effect1_dropShadow_608_5764"/>
<feBlend mode="normal" in="SourceGraphic" in2="effect1_dropShadow_608_5764" result="shape"/>
</filter>
<filter id="filter2_d_608_5764" x="6.89629" y="258.277" width="452.337" height="159.337" filterUnits="userSpaceOnUse" color-interpolation-filters="sRGB">
<feFlood flood-opacity="0" result="BackgroundImageFix"/>
<feColorMatrix in="SourceAlpha" type="matrix" values="0 0 0 0 0 0 0 0 0 0 0 0 0 0 0 0 0 0 127 0" result="hardAlpha"/>
<feOffset dx="-15.435" dy="24.8302"/>
<feGaussianBlur stdDeviation="13.8343"/>
<feComposite in2="hardAlpha" operator="out"/>
<feColorMatrix type="matrix" values="0 0 0 0 0 0 0 0 0 0 0 0 0 0 0 0 0 0 0.26 0"/>
<feBlend mode="normal" in2="BackgroundImageFix" result="effect1_dropShadow_608_5764"/>
<feBlend mode="normal" in="SourceGraphic" in2="effect1_dropShadow_608_5764" result="shape"/>
</filter>
<filter id="filter3_b_608_5764" x="135.998" y="299.35" width="35.7461" height="35.7451" filterUnits="userSpaceOnUse" color-interpolation-filters="sRGB">
<feFlood flood-opacity="0" result="BackgroundImageFix"/>
<feGaussianBlur in="BackgroundImageFix" stdDeviation="1"/>
<feComposite in2="SourceAlpha" operator="in" result="effect1_backgroundBlur_608_5764"/>
<feBlend mode="normal" in="SourceGraphic" in2="effect1_backgroundBlur_608_5764" result="shape"/>
</filter>
<linearGradient id="paint0_linear_608_5764" x1="242.5" y1="3" x2="242.5" y2="107" gradientUnits="userSpaceOnUse">
<stop stop-color="#121A23"/>
<stop offset="1" stop-color="#121316"/>
</linearGradient>
<linearGradient id="paint1_linear_608_5764" x1="123.672" y1="46.9273" x2="151.043" y2="46.9273" gradientUnits="userSpaceOnUse">
<stop stop-color="#4FFFB0"/>
<stop offset="1" stop-color="#B3FF8F"/>
</linearGradient>
<linearGradient id="paint2_linear_608_5764" x1="153.78" y1="51.5029" x2="153.78" y2="75.1974" gradientUnits="userSpaceOnUse">
<stop stop-color="#59FFAD"/>
<stop offset="1" stop-color="#56FFAE" stop-opacity="0.09"/>
</linearGradient>
<linearGradient id="paint3_linear_608_5764" x1="67.2812" y1="53.7334" x2="77.2812" y2="53.7334" gradientUnits="userSpaceOnUse">
<stop stop-color="#4FFFB0"/>
<stop offset="1" stop-color="#B3FF8F"/>
</linearGradient>
<linearGradient id="paint4_linear_608_5764" x1="303.5" y1="132.058" x2="303.5" y2="236.058" gradientUnits="userSpaceOnUse">
<stop stop-color="#121A23"/>
<stop offset="1" stop-color="#121316"/>
</linearGradient>
<radialGradient id="paint5_angular_608_5764" cx="0" cy="0" r="1" gradientUnits="userSpaceOnUse" gradientTransform="translate(203.157 184.057) rotate(-90) scale(19.3429 19.343)">
<stop stop-color="#909BFF"/>
<stop offset="1" stop-color="#909BFF" stop-opacity="0"/>
</radialGradient>
<linearGradient id="paint6_linear_608_5764" x1="248.5" y1="261.115" x2="248.5" y2="365.115" gradientUnits="userSpaceOnUse">
<stop stop-color="#121A23"/>
<stop offset="1" stop-color="#121316"/>
</linearGradient>
<linearGradient id="paint7_linear_608_5764" x1="154.511" y1="310.179" x2="158.646" y2="329.509" gradientUnits="userSpaceOnUse">
<stop stop-color="#FFBF63"/>
<stop offset="1" stop-color="#FFB979" stop-opacity="0.42"/>
</linearGradient>
<linearGradient id="paint8_linear_608_5764" x1="149.735" y1="313.765" x2="153.871" y2="333.095" gradientUnits="userSpaceOnUse">
<stop stop-color="#FFBF63"/>
<stop offset="1" stop-color="#FFB979" stop-opacity="0.42"/>
</linearGradient>
<linearGradient id="paint9_linear_608_5764" x1="149.093" y1="297.764" x2="149.093" y2="329.509" gradientUnits="userSpaceOnUse">
<stop stop-color="#FFBF63"/>
<stop offset="1" stop-color="#FFB979"/>
</linearGradient>
<clipPath id="clip0_608_5764">
<rect x="44" y="3" width="397" height="104" rx="18" fill="white"/>
</clipPath>
<clipPath id="clip1_608_5764">
<rect x="105" y="132.058" width="397" height="104" rx="18" fill="white"/>
</clipPath>
<clipPath id="clip2_608_5764">
<rect x="50" y="261.115" width="397" height="104" rx="18" fill="white"/>
</clipPath>
</defs>
</svg>
