<svg width="548" height="496" viewBox="0 0 548 496" fill="none" xmlns="http://www.w3.org/2000/svg">
<rect x="0.75" width="547" height="496" rx="35" fill="#212328"/>
<rect x="0.75" width="547" height="496" rx="35" fill="url(#paint0_linear_732_15236)"/>
<g filter="url(#filter0_d_732_15236)">
<g clip-path="url(#clip0_732_15236)">
<rect x="62.2188" y="61.4316" width="397" height="104" rx="18" fill="url(#paint1_linear_732_15236)"/>
<line opacity="0.4" x1="120.775" y1="61.4316" x2="120.775" y2="167.607" stroke="#29292D"/>
<g clip-path="url(#clip1_732_15236)">
<path d="M163.789 108.11H169.263V98.9858C169.263 95.9635 166.811 93.5115 163.789 93.5115H147.366C144.343 93.5115 141.891 95.9635 141.891 98.9858V108.11C141.891 110.897 143.987 113.238 146.756 113.552L147.64 113.652L147.558 114.543C147.469 115.483 147.209 116.26 146.778 116.852C146.667 117.009 146.795 117.223 146.984 117.205C148.381 117.048 150.58 116.289 151.486 114.143L151.724 113.584H156.732C157.544 110.44 160.396 108.11 163.789 108.11ZM156.489 108.11V109.022C156.489 109.524 156.08 109.934 155.577 109.934C155.075 109.934 154.665 109.524 154.665 109.022V108.11H151.928C151.425 108.11 151.015 107.7 151.015 107.197C151.015 106.695 151.425 106.285 151.928 106.285H154.665V104.46H153.752C152.245 104.46 151.015 103.23 151.015 101.723C151.015 100.215 152.245 98.9858 153.752 98.9858H154.665V98.0734C154.665 97.5709 155.075 97.161 155.577 97.161C156.08 97.161 156.489 97.5709 156.489 98.0734V98.9858H159.227C159.729 98.9858 160.139 99.3956 160.139 99.8981C160.139 100.401 159.729 100.811 159.227 100.811H156.489V102.635H157.402C158.909 102.635 160.139 103.865 160.139 105.372C160.139 106.88 158.909 108.11 157.402 108.11H156.489ZM153.752 100.811H154.665V102.635H153.752C153.25 102.635 152.84 102.225 152.84 101.723C152.84 101.22 153.25 100.811 153.752 100.811ZM158.314 105.372C158.314 105.875 157.904 106.285 157.402 106.285H156.489V104.46H157.402C157.904 104.46 158.314 104.87 158.314 105.372Z" fill="url(#paint2_linear_732_15236)"/>
<path fill-rule="evenodd" clip-rule="evenodd" d="M180.21 109.934H163.788C160.769 109.934 158.313 112.39 158.313 115.409V124.532C158.313 127.551 160.769 130.007 163.788 130.007H175.848L176.087 130.563C176.999 132.708 179.188 133.474 180.585 133.628C180.777 133.646 180.913 133.428 180.795 133.271C180.367 132.68 180.1 131.903 180.018 130.962L179.936 130.067L180.82 129.968C183.593 129.658 185.681 127.323 185.681 124.54L185.685 115.409C185.685 112.39 183.229 109.934 180.21 109.934ZM176.561 121.795C176.561 120.291 175.328 119.058 173.824 119.058H172.911V117.233H175.648C176.151 117.233 176.561 116.824 176.561 116.321C176.561 115.818 176.151 115.409 175.648 115.409H172.911V114.496C172.911 113.994 172.501 113.584 171.999 113.584C171.496 113.584 171.087 113.994 171.087 114.496V115.409H170.174C168.67 115.409 167.437 116.642 167.437 118.146C167.437 119.65 168.67 120.883 170.174 120.883H171.087V122.708H168.349C167.847 122.708 167.437 123.118 167.437 123.62C167.437 124.123 167.847 124.532 168.349 124.532H171.087V125.445C171.087 125.947 171.496 126.357 171.999 126.357C172.501 126.357 172.911 125.947 172.911 125.445V124.532H173.824C175.328 124.532 176.561 123.299 176.561 121.795ZM170.174 117.233H171.087V119.058H170.174C169.672 119.058 169.262 118.648 169.262 118.146C169.262 117.643 169.672 117.233 170.174 117.233ZM172.911 120.883H173.824C174.326 120.883 174.736 121.293 174.736 121.795C174.736 122.298 174.326 122.708 173.824 122.708H172.911V120.883Z" fill="url(#paint3_linear_732_15236)"/>
</g>
<path d="M212.942 105.932H205.678V94.2356H212.942V96.1236H207.006L207.726 95.4676V99.1316H212.398V100.94H207.726V104.7L207.006 104.044H212.942V105.932ZM216.81 105.932H214.858V98.0276H216.666L216.826 99.0516C217.072 98.657 217.418 98.3476 217.866 98.1236C218.325 97.8996 218.821 97.7876 219.354 97.7876C220.346 97.7876 221.093 98.081 221.594 98.6676C222.106 99.2543 222.362 100.054 222.362 101.068V105.932H220.41V101.532C220.41 100.87 220.261 100.38 219.962 100.06C219.664 99.729 219.258 99.5636 218.746 99.5636C218.138 99.5636 217.664 99.7556 217.322 100.14C216.981 100.524 216.81 101.036 216.81 101.676V105.932ZM223.832 101.804C223.832 101.036 223.987 100.353 224.296 99.7556C224.616 99.1476 225.059 98.6676 225.624 98.3156C226.19 97.9636 226.846 97.7876 227.592 97.7876C228.264 97.7876 228.84 97.937 229.32 98.2356C229.8 98.5236 230.136 98.929 230.328 99.4516L230.12 99.6276L230.28 98.0276H232.088V105.532C232.088 106.406 231.918 107.164 231.576 107.804C231.246 108.454 230.771 108.95 230.152 109.292C229.544 109.644 228.808 109.82 227.944 109.82C226.814 109.82 225.886 109.516 225.16 108.908C224.435 108.3 224.008 107.468 223.88 106.412H225.832C225.896 106.924 226.11 107.324 226.472 107.612C226.846 107.9 227.336 108.044 227.944 108.044C228.616 108.044 229.15 107.846 229.544 107.452C229.95 107.068 230.152 106.545 230.152 105.884V103.916L230.376 104.124C230.184 104.625 229.832 105.025 229.32 105.324C228.808 105.622 228.216 105.772 227.544 105.772C226.798 105.772 226.147 105.601 225.592 105.26C225.038 104.918 224.606 104.449 224.296 103.852C223.987 103.254 223.832 102.572 223.832 101.804ZM225.8 101.756C225.8 102.204 225.886 102.604 226.056 102.956C226.238 103.297 226.488 103.569 226.808 103.772C227.128 103.974 227.502 104.076 227.928 104.076C228.376 104.076 228.76 103.98 229.08 103.788C229.411 103.585 229.662 103.313 229.832 102.972C230.014 102.62 230.104 102.214 230.104 101.756C230.104 101.297 230.019 100.902 229.848 100.572C229.678 100.23 229.427 99.9636 229.096 99.7716C228.776 99.5796 228.387 99.4836 227.928 99.4836C227.491 99.4836 227.112 99.585 226.792 99.7876C226.472 99.9796 226.227 100.246 226.056 100.588C225.886 100.929 225.8 101.318 225.8 101.756ZM236.076 105.932H234.14V94.0276H236.076V105.932ZM238.124 105.932V98.0276H240.076V105.932H238.124ZM239.084 96.4436C238.753 96.4436 238.471 96.3316 238.236 96.1076C238.012 95.873 237.9 95.5903 237.9 95.2596C237.9 94.929 238.012 94.6516 238.236 94.4276C238.471 94.2036 238.753 94.0916 239.084 94.0916C239.415 94.0916 239.692 94.2036 239.916 94.4276C240.151 94.6516 240.268 94.929 240.268 95.2596C240.268 95.5903 240.151 95.873 239.916 96.1076C239.692 96.3316 239.415 96.4436 239.084 96.4436ZM241.485 103.532H243.341C243.351 103.873 243.479 104.145 243.725 104.348C243.97 104.55 244.311 104.652 244.749 104.652C245.218 104.652 245.57 104.566 245.805 104.396C246.05 104.225 246.173 103.996 246.173 103.708C246.173 103.516 246.109 103.345 245.981 103.196C245.853 103.046 245.613 102.934 245.261 102.86L243.837 102.524C243.122 102.364 242.589 102.108 242.237 101.756C241.895 101.393 241.725 100.897 241.725 100.268C241.725 99.7556 241.858 99.313 242.125 98.9396C242.402 98.5663 242.775 98.2836 243.245 98.0916C243.714 97.889 244.253 97.7876 244.861 97.7876C245.447 97.7876 245.965 97.8943 246.413 98.1076C246.861 98.321 247.207 98.6196 247.453 99.0036C247.709 99.3876 247.842 99.8356 247.853 100.348H245.997C245.997 100.006 245.89 99.7396 245.677 99.5476C245.463 99.345 245.165 99.2436 244.781 99.2436C244.397 99.2436 244.098 99.329 243.885 99.4996C243.671 99.6703 243.565 99.8996 243.565 100.188C243.565 100.625 243.906 100.924 244.589 101.084L246.013 101.42C246.674 101.569 247.17 101.809 247.501 102.14C247.842 102.47 248.013 102.94 248.013 103.548C248.013 104.081 247.874 104.545 247.597 104.94C247.319 105.324 246.93 105.622 246.429 105.836C245.927 106.038 245.351 106.14 244.701 106.14C243.719 106.14 242.935 105.9 242.349 105.42C241.773 104.94 241.485 104.31 241.485 103.532ZM251.451 105.932H249.499V94.0276H251.467V99.0516C251.712 98.6676 252.054 98.3636 252.491 98.1396C252.939 97.905 253.451 97.7876 254.027 97.7876C254.998 97.7876 255.734 98.081 256.235 98.6676C256.747 99.2543 257.003 100.054 257.003 101.068V105.932H255.051V101.532C255.051 101.084 254.982 100.716 254.843 100.428C254.704 100.14 254.512 99.9263 254.267 99.7876C254.022 99.6383 253.734 99.5636 253.403 99.5636C252.998 99.5636 252.646 99.6543 252.347 99.8356C252.059 100.006 251.835 100.246 251.675 100.556C251.526 100.865 251.451 101.217 251.451 101.612V105.932ZM264.513 105.932H262.401L266.625 94.2356H268.721L272.945 105.932H270.785L269.841 103.228H265.473L264.513 105.932ZM267.409 97.7236L266.065 101.5H269.249L267.905 97.7236C267.863 97.5636 267.815 97.4036 267.761 97.2436C267.708 97.0836 267.676 96.945 267.665 96.8276C267.644 96.9343 267.607 97.073 267.553 97.2436C267.511 97.4036 267.463 97.5636 267.409 97.7236ZM279.171 98.0276H281.123V105.932H279.315L279.171 104.876C278.937 105.249 278.585 105.553 278.115 105.788C277.646 106.022 277.145 106.14 276.611 106.14C275.705 106.14 274.995 105.852 274.483 105.276C273.971 104.7 273.715 103.932 273.715 102.972V98.0276H275.667V102.284C275.667 103.03 275.811 103.569 276.099 103.9C276.387 104.23 276.803 104.396 277.347 104.396C277.966 104.396 278.425 104.214 278.723 103.852C279.022 103.478 279.171 102.918 279.171 102.172V98.0276ZM282.519 101.964C282.519 101.153 282.685 100.433 283.015 99.8036C283.357 99.1743 283.821 98.6836 284.407 98.3316C285.005 97.969 285.693 97.7876 286.471 97.7876C287.549 97.7876 288.429 98.0703 289.111 98.6356C289.805 99.1903 290.205 99.9423 290.311 100.892H288.359C288.242 100.444 288.023 100.108 287.703 99.8836C287.394 99.649 287.005 99.5316 286.535 99.5316C286.13 99.5316 285.767 99.633 285.447 99.8356C285.138 100.028 284.898 100.305 284.727 100.668C284.557 101.03 284.471 101.462 284.471 101.964C284.471 102.465 284.551 102.897 284.711 103.26C284.871 103.622 285.101 103.905 285.399 104.108C285.709 104.3 286.071 104.396 286.487 104.396C286.978 104.396 287.383 104.278 287.703 104.044C288.034 103.809 288.253 103.473 288.359 103.036H290.327C290.242 103.654 290.023 104.198 289.671 104.668C289.33 105.126 288.887 105.489 288.343 105.756C287.799 106.012 287.181 106.14 286.487 106.14C285.687 106.14 284.989 105.969 284.391 105.628C283.794 105.276 283.33 104.79 282.999 104.172C282.679 103.542 282.519 102.806 282.519 101.964ZM290.996 98.0276H295.988V99.6596H290.996V98.0276ZM294.468 105.932H292.516V95.5636H294.468V105.932ZM297.218 105.932V98.0276H299.17V105.932H297.218ZM298.178 96.4436C297.847 96.4436 297.564 96.3316 297.33 96.1076C297.106 95.873 296.994 95.5903 296.994 95.2596C296.994 94.929 297.106 94.6516 297.33 94.4276C297.564 94.2036 297.847 94.0916 298.178 94.0916C298.508 94.0916 298.786 94.2036 299.01 94.4276C299.244 94.6516 299.362 94.929 299.362 95.2596C299.362 95.5903 299.244 95.873 299.01 96.1076C298.786 96.3316 298.508 96.4436 298.178 96.4436ZM300.722 101.964C300.722 101.142 300.904 100.422 301.266 99.8036C301.629 99.1743 302.13 98.6836 302.77 98.3316C303.41 97.9796 304.136 97.8036 304.946 97.8036C305.768 97.8036 306.493 97.9796 307.122 98.3316C307.762 98.6836 308.264 99.1743 308.626 99.8036C308.989 100.422 309.17 101.142 309.17 101.964C309.17 102.785 308.989 103.51 308.626 104.14C308.264 104.758 307.762 105.244 307.122 105.596C306.493 105.948 305.768 106.124 304.946 106.124C304.136 106.124 303.41 105.948 302.77 105.596C302.13 105.244 301.629 104.758 301.266 104.14C300.904 103.51 300.722 102.785 300.722 101.964ZM302.674 101.964C302.674 102.444 302.77 102.865 302.962 103.228C303.165 103.59 303.432 103.873 303.762 104.076C304.104 104.278 304.498 104.38 304.946 104.38C305.394 104.38 305.789 104.278 306.13 104.076C306.472 103.873 306.738 103.59 306.93 103.228C307.122 102.865 307.218 102.444 307.218 101.964C307.218 101.473 307.122 101.052 306.93 100.7C306.738 100.337 306.472 100.054 306.13 99.8516C305.789 99.649 305.394 99.5476 304.946 99.5476C304.498 99.5476 304.104 99.649 303.762 99.8516C303.432 100.054 303.165 100.337 302.962 100.7C302.77 101.052 302.674 101.473 302.674 101.964ZM312.67 105.932H310.718V98.0276H312.526L312.686 99.0516C312.931 98.657 313.278 98.3476 313.726 98.1236C314.184 97.8996 314.68 97.7876 315.214 97.7876C316.206 97.7876 316.952 98.081 317.454 98.6676C317.966 99.2543 318.222 100.054 318.222 101.068V105.932H316.27V101.532C316.27 100.87 316.12 100.38 315.822 100.06C315.523 99.729 315.118 99.5636 314.606 99.5636C313.998 99.5636 313.523 99.7556 313.182 100.14C312.84 100.524 312.67 101.036 312.67 101.676V105.932Z" fill="#E5ECF1"/>
<rect x="204.382" y="118.932" width="233.64" height="5" rx="2.5" fill="#DAFFEE" fill-opacity="0.06"/>
<rect x="204.382" y="132.932" width="166.595" height="5" rx="2.5" fill="#DAFFEE" fill-opacity="0.06"/>
<rect x="78.7188" y="100.432" width="24" height="24" rx="8.5" stroke="#44444A"/>
<rect x="85.5" y="107.165" width="10" height="10" rx="3" fill="url(#paint4_linear_732_15236)"/>
</g>
</g>
<g filter="url(#filter1_d_732_15236)">
<g clip-path="url(#clip2_732_15236)">
<rect x="123.219" y="190.489" width="397" height="104" rx="18" fill="url(#paint5_linear_732_15236)"/>
<line opacity="0.4" x1="181.775" y1="190.489" x2="181.775" y2="296.665" stroke="#29292D"/>
<path d="M216.012 224.594C218.778 226.191 216.383 230.338 213.617 228.743C210.853 227.145 213.248 222.997 216.012 224.594Z" fill="#909BFF"/>
<path d="M202.219 242.489C202.219 247.571 204.237 252.442 207.829 256.036C211.423 259.628 216.294 261.646 221.376 261.646C226.457 261.646 231.329 259.628 234.923 256.036C238.515 252.442 240.533 247.571 240.533 242.489C240.533 237.408 238.515 232.537 234.923 228.942C231.329 225.35 226.457 223.332 221.376 223.332H218.981V228.122H221.376C225.185 228.122 228.84 229.635 231.534 232.331C234.231 235.025 235.744 238.68 235.744 242.489C235.744 246.299 234.231 249.954 231.534 252.648C228.84 255.344 225.186 256.857 221.376 256.857C217.566 256.857 213.911 255.344 211.217 252.648C208.521 249.954 207.008 246.299 207.008 242.489V240.095H202.219L202.219 242.489Z" fill="url(#paint6_angular_732_15236)"/>
<path opacity="0.6" d="M208.455 231.411C211.221 233.008 208.827 237.157 206.06 235.56C203.296 233.963 205.691 229.816 208.455 231.411Z" fill="#909BFF"/>
<path d="M221.375 246.082C222.011 246.082 222.619 245.829 223.068 245.38C223.517 244.931 223.77 244.323 223.77 243.687V234.108H218.981V243.687C218.981 244.323 219.233 244.931 219.682 245.38C220.131 245.829 220.739 246.082 221.375 246.082Z" fill="#909BFF"/>
<path d="M264.773 235.181C263.632 235.181 262.64 234.936 261.797 234.445C260.965 233.944 260.314 233.245 259.845 232.349C259.386 231.443 259.157 230.376 259.157 229.149C259.157 227.933 259.392 226.872 259.861 225.965C260.341 225.059 261.013 224.355 261.877 223.853C262.741 223.352 263.738 223.101 264.869 223.101C265.797 223.101 266.629 223.272 267.365 223.613C268.101 223.955 268.709 224.435 269.189 225.053C269.669 225.661 269.973 226.387 270.101 227.229H267.941C267.738 226.547 267.36 226.019 266.805 225.645C266.261 225.261 265.594 225.069 264.805 225.069C264.101 225.069 263.482 225.235 262.949 225.565C262.426 225.896 262.021 226.365 261.733 226.973C261.445 227.581 261.301 228.307 261.301 229.149C261.301 229.96 261.445 230.675 261.733 231.293C262.021 231.901 262.426 232.376 262.949 232.717C263.482 233.048 264.101 233.213 264.805 233.213C265.605 233.213 266.288 233.021 266.853 232.637C267.429 232.253 267.813 231.736 268.005 231.085H270.133C269.984 231.896 269.658 232.611 269.157 233.229C268.666 233.848 268.042 234.328 267.285 234.669C266.538 235.011 265.701 235.181 264.773 235.181ZM273.877 235.197C273.045 235.197 272.384 234.973 271.893 234.525C271.413 234.067 271.173 233.469 271.173 232.733C271.173 232.008 271.424 231.432 271.925 231.005C272.437 230.568 273.163 230.312 274.101 230.237L276.469 230.045V229.869C276.469 229.507 276.4 229.219 276.261 229.005C276.133 228.781 275.947 228.621 275.701 228.525C275.456 228.419 275.168 228.365 274.837 228.365C274.261 228.365 273.819 228.483 273.509 228.717C273.2 228.941 273.045 229.261 273.045 229.677H271.381C271.381 229.101 271.525 228.605 271.813 228.189C272.112 227.763 272.528 227.432 273.061 227.197C273.605 226.963 274.229 226.845 274.933 226.845C275.648 226.845 276.261 226.973 276.773 227.229C277.285 227.475 277.68 227.848 277.957 228.349C278.235 228.84 278.373 229.453 278.373 230.189V234.989H276.661L276.517 233.821C276.347 234.227 276.016 234.557 275.525 234.813C275.045 235.069 274.496 235.197 273.877 235.197ZM274.501 233.725C275.109 233.725 275.589 233.555 275.941 233.213C276.304 232.872 276.485 232.397 276.485 231.789V231.373L274.837 231.501C274.229 231.555 273.797 231.683 273.541 231.885C273.285 232.077 273.157 232.333 273.157 232.653C273.157 233.005 273.275 233.272 273.509 233.453C273.744 233.635 274.075 233.725 274.501 233.725ZM282.243 234.989H280.291V227.085H282.099L282.259 228.109C282.504 227.715 282.851 227.405 283.299 227.181C283.758 226.957 284.254 226.845 284.787 226.845C285.779 226.845 286.526 227.139 287.027 227.725C287.539 228.312 287.795 229.112 287.795 230.125V234.989H285.843V230.589C285.843 229.928 285.694 229.437 285.395 229.117C285.096 228.787 284.691 228.621 284.179 228.621C283.571 228.621 283.096 228.813 282.755 229.197C282.414 229.581 282.243 230.093 282.243 230.733V234.989ZM292.961 235.197C292.193 235.197 291.532 235.027 290.977 234.685C290.433 234.333 290.006 233.848 289.697 233.229C289.398 232.611 289.249 231.891 289.249 231.069C289.249 230.248 289.398 229.523 289.697 228.893C290.006 228.253 290.449 227.752 291.025 227.389C291.601 227.027 292.284 226.845 293.073 226.845C293.628 226.845 294.134 226.957 294.593 227.181C295.052 227.395 295.404 227.699 295.649 228.093V223.085H297.585V234.989H295.793L295.665 233.757C295.43 234.205 295.068 234.557 294.577 234.813C294.097 235.069 293.558 235.197 292.961 235.197ZM293.393 233.405C293.852 233.405 294.246 233.309 294.577 233.117C294.908 232.915 295.164 232.632 295.345 232.269C295.537 231.896 295.633 231.475 295.633 231.005C295.633 230.525 295.537 230.109 295.345 229.757C295.164 229.395 294.908 229.112 294.577 228.909C294.246 228.696 293.852 228.589 293.393 228.589C292.945 228.589 292.556 228.696 292.225 228.909C291.894 229.112 291.638 229.395 291.457 229.757C291.286 230.12 291.201 230.536 291.201 231.005C291.201 231.475 291.286 231.891 291.457 232.253C291.638 232.616 291.894 232.899 292.225 233.101C292.556 233.304 292.945 233.405 293.393 233.405ZM301.587 234.989H299.651V223.085H301.587V234.989ZM307.171 235.197C306.392 235.197 305.699 235.021 305.091 234.669C304.493 234.307 304.024 233.816 303.683 233.197C303.341 232.568 303.171 231.848 303.171 231.037C303.171 230.216 303.336 229.491 303.667 228.861C303.997 228.232 304.461 227.741 305.059 227.389C305.656 227.027 306.339 226.845 307.107 226.845C307.907 226.845 308.595 227.016 309.171 227.357C309.747 227.688 310.189 228.152 310.499 228.749C310.819 229.347 310.979 230.061 310.979 230.893V231.485L304.195 231.501L304.227 230.253H309.043C309.043 229.709 308.867 229.272 308.515 228.941C308.173 228.611 307.709 228.445 307.123 228.445C306.664 228.445 306.275 228.541 305.955 228.733C305.645 228.925 305.411 229.213 305.251 229.597C305.091 229.981 305.011 230.451 305.011 231.005C305.011 231.859 305.192 232.504 305.555 232.941C305.928 233.379 306.477 233.597 307.203 233.597C307.736 233.597 308.173 233.496 308.515 233.293C308.867 233.091 309.096 232.803 309.203 232.429H311.011C310.84 233.293 310.413 233.971 309.731 234.461C309.059 234.952 308.205 235.197 307.171 235.197ZM318.133 234.989H316.021L320.245 223.293H322.341L326.565 234.989H324.405L323.461 232.285H319.093L318.133 234.989ZM321.029 226.781L319.685 230.557H322.869L321.525 226.781C321.483 226.621 321.435 226.461 321.381 226.301C321.328 226.141 321.296 226.003 321.285 225.885C321.264 225.992 321.227 226.131 321.173 226.301C321.131 226.461 321.083 226.621 321.029 226.781ZM332.792 227.085H334.744V234.989H332.936L332.792 233.933C332.557 234.307 332.205 234.611 331.736 234.845C331.266 235.08 330.765 235.197 330.232 235.197C329.325 235.197 328.616 234.909 328.104 234.333C327.592 233.757 327.336 232.989 327.336 232.029V227.085H329.288V231.341C329.288 232.088 329.432 232.627 329.72 232.957C330.008 233.288 330.424 233.453 330.968 233.453C331.586 233.453 332.045 233.272 332.344 232.909C332.642 232.536 332.792 231.976 332.792 231.229V227.085ZM336.139 231.021C336.139 230.211 336.305 229.491 336.635 228.861C336.977 228.232 337.441 227.741 338.027 227.389C338.625 227.027 339.313 226.845 340.091 226.845C341.169 226.845 342.049 227.128 342.731 227.693C343.425 228.248 343.825 229 343.931 229.949H341.979C341.862 229.501 341.643 229.165 341.323 228.941C341.014 228.707 340.625 228.589 340.155 228.589C339.75 228.589 339.387 228.691 339.067 228.893C338.758 229.085 338.518 229.363 338.347 229.725C338.177 230.088 338.091 230.52 338.091 231.021C338.091 231.523 338.171 231.955 338.331 232.317C338.491 232.68 338.721 232.963 339.019 233.165C339.329 233.357 339.691 233.453 340.107 233.453C340.598 233.453 341.003 233.336 341.323 233.101C341.654 232.867 341.873 232.531 341.979 232.093H343.947C343.862 232.712 343.643 233.256 343.291 233.725C342.95 234.184 342.507 234.547 341.963 234.813C341.419 235.069 340.801 235.197 340.107 235.197C339.307 235.197 338.609 235.027 338.011 234.685C337.414 234.333 336.95 233.848 336.619 233.229C336.299 232.6 336.139 231.864 336.139 231.021ZM344.616 227.085H349.608V228.717H344.616V227.085ZM348.088 234.989H346.136V224.621H348.088V234.989ZM350.838 234.989V227.085H352.79V234.989H350.838ZM351.798 225.501C351.467 225.501 351.185 225.389 350.95 225.165C350.726 224.931 350.614 224.648 350.614 224.317C350.614 223.987 350.726 223.709 350.95 223.485C351.185 223.261 351.467 223.149 351.798 223.149C352.129 223.149 352.406 223.261 352.63 223.485C352.865 223.709 352.982 223.987 352.982 224.317C352.982 224.648 352.865 224.931 352.63 225.165C352.406 225.389 352.129 225.501 351.798 225.501ZM354.343 231.021C354.343 230.2 354.524 229.48 354.887 228.861C355.249 228.232 355.751 227.741 356.391 227.389C357.031 227.037 357.756 226.861 358.567 226.861C359.388 226.861 360.113 227.037 360.743 227.389C361.383 227.741 361.884 228.232 362.247 228.861C362.609 229.48 362.791 230.2 362.791 231.021C362.791 231.843 362.609 232.568 362.247 233.197C361.884 233.816 361.383 234.301 360.743 234.653C360.113 235.005 359.388 235.181 358.567 235.181C357.756 235.181 357.031 235.005 356.391 234.653C355.751 234.301 355.249 233.816 354.887 233.197C354.524 232.568 354.343 231.843 354.343 231.021ZM356.295 231.021C356.295 231.501 356.391 231.923 356.583 232.285C356.785 232.648 357.052 232.931 357.383 233.133C357.724 233.336 358.119 233.437 358.567 233.437C359.015 233.437 359.409 233.336 359.751 233.133C360.092 232.931 360.359 232.648 360.551 232.285C360.743 231.923 360.839 231.501 360.839 231.021C360.839 230.531 360.743 230.109 360.551 229.757C360.359 229.395 360.092 229.112 359.751 228.909C359.409 228.707 359.015 228.605 358.567 228.605C358.119 228.605 357.724 228.707 357.383 228.909C357.052 229.112 356.785 229.395 356.583 229.757C356.391 230.109 356.295 230.531 356.295 231.021ZM366.29 234.989H364.338V227.085H366.146L366.306 228.109C366.551 227.715 366.898 227.405 367.346 227.181C367.805 226.957 368.301 226.845 368.834 226.845C369.826 226.845 370.573 227.139 371.074 227.725C371.586 228.312 371.842 229.112 371.842 230.125V234.989H369.89V230.589C369.89 229.928 369.741 229.437 369.442 229.117C369.143 228.787 368.738 228.621 368.226 228.621C367.618 228.621 367.143 228.813 366.802 229.197C366.461 229.581 366.29 230.093 366.29 230.733V234.989Z" fill="#E5ECF1"/>
<rect x="258.533" y="247.989" width="233.64" height="5" rx="2.5" fill="#DAFFEE" fill-opacity="0.06"/>
<rect x="258.533" y="261.989" width="166.595" height="5" rx="2.5" fill="#DAFFEE" fill-opacity="0.06"/>
<rect x="139.719" y="229.489" width="24" height="24" rx="8.5" stroke="#44444A"/>
</g>
</g>
<g filter="url(#filter2_d_732_15236)">
<g clip-path="url(#clip3_732_15236)">
<rect x="68.2188" y="319.547" width="397" height="104" rx="18" fill="url(#paint7_linear_732_15236)"/>
<line opacity="0.4" x1="126.775" y1="319.547" x2="126.775" y2="425.722" stroke="#29292D"/>
<circle opacity="0.5" cx="176.865" cy="372.068" r="15.8726" fill="url(#paint8_linear_732_15236)"/>
<g filter="url(#filter3_b_732_15236)">
<circle cx="172.089" cy="375.654" r="15.8726" fill="url(#paint9_linear_732_15236)" fill-opacity="0.7"/>
</g>
<circle cx="167.312" cy="372.068" r="15.8726" fill="url(#paint10_linear_732_15236)"/>
<path d="M168.199 379.581V378.467C170.615 378.047 171.941 376.45 171.941 374.579C171.941 372.688 170.931 371.53 168.428 370.647C166.64 369.973 165.906 369.534 165.906 368.838C165.906 368.248 166.349 367.661 167.715 367.661C168.587 367.661 169.279 367.819 169.812 368.001C170.058 368.084 170.324 368.061 170.552 367.938C170.779 367.816 170.942 367.604 171.005 367.353L171.051 367.177C171.141 366.831 171.085 366.462 170.903 366.155C170.718 365.848 170.419 365.627 170.07 365.542C169.576 365.421 168.997 365.334 168.305 365.304L168.306 364.485C168.303 363.917 167.842 363.454 167.272 363.454C166.702 363.454 166.243 363.915 166.243 364.483V365.452C163.994 365.894 162.689 367.345 162.689 369.195C162.689 371.235 164.225 372.285 166.474 373.043C168.031 373.569 168.702 374.074 168.702 374.872C168.702 375.714 167.883 376.174 166.684 376.174C165.773 376.174 164.923 375.978 164.192 375.706C163.932 375.611 163.643 375.629 163.399 375.756C163.154 375.885 162.975 376.111 162.905 376.379L162.864 376.538C162.677 377.267 163.099 378.012 163.819 378.227C164.508 378.434 165.314 378.577 166.137 378.614V379.581C166.137 380.15 166.598 380.612 167.168 380.612C167.738 380.612 168.199 380.151 168.199 379.581L168.199 379.581Z" fill="#131920"/>
<path d="M219.613 353.327V364.047H217.565V353.327H219.613ZM214.141 354.239V352.351H223.037V354.239H214.141ZM222.507 360.079C222.507 359.258 222.688 358.538 223.051 357.919C223.414 357.29 223.915 356.799 224.555 356.447C225.195 356.095 225.92 355.919 226.731 355.919C227.552 355.919 228.278 356.095 228.907 356.447C229.547 356.799 230.048 357.29 230.411 357.919C230.774 358.538 230.955 359.258 230.955 360.079C230.955 360.9 230.774 361.626 230.411 362.255C230.048 362.874 229.547 363.359 228.907 363.711C228.278 364.063 227.552 364.239 226.731 364.239C225.92 364.239 225.195 364.063 224.555 363.711C223.915 363.359 223.414 362.874 223.051 362.255C222.688 361.626 222.507 360.9 222.507 360.079ZM224.459 360.079C224.459 360.559 224.555 360.98 224.747 361.343C224.95 361.706 225.216 361.988 225.547 362.191C225.888 362.394 226.283 362.495 226.731 362.495C227.179 362.495 227.574 362.394 227.915 362.191C228.256 361.988 228.523 361.706 228.715 361.343C228.907 360.98 229.003 360.559 229.003 360.079C229.003 359.588 228.907 359.167 228.715 358.815C228.523 358.452 228.256 358.17 227.915 357.967C227.574 357.764 227.179 357.663 226.731 357.663C226.283 357.663 225.888 357.764 225.547 357.967C225.216 358.17 224.95 358.452 224.747 358.815C224.555 359.167 224.459 359.588 224.459 360.079ZM232.502 367.711V356.143H234.31L234.438 357.343C234.673 356.884 235.036 356.532 235.526 356.287C236.017 356.031 236.556 355.903 237.142 355.903C237.9 355.903 238.55 356.074 239.094 356.415C239.649 356.756 240.081 357.231 240.39 357.839C240.7 358.447 240.854 359.167 240.854 359.999C240.854 360.82 240.71 361.551 240.422 362.191C240.134 362.831 239.713 363.338 239.158 363.711C238.614 364.074 237.948 364.255 237.158 364.255C236.572 364.255 236.033 364.143 235.542 363.919C235.062 363.695 234.7 363.386 234.454 362.991V367.711H232.502ZM234.47 360.095C234.47 360.564 234.561 360.98 234.742 361.343C234.924 361.706 235.18 361.994 235.51 362.207C235.852 362.41 236.246 362.511 236.694 362.511C237.153 362.511 237.548 362.41 237.878 362.207C238.209 361.994 238.46 361.706 238.63 361.343C238.801 360.98 238.886 360.564 238.886 360.095C238.886 359.626 238.801 359.21 238.63 358.847C238.46 358.484 238.209 358.202 237.878 357.999C237.548 357.786 237.153 357.679 236.694 357.679C236.246 357.679 235.852 357.78 235.51 357.983C235.18 358.186 234.924 358.468 234.742 358.831C234.561 359.194 234.47 359.615 234.47 360.095ZM242.393 360.639V358.911H247.545V360.639H242.393ZM249.742 359.775V352.351H251.79V359.647C251.79 360.49 252.014 361.135 252.462 361.583C252.91 362.031 253.544 362.255 254.366 362.255C255.198 362.255 255.838 362.031 256.286 361.583C256.734 361.124 256.958 360.479 256.958 359.647V352.351H259.006V359.775C259.006 360.682 258.814 361.471 258.43 362.143C258.056 362.804 257.523 363.322 256.83 363.695C256.136 364.058 255.315 364.239 254.366 364.239C253.427 364.239 252.611 364.058 251.918 363.695C251.224 363.332 250.686 362.815 250.302 362.143C249.928 361.471 249.742 360.682 249.742 359.775ZM261.237 367.711V356.143H263.045L263.173 357.343C263.407 356.884 263.77 356.532 264.261 356.287C264.751 356.031 265.29 355.903 265.877 355.903C266.634 355.903 267.285 356.074 267.829 356.415C268.383 356.756 268.815 357.231 269.125 357.839C269.434 358.447 269.589 359.167 269.589 359.999C269.589 360.82 269.445 361.551 269.157 362.191C268.869 362.831 268.447 363.338 267.893 363.711C267.349 364.074 266.682 364.255 265.893 364.255C265.306 364.255 264.767 364.143 264.277 363.919C263.797 363.695 263.434 363.386 263.189 362.991V367.711H261.237ZM263.205 360.095C263.205 360.564 263.295 360.98 263.477 361.343C263.658 361.706 263.914 361.994 264.245 362.207C264.586 362.41 264.981 362.511 265.429 362.511C265.887 362.511 266.282 362.41 266.613 362.207C266.943 361.994 267.194 361.706 267.365 361.343C267.535 360.98 267.621 360.564 267.621 360.095C267.621 359.626 267.535 359.21 267.365 358.847C267.194 358.484 266.943 358.202 266.613 357.999C266.282 357.786 265.887 357.679 265.429 357.679C264.981 357.679 264.586 357.78 264.245 357.983C263.914 358.186 263.658 358.468 263.477 358.831C263.295 359.194 263.205 359.615 263.205 360.095ZM276.736 364.047H274.624L278.848 352.351H280.944L285.168 364.047H283.008L282.064 361.343H277.696L276.736 364.047ZM279.632 355.839L278.288 359.615H281.472L280.128 355.839C280.085 355.679 280.037 355.519 279.984 355.359C279.93 355.199 279.898 355.06 279.888 354.943C279.866 355.05 279.829 355.188 279.776 355.359C279.733 355.519 279.685 355.679 279.632 355.839ZM291.394 356.143H293.346V364.047H291.538L291.394 362.991C291.159 363.364 290.807 363.668 290.338 363.903C289.868 364.138 289.367 364.255 288.834 364.255C287.927 364.255 287.218 363.967 286.706 363.391C286.194 362.815 285.938 362.047 285.938 361.087V356.143H287.89V360.399C287.89 361.146 288.034 361.684 288.322 362.015C288.61 362.346 289.026 362.511 289.57 362.511C290.188 362.511 290.647 362.33 290.946 361.967C291.244 361.594 291.394 361.034 291.394 360.287V356.143ZM294.742 360.079C294.742 359.268 294.907 358.548 295.238 357.919C295.579 357.29 296.043 356.799 296.63 356.447C297.227 356.084 297.915 355.903 298.694 355.903C299.771 355.903 300.651 356.186 301.334 356.751C302.027 357.306 302.427 358.058 302.534 359.007H300.582C300.464 358.559 300.246 358.223 299.926 357.999C299.616 357.764 299.227 357.647 298.758 357.647C298.352 357.647 297.99 357.748 297.67 357.951C297.36 358.143 297.12 358.42 296.95 358.783C296.779 359.146 296.694 359.578 296.694 360.079C296.694 360.58 296.774 361.012 296.934 361.375C297.094 361.738 297.323 362.02 297.622 362.223C297.931 362.415 298.294 362.511 298.71 362.511C299.2 362.511 299.606 362.394 299.926 362.159C300.256 361.924 300.475 361.588 300.582 361.151H302.55C302.464 361.77 302.246 362.314 301.894 362.783C301.552 363.242 301.11 363.604 300.566 363.871C300.022 364.127 299.403 364.255 298.71 364.255C297.91 364.255 297.211 364.084 296.614 363.743C296.016 363.391 295.552 362.906 295.222 362.287C294.902 361.658 294.742 360.922 294.742 360.079ZM303.218 356.143H308.21V357.775H303.218V356.143ZM306.69 364.047H304.738V353.679H306.69V364.047ZM309.44 364.047V356.143H311.392V364.047H309.44ZM310.4 354.559C310.069 354.559 309.787 354.447 309.552 354.223C309.328 353.988 309.216 353.706 309.216 353.375C309.216 353.044 309.328 352.767 309.552 352.543C309.787 352.319 310.069 352.207 310.4 352.207C310.731 352.207 311.008 352.319 311.232 352.543C311.467 352.767 311.584 353.044 311.584 353.375C311.584 353.706 311.467 353.988 311.232 354.223C311.008 354.447 310.731 354.559 310.4 354.559ZM312.945 360.079C312.945 359.258 313.126 358.538 313.489 357.919C313.851 357.29 314.353 356.799 314.993 356.447C315.633 356.095 316.358 355.919 317.169 355.919C317.99 355.919 318.715 356.095 319.345 356.447C319.985 356.799 320.486 357.29 320.849 357.919C321.211 358.538 321.393 359.258 321.393 360.079C321.393 360.9 321.211 361.626 320.849 362.255C320.486 362.874 319.985 363.359 319.345 363.711C318.715 364.063 317.99 364.239 317.169 364.239C316.358 364.239 315.633 364.063 314.993 363.711C314.353 363.359 313.851 362.874 313.489 362.255C313.126 361.626 312.945 360.9 312.945 360.079ZM314.897 360.079C314.897 360.559 314.993 360.98 315.185 361.343C315.387 361.706 315.654 361.988 315.985 362.191C316.326 362.394 316.721 362.495 317.169 362.495C317.617 362.495 318.011 362.394 318.353 362.191C318.694 361.988 318.961 361.706 319.153 361.343C319.345 360.98 319.441 360.559 319.441 360.079C319.441 359.588 319.345 359.167 319.153 358.815C318.961 358.452 318.694 358.17 318.353 357.967C318.011 357.764 317.617 357.663 317.169 357.663C316.721 357.663 316.326 357.764 315.985 357.967C315.654 358.17 315.387 358.452 315.185 358.815C314.993 359.167 314.897 359.588 314.897 360.079ZM324.892 364.047H322.94V356.143H324.748L324.908 357.167C325.153 356.772 325.5 356.463 325.948 356.239C326.407 356.015 326.903 355.903 327.436 355.903C328.428 355.903 329.175 356.196 329.676 356.783C330.188 357.37 330.444 358.17 330.444 359.183V364.047H328.492V359.647C328.492 358.986 328.343 358.495 328.044 358.175C327.745 357.844 327.34 357.679 326.828 357.679C326.22 357.679 325.745 357.871 325.404 358.255C325.063 358.639 324.892 359.151 324.892 359.791V364.047Z" fill="#E5ECF1"/>
<rect x="213.869" y="377.047" width="233.64" height="5" rx="2.5" fill="#DAFFEE" fill-opacity="0.06"/>
<rect x="213.869" y="391.047" width="166.595" height="5" rx="2.5" fill="#DAFFEE" fill-opacity="0.06"/>
<rect x="84.7188" y="358.547" width="24" height="24" rx="8.5" stroke="#44444A"/>
</g>
</g>
<defs>
<filter id="filter0_d_732_15236" x="19.115" y="58.5932" width="452.337" height="159.337" filterUnits="userSpaceOnUse" color-interpolation-filters="sRGB">
<feFlood flood-opacity="0" result="BackgroundImageFix"/>
<feColorMatrix in="SourceAlpha" type="matrix" values="0 0 0 0 0 0 0 0 0 0 0 0 0 0 0 0 0 0 127 0" result="hardAlpha"/>
<feOffset dx="-15.435" dy="24.8302"/>
<feGaussianBlur stdDeviation="13.8343"/>
<feComposite in2="hardAlpha" operator="out"/>
<feColorMatrix type="matrix" values="0 0 0 0 0 0 0 0 0 0 0 0 0 0 0 0 0 0 0.26 0"/>
<feBlend mode="normal" in2="BackgroundImageFix" result="effect1_dropShadow_732_15236"/>
<feBlend mode="normal" in="SourceGraphic" in2="effect1_dropShadow_732_15236" result="shape"/>
</filter>
<filter id="filter1_d_732_15236" x="80.115" y="187.651" width="452.337" height="159.337" filterUnits="userSpaceOnUse" color-interpolation-filters="sRGB">
<feFlood flood-opacity="0" result="BackgroundImageFix"/>
<feColorMatrix in="SourceAlpha" type="matrix" values="0 0 0 0 0 0 0 0 0 0 0 0 0 0 0 0 0 0 127 0" result="hardAlpha"/>
<feOffset dx="-15.435" dy="24.8302"/>
<feGaussianBlur stdDeviation="13.8343"/>
<feComposite in2="hardAlpha" operator="out"/>
<feColorMatrix type="matrix" values="0 0 0 0 0 0 0 0 0 0 0 0 0 0 0 0 0 0 0.26 0"/>
<feBlend mode="normal" in2="BackgroundImageFix" result="effect1_dropShadow_732_15236"/>
<feBlend mode="normal" in="SourceGraphic" in2="effect1_dropShadow_732_15236" result="shape"/>
</filter>
<filter id="filter2_d_732_15236" x="25.115" y="316.708" width="452.337" height="159.337" filterUnits="userSpaceOnUse" color-interpolation-filters="sRGB">
<feFlood flood-opacity="0" result="BackgroundImageFix"/>
<feColorMatrix in="SourceAlpha" type="matrix" values="0 0 0 0 0 0 0 0 0 0 0 0 0 0 0 0 0 0 127 0" result="hardAlpha"/>
<feOffset dx="-15.435" dy="24.8302"/>
<feGaussianBlur stdDeviation="13.8343"/>
<feComposite in2="hardAlpha" operator="out"/>
<feColorMatrix type="matrix" values="0 0 0 0 0 0 0 0 0 0 0 0 0 0 0 0 0 0 0.26 0"/>
<feBlend mode="normal" in2="BackgroundImageFix" result="effect1_dropShadow_732_15236"/>
<feBlend mode="normal" in="SourceGraphic" in2="effect1_dropShadow_732_15236" result="shape"/>
</filter>
<filter id="filter3_b_732_15236" x="154.217" y="357.781" width="35.7454" height="35.7451" filterUnits="userSpaceOnUse" color-interpolation-filters="sRGB">
<feFlood flood-opacity="0" result="BackgroundImageFix"/>
<feGaussianBlur in="BackgroundImageFix" stdDeviation="1"/>
<feComposite in2="SourceAlpha" operator="in" result="effect1_backgroundBlur_732_15236"/>
<feBlend mode="normal" in="SourceGraphic" in2="effect1_backgroundBlur_732_15236" result="shape"/>
</filter>
<linearGradient id="paint0_linear_732_15236" x1="274.25" y1="-10" x2="274.25" y2="496" gradientUnits="userSpaceOnUse">
<stop stop-color="#249DE1"/>
<stop offset="0.405508" stop-color="#4555EA" stop-opacity="0.34"/>
<stop offset="1" stop-opacity="0"/>
</linearGradient>
<linearGradient id="paint1_linear_732_15236" x1="260.719" y1="61.4316" x2="260.719" y2="165.432" gradientUnits="userSpaceOnUse">
<stop stop-color="#121A23"/>
<stop offset="1" stop-color="#121316"/>
</linearGradient>
<linearGradient id="paint2_linear_732_15236" x1="141.891" y1="105.359" x2="169.263" y2="105.359" gradientUnits="userSpaceOnUse">
<stop stop-color="#4FFFB0"/>
<stop offset="1" stop-color="#B3FF8F"/>
</linearGradient>
<linearGradient id="paint3_linear_732_15236" x1="171.999" y1="109.934" x2="171.999" y2="133.629" gradientUnits="userSpaceOnUse">
<stop stop-color="#59FFAD"/>
<stop offset="1" stop-color="#56FFAE" stop-opacity="0.09"/>
</linearGradient>
<linearGradient id="paint4_linear_732_15236" x1="85.5" y1="112.165" x2="95.5" y2="112.165" gradientUnits="userSpaceOnUse">
<stop stop-color="#4FFFB0"/>
<stop offset="1" stop-color="#B3FF8F"/>
</linearGradient>
<linearGradient id="paint5_linear_732_15236" x1="321.719" y1="190.489" x2="321.719" y2="294.489" gradientUnits="userSpaceOnUse">
<stop stop-color="#121A23"/>
<stop offset="1" stop-color="#121316"/>
</linearGradient>
<radialGradient id="paint6_angular_732_15236" cx="0" cy="0" r="1" gradientUnits="userSpaceOnUse" gradientTransform="translate(221.376 242.489) rotate(-90) scale(19.3429 19.343)">
<stop stop-color="#909BFF"/>
<stop offset="1" stop-color="#909BFF" stop-opacity="0"/>
</radialGradient>
<linearGradient id="paint7_linear_732_15236" x1="266.719" y1="319.547" x2="266.719" y2="423.547" gradientUnits="userSpaceOnUse">
<stop stop-color="#121A23"/>
<stop offset="1" stop-color="#121316"/>
</linearGradient>
<linearGradient id="paint8_linear_732_15236" x1="172.729" y1="368.61" x2="176.865" y2="387.941" gradientUnits="userSpaceOnUse">
<stop stop-color="#FFBF63"/>
<stop offset="1" stop-color="#FFB979" stop-opacity="0.42"/>
</linearGradient>
<linearGradient id="paint9_linear_732_15236" x1="167.954" y1="372.196" x2="172.089" y2="391.527" gradientUnits="userSpaceOnUse">
<stop stop-color="#FFBF63"/>
<stop offset="1" stop-color="#FFB979" stop-opacity="0.42"/>
</linearGradient>
<linearGradient id="paint10_linear_732_15236" x1="167.312" y1="356.195" x2="167.312" y2="387.941" gradientUnits="userSpaceOnUse">
<stop stop-color="#FFBF63"/>
<stop offset="1" stop-color="#FFB979"/>
</linearGradient>
<clipPath id="clip0_732_15236">
<rect x="62.2188" y="61.4316" width="397" height="104" rx="18" fill="white"/>
</clipPath>
<clipPath id="clip1_732_15236">
<rect width="45.1629" height="45.8472" fill="white" transform="translate(186.382 136.355) rotate(-180)"/>
</clipPath>
<clipPath id="clip2_732_15236">
<rect x="123.219" y="190.489" width="397" height="104" rx="18" fill="white"/>
</clipPath>
<clipPath id="clip3_732_15236">
<rect x="68.2188" y="319.547" width="397" height="104" rx="18" fill="white"/>
</clipPath>
</defs>
</svg>
