<svg width="22" height="16" viewBox="0 0 22 16" fill="none" xmlns="http://www.w3.org/2000/svg">
<path fill-rule="evenodd" clip-rule="evenodd" d="M15.9869 15.75C15.9869 15.75 15.3362 14.9822 14.794 14.3036C17.1619 13.6429 18.0656 12.1786 18.0656 12.1786C17.3245 12.6607 16.6196 13 15.9869 13.2322C15.0832 13.6072 14.2155 13.8572 13.366 14C11.6307 14.3214 10.0401 14.2322 8.6844 13.9822C7.65409 13.7857 6.76838 13.5 6.02728 13.2143C5.61154 13.0536 5.15965 12.8572 4.70776 12.6072C4.68065 12.5893 4.65353 12.5759 4.62642 12.5625C4.5993 12.5491 4.57219 12.5357 4.54508 12.5179C4.50893 12.5 4.49085 12.4822 4.47278 12.4643C4.14742 12.2857 3.96666 12.1607 3.96666 12.1607C3.96666 12.1607 4.83429 13.5893 7.12989 14.2679C6.58762 14.9464 5.91883 15.75 5.91883 15.75C1.92411 15.625 0.405762 13.0357 0.405762 13.0357C0.405762 7.2858 3.00865 2.62513 3.00865 2.62513C5.61154 0.696578 8.0879 0.750148 8.0879 0.750148L8.26866 0.964432C5.01505 1.89299 3.51477 3.30369 3.51477 3.30369C3.51477 3.30369 3.91243 3.08941 4.58123 2.78584C6.51532 1.94657 8.05175 1.71442 8.6844 1.66085L8.72492 1.65409C8.8161 1.63875 8.897 1.62514 8.99168 1.62514C10.0943 1.48228 11.3415 1.44657 12.643 1.58943C14.3601 1.78585 16.2039 2.28585 18.0837 3.30369C18.0837 3.30369 16.6557 1.96442 13.5829 1.03586L13.8359 0.750148C13.8359 0.750148 16.3123 0.696578 18.9152 2.62513C18.9152 2.62513 21.5181 7.2858 21.5181 13.0357C21.5181 13.0357 19.9817 15.625 15.9869 15.75ZM8.09139 7.73634C7.0692 7.73634 6.26221 8.65562 6.26221 9.77714C6.26221 10.8987 7.08713 11.8179 8.09139 11.8179C9.11358 11.8179 9.92058 10.8987 9.92058 9.77714C9.93851 8.65562 9.11358 7.73634 8.09139 7.73634ZM12.8071 9.77714C12.8071 8.65562 13.6141 7.73634 14.6363 7.73634C15.6585 7.73634 16.4655 8.65562 16.4655 9.77714C16.4655 10.8987 15.6585 11.8179 14.6363 11.8179C13.6321 11.8179 12.8071 10.8987 12.8071 9.77714Z" fill="#DAFFEE"/>
</svg>
