<svg width="30" height="30" viewBox="0 0 30 30" fill="none" xmlns="http://www.w3.org/2000/svg">
<path d="M10.4922 21.1898H21.9587V6.15832C21.9587 4.12206 20.308 2.47135 18.2718 2.47135H6.92723C4.89098 2.47135 3.24027 4.12206 3.24027 6.15832V23.1751C3.23251 25.0851 4.68269 26.6848 6.58378 26.8621L6.65801 26.8454C8.52143 26.5131 9.92523 24.335 9.92523 21.7571C9.92523 21.4436 10.1787 21.1898 10.4922 21.1898ZM8.39062 13.8159C8.07709 13.8159 7.82339 13.5622 7.82339 13.2486C7.82339 12.9351 8.07709 12.6814 8.39062 12.6814H15.4554L12.945 10.3471C12.8298 10.2463 12.76 10.1034 12.7511 9.94943C12.7434 9.79655 12.7976 9.64588 12.9018 9.53286C13.0059 9.42097 13.1522 9.3556 13.3062 9.35228C13.459 9.34896 13.6075 9.40767 13.7172 9.51624L17.2845 12.832V12.8486H17.3011L17.3232 12.8774L17.3576 12.9228L17.3864 12.9716L17.4119 13.0225C17.4119 13.0391 17.4119 13.0569 17.4285 13.0735C17.4451 13.0901 17.4285 13.1078 17.4285 13.1244V13.1787V13.233V13.2873V13.3416V13.3925C17.4285 13.4092 17.4285 13.4269 17.4119 13.4435L17.3897 13.4945L17.3609 13.5432L17.3266 13.5886L17.3044 13.6174H17.29L17.2756 13.6341L13.7171 16.981C13.6074 17.0895 13.459 17.1483 13.3061 17.1449C13.1521 17.1416 13.0059 17.0763 12.9017 16.9644C12.7976 16.8514 12.7433 16.7007 12.751 16.5478C12.7599 16.3938 12.8297 16.2509 12.9449 16.1501L15.4553 13.8158L8.39062 13.8159Z" fill="#B8FFDF"/>
<path d="M8.39062 13.8159C8.07709 13.8159 7.82339 13.5622 7.82339 13.2486C7.82339 12.9351 8.07709 12.6814 8.39062 12.6814H15.4554L12.945 10.3471C12.8298 10.2463 12.76 10.1034 12.7511 9.94943C12.7434 9.79655 12.7976 9.64588 12.9018 9.53286C13.0059 9.42097 13.1522 9.3556 13.3062 9.35228C13.459 9.34896 13.6075 9.40767 13.7172 9.51624L17.2845 12.832V12.8486H17.3011L17.3232 12.8774L17.3576 12.9228L17.3864 12.9716L17.4119 13.0225C17.4119 13.0391 17.4119 13.0569 17.4285 13.0735C17.4451 13.0901 17.4285 13.1078 17.4285 13.1244V13.1787V13.233V13.2873V13.3416V13.3925C17.4285 13.4092 17.4285 13.4269 17.4119 13.4435L17.3897 13.4945L17.3609 13.5432L17.3266 13.5886L17.3044 13.6174H17.29L17.2756 13.6341L13.7171 16.981C13.6074 17.0895 13.459 17.1483 13.3061 17.1449C13.1521 17.1416 13.0059 17.0763 12.9017 16.9644C12.7976 16.8514 12.7433 16.7007 12.751 16.5478C12.7599 16.3938 12.8297 16.2509 12.9449 16.1501L15.4553 13.8158L8.39062 13.8159Z" fill="#B8FFDF"/>
<path d="M22.5257 22.3243H11.0394C11.025 22.5336 10.9995 22.7386 10.9685 22.9425C10.9685 23.0023 10.9486 23.0621 10.9375 23.1208C10.9109 23.2704 10.881 23.4166 10.8467 23.5606C10.8467 23.6171 10.8212 23.677 10.8046 23.7335C10.7536 23.9262 10.6993 24.1168 10.6339 24.3007C10.5719 24.4824 10.4977 24.6585 10.4212 24.8314L10.347 24.9876C10.2861 25.1139 10.2229 25.238 10.1565 25.3587L10.0745 25.5061C9.98141 25.6645 9.8817 25.8207 9.79086 25.968C9.68561 26.1132 9.57482 26.2516 9.46181 26.3824L9.35656 26.4987C9.26793 26.5951 9.17266 26.6892 9.07295 26.7823L9.00537 26.8499L22.3131 26.851C24.2164 26.851 25.7907 24.8657 26 22.3132L22.5257 22.3243Z" fill="#B8FFDF"/>
</svg>
