<svg width="18" height="20" viewBox="0 0 18 20" fill="none" xmlns="http://www.w3.org/2000/svg">
<path d="M5.86894 14.8924H14.4688V3.61874C14.4688 2.09155 13.2308 0.853516 11.7036 0.853516H3.19518C1.66799 0.853516 0.429955 2.09155 0.429955 3.61874V16.3813C0.424139 17.8138 1.51177 19.0136 2.93759 19.1466L2.99326 19.1341C4.39083 18.8848 5.44368 17.2513 5.44368 15.3179C5.44368 15.0827 5.6338 14.8924 5.86894 14.8924ZM4.29272 9.36191C4.05757 9.36191 3.8673 9.17163 3.8673 8.93649C3.8673 8.70134 4.05758 8.51107 4.29272 8.51107H9.59132L7.7085 6.76036C7.62209 6.68475 7.56974 6.57756 7.56309 6.46208C7.55728 6.34741 7.59799 6.23441 7.67609 6.14965C7.7542 6.06573 7.86388 6.0167 7.97938 6.01421C8.09404 6.01172 8.20538 6.05576 8.28763 6.13718L10.9631 8.62397V8.63644H10.9756L10.9922 8.65804L11.0179 8.69211L11.0395 8.72867L11.0586 8.76689C11.0586 8.77935 11.0587 8.79265 11.0711 8.80511C11.0836 8.81757 11.0711 8.83087 11.0711 8.84333V8.88405V8.92476V8.96548V9.00619V9.04441C11.0711 9.05688 11.0711 9.07017 11.0586 9.08263L11.042 9.12086L11.0204 9.15742L10.9947 9.19148L10.9781 9.21309H10.9673L10.9564 9.22555L8.28758 11.7357C8.20532 11.8172 8.09398 11.8612 7.97932 11.8587C7.86383 11.8562 7.75415 11.8072 7.67604 11.7233C7.59794 11.6385 7.55722 11.5255 7.56304 11.4108C7.56969 11.2953 7.62203 11.1882 7.70845 11.1126L9.59127 9.36185L4.29272 9.36191Z" fill="#B8FFDF"/>
<path d="M4.29272 9.36191C4.05757 9.36191 3.8673 9.17163 3.8673 8.93649C3.8673 8.70134 4.05758 8.51107 4.29272 8.51107H9.59132L7.7085 6.76036C7.62209 6.68475 7.56974 6.57756 7.56309 6.46208C7.55728 6.34741 7.59799 6.23441 7.67609 6.14965C7.7542 6.06573 7.86388 6.0167 7.97938 6.01421C8.09404 6.01172 8.20538 6.05576 8.28763 6.13718L10.9631 8.62397V8.63644H10.9756L10.9922 8.65804L11.0179 8.69211L11.0395 8.72867L11.0586 8.76689C11.0586 8.77935 11.0587 8.79265 11.0711 8.80511C11.0836 8.81757 11.0711 8.83087 11.0711 8.84333V8.88405V8.92476V8.96548V9.00619V9.04441C11.0711 9.05688 11.0711 9.07017 11.0586 9.08263L11.042 9.12086L11.0204 9.15742L10.9947 9.19148L10.9781 9.21309H10.9673L10.9564 9.22555L8.28758 11.7357C8.20532 11.8172 8.09398 11.8612 7.97932 11.8587C7.86383 11.8562 7.75415 11.8072 7.67604 11.7233C7.59794 11.6385 7.55722 11.5255 7.56304 11.4108C7.56969 11.2953 7.62203 11.1882 7.70845 11.1126L9.59127 9.36185L4.29272 9.36191Z" fill="#B8FFDF"/>
<path d="M14.8942 15.7432H6.27944C6.26864 15.9002 6.24953 16.0539 6.22627 16.2068C6.22627 16.2517 6.21131 16.2965 6.203 16.3406C6.18306 16.4528 6.16062 16.5624 6.13487 16.6705C6.13487 16.7128 6.11576 16.7577 6.10329 16.8001C6.06507 16.9447 6.02436 17.0876 5.97533 17.2255C5.9288 17.3618 5.87313 17.4939 5.8158 17.6235L5.76013 17.7407C5.71443 17.8354 5.66707 17.9284 5.61722 18.019L5.55573 18.1295C5.48594 18.2483 5.41115 18.3655 5.34302 18.476C5.26409 18.5848 5.181 18.6887 5.09624 18.7867L5.0173 18.874C4.95083 18.9463 4.87937 19.0169 4.80459 19.0867L4.75391 19.1374L14.7347 19.1382C16.1621 19.1382 17.3429 17.6493 17.4999 15.7349L14.8942 15.7432Z" fill="#B8FFDF"/>
</svg>
