<svg width="19" height="18" viewBox="0 0 19 18" fill="none" xmlns="http://www.w3.org/2000/svg">
<path d="M9.43433 0.48468C4.56647 0.48468 0.619141 4.49858 0.619141 9.45037C0.619141 13.4117 3.14496 16.7725 6.64751 17.958C7.08806 18.041 7.2498 17.7635 7.2498 17.5267C7.2498 17.3129 7.24163 16.6066 7.23783 15.8575C4.78544 16.3998 4.26795 14.7996 4.26795 14.7996C3.86696 13.7633 3.28919 13.4877 3.28919 13.4877C2.48938 12.9313 3.34947 12.9427 3.34947 12.9427C4.23467 13.0058 4.70077 13.8666 4.70077 13.8666C5.487 15.2373 6.76297 14.841 7.26601 14.6119C7.34513 14.0326 7.57358 13.6368 7.82568 13.413C5.8677 13.1863 3.80944 12.4176 3.80944 8.98209C3.80944 8.00323 4.1538 7.20342 4.71771 6.57553C4.62618 6.34956 4.32445 5.43781 4.8031 4.20283C4.8031 4.20283 5.54335 3.96186 7.22791 5.12186C7.93107 4.92321 8.68519 4.82358 9.43433 4.82017C10.1835 4.82358 10.9382 4.92321 11.6427 5.12186C13.3252 3.96186 14.0644 4.20283 14.0644 4.20283C14.5442 5.43781 14.2423 6.34956 14.1508 6.57553C14.716 7.20342 15.0581 8.00323 15.0581 8.98209C15.0581 12.4257 12.9959 13.184 11.0329 13.4059C11.3491 13.6842 11.6308 14.2298 11.6308 15.0663C11.6308 16.2658 11.6206 17.2313 11.6206 17.5267C11.6206 17.7653 11.7793 18.0449 12.2261 17.9568C15.7268 16.77 18.2494 13.4104 18.2494 9.45037C18.2494 4.49858 14.3026 0.48468 9.43433 0.48468Z" fill="#DAFFEE"/>
</svg>
