<svg width="30" height="30" viewBox="0 0 30 30" fill="none" xmlns="http://www.w3.org/2000/svg">
<path d="M18.5 2.16704H17.9171C17.7618 2.16704 17.613 2.22829 17.5036 2.33767C17.3942 2.44704 17.333 2.59579 17.333 2.75002V22H18.5C19.3641 22.0022 20.1954 22.3271 20.833 22.91V4.50002C20.8319 3.21157 19.7885 2.16815 18.5 2.16706L18.5 2.16704Z" fill="white"/>
<path d="M23.7498 4.5H21.9998V25.5316L21.9966 25.5295C21.9878 26.3826 21.6652 27.2029 21.0898 27.8329H23.7498C23.9041 27.8329 24.0528 27.7717 24.1622 27.6623C24.2716 27.5529 24.3328 27.4042 24.3328 27.2499V5.08288C24.3328 4.92866 24.2716 4.77992 24.1622 4.67052C24.0528 4.56113 23.9041 4.4999 23.7498 4.4999L23.7498 4.5Z" fill="white"/>
<path d="M18.4999 23.167H16.167V11.5H9.74995C9.4273 11.5 9.16699 11.2386 9.16699 10.917C9.16699 10.5944 9.4273 10.333 9.74995 10.333H16.167V9.16704H9.74995C9.4273 9.16704 9.16699 8.90564 9.16699 8.58299C9.16699 8.26144 9.4273 8.00003 9.74995 8.00003H16.167V5.08299C16.167 4.92877 16.1057 4.78003 15.9964 4.67063C15.887 4.56124 15.7382 4.50001 15.5829 4.50001H7.99995C6.7115 4.5011 5.66808 5.54564 5.66699 6.83297V25.5C5.66809 26.7885 6.71153 27.8319 7.99995 27.833H18.5C19.7884 27.833 20.8329 26.7884 20.8329 25.5C20.8329 24.2116 19.7884 23.167 18.5 23.167L18.4999 23.167Z" fill="white"/>
</svg>
