<svg width="17" height="16" viewBox="0 0 17 16" fill="none" xmlns="http://www.w3.org/2000/svg">
<path fill-rule="evenodd" clip-rule="evenodd" d="M13.7943 6.79561C14.1256 6.47855 14.5783 6.28294 15.0752 6.28294C16.0848 6.28294 16.9129 7.09533 16.9129 8.12068C16.9129 8.87312 16.4602 9.52145 15.8276 9.80697C15.8576 9.98838 15.8734 10.184 15.8734 10.3638C15.8734 13.2111 12.5749 15.5 8.50983 15.5C4.44315 15.5 1.1447 13.1953 1.1447 10.3638C1.1447 10.1698 1.15889 9.98838 1.19044 9.80697C0.807217 9.63494 0.494634 9.33661 0.304924 8.96182C0.115215 8.58703 0.059871 8.15848 0.14814 7.74779C0.236408 7.3371 0.462943 6.96914 0.789892 6.7054C1.11684 6.44165 1.5244 6.2981 1.94447 6.29872C2.43979 6.29872 2.89094 6.49432 3.2222 6.80981C4.5031 5.89173 6.26669 5.30492 8.22273 5.24498L9.15658 0.84704C9.16214 0.803962 9.17719 0.762655 9.20065 0.7261C9.22411 0.689546 9.25539 0.658657 9.29224 0.635661C9.32759 0.612795 9.36711 0.597123 9.40852 0.589544C9.44993 0.581965 9.49244 0.582627 9.53359 0.591492L12.5907 1.23825C12.6976 1.01767 12.8643 0.831533 13.0718 0.701019C13.2792 0.570505 13.5192 0.500856 13.7643 0.5C14.0206 0.500283 14.2711 0.575767 14.4849 0.717096C14.6987 0.858424 14.8663 1.05938 14.967 1.29506C15.0676 1.53074 15.0969 1.79077 15.0511 2.04293C15.0054 2.29509 14.8867 2.52828 14.7097 2.7136C14.5327 2.89892 14.3052 3.02822 14.0554 3.08548C13.8056 3.14273 13.5445 3.12542 13.3044 3.03569C13.0644 2.94596 12.856 2.78775 12.705 2.58069C12.554 2.37362 12.4671 2.12679 12.455 1.87081L9.71342 1.28399L8.87106 5.2292C10.7971 5.30492 12.5308 5.89173 13.7943 6.79561ZM4.67676 8.50453C4.92221 8.25908 5.25498 8.121 5.6021 8.12059C5.94169 8.13237 6.26343 8.27556 6.49949 8.51996C6.73556 8.76436 6.8675 9.09087 6.8675 9.43066C6.8675 9.77045 6.73556 10.097 6.49949 10.3414C6.26343 10.5858 5.94169 10.729 5.6021 10.7407C4.87963 10.7549 4.29282 10.1539 4.29282 9.42987C4.29323 9.08276 4.43131 8.74998 4.67676 8.50453ZM11.6264 12.9097C10.7225 13.8136 9.00624 13.8736 8.50935 13.8736V13.872C7.99668 13.872 6.28041 13.7978 5.39072 12.9097C5.35838 12.8784 5.33266 12.8409 5.3151 12.7994C5.29754 12.758 5.28849 12.7134 5.28849 12.6684C5.28849 12.6234 5.29754 12.5788 5.3151 12.5373C5.33266 12.4959 5.35838 12.4584 5.39072 12.427C5.42205 12.3947 5.45956 12.369 5.50102 12.3514C5.54248 12.3338 5.58705 12.3248 5.63207 12.3248C5.6771 12.3248 5.72167 12.3338 5.76313 12.3514C5.80459 12.369 5.8421 12.3947 5.87342 12.427C6.44604 12.9996 7.64964 13.1953 8.50935 13.1953C9.36748 13.1953 10.5869 12.9996 11.1437 12.427C11.175 12.3947 11.2125 12.369 11.254 12.3514C11.2954 12.3338 11.34 12.3248 11.385 12.3248C11.4301 12.3248 11.4746 12.3338 11.5161 12.3514C11.5576 12.369 11.5951 12.3947 11.6264 12.427C11.685 12.4938 11.7173 12.5796 11.7173 12.6684C11.7173 12.7572 11.685 12.843 11.6264 12.9097ZM11.385 10.7549C10.6626 10.7549 10.0742 10.1681 10.0742 9.44565H10.0758C10.0923 9.10952 10.2374 8.79261 10.4811 8.56056C10.7249 8.3285 11.0485 8.19907 11.385 8.19907C11.7216 8.19907 12.0452 8.3285 12.2889 8.56056C12.5327 8.79261 12.6778 9.10952 12.6943 9.44565C12.6943 10.1539 12.1075 10.7549 11.385 10.7549Z" fill="#DAFFEE"/>
</svg>
