<svg width="30" height="30" viewBox="0 0 30 30" fill="none" xmlns="http://www.w3.org/2000/svg">
<path fill-rule="evenodd" clip-rule="evenodd" d="M15 1.89062C22.1747 1.89062 28.0001 7.71624 28.0001 14.8907C28.0001 22.0653 22.1745 27.8907 15 27.8907C7.82561 27.8907 2 22.0651 2 14.8907C2 7.71603 7.82561 1.89062 15 1.89062Z" fill="#DAFFEE"/>
<path d="M12.7452 9.25466H13.8736V8.12838C13.8736 7.50503 14.3787 7 14.9999 7C15.6211 7 16.1262 7.50504 16.1262 8.12838V9.25466H17.2546C19.1204 9.25466 20.6355 10.7677 20.6355 12.6356C20.6355 13.2569 20.1305 13.7619 19.5072 13.7619C18.8859 13.7619 18.3809 13.2569 18.3809 12.6356C18.3809 12.0144 17.8759 11.5094 17.2546 11.5094H12.7452C12.124 11.5094 11.619 12.0144 11.619 12.6356C11.619 13.2569 12.124 13.7619 12.7452 13.7619H17.2546C19.1205 13.7619 20.6356 15.277 20.6356 17.1429C20.6356 19.0109 19.1205 20.5239 17.2546 20.5239H16.1262V21.6523C16.1262 22.2735 15.6212 22.7786 15 22.7786C14.3787 22.7786 13.8737 22.2735 13.8737 21.6523V20.5239H12.7453C10.8794 20.5239 9.36431 19.0109 9.36431 17.1429C9.36431 16.5217 9.86935 16.0166 10.4927 16.0166C11.1139 16.0166 11.619 16.5217 11.619 17.1429C11.619 17.7663 12.124 18.2713 12.7452 18.2713H17.2546C17.8759 18.2713 18.3809 17.7663 18.3809 17.1429C18.3809 16.5217 17.8759 16.0166 17.2546 16.0166H12.7452C10.8794 16.0166 9.36426 14.5036 9.36426 12.6356C9.36426 10.7677 10.8794 9.25466 12.7452 9.25466Z" fill="#1C1A1F"/>
</svg>
