<svg width="20" height="16" viewBox="0 0 20 16" fill="none" xmlns="http://www.w3.org/2000/svg">
<path d="M9.796 4.74023L9.83827 5.38903L9.13378 5.30958C6.56943 5.00505 4.32915 3.97228 2.42702 2.23775L1.49709 1.37711L1.25757 2.01266C0.750331 3.42941 1.0744 4.9256 2.13113 5.93189C2.69473 6.488 2.56792 6.56745 1.59572 6.23643C1.25757 6.1305 0.961679 6.05106 0.933499 6.09078C0.83487 6.18347 1.17303 7.38837 1.44073 7.86503C1.80707 8.52706 2.55383 9.17585 3.37104 9.55983L4.06144 9.86437L3.24423 9.87761C2.4552 9.87761 2.42702 9.89085 2.51156 10.1689C2.79336 11.0295 3.90645 11.9432 5.14636 12.3404L6.01993 12.6184L5.25908 13.0421C4.13189 13.6512 2.80745 13.9955 1.483 14.0219C0.84896 14.0352 0.327637 14.0881 0.327637 14.1279C0.327637 14.2603 2.0466 15.0017 3.04697 15.293C6.04811 16.1537 9.61283 15.7829 12.2899 14.3132C14.192 13.2672 16.0941 11.1884 16.9818 9.17585C17.4609 8.10336 17.9399 6.14374 17.9399 5.20366C17.9399 4.59459 17.9822 4.51514 18.7712 3.78691C19.2362 3.36321 19.673 2.89978 19.7575 2.76738C19.8984 2.5158 19.8843 2.5158 19.1657 2.7409C17.9681 3.13811 17.799 3.08515 18.3908 2.48932C18.8276 2.06562 19.3489 1.29766 19.3489 1.07257C19.3489 1.03285 19.1376 1.09905 18.898 1.21822C18.6444 1.35063 18.0808 1.54924 17.6581 1.6684L16.8973 1.89349L16.2069 1.45655C15.8264 1.21822 15.291 0.953406 15.0092 0.873962C14.2907 0.688593 13.1916 0.715074 12.5435 0.926925C10.7823 1.52275 9.66919 3.05867 9.796 4.74023Z" fill="#DAFFEE"/>
</svg>
