<?xml version="1.0" standalone="no"?>
<!DOCTYPE svg PUBLIC "-//W3C//DTD SVG 20010904//EN"
 "http://www.w3.org/TR/2001/REC-SVG-20010904/DTD/svg10.dtd">
<svg version="1.0" xmlns="http://www.w3.org/2000/svg"
 width="305.000000pt" height="305.000000pt" viewBox="0 0 305.000000 305.000000"
 preserveAspectRatio="xMidYMid meet">
<metadata>
Created by potrace 1.14, written by Peter Selinger 2001-2017
</metadata>
<g transform="translate(0.000000,305.000000) scale(0.100000,-0.100000)"
fill="#000000" stroke="none">
<path d="M1285 3030 c-322 -55 -591 -194 -815 -419 -101 -101 -116 -119 -187
-224 -126 -186 -227 -450 -251 -659 -15 -132 -7 -377 16 -490 78 -379 257
-671 569 -924 119 -96 385 -227 526 -259 154 -34 262 -48 372 -48 58 0 211 12
240 18 11 3 31 7 45 9 82 13 250 67 343 110 108 50 268 153 343 221 201 180
341 379 435 618 29 72 77 261 86 337 16 130 8 387 -15 500 -32 157 -58 233
-130 383 -81 170 -158 276 -308 423 -205 201 -458 335 -744 395 -143 29 -384
34 -525 9z m388 -395 c146 -241 268 -551 303 -771 3 -22 8 -42 9 -45 10 -15
20 -160 20 -289 0 -195 -9 -263 -60 -466 -63 -251 -180 -508 -341 -749 -66
-97 -83 -120 -87 -114 -72 86 -196 293 -273 454 -57 118 -137 332 -147 395 -3
14 -10 43 -16 66 -34 125 -46 231 -46 409 0 159 7 233 31 355 63 308 223 667
413 923 l43 58 48 -68 c26 -37 72 -108 103 -158z"/>
</g>
</svg>
