<svg id="enkrypt-logo-color" xmlns="http://www.w3.org/2000/svg" width="282.154" height="282.157" viewBox="0 0 282.154 282.157">
  <path id="Path_789" data-name="Path 789" d="M0,54.3A54.294,54.294,0,0,1,54.3,0H282.154V41.661A39.024,39.024,0,0,1,243.13,80.685H136a54.3,54.3,0,0,0-54.3,54.3V148.8a54.292,54.292,0,0,0,54.3,54.3H243.13a39.026,39.026,0,0,1,39.024,39.026v40.038H54.3A54.3,54.3,0,0,1,0,227.859Zm138.344,49.1H248.221a33.934,33.934,0,0,1,33.934,33.934v9.127a33.935,33.935,0,0,1-33.934,33.937H138.344a33.937,33.937,0,0,1-33.937-33.937v-9.127A33.936,33.936,0,0,1,138.344,103.391Z" fill="#c549ff" fill-rule="evenodd"/>
</svg>
