<svg width="52" height="51" viewBox="0 0 52 51" fill="none" xmlns="http://www.w3.org/2000/svg">
<g clip-path="url(#clip0_1301_11643)">
<path d="M25.8875 51.0005C39.9707 51.0005 51.3875 39.5837 51.3875 25.5005C51.3875 11.4172 39.9707 0.000488281 25.8875 0.000488281C11.8042 0.000488281 0.387451 11.4172 0.387451 25.5005C0.387451 39.5837 11.8042 51.0005 25.8875 51.0005Z" fill="#FF8C00"/>
<path d="M25.8879 7.17676C18.3108 7.17676 12.1179 13.3332 12.1179 20.9468C12.1179 22.4768 12.3729 23.9703 12.8465 25.4275C13.1743 26.411 14.2672 26.9575 15.2872 26.6296C16.2708 26.3018 16.8172 25.2089 16.4893 24.1889C16.0886 23.0596 15.9065 21.8575 15.9429 20.6553C16.0886 15.5189 20.2415 11.2932 25.3779 11.0382C31.0972 10.7468 35.8329 15.3003 35.8329 20.9468C35.8329 26.2289 31.6801 30.5639 26.4708 30.8553C26.4708 30.8553 24.5401 30.9646 23.5929 31.1103C23.1193 31.1832 22.7551 31.256 22.5001 31.2925C22.3908 31.3289 22.2815 31.2196 22.3179 31.1103L22.6458 29.5075L24.4308 21.2746C24.6493 20.2546 23.9936 19.2346 22.9736 19.016C21.9536 18.7975 20.9336 19.4532 20.7151 20.4732C20.7151 20.4732 16.4165 40.5089 16.3801 40.7275C16.1615 41.7475 16.8172 42.7675 17.8372 42.986C18.8572 43.2046 19.8772 42.5489 20.0958 41.5289C20.1322 41.3103 20.7151 38.651 20.7151 38.651C21.1522 36.611 22.8279 35.1175 24.7951 34.8625C25.2322 34.7896 26.9443 34.6803 26.9443 34.6803C34.0479 34.1339 39.6579 28.196 39.6579 20.9468C39.6579 13.3332 33.4651 7.17676 25.8879 7.17676ZM26.8715 38.8696C25.6329 38.6146 24.3943 39.3796 24.1393 40.6546C23.8843 41.8932 24.6493 43.1318 25.9243 43.3868C27.1629 43.6418 28.4015 42.8768 28.6565 41.6018C28.9115 40.3268 28.1465 39.1246 26.8715 38.8696Z" fill="white"/>
</g>
<defs>
<clipPath id="clip0_1301_11643">
<rect width="51" height="51" fill="white" transform="translate(0.387451 0.000488281)"/>
</clipPath>
</defs>
</svg>
