<svg width="61" height="60" viewBox="0 0 61 60" fill="none" xmlns="http://www.w3.org/2000/svg">
<rect x="0.887451" width="60" height="60" rx="20" fill="#121416"/>
<g clip-path="url(#clip0_1041_18941)">
<path d="M30.8875 55.5C44.9707 55.5 56.3875 44.0833 56.3875 30C56.3875 15.9167 44.9707 4.5 30.8875 4.5C16.8042 4.5 5.38745 15.9167 5.38745 30C5.38745 44.0833 16.8042 55.5 30.8875 55.5Z" fill="#FF8C00"/>
<path d="M30.8879 11.6763C23.3108 11.6763 17.1179 17.8327 17.1179 25.4463C17.1179 26.9763 17.3729 28.4698 17.8465 29.927C18.1743 30.9106 19.2672 31.457 20.2872 31.1291C21.2708 30.8013 21.8172 29.7084 21.4893 28.6884C21.0886 27.5591 20.9065 26.357 20.9429 25.1548C21.0886 20.0184 25.2415 15.7927 30.3779 15.5377C36.0972 15.2463 40.8329 19.7998 40.8329 25.4463C40.8329 30.7284 36.6801 35.0634 31.4708 35.3548C31.4708 35.3548 29.5401 35.4641 28.5929 35.6098C28.1193 35.6827 27.7551 35.7556 27.5001 35.792C27.3908 35.8284 27.2815 35.7191 27.3179 35.6098L27.6458 34.007L29.4308 25.7741C29.6493 24.7541 28.9936 23.7341 27.9736 23.5156C26.9536 23.297 25.9336 23.9527 25.7151 24.9727C25.7151 24.9727 21.4165 45.0084 21.3801 45.227C21.1615 46.247 21.8172 47.267 22.8372 47.4856C23.8572 47.7041 24.8772 47.0484 25.0958 46.0284C25.1322 45.8098 25.7151 43.1505 25.7151 43.1505C26.1522 41.1105 27.8279 39.617 29.7951 39.362C30.2322 39.2891 31.9443 39.1798 31.9443 39.1798C39.0479 38.6334 44.6579 32.6956 44.6579 25.4463C44.6579 17.8327 38.4651 11.6763 30.8879 11.6763ZM31.8715 43.3691C30.6329 43.1141 29.3943 43.8791 29.1393 45.1541C28.8843 46.3927 29.6493 47.6313 30.9243 47.8863C32.1629 48.1413 33.4015 47.3763 33.6565 46.1013C33.9115 44.8263 33.1465 43.6241 31.8715 43.3691Z" fill="white"/>
</g>
<defs>
<clipPath id="clip0_1041_18941">
<rect width="51" height="51" fill="white" transform="translate(5.38745 4.5)"/>
</clipPath>
</defs>
</svg>
