<svg width="61" height="60" viewBox="0 0 61 60" fill="none" xmlns="http://www.w3.org/2000/svg">
<rect x="0.5" width="60" height="60" rx="20" fill="#121416"/>
<path fill-rule="evenodd" clip-rule="evenodd" d="M44.9599 32.9333C45.4451 33.9896 46.8735 34.3627 47.6955 33.5407L49.2008 32.0353C50.7577 30.4785 53.2821 30.4785 54.839 32.0353C56.3959 33.5924 56.3959 36.1166 54.839 37.6736L42.6701 49.8426C39.7448 53.3201 35.361 55.53 30.461 55.53C25.3562 55.53 20.8117 53.1315 17.8929 49.4L6.16771 37.6748C4.61077 36.1179 4.61076 33.5936 6.1677 32.0366C7.72465 30.4797 10.2489 30.4797 11.8059 32.0366L13.2896 33.5203C14.0934 34.3242 15.4888 33.9626 15.9636 32.9298C16.0574 32.7257 16.1084 32.5066 16.1084 32.2821V14.068C16.1084 11.8662 17.8934 10.0812 20.0952 10.0812C22.2971 10.0812 24.082 11.8662 24.082 14.068V23.2824C24.082 24.0751 24.8939 24.6131 25.6497 24.3742C26.128 24.223 26.4735 23.7875 26.4735 23.2859V8.48679C26.4735 6.28495 28.2584 4.5 30.4603 4.5C32.6622 4.5 34.4471 6.28495 34.4471 8.48679V23.2855C34.4471 23.7872 34.7927 24.2226 35.271 24.3738C36.0268 24.6125 36.8386 24.0747 36.8386 23.282V14.068C36.8386 11.8662 38.6236 10.0812 40.8254 10.0812C43.0273 10.0812 44.8123 11.8662 44.8123 14.068V32.2724C44.8123 32.5016 44.8643 32.725 44.9599 32.9333Z" fill="#FD4848"/>
<path d="M43.2187 41.1786C43.2187 41.1786 37.5067 49.1522 30.4609 49.1522C23.4149 49.1522 17.7031 41.1786 17.7031 41.1786C17.7031 41.1786 23.4149 33.2051 30.4609 33.2051C37.5067 33.2051 43.2187 41.1786 43.2187 41.1786Z" fill="#D5FF5C"/>
<path d="M36.4378 41.1785C36.4378 44.4806 33.7609 47.1576 30.4586 47.1576C27.1565 47.1576 24.4795 44.4806 24.4795 41.1785C24.4795 37.8762 27.1565 35.1992 30.4586 35.1992C33.7609 35.1992 36.4378 37.8762 36.4378 41.1785Z" stroke="#FD4848" stroke-width="0.804876"/>
<path d="M34.0473 41.1793C34.0473 43.1603 32.4412 44.7664 30.4601 44.7664C28.4791 44.7664 26.873 43.1603 26.873 41.1793C26.873 39.1982 28.4791 37.5923 30.4601 37.5923C32.4412 37.5923 34.0473 39.1982 34.0473 41.1793Z" stroke="#FD4848" stroke-width="0.804876"/>
<path d="M38.8313 41.1789C38.8313 45.8021 35.0834 49.5501 30.46 49.5501C25.8368 49.5501 22.0889 45.8021 22.0889 41.1789C22.0889 36.5556 25.8368 32.8076 30.46 32.8076C35.0834 32.8076 38.8313 36.5556 38.8313 41.1789Z" stroke="#FD4848" stroke-width="0.804876"/>
<path d="M41.2248 41.1794C41.2248 47.1237 36.4059 51.9426 30.4615 51.9426C24.5171 51.9426 19.6982 47.1237 19.6982 41.1794C19.6982 35.2349 24.5171 30.416 30.4615 30.416C36.4059 30.416 41.2248 35.2349 41.2248 41.1794Z" stroke="#FD4848" stroke-width="0.804876"/>
<path d="M31.6531 41.178C31.6531 41.8377 31.1182 42.3726 30.4584 42.3726C29.7986 42.3726 29.2637 41.8377 29.2637 41.178C29.2637 40.5183 29.7986 39.9834 30.4584 39.9834C31.1182 39.9834 31.6531 40.5183 31.6531 41.178Z" fill="#162BEB" stroke="#FD4848" stroke-width="0.804876"/>
<path d="M30.459 42.7725C31.3395 42.7725 32.0532 42.0587 32.0532 41.1782C32.0532 40.2978 31.3395 39.584 30.459 39.584C29.5785 39.584 28.8647 40.2978 28.8647 41.1782C28.8647 42.0587 29.5785 42.7725 30.459 42.7725Z" fill="#FD4848"/>
<path d="M18.2761 41.2758C18.249 41.2409 18.224 41.2087 18.2012 41.1788C18.224 41.1491 18.249 41.1169 18.2761 41.082C18.4424 40.8687 18.6888 40.5624 19.0068 40.1943C19.6432 39.4574 20.5635 38.4755 21.6995 37.4947C23.984 35.5222 27.0812 33.605 30.4595 33.605C33.8376 33.605 36.9348 35.5222 39.2193 37.4947C40.3553 38.4755 41.2758 39.4574 41.9122 40.1943C42.23 40.5624 42.4764 40.8686 42.6428 41.082C42.6699 41.1169 42.6948 41.1491 42.7178 41.1788C42.6948 41.2087 42.6699 41.2409 42.6428 41.2758C42.4764 41.4891 42.23 41.7954 41.9122 42.1635C41.2758 42.9003 40.3553 43.8823 39.2193 44.8631C36.9348 46.8356 33.8376 48.7528 30.4595 48.7528C27.0812 48.7528 23.984 46.8356 21.6997 44.8631C20.5635 43.8823 19.6432 42.9003 19.0068 42.1635C18.6888 41.7954 18.4425 41.4891 18.2761 41.2758Z" stroke="#D5FF5C" stroke-width="0.804876"/>
</svg>
