<svg width="52" height="52" viewBox="0 0 52 52" fill="none" xmlns="http://www.w3.org/2000/svg">
<path fill-rule="evenodd" clip-rule="evenodd" d="M39.9599 28.4338C40.4451 29.4901 41.8735 29.8631 42.6955 29.0412L44.2008 27.5358C45.7577 25.9789 48.2821 25.9789 49.839 27.5358C51.3959 29.0929 51.3959 31.6171 49.839 33.1741L37.6701 45.3431C34.7448 48.8206 30.361 51.0305 25.461 51.0305C20.3562 51.0305 15.8117 48.632 12.8929 44.9005L1.16771 33.1753C-0.389234 31.6184 -0.389236 29.0941 1.1677 27.5371C2.72465 25.9802 5.24895 25.9802 6.80589 27.5371L8.28959 29.0208C9.0934 29.8247 10.4888 29.4631 10.9636 28.4303C11.0574 28.2262 11.1084 28.0071 11.1084 27.7826V9.56848C11.1084 7.36664 12.8934 5.58169 15.0952 5.58169C17.2971 5.58169 19.082 7.36664 19.082 9.56848V18.7829C19.082 19.5756 19.8939 20.1136 20.6497 19.8747C21.128 19.7235 21.4735 19.288 21.4735 18.7864V3.98728C21.4735 1.78543 23.2584 0.000488858 25.4603 0.000488281C27.6622 0.000487704 29.4471 1.78543 29.4471 3.98728V18.786C29.4471 19.2877 29.7927 19.7231 30.271 19.8743C31.0268 20.113 31.8386 19.5751 31.8386 18.7825V9.56848C31.8386 7.36664 33.6236 5.58169 35.8254 5.58169C38.0273 5.58169 39.8123 7.36664 39.8123 9.56848V27.7729C39.8123 28.0021 39.8643 28.2255 39.9599 28.4338Z" fill="#FD4848"/>
<path d="M38.2187 36.6791C38.2187 36.6791 32.5067 44.6527 25.4609 44.6527C18.4149 44.6527 12.7031 36.6791 12.7031 36.6791C12.7031 36.6791 18.4149 28.7056 25.4609 28.7056C32.5067 28.7056 38.2187 36.6791 38.2187 36.6791Z" fill="#D5FF5C"/>
<path d="M31.4378 36.6794C31.4378 39.9816 28.7609 42.6585 25.4586 42.6585C22.1565 42.6585 19.4795 39.9816 19.4795 36.6794C19.4795 33.3772 22.1565 30.7002 25.4586 30.7002C28.7609 30.7002 31.4378 33.3772 31.4378 36.6794Z" stroke="#FD4848" stroke-width="0.804876"/>
<path d="M29.0473 36.6798C29.0473 38.6608 27.4412 40.2668 25.4601 40.2668C23.4791 40.2668 21.873 38.6608 21.873 36.6798C21.873 34.6986 23.4791 33.0928 25.4601 33.0928C27.4412 33.0928 29.0473 34.6986 29.0473 36.6798Z" stroke="#FD4848" stroke-width="0.804876"/>
<path d="M33.8313 36.6789C33.8313 41.3021 30.0834 45.0501 25.46 45.0501C20.8368 45.0501 17.0889 41.3021 17.0889 36.6789C17.0889 32.0556 20.8368 28.3076 25.46 28.3076C30.0834 28.3076 33.8313 32.0556 33.8313 36.6789Z" stroke="#FD4848" stroke-width="0.804876"/>
<path d="M36.2248 36.6799C36.2248 42.6242 31.4059 47.4431 25.4615 47.4431C19.5171 47.4431 14.6982 42.6242 14.6982 36.6799C14.6982 30.7354 19.5171 25.9165 25.4615 25.9165C31.4059 25.9165 36.2248 30.7354 36.2248 36.6799Z" stroke="#FD4848" stroke-width="0.804876"/>
<path d="M26.6531 36.679C26.6531 37.3387 26.1182 37.8736 25.4584 37.8736C24.7986 37.8736 24.2637 37.3387 24.2637 36.679C24.2637 36.0193 24.7986 35.4844 25.4584 35.4844C26.1182 35.4844 26.6531 36.0193 26.6531 36.679Z" fill="#162BEB" stroke="#FD4848" stroke-width="0.804876"/>
<path d="M25.459 38.2725C26.3395 38.2725 27.0532 37.5587 27.0532 36.6782C27.0532 35.7978 26.3395 35.084 25.459 35.084C24.5785 35.084 23.8647 35.7978 23.8647 36.6782C23.8647 37.5587 24.5785 38.2725 25.459 38.2725Z" fill="#FD4848"/>
<path d="M13.2761 36.7763C13.249 36.7414 13.224 36.7092 13.2012 36.6793C13.224 36.6496 13.249 36.6174 13.2761 36.5825C13.4424 36.3692 13.6888 36.0629 14.0068 35.6948C14.6432 34.9579 15.5635 33.976 16.6995 32.9952C18.984 31.0227 22.0812 29.1055 25.4595 29.1055C28.8376 29.1055 31.9348 31.0227 34.2193 32.9952C35.3553 33.976 36.2758 34.9579 36.9122 35.6948C37.23 36.0629 37.4764 36.3691 37.6428 36.5825C37.6699 36.6174 37.6948 36.6496 37.7178 36.6793C37.6948 36.7092 37.6699 36.7414 37.6428 36.7763C37.4764 36.9896 37.23 37.2959 36.9122 37.664C36.2758 38.4008 35.3553 39.3828 34.2193 40.3636C31.9348 42.3361 28.8376 44.2533 25.4595 44.2533C22.0812 44.2533 18.984 42.3361 16.6997 40.3636C15.5635 39.3828 14.6432 38.4008 14.0068 37.664C13.6888 37.2959 13.4425 36.9896 13.2761 36.7763Z" stroke="#D5FF5C" stroke-width="0.804876"/>
</svg>
