<svg width="1375" height="981" viewBox="0 0 1375 981" fill="none" xmlns="http://www.w3.org/2000/svg">
<g clip-path="url(#clip0_586_4856)">
<path d="M134.156 534.148C160.646 534.148 186.551 542.121 208.599 557.037C230.623 571.976 247.808 593.182 257.955 618.011C268.102 642.84 270.744 670.147 265.577 696.519C260.41 722.868 247.644 747.089 228.916 766.097C210.189 785.104 186.317 798.033 160.318 803.27C134.319 808.507 107.385 805.818 82.9056 795.531C58.4263 785.244 37.5007 767.827 22.771 745.499C8.04135 723.148 0.185547 696.893 0.185547 670.007C0.185547 652.168 3.64585 634.493 10.3794 618.011C17.113 601.528 26.9795 586.542 39.4179 573.94C51.8563 561.315 66.6328 551.309 82.8822 544.482C99.1316 537.655 116.55 534.148 134.156 534.148V534.148ZM90.4574 670.007C90.4574 735.656 134.156 788.892 134.156 788.892C134.156 788.892 177.854 735.68 177.854 670.007C177.854 604.334 134.156 551.145 134.156 551.145C134.156 551.145 90.4574 604.357 90.4574 670.007Z" fill="url(#paint0_linear_586_4856)"/>
<path d="M413.81 534.148C440.3 534.148 466.205 542.121 488.253 557.037C510.278 571.976 527.462 593.182 537.609 618.011C547.756 642.84 550.398 670.147 545.231 696.519C540.064 722.868 527.299 747.089 508.571 766.097C489.843 785.104 465.972 798.033 439.973 803.27C413.974 808.507 387.039 805.818 362.56 795.531C338.081 785.244 317.155 767.827 302.425 745.499C287.696 723.148 279.84 696.893 279.84 670.007C279.84 652.168 283.3 634.493 290.034 618.011C296.767 601.528 306.634 586.542 319.072 573.94C331.511 561.315 346.287 551.309 362.536 544.482C378.786 537.655 396.204 534.148 413.81 534.148V534.148ZM370.112 670.007C370.112 735.656 413.81 788.892 413.81 788.892C413.81 788.892 457.508 735.68 457.508 670.007C457.508 604.334 413.81 551.145 413.81 551.145C413.81 551.145 370.112 604.357 370.112 670.007Z" fill="url(#paint1_linear_586_4856)"/>
<path d="M230.53 764.039C245.376 748.328 256.225 729.274 262.257 708.513C247.831 709.822 233.686 713.516 220.383 719.431C204.273 726.608 189.731 736.919 177.573 749.801C165.415 762.683 155.853 777.856 149.493 794.479C148.137 798.033 146.921 801.633 145.869 805.28C151.527 804.766 157.162 803.901 162.75 802.662C188.632 796.864 212.223 783.421 230.53 764.016V764.039Z" fill="url(#paint2_linear_586_4856)"/>
<path d="M369.784 590.237C384.63 574.526 395.479 555.472 401.511 534.711C387.085 536.02 372.94 539.714 359.637 545.629C343.527 552.807 328.985 563.117 316.827 575.999C304.669 588.881 295.106 604.055 288.747 620.677C287.391 624.231 286.175 627.832 285.123 631.479C290.781 630.964 296.416 630.099 302.004 628.86C327.886 623.062 351.477 609.619 369.784 590.214V590.237Z" fill="url(#paint3_linear_586_4856)"/>
<path d="M273.409 708.513C299.899 708.513 325.805 716.485 347.853 731.401C369.877 746.341 387.062 767.546 397.209 792.375C407.356 817.204 409.998 844.511 404.831 870.883C399.664 897.232 386.898 921.453 368.17 940.461C349.443 959.468 325.571 972.397 299.572 977.634C273.573 982.871 246.639 980.183 222.16 969.896C197.68 959.609 176.755 942.191 162.025 919.863C147.295 897.513 139.439 871.257 139.439 844.371C139.439 826.532 142.9 808.858 149.633 792.375C156.367 775.892 166.233 760.906 178.672 748.305C191.11 735.68 205.887 725.673 222.136 718.846C238.386 712.02 255.804 708.513 273.409 708.513V708.513ZM229.711 844.371C229.711 910.021 273.409 963.256 273.409 963.256C273.409 963.256 317.107 910.044 317.107 844.371C317.107 778.698 273.409 725.51 273.409 725.51C273.409 725.51 229.711 778.721 229.711 844.371V844.371Z" fill="url(#paint4_linear_586_4856)"/>
<path d="M371.001 749.801C385.847 765.512 396.696 784.566 402.728 805.327C388.302 804.018 374.157 800.324 360.853 794.409C344.744 787.232 330.202 776.921 318.044 764.039C305.886 751.157 296.323 735.984 289.964 719.361C288.608 715.807 287.392 712.207 286.34 708.56C291.998 709.074 297.633 709.939 303.221 711.178C329.103 716.976 352.694 730.419 371.001 749.824V749.801Z" fill="url(#paint5_linear_586_4856)"/>
<path d="M273.409 361C299.899 361 325.805 368.972 347.853 383.889C369.877 398.828 387.062 420.033 397.209 444.862C407.356 469.691 409.998 496.999 404.831 523.371C399.664 549.719 386.898 573.941 368.17 592.948C349.443 611.956 325.571 624.884 299.572 630.121C273.573 635.358 246.639 632.67 222.16 622.383C197.68 612.096 176.755 594.678 162.025 572.351C147.295 550 139.439 523.745 139.439 496.858C139.439 479.02 142.9 461.345 149.633 444.862C156.367 428.38 166.233 413.393 178.672 400.792C191.11 388.167 205.887 378.161 222.136 371.334C238.386 364.507 255.804 361 273.409 361ZM229.711 496.858C229.711 562.508 273.409 615.743 273.409 615.743C273.409 615.743 317.107 562.531 317.107 496.858C317.107 431.185 273.409 377.997 273.409 377.997C273.409 377.997 229.711 431.209 229.711 496.858V496.858Z" fill="url(#paint6_linear_586_4856)"/>
<path d="M229.313 575.997C244.16 591.708 255.008 610.763 261.04 631.524C246.614 630.214 232.469 626.52 219.166 620.605C203.057 613.428 188.514 603.118 176.356 590.235C164.198 577.353 154.636 562.18 148.276 545.557C146.92 542.004 145.704 538.403 144.652 534.756C150.31 535.27 155.945 536.135 161.533 537.374C187.415 543.172 211.006 556.616 229.313 576.021V575.997Z" fill="url(#paint7_linear_586_4856)"/>
<path d="M681.376 534.148C707.866 534.148 733.772 542.121 755.82 557.037C777.844 571.976 795.029 593.182 805.176 618.011C815.323 642.84 817.965 670.147 812.798 696.519C807.631 722.868 794.865 747.089 776.137 766.097C757.409 785.104 733.538 798.033 707.539 803.27C681.54 808.507 654.606 805.818 630.126 795.531C605.647 785.244 584.721 767.827 569.992 745.499C555.262 723.148 547.406 696.893 547.406 670.007C547.406 652.168 550.867 634.493 557.6 618.011C564.334 601.528 574.2 586.542 586.639 573.94C599.077 561.315 613.853 551.309 630.103 544.482C646.352 537.655 663.771 534.148 681.376 534.148V534.148ZM637.678 670.007C637.678 735.656 681.376 788.892 681.376 788.892C681.376 788.892 725.074 735.68 725.074 670.007C725.074 604.334 681.376 551.145 681.376 551.145C681.376 551.145 637.678 604.357 637.678 670.007Z" fill="url(#paint8_linear_586_4856)"/>
<path d="M961.029 534.148C987.519 534.148 1013.42 542.121 1035.47 557.037C1057.5 571.976 1074.68 593.182 1084.83 618.011C1094.98 642.84 1097.62 670.147 1092.45 696.519C1087.28 722.868 1074.52 747.089 1055.79 766.097C1037.06 785.104 1013.19 798.033 987.191 803.27C961.192 808.507 934.258 805.818 909.779 795.531C885.299 785.244 864.374 767.827 849.644 745.499C834.914 723.148 827.059 696.893 827.059 670.007C827.059 652.168 830.519 634.493 837.253 618.011C843.986 601.528 853.853 586.542 866.291 573.94C878.729 561.315 893.506 551.309 909.755 544.482C926.005 537.655 943.423 534.148 961.029 534.148V534.148ZM917.331 670.007C917.331 735.656 961.029 788.892 961.029 788.892C961.029 788.892 1004.73 735.68 1004.73 670.007C1004.73 604.334 961.029 551.145 961.029 551.145C961.029 551.145 917.331 604.357 917.331 670.007Z" fill="url(#paint9_linear_586_4856)"/>
<path d="M777.75 764.039C792.597 748.328 803.446 729.274 809.478 708.513C795.052 709.822 780.907 713.516 767.603 719.431C751.494 726.608 736.952 736.919 724.794 749.801C712.636 762.683 703.073 777.856 696.714 794.479C695.358 798.033 694.142 801.633 693.09 805.28C698.748 804.766 704.383 803.901 709.971 802.662C735.853 796.864 759.444 783.421 777.75 764.016V764.039Z" fill="url(#paint10_linear_586_4856)"/>
<path d="M917.004 590.237C931.851 574.526 942.699 555.472 948.732 534.711C934.306 536.02 920.161 539.714 906.857 545.629C890.748 552.807 876.205 563.117 864.048 575.999C851.89 588.881 842.327 604.055 835.968 620.677C834.612 624.231 833.396 627.832 832.344 631.479C838.002 630.964 843.637 630.099 849.224 628.86C875.107 623.062 898.697 609.619 917.004 590.214V590.237Z" fill="url(#paint11_linear_586_4856)"/>
<path d="M820.63 708.513C847.12 708.513 873.026 716.485 895.073 731.401C917.098 746.341 934.283 767.546 944.43 792.375C954.577 817.204 957.219 844.511 952.052 870.883C946.885 897.232 934.119 921.453 915.391 940.461C896.663 959.468 872.792 972.397 846.793 977.634C820.794 982.871 793.86 980.183 769.38 969.896C744.901 959.609 723.975 942.191 709.246 919.863C694.516 897.513 686.66 871.257 686.66 844.371C686.66 826.532 690.12 808.858 696.854 792.375C703.588 775.892 713.454 760.906 725.893 748.305C738.331 735.68 753.107 725.673 769.357 718.846C785.606 712.02 803.025 708.513 820.63 708.513V708.513ZM776.932 844.371C776.932 910.021 820.63 963.256 820.63 963.256C820.63 963.256 864.328 910.044 864.328 844.371C864.328 778.698 820.63 725.51 820.63 725.51C820.63 725.51 776.932 778.721 776.932 844.371V844.371Z" fill="url(#paint12_linear_586_4856)"/>
<path d="M918.219 749.801C933.066 765.512 943.914 784.566 949.946 805.327C935.521 804.018 921.376 800.324 908.072 794.409C891.963 787.232 877.42 776.921 865.262 764.039C853.105 751.157 843.542 735.984 837.183 719.361C835.827 715.807 834.611 712.207 833.559 708.56C839.217 709.074 844.851 709.939 850.439 711.178C876.321 716.976 899.912 730.419 918.219 749.824V749.801Z" fill="url(#paint13_linear_586_4856)"/>
<path d="M820.63 361C847.12 361 873.026 368.972 895.073 383.889C917.098 398.828 934.283 420.033 944.43 444.862C954.577 469.691 957.219 496.999 952.052 523.371C946.885 549.719 934.119 573.941 915.391 592.948C896.663 611.956 872.792 624.884 846.793 630.121C820.794 635.358 793.86 632.67 769.38 622.383C744.901 612.096 723.975 594.678 709.246 572.351C694.516 550 686.66 523.745 686.66 496.858C686.66 479.02 690.12 461.345 696.854 444.862C703.588 428.38 713.454 413.393 725.893 400.792C738.331 388.167 753.107 378.161 769.357 371.334C785.606 364.507 803.025 361 820.63 361ZM776.932 496.858C776.932 562.508 820.63 615.743 820.63 615.743C820.63 615.743 864.328 562.531 864.328 496.858C864.328 431.185 820.63 377.997 820.63 377.997C820.63 377.997 776.932 431.209 776.932 496.858V496.858Z" fill="url(#paint14_linear_586_4856)"/>
<path d="M776.536 575.997C791.382 591.708 802.231 610.763 808.263 631.524C793.837 630.214 779.692 626.52 766.388 620.605C750.279 613.428 735.737 603.118 723.579 590.235C711.421 577.353 701.858 562.18 695.499 545.557C694.143 542.004 692.927 538.403 691.875 534.756C697.533 535.27 703.168 536.135 708.756 537.374C734.638 543.172 758.229 556.616 776.536 576.021V575.997Z" fill="url(#paint15_linear_586_4856)"/>
</g>
<g clip-path="url(#clip1_586_4856)">
<path d="M414.156 173.148C440.646 173.148 466.551 181.121 488.599 196.037C510.623 210.976 527.808 232.182 537.955 257.011C548.102 281.84 550.744 309.147 545.577 335.519C540.41 361.868 527.644 386.089 508.916 405.097C490.189 424.104 466.317 437.033 440.318 442.27C414.319 447.507 387.385 444.818 362.906 434.531C338.426 424.244 317.501 406.827 302.771 384.499C288.041 362.148 280.186 335.893 280.186 309.007C280.186 291.168 283.646 273.493 290.379 257.011C297.113 240.528 306.98 225.542 319.418 212.94C331.856 200.315 346.633 190.309 362.882 183.482C379.132 176.655 396.55 173.148 414.156 173.148V173.148ZM370.457 309.007C370.457 374.656 414.156 427.892 414.156 427.892C414.156 427.892 457.854 374.68 457.854 309.007C457.854 243.334 414.156 190.145 414.156 190.145C414.156 190.145 370.457 243.357 370.457 309.007Z" fill="url(#paint16_linear_586_4856)"/>
<path d="M693.81 173.148C720.3 173.148 746.205 181.121 768.253 196.037C790.278 210.976 807.462 232.182 817.609 257.011C827.756 281.84 830.398 309.147 825.231 335.519C820.064 361.868 807.299 386.089 788.571 405.097C769.843 424.104 745.972 437.033 719.973 442.27C693.974 447.507 667.039 444.818 642.56 434.531C618.081 424.244 597.155 406.827 582.425 384.499C567.696 362.148 559.84 335.893 559.84 309.007C559.84 291.168 563.3 273.493 570.034 257.011C576.767 240.528 586.634 225.542 599.072 212.94C611.511 200.315 626.287 190.309 642.536 183.482C658.786 176.655 676.204 173.148 693.81 173.148V173.148ZM650.112 309.007C650.112 374.656 693.81 427.892 693.81 427.892C693.81 427.892 737.508 374.68 737.508 309.007C737.508 243.334 693.81 190.145 693.81 190.145C693.81 190.145 650.112 243.357 650.112 309.007Z" fill="url(#paint17_linear_586_4856)"/>
<path d="M510.53 403.04C525.376 387.329 536.225 368.275 542.257 347.514C527.831 348.823 513.686 352.517 500.383 358.432C484.273 365.609 469.731 375.92 457.573 388.802C445.415 401.684 435.853 416.857 429.493 433.48C428.137 437.034 426.921 440.634 425.869 444.281C431.527 443.767 437.162 442.902 442.75 441.663C468.632 435.865 492.223 422.422 510.53 403.017V403.04Z" fill="url(#paint18_linear_586_4856)"/>
<path d="M649.784 229.237C664.63 213.526 675.479 194.472 681.511 173.711C667.085 175.02 652.94 178.714 639.637 184.629C623.527 191.807 608.985 202.117 596.827 214.999C584.669 227.881 575.106 243.055 568.747 259.677C567.391 263.231 566.175 266.832 565.123 270.479C570.781 269.964 576.416 269.099 582.004 267.86C607.886 262.062 631.477 248.619 649.784 229.214V229.237Z" fill="url(#paint19_linear_586_4856)"/>
<path d="M553.409 347.514C579.899 347.514 605.805 355.486 627.853 370.402C649.877 385.342 667.062 406.547 677.209 431.376C687.356 456.205 689.998 483.512 684.831 509.884C679.664 536.233 666.898 560.454 648.17 579.462C629.443 598.469 605.571 611.398 579.572 616.635C553.573 621.872 526.639 619.184 502.16 608.897C477.68 598.61 456.755 581.192 442.025 558.864C427.295 536.514 419.439 510.258 419.439 483.372C419.439 465.533 422.9 447.858 429.633 431.376C436.367 414.893 446.233 399.907 458.672 387.306C471.11 374.681 485.887 364.674 502.136 357.847C518.386 351.021 535.804 347.514 553.409 347.514V347.514ZM509.711 483.372C509.711 549.022 553.409 602.257 553.409 602.257C553.409 602.257 597.107 549.045 597.107 483.372C597.107 417.699 553.409 364.511 553.409 364.511C553.409 364.511 509.711 417.722 509.711 483.372V483.372Z" fill="url(#paint20_linear_586_4856)"/>
<path d="M651.001 388.802C665.847 404.513 676.696 423.567 682.728 444.328C668.302 443.019 654.157 439.325 640.853 433.41C624.744 426.233 610.202 415.922 598.044 403.04C585.886 390.158 576.323 374.985 569.964 358.362C568.608 354.808 567.392 351.208 566.34 347.561C571.998 348.075 577.633 348.94 583.221 350.179C609.103 355.977 632.694 369.42 651.001 388.825V388.802Z" fill="url(#paint21_linear_586_4856)"/>
<path d="M553.409 0C579.899 0 605.805 7.97241 627.853 22.8885C649.877 37.828 667.062 59.0332 677.209 83.8623C687.356 108.691 689.998 135.999 684.831 162.371C679.664 188.719 666.898 212.941 648.17 231.948C629.443 250.956 605.571 263.884 579.572 269.121C553.573 274.358 526.639 271.67 502.16 261.383C477.68 251.096 456.755 233.678 442.025 211.351C427.295 189 419.439 162.745 419.439 135.858C419.439 118.02 422.9 100.345 429.633 83.8623C436.367 67.3797 446.233 52.3935 458.672 39.7919C471.11 27.167 485.887 17.1606 502.136 10.3337C518.386 3.50693 535.804 0 553.409 0ZM509.711 135.858C509.711 201.508 553.409 254.743 553.409 254.743C553.409 254.743 597.107 201.531 597.107 135.858C597.107 70.1853 553.409 16.9969 553.409 16.9969C553.409 16.9969 509.711 70.2087 509.711 135.858V135.858Z" fill="url(#paint22_linear_586_4856)"/>
<path d="M509.313 214.997C524.16 230.708 535.008 249.763 541.04 270.524C526.614 269.214 512.469 265.52 499.166 259.605C483.057 252.428 468.514 242.118 456.356 229.235C444.198 216.353 434.636 201.18 428.276 184.557C426.92 181.004 425.704 177.403 424.652 173.756C430.31 174.27 435.945 175.135 441.533 176.374C467.415 182.172 491.006 195.616 509.313 215.021V214.997Z" fill="url(#paint23_linear_586_4856)"/>
<path d="M961.376 173.148C987.866 173.148 1013.77 181.121 1035.82 196.037C1057.84 210.976 1075.03 232.182 1085.18 257.011C1095.32 281.84 1097.96 309.147 1092.8 335.519C1087.63 361.868 1074.86 386.089 1056.14 405.097C1037.41 424.104 1013.54 437.033 987.539 442.27C961.54 447.507 934.606 444.818 910.126 434.531C885.647 424.244 864.721 406.827 849.992 384.499C835.262 362.148 827.406 335.893 827.406 309.007C827.406 291.168 830.867 273.493 837.6 257.011C844.334 240.528 854.2 225.542 866.639 212.94C879.077 200.315 893.853 190.309 910.103 183.482C926.352 176.655 943.771 173.148 961.376 173.148V173.148ZM917.678 309.007C917.678 374.656 961.376 427.892 961.376 427.892C961.376 427.892 1005.07 374.68 1005.07 309.007C1005.07 243.334 961.376 190.145 961.376 190.145C961.376 190.145 917.678 243.357 917.678 309.007Z" fill="url(#paint24_linear_586_4856)"/>
<path d="M1241.03 173.148C1267.52 173.148 1293.42 181.121 1315.47 196.037C1337.5 210.976 1354.68 232.182 1364.83 257.011C1374.98 281.84 1377.62 309.147 1372.45 335.519C1367.28 361.868 1354.52 386.089 1335.79 405.097C1317.06 424.104 1293.19 437.033 1267.19 442.27C1241.19 447.507 1214.26 444.818 1189.78 434.531C1165.3 424.244 1144.37 406.827 1129.64 384.499C1114.91 362.148 1107.06 335.893 1107.06 309.007C1107.06 291.168 1110.52 273.493 1117.25 257.011C1123.99 240.528 1133.85 225.542 1146.29 212.94C1158.73 200.315 1173.51 190.309 1189.76 183.482C1206 176.655 1223.42 173.148 1241.03 173.148V173.148ZM1197.33 309.007C1197.33 374.656 1241.03 427.892 1241.03 427.892C1241.03 427.892 1284.73 374.68 1284.73 309.007C1284.73 243.334 1241.03 190.145 1241.03 190.145C1241.03 190.145 1197.33 243.357 1197.33 309.007Z" fill="url(#paint25_linear_586_4856)"/>
<path d="M1057.75 403.04C1072.6 387.329 1083.45 368.275 1089.48 347.514C1075.05 348.823 1060.91 352.517 1047.6 358.432C1031.49 365.609 1016.95 375.92 1004.79 388.802C992.636 401.684 983.073 416.857 976.714 433.48C975.358 437.034 974.142 440.634 973.09 444.281C978.748 443.767 984.383 442.902 989.971 441.663C1015.85 435.865 1039.44 422.422 1057.75 403.017V403.04Z" fill="url(#paint26_linear_586_4856)"/>
<path d="M1197 229.237C1211.85 213.526 1222.7 194.472 1228.73 173.711C1214.31 175.02 1200.16 178.714 1186.86 184.629C1170.75 191.807 1156.21 202.117 1144.05 214.999C1131.89 227.881 1122.33 243.055 1115.97 259.677C1114.61 263.231 1113.4 266.832 1112.34 270.479C1118 269.964 1123.64 269.099 1129.22 267.86C1155.11 262.062 1178.7 248.619 1197 229.214V229.237Z" fill="url(#paint27_linear_586_4856)"/>
<path d="M1100.63 347.514C1127.12 347.514 1153.03 355.486 1175.07 370.402C1197.1 385.342 1214.28 406.547 1224.43 431.376C1234.58 456.205 1237.22 483.512 1232.05 509.884C1226.88 536.233 1214.12 560.454 1195.39 579.462C1176.66 598.469 1152.79 611.398 1126.79 616.635C1100.79 621.872 1073.86 619.184 1049.38 608.897C1024.9 598.61 1003.98 581.192 989.246 558.864C974.516 536.514 966.66 510.258 966.66 483.372C966.66 465.533 970.12 447.858 976.854 431.376C983.588 414.893 993.454 399.907 1005.89 387.306C1018.33 374.681 1033.11 364.674 1049.36 357.847C1065.61 351.021 1083.02 347.514 1100.63 347.514V347.514ZM1056.93 483.372C1056.93 549.022 1100.63 602.257 1100.63 602.257C1100.63 602.257 1144.33 549.045 1144.33 483.372C1144.33 417.699 1100.63 364.511 1100.63 364.511C1100.63 364.511 1056.93 417.722 1056.93 483.372V483.372Z" fill="url(#paint28_linear_586_4856)"/>
<path d="M1198.22 388.802C1213.07 404.513 1223.91 423.567 1229.95 444.328C1215.52 443.019 1201.38 439.325 1188.07 433.41C1171.96 426.233 1157.42 415.922 1145.26 403.04C1133.1 390.158 1123.54 374.985 1117.18 358.362C1115.83 354.808 1114.61 351.208 1113.56 347.561C1119.22 348.075 1124.85 348.94 1130.44 350.179C1156.32 355.977 1179.91 369.42 1198.22 388.825V388.802Z" fill="url(#paint29_linear_586_4856)"/>
<path d="M1100.63 0C1127.12 0 1153.03 7.97241 1175.07 22.8885C1197.1 37.828 1214.28 59.0332 1224.43 83.8623C1234.58 108.691 1237.22 135.999 1232.05 162.371C1226.88 188.719 1214.12 212.941 1195.39 231.948C1176.66 250.956 1152.79 263.884 1126.79 269.121C1100.79 274.358 1073.86 271.67 1049.38 261.383C1024.9 251.096 1003.98 233.678 989.246 211.351C974.516 189 966.66 162.745 966.66 135.858C966.66 118.02 970.12 100.345 976.854 83.8623C983.588 67.3797 993.454 52.3935 1005.89 39.7919C1018.33 27.167 1033.11 17.1606 1049.36 10.3337C1065.61 3.50693 1083.02 0 1100.63 0ZM1056.93 135.858C1056.93 201.508 1100.63 254.743 1100.63 254.743C1100.63 254.743 1144.33 201.531 1144.33 135.858C1144.33 70.1853 1100.63 16.9969 1100.63 16.9969C1100.63 16.9969 1056.93 70.2087 1056.93 135.858V135.858Z" fill="url(#paint30_linear_586_4856)"/>
<path d="M1056.54 214.997C1071.38 230.708 1082.23 249.763 1088.26 270.524C1073.84 269.214 1059.69 265.52 1046.39 259.605C1030.28 252.428 1015.74 242.118 1003.58 229.235C991.421 216.353 981.858 201.18 975.499 184.557C974.143 181.004 972.927 177.403 971.875 173.756C977.533 174.27 983.168 175.135 988.756 176.374C1014.64 182.172 1038.23 195.616 1056.54 215.021V214.997Z" fill="url(#paint31_linear_586_4856)"/>
</g>
<defs>
<linearGradient id="paint0_linear_586_4856" x1="0.185547" y1="669.98" x2="268.152" y2="669.98" gradientUnits="userSpaceOnUse">
<stop stop-color="#81FFA0" stop-opacity="0"/>
<stop offset="0.45467"/>
<stop offset="1" stop-color="#97FF99" stop-opacity="0"/>
</linearGradient>
<linearGradient id="paint1_linear_586_4856" x1="279.84" y1="669.98" x2="547.807" y2="669.98" gradientUnits="userSpaceOnUse">
<stop stop-color="#81FFA0" stop-opacity="0"/>
<stop offset="0.45467"/>
<stop offset="1" stop-color="#97FF99" stop-opacity="0"/>
</linearGradient>
<linearGradient id="paint2_linear_586_4856" x1="145.869" y1="756.885" x2="262.257" y2="756.885" gradientUnits="userSpaceOnUse">
<stop offset="0.07" stop-color="#82FFA0" stop-opacity="0"/>
<stop offset="1"/>
</linearGradient>
<linearGradient id="paint3_linear_586_4856" x1="285.123" y1="583.083" x2="401.511" y2="583.083" gradientUnits="userSpaceOnUse">
<stop offset="0.07" stop-color="#82FFA0" stop-opacity="0"/>
<stop offset="1"/>
</linearGradient>
<linearGradient id="paint4_linear_586_4856" x1="139.439" y1="844.344" x2="407.406" y2="844.344" gradientUnits="userSpaceOnUse">
<stop stop-color="#81FFA0" stop-opacity="0"/>
<stop offset="0.45467"/>
<stop offset="1" stop-color="#97FF99" stop-opacity="0"/>
</linearGradient>
<linearGradient id="paint5_linear_586_4856" x1="286.34" y1="756.932" x2="402.728" y2="756.932" gradientUnits="userSpaceOnUse">
<stop offset="0.07" stop-color="#82FFA0" stop-opacity="0"/>
<stop offset="1"/>
</linearGradient>
<linearGradient id="paint6_linear_586_4856" x1="139.439" y1="496.832" x2="407.406" y2="496.832" gradientUnits="userSpaceOnUse">
<stop stop-color="#81FFA0" stop-opacity="0"/>
<stop offset="0.45467"/>
<stop offset="1" stop-color="#97FF99" stop-opacity="0"/>
</linearGradient>
<linearGradient id="paint7_linear_586_4856" x1="144.652" y1="583.128" x2="261.04" y2="583.128" gradientUnits="userSpaceOnUse">
<stop offset="0.07" stop-color="#82FFA0" stop-opacity="0"/>
<stop offset="1"/>
</linearGradient>
<linearGradient id="paint8_linear_586_4856" x1="547.406" y1="669.98" x2="815.373" y2="669.98" gradientUnits="userSpaceOnUse">
<stop stop-color="#81FFA0" stop-opacity="0"/>
<stop offset="0.45467"/>
<stop offset="1" stop-color="#97FF99" stop-opacity="0"/>
</linearGradient>
<linearGradient id="paint9_linear_586_4856" x1="827.059" y1="669.98" x2="1095.03" y2="669.98" gradientUnits="userSpaceOnUse">
<stop stop-color="#81FFA0" stop-opacity="0"/>
<stop offset="0.45467"/>
<stop offset="1" stop-color="#97FF99" stop-opacity="0"/>
</linearGradient>
<linearGradient id="paint10_linear_586_4856" x1="693.09" y1="756.885" x2="809.478" y2="756.885" gradientUnits="userSpaceOnUse">
<stop offset="0.07" stop-color="#82FFA0" stop-opacity="0"/>
<stop offset="1"/>
</linearGradient>
<linearGradient id="paint11_linear_586_4856" x1="832.344" y1="583.083" x2="948.732" y2="583.083" gradientUnits="userSpaceOnUse">
<stop offset="0.07" stop-color="#82FFA0" stop-opacity="0"/>
<stop offset="1"/>
</linearGradient>
<linearGradient id="paint12_linear_586_4856" x1="686.66" y1="844.344" x2="954.627" y2="844.344" gradientUnits="userSpaceOnUse">
<stop stop-color="#81FFA0" stop-opacity="0"/>
<stop offset="0.45467"/>
<stop offset="1" stop-color="#97FF99" stop-opacity="0"/>
</linearGradient>
<linearGradient id="paint13_linear_586_4856" x1="833.559" y1="756.932" x2="949.946" y2="756.932" gradientUnits="userSpaceOnUse">
<stop offset="0.07" stop-color="#82FFA0" stop-opacity="0"/>
<stop offset="1"/>
</linearGradient>
<linearGradient id="paint14_linear_586_4856" x1="686.66" y1="496.832" x2="954.627" y2="496.832" gradientUnits="userSpaceOnUse">
<stop stop-color="#81FFA0" stop-opacity="0"/>
<stop offset="0.45467"/>
<stop offset="1" stop-color="#97FF99" stop-opacity="0"/>
</linearGradient>
<linearGradient id="paint15_linear_586_4856" x1="691.875" y1="583.128" x2="808.263" y2="583.128" gradientUnits="userSpaceOnUse">
<stop offset="0.07" stop-color="#82FFA0" stop-opacity="0"/>
<stop offset="1"/>
</linearGradient>
<linearGradient id="paint16_linear_586_4856" x1="280.186" y1="308.98" x2="548.152" y2="308.98" gradientUnits="userSpaceOnUse">
<stop stop-color="#81FFA0" stop-opacity="0"/>
<stop offset="0.45467"/>
<stop offset="1" stop-color="#97FF99" stop-opacity="0"/>
</linearGradient>
<linearGradient id="paint17_linear_586_4856" x1="559.84" y1="308.98" x2="827.807" y2="308.98" gradientUnits="userSpaceOnUse">
<stop stop-color="#81FFA0" stop-opacity="0"/>
<stop offset="0.45467"/>
<stop offset="1" stop-color="#97FF99" stop-opacity="0"/>
</linearGradient>
<linearGradient id="paint18_linear_586_4856" x1="425.869" y1="395.886" x2="542.257" y2="395.886" gradientUnits="userSpaceOnUse">
<stop offset="0.07" stop-color="#82FFA0" stop-opacity="0"/>
<stop offset="1"/>
</linearGradient>
<linearGradient id="paint19_linear_586_4856" x1="565.123" y1="222.083" x2="681.511" y2="222.083" gradientUnits="userSpaceOnUse">
<stop offset="0.07" stop-color="#82FFA0" stop-opacity="0"/>
<stop offset="1"/>
</linearGradient>
<linearGradient id="paint20_linear_586_4856" x1="419.439" y1="483.345" x2="687.406" y2="483.345" gradientUnits="userSpaceOnUse">
<stop stop-color="#81FFA0" stop-opacity="0"/>
<stop offset="0.45467"/>
<stop offset="1" stop-color="#97FF99" stop-opacity="0"/>
</linearGradient>
<linearGradient id="paint21_linear_586_4856" x1="566.34" y1="395.933" x2="682.728" y2="395.933" gradientUnits="userSpaceOnUse">
<stop offset="0.07" stop-color="#82FFA0" stop-opacity="0"/>
<stop offset="1"/>
</linearGradient>
<linearGradient id="paint22_linear_586_4856" x1="419.439" y1="135.832" x2="687.406" y2="135.832" gradientUnits="userSpaceOnUse">
<stop stop-color="#81FFA0" stop-opacity="0"/>
<stop offset="0.45467"/>
<stop offset="1" stop-color="#97FF99" stop-opacity="0"/>
</linearGradient>
<linearGradient id="paint23_linear_586_4856" x1="424.652" y1="222.128" x2="541.04" y2="222.128" gradientUnits="userSpaceOnUse">
<stop offset="0.07" stop-color="#82FFA0" stop-opacity="0"/>
<stop offset="1"/>
</linearGradient>
<linearGradient id="paint24_linear_586_4856" x1="827.406" y1="308.98" x2="1095.37" y2="308.98" gradientUnits="userSpaceOnUse">
<stop stop-color="#81FFA0" stop-opacity="0"/>
<stop offset="0.45467"/>
<stop offset="1" stop-color="#97FF99" stop-opacity="0"/>
</linearGradient>
<linearGradient id="paint25_linear_586_4856" x1="1107.06" y1="308.98" x2="1375.03" y2="308.98" gradientUnits="userSpaceOnUse">
<stop stop-color="#81FFA0" stop-opacity="0"/>
<stop offset="0.45467"/>
<stop offset="1" stop-color="#97FF99" stop-opacity="0"/>
</linearGradient>
<linearGradient id="paint26_linear_586_4856" x1="973.09" y1="395.886" x2="1089.48" y2="395.886" gradientUnits="userSpaceOnUse">
<stop offset="0.07" stop-color="#82FFA0" stop-opacity="0"/>
<stop offset="1"/>
</linearGradient>
<linearGradient id="paint27_linear_586_4856" x1="1112.34" y1="222.083" x2="1228.73" y2="222.083" gradientUnits="userSpaceOnUse">
<stop offset="0.07" stop-color="#82FFA0" stop-opacity="0"/>
<stop offset="1"/>
</linearGradient>
<linearGradient id="paint28_linear_586_4856" x1="966.66" y1="483.345" x2="1234.63" y2="483.345" gradientUnits="userSpaceOnUse">
<stop stop-color="#81FFA0" stop-opacity="0"/>
<stop offset="0.45467"/>
<stop offset="1" stop-color="#97FF99" stop-opacity="0"/>
</linearGradient>
<linearGradient id="paint29_linear_586_4856" x1="1113.56" y1="395.933" x2="1229.95" y2="395.933" gradientUnits="userSpaceOnUse">
<stop offset="0.07" stop-color="#82FFA0" stop-opacity="0"/>
<stop offset="1"/>
</linearGradient>
<linearGradient id="paint30_linear_586_4856" x1="966.66" y1="135.832" x2="1234.63" y2="135.832" gradientUnits="userSpaceOnUse">
<stop stop-color="#81FFA0" stop-opacity="0"/>
<stop offset="0.45467"/>
<stop offset="1" stop-color="#97FF99" stop-opacity="0"/>
</linearGradient>
<linearGradient id="paint31_linear_586_4856" x1="971.875" y1="222.128" x2="1088.26" y2="222.128" gradientUnits="userSpaceOnUse">
<stop offset="0.07" stop-color="#82FFA0" stop-opacity="0"/>
<stop offset="1"/>
</linearGradient>
<clipPath id="clip0_586_4856">
<rect width="1095" height="619.253" fill="white" transform="translate(0 361)"/>
</clipPath>
<clipPath id="clip1_586_4856">
<rect width="1095" height="619.253" fill="white" transform="translate(280)"/>
</clipPath>
</defs>
</svg>
