<svg width="1095" height="620" viewBox="0 0 1095 620" fill="none" xmlns="http://www.w3.org/2000/svg">
<g clip-path="url(#clip0_584_3682)">
<path d="M134.156 173.148C160.646 173.148 186.551 181.121 208.599 196.037C230.623 210.976 247.808 232.182 257.955 257.011C268.102 281.84 270.744 309.147 265.577 335.519C260.41 361.868 247.644 386.089 228.916 405.097C210.189 424.104 186.317 437.033 160.318 442.27C134.319 447.507 107.385 444.818 82.9056 434.531C58.4263 424.244 37.5007 406.827 22.771 384.499C8.04135 362.148 0.185547 335.893 0.185547 309.007C0.185547 291.168 3.64585 273.493 10.3794 257.011C17.113 240.528 26.9795 225.542 39.4179 212.94C51.8563 200.315 66.6328 190.309 82.8822 183.482C99.1316 176.655 116.55 173.148 134.156 173.148V173.148ZM90.4574 309.007C90.4574 374.656 134.156 427.892 134.156 427.892C134.156 427.892 177.854 374.68 177.854 309.007C177.854 243.334 134.156 190.145 134.156 190.145C134.156 190.145 90.4574 243.357 90.4574 309.007Z" fill="url(#paint0_linear_584_3682)"/>
<path d="M413.809 173.148C440.299 173.148 466.204 181.121 488.252 196.037C510.277 210.976 527.461 232.182 537.608 257.011C547.755 281.84 550.397 309.147 545.23 335.519C540.063 361.868 527.298 386.089 508.57 405.097C489.842 424.104 465.971 437.033 439.972 442.27C413.973 447.507 387.038 444.818 362.559 434.531C338.08 424.244 317.154 406.827 302.424 384.499C287.695 362.148 279.839 335.893 279.839 309.007C279.839 291.168 283.299 273.493 290.033 257.011C296.766 240.528 306.633 225.542 319.071 212.94C331.51 200.315 346.286 190.309 362.536 183.482C378.785 176.655 396.203 173.148 413.809 173.148V173.148ZM370.111 309.007C370.111 374.656 413.809 427.892 413.809 427.892C413.809 427.892 457.507 374.68 457.507 309.007C457.507 243.334 413.809 190.145 413.809 190.145C413.809 190.145 370.111 243.357 370.111 309.007Z" fill="url(#paint1_linear_584_3682)"/>
<path d="M230.53 403.039C245.376 387.328 256.225 368.274 262.257 347.513C247.831 348.822 233.686 352.516 220.383 358.431C204.273 365.608 189.731 375.919 177.573 388.801C165.415 401.683 155.853 416.856 149.493 433.479C148.137 437.033 146.921 440.633 145.869 444.28C151.527 443.766 157.162 442.901 162.75 441.662C188.632 435.864 212.223 422.421 230.53 403.016V403.039Z" fill="url(#paint2_linear_584_3682)"/>
<path d="M369.784 229.237C384.63 213.526 395.479 194.472 401.511 173.711C387.085 175.02 372.94 178.714 359.637 184.629C343.527 191.807 328.985 202.117 316.827 214.999C304.669 227.881 295.106 243.055 288.747 259.677C287.391 263.231 286.175 266.832 285.123 270.479C290.781 269.964 296.416 269.099 302.004 267.86C327.886 262.062 351.477 248.619 369.784 229.214V229.237Z" fill="url(#paint3_linear_584_3682)"/>
<path d="M273.409 347.513C299.899 347.513 325.805 355.485 347.853 370.401C369.877 385.341 387.062 406.546 397.209 431.375C407.356 456.204 409.998 483.511 404.831 509.883C399.664 536.232 386.898 560.453 368.17 579.461C349.443 598.468 325.571 611.397 299.572 616.634C273.573 621.871 246.639 619.183 222.16 608.896C197.68 598.609 176.755 581.191 162.025 558.863C147.295 536.513 139.439 510.257 139.439 483.371C139.439 465.532 142.9 447.858 149.633 431.375C156.367 414.892 166.233 399.906 178.672 387.305C191.11 374.68 205.887 364.673 222.136 357.846C238.386 351.02 255.804 347.513 273.409 347.513V347.513ZM229.711 483.371C229.711 549.021 273.409 602.256 273.409 602.256C273.409 602.256 317.107 549.044 317.107 483.371C317.107 417.698 273.409 364.51 273.409 364.51C273.409 364.51 229.711 417.721 229.711 483.371V483.371Z" fill="url(#paint4_linear_584_3682)"/>
<path d="M371 388.801C385.846 404.512 396.695 423.566 402.727 444.327C388.301 443.018 374.156 439.324 360.852 433.409C344.743 426.232 330.201 415.921 318.043 403.039C305.885 390.157 296.322 374.984 289.963 358.361C288.607 354.807 287.391 351.207 286.339 347.56C291.997 348.074 297.632 348.939 303.22 350.178C329.102 355.976 352.693 369.419 371 388.824V388.801Z" fill="url(#paint5_linear_584_3682)"/>
<path d="M273.409 0C299.899 0 325.805 7.97241 347.853 22.8885C369.877 37.828 387.062 59.0332 397.209 83.8623C407.356 108.691 409.998 135.999 404.831 162.371C399.664 188.719 386.898 212.941 368.17 231.948C349.443 250.956 325.571 263.884 299.572 269.121C273.573 274.358 246.639 271.67 222.16 261.383C197.68 251.096 176.755 233.678 162.025 211.351C147.295 189 139.439 162.745 139.439 135.858C139.439 118.02 142.9 100.345 149.633 83.8623C156.367 67.3797 166.233 52.3935 178.672 39.7919C191.11 27.167 205.887 17.1606 222.136 10.3337C238.386 3.50693 255.804 0 273.409 0ZM229.711 135.858C229.711 201.508 273.409 254.743 273.409 254.743C273.409 254.743 317.107 201.531 317.107 135.858C317.107 70.1853 273.409 16.9969 273.409 16.9969C273.409 16.9969 229.711 70.2087 229.711 135.858V135.858Z" fill="url(#paint6_linear_584_3682)"/>
<path d="M229.314 214.997C244.161 230.708 255.009 249.763 261.041 270.524C246.615 269.214 232.47 265.52 219.167 259.605C203.058 252.428 188.515 242.118 176.357 229.235C164.199 216.353 154.637 201.18 148.277 184.557C146.921 181.004 145.705 177.403 144.653 173.756C150.311 174.27 155.946 175.135 161.534 176.374C187.416 182.172 211.007 195.616 229.314 215.021V214.997Z" fill="url(#paint7_linear_584_3682)"/>
<path d="M681.376 173.148C707.866 173.148 733.772 181.121 755.82 196.037C777.844 210.976 795.029 232.182 805.176 257.011C815.323 281.84 817.965 309.147 812.798 335.519C807.631 361.868 794.865 386.089 776.137 405.097C757.409 424.104 733.538 437.033 707.539 442.27C681.54 447.507 654.606 444.818 630.126 434.531C605.647 424.244 584.721 406.827 569.992 384.499C555.262 362.148 547.406 335.893 547.406 309.007C547.406 291.168 550.867 273.493 557.6 257.011C564.334 240.528 574.2 225.542 586.639 212.94C599.077 200.315 613.853 190.309 630.103 183.482C646.352 176.655 663.771 173.148 681.376 173.148V173.148ZM637.678 309.007C637.678 374.656 681.376 427.892 681.376 427.892C681.376 427.892 725.074 374.68 725.074 309.007C725.074 243.334 681.376 190.145 681.376 190.145C681.376 190.145 637.678 243.357 637.678 309.007Z" fill="url(#paint8_linear_584_3682)"/>
<path d="M961.03 173.148C987.52 173.148 1013.43 181.121 1035.47 196.037C1057.5 210.976 1074.68 232.182 1084.83 257.011C1094.98 281.84 1097.62 309.147 1092.45 335.519C1087.28 361.868 1074.52 386.089 1055.79 405.097C1037.06 424.104 1013.19 437.033 987.192 442.27C961.193 447.507 934.259 444.818 909.78 434.531C885.3 424.244 864.375 406.827 849.645 384.499C834.915 362.148 827.06 335.893 827.06 309.007C827.06 291.168 830.52 273.493 837.253 257.011C843.987 240.528 853.854 225.542 866.292 212.94C878.73 200.315 893.507 190.309 909.756 183.482C926.006 176.655 943.424 173.148 961.03 173.148V173.148ZM917.332 309.007C917.332 374.656 961.03 427.892 961.03 427.892C961.03 427.892 1004.73 374.68 1004.73 309.007C1004.73 243.334 961.03 190.145 961.03 190.145C961.03 190.145 917.332 243.357 917.332 309.007Z" fill="url(#paint9_linear_584_3682)"/>
<path d="M777.75 403.039C792.597 387.328 803.446 368.274 809.478 347.513C795.052 348.822 780.907 352.516 767.603 358.431C751.494 365.608 736.952 375.919 724.794 388.801C712.636 401.683 703.073 416.856 696.714 433.479C695.358 437.033 694.142 440.633 693.09 444.28C698.748 443.766 704.383 442.901 709.971 441.662C735.853 435.864 759.444 422.421 777.75 403.016V403.039Z" fill="url(#paint10_linear_584_3682)"/>
<path d="M917.004 229.237C931.851 213.526 942.699 194.472 948.732 173.711C934.306 175.02 920.161 178.714 906.857 184.629C890.748 191.807 876.205 202.117 864.048 214.999C851.89 227.881 842.327 243.055 835.968 259.677C834.612 263.231 833.396 266.832 832.344 270.479C838.002 269.964 843.637 269.099 849.224 267.86C875.107 262.062 898.697 248.619 917.004 229.214V229.237Z" fill="url(#paint11_linear_584_3682)"/>
<path d="M820.63 347.513C847.12 347.513 873.026 355.485 895.073 370.401C917.098 385.341 934.283 406.546 944.43 431.375C954.577 456.204 957.219 483.511 952.052 509.883C946.885 536.232 934.119 560.453 915.391 579.461C896.663 598.468 872.792 611.397 846.793 616.634C820.794 621.871 793.86 619.183 769.38 608.896C744.901 598.609 723.975 581.191 709.246 558.863C694.516 536.513 686.66 510.257 686.66 483.371C686.66 465.532 690.12 447.858 696.854 431.375C703.588 414.892 713.454 399.906 725.893 387.305C738.331 374.68 753.107 364.673 769.357 357.846C785.606 351.02 803.025 347.513 820.63 347.513V347.513ZM776.932 483.371C776.932 549.021 820.63 602.256 820.63 602.256C820.63 602.256 864.328 549.044 864.328 483.371C864.328 417.698 820.63 364.51 820.63 364.51C820.63 364.51 776.932 417.721 776.932 483.371V483.371Z" fill="url(#paint12_linear_584_3682)"/>
<path d="M918.22 388.801C933.067 404.512 943.915 423.566 949.947 444.327C935.522 443.018 921.377 439.324 908.073 433.409C891.964 426.232 877.421 415.921 865.263 403.039C853.106 390.157 843.543 374.984 837.184 358.361C835.828 354.807 834.612 351.207 833.56 347.56C839.218 348.074 844.852 348.939 850.44 350.178C876.322 355.976 899.913 369.419 918.22 388.824V388.801Z" fill="url(#paint13_linear_584_3682)"/>
<path d="M820.63 0C847.12 0 873.026 7.97241 895.073 22.8885C917.098 37.828 934.283 59.0332 944.43 83.8623C954.577 108.691 957.219 135.999 952.052 162.371C946.885 188.719 934.119 212.941 915.391 231.948C896.663 250.956 872.792 263.884 846.793 269.121C820.794 274.358 793.86 271.67 769.38 261.383C744.901 251.096 723.975 233.678 709.246 211.351C694.516 189 686.66 162.745 686.66 135.858C686.66 118.02 690.12 100.345 696.854 83.8623C703.588 67.3797 713.454 52.3935 725.893 39.7919C738.331 27.167 753.107 17.1606 769.357 10.3337C785.606 3.50693 803.025 0 820.63 0ZM776.932 135.858C776.932 201.508 820.63 254.743 820.63 254.743C820.63 254.743 864.328 201.531 864.328 135.858C864.328 70.1853 820.63 16.9969 820.63 16.9969C820.63 16.9969 776.932 70.2087 776.932 135.858V135.858Z" fill="url(#paint14_linear_584_3682)"/>
<path d="M776.535 214.997C791.381 230.708 802.23 249.763 808.262 270.524C793.836 269.214 779.691 265.52 766.388 259.605C750.278 252.428 735.736 242.118 723.578 229.235C711.42 216.353 701.857 201.18 695.498 184.557C694.142 181.004 692.926 177.403 691.874 173.756C697.532 174.27 703.167 175.135 708.755 176.374C734.637 182.172 758.228 195.616 776.535 215.021V214.997Z" fill="url(#paint15_linear_584_3682)"/>
</g>
<defs>
<linearGradient id="paint0_linear_584_3682" x1="0.185547" y1="308.98" x2="268.152" y2="308.98" gradientUnits="userSpaceOnUse">
<stop stop-color="#81FFA0" stop-opacity="0"/>
<stop offset="0.45467"/>
<stop offset="1" stop-color="#97FF99" stop-opacity="0"/>
</linearGradient>
<linearGradient id="paint1_linear_584_3682" x1="279.839" y1="308.98" x2="547.806" y2="308.98" gradientUnits="userSpaceOnUse">
<stop stop-color="#81FFA0" stop-opacity="0"/>
<stop offset="0.45467"/>
<stop offset="1" stop-color="#97FF99" stop-opacity="0"/>
</linearGradient>
<linearGradient id="paint2_linear_584_3682" x1="145.869" y1="395.885" x2="262.257" y2="395.885" gradientUnits="userSpaceOnUse">
<stop offset="0.07" stop-color="#82FFA0" stop-opacity="0"/>
<stop offset="1"/>
</linearGradient>
<linearGradient id="paint3_linear_584_3682" x1="285.123" y1="222.083" x2="401.511" y2="222.083" gradientUnits="userSpaceOnUse">
<stop offset="0.07" stop-color="#82FFA0" stop-opacity="0"/>
<stop offset="1"/>
</linearGradient>
<linearGradient id="paint4_linear_584_3682" x1="139.439" y1="483.344" x2="407.406" y2="483.344" gradientUnits="userSpaceOnUse">
<stop stop-color="#81FFA0" stop-opacity="0"/>
<stop offset="0.45467"/>
<stop offset="1" stop-color="#97FF99" stop-opacity="0"/>
</linearGradient>
<linearGradient id="paint5_linear_584_3682" x1="286.339" y1="395.932" x2="402.727" y2="395.932" gradientUnits="userSpaceOnUse">
<stop offset="0.07" stop-color="#82FFA0" stop-opacity="0"/>
<stop offset="1"/>
</linearGradient>
<linearGradient id="paint6_linear_584_3682" x1="139.439" y1="135.832" x2="407.406" y2="135.832" gradientUnits="userSpaceOnUse">
<stop stop-color="#81FFA0" stop-opacity="0"/>
<stop offset="0.45467"/>
<stop offset="1" stop-color="#97FF99" stop-opacity="0"/>
</linearGradient>
<linearGradient id="paint7_linear_584_3682" x1="144.653" y1="222.128" x2="261.041" y2="222.128" gradientUnits="userSpaceOnUse">
<stop offset="0.07" stop-color="#82FFA0" stop-opacity="0"/>
<stop offset="1"/>
</linearGradient>
<linearGradient id="paint8_linear_584_3682" x1="547.406" y1="308.98" x2="815.373" y2="308.98" gradientUnits="userSpaceOnUse">
<stop stop-color="#81FFA0" stop-opacity="0"/>
<stop offset="0.45467"/>
<stop offset="1" stop-color="#97FF99" stop-opacity="0"/>
</linearGradient>
<linearGradient id="paint9_linear_584_3682" x1="827.06" y1="308.98" x2="1095.03" y2="308.98" gradientUnits="userSpaceOnUse">
<stop stop-color="#81FFA0" stop-opacity="0"/>
<stop offset="0.45467"/>
<stop offset="1" stop-color="#97FF99" stop-opacity="0"/>
</linearGradient>
<linearGradient id="paint10_linear_584_3682" x1="693.09" y1="395.885" x2="809.478" y2="395.885" gradientUnits="userSpaceOnUse">
<stop offset="0.07" stop-color="#82FFA0" stop-opacity="0"/>
<stop offset="1"/>
</linearGradient>
<linearGradient id="paint11_linear_584_3682" x1="832.344" y1="222.083" x2="948.732" y2="222.083" gradientUnits="userSpaceOnUse">
<stop offset="0.07" stop-color="#82FFA0" stop-opacity="0"/>
<stop offset="1"/>
</linearGradient>
<linearGradient id="paint12_linear_584_3682" x1="686.66" y1="483.344" x2="954.627" y2="483.344" gradientUnits="userSpaceOnUse">
<stop stop-color="#81FFA0" stop-opacity="0"/>
<stop offset="0.45467"/>
<stop offset="1" stop-color="#97FF99" stop-opacity="0"/>
</linearGradient>
<linearGradient id="paint13_linear_584_3682" x1="833.56" y1="395.932" x2="949.947" y2="395.932" gradientUnits="userSpaceOnUse">
<stop offset="0.07" stop-color="#82FFA0" stop-opacity="0"/>
<stop offset="1"/>
</linearGradient>
<linearGradient id="paint14_linear_584_3682" x1="686.66" y1="135.832" x2="954.627" y2="135.832" gradientUnits="userSpaceOnUse">
<stop stop-color="#81FFA0" stop-opacity="0"/>
<stop offset="0.45467"/>
<stop offset="1" stop-color="#97FF99" stop-opacity="0"/>
</linearGradient>
<linearGradient id="paint15_linear_584_3682" x1="691.874" y1="222.128" x2="808.262" y2="222.128" gradientUnits="userSpaceOnUse">
<stop offset="0.07" stop-color="#82FFA0" stop-opacity="0"/>
<stop offset="1"/>
</linearGradient>
<clipPath id="clip0_584_3682">
<rect width="1095" height="619.253" fill="white"/>
</clipPath>
</defs>
</svg>
