<svg width="110" height="97" viewBox="0 0 110 97" fill="none" xmlns="http://www.w3.org/2000/svg">
<path d="M0.296806 -21.1094C7.27609 -21.1094 14.1014 -19.0089 19.9103 -15.079C25.713 -11.1429 30.2406 -5.556 32.914 0.985657C35.5875 7.52731 36.2836 14.7219 34.9222 21.6701C33.5608 28.6121 30.1975 34.9936 25.2633 40.0015C20.3291 45.0094 14.0398 48.4157 7.18985 49.7955C0.339928 51.1753 -6.75639 50.4669 -13.2059 47.7567C-19.6554 45.0464 -25.1686 40.4574 -29.0494 34.5748C-32.9302 28.6861 -35 21.7687 -35 14.6849C-35 9.98505 -34.0883 5.32828 -32.3142 0.985657C-30.5402 -3.35697 -27.9406 -7.30537 -24.6635 -10.6255C-21.3864 -13.9517 -17.4933 -16.5881 -13.2121 -18.3868C-8.93087 -20.1854 -4.34168 -21.1094 0.296806 -21.1094ZM-11.2162 14.6849C-11.2162 31.9815 0.296806 46.0073 0.296806 46.0073C0.296806 46.0073 11.8099 31.9877 11.8099 14.6849C11.8099 -2.6178 0.296806 -16.6312 0.296806 -16.6312C0.296806 -16.6312 -11.2162 -2.61164 -11.2162 14.6849Z" fill="url(#paint0_linear_964_16508)"/>
<path d="M73.977 -21.1094C80.9563 -21.1094 87.7816 -19.0089 93.5904 -15.079C99.3932 -11.1429 103.921 -5.556 106.594 0.985657C109.268 7.52731 109.964 14.7219 108.602 21.6701C107.241 28.6121 103.878 34.9936 98.9435 40.0015C94.0093 45.0094 87.72 48.4157 80.87 49.7955C74.0201 51.1753 66.9238 50.4669 60.4743 47.7567C54.0247 45.0464 48.5115 40.4574 44.6307 34.5748C40.7499 28.6861 38.6802 21.7687 38.6802 14.6849C38.6802 9.98505 39.5919 5.32828 41.3659 0.985657C43.14 -3.35697 45.7395 -7.30537 49.0167 -10.6255C52.2938 -13.9517 56.1869 -16.5881 60.4681 -18.3868C64.7493 -20.1854 69.3385 -21.1094 73.977 -21.1094ZM62.464 14.6849C62.464 31.9815 73.977 46.0073 73.977 46.0073C73.977 46.0073 85.49 31.9877 85.49 14.6849C85.49 -2.6178 73.977 -16.6312 73.977 -16.6312C73.977 -16.6312 62.464 -2.61164 62.464 14.6849Z" fill="url(#paint1_linear_964_16508)"/>
<path d="M25.6882 39.4595C29.5998 35.3201 32.458 30.2999 34.0473 24.8301C30.2466 25.175 26.5198 26.1483 23.0147 27.7067C18.7705 29.5977 14.939 32.3142 11.7358 35.7082C8.53257 39.1022 6.01313 43.0999 4.33761 47.4795C3.98033 48.4158 3.66001 49.3644 3.38281 50.3253C4.87353 50.1898 6.35809 49.9619 7.83033 49.6354C14.6495 48.1078 20.8649 44.5659 25.6882 39.4533V39.4595Z" fill="url(#paint2_linear_964_16508)"/>
<path d="M62.3776 -6.33201C66.2892 -10.4714 69.1475 -15.4916 70.7368 -20.9614C66.936 -20.6165 63.2092 -19.6432 59.7042 -18.0848C55.4599 -16.1938 51.6284 -13.4773 48.4252 -10.0833C45.222 -6.68928 42.7026 -2.6916 41.0271 1.68798C40.6698 2.62427 40.3495 3.57287 40.0723 4.53379C41.563 4.39828 43.0475 4.17036 44.5198 3.8439C51.3389 2.31628 57.5543 -1.22558 62.3776 -6.33817V-6.33201Z" fill="url(#paint3_linear_964_16508)"/>
<path d="M36.9858 24.8301C43.9651 24.8301 50.7903 26.9305 56.5992 30.8605C62.4019 34.7966 66.9296 40.3834 69.603 46.9251C72.2764 53.4668 72.9725 60.6614 71.6112 67.6096C70.2498 74.5516 66.8864 80.9331 61.9523 85.941C57.0181 90.9489 50.7287 94.3552 43.8788 95.735C37.0289 97.1148 29.9326 96.4064 23.4831 93.6961C17.0335 90.9858 11.5203 86.3968 7.63953 80.5142C3.75873 74.6255 1.68896 67.7081 1.68896 60.6244C1.68896 55.9245 2.60064 51.2677 4.37472 46.9251C6.1488 42.5825 8.74833 38.6341 12.0254 35.314C15.3026 31.9877 19.1957 29.3513 23.4769 27.5527C27.7581 25.754 32.3473 24.8301 36.9858 24.8301ZM25.4727 60.6244C25.4727 77.921 36.9858 91.9467 36.9858 91.9467C36.9858 91.9467 48.4988 77.9271 48.4988 60.6244C48.4988 43.3217 36.9858 29.3082 36.9858 29.3082C36.9858 29.3082 25.4727 43.3278 25.4727 60.6244Z" fill="url(#paint4_linear_964_16508)"/>
<path d="M62.698 35.7076C66.6096 39.847 69.4678 44.8672 71.0571 50.337C67.2563 49.9921 63.5296 49.0188 60.0245 47.4604C55.7803 45.5694 51.9487 42.8529 48.7455 39.4589C45.5423 36.0649 43.0229 32.0672 41.3474 27.6876C40.9901 26.7513 40.6698 25.8027 40.3926 24.8418C41.8833 24.9773 43.3679 25.2052 44.8401 25.5317C51.6592 27.0593 57.8747 30.6012 62.698 35.7138V35.7076Z" fill="url(#paint5_linear_964_16508)"/>
<path d="M36.9858 -66.7285C43.9651 -66.7285 50.7903 -64.628 56.5992 -60.6981C62.4019 -56.762 66.9296 -51.1751 69.603 -44.6335C72.2764 -38.0918 72.9725 -30.8972 71.6112 -23.949C70.2498 -17.007 66.8864 -10.6255 61.9523 -5.61761C57.0181 -0.609741 50.7287 2.79661 43.8788 4.17639C37.0289 5.55618 29.9326 4.8478 23.4831 2.13751C17.0335 -0.572777 11.5203 -5.16179 7.63953 -11.0444C3.75873 -16.9331 1.68896 -23.8505 1.68896 -30.9342C1.68896 -35.6341 2.60064 -40.2909 4.37472 -44.6335C6.1488 -48.9761 8.74833 -52.9245 12.0254 -56.2446C15.3026 -59.5709 19.1957 -62.2073 23.4769 -64.0059C27.7581 -65.8046 32.3473 -66.7285 36.9858 -66.7285ZM25.4727 -30.9342C25.4727 -13.6376 36.9858 0.388145 36.9858 0.388145C36.9858 0.388145 48.4988 -13.6315 48.4988 -30.9342C48.4988 -48.2369 36.9858 -62.2504 36.9858 -62.2504C36.9858 -62.2504 25.4727 -48.2308 25.4727 -30.9342Z" fill="url(#paint6_linear_964_16508)"/>
<path d="M25.3683 -10.0839C29.2799 -5.94455 32.1382 -0.924351 33.7275 4.54551C29.9268 4.20057 26.1999 3.22733 22.6949 1.66891C18.4507 -0.222137 14.6191 -2.93859 11.4159 -6.33261C8.21275 -9.72663 5.6933 -13.7243 4.01778 -18.1039C3.6605 -19.0402 3.34019 -19.9888 3.06299 -20.9497C4.55371 -20.8142 6.03827 -20.5863 7.51051 -20.2598C14.3296 -18.7322 20.5451 -15.1903 25.3683 -10.0777V-10.0839Z" fill="url(#paint7_linear_964_16508)"/>
<defs>
<linearGradient id="paint0_linear_964_16508" x1="-35" y1="14.6779" x2="35.6007" y2="14.6779" gradientUnits="userSpaceOnUse">
<stop stop-color="#81FFA0" stop-opacity="0"/>
<stop offset="0.45467"/>
<stop offset="1" stop-color="#97FF99" stop-opacity="0"/>
</linearGradient>
<linearGradient id="paint1_linear_964_16508" x1="38.6802" y1="14.6779" x2="109.281" y2="14.6779" gradientUnits="userSpaceOnUse">
<stop stop-color="#81FFA0" stop-opacity="0"/>
<stop offset="0.45467"/>
<stop offset="1" stop-color="#97FF99" stop-opacity="0"/>
</linearGradient>
<linearGradient id="paint2_linear_964_16508" x1="3.38281" y1="37.5746" x2="34.0473" y2="37.5746" gradientUnits="userSpaceOnUse">
<stop offset="0.07" stop-color="#82FFA0" stop-opacity="0"/>
<stop offset="1"/>
</linearGradient>
<linearGradient id="paint3_linear_964_16508" x1="40.0723" y1="-8.2169" x2="70.7368" y2="-8.2169" gradientUnits="userSpaceOnUse">
<stop offset="0.07" stop-color="#82FFA0" stop-opacity="0"/>
<stop offset="1"/>
</linearGradient>
<linearGradient id="paint4_linear_964_16508" x1="1.68896" y1="60.6173" x2="72.2897" y2="60.6173" gradientUnits="userSpaceOnUse">
<stop stop-color="#81FFA0" stop-opacity="0"/>
<stop offset="0.45467"/>
<stop offset="1" stop-color="#97FF99" stop-opacity="0"/>
</linearGradient>
<linearGradient id="paint5_linear_964_16508" x1="40.3926" y1="37.5863" x2="71.0571" y2="37.5863" gradientUnits="userSpaceOnUse">
<stop offset="0.07" stop-color="#82FFA0" stop-opacity="0"/>
<stop offset="1"/>
</linearGradient>
<linearGradient id="paint6_linear_964_16508" x1="1.68896" y1="-30.9412" x2="72.2897" y2="-30.9412" gradientUnits="userSpaceOnUse">
<stop stop-color="#81FFA0" stop-opacity="0"/>
<stop offset="0.45467"/>
<stop offset="1" stop-color="#97FF99" stop-opacity="0"/>
</linearGradient>
<linearGradient id="paint7_linear_964_16508" x1="3.06299" y1="-8.20518" x2="33.7275" y2="-8.20518" gradientUnits="userSpaceOnUse">
<stop offset="0.07" stop-color="#82FFA0" stop-opacity="0"/>
<stop offset="1"/>
</linearGradient>
</defs>
</svg>
