<svg width="428" height="327" viewBox="0 0 428 327" fill="none" xmlns="http://www.w3.org/2000/svg">
<g clip-path="url(#clip0_732_17758)">
<path d="M134.156 -119.851C160.646 -119.851 186.551 -111.878 208.599 -96.962C230.623 -82.0225 247.808 -60.8173 257.955 -35.9883C268.102 -11.1593 270.744 16.148 265.577 42.5201C260.41 68.8688 247.644 93.09 228.917 112.097C210.189 131.105 186.318 144.034 160.318 149.271C134.319 154.508 107.385 151.819 82.9058 141.532C58.4265 131.245 37.501 113.828 22.7713 91.5002C8.0416 69.1494 0.185791 42.8941 0.185791 16.0077C0.185791 -1.83085 3.6461 -19.5057 10.3797 -35.9883C17.1132 -52.4708 26.9798 -67.4571 39.4182 -80.0587C51.8566 -92.6836 66.633 -102.69 82.8824 -109.517C99.1318 -116.344 116.55 -119.851 134.156 -119.851V-119.851ZM90.4577 16.0077C90.4577 81.6574 134.156 134.893 134.156 134.893C134.156 134.893 177.854 81.6807 177.854 16.0077C177.854 -49.6653 134.156 -102.854 134.156 -102.854C134.156 -102.854 90.4577 -49.6419 90.4577 16.0077Z" fill="url(#paint0_linear_732_17758)"/>
<path d="M413.809 -119.851C440.299 -119.851 466.205 -111.878 488.253 -96.962C510.277 -82.0225 527.462 -60.8173 537.609 -35.9883C547.756 -11.1593 550.398 16.148 545.231 42.5201C540.064 68.8688 527.298 93.09 508.57 112.097C489.843 131.105 465.971 144.034 439.972 149.271C413.973 154.508 387.039 151.819 362.559 141.532C338.08 131.245 317.155 113.828 302.425 91.5002C287.695 69.1494 279.839 42.8941 279.839 16.0077C279.839 -1.83085 283.3 -19.5057 290.033 -35.9883C296.767 -52.4708 306.633 -67.4571 319.072 -80.0587C331.51 -92.6836 346.287 -102.69 362.536 -109.517C378.785 -116.344 396.204 -119.851 413.809 -119.851V-119.851ZM370.111 16.0077C370.111 81.6574 413.809 134.893 413.809 134.893C413.809 134.893 457.507 81.6807 457.507 16.0077C457.507 -49.6653 413.809 -102.854 413.809 -102.854C413.809 -102.854 370.111 -49.6419 370.111 16.0077Z" fill="url(#paint1_linear_732_17758)"/>
<path d="M230.53 110.04C245.377 94.329 256.225 75.2747 262.257 54.5137C247.832 55.8229 233.686 59.5169 220.383 65.4319C204.274 72.6094 189.731 82.9198 177.573 95.8019C165.415 108.684 155.853 123.857 149.493 140.48C148.137 144.034 146.922 147.634 145.869 151.281C151.527 150.767 157.162 149.902 162.75 148.663C188.632 142.865 212.223 129.422 230.53 110.017V110.04Z" fill="url(#paint2_linear_732_17758)"/>
<path d="M273.41 54.5137C299.9 54.5137 325.805 62.4861 347.853 77.4022C369.877 92.3417 387.062 113.547 397.209 138.376C407.356 163.205 409.998 190.512 404.831 216.884C399.664 243.233 386.898 267.454 368.171 286.462C349.443 305.469 325.571 318.398 299.572 323.635C273.573 328.872 246.639 326.184 222.16 315.897C197.68 305.61 176.755 288.192 162.025 265.864C147.296 243.514 139.44 217.258 139.44 190.372C139.44 172.533 142.9 154.858 149.634 138.376C156.367 121.893 166.234 106.907 178.672 94.3056C191.11 81.6807 205.887 71.6742 222.136 64.8474C238.386 58.0206 255.804 54.5137 273.41 54.5137V54.5137ZM229.712 190.372C229.712 256.022 273.41 309.257 273.41 309.257C273.41 309.257 317.108 256.045 317.108 190.372C317.108 124.699 273.41 71.5106 273.41 71.5106C273.41 71.5106 229.712 124.722 229.712 190.372V190.372Z" fill="url(#paint3_linear_732_17758)"/>
<path d="M371 95.802C385.846 111.513 396.695 130.567 402.727 151.328C388.301 150.019 374.156 146.325 360.853 140.41C344.744 133.233 330.201 122.922 318.043 110.04C305.885 97.158 296.323 81.9847 289.963 65.3619C288.607 61.8082 287.391 58.2077 286.339 54.5605C291.997 55.0749 297.632 55.9399 303.22 57.179C329.102 62.9772 352.693 76.4204 371 95.8254V95.802Z" fill="url(#paint4_linear_732_17758)"/>
</g>
<defs>
<linearGradient id="paint0_linear_732_17758" x1="0.185791" y1="15.981" x2="268.153" y2="15.981" gradientUnits="userSpaceOnUse">
<stop stop-color="#81FFA0" stop-opacity="0"/>
<stop offset="0.45467"/>
<stop offset="1" stop-color="#97FF99" stop-opacity="0"/>
</linearGradient>
<linearGradient id="paint1_linear_732_17758" x1="279.839" y1="15.981" x2="547.806" y2="15.981" gradientUnits="userSpaceOnUse">
<stop stop-color="#81FFA0" stop-opacity="0"/>
<stop offset="0.45467"/>
<stop offset="1" stop-color="#97FF99" stop-opacity="0"/>
</linearGradient>
<linearGradient id="paint2_linear_732_17758" x1="145.869" y1="102.886" x2="262.257" y2="102.886" gradientUnits="userSpaceOnUse">
<stop offset="0.07" stop-color="#82FFA0" stop-opacity="0"/>
<stop offset="1"/>
</linearGradient>
<linearGradient id="paint3_linear_732_17758" x1="139.44" y1="190.345" x2="407.407" y2="190.345" gradientUnits="userSpaceOnUse">
<stop stop-color="#81FFA0" stop-opacity="0"/>
<stop offset="0.45467"/>
<stop offset="1" stop-color="#97FF99" stop-opacity="0"/>
</linearGradient>
<linearGradient id="paint4_linear_732_17758" x1="286.339" y1="102.933" x2="402.727" y2="102.933" gradientUnits="userSpaceOnUse">
<stop offset="0.07" stop-color="#82FFA0" stop-opacity="0"/>
<stop offset="1"/>
</linearGradient>
<clipPath id="clip0_732_17758">
<rect width="1095" height="619.253" fill="white" transform="translate(0 -293)"/>
</clipPath>
</defs>
</svg>
