<svg width="107" height="97" viewBox="0 0 107 97" fill="none" xmlns="http://www.w3.org/2000/svg">
<path d="M35.3461 -21.1094C42.3254 -21.1094 49.1507 -19.0089 54.9596 -15.079C60.7623 -11.1429 65.2899 -5.556 67.9633 0.985657C70.6368 7.52731 71.3329 14.7219 69.9715 21.6701C68.6101 28.6121 65.2468 34.9936 60.3126 40.0015C55.3784 45.0094 49.0891 48.4157 42.2392 49.7955C35.3892 51.1753 28.2929 50.4669 21.8434 47.7567C15.3939 45.0464 9.88067 40.4574 5.99987 34.5748C2.11907 28.6861 0.0493164 21.7687 0.0493164 14.6849C0.0493164 9.98505 0.960997 5.32828 2.73508 0.985657C4.50916 -3.35697 7.10868 -7.30537 10.3858 -10.6255C13.6629 -13.9517 17.556 -16.5881 21.8372 -18.3868C26.1184 -20.1854 30.7076 -21.1094 35.3461 -21.1094ZM23.8331 14.6849C23.8331 31.9815 35.3461 46.0073 35.3461 46.0073C35.3461 46.0073 46.8592 31.9877 46.8592 14.6849C46.8592 -2.6178 35.3461 -16.6312 35.3461 -16.6312C35.3461 -16.6312 23.8331 -2.61164 23.8331 14.6849Z" fill="url(#paint0_linear_957_16321)"/>
<path d="M109.026 -21.1094C116.006 -21.1094 122.831 -19.0089 128.64 -15.079C134.442 -11.1429 138.97 -5.556 141.644 0.985657C144.317 7.52731 145.013 14.7219 143.652 21.6701C142.29 28.6121 138.927 34.9936 133.993 40.0015C129.059 45.0094 122.769 48.4157 115.919 49.7955C109.069 51.1753 101.973 50.4669 95.5236 47.7567C89.0741 45.0464 83.5609 40.4574 79.6801 34.5748C75.7993 28.6861 73.7295 21.7687 73.7295 14.6849C73.7295 9.98505 74.6412 5.32828 76.4153 0.985657C78.1893 -3.35697 80.7889 -7.30537 84.066 -10.6255C87.3431 -13.9517 91.2362 -16.5881 95.5174 -18.3868C99.7986 -20.1854 104.388 -21.1094 109.026 -21.1094ZM97.5133 14.6849C97.5133 31.9815 109.026 46.0073 109.026 46.0073C109.026 46.0073 120.539 31.9877 120.539 14.6849C120.539 -2.6178 109.026 -16.6312 109.026 -16.6312C109.026 -16.6312 97.5133 -2.61164 97.5133 14.6849Z" fill="url(#paint1_linear_957_16321)"/>
<path d="M60.7375 39.4595C64.6491 35.3201 67.5073 30.2999 69.0966 24.8301C65.2959 25.175 61.5691 26.1483 58.064 27.7067C53.8198 29.5977 49.9883 32.3142 46.7851 35.7082C43.5819 39.1022 41.0624 43.0999 39.3869 47.4795C39.0296 48.4158 38.7093 49.3644 38.4321 50.3253C39.9228 50.1898 41.4074 49.9619 42.8797 49.6354C49.6988 48.1078 55.9142 44.5659 60.7375 39.4533V39.4595Z" fill="url(#paint2_linear_957_16321)"/>
<path d="M97.4265 -6.33152C101.338 -10.4709 104.196 -15.4911 105.786 -20.9609C101.985 -20.616 98.2581 -19.6428 94.753 -18.0843C90.5088 -16.1933 86.6773 -13.4768 83.4741 -10.0828C80.2709 -6.68879 77.7514 -2.69111 76.0759 1.68847C75.7186 2.62476 75.3983 3.57336 75.1211 4.53428C76.6118 4.39877 78.0964 4.17085 79.5686 3.84439C86.3877 2.31677 92.6032 -1.22509 97.4265 -6.33768V-6.33152Z" fill="url(#paint3_linear_957_16321)"/>
<path d="M72.0351 24.8301C79.0144 24.8301 85.8396 26.9305 91.6485 30.8605C97.4513 34.7966 101.979 40.3834 104.652 46.9251C107.326 53.4668 108.022 60.6614 106.66 67.6096C105.299 74.5516 101.936 80.9331 97.0016 85.941C92.0674 90.9489 85.7781 94.3552 78.9281 95.735C72.0782 97.1148 64.9819 96.4064 58.5324 93.6961C52.0828 90.9858 46.5696 86.3968 42.6888 80.5142C38.808 74.6255 36.7383 67.7081 36.7383 60.6244C36.7383 55.9245 37.65 51.2677 39.424 46.9251C41.1981 42.5825 43.7976 38.6341 47.0748 35.314C50.3519 31.9877 54.245 29.3513 58.5262 27.5527C62.8074 25.754 67.3966 24.8301 72.0351 24.8301ZM60.522 60.6244C60.522 77.921 72.0351 91.9467 72.0351 91.9467C72.0351 91.9467 83.5481 77.9271 83.5481 60.6244C83.5481 43.3217 72.0351 29.3082 72.0351 29.3082C72.0351 29.3082 60.522 43.3278 60.522 60.6244Z" fill="url(#paint4_linear_957_16321)"/>
<path d="M97.7473 35.7081C101.659 39.8474 104.517 44.8676 106.106 50.3375C102.306 49.9926 98.5789 49.0193 95.0738 47.4609C90.8296 45.5699 86.9981 42.8534 83.7949 39.4594C80.5917 36.0654 78.0722 32.0677 76.3967 27.6881C76.0394 26.7518 75.7191 25.8032 75.4419 24.8423C76.9326 24.9778 78.4172 25.2057 79.8894 25.5322C86.7085 27.0598 92.924 30.6017 97.7473 35.7142V35.7081Z" fill="url(#paint5_linear_957_16321)"/>
<path d="M72.0351 -66.7285C79.0144 -66.7285 85.8396 -64.628 91.6485 -60.6981C97.4513 -56.762 101.979 -51.1751 104.652 -44.6335C107.326 -38.0918 108.022 -30.8972 106.66 -23.949C105.299 -17.007 101.936 -10.6255 97.0016 -5.61761C92.0674 -0.609741 85.7781 2.79661 78.9281 4.17639C72.0782 5.55618 64.9819 4.8478 58.5324 2.13751C52.0828 -0.572777 46.5696 -5.16179 42.6888 -11.0444C38.808 -16.9331 36.7383 -23.8505 36.7383 -30.9342C36.7383 -35.6341 37.65 -40.2909 39.424 -44.6335C41.1981 -48.9761 43.7976 -52.9245 47.0748 -56.2446C50.3519 -59.5709 54.245 -62.2073 58.5262 -64.0059C62.8074 -65.8046 67.3966 -66.7285 72.0351 -66.7285ZM60.522 -30.9342C60.522 -13.6376 72.0351 0.388145 72.0351 0.388145C72.0351 0.388145 83.5481 -13.6315 83.5481 -30.9342C83.5481 -48.2369 72.0351 -62.2504 72.0351 -62.2504C72.0351 -62.2504 60.522 -48.2308 60.522 -30.9342Z" fill="url(#paint6_linear_957_16321)"/>
<path d="M60.4177 -10.0834C64.3293 -5.94406 67.1875 -0.923862 68.7768 4.546C64.9761 4.20105 61.2493 3.22781 57.7442 1.6694C53.5 -0.221649 49.6685 -2.9381 46.4653 -6.33212C43.2621 -9.72615 40.7426 -13.7238 39.0671 -18.1034C38.7098 -19.0397 38.3895 -19.9883 38.1123 -20.9492C39.603 -20.8137 41.0876 -20.5858 42.5598 -20.2593C49.3789 -18.7317 55.5944 -15.1898 60.4177 -10.0773V-10.0834Z" fill="url(#paint7_linear_957_16321)"/>
<defs>
<linearGradient id="paint0_linear_957_16321" x1="0.0493164" y1="14.6779" x2="70.65" y2="14.6779" gradientUnits="userSpaceOnUse">
<stop stop-color="#81FFA0" stop-opacity="0"/>
<stop offset="0.45467"/>
<stop offset="1" stop-color="#97FF99" stop-opacity="0"/>
</linearGradient>
<linearGradient id="paint1_linear_957_16321" x1="73.7295" y1="14.6779" x2="144.33" y2="14.6779" gradientUnits="userSpaceOnUse">
<stop stop-color="#81FFA0" stop-opacity="0"/>
<stop offset="0.45467"/>
<stop offset="1" stop-color="#97FF99" stop-opacity="0"/>
</linearGradient>
<linearGradient id="paint2_linear_957_16321" x1="38.4321" y1="37.5746" x2="69.0966" y2="37.5746" gradientUnits="userSpaceOnUse">
<stop offset="0.07" stop-color="#82FFA0" stop-opacity="0"/>
<stop offset="1"/>
</linearGradient>
<linearGradient id="paint3_linear_957_16321" x1="75.1211" y1="-8.21641" x2="105.786" y2="-8.21641" gradientUnits="userSpaceOnUse">
<stop offset="0.07" stop-color="#82FFA0" stop-opacity="0"/>
<stop offset="1"/>
</linearGradient>
<linearGradient id="paint4_linear_957_16321" x1="36.7383" y1="60.6173" x2="107.339" y2="60.6173" gradientUnits="userSpaceOnUse">
<stop stop-color="#81FFA0" stop-opacity="0"/>
<stop offset="0.45467"/>
<stop offset="1" stop-color="#97FF99" stop-opacity="0"/>
</linearGradient>
<linearGradient id="paint5_linear_957_16321" x1="75.4419" y1="37.5868" x2="106.106" y2="37.5868" gradientUnits="userSpaceOnUse">
<stop offset="0.07" stop-color="#82FFA0" stop-opacity="0"/>
<stop offset="1"/>
</linearGradient>
<linearGradient id="paint6_linear_957_16321" x1="36.7383" y1="-30.9412" x2="107.339" y2="-30.9412" gradientUnits="userSpaceOnUse">
<stop stop-color="#81FFA0" stop-opacity="0"/>
<stop offset="0.45467"/>
<stop offset="1" stop-color="#97FF99" stop-opacity="0"/>
</linearGradient>
<linearGradient id="paint7_linear_957_16321" x1="38.1123" y1="-8.20469" x2="68.7768" y2="-8.20469" gradientUnits="userSpaceOnUse">
<stop offset="0.07" stop-color="#82FFA0" stop-opacity="0"/>
<stop offset="1"/>
</linearGradient>
</defs>
</svg>
