<svg width="834" height="680" viewBox="0 0 834 680" fill="none" xmlns="http://www.w3.org/2000/svg">
<g filter="url(#filter0_f_1080_21180)">
<path d="M827.123 759.264C881.853 942.08 1026.64 859.968 900.01 940.983C875.08 932.521 933.818 983.953 812.082 1090.34C690.346 1196.74 618.529 1062.24 451.712 1050.22C284.894 1038.2 35.8492 1100.08 29.2053 914.321C22.5615 728.567 -8.73738 498.151 189.469 437.502C387.676 376.852 470.84 475.709 664.664 438.797C858.489 401.885 758.711 530.744 827.123 759.264Z" fill="#BBFF86"/>
<path d="M615.847 650.046C672.3 789.083 515.637 956.6 391.34 989.849C267.043 1023.1 66.4411 1112.08 -28.5156 919.506C-123.472 726.931 -150.189 633.561 20.2642 553.783C190.717 474.006 201.532 389.334 369.27 329.396C537.008 269.458 545.281 476.25 615.847 650.046Z" fill="#49E49F"/>
</g>
<defs>
<filter id="filter0_f_1080_21180" x="-422.475" y="0.175507" width="1691.64" height="1449.51" filterUnits="userSpaceOnUse" color-interpolation-filters="sRGB">
<feFlood flood-opacity="0" result="BackgroundImageFix"/>
<feBlend mode="normal" in="SourceGraphic" in2="BackgroundImageFix" result="shape"/>
<feGaussianBlur stdDeviation="159.324" result="effect1_foregroundBlur_1080_21180"/>
</filter>
</defs>
</svg>
