<svg width="1728" height="976" viewBox="0 0 1728 976" fill="none" xmlns="http://www.w3.org/2000/svg">
<g filter="url(#filter0_f_732_10951)">
<path d="M1629.74 1183.54C1731 1470.4 1998.87 1341.56 1764.59 1468.68C1718.47 1455.4 1827.14 1536.11 1601.91 1703.05C1376.68 1869.99 1243.81 1658.95 935.165 1640.09C626.525 1621.23 165.749 1718.32 153.457 1426.84C141.164 1135.37 83.2564 773.819 449.973 678.652C816.689 583.485 970.555 738.604 1329.16 680.684C1687.77 622.764 1503.17 824.961 1629.74 1183.54Z" fill="#BBFF86"/>
<path d="M1238.84 1012.16C1343.29 1230.33 1053.44 1493.19 823.468 1545.36C593.497 1597.53 222.349 1737.16 46.6633 1434.98C-129.023 1132.8 -178.453 986.295 136.914 861.114C452.281 735.932 472.29 603.071 782.634 509.02C1092.98 414.97 1108.28 739.454 1238.84 1012.16Z" fill="#49E49F"/>
</g>
<defs>
<filter id="filter0_f_732_10951" x="-592.677" y="-7.57031" width="2950.71" height="2274.47" filterUnits="userSpaceOnUse" color-interpolation-filters="sRGB">
<feFlood flood-opacity="0" result="BackgroundImageFix"/>
<feBlend mode="normal" in="SourceGraphic" in2="BackgroundImageFix" result="shape"/>
<feGaussianBlur stdDeviation="250" result="effect1_foregroundBlur_732_10951"/>
</filter>
</defs>
</svg>
