<svg width="375" height="505" viewBox="0 0 375 505" fill="none" xmlns="http://www.w3.org/2000/svg">
<g filter="url(#filter0_f_938_12224)">
<path d="M639.483 694.948C733.538 875.687 982.355 794.508 764.742 874.603C721.9 866.237 822.843 917.085 613.635 1022.27C404.426 1127.45 281.004 994.482 -5.67979 982.6C-292.363 970.718 -720.359 1031.89 -731.777 848.243C-743.195 664.599 -796.983 436.801 -456.356 376.84C-115.728 316.88 27.1925 414.613 360.29 378.12C693.387 341.628 521.913 469.023 639.483 694.948Z" fill="#BBFF86"/>
<path d="M276.395 586.971C373.412 724.428 104.179 890.042 -109.431 922.914C-323.041 955.785 -667.785 1043.76 -830.973 853.37C-994.161 662.982 -1040.07 570.673 -747.143 491.801C-454.211 412.93 -435.626 329.22 -147.36 269.963C140.906 210.705 155.123 415.149 276.395 586.971Z" fill="#49E49F"/>
</g>
<defs>
<filter id="filter0_f_938_12224" x="-1219.62" y="0.2883" width="2330.38" height="1321.43" filterUnits="userSpaceOnUse" color-interpolation-filters="sRGB">
<feFlood flood-opacity="0" result="BackgroundImageFix"/>
<feBlend mode="normal" in="SourceGraphic" in2="BackgroundImageFix" result="shape"/>
<feGaussianBlur stdDeviation="129.611" result="effect1_foregroundBlur_938_12224"/>
</filter>
</defs>
</svg>
