<svg xmlns="http://www.w3.org/2000/svg" width="144.4" height="150.506" viewBox="0 0 144.4 150.506">
  <g id="notion-seeklogo.com" transform="translate(-95.1 -125.747)">
    <g id="Group_3" data-name="Group 3">
      <path id="Path_77" data-name="Path 77" d="M120,152.1c4.7,3.8,6.4,3.5,15.2,2.9l82.9-5c1.8,0,.3-1.8-.3-2L204,138.1a16.707,16.707,0,0,0-12.9-3.8l-80.2,5.9c-2.9.3-3.5,1.8-2.3,2.9Zm5,19.3v87.2c0,4.7,2.3,6.4,7.6,6.1l91.1-5.3c5.3-.3,5.9-3.5,5.9-7.3V165.5c0-3.8-1.5-5.9-4.7-5.6l-95.2,5.6c-3.5.3-4.7,2.1-4.7,5.9Zm89.9,4.7c.6,2.6,0,5.3-2.6,5.6l-4.4.9V247c-3.8,2-7.3,3.2-10.3,3.2-4.7,0-5.9-1.5-9.4-5.9l-28.7-45.1v43.6l9.1,2s0,5.3-7.3,5.3l-20.2,1.2c-.6-1.2,0-4.1,2-4.7l5.3-1.5V187.5l-7.3-.6a5.472,5.472,0,0,1,5-6.7l21.7-1.5,29.9,45.6V184l-7.6-.9a5.025,5.025,0,0,1,4.7-5.9ZM104.2,132.2l83.5-6.1c10.2-.9,12.9-.3,19.3,4.4l26.6,18.7c4.4,3.2,5.9,4.1,5.9,7.6V259.5c0,6.4-2.3,10.2-10.5,10.8l-96.9,5.9c-6.2.3-9.1-.6-12.3-4.7L100.1,246c-3.5-4.7-5-8.2-5-12.3V142.4C95.1,137.1,97.5,132.8,104.2,132.2Z" fill="#fff" fill-rule="evenodd"/>
    </g>
  </g>
</svg>
